M48
;Layer_Color=9474304
;FILE_FORMAT=4:4
METRIC,LZ
;TYPE=PLATED
T4F00S00C0.6000
T6F00S00C0.8000
T9F00S00C0.9500
T11F00S00C1.0000
;TYPE=NON_PLATED
%
G90
G05
T04
G00X0049655Y0103995
M15
G01Y0103395
M16
G00X0049655Y0108725
M15
G01Y0108125
M16
G00X0058195Y0108725
M15
G01Y0108125
M16
G00X0058195Y0103995
M15
G01Y0103395
M16
T06
G00X006435Y010115
M15
G01Y01034
M16
G00X0070275Y0105275
M15
G01X0068025
M16
T09
G00X00091501Y00471483
M15
G01X00109501
M16
G00X00065501Y00536483
M15
G01X00083501
M16
G00X00155501Y00536483
M15
G01X00173501
M16
G00X00186501Y00471483
M15
G01X00204501
M16
G00X00186501Y00633483
M15
G01X00204501
M16
G00X00091501Y00633483
M15
G01X00109501
M16
G00X00065501Y00698483
M15
G01X00083501
M16
G00X00155501Y00698483
M15
G01X00173501
M16
T11
G00X007043Y0098975
M15
G01X006787
M16
M17
M30
