G04*
G04 #@! TF.GenerationSoftware,Altium Limited,Altium Designer,19.1.6 (110)*
G04*
G04 Layer_Color=255*
%FSLAX44Y44*%
%MOMM*%
G71*
G01*
G75*
G04:AMPARAMS|DCode=22|XSize=0.6mm|YSize=0.6mm|CornerRadius=0.06mm|HoleSize=0mm|Usage=FLASHONLY|Rotation=0.000|XOffset=0mm|YOffset=0mm|HoleType=Round|Shape=RoundedRectangle|*
%AMROUNDEDRECTD22*
21,1,0.6000,0.4800,0,0,0.0*
21,1,0.4800,0.6000,0,0,0.0*
1,1,0.1200,0.2400,-0.2400*
1,1,0.1200,-0.2400,-0.2400*
1,1,0.1200,-0.2400,0.2400*
1,1,0.1200,0.2400,0.2400*
%
%ADD22ROUNDEDRECTD22*%
G04:AMPARAMS|DCode=23|XSize=1.4mm|YSize=1mm|CornerRadius=0.125mm|HoleSize=0mm|Usage=FLASHONLY|Rotation=0.000|XOffset=0mm|YOffset=0mm|HoleType=Round|Shape=RoundedRectangle|*
%AMROUNDEDRECTD23*
21,1,1.4000,0.7500,0,0,0.0*
21,1,1.1500,1.0000,0,0,0.0*
1,1,0.2500,0.5750,-0.3750*
1,1,0.2500,-0.5750,-0.3750*
1,1,0.2500,-0.5750,0.3750*
1,1,0.2500,0.5750,0.3750*
%
%ADD23ROUNDEDRECTD23*%
%ADD24R,0.7000X0.2000*%
%ADD25R,0.6000X2.0000*%
%ADD26R,2.3000X3.2000*%
G04:AMPARAMS|DCode=27|XSize=0.5mm|YSize=0.6mm|CornerRadius=0.05mm|HoleSize=0mm|Usage=FLASHONLY|Rotation=0.000|XOffset=0mm|YOffset=0mm|HoleType=Round|Shape=RoundedRectangle|*
%AMROUNDEDRECTD27*
21,1,0.5000,0.5000,0,0,0.0*
21,1,0.4000,0.6000,0,0,0.0*
1,1,0.1000,0.2000,-0.2500*
1,1,0.1000,-0.2000,-0.2500*
1,1,0.1000,-0.2000,0.2500*
1,1,0.1000,0.2000,0.2500*
%
%ADD27ROUNDEDRECTD27*%
G04:AMPARAMS|DCode=28|XSize=0.5mm|YSize=0.6mm|CornerRadius=0.05mm|HoleSize=0mm|Usage=FLASHONLY|Rotation=90.000|XOffset=0mm|YOffset=0mm|HoleType=Round|Shape=RoundedRectangle|*
%AMROUNDEDRECTD28*
21,1,0.5000,0.5000,0,0,90.0*
21,1,0.4000,0.6000,0,0,90.0*
1,1,0.1000,0.2500,0.2000*
1,1,0.1000,0.2500,-0.2000*
1,1,0.1000,-0.2500,-0.2000*
1,1,0.1000,-0.2500,0.2000*
%
%ADD28ROUNDEDRECTD28*%
G04:AMPARAMS|DCode=29|XSize=0.6mm|YSize=0.6mm|CornerRadius=0.06mm|HoleSize=0mm|Usage=FLASHONLY|Rotation=270.000|XOffset=0mm|YOffset=0mm|HoleType=Round|Shape=RoundedRectangle|*
%AMROUNDEDRECTD29*
21,1,0.6000,0.4800,0,0,270.0*
21,1,0.4800,0.6000,0,0,270.0*
1,1,0.1200,-0.2400,-0.2400*
1,1,0.1200,-0.2400,0.2400*
1,1,0.1200,0.2400,0.2400*
1,1,0.1200,0.2400,-0.2400*
%
%ADD29ROUNDEDRECTD29*%
%ADD30R,0.2200X0.9100*%
%ADD31R,0.2200X0.8100*%
%ADD32R,0.8100X0.2200*%
%ADD33R,4.1500X2.1500*%
%ADD34R,2.8000X4.0000*%
%ADD35R,2.8000X3.8000*%
%ADD36R,1.5019X1.0013*%
%ADD37R,1.0000X1.5000*%
%ADD38R,1.4006X0.8004*%
%ADD39R,1.5011X0.8006*%
%ADD40R,1.5018X1.5018*%
%ADD41R,1.5009X1.5009*%
%ADD42R,1.7526X0.7011*%
%ADD43R,1.7518X0.7007*%
%ADD44R,1.7504X0.7002*%
%ADD45R,1.7525X0.7010*%
%ADD46R,1.7522X0.7009*%
%ADD47R,1.7516X0.7006*%
%ADD48R,1.7530X0.7012*%
%ADD49R,1.7504X0.7002*%
%ADD50R,2.1000X0.7000*%
%ADD51R,1.1400X0.8000*%
G04:AMPARAMS|DCode=52|XSize=0.7mm|YSize=0.4mm|CornerRadius=0.05mm|HoleSize=0mm|Usage=FLASHONLY|Rotation=90.000|XOffset=0mm|YOffset=0mm|HoleType=Round|Shape=RoundedRectangle|*
%AMROUNDEDRECTD52*
21,1,0.7000,0.3000,0,0,90.0*
21,1,0.6000,0.4000,0,0,90.0*
1,1,0.1000,0.1500,0.3000*
1,1,0.1000,0.1500,-0.3000*
1,1,0.1000,-0.1500,-0.3000*
1,1,0.1000,-0.1500,0.3000*
%
%ADD52ROUNDEDRECTD52*%
%ADD53C,1.6000*%
G04:AMPARAMS|DCode=54|XSize=0.85mm|YSize=3.55mm|CornerRadius=0.2125mm|HoleSize=0mm|Usage=FLASHONLY|Rotation=0.000|XOffset=0mm|YOffset=0mm|HoleType=Round|Shape=RoundedRectangle|*
%AMROUNDEDRECTD54*
21,1,0.8500,3.1250,0,0,0.0*
21,1,0.4250,3.5500,0,0,0.0*
1,1,0.4250,0.2125,-1.5625*
1,1,0.4250,-0.2125,-1.5625*
1,1,0.4250,-0.2125,1.5625*
1,1,0.4250,0.2125,1.5625*
%
%ADD54ROUNDEDRECTD54*%
G04:AMPARAMS|DCode=55|XSize=0.85mm|YSize=2.65mm|CornerRadius=0.2125mm|HoleSize=0mm|Usage=FLASHONLY|Rotation=0.000|XOffset=0mm|YOffset=0mm|HoleType=Round|Shape=RoundedRectangle|*
%AMROUNDEDRECTD55*
21,1,0.8500,2.2250,0,0,0.0*
21,1,0.4250,2.6500,0,0,0.0*
1,1,0.4250,0.2125,-1.1125*
1,1,0.4250,-0.2125,-1.1125*
1,1,0.4250,-0.2125,1.1125*
1,1,0.4250,0.2125,1.1125*
%
%ADD55ROUNDEDRECTD55*%
%ADD56R,3.7000X1.6000*%
%ADD57R,1.5000X0.7500*%
%ADD58R,0.6000X0.9000*%
%ADD59R,0.2000X1.0000*%
%ADD60R,0.3000X1.2000*%
G04:AMPARAMS|DCode=61|XSize=1mm|YSize=0.9mm|CornerRadius=0.1125mm|HoleSize=0mm|Usage=FLASHONLY|Rotation=270.000|XOffset=0mm|YOffset=0mm|HoleType=Round|Shape=RoundedRectangle|*
%AMROUNDEDRECTD61*
21,1,1.0000,0.6750,0,0,270.0*
21,1,0.7750,0.9000,0,0,270.0*
1,1,0.2250,-0.3375,-0.3875*
1,1,0.2250,-0.3375,0.3875*
1,1,0.2250,0.3375,0.3875*
1,1,0.2250,0.3375,-0.3875*
%
%ADD61ROUNDEDRECTD61*%
G04:AMPARAMS|DCode=62|XSize=1.8mm|YSize=1.15mm|CornerRadius=0.1438mm|HoleSize=0mm|Usage=FLASHONLY|Rotation=180.000|XOffset=0mm|YOffset=0mm|HoleType=Round|Shape=RoundedRectangle|*
%AMROUNDEDRECTD62*
21,1,1.8000,0.8625,0,0,180.0*
21,1,1.5125,1.1500,0,0,180.0*
1,1,0.2875,-0.7563,0.4313*
1,1,0.2875,0.7563,0.4313*
1,1,0.2875,0.7563,-0.4313*
1,1,0.2875,-0.7563,-0.4313*
%
%ADD62ROUNDEDRECTD62*%
G04:AMPARAMS|DCode=63|XSize=3.3mm|YSize=1.6mm|CornerRadius=0.2mm|HoleSize=0mm|Usage=FLASHONLY|Rotation=180.000|XOffset=0mm|YOffset=0mm|HoleType=Round|Shape=RoundedRectangle|*
%AMROUNDEDRECTD63*
21,1,3.3000,1.2000,0,0,180.0*
21,1,2.9000,1.6000,0,0,180.0*
1,1,0.4000,-1.4500,0.6000*
1,1,0.4000,1.4500,0.6000*
1,1,0.4000,1.4500,-0.6000*
1,1,0.4000,-1.4500,-0.6000*
%
%ADD63ROUNDEDRECTD63*%
G04:AMPARAMS|DCode=64|XSize=6.7mm|YSize=6.7mm|CornerRadius=0.8375mm|HoleSize=0mm|Usage=FLASHONLY|Rotation=180.000|XOffset=0mm|YOffset=0mm|HoleType=Round|Shape=RoundedRectangle|*
%AMROUNDEDRECTD64*
21,1,6.7000,5.0250,0,0,180.0*
21,1,5.0250,6.7000,0,0,180.0*
1,1,1.6750,-2.5125,2.5125*
1,1,1.6750,2.5125,2.5125*
1,1,1.6750,2.5125,-2.5125*
1,1,1.6750,-2.5125,-2.5125*
%
%ADD64ROUNDEDRECTD64*%
%ADD65R,0.3100X0.3000*%
%ADD66R,0.9000X2.5500*%
%ADD67R,1.4000X2.5500*%
G04:AMPARAMS|DCode=68|XSize=0.25mm|YSize=1mm|CornerRadius=0.0625mm|HoleSize=0mm|Usage=FLASHONLY|Rotation=90.000|XOffset=0mm|YOffset=0mm|HoleType=Round|Shape=RoundedRectangle|*
%AMROUNDEDRECTD68*
21,1,0.2500,0.8750,0,0,90.0*
21,1,0.1250,1.0000,0,0,90.0*
1,1,0.1250,0.4375,0.0625*
1,1,0.1250,0.4375,-0.0625*
1,1,0.1250,-0.4375,-0.0625*
1,1,0.1250,-0.4375,0.0625*
%
%ADD68ROUNDEDRECTD68*%
G04:AMPARAMS|DCode=69|XSize=0.25mm|YSize=1mm|CornerRadius=0.0625mm|HoleSize=0mm|Usage=FLASHONLY|Rotation=180.000|XOffset=0mm|YOffset=0mm|HoleType=Round|Shape=RoundedRectangle|*
%AMROUNDEDRECTD69*
21,1,0.2500,0.8750,0,0,180.0*
21,1,0.1250,1.0000,0,0,180.0*
1,1,0.1250,-0.0625,0.4375*
1,1,0.1250,0.0625,0.4375*
1,1,0.1250,0.0625,-0.4375*
1,1,0.1250,-0.0625,-0.4375*
%
%ADD69ROUNDEDRECTD69*%
%ADD70R,0.3300X0.8500*%
%ADD71R,0.8500X0.3300*%
%ADD72R,2.4000X2.4000*%
G04:AMPARAMS|DCode=73|XSize=2mm|YSize=3.4mm|CornerRadius=0mm|HoleSize=0mm|Usage=FLASHONLY|Rotation=0.000|XOffset=0mm|YOffset=0mm|HoleType=Round|Shape=Octagon|*
%AMOCTAGOND73*
4,1,8,-0.5000,1.7000,0.5000,1.7000,1.0000,1.2000,1.0000,-1.2000,0.5000,-1.7000,-0.5000,-1.7000,-1.0000,-1.2000,-1.0000,1.2000,-0.5000,1.7000,0.0*
%
%ADD73OCTAGOND73*%

%ADD74R,0.7112X1.6000*%
%ADD75R,0.9144X2.0000*%
G04:AMPARAMS|DCode=76|XSize=0.95mm|YSize=0.65mm|CornerRadius=0.1625mm|HoleSize=0mm|Usage=FLASHONLY|Rotation=180.000|XOffset=0mm|YOffset=0mm|HoleType=Round|Shape=RoundedRectangle|*
%AMROUNDEDRECTD76*
21,1,0.9500,0.3250,0,0,180.0*
21,1,0.6250,0.6500,0,0,180.0*
1,1,0.3250,-0.3125,0.1625*
1,1,0.3250,0.3125,0.1625*
1,1,0.3250,0.3125,-0.1625*
1,1,0.3250,-0.3125,-0.1625*
%
%ADD76ROUNDEDRECTD76*%
G04:AMPARAMS|DCode=77|XSize=0.95mm|YSize=1mm|CornerRadius=0.2375mm|HoleSize=0mm|Usage=FLASHONLY|Rotation=180.000|XOffset=0mm|YOffset=0mm|HoleType=Round|Shape=RoundedRectangle|*
%AMROUNDEDRECTD77*
21,1,0.9500,0.5250,0,0,180.0*
21,1,0.4750,1.0000,0,0,180.0*
1,1,0.4750,-0.2375,0.2625*
1,1,0.4750,0.2375,0.2625*
1,1,0.4750,0.2375,-0.2625*
1,1,0.4750,-0.2375,-0.2625*
%
%ADD77ROUNDEDRECTD77*%
%ADD78R,1.0000X1.5500*%
%ADD79R,1.6000X1.2000*%
%ADD80R,1.2000X1.2000*%
%ADD81R,2.1500X1.2000*%
%ADD82R,4.0000X5.0000*%
G04:AMPARAMS|DCode=83|XSize=0.8mm|YSize=0.8mm|CornerRadius=0.1mm|HoleSize=0mm|Usage=FLASHONLY|Rotation=90.000|XOffset=0mm|YOffset=0mm|HoleType=Round|Shape=RoundedRectangle|*
%AMROUNDEDRECTD83*
21,1,0.8000,0.6000,0,0,90.0*
21,1,0.6000,0.8000,0,0,90.0*
1,1,0.2000,0.3000,0.3000*
1,1,0.2000,0.3000,-0.3000*
1,1,0.2000,-0.3000,-0.3000*
1,1,0.2000,-0.3000,0.3000*
%
%ADD83ROUNDEDRECTD83*%
%ADD84R,3.3000X1.2700*%
%ADD85R,4.5000X2.3500*%
G04:AMPARAMS|DCode=86|XSize=3mm|YSize=1.2mm|CornerRadius=0.3mm|HoleSize=0mm|Usage=FLASHONLY|Rotation=90.000|XOffset=0mm|YOffset=0mm|HoleType=Round|Shape=RoundedRectangle|*
%AMROUNDEDRECTD86*
21,1,3.0000,0.6000,0,0,90.0*
21,1,2.4000,1.2000,0,0,90.0*
1,1,0.6000,0.3000,1.2000*
1,1,0.6000,0.3000,-1.2000*
1,1,0.6000,-0.3000,-1.2000*
1,1,0.6000,-0.3000,1.2000*
%
%ADD86ROUNDEDRECTD86*%
G04:AMPARAMS|DCode=87|XSize=3.5mm|YSize=1.2mm|CornerRadius=0.3mm|HoleSize=0mm|Usage=FLASHONLY|Rotation=90.000|XOffset=0mm|YOffset=0mm|HoleType=Round|Shape=RoundedRectangle|*
%AMROUNDEDRECTD87*
21,1,3.5000,0.6000,0,0,90.0*
21,1,2.9000,1.2000,0,0,90.0*
1,1,0.6000,0.3000,1.4500*
1,1,0.6000,0.3000,-1.4500*
1,1,0.6000,-0.3000,-1.4500*
1,1,0.6000,-0.3000,1.4500*
%
%ADD87ROUNDEDRECTD87*%
G04:AMPARAMS|DCode=88|XSize=3.5mm|YSize=1.2mm|CornerRadius=0.3mm|HoleSize=0mm|Usage=FLASHONLY|Rotation=0.000|XOffset=0mm|YOffset=0mm|HoleType=Round|Shape=RoundedRectangle|*
%AMROUNDEDRECTD88*
21,1,3.5000,0.6000,0,0,0.0*
21,1,2.9000,1.2000,0,0,0.0*
1,1,0.6000,1.4500,-0.3000*
1,1,0.6000,-1.4500,-0.3000*
1,1,0.6000,-1.4500,0.3000*
1,1,0.6000,1.4500,0.3000*
%
%ADD88ROUNDEDRECTD88*%
G04:AMPARAMS|DCode=89|XSize=3mm|YSize=1.2mm|CornerRadius=0.3mm|HoleSize=0mm|Usage=FLASHONLY|Rotation=0.000|XOffset=0mm|YOffset=0mm|HoleType=Round|Shape=RoundedRectangle|*
%AMROUNDEDRECTD89*
21,1,3.0000,0.6000,0,0,0.0*
21,1,2.4000,1.2000,0,0,0.0*
1,1,0.6000,1.2000,-0.3000*
1,1,0.6000,-1.2000,-0.3000*
1,1,0.6000,-1.2000,0.3000*
1,1,0.6000,1.2000,0.3000*
%
%ADD89ROUNDEDRECTD89*%
G04:AMPARAMS|DCode=90|XSize=5mm|YSize=1.2mm|CornerRadius=0.3mm|HoleSize=0mm|Usage=FLASHONLY|Rotation=270.000|XOffset=0mm|YOffset=0mm|HoleType=Round|Shape=RoundedRectangle|*
%AMROUNDEDRECTD90*
21,1,5.0000,0.6000,0,0,270.0*
21,1,4.4000,1.2000,0,0,270.0*
1,1,0.6000,-0.3000,-2.2000*
1,1,0.6000,-0.3000,2.2000*
1,1,0.6000,0.3000,2.2000*
1,1,0.6000,0.3000,-2.2000*
%
%ADD90ROUNDEDRECTD90*%
G04:AMPARAMS|DCode=91|XSize=5mm|YSize=1.2mm|CornerRadius=0.3mm|HoleSize=0mm|Usage=FLASHONLY|Rotation=0.000|XOffset=0mm|YOffset=0mm|HoleType=Round|Shape=RoundedRectangle|*
%AMROUNDEDRECTD91*
21,1,5.0000,0.6000,0,0,0.0*
21,1,4.4000,1.2000,0,0,0.0*
1,1,0.6000,2.2000,-0.3000*
1,1,0.6000,-2.2000,-0.3000*
1,1,0.6000,-2.2000,0.3000*
1,1,0.6000,2.2000,0.3000*
%
%ADD91ROUNDEDRECTD91*%
G04:AMPARAMS|DCode=92|XSize=2.5mm|YSize=2mm|CornerRadius=0.25mm|HoleSize=0mm|Usage=FLASHONLY|Rotation=90.000|XOffset=0mm|YOffset=0mm|HoleType=Round|Shape=RoundedRectangle|*
%AMROUNDEDRECTD92*
21,1,2.5000,1.5000,0,0,90.0*
21,1,2.0000,2.0000,0,0,90.0*
1,1,0.5000,0.7500,1.0000*
1,1,0.5000,0.7500,-1.0000*
1,1,0.5000,-0.7500,-1.0000*
1,1,0.5000,-0.7500,1.0000*
%
%ADD92ROUNDEDRECTD92*%
%ADD93R,3.5000X1.9000*%
G04:AMPARAMS|DCode=94|XSize=0.6mm|YSize=0.7mm|CornerRadius=0.075mm|HoleSize=0mm|Usage=FLASHONLY|Rotation=270.000|XOffset=0mm|YOffset=0mm|HoleType=Round|Shape=RoundedRectangle|*
%AMROUNDEDRECTD94*
21,1,0.6000,0.5500,0,0,270.0*
21,1,0.4500,0.7000,0,0,270.0*
1,1,0.1500,-0.2750,-0.2250*
1,1,0.1500,-0.2750,0.2250*
1,1,0.1500,0.2750,0.2250*
1,1,0.1500,0.2750,-0.2250*
%
%ADD94ROUNDEDRECTD94*%
%ADD95R,1.5500X1.0000*%
%ADD96R,1.2000X1.6000*%
%ADD97R,1.2000X1.2000*%
%ADD98R,1.2000X2.1500*%
G04:AMPARAMS|DCode=99|XSize=1.4mm|YSize=1mm|CornerRadius=0.125mm|HoleSize=0mm|Usage=FLASHONLY|Rotation=90.000|XOffset=0mm|YOffset=0mm|HoleType=Round|Shape=RoundedRectangle|*
%AMROUNDEDRECTD99*
21,1,1.4000,0.7500,0,0,90.0*
21,1,1.1500,1.0000,0,0,90.0*
1,1,0.2500,0.3750,0.5750*
1,1,0.2500,0.3750,-0.5750*
1,1,0.2500,-0.3750,-0.5750*
1,1,0.2500,-0.3750,0.5750*
%
%ADD99ROUNDEDRECTD99*%
%ADD100R,0.9000X0.6000*%
%ADD101R,0.7500X1.5000*%
%ADD102R,2.4000X2.4000*%
%ADD187C,1.1000*%
%ADD189C,1.4000*%
%ADD192C,1.5080*%
%ADD200C,0.7500*%
%ADD201C,1.3000*%
%ADD206C,1.5000*%
%ADD211C,0.9000*%
%ADD213C,1.9000*%
%ADD214C,3.1000*%
%ADD218C,1.0000*%
%ADD228C,2.0000*%
%ADD229C,5.3000*%
G04:AMPARAMS|DCode=230|XSize=1.524mm|YSize=1.524mm|CornerRadius=0.1905mm|HoleSize=0mm|Usage=FLASHONLY|Rotation=90.000|XOffset=0mm|YOffset=0mm|HoleType=Round|Shape=RoundedRectangle|*
%AMROUNDEDRECTD230*
21,1,1.5240,1.1430,0,0,90.0*
21,1,1.1430,1.5240,0,0,90.0*
1,1,0.3810,0.5715,0.5715*
1,1,0.3810,0.5715,-0.5715*
1,1,0.3810,-0.5715,-0.5715*
1,1,0.3810,-0.5715,0.5715*
%
%ADD230ROUNDEDRECTD230*%
%ADD231C,1.6800*%
%ADD232C,1.4080*%
%ADD233R,1.5080X1.5080*%
%ADD234C,2.5500*%
%ADD235C,3.3500*%
%ADD236C,1.5500*%
%ADD237O,2.0000X5.0000*%
%ADD238O,5.0000X2.2000*%
%ADD239O,5.0000X2.0000*%
%ADD240C,1.2000*%
%ADD241C,5.0000*%
%ADD242O,1.0000X1.6000*%
%ADD243C,0.6500*%
%ADD244C,1.9500*%
G04:AMPARAMS|DCode=245|XSize=2mm|YSize=2mm|CornerRadius=0.5mm|HoleSize=0mm|Usage=FLASHONLY|Rotation=270.000|XOffset=0mm|YOffset=0mm|HoleType=Round|Shape=RoundedRectangle|*
%AMROUNDEDRECTD245*
21,1,2.0000,1.0000,0,0,270.0*
21,1,1.0000,2.0000,0,0,270.0*
1,1,1.0000,-0.5000,-0.5000*
1,1,1.0000,-0.5000,0.5000*
1,1,1.0000,0.5000,0.5000*
1,1,1.0000,0.5000,-0.5000*
%
%ADD245ROUNDEDRECTD245*%
G04:AMPARAMS|DCode=246|XSize=1.6mm|YSize=1.6mm|CornerRadius=0.4mm|HoleSize=0mm|Usage=FLASHONLY|Rotation=90.000|XOffset=0mm|YOffset=0mm|HoleType=Round|Shape=RoundedRectangle|*
%AMROUNDEDRECTD246*
21,1,1.6000,0.8000,0,0,90.0*
21,1,0.8000,1.6000,0,0,90.0*
1,1,0.8000,0.4000,0.4000*
1,1,0.8000,0.4000,-0.4000*
1,1,0.8000,-0.4000,-0.4000*
1,1,0.8000,-0.4000,0.4000*
%
%ADD246ROUNDEDRECTD246*%
%ADD247O,4.0000X1.4000*%
%ADD248C,0.8000*%
%ADD249R,0.8000X0.8000*%
%ADD250C,1.8000*%
%ADD251C,3.0000*%
%ADD252C,0.2500*%
G04:AMPARAMS|DCode=253|XSize=1.9mm|YSize=1.9mm|CornerRadius=0.475mm|HoleSize=0mm|Usage=FLASHONLY|Rotation=90.000|XOffset=0mm|YOffset=0mm|HoleType=Round|Shape=RoundedRectangle|*
%AMROUNDEDRECTD253*
21,1,1.9000,0.9500,0,0,90.0*
21,1,0.9500,1.9000,0,0,90.0*
1,1,0.9500,0.4750,0.4750*
1,1,0.9500,0.4750,-0.4750*
1,1,0.9500,-0.4750,-0.4750*
1,1,0.9500,-0.4750,0.4750*
%
%ADD253ROUNDEDRECTD253*%
G04:AMPARAMS|DCode=254|XSize=1.6mm|YSize=1.6mm|CornerRadius=0.4mm|HoleSize=0mm|Usage=FLASHONLY|Rotation=180.000|XOffset=0mm|YOffset=0mm|HoleType=Round|Shape=RoundedRectangle|*
%AMROUNDEDRECTD254*
21,1,1.6000,0.8000,0,0,180.0*
21,1,0.8000,1.6000,0,0,180.0*
1,1,0.8000,-0.4000,0.4000*
1,1,0.8000,0.4000,0.4000*
1,1,0.8000,0.4000,-0.4000*
1,1,0.8000,-0.4000,-0.4000*
%
%ADD254ROUNDEDRECTD254*%
G04:AMPARAMS|DCode=255|XSize=1.524mm|YSize=1.524mm|CornerRadius=0.1905mm|HoleSize=0mm|Usage=FLASHONLY|Rotation=0.000|XOffset=0mm|YOffset=0mm|HoleType=Round|Shape=RoundedRectangle|*
%AMROUNDEDRECTD255*
21,1,1.5240,1.1430,0,0,0.0*
21,1,1.1430,1.5240,0,0,0.0*
1,1,0.3810,0.5715,-0.5715*
1,1,0.3810,-0.5715,-0.5715*
1,1,0.3810,-0.5715,0.5715*
1,1,0.3810,0.5715,0.5715*
%
%ADD255ROUNDEDRECTD255*%
G04:AMPARAMS|DCode=256|XSize=2mm|YSize=2mm|CornerRadius=0.5mm|HoleSize=0mm|Usage=FLASHONLY|Rotation=180.000|XOffset=0mm|YOffset=0mm|HoleType=Round|Shape=RoundedRectangle|*
%AMROUNDEDRECTD256*
21,1,2.0000,1.0000,0,0,180.0*
21,1,1.0000,2.0000,0,0,180.0*
1,1,1.0000,-0.5000,0.5000*
1,1,1.0000,0.5000,0.5000*
1,1,1.0000,0.5000,-0.5000*
1,1,1.0000,-0.5000,-0.5000*
%
%ADD256ROUNDEDRECTD256*%
D22*
X471250Y1008000D02*
D03*
Y1018000D02*
D03*
X675500Y294250D02*
D03*
Y284250D02*
D03*
X660125Y212125D02*
D03*
Y222125D02*
D03*
X770750Y203062D02*
D03*
Y193062D02*
D03*
X744000Y275000D02*
D03*
Y285000D02*
D03*
X731750D02*
D03*
Y275000D02*
D03*
X720500D02*
D03*
Y285000D02*
D03*
X758500Y136750D02*
D03*
Y126750D02*
D03*
X686399Y284149D02*
D03*
Y294149D02*
D03*
X744000Y264000D02*
D03*
Y254000D02*
D03*
X731750Y264000D02*
D03*
Y254000D02*
D03*
X770750Y126750D02*
D03*
Y136750D02*
D03*
X764500Y149000D02*
D03*
Y159000D02*
D03*
X720500Y264000D02*
D03*
Y254000D02*
D03*
X758500Y172000D02*
D03*
Y182000D02*
D03*
X770750D02*
D03*
Y172000D02*
D03*
X174000Y1003500D02*
D03*
Y993500D02*
D03*
D03*
Y983500D02*
D03*
X443750Y566250D02*
D03*
Y576250D02*
D03*
X422500Y357500D02*
D03*
Y367500D02*
D03*
D23*
X670500Y869750D02*
D03*
Y849750D02*
D03*
X584000Y892250D02*
D03*
Y872250D02*
D03*
D24*
X880850Y557750D02*
D03*
Y553750D02*
D03*
Y549750D02*
D03*
Y545750D02*
D03*
Y541750D02*
D03*
Y537750D02*
D03*
Y533750D02*
D03*
Y529750D02*
D03*
Y525750D02*
D03*
Y521750D02*
D03*
Y517750D02*
D03*
Y513750D02*
D03*
Y509750D02*
D03*
Y505750D02*
D03*
Y501750D02*
D03*
Y497750D02*
D03*
Y493750D02*
D03*
Y489750D02*
D03*
Y485750D02*
D03*
Y481750D02*
D03*
Y477750D02*
D03*
Y473750D02*
D03*
Y469750D02*
D03*
Y465750D02*
D03*
Y461750D02*
D03*
Y457750D02*
D03*
Y453750D02*
D03*
Y449750D02*
D03*
Y445750D02*
D03*
Y441750D02*
D03*
Y437750D02*
D03*
Y433750D02*
D03*
Y429750D02*
D03*
Y425750D02*
D03*
Y421750D02*
D03*
Y417750D02*
D03*
Y413750D02*
D03*
Y409750D02*
D03*
Y405750D02*
D03*
Y401750D02*
D03*
Y397750D02*
D03*
Y393750D02*
D03*
Y389750D02*
D03*
Y385750D02*
D03*
Y381750D02*
D03*
Y377750D02*
D03*
Y373750D02*
D03*
Y369750D02*
D03*
Y365750D02*
D03*
Y361750D02*
D03*
X911650Y557750D02*
D03*
Y553750D02*
D03*
Y549750D02*
D03*
Y545750D02*
D03*
Y541750D02*
D03*
Y537750D02*
D03*
Y533750D02*
D03*
Y529750D02*
D03*
Y525750D02*
D03*
Y521750D02*
D03*
Y517750D02*
D03*
Y513750D02*
D03*
Y509750D02*
D03*
Y505750D02*
D03*
Y501750D02*
D03*
Y497750D02*
D03*
Y493750D02*
D03*
Y489750D02*
D03*
Y485750D02*
D03*
Y481750D02*
D03*
Y477750D02*
D03*
Y473750D02*
D03*
Y469750D02*
D03*
Y465750D02*
D03*
Y461750D02*
D03*
Y457750D02*
D03*
Y453750D02*
D03*
Y449750D02*
D03*
Y445750D02*
D03*
Y441750D02*
D03*
Y437750D02*
D03*
Y433750D02*
D03*
Y429750D02*
D03*
Y425750D02*
D03*
Y421750D02*
D03*
Y417750D02*
D03*
Y413750D02*
D03*
Y409750D02*
D03*
Y405750D02*
D03*
Y401750D02*
D03*
Y397750D02*
D03*
Y393750D02*
D03*
Y389750D02*
D03*
Y385750D02*
D03*
Y381750D02*
D03*
Y377750D02*
D03*
Y373750D02*
D03*
Y369750D02*
D03*
Y365750D02*
D03*
Y361750D02*
D03*
X540850Y557750D02*
D03*
Y553750D02*
D03*
Y549750D02*
D03*
Y545750D02*
D03*
Y541750D02*
D03*
Y537750D02*
D03*
Y533750D02*
D03*
Y529750D02*
D03*
Y525750D02*
D03*
Y521750D02*
D03*
Y517750D02*
D03*
Y513750D02*
D03*
Y509750D02*
D03*
Y505750D02*
D03*
Y501750D02*
D03*
Y497750D02*
D03*
Y493750D02*
D03*
Y489750D02*
D03*
Y485750D02*
D03*
Y481750D02*
D03*
Y477750D02*
D03*
Y473750D02*
D03*
Y469750D02*
D03*
Y465750D02*
D03*
Y461750D02*
D03*
Y457750D02*
D03*
Y453750D02*
D03*
Y449750D02*
D03*
Y445750D02*
D03*
Y441750D02*
D03*
Y437750D02*
D03*
Y433750D02*
D03*
Y429750D02*
D03*
Y425750D02*
D03*
Y421750D02*
D03*
Y417750D02*
D03*
Y413750D02*
D03*
Y409750D02*
D03*
Y405750D02*
D03*
Y401750D02*
D03*
Y397750D02*
D03*
Y393750D02*
D03*
Y389750D02*
D03*
Y385750D02*
D03*
Y381750D02*
D03*
Y377750D02*
D03*
Y373750D02*
D03*
Y369750D02*
D03*
Y365750D02*
D03*
Y361750D02*
D03*
X571650Y557750D02*
D03*
Y553750D02*
D03*
Y549750D02*
D03*
Y545750D02*
D03*
Y541750D02*
D03*
Y537750D02*
D03*
Y533750D02*
D03*
Y529750D02*
D03*
Y525750D02*
D03*
Y521750D02*
D03*
Y517750D02*
D03*
Y513750D02*
D03*
Y509750D02*
D03*
Y505750D02*
D03*
Y501750D02*
D03*
Y497750D02*
D03*
Y493750D02*
D03*
Y489750D02*
D03*
Y485750D02*
D03*
Y481750D02*
D03*
Y477750D02*
D03*
Y473750D02*
D03*
Y469750D02*
D03*
Y465750D02*
D03*
Y461750D02*
D03*
Y457750D02*
D03*
Y453750D02*
D03*
Y449750D02*
D03*
Y445750D02*
D03*
Y441750D02*
D03*
Y437750D02*
D03*
Y433750D02*
D03*
Y429750D02*
D03*
Y425750D02*
D03*
Y421750D02*
D03*
Y417750D02*
D03*
Y413750D02*
D03*
Y409750D02*
D03*
Y405750D02*
D03*
Y401750D02*
D03*
Y397750D02*
D03*
Y393750D02*
D03*
Y389750D02*
D03*
Y385750D02*
D03*
Y381750D02*
D03*
Y377750D02*
D03*
Y373750D02*
D03*
Y369750D02*
D03*
Y365750D02*
D03*
Y361750D02*
D03*
D25*
X1226250Y291000D02*
D03*
X1218250D02*
D03*
X1210250D02*
D03*
X1202250D02*
D03*
X1194250D02*
D03*
X1186250D02*
D03*
X1178250D02*
D03*
X1170250D02*
D03*
X1162250D02*
D03*
X1154250D02*
D03*
X1146250D02*
D03*
X1138250D02*
D03*
X1130250D02*
D03*
X1122250D02*
D03*
X1114250D02*
D03*
X1106250D02*
D03*
X1098250D02*
D03*
X1090250D02*
D03*
X1222250Y209000D02*
D03*
X1214250D02*
D03*
X1206250D02*
D03*
X1198250D02*
D03*
X1190250D02*
D03*
X1182250D02*
D03*
X1174250D02*
D03*
X1166250D02*
D03*
X1158250D02*
D03*
X1150250D02*
D03*
X1142250D02*
D03*
X1134250D02*
D03*
X1126250D02*
D03*
X1118250D02*
D03*
X1110250D02*
D03*
X1102250D02*
D03*
X1094250D02*
D03*
X1086250D02*
D03*
X1050250Y291000D02*
D03*
X1042250D02*
D03*
X1034250D02*
D03*
X1026250D02*
D03*
X1018250D02*
D03*
X1010250D02*
D03*
X1002250D02*
D03*
X994250D02*
D03*
X1046250Y209000D02*
D03*
X1038250D02*
D03*
X1030250D02*
D03*
X1022250D02*
D03*
X1014250D02*
D03*
X1006250D02*
D03*
X998250D02*
D03*
X990250D02*
D03*
X1475000Y331250D02*
D03*
X1465000D02*
D03*
X1455000Y331250D02*
D03*
X1445000D02*
D03*
X1435000D02*
D03*
X1425000D02*
D03*
X1415000D02*
D03*
X1405000D02*
D03*
X1395000D02*
D03*
X1385000D02*
D03*
X1375000D02*
D03*
X1365000Y331250D02*
D03*
X1355000D02*
D03*
X1345000Y331250D02*
D03*
X1335000Y331250D02*
D03*
Y296250D02*
D03*
X1345000D02*
D03*
X1355000D02*
D03*
X1365000D02*
D03*
X1375000D02*
D03*
X1385000D02*
D03*
X1395000Y296250D02*
D03*
X1405000Y296250D02*
D03*
X1415000D02*
D03*
X1425000D02*
D03*
X1435000Y296250D02*
D03*
X1445000Y296250D02*
D03*
X1455000D02*
D03*
X1465000D02*
D03*
X1475000D02*
D03*
Y206250D02*
D03*
X1465000D02*
D03*
X1455000Y206250D02*
D03*
X1445000D02*
D03*
X1435000D02*
D03*
X1425000D02*
D03*
X1415000D02*
D03*
X1405000D02*
D03*
X1395000D02*
D03*
X1385000D02*
D03*
X1375000D02*
D03*
X1365000Y206250D02*
D03*
X1355000D02*
D03*
X1345000Y206250D02*
D03*
X1335000Y206250D02*
D03*
Y241250D02*
D03*
X1345000Y241250D02*
D03*
X1355000Y241250D02*
D03*
X1365000D02*
D03*
X1375000D02*
D03*
X1385000Y241250D02*
D03*
X1395000D02*
D03*
X1405000Y241250D02*
D03*
X1415000D02*
D03*
X1425000D02*
D03*
X1435000Y241250D02*
D03*
X1445000D02*
D03*
X1455000Y241250D02*
D03*
X1465000D02*
D03*
X1475000D02*
D03*
D26*
X1254750Y215000D02*
D03*
X961750D02*
D03*
D27*
X604500Y873750D02*
D03*
Y883750D02*
D03*
X694000Y339250D02*
D03*
Y329250D02*
D03*
Y316250D02*
D03*
Y306250D02*
D03*
X670250Y273250D02*
D03*
Y263250D02*
D03*
X637500Y289500D02*
D03*
Y279500D02*
D03*
X656000Y265250D02*
D03*
Y255250D02*
D03*
X688000Y222250D02*
D03*
Y212250D02*
D03*
X678000D02*
D03*
Y222250D02*
D03*
X740000Y228500D02*
D03*
Y238500D02*
D03*
X747750Y160250D02*
D03*
Y170250D02*
D03*
X1553750Y927500D02*
D03*
Y917500D02*
D03*
X1535250Y207000D02*
D03*
Y197000D02*
D03*
X1535250Y168750D02*
D03*
Y158750D02*
D03*
X667000Y758500D02*
D03*
Y748500D02*
D03*
X1622500Y942000D02*
D03*
Y932000D02*
D03*
X1647400Y854750D02*
D03*
Y844750D02*
D03*
X1617000Y968750D02*
D03*
Y958750D02*
D03*
X1457400Y854750D02*
D03*
Y844750D02*
D03*
X1411000Y901217D02*
D03*
Y891217D02*
D03*
X1376250Y913250D02*
D03*
Y923250D02*
D03*
X1398000Y975000D02*
D03*
Y965000D02*
D03*
X1018000Y975000D02*
D03*
X1018000Y965000D02*
D03*
X996250Y913250D02*
D03*
Y923250D02*
D03*
X1031000Y901217D02*
D03*
Y891217D02*
D03*
X1077400Y854750D02*
D03*
Y844750D02*
D03*
X1173750Y927500D02*
D03*
Y917500D02*
D03*
X1237000Y968750D02*
D03*
Y958750D02*
D03*
X1242500Y942000D02*
D03*
Y932000D02*
D03*
X1267400Y854750D02*
D03*
Y844750D02*
D03*
X403855Y579750D02*
D03*
Y589750D02*
D03*
X454250Y576250D02*
D03*
Y566250D02*
D03*
X433000Y367500D02*
D03*
Y357500D02*
D03*
X382605Y371000D02*
D03*
Y381000D02*
D03*
D28*
X680250Y235500D02*
D03*
X670250D02*
D03*
X718000Y238500D02*
D03*
X708000D02*
D03*
X729500Y228000D02*
D03*
X719500D02*
D03*
X698422Y227922D02*
D03*
X708422D02*
D03*
X1084400Y881375D02*
D03*
X1094400D02*
D03*
X1084400Y903875D02*
D03*
X1094400D02*
D03*
Y892625D02*
D03*
X1084400D02*
D03*
X1464400Y903875D02*
D03*
X1474400D02*
D03*
Y892625D02*
D03*
X1464400Y892625D02*
D03*
X1464400Y881375D02*
D03*
X1474400D02*
D03*
X1550750Y866125D02*
D03*
X1540750D02*
D03*
Y877375D02*
D03*
X1550750D02*
D03*
Y888625D02*
D03*
X1540750D02*
D03*
X1604400Y914750D02*
D03*
X1594400D02*
D03*
X1539500Y962750D02*
D03*
X1549500D02*
D03*
X1393250Y900150D02*
D03*
X1383250D02*
D03*
X1013250Y900150D02*
D03*
X1003251Y900150D02*
D03*
X1159500Y962750D02*
D03*
X1169500D02*
D03*
X1224400Y914750D02*
D03*
X1214400D02*
D03*
X1170750Y866125D02*
D03*
X1160750D02*
D03*
X1170750Y888625D02*
D03*
X1160750D02*
D03*
Y877375D02*
D03*
X1170750D02*
D03*
X414250Y600250D02*
D03*
X424250D02*
D03*
X424250Y590250D02*
D03*
X414250D02*
D03*
X459250Y648250D02*
D03*
X469250D02*
D03*
X403000Y381500D02*
D03*
X393000D02*
D03*
X403000Y391750D02*
D03*
X393000D02*
D03*
X438000Y439500D02*
D03*
X448000Y439500D02*
D03*
D29*
X790000Y83500D02*
D03*
X800000D02*
D03*
X760750Y214250D02*
D03*
X770750D02*
D03*
X719500Y201063D02*
D03*
X709500D02*
D03*
X731750Y201000D02*
D03*
X741750D02*
D03*
X1535900Y184350D02*
D03*
X1525900Y184350D02*
D03*
X174250Y720000D02*
D03*
X164250D02*
D03*
X569750Y850250D02*
D03*
X579750D02*
D03*
X424250Y610750D02*
D03*
X414250D02*
D03*
X403250Y605750D02*
D03*
X393250Y605750D02*
D03*
X414250Y579750D02*
D03*
X424250D02*
D03*
X432091Y568341D02*
D03*
X422091D02*
D03*
X400909Y359478D02*
D03*
X410909D02*
D03*
X393000Y371000D02*
D03*
X403000D02*
D03*
X403000Y402000D02*
D03*
X393000Y402000D02*
D03*
X382000Y397000D02*
D03*
X372000D02*
D03*
D30*
X727750Y184000D02*
D03*
D31*
X723750Y184500D02*
D03*
Y171500D02*
D03*
X727750Y171500D02*
D03*
D32*
X717250Y182000D02*
D03*
X717250Y178000D02*
D03*
X717250Y174000D02*
D03*
X734250D02*
D03*
X734250Y178000D02*
D03*
X734250Y182000D02*
D03*
D33*
X686500Y899750D02*
D03*
X755500D02*
D03*
X686500Y811750D02*
D03*
X755500D02*
D03*
D34*
X1352250Y702500D02*
D03*
D35*
X1352500Y542750D02*
D03*
D36*
X120055Y745250D02*
D03*
D37*
X104055Y857200D02*
D03*
D38*
X95555Y741250D02*
D03*
D39*
X89055Y860750D02*
D03*
D40*
X13055Y744500D02*
D03*
D41*
Y859000D02*
D03*
D42*
X11805Y846000D02*
D03*
D43*
Y835000D02*
D03*
D44*
Y824000D02*
D03*
D45*
Y813000D02*
D03*
D46*
Y802000D02*
D03*
D47*
Y791000D02*
D03*
D48*
X11805Y780000D02*
D03*
D49*
X11805Y769000D02*
D03*
D50*
X1688850Y259500D02*
D03*
Y129500D02*
D03*
X1568850Y259500D02*
D03*
Y129500D02*
D03*
D51*
X1554050Y219200D02*
D03*
Y209700D02*
D03*
X1554050Y197000D02*
D03*
X1554050Y184300D02*
D03*
Y171600D02*
D03*
Y158900D02*
D03*
Y146200D02*
D03*
D52*
X666601Y18525D02*
D03*
Y32525D02*
D03*
X659601Y32525D02*
D03*
Y18525D02*
D03*
X884601D02*
D03*
Y32525D02*
D03*
X891601Y32525D02*
D03*
Y18525D02*
D03*
X809601Y18525D02*
D03*
Y32525D02*
D03*
X816601Y32525D02*
D03*
Y18525D02*
D03*
X734601Y18525D02*
D03*
Y32525D02*
D03*
X741601Y32525D02*
D03*
Y18525D02*
D03*
X1034601Y18500D02*
D03*
Y32500D02*
D03*
X1041601Y32500D02*
D03*
Y18500D02*
D03*
X959601Y18500D02*
D03*
Y32500D02*
D03*
X966601Y32500D02*
D03*
Y18500D02*
D03*
D53*
X1310750Y100750D02*
D03*
X1370750D02*
D03*
Y60750D02*
D03*
X1310750D02*
D03*
X983250Y250000D02*
D03*
X423990Y150750D02*
D03*
X398590D02*
D03*
X279590Y150750D02*
D03*
X304990D02*
D03*
X1390785Y453035D02*
D03*
X1416214Y453035D02*
D03*
X1390785Y427607D02*
D03*
X1416214Y478464D02*
D03*
X1390786Y478464D02*
D03*
X304990Y90250D02*
D03*
X279590D02*
D03*
X241857Y468000D02*
D03*
X267286D02*
D03*
X292714D02*
D03*
X860714Y850786D02*
D03*
X835286Y876214D02*
D03*
Y850786D02*
D03*
X82500Y19300D02*
D03*
X1307500Y1024050D02*
D03*
X398590Y211250D02*
D03*
X423990D02*
D03*
X398590Y90250D02*
D03*
X423990D02*
D03*
X126750Y19300D02*
D03*
X279590Y20380D02*
D03*
X304990D02*
D03*
X205200Y90000D02*
D03*
X1505500Y428286D02*
D03*
Y453714D02*
D03*
Y479143D02*
D03*
X140000Y929786D02*
D03*
Y955214D02*
D03*
Y980643D02*
D03*
X521733Y21630D02*
D03*
X496304D02*
D03*
X470876D02*
D03*
D54*
X303000Y549250D02*
D03*
X288000D02*
D03*
X273000D02*
D03*
X258000Y549250D02*
D03*
D55*
X303000Y510250D02*
D03*
X288000D02*
D03*
X273000D02*
D03*
X258000Y510250D02*
D03*
D56*
X639750Y856000D02*
D03*
Y884000D02*
D03*
D57*
X1094400Y937125D02*
D03*
Y916125D02*
D03*
X1474400D02*
D03*
Y937125D02*
D03*
D58*
X1087400Y926625D02*
D03*
X1101400D02*
D03*
X1481400D02*
D03*
X1467400D02*
D03*
D59*
X539250Y1058750D02*
D03*
Y1089750D02*
D03*
D60*
X566750Y1012950D02*
D03*
X561750D02*
D03*
X556750D02*
D03*
X551750D02*
D03*
X546750D02*
D03*
X541750D02*
D03*
X536750D02*
D03*
X531750D02*
D03*
X526750D02*
D03*
X521750D02*
D03*
X516750D02*
D03*
X511750D02*
D03*
D61*
X1077400Y867500D02*
D03*
X1094400Y867500D02*
D03*
X595750Y850250D02*
D03*
X612750D02*
D03*
X1540750Y902500D02*
D03*
X1557750D02*
D03*
X1474400Y867500D02*
D03*
X1457400D02*
D03*
X1160750Y902500D02*
D03*
X1177750D02*
D03*
D62*
X368000Y491750D02*
D03*
Y461750D02*
D03*
X349750Y564000D02*
D03*
X349750Y534000D02*
D03*
X370500Y564000D02*
D03*
Y534000D02*
D03*
X348500Y253000D02*
D03*
X348500Y283000D02*
D03*
X327313Y355188D02*
D03*
Y325187D02*
D03*
X348500Y355250D02*
D03*
Y325250D02*
D03*
D63*
X549992Y825750D02*
D03*
Y779750D02*
D03*
D64*
X624507Y802750D02*
D03*
D65*
X1588000Y999750D02*
D03*
X1583500D02*
D03*
X1393500D02*
D03*
X1398000D02*
D03*
X1013500D02*
D03*
X1018000D02*
D03*
X1203500Y999750D02*
D03*
X1208000Y999750D02*
D03*
D66*
X465250Y613250D02*
D03*
X444000Y404500D02*
D03*
D67*
X450750Y613250D02*
D03*
X429500Y404500D02*
D03*
D68*
X436750Y600750D02*
D03*
Y605750D02*
D03*
Y610750D02*
D03*
Y615750D02*
D03*
Y620750D02*
D03*
Y625750D02*
D03*
X476750D02*
D03*
Y620750D02*
D03*
Y615750D02*
D03*
Y610750D02*
D03*
Y605750D02*
D03*
Y600750D02*
D03*
X415500Y392000D02*
D03*
Y397000D02*
D03*
Y402000D02*
D03*
Y407000D02*
D03*
Y412000D02*
D03*
Y417000D02*
D03*
X455500D02*
D03*
Y412000D02*
D03*
Y407000D02*
D03*
Y402000D02*
D03*
Y397000D02*
D03*
Y392000D02*
D03*
D69*
X444250Y633250D02*
D03*
X449250D02*
D03*
X454250D02*
D03*
X459250D02*
D03*
X464250D02*
D03*
X469250D02*
D03*
Y593250D02*
D03*
X464250D02*
D03*
X459250D02*
D03*
X454250D02*
D03*
X449250D02*
D03*
X444250D02*
D03*
X423000Y424500D02*
D03*
X428000D02*
D03*
X433000D02*
D03*
X438000D02*
D03*
X443000D02*
D03*
X448000D02*
D03*
Y384500D02*
D03*
X443000D02*
D03*
X438000D02*
D03*
X433000D02*
D03*
X428000D02*
D03*
X423000D02*
D03*
D70*
X1398000Y914150D02*
D03*
X1404500D02*
D03*
X1411000D02*
D03*
X1417500D02*
D03*
X1417500Y951650D02*
D03*
X1411000D02*
D03*
X1404500D02*
D03*
X1398000D02*
D03*
X1594500Y927500D02*
D03*
X1588000D02*
D03*
X1581500D02*
D03*
X1575000D02*
D03*
Y965000D02*
D03*
X1581500D02*
D03*
X1588000D02*
D03*
X1594500D02*
D03*
X1018000Y951650D02*
D03*
X1024500D02*
D03*
X1031000Y951650D02*
D03*
X1037500D02*
D03*
X1037501Y914150D02*
D03*
X1031000D02*
D03*
X1024500D02*
D03*
X1018000D02*
D03*
X1214500Y927500D02*
D03*
X1208000D02*
D03*
X1201500D02*
D03*
X1195000D02*
D03*
Y965000D02*
D03*
X1201500D02*
D03*
X1208000D02*
D03*
X1214500D02*
D03*
D71*
X1426500Y923150D02*
D03*
Y929650D02*
D03*
Y936150D02*
D03*
Y942650D02*
D03*
X1389000D02*
D03*
Y936150D02*
D03*
Y929650D02*
D03*
Y923150D02*
D03*
X1566000Y936500D02*
D03*
Y943000D02*
D03*
Y949500D02*
D03*
Y956000D02*
D03*
X1603500Y956000D02*
D03*
Y949500D02*
D03*
Y943000D02*
D03*
Y936500D02*
D03*
X1009000Y923150D02*
D03*
Y929650D02*
D03*
Y936150D02*
D03*
X1009000Y942650D02*
D03*
X1046500Y942650D02*
D03*
Y936150D02*
D03*
Y929650D02*
D03*
X1046500Y923150D02*
D03*
X1186000Y936500D02*
D03*
Y943000D02*
D03*
Y949500D02*
D03*
Y956000D02*
D03*
X1223500Y956000D02*
D03*
Y949500D02*
D03*
Y943000D02*
D03*
Y936500D02*
D03*
D72*
X1407750Y932900D02*
D03*
X1027750D02*
D03*
D73*
X1216500Y860500D02*
D03*
X1596500D02*
D03*
D74*
X1201500Y889500D02*
D03*
X1231500D02*
D03*
X1611500D02*
D03*
X1581500D02*
D03*
D75*
X1216500Y887500D02*
D03*
X1596500D02*
D03*
D76*
X1063400Y866000D02*
D03*
X1041400Y882000D02*
D03*
Y866000D02*
D03*
X1443400D02*
D03*
X1421400Y882000D02*
D03*
Y866000D02*
D03*
D77*
X1063400Y880250D02*
D03*
X1443400D02*
D03*
D78*
X190250Y983250D02*
D03*
X224250D02*
D03*
X1386500Y377500D02*
D03*
X1420500D02*
D03*
D79*
X207250Y966250D02*
D03*
Y1000250D02*
D03*
X1403500Y360500D02*
D03*
Y394500D02*
D03*
D80*
X223250Y983250D02*
D03*
X191250D02*
D03*
X1419500Y377500D02*
D03*
X1387500D02*
D03*
D81*
X207250Y997250D02*
D03*
Y969250D02*
D03*
X1403500Y391500D02*
D03*
Y363500D02*
D03*
D82*
X402000Y507000D02*
D03*
X482500D02*
D03*
X461136Y298250D02*
D03*
X380636D02*
D03*
D83*
X481500Y1090250D02*
D03*
Y1073250D02*
D03*
X942000Y1090500D02*
D03*
Y1073500D02*
D03*
D84*
X439600Y895000D02*
D03*
Y865000D02*
D03*
Y835000D02*
D03*
Y805000D02*
D03*
Y775000D02*
D03*
Y745000D02*
D03*
X170400D02*
D03*
Y775000D02*
D03*
Y805000D02*
D03*
Y835000D02*
D03*
Y865000D02*
D03*
Y895000D02*
D03*
D85*
X336750Y655250D02*
D03*
X252750D02*
D03*
D86*
X1306000Y982252D02*
D03*
X1141000D02*
D03*
X1520997D02*
D03*
X1685997D02*
D03*
X1330999D02*
D03*
X1495999D02*
D03*
X951002D02*
D03*
X1116002D02*
D03*
D87*
X1306002Y908750D02*
D03*
X1140999Y908753D02*
D03*
X1520995D02*
D03*
X1685999Y908750D02*
D03*
X1330997Y908753D02*
D03*
X1496000Y908750D02*
D03*
X951000Y908753D02*
D03*
X1116003Y908750D02*
D03*
D88*
X1223499Y826250D02*
D03*
X1603495D02*
D03*
X1413497D02*
D03*
X1033500D02*
D03*
D89*
X1297000Y826252D02*
D03*
X1150000D02*
D03*
X1529997D02*
D03*
X1676997D02*
D03*
X1339999D02*
D03*
X1486998D02*
D03*
X960002D02*
D03*
X1107002D02*
D03*
D90*
X1306000Y845252D02*
D03*
X1141000D02*
D03*
X1520997D02*
D03*
X1685997D02*
D03*
X1330999D02*
D03*
X1495999D02*
D03*
X951002D02*
D03*
X1116002D02*
D03*
D91*
X1287000Y991252D02*
D03*
X1160000D02*
D03*
X1539997D02*
D03*
X1666997D02*
D03*
X1349999D02*
D03*
X1476999D02*
D03*
X970002D02*
D03*
X1097002D02*
D03*
D92*
X556750Y909000D02*
D03*
X510750D02*
D03*
Y952750D02*
D03*
X556750D02*
D03*
D93*
X1350750Y761750D02*
D03*
X186250Y587750D02*
D03*
D94*
X144000Y745000D02*
D03*
Y720000D02*
D03*
D95*
X1077400Y812250D02*
D03*
Y778250D02*
D03*
X1457400Y812250D02*
D03*
Y778250D02*
D03*
X1267400Y812250D02*
D03*
Y778250D02*
D03*
X1647400Y812250D02*
D03*
Y778250D02*
D03*
D96*
X1060400Y795250D02*
D03*
X1094400D02*
D03*
X1440400D02*
D03*
X1474400D02*
D03*
X1250400D02*
D03*
X1284400D02*
D03*
X1630400D02*
D03*
X1664400D02*
D03*
D97*
X1077400Y779250D02*
D03*
Y811250D02*
D03*
X1457400Y779250D02*
D03*
Y811250D02*
D03*
X1267400Y779250D02*
D03*
Y811250D02*
D03*
X1647400Y779250D02*
D03*
Y811250D02*
D03*
D98*
X1091400Y795250D02*
D03*
X1063400D02*
D03*
X1471400D02*
D03*
X1443400D02*
D03*
X1281400D02*
D03*
X1253400D02*
D03*
X1661400D02*
D03*
X1633400D02*
D03*
D99*
X397125Y419905D02*
D03*
X377125D02*
D03*
X417250Y630500D02*
D03*
X397250D02*
D03*
D100*
X1551250Y839375D02*
D03*
Y853375D02*
D03*
X1171250Y839375D02*
D03*
Y853375D02*
D03*
D101*
X1540750Y846375D02*
D03*
X1561750D02*
D03*
X1160750D02*
D03*
X1181750D02*
D03*
D102*
X1584750Y946250D02*
D03*
X1204750D02*
D03*
D187*
X1233250Y250000D02*
D03*
D189*
X144900Y343000D02*
D03*
X144900Y318000D02*
D03*
Y298000D02*
D03*
Y273000D02*
D03*
X118700Y343000D02*
D03*
Y318000D02*
D03*
Y298000D02*
D03*
Y273000D02*
D03*
D192*
X818250Y996050D02*
D03*
X881750D02*
D03*
X792850Y958150D02*
D03*
X805550Y932750D02*
D03*
X818250Y958150D02*
D03*
X830950Y932750D02*
D03*
X843650Y958150D02*
D03*
X856350Y932750D02*
D03*
X869050Y958150D02*
D03*
X881750Y932750D02*
D03*
X894450Y958150D02*
D03*
D200*
X1676350Y229500D02*
D03*
Y144500D02*
D03*
D201*
X1352250Y585500D02*
D03*
D206*
X356250Y513000D02*
D03*
X333750Y304250D02*
D03*
X598250Y1009750D02*
D03*
X615500Y922750D02*
D03*
X1172500Y25300D02*
D03*
X1217500D02*
D03*
D211*
X1265750Y16250D02*
D03*
X1265750Y145250D02*
D03*
X1414750Y16250D02*
D03*
Y145250D02*
D03*
X675105Y53025D02*
D03*
X650105D02*
D03*
X1025105Y53000D02*
D03*
X1050105D02*
D03*
X950105Y53025D02*
D03*
X975105D02*
D03*
X875105D02*
D03*
X900105D02*
D03*
X800105D02*
D03*
X825105D02*
D03*
X725105D02*
D03*
X750105D02*
D03*
D213*
X1630800Y546800D02*
D03*
Y521400D02*
D03*
X1630800Y496000D02*
D03*
X1630800Y470600D02*
D03*
Y445200D02*
D03*
Y419800D02*
D03*
Y394400D02*
D03*
X1630800Y369000D02*
D03*
X1630800Y343600D02*
D03*
Y318200D02*
D03*
X1656200Y546800D02*
D03*
Y521400D02*
D03*
X1656200Y496000D02*
D03*
X1656200Y470600D02*
D03*
Y445200D02*
D03*
Y419800D02*
D03*
Y394400D02*
D03*
X1656200Y369000D02*
D03*
X1656200Y343600D02*
D03*
D214*
X91600Y242300D02*
D03*
Y373700D02*
D03*
X148400Y242300D02*
D03*
Y373700D02*
D03*
D218*
X-80150Y-80000D02*
D03*
X491000Y723250D02*
D03*
X1277750Y349250D02*
D03*
X-80150Y1180000D02*
D03*
X1780150Y1180000D02*
D03*
X1780150Y-80000D02*
D03*
X1352250Y660500D02*
D03*
D228*
X1529964Y558964D02*
D03*
X1504536D02*
D03*
X1529964Y584393D02*
D03*
X1504536Y584393D02*
D03*
X1529964Y609822D02*
D03*
X1504536D02*
D03*
X1529964Y635250D02*
D03*
X1504536D02*
D03*
X1529964Y660679D02*
D03*
X1504536D02*
D03*
X1529964Y686107D02*
D03*
X1504536Y686107D02*
D03*
X1529964Y711536D02*
D03*
X1504536D02*
D03*
X275714Y286821D02*
D03*
X250286D02*
D03*
X275714Y312250D02*
D03*
X250286D02*
D03*
X275714Y337678D02*
D03*
X250286D02*
D03*
X275714Y363107D02*
D03*
X250286Y261393D02*
D03*
X275714Y261393D02*
D03*
X1658750Y733607D02*
D03*
X1658750Y708178D02*
D03*
X1658750Y682750D02*
D03*
X1658750Y657321D02*
D03*
X42870Y102519D02*
D03*
Y127947D02*
D03*
Y153376D02*
D03*
X352500Y975714D02*
D03*
X124910Y153376D02*
D03*
X174036Y1061250D02*
D03*
X388286Y675250D02*
D03*
D229*
X987250Y730500D02*
D03*
X1229250D02*
D03*
X561250Y244750D02*
D03*
X891250Y724750D02*
D03*
X561250Y724750D02*
D03*
X891250Y244750D02*
D03*
D230*
X373190Y150750D02*
D03*
X254190Y150750D02*
D03*
X254190Y90250D02*
D03*
X373190Y211250D02*
D03*
Y90250D02*
D03*
X254190Y20380D02*
D03*
X179800Y90000D02*
D03*
D231*
X783600Y1062250D02*
D03*
X809000D02*
D03*
X891000D02*
D03*
X916400D02*
D03*
D232*
X792850Y983350D02*
D03*
X907150D02*
D03*
D233*
X907150Y932750D02*
D03*
D234*
X771500Y991150D02*
D03*
X928500D02*
D03*
D235*
X792850Y1021650D02*
D03*
X907150Y1021650D02*
D03*
D236*
X76000Y944000D02*
D03*
X26000D02*
D03*
X107000Y928000D02*
D03*
X26000Y899000D02*
D03*
X107000Y960000D02*
D03*
X76000Y908000D02*
D03*
X26000Y992000D02*
D03*
D237*
X643500Y1022750D02*
D03*
D238*
X691500Y989750D02*
D03*
D239*
Y1052750D02*
D03*
D240*
X811500Y136250D02*
D03*
X887500D02*
D03*
D241*
X1665000Y35000D02*
D03*
X492500Y857500D02*
D03*
Y142500D02*
D03*
X1207500D02*
D03*
X35000Y1065000D02*
D03*
Y35000D02*
D03*
X1665000Y1065000D02*
D03*
D242*
X581950Y1084250D02*
D03*
X496550D02*
D03*
X581950Y1036950D02*
D03*
X496550D02*
D03*
D243*
X515250Y1032450D02*
D03*
X563250D02*
D03*
X523250D02*
D03*
X555250D02*
D03*
X531250D02*
D03*
X547250D02*
D03*
X511250Y1025450D02*
D03*
X567250D02*
D03*
X519250D02*
D03*
X559250D02*
D03*
X527250D02*
D03*
X551250D02*
D03*
X535250D02*
D03*
X543250D02*
D03*
D244*
X1230050Y50200D02*
D03*
X1159950D02*
D03*
D245*
X250286Y363107D02*
D03*
X1658750Y631893D02*
D03*
X42870Y178804D02*
D03*
X352500Y950286D02*
D03*
X124910Y178804D02*
D03*
D246*
X1416214Y427607D02*
D03*
X1505500Y402857D02*
D03*
X140000Y904357D02*
D03*
D247*
X74501Y698483D02*
D03*
X164501Y698483D02*
D03*
X195501Y633483D02*
D03*
X100501D02*
D03*
Y471483D02*
D03*
X195501D02*
D03*
X164501Y536483D02*
D03*
X74501D02*
D03*
D248*
X180261Y670983D02*
D03*
X168701D02*
D03*
X157141D02*
D03*
X145581D02*
D03*
X134021D02*
D03*
X122461D02*
D03*
X110901D02*
D03*
X99341D02*
D03*
X186041Y660983D02*
D03*
X174481Y660983D02*
D03*
X162921D02*
D03*
X151361D02*
D03*
X139801D02*
D03*
X128241Y660983D02*
D03*
X116681D02*
D03*
X105121D02*
D03*
X93561D02*
D03*
X87781Y670983D02*
D03*
X867875Y1100000D02*
D03*
X832125Y1100000D02*
D03*
X843875Y1100000D02*
D03*
X855875D02*
D03*
X1269500Y1100000D02*
D03*
X1305250Y1100000D02*
D03*
X1293500Y1100000D02*
D03*
X1281500D02*
D03*
X418500D02*
D03*
X406500D02*
D03*
X394750Y1100000D02*
D03*
X430500Y1100000D02*
D03*
X1700000Y732500D02*
D03*
Y744500D02*
D03*
Y756250D02*
D03*
Y720500D02*
D03*
Y329500D02*
D03*
Y293750D02*
D03*
Y305500D02*
D03*
Y317500D02*
D03*
X0D02*
D03*
Y305500D02*
D03*
Y293750D02*
D03*
Y329500D02*
D03*
Y720500D02*
D03*
Y756250D02*
D03*
Y744500D02*
D03*
Y732500D02*
D03*
X87781Y508983D02*
D03*
X93561Y498983D02*
D03*
X105121D02*
D03*
X116681D02*
D03*
X128241D02*
D03*
X139801D02*
D03*
X151361D02*
D03*
X162921D02*
D03*
X174481D02*
D03*
X186041D02*
D03*
X99341Y508983D02*
D03*
X110901D02*
D03*
X122461D02*
D03*
X134021D02*
D03*
X145581D02*
D03*
X157141D02*
D03*
X168701D02*
D03*
X180261D02*
D03*
D249*
X82001Y660983D02*
D03*
Y498983D02*
D03*
D250*
X195501Y685983D02*
D03*
X63001Y650983D02*
D03*
Y488983D02*
D03*
X195501Y523983D02*
D03*
D251*
X86500Y1078250D02*
D03*
Y1027250D02*
D03*
X137500Y1078250D02*
D03*
X112000Y1052750D02*
D03*
X137500Y1027250D02*
D03*
X287500Y1027250D02*
D03*
X262000Y1052750D02*
D03*
X287500Y1078250D02*
D03*
X236500Y1027250D02*
D03*
Y1078250D02*
D03*
X437500Y1027250D02*
D03*
X412000Y1052750D02*
D03*
X437500Y1078250D02*
D03*
X386500Y1027250D02*
D03*
Y1078250D02*
D03*
X1562500Y1078250D02*
D03*
Y1027250D02*
D03*
X1613500Y1078250D02*
D03*
X1588000Y1052750D02*
D03*
X1613500Y1027250D02*
D03*
X1182500Y1078250D02*
D03*
X1182500Y1027250D02*
D03*
X1233500Y1078250D02*
D03*
X1208000Y1052750D02*
D03*
X1233500Y1027250D02*
D03*
X1372500Y1078250D02*
D03*
Y1027250D02*
D03*
X1423500Y1078250D02*
D03*
X1398000Y1052750D02*
D03*
X1423500Y1027250D02*
D03*
X992500Y1078250D02*
D03*
Y1027250D02*
D03*
X1043500Y1078250D02*
D03*
X1018000Y1052750D02*
D03*
X1043500Y1027250D02*
D03*
D252*
X64470Y127947D02*
D03*
D253*
X1656200Y318200D02*
D03*
D254*
X318143Y468000D02*
D03*
X860714Y876214D02*
D03*
X445447Y21630D02*
D03*
D255*
X82500Y44700D02*
D03*
X1307500Y1049450D02*
D03*
X126750Y44700D02*
D03*
D256*
X199464Y1061250D02*
D03*
X413714Y675250D02*
D03*
M02*
