G04*
G04 #@! TF.GenerationSoftware,Altium Limited,Altium Designer,19.1.6 (110)*
G04*
G04 Layer_Color=32768*
%FSLAX44Y44*%
%MOMM*%
G71*
G01*
G75*
%ADD10C,0.2000*%
%ADD11C,0.2500*%
%ADD12C,0.3000*%
%ADD14C,0.1000*%
%ADD17C,0.1500*%
%ADD223C,0.6000*%
%ADD226C,0.3500*%
%ADD388C,0.5080*%
%ADD389C,0.2540*%
%ADD390C,0.2000*%
%ADD392C,1.2700*%
G36*
X214750Y1089750D02*
X206750D01*
Y1083750D01*
X166750D01*
Y1089750D01*
X158750D01*
X158750Y1095750D01*
X214750D01*
X214750Y1089750D01*
D02*
G37*
G36*
X387000Y991000D02*
Y935000D01*
X381000Y935000D01*
Y943000D01*
X375000D01*
Y983000D01*
X381000D01*
Y991000D01*
X387000Y991000D01*
D02*
G37*
G36*
X429000Y703750D02*
X421000D01*
Y697750D01*
X381000D01*
Y703750D01*
X373000D01*
X373000Y709750D01*
X429000D01*
X429000Y703750D01*
D02*
G37*
G36*
X1687250Y624571D02*
X1681250D01*
Y741036D01*
X1687250D01*
X1687250Y624571D01*
D02*
G37*
G36*
X1693250Y616607D02*
X1687250D01*
Y748893D01*
X1693250D01*
Y616607D01*
D02*
G37*
G36*
X1699500Y415000D02*
X1693500D01*
Y450000D01*
X1699500D01*
Y415000D01*
D02*
G37*
G36*
X96410Y186090D02*
X102410D01*
Y146090D01*
X96410D01*
Y138090D01*
X90410Y138090D01*
Y194090D01*
X96410Y194090D01*
Y186090D01*
D02*
G37*
G36*
X17870Y127947D02*
X5870Y127947D01*
Y178804D01*
X17870Y178804D01*
Y127947D01*
D02*
G37*
D10*
X912508Y136250D02*
G03*
X912508Y136250I-63008J0D01*
G01*
X1065052Y867250D02*
G03*
X1065052Y867250I-901J0D01*
G01*
X1445052D02*
G03*
X1445052Y867250I-901J0D01*
G01*
X-1070Y736000D02*
Y867000D01*
Y736000D02*
X132930D01*
Y867000D01*
X65930Y801000D02*
X75930D01*
X65930D02*
Y811000D01*
X55930Y801000D02*
X65930D01*
Y791000D02*
Y801000D01*
X-1070Y867000D02*
X132930D01*
X10000Y946000D02*
X18000Y943000D01*
X10000Y946000D02*
X18000Y949000D01*
X10000Y946000D02*
X25000Y946000D01*
X10000Y1000000D02*
X115000D01*
Y891000D02*
Y1000000D01*
X10000Y891000D02*
X115000D01*
X10000D02*
Y1000000D01*
X949250Y198000D02*
Y302000D01*
Y198000D02*
X1267250D01*
Y302000D01*
X949250D02*
X1267250D01*
X1195000Y1300D02*
X1198000Y7750D01*
X1192000D02*
X1195000Y1300D01*
X1195000D02*
Y12750D01*
Y1300D02*
X1195000D01*
X1195000Y37750D02*
Y47750D01*
X1185000Y37750D02*
X1195000D01*
Y27750D02*
Y37750D01*
X1205000D01*
X1150000Y1300D02*
Y65300D01*
Y1300D02*
X1240000D01*
Y65300D01*
X1150000D02*
X1240000D01*
X1500Y393000D02*
X167500D01*
X1500Y223000D02*
Y393000D01*
Y223000D02*
X167500D01*
Y393000D01*
X157500Y927500D02*
X157500Y710000D01*
X467500D01*
X467500Y927500D01*
X157500D02*
X467500D01*
X1593500Y265000D02*
X1693500D01*
X1593500D02*
Y600000D01*
X1693500D01*
Y265000D02*
Y600000D01*
D11*
X517500Y142500D02*
G03*
X517500Y142500I-25000J0D01*
G01*
X508500D02*
G03*
X508500Y142500I-16000J0D01*
G01*
X517500Y857500D02*
G03*
X517500Y857500I-25000J0D01*
G01*
X508500D02*
G03*
X508500Y857500I-16000J0D01*
G01*
X1232500Y142500D02*
G03*
X1232500Y142500I-25000J0D01*
G01*
X1223500D02*
G03*
X1223500Y142500I-16000J0D01*
G01*
D12*
X979750Y274000D02*
G03*
X971750Y282000I-8000J0D01*
G01*
X1244750D02*
G03*
X1236750Y274000I0J-8000D01*
G01*
X1077250Y282500D02*
G03*
X1062250Y282500I-7500J0D01*
G01*
X1312164Y60750D02*
G03*
X1312164Y60750I-1414J0D01*
G01*
X557007Y824750D02*
G03*
X557007Y824750I-1000J0D01*
G01*
X958250Y282000D02*
X971750D01*
X979750Y250000D02*
Y274000D01*
X1062250Y250000D02*
Y282500D01*
X1077250Y250000D02*
Y282500D01*
X958250Y282000D02*
Y759500D01*
X1258250Y282000D02*
Y759500D01*
X1244750Y282000D02*
X1258250D01*
X1236750Y250000D02*
Y274000D01*
X979750Y250000D02*
X1062250D01*
X1077250D02*
X1236750D01*
X958250Y759500D02*
X1258250D01*
X450000Y900000D02*
X450000Y100000D01*
X1250000D01*
X1250000Y900000D02*
X1250000Y100000D01*
X450000Y900000D02*
X1250000D01*
X525247Y121495D02*
X515250D01*
Y113998D01*
X520248D01*
X515250D01*
Y106500D01*
X530245D02*
Y116497D01*
X535243Y121495D01*
X540242Y116497D01*
Y106500D01*
Y113998D01*
X530245D01*
X545240Y106500D02*
Y121495D01*
X555237Y106500D01*
Y121495D01*
X781500Y1144500D02*
Y1152831D01*
X785665Y1156996D01*
X789831Y1152831D01*
Y1144500D01*
Y1150748D01*
X781500D01*
X793996Y1144500D02*
X800244D01*
X802327Y1146583D01*
X800244Y1148665D01*
X796079D01*
X793996Y1150748D01*
X796079Y1152831D01*
X802327D01*
X806492Y1144500D02*
X812740D01*
X814823Y1146583D01*
X812740Y1148665D01*
X808575D01*
X806492Y1150748D01*
X808575Y1152831D01*
X814823D01*
X825236Y1144500D02*
X821070D01*
X818988Y1146583D01*
Y1150748D01*
X821070Y1152831D01*
X825236D01*
X827318Y1150748D01*
Y1148665D01*
X818988D01*
X831484Y1144500D02*
Y1152831D01*
X833567D01*
X835649Y1150748D01*
Y1144500D01*
Y1150748D01*
X837732Y1152831D01*
X839815Y1150748D01*
Y1144500D01*
X843980Y1156996D02*
Y1144500D01*
X850228D01*
X852310Y1146583D01*
Y1148665D01*
Y1150748D01*
X850228Y1152831D01*
X843980D01*
X856476Y1144500D02*
X860641D01*
X858558D01*
Y1156996D01*
X856476D01*
X866889Y1152831D02*
Y1146583D01*
X868972Y1144500D01*
X875220D01*
Y1142417D01*
X873137Y1140335D01*
X871054D01*
X875220Y1144500D02*
Y1152831D01*
X893964Y1154913D02*
Y1152831D01*
X891881D01*
X896046D01*
X893964D01*
Y1146583D01*
X896046Y1144500D01*
X904377D02*
X908542D01*
X910625Y1146583D01*
Y1150748D01*
X908542Y1152831D01*
X904377D01*
X902294Y1150748D01*
Y1146583D01*
X904377Y1144500D01*
X914790Y1140335D02*
Y1152831D01*
X921038D01*
X923121Y1150748D01*
Y1146583D01*
X921038Y1144500D01*
X914790D01*
D14*
X1586000Y999750D02*
G03*
X1586000Y999750I-250J0D01*
G01*
X1396000D02*
G03*
X1396000Y999750I-250J0D01*
G01*
X1016000D02*
G03*
X1016000Y999750I-250J0D01*
G01*
X1206000D02*
G03*
X1206000Y999750I-250J0D01*
G01*
X768000Y913150D02*
Y975950D01*
X756200D02*
X768000D01*
X756200D02*
Y1006350D01*
X768000D01*
Y1131650D01*
X932000Y1006350D02*
Y1131650D01*
Y1006350D02*
X943800D01*
Y975950D02*
Y1006350D01*
X932000Y975950D02*
X943800D01*
X932000Y913150D02*
Y975950D01*
X768000Y1131650D02*
X932000Y1131650D01*
X768000Y913150D02*
X932000Y913150D01*
X1545850Y123500D02*
X1740850Y123500D01*
Y265500D01*
X1545850Y265500D02*
X1740850Y265500D01*
X1545850Y123500D02*
Y265500D01*
X1094400Y922625D02*
Y926625D01*
X1090400D02*
X1094400D01*
Y930625D01*
Y926625D02*
X1098400D01*
X1084400Y942625D02*
X1104400D01*
X1084400Y910625D02*
Y942625D01*
Y910625D02*
X1104400D01*
Y942625D01*
X489250Y1117250D02*
X589250D01*
X539250Y1067250D02*
Y1077250D01*
X534250Y1072250D02*
X544250D01*
X-24499Y623983D02*
X214001D01*
X-24499D02*
Y707983D01*
X214001D01*
Y623983D02*
Y707983D01*
X144000Y1096750D02*
Y1210750D01*
X80000D02*
X144000D01*
X80000Y1096750D02*
Y1210750D01*
X144000Y1146750D01*
X80000Y1189000D02*
X144000Y1125000D01*
X80000Y1167250D02*
X144000Y1103250D01*
X80000Y1145500D02*
X128750Y1096750D01*
X95250D02*
X144000Y1145500D01*
X80000Y1103250D02*
X144000Y1167250D01*
X80000Y1125000D02*
X144000Y1189000D01*
X80000Y1146750D02*
X144000Y1210750D01*
X101750D02*
X144000Y1168500D01*
X80000D02*
X122250Y1210750D01*
X637851Y25D02*
X687851D01*
X637851D02*
Y64025D01*
X687851Y25D02*
Y64025D01*
X637851D02*
X687851D01*
X1012851Y64000D02*
X1062851D01*
Y0D02*
Y64000D01*
X1012851Y0D02*
Y64000D01*
Y0D02*
X1062851D01*
X937851Y64025D02*
X987851D01*
Y25D02*
Y64025D01*
X937851Y25D02*
Y64025D01*
Y25D02*
X987851D01*
X862851Y64025D02*
X912851D01*
Y25D02*
Y64025D01*
X862851Y25D02*
Y64025D01*
Y25D02*
X912851D01*
X787851Y64025D02*
X837851D01*
Y25D02*
Y64025D01*
X787851Y25D02*
Y64025D01*
Y25D02*
X837851D01*
X712851Y64025D02*
X762851D01*
Y25D02*
Y64025D01*
X712851Y25D02*
Y64025D01*
Y25D02*
X762851D01*
X214001Y461983D02*
X214001Y545983D01*
X-24499D02*
X214001D01*
X-24499Y461983D02*
Y545983D01*
Y461983D02*
X214001D01*
X230000Y1168500D02*
X272250Y1210750D01*
X251750D02*
X294000Y1168500D01*
X230000Y1146750D02*
X294000Y1210750D01*
X230000Y1125000D02*
X294000Y1189000D01*
X230000Y1103250D02*
X294000Y1167250D01*
X245250Y1096750D02*
X294000Y1145500D01*
X230000D02*
X278750Y1096750D01*
X230000Y1167250D02*
X294000Y1103250D01*
X230000Y1189000D02*
X294000Y1125000D01*
X230000Y1210750D02*
X294000Y1146750D01*
X230000Y1096750D02*
Y1210750D01*
X294000D01*
Y1096750D02*
Y1210750D01*
X380000Y1168500D02*
X422250Y1210750D01*
X401750D02*
X444000Y1168500D01*
X380000Y1146750D02*
X444000Y1210750D01*
X380000Y1125000D02*
X444000Y1189000D01*
X380000Y1103250D02*
X444000Y1167250D01*
X395250Y1096750D02*
X444000Y1145500D01*
X380000D02*
X428750Y1096750D01*
X380000Y1167250D02*
X444000Y1103250D01*
X380000Y1189000D02*
X444000Y1125000D01*
X380000Y1210750D02*
X444000Y1146750D01*
X380000Y1096750D02*
Y1210750D01*
X444000D01*
Y1096750D02*
Y1210750D01*
X1535250Y836375D02*
X1567250D01*
X1535250D02*
Y856375D01*
X1567250D01*
Y836375D02*
Y856375D01*
X1551250Y846375D02*
X1551250Y842375D01*
X1551250Y846375D02*
X1555250D01*
X1551250D02*
X1551250Y850375D01*
X1547250Y846375D02*
X1551250D01*
X1484400Y910625D02*
Y942625D01*
X1464400Y910625D02*
X1484400D01*
X1464400D02*
Y942625D01*
X1484400D01*
X1474400Y926625D02*
X1478400D01*
X1474400D02*
Y930625D01*
X1470400Y926625D02*
X1474400D01*
Y922625D02*
Y926625D01*
X1155250Y836375D02*
X1187250D01*
X1155250D02*
Y856375D01*
X1187250D01*
Y836375D02*
Y856375D01*
X1171250Y842375D02*
Y846375D01*
X1175250D01*
X1171250D02*
Y850375D01*
X1167250Y846375D02*
X1171250D01*
X1620000Y1096750D02*
Y1210750D01*
X1556000D02*
X1620000D01*
X1556000Y1096750D02*
Y1210750D01*
X1620000Y1146750D01*
X1556000Y1189000D02*
X1620000Y1125000D01*
X1556000Y1167250D02*
X1620000Y1103250D01*
X1556000Y1145500D02*
X1604750Y1096750D01*
X1571250D02*
X1620000Y1145500D01*
X1556000Y1103250D02*
X1620000Y1167250D01*
X1556000Y1125000D02*
X1620000Y1189000D01*
X1556000Y1146750D02*
X1620000Y1210750D01*
X1577750D02*
X1620000Y1168500D01*
X1556000D02*
X1598250Y1210750D01*
X1240000Y1096750D02*
Y1210750D01*
X1176000D02*
X1240000D01*
X1176000Y1096750D02*
Y1210750D01*
X1240000Y1146750D01*
X1176000Y1189000D02*
X1240000Y1125000D01*
X1176000Y1167250D02*
X1240000Y1103250D01*
X1176000Y1145500D02*
X1224750Y1096750D01*
X1191250D02*
X1240000Y1145500D01*
X1176000Y1103250D02*
X1240000Y1167250D01*
X1176000Y1125000D02*
X1240000Y1189000D01*
X1176000Y1146750D02*
X1240000Y1210750D01*
X1197750D02*
X1240000Y1168500D01*
X1176000D02*
X1218250Y1210750D01*
X1430000Y1096750D02*
Y1210750D01*
X1366000D02*
X1430000D01*
X1366000Y1096750D02*
Y1210750D01*
X1430000Y1146750D01*
X1366000Y1189000D02*
X1430000Y1125000D01*
X1366000Y1167250D02*
X1430000Y1103250D01*
X1366000Y1145500D02*
X1414750Y1096750D01*
X1381250Y1096750D02*
X1430000Y1145500D01*
X1366000Y1103250D02*
X1430000Y1167250D01*
X1366000Y1125000D02*
X1430000Y1189000D01*
X1366000Y1146750D02*
X1430000Y1210750D01*
X1387750Y1210750D02*
X1430000Y1168500D01*
X1366000Y1168500D02*
X1408250Y1210750D01*
X1050000Y1096750D02*
Y1210750D01*
X986000D02*
X1050000D01*
X986000Y1096750D02*
Y1210750D01*
X1050000Y1146750D01*
X986000Y1189000D02*
X1050000Y1125000D01*
X986000Y1167250D02*
X1050000Y1103250D01*
X986000Y1145500D02*
X1034750Y1096750D01*
X1001250D02*
X1050000Y1145500D01*
X986000Y1103250D02*
X1050000Y1167250D01*
X986000Y1125000D02*
X1050000Y1189000D01*
X986000Y1146750D02*
X1050000Y1210750D01*
X1007750Y1210750D02*
X1050000Y1168500D01*
X986000D02*
X1028250Y1210750D01*
X689000Y822000D02*
Y824999D01*
X690999Y822000D01*
Y824999D01*
X692499Y822000D02*
X693499D01*
X693998Y822499D01*
Y823499D01*
X693499Y823999D01*
X692499D01*
X691999Y823499D01*
Y822499D01*
X692499Y822000D01*
X697997Y821000D02*
Y823999D01*
X699497D01*
X699996Y823499D01*
Y822499D01*
X699497Y822000D01*
X697997D01*
X701496D02*
X702496D01*
X702996Y822499D01*
Y823499D01*
X702496Y823999D01*
X701496D01*
X700996Y823499D01*
Y822499D01*
X701496Y822000D01*
X703995D02*
X704995D01*
X704495D01*
Y824999D01*
X703995D01*
X706994Y823999D02*
X707994D01*
X708494Y823499D01*
Y822000D01*
X706994D01*
X706494Y822499D01*
X706994Y822999D01*
X708494D01*
X709493Y823999D02*
Y822000D01*
Y822999D01*
X709993Y823499D01*
X710493Y823999D01*
X710993D01*
X712492Y822000D02*
X713492D01*
X712992D01*
Y823999D01*
X712492D01*
X715491Y824499D02*
Y823999D01*
X714992D01*
X715991D01*
X715491D01*
Y822499D01*
X715991Y822000D01*
X717491Y823999D02*
Y822499D01*
X717991Y822000D01*
X719490D01*
Y821500D01*
X718990Y821000D01*
X718490D01*
X719490Y822000D02*
Y823999D01*
D17*
X728559Y185500D02*
G03*
X728559Y185500I-559J0D01*
G01*
X444750Y593000D02*
G03*
X444750Y593000I-750J0D01*
G01*
X1232059Y890750D02*
G03*
X1232059Y890750I-559J0D01*
G01*
X423500Y384250D02*
G03*
X423500Y384250I-750J0D01*
G01*
X1700000Y1074600D02*
G03*
X1674600Y1100000I-25400J0D01*
G01*
X25400D02*
G03*
X0Y1074600I0J-25400D01*
G01*
X1674600Y0D02*
G03*
X1700000Y25400I0J25400D01*
G01*
X0D02*
G03*
X25400Y0I25400J0D01*
G01*
X1612059Y890750D02*
G03*
X1612059Y890750I-559J0D01*
G01*
X1429750Y520500D02*
Y725500D01*
X1274750Y520500D02*
X1429750D01*
X1274750D02*
Y725500D01*
X1429750D01*
X1339750Y625500D02*
X1364750D01*
X1352250Y613000D02*
Y638000D01*
X850000Y987500D02*
Y997500D01*
X860000D01*
X850000D02*
Y1007500D01*
X840000Y997500D02*
X850000D01*
X896250Y454750D02*
Y459750D01*
X891250D02*
X896250D01*
Y464750D01*
Y459750D02*
X901250D01*
X876350Y575750D02*
X916150Y575750D01*
X876350Y343750D02*
X876350Y575750D01*
X876350Y343750D02*
X916150Y343750D01*
Y575750D01*
X631500Y974750D02*
Y1099750D01*
Y974750D02*
X751500D01*
Y1099750D01*
X631500D02*
X751500D01*
X1108250Y254000D02*
Y264000D01*
X1098250Y254000D02*
X1108250D01*
Y244000D02*
Y254000D01*
X1118250D01*
X1615250Y194500D02*
X1627750D01*
Y182000D02*
Y194500D01*
X1640250D01*
X1627750D02*
Y207000D01*
X659101Y42775D02*
X666601D01*
X672351Y37025D01*
Y10775D02*
Y37025D01*
X653851Y37525D02*
X659101Y42775D01*
X653851Y10775D02*
Y37525D01*
Y10775D02*
X672351D01*
X839500Y136250D02*
X849500D01*
Y126250D02*
Y136250D01*
X859500D01*
X849500D02*
Y146250D01*
X1328250Y80750D02*
X1353250D01*
X1340750Y68250D02*
Y93250D01*
X1290750Y40750D02*
X1390750D01*
X1290750D02*
Y120750D01*
X1390750D01*
Y40750D02*
Y120750D01*
X318500Y494750D02*
Y570750D01*
X241500Y494750D02*
Y570750D01*
X318500D01*
X241500Y494750D02*
X318500D01*
X280500Y529750D02*
X290500D01*
X280500D02*
Y539750D01*
X270500Y529750D02*
X280500D01*
Y519750D02*
Y529750D01*
X1290000Y343750D02*
X1520000D01*
Y283750D02*
Y343750D01*
X1290000Y283750D02*
X1520000D01*
X1290000D02*
Y343750D01*
X1405000Y308750D02*
Y318750D01*
X1400000Y313750D02*
X1410000D01*
X680000Y857000D02*
X728000D01*
Y817000D02*
Y857000D01*
X680000Y817000D02*
X728000D01*
X680000D02*
Y857000D01*
X704000Y832000D02*
Y842000D01*
X699000Y837000D02*
X709000D01*
X740250Y165500D02*
X740250Y190500D01*
X711250Y165500D02*
X740250Y165500D01*
X711250Y165500D02*
Y190500D01*
X740250Y190500D01*
X725750Y178000D02*
X728250D01*
X725750D02*
Y180500D01*
Y175500D02*
Y178000D01*
X723250D02*
X725750D01*
X489250Y1005250D02*
X589250D01*
X489250D02*
Y1128250D01*
X589250D01*
Y1005250D02*
Y1128250D01*
X1070900Y874500D02*
X1100900D01*
X1070900Y860500D02*
X1100900D01*
X1070900Y874500D02*
X1070900Y860500D01*
X1100900D02*
Y874500D01*
X993750Y89750D02*
Y102250D01*
X1006250D01*
X993750D02*
Y114750D01*
X981250Y102250D02*
X993750D01*
X918750Y77250D02*
X1068750D01*
X918750D02*
Y127250D01*
X1068750D01*
Y77250D02*
Y127250D01*
X379000Y453750D02*
X379000Y499750D01*
X357000D02*
X357000Y453750D01*
X357000Y499750D02*
X379000D01*
X357000Y453750D02*
X379000D01*
X538008Y839750D02*
X667750D01*
X538008Y765750D02*
Y839750D01*
Y765750D02*
X667750D01*
Y839750D01*
X1591250Y996500D02*
Y1003000D01*
X1580250Y996500D02*
X1591250D01*
X1580250D02*
Y1003000D01*
X1591250D01*
X451750Y613250D02*
X461750D01*
X456750Y608250D02*
Y618250D01*
X484000Y586000D02*
Y640500D01*
X429500Y586000D02*
Y640500D01*
X484000D01*
X429500Y586000D02*
X484000D01*
X1383750Y908900D02*
X1431750D01*
X1383750Y956900D02*
X1431750D01*
X1383750Y908900D02*
Y956900D01*
X1431750Y908900D02*
Y956900D01*
X1407500Y927650D02*
Y937650D01*
X1402500Y932650D02*
X1412500D01*
X1211500Y869500D02*
X1221500D01*
X1216500Y864500D02*
Y874500D01*
X1189500Y841500D02*
Y899500D01*
X1243500Y841500D02*
Y899500D01*
X1189500Y841500D02*
X1243500D01*
X1189500Y899500D02*
X1243500D01*
X1052400Y874000D02*
Y879000D01*
Y874000D02*
X1057400D01*
X1052400Y869000D02*
Y874000D01*
X1047400D02*
X1052400D01*
X1034900Y859000D02*
Y889000D01*
X1069900D01*
Y859000D02*
Y889000D01*
X1034900Y859000D02*
X1069900D01*
X2750Y308500D02*
X21750D01*
X2750D02*
X9750Y312500D01*
X2750Y308500D02*
X9750Y304500D01*
X107000Y308000D02*
X120000D01*
Y295000D02*
Y308000D01*
X133000D01*
X120000D02*
Y321000D01*
X230250Y960250D02*
Y1006250D01*
X183250Y970250D02*
X193250Y960250D01*
X230250D01*
X183250Y996250D02*
X193250Y1006250D01*
X230250D01*
X207250Y978250D02*
Y988250D01*
X202250Y983250D02*
X212250D01*
X183250Y970250D02*
Y996250D01*
X215500Y417250D02*
X310500D01*
X215500Y207250D02*
Y417250D01*
Y207250D02*
X310500D01*
Y417250D01*
X263000Y312250D02*
X275500D01*
X263000D02*
Y324750D01*
X250500Y312250D02*
X263000D01*
Y299750D02*
Y312250D01*
X1626000Y748893D02*
X1693250D01*
X1626000Y616607D02*
Y748893D01*
Y616607D02*
X1693250D01*
Y748893D01*
X1658750Y674000D02*
X1658750Y682750D01*
X1650000D02*
X1658750D01*
X1658750Y691500D02*
X1658750Y682750D01*
X1667500D01*
X1376750Y413571D02*
X1430250D01*
Y492571D01*
X1376750D02*
X1430250D01*
X1376750Y413571D02*
Y492571D01*
X1490500Y544964D02*
X1544250D01*
Y725679D01*
X1490500D02*
X1544250D01*
X1490500Y544964D02*
Y725679D01*
X1508500Y635250D02*
X1517250D01*
Y626500D02*
Y635250D01*
X1526000D01*
X1517250D02*
Y644000D01*
X239090Y75000D02*
Y105500D01*
X320090D01*
Y75000D02*
Y105500D01*
X239090Y75000D02*
X320090D01*
X155000Y1008750D02*
Y1096750D01*
X69000Y1008750D02*
X155000D01*
X69000D02*
Y1096750D01*
X155000D01*
X69000Y1010250D02*
Y1095250D01*
X112000Y1047750D02*
Y1052750D01*
X107000D02*
X112000D01*
Y1057750D01*
Y1052750D02*
X117000D01*
X5870Y87233D02*
X75620D01*
Y194090D01*
X5870D02*
X75620D01*
X5870Y87233D02*
Y194090D01*
X34120Y140661D02*
X42870D01*
Y131911D02*
Y140661D01*
X51620D01*
X42870D02*
Y149411D01*
X442250Y502000D02*
Y512000D01*
X437250Y507000D02*
X447250D01*
X380250Y561000D02*
X504250D01*
X380250Y454000D02*
X504250D01*
X380250D02*
X380250Y561000D01*
X504250D02*
X504250Y454000D01*
X478250Y1098500D02*
X484750D01*
X474750Y1095000D02*
X478250Y1098500D01*
X474750Y1066250D02*
Y1095000D01*
X484750Y1098500D02*
X488250Y1095000D01*
Y1066250D02*
Y1095000D01*
X474750Y1066250D02*
X488250D01*
X312500Y815000D02*
Y825000D01*
X307500Y820000D02*
X317500D01*
X1643500Y422500D02*
Y432500D01*
X1633500D02*
X1643500D01*
Y442500D01*
Y432500D02*
X1653500D01*
X352500Y954250D02*
Y963000D01*
X343750D02*
X352500D01*
Y971750D01*
Y963000D02*
X361250D01*
X387000Y935000D02*
Y991000D01*
X319750Y935000D02*
X387000D01*
X319750D02*
Y991000D01*
X387000D01*
X227750Y454000D02*
X332250D01*
Y482250D01*
X227750D02*
X332250D01*
X227750Y454000D02*
Y482250D01*
X821250Y836250D02*
X875250Y836250D01*
X821250Y836250D02*
Y890500D01*
X875250D01*
Y836250D02*
Y890500D01*
X850000Y500000D02*
Y520000D01*
X830000Y500000D02*
X850000D01*
Y480000D02*
Y500000D01*
X870000D01*
X1413499Y908900D02*
Y921400D01*
Y908900D02*
X1425999D01*
X1413499Y896400D02*
Y908900D01*
X1400999D02*
X1413499D01*
X1330999Y826400D02*
Y991400D01*
X1495999D01*
Y826400D02*
Y991400D01*
X1330999Y826400D02*
X1495999D01*
X243750Y655250D02*
X257750D01*
X338750Y648250D02*
Y662250D01*
X331750Y655250D02*
X345750D01*
X361250Y600250D02*
Y710250D01*
X228000Y600250D02*
Y710250D01*
Y600250D02*
X361250D01*
X228000Y710250D02*
X361250D01*
X289750Y655250D02*
X299750D01*
X294750Y650250D02*
Y660250D01*
X1223500Y908752D02*
X1236000D01*
X1223500Y896252D02*
Y908752D01*
X1211000D02*
X1223500D01*
Y921252D01*
X1133500Y998752D02*
X1313500D01*
Y818752D02*
Y998752D01*
X1133500Y818752D02*
X1313500D01*
X1133500D02*
Y998752D01*
X649500Y733250D02*
Y767250D01*
X667500Y733250D02*
Y767250D01*
X649500Y733250D02*
X667500D01*
X649500Y767250D02*
X667500D01*
X179500Y988000D02*
Y1009000D01*
X168500Y988000D02*
Y1009000D01*
X179500D01*
X168500Y988000D02*
X179500D01*
X498750Y892000D02*
X568750D01*
X498750Y926000D02*
X568750D01*
Y892000D02*
Y926000D01*
X498750Y892000D02*
Y926000D01*
X535250Y894000D02*
X539250D01*
X534250Y890000D02*
X539250D01*
X537250Y892000D02*
X539250Y892000D01*
X530250Y892000D02*
X537250D01*
X529250Y887000D02*
Y897000D01*
X530250Y892000D02*
X539250Y897000D01*
X530250Y892000D02*
X539250Y887000D01*
Y897000D01*
X68500Y58750D02*
X96500D01*
Y5250D02*
Y58750D01*
X68500Y5250D02*
X96500D01*
X68500D02*
Y58750D01*
X430500Y404500D02*
X440500D01*
X435500Y399500D02*
Y409500D01*
X462750Y377250D02*
Y431750D01*
X408250Y377250D02*
Y431750D01*
X462750D01*
X408250Y377250D02*
X462750D01*
X168500Y999000D02*
X179500D01*
X168500Y978000D02*
X179500D01*
Y999000D01*
X168500Y978000D02*
Y999000D01*
X1293500Y1063500D02*
X1321500D01*
Y1010000D02*
Y1063500D01*
X1293500Y1010000D02*
X1321500D01*
X1293500D02*
Y1063500D01*
X1078900Y876375D02*
Y886375D01*
X1099900Y876375D02*
Y886375D01*
X1078900D02*
X1099900D01*
X1078900Y876375D02*
X1099900D01*
X90410Y138090D02*
X157660D01*
Y194090D01*
X90410D02*
X157660D01*
X90410Y138090D02*
Y194090D01*
X116160Y166090D02*
X124910D01*
Y157340D02*
Y166090D01*
X133660D01*
X124910D02*
Y174840D01*
X539250Y930750D02*
Y940750D01*
X530250Y935750D02*
X539250Y930750D01*
X530250Y935750D02*
X539250Y940750D01*
X529250Y930750D02*
Y940750D01*
X530250Y935750D02*
X537250D01*
X539250Y935750D01*
X534250Y933750D02*
X539250D01*
X535250Y937750D02*
X539250D01*
X498750Y935750D02*
Y969750D01*
X568750Y935750D02*
Y969750D01*
X498750D02*
X568750D01*
X498750Y935750D02*
X568750D01*
X1432400Y874000D02*
Y879000D01*
Y874000D02*
X1437400D01*
X1432400Y869000D02*
Y874000D01*
X1427400D02*
X1432400D01*
X1414900Y859000D02*
Y889000D01*
X1449900D01*
Y859000D02*
Y889000D01*
X1414900Y859000D02*
X1449900D01*
X358090Y196000D02*
X439090D01*
Y226500D01*
X358090D02*
X439090D01*
X358090Y196000D02*
Y226500D01*
Y75000D02*
X439090D01*
Y105500D01*
X358090D02*
X439090D01*
X358090Y75000D02*
Y105500D01*
Y135500D02*
X439090D01*
Y166000D01*
X358090D02*
X439090D01*
X358090Y135500D02*
Y166000D01*
X1078900Y898875D02*
Y908875D01*
X1099900Y898875D02*
Y908875D01*
X1078900D02*
X1099900D01*
X1078900Y898875D02*
X1099900D01*
Y887625D02*
Y897625D01*
X1078900Y887625D02*
Y897625D01*
Y887625D02*
X1099900D01*
X1078900Y897625D02*
X1099900D01*
X1548750Y933000D02*
X1558750D01*
X1548750Y912000D02*
X1558750D01*
Y933000D01*
X1548750Y912000D02*
Y933000D01*
X1458900Y898875D02*
Y908875D01*
X1479900D02*
X1479900Y898875D01*
X1458900Y908875D02*
X1479900D01*
X1458900Y898875D02*
X1479900Y898875D01*
X1479900Y897625D02*
X1479900Y887625D01*
X1458900Y887625D02*
Y897625D01*
Y887625D02*
X1479900Y887625D01*
X1458900Y897625D02*
X1479900D01*
X1458900Y876375D02*
Y886375D01*
X1479900Y876375D02*
Y886375D01*
X1458900D02*
X1479900D01*
X1458900Y876375D02*
X1479900D01*
X1556250Y861125D02*
Y871125D01*
X1535250Y861125D02*
Y871125D01*
Y861125D02*
X1556250D01*
X1535250Y871125D02*
X1556250D01*
X1535250Y872375D02*
Y882375D01*
X1556250Y872375D02*
Y882375D01*
X1535250D02*
X1556250D01*
X1535250Y872375D02*
X1556250D01*
Y883625D02*
Y893625D01*
X1535250Y883625D02*
Y893625D01*
Y883625D02*
X1556250D01*
X1535250Y893625D02*
X1556250D01*
X112750Y58750D02*
X140750D01*
Y5250D02*
Y58750D01*
X112750Y5250D02*
X140750D01*
X112750D02*
Y58750D01*
X165840Y5130D02*
X246840D01*
Y35630D01*
X165840D02*
X246840D01*
X165840Y5130D02*
Y35630D01*
X165750Y76000D02*
Y104000D01*
X219250D01*
Y76000D02*
Y104000D01*
X165750Y76000D02*
X219250D01*
X685750Y792500D02*
Y810500D01*
X719750Y792500D02*
Y810500D01*
X685750D02*
X719750D01*
X685750Y792500D02*
X719750D01*
X686000Y761500D02*
Y779500D01*
X720000Y761500D02*
Y779500D01*
X686000D02*
X720000D01*
X686000Y761500D02*
X720000D01*
X657250Y842000D02*
X675250D01*
X657250Y876000D02*
X675250D01*
X657250Y842000D02*
Y876000D01*
X675250Y842000D02*
Y876000D01*
X186750Y1061250D02*
X195500D01*
X186750Y1052500D02*
Y1061250D01*
X178000D02*
X186750D01*
Y1070000D01*
X158750Y1095750D02*
X214750D01*
Y1028500D02*
Y1095750D01*
X158750Y1028500D02*
X214750D01*
X158750D02*
Y1095750D01*
X756000Y871000D02*
X790000D01*
X756000Y853000D02*
X790000D01*
X756000D02*
Y871000D01*
X790000Y853000D02*
Y871000D01*
X686000Y733250D02*
Y767250D01*
X668000Y733250D02*
Y767250D01*
X686000D01*
X668000Y733250D02*
X686000D01*
X621000Y842000D02*
Y876000D01*
X639000Y842000D02*
Y876000D01*
X621000Y842000D02*
X639000D01*
X621000Y876000D02*
X639000D01*
X639000Y842000D02*
Y876000D01*
X657000Y842000D02*
Y876000D01*
X639000Y842000D02*
X657000D01*
X639000Y876000D02*
X657000D01*
X879125Y1100000D02*
X1258250Y1100000D01*
X25400Y1100000D02*
X1674600D01*
X25400Y0D02*
X1674600D01*
X1316500Y1100000D02*
X1674600D01*
X25400D02*
X383500D01*
X441750Y1100000D02*
X820875D01*
X1700000Y709250D02*
X1700000Y340750D01*
X0Y709250D02*
X0Y340750D01*
X1700000Y1074600D02*
X1700000Y767500D01*
X1700000Y25400D02*
Y282500D01*
X0Y767500D02*
Y1074600D01*
X0Y25400D02*
Y282500D01*
X1700000Y282500D02*
Y340750D01*
X0Y282500D02*
Y340750D01*
X1700000Y709250D02*
Y767500D01*
X0Y709250D02*
Y767500D01*
X879125Y1100000D02*
Y1100000D01*
X441750Y1100000D02*
Y1100000D01*
X576150Y575750D02*
X576150Y343750D01*
X536350D02*
X576150D01*
X536350D02*
X536350Y575750D01*
X576150D01*
X556250Y459750D02*
X561250D01*
X556250D02*
Y464750D01*
X551250Y459750D02*
X556250D01*
Y454750D02*
Y459750D01*
X373000Y642500D02*
Y709750D01*
Y642500D02*
X429000D01*
Y709750D01*
X373000D02*
X429000D01*
X401000Y675250D02*
Y684000D01*
X392250Y675250D02*
X401000D01*
Y666500D02*
Y675250D01*
X409750D01*
X1330000Y774500D02*
X1371500D01*
Y749000D02*
Y774500D01*
X1330000Y749000D02*
X1371500D01*
X1330000D02*
Y774500D01*
X1530250Y212500D02*
X1540250D01*
X1530250Y191500D02*
X1540250D01*
Y212500D01*
X1530250Y191500D02*
Y212500D01*
X1530250Y174250D02*
X1540250D01*
X1530250Y153250D02*
X1540250D01*
Y174250D01*
X1530250Y153250D02*
Y174250D01*
X1520400Y178850D02*
X1541400D01*
X1520400Y189850D02*
X1541400D01*
Y178850D02*
Y189850D01*
X1520400Y178850D02*
Y189850D01*
X1491500Y493250D02*
X1519750D01*
Y388750D02*
Y493250D01*
X1491500Y388750D02*
X1519750D01*
X1491500D02*
Y493250D01*
X1427500Y364500D02*
Y390500D01*
X1398500Y377500D02*
X1408500D01*
X1403500Y372500D02*
Y382500D01*
X1380500Y354500D02*
X1417500D01*
X1427500Y364500D01*
X1380500Y400500D02*
X1417500D01*
X1427500Y390500D01*
X1380500Y354500D02*
Y400500D01*
X179750Y714500D02*
Y725500D01*
X158750Y714500D02*
Y725500D01*
Y714500D02*
X179750D01*
X158750Y725500D02*
X179750D01*
X165500Y600500D02*
X207000D01*
Y575000D02*
Y600500D01*
X165500Y575000D02*
X207000D01*
X165500D02*
Y600500D01*
X154000Y715000D02*
Y750000D01*
X134000Y715000D02*
X154000D01*
X134000D02*
Y750000D01*
X154000D01*
X753000Y121250D02*
Y142250D01*
X764000Y121250D02*
Y142250D01*
X753000Y121250D02*
X764000Y121250D01*
X753000Y142250D02*
X764000D01*
X765250Y121250D02*
Y142250D01*
X776250Y121250D02*
X776250Y142250D01*
X765250Y121250D02*
X776250D01*
X765250Y142250D02*
X776250D01*
X753000Y165750D02*
Y186750D01*
X764000Y165750D02*
X764000Y186750D01*
X753000Y165750D02*
X764000Y165750D01*
X753000Y186750D02*
X764000D01*
X759000Y164500D02*
X759000Y143500D01*
X770000D02*
Y164500D01*
X759000Y143500D02*
X770000D01*
X759000Y164500D02*
X770000D01*
X742750Y154750D02*
Y175750D01*
X752750Y154750D02*
Y175750D01*
X742750Y154750D02*
X752750Y154750D01*
X742750Y175750D02*
X752750D01*
X776250Y165750D02*
Y186750D01*
X765250Y165750D02*
Y186750D01*
X776250Y186750D01*
X765250Y165750D02*
X776250Y165750D01*
X726250Y195500D02*
Y206500D01*
X747250Y195500D02*
Y206500D01*
X726250D02*
X747250D01*
X726250Y195500D02*
X747250D01*
X725000Y195562D02*
X725000Y206562D01*
X704000D02*
X704000Y195562D01*
X725000D01*
X704000Y206562D02*
X725000D01*
X564250Y844750D02*
Y855750D01*
X585250Y844750D02*
Y855750D01*
X564250D02*
X585250D01*
X564250Y844750D02*
X585250D01*
X589250Y843250D02*
Y857250D01*
X619250Y843250D02*
Y857250D01*
X589250D02*
X619250D01*
X589250Y843250D02*
X619250D01*
X711500Y780000D02*
Y790000D01*
X690500Y780000D02*
Y790000D01*
Y780000D02*
X711500D01*
X690500Y790000D02*
X711500D01*
X783500Y872000D02*
Y882000D01*
X762500Y872000D02*
Y882000D01*
Y872000D02*
X783500D01*
X762500Y882000D02*
X783500D01*
X878851Y10775D02*
X897351D01*
X878851D02*
Y37525D01*
X884101Y42775D01*
X897351Y10775D02*
Y37025D01*
X891601Y42775D02*
X897351Y37025D01*
X884101Y42775D02*
X891601D01*
X803851Y10775D02*
X822351D01*
X803851D02*
Y37525D01*
X809101Y42775D01*
X822351Y10775D02*
Y37025D01*
X816601Y42775D02*
X822351Y37025D01*
X809101Y42775D02*
X816601D01*
X728851Y10775D02*
X747351D01*
X728851D02*
Y37525D01*
X734101Y42775D01*
X747351Y10775D02*
Y37025D01*
X741601Y42775D02*
X747351Y37025D01*
X734101Y42775D02*
X741601D01*
X1028851Y10750D02*
X1047351D01*
X1028851D02*
Y37500D01*
X1034101Y42750D01*
X1047351Y10750D02*
Y37000D01*
X1041601Y42750D02*
X1047351Y37000D01*
X1034101Y42750D02*
X1041601D01*
X953851Y10750D02*
X972351D01*
X953851D02*
Y37500D01*
X959101Y42750D01*
X972351Y10750D02*
Y37000D01*
X966601Y42750D02*
X972351Y37000D01*
X959101Y42750D02*
X966601D01*
X938750Y1098750D02*
X945250Y1098750D01*
X935250Y1095250D02*
X938750Y1098750D01*
X935250Y1066500D02*
Y1095250D01*
X945250Y1098750D02*
X948750Y1095250D01*
Y1066500D02*
Y1095250D01*
X935250Y1066500D02*
X948750D01*
X1513497Y818752D02*
Y998752D01*
Y818752D02*
X1693497D01*
Y998752D01*
X1513497D02*
X1693497D01*
X1603497Y908752D02*
Y921252D01*
X1590997Y908752D02*
X1603497D01*
Y896252D02*
Y908752D01*
X1615997D01*
X1323499Y818752D02*
Y998752D01*
Y818752D02*
X1503499D01*
Y998752D01*
X1323499D02*
X1503499D01*
X1413499Y908752D02*
Y921252D01*
X1400999Y908752D02*
X1413499D01*
Y896252D02*
Y908752D01*
X1425999D01*
X943502Y818752D02*
Y998752D01*
Y818752D02*
X1123502D01*
Y998752D01*
X943502D02*
X1123502D01*
X1033502Y908752D02*
Y921252D01*
X1021002Y908752D02*
X1033502D01*
Y896252D02*
Y908752D01*
X1046002D01*
X1054400Y772250D02*
X1100400D01*
X1054400Y809250D02*
X1064400Y819250D01*
X1054400Y772250D02*
Y809250D01*
X1090400Y819250D02*
X1100400Y809250D01*
Y772250D02*
Y809250D01*
X1072400Y795250D02*
X1082400D01*
X1077400Y790250D02*
Y800250D01*
X1064400Y819250D02*
X1090400D01*
X1434400Y772250D02*
X1480400D01*
X1434400Y809250D02*
X1444400Y819250D01*
X1434400Y772250D02*
Y809250D01*
X1470400Y819250D02*
X1480400Y809250D01*
Y772250D02*
Y809250D01*
X1452400Y795250D02*
X1462400D01*
X1457400Y790250D02*
Y800250D01*
X1444400Y819250D02*
X1470400D01*
X1244400Y772250D02*
X1290400D01*
X1244400Y809250D02*
X1254400Y819250D01*
X1244400Y772250D02*
Y809250D01*
X1280400Y819250D02*
X1290400Y809250D01*
Y772250D02*
Y809250D01*
X1262400Y795250D02*
X1272400D01*
X1267400Y790250D02*
Y800250D01*
X1254400Y819250D02*
X1280400D01*
X1624400Y772250D02*
X1670400D01*
X1624400Y809250D02*
X1634400Y819250D01*
X1624400Y772250D02*
Y809250D01*
X1660400Y819250D02*
X1670400Y809250D01*
Y772250D02*
Y809250D01*
X1642400Y795250D02*
X1652400D01*
X1647400Y790250D02*
Y800250D01*
X1634400Y819250D02*
X1660400D01*
X126000Y994750D02*
X154250D01*
Y890250D02*
Y994750D01*
X126000Y890250D02*
X154250D01*
X126000D02*
Y994750D01*
X262000Y1052750D02*
X267000D01*
X262000D02*
Y1057750D01*
X257000Y1052750D02*
X262000D01*
Y1047750D02*
Y1052750D01*
X219000Y1010250D02*
Y1095250D01*
Y1096750D02*
X305000D01*
X219000Y1008750D02*
Y1096750D01*
Y1008750D02*
X305000D01*
Y1096750D01*
X412000Y1052750D02*
X417000D01*
X412000D02*
Y1057750D01*
X407000Y1052750D02*
X412000D01*
Y1047750D02*
Y1052750D01*
X369000Y1010250D02*
Y1095250D01*
Y1096750D02*
X455000D01*
X369000Y1008750D02*
Y1096750D01*
Y1008750D02*
X455000D01*
Y1096750D01*
X239090Y135500D02*
Y166000D01*
X320090D01*
Y135500D02*
Y166000D01*
X239090Y135500D02*
X320090D01*
X1520997Y826252D02*
X1685997D01*
Y991252D01*
X1520997D02*
X1685997D01*
X1520997Y826252D02*
Y991252D01*
X1590997Y908752D02*
X1603497D01*
Y896252D02*
Y908752D01*
X1615997D01*
X1603497D02*
Y921252D01*
X1141000Y826252D02*
X1306000D01*
Y991252D01*
X1141000D02*
X1306000D01*
X1141000Y826252D02*
Y991252D01*
X1211000Y908752D02*
X1223500D01*
Y896252D02*
Y908752D01*
X1236000D01*
X1223500D02*
Y921252D01*
X951002Y826400D02*
X1116002D01*
Y991400D01*
X951002D02*
X1116002D01*
X951002Y826400D02*
Y991400D01*
X1021002Y908900D02*
X1033502D01*
Y896400D02*
Y908900D01*
X1046002D01*
X1033502D02*
Y921400D01*
X370125Y410905D02*
X404125D01*
X370125Y428905D02*
X404125D01*
Y410905D02*
Y428905D01*
X370125Y410905D02*
Y428905D01*
X390250Y621500D02*
X424250D01*
X390250Y639500D02*
X424250D01*
Y621500D02*
Y639500D01*
X390250Y621500D02*
Y639500D01*
X1617500Y947500D02*
X1627500D01*
X1617500Y926500D02*
X1627500D01*
Y947500D01*
X1617500Y926500D02*
Y947500D01*
X1609900Y909750D02*
Y919750D01*
X1588900Y909750D02*
Y919750D01*
Y909750D02*
X1609900D01*
X1588900Y919750D02*
X1609900D01*
X1642400Y860250D02*
X1652400D01*
X1642400Y839250D02*
X1652400D01*
Y860250D01*
X1642400Y839250D02*
Y860250D01*
X1569500Y899500D02*
X1623500D01*
X1569500Y841500D02*
X1623500D01*
Y899500D01*
X1569500Y841500D02*
Y899500D01*
X1596500Y864500D02*
Y874500D01*
X1591500Y869500D02*
X1601500D01*
X1534250Y895500D02*
Y909500D01*
X1564250Y895500D02*
Y909500D01*
X1534250D02*
X1564250D01*
X1534250Y895500D02*
X1564250D01*
X1534000Y957750D02*
Y967750D01*
X1555000Y957750D02*
Y967750D01*
X1534000D02*
X1555000D01*
X1534000Y957750D02*
X1555000D01*
X1585000Y941000D02*
Y951000D01*
X1580000Y946000D02*
X1590000D01*
X1560750Y970250D02*
X1608750D01*
X1560750Y922250D02*
X1608750D01*
X1560750D02*
Y970250D01*
X1608750Y922250D02*
Y970250D01*
X1612000Y974250D02*
X1622000D01*
X1612000Y953250D02*
X1622000D01*
Y974250D01*
X1612000Y953250D02*
Y974250D01*
X1480900Y860500D02*
Y874500D01*
X1450900Y860500D02*
Y874500D01*
Y860500D02*
X1480900D01*
X1450900Y874500D02*
X1480900D01*
X1452400Y860250D02*
X1462400D01*
X1452400Y839250D02*
X1462400D01*
Y860250D01*
X1452400Y839250D02*
Y860250D01*
X1406000Y906717D02*
X1416000D01*
X1406000Y885717D02*
X1416000D01*
Y906717D01*
X1406000Y885717D02*
Y906717D01*
X1398750Y895150D02*
Y905150D01*
X1377750Y895150D02*
Y905150D01*
Y895150D02*
X1398750D01*
X1377750Y905150D02*
X1398750D01*
X1371250Y907750D02*
X1381250D01*
X1371250Y928750D02*
X1381250D01*
X1371250Y907750D02*
Y928750D01*
X1381250Y907750D02*
Y928750D01*
X1393000Y980500D02*
X1403000D01*
X1393000Y959500D02*
X1403000D01*
Y980500D01*
X1393000Y959500D02*
Y980500D01*
X1390250Y1003000D02*
X1401250D01*
X1390250Y996500D02*
Y1003000D01*
Y996500D02*
X1401250D01*
Y1003000D01*
X1010250D02*
X1021250Y1003000D01*
X1010250Y996500D02*
Y1003000D01*
Y996500D02*
X1021250Y996500D01*
Y1003000D01*
X1200250Y1003000D02*
X1211250D01*
X1200250Y996500D02*
Y1003000D01*
Y996500D02*
X1211250D01*
Y1003000D01*
X1013000Y980500D02*
X1023000D01*
X1013000Y959500D02*
X1023000D01*
Y980500D01*
X1013000D02*
X1013000Y959500D01*
X1022500Y932650D02*
X1032500D01*
X1027500Y937650D02*
X1027500Y927650D01*
X1051750Y908900D02*
Y956900D01*
X1003750Y908900D02*
Y956900D01*
X1051750D01*
X1003750Y908900D02*
X1051750D01*
X991250Y907750D02*
X1001250D01*
X991250Y928750D02*
X1001250D01*
X991250Y907750D02*
Y928750D01*
X1001250Y907750D02*
Y928750D01*
X1018751Y895150D02*
Y905150D01*
X997750Y895150D02*
Y905150D01*
Y895150D02*
X1018751Y895150D01*
X997750Y905150D02*
X1018751D01*
X1026000Y906717D02*
X1036000D01*
X1026000Y885717D02*
X1036000D01*
Y906717D01*
X1026000Y885717D02*
Y906717D01*
X1072400Y860250D02*
X1082400D01*
X1072400Y839250D02*
X1082400D01*
Y860250D01*
X1072400Y839250D02*
Y860250D01*
X1205000Y941000D02*
Y951000D01*
X1200000Y946000D02*
X1210000D01*
X1180750Y970250D02*
X1228750D01*
X1180750Y922250D02*
X1228750D01*
X1180750D02*
Y970250D01*
X1228750Y922250D02*
Y970250D01*
X1154000Y957750D02*
Y967750D01*
X1175000Y957750D02*
Y967750D01*
X1154000D02*
X1175000D01*
X1154000Y957750D02*
X1175000D01*
X1154250Y895500D02*
Y909500D01*
X1184250Y895500D02*
Y909500D01*
X1154250D02*
X1184250D01*
X1154250Y895500D02*
X1184250D01*
X1168750Y933000D02*
X1178750D01*
X1168750Y912000D02*
X1178750D01*
Y933000D01*
X1168750Y912000D02*
Y933000D01*
X1232000Y974250D02*
X1242000D01*
X1232000Y953250D02*
X1242000D01*
Y974250D01*
X1232000Y953250D02*
Y974250D01*
X1237500Y947500D02*
X1247500D01*
X1237500Y926500D02*
X1247500D01*
Y947500D01*
X1237500Y926500D02*
Y947500D01*
X1229900Y909750D02*
Y919750D01*
X1208900Y909750D02*
Y919750D01*
Y909750D02*
X1229900D01*
X1208900Y919750D02*
X1229900D01*
X1262400Y860250D02*
X1272400D01*
X1262400Y839250D02*
X1272400D01*
Y860250D01*
X1262400Y839250D02*
Y860250D01*
X1176250Y861125D02*
Y871125D01*
X1155250Y861125D02*
Y871125D01*
Y861125D02*
X1176250D01*
X1155250Y871125D02*
X1176250D01*
Y883625D02*
Y893625D01*
X1155250Y883625D02*
Y893625D01*
Y883625D02*
X1176250D01*
X1155250Y893625D02*
X1176250D01*
X1155250Y872375D02*
Y882375D01*
X1176250Y872375D02*
Y882375D01*
X1155250D02*
X1176250D01*
X1155250Y872375D02*
X1176250D01*
X429750Y605250D02*
X429750Y616250D01*
X408750Y605250D02*
Y616250D01*
Y605250D02*
X429750D01*
X408750Y616250D02*
X429750Y616250D01*
X408750Y595250D02*
Y605250D01*
X429750Y605250D02*
X429750Y595250D01*
X408750Y605250D02*
X429750Y605250D01*
X408750Y595250D02*
X429750D01*
X408750Y600250D02*
Y611250D01*
X387750D02*
X387750Y600250D01*
X408750D01*
X387750Y611250D02*
X408750D01*
X429750Y585250D02*
Y595250D01*
X408750Y585250D02*
Y595250D01*
Y585250D02*
X429750D01*
X408750Y595250D02*
X429750D01*
X408750Y574250D02*
X408750Y585250D01*
X429750Y574250D02*
Y585250D01*
X408750D02*
X429750D01*
X408750Y574250D02*
X429750Y574250D01*
X398855D02*
X408855D01*
X398855Y595250D02*
X408855D01*
X398855Y574250D02*
Y595250D01*
X408855Y574250D02*
Y595250D01*
X437591Y562841D02*
X437591Y573841D01*
X416591Y562841D02*
Y573841D01*
Y562841D02*
X437591D01*
X416591Y573841D02*
X437591Y573841D01*
X438250Y560750D02*
X449250Y560750D01*
X438250Y581750D02*
X449250Y581750D01*
X438250Y581750D02*
X438250Y560750D01*
X449250Y560750D02*
Y581750D01*
X459250D01*
X449250Y560750D02*
X459250D01*
Y581750D01*
X449250Y560750D02*
Y581750D01*
X453750Y643250D02*
Y653250D01*
X474750Y643250D02*
Y653250D01*
X453750D02*
X474750D01*
X453750Y643250D02*
X474750D01*
X338750Y572000D02*
X360750Y572000D01*
X338750Y526000D02*
X360750D01*
Y572000D01*
X338750Y526000D02*
X338750Y572000D01*
X359500Y572000D02*
X381500D01*
X359500Y526000D02*
X381500D01*
X381500Y572000D01*
X359500Y526000D02*
Y572000D01*
X482886Y352250D02*
X482886Y245250D01*
X358886D02*
X358886Y352250D01*
X358886Y245250D02*
X482886D01*
X358886Y352250D02*
X482886D01*
X415886Y298250D02*
X425886D01*
X420886Y293250D02*
Y303250D01*
X337500Y245000D02*
X359500Y245000D01*
X337500Y291000D02*
X359500D01*
X337500D02*
X337500Y245000D01*
X359500Y291000D02*
X359500Y245000D01*
X316313Y363187D02*
X338312Y363187D01*
X316313Y317188D02*
X338312D01*
X338312Y363187D02*
X338312Y317188D01*
X316313D02*
Y363187D01*
X337500Y363250D02*
X359500D01*
X337500Y317250D02*
X359500D01*
Y363250D01*
X337500Y317250D02*
Y363250D01*
X417000Y352000D02*
X428000Y352000D01*
X417000Y373000D02*
X428000D01*
X417000D02*
X417000Y352000D01*
X428000Y352000D02*
Y373000D01*
X428000D02*
X438000D01*
X428000Y352000D02*
X438000D01*
Y373000D01*
X428000Y352000D02*
Y373000D01*
X395409Y353978D02*
X395409Y364977D01*
X416409Y353978D02*
Y364977D01*
X395409D02*
X416409D01*
X395409Y353978D02*
X416409D01*
X387500Y365500D02*
Y376500D01*
X408500Y365500D02*
X408500Y376500D01*
X387500D02*
X408500D01*
X387500Y365500D02*
X408500D01*
X408500Y376500D02*
Y386500D01*
X387500Y376500D02*
Y386500D01*
Y376500D02*
X408500D01*
X387500Y386500D02*
X408500D01*
X377605Y365500D02*
X387605D01*
X377605Y386500D02*
X387605D01*
X377605Y365500D02*
Y386500D01*
X387605Y365500D02*
Y386500D01*
X408500Y396500D02*
Y407500D01*
X387500Y396500D02*
Y407500D01*
Y396500D02*
X408500D01*
X387500Y407500D02*
X408500D01*
X387500Y391500D02*
Y402500D01*
X366500Y391500D02*
Y402500D01*
Y391500D02*
X387500D01*
X366500Y402500D02*
X387500D01*
X408500Y386750D02*
Y396750D01*
X387500Y386750D02*
Y396750D01*
Y386750D02*
X408500D01*
X387500Y396750D02*
X408500D01*
X432500Y444500D02*
X432500Y434500D01*
X453500D02*
Y444500D01*
X432500Y444500D02*
X453500Y444500D01*
X432500Y434500D02*
X453500D01*
X431340Y35630D02*
X535840D01*
X431340Y7380D02*
Y35630D01*
Y7380D02*
X535840D01*
Y35630D01*
X286840Y35630D02*
X391340D01*
X286840Y7380D02*
Y35630D01*
Y7380D02*
X391340Y7380D01*
Y35630D01*
X1631000Y1008750D02*
Y1096750D01*
X1545000Y1008750D02*
X1631000D01*
X1545000D02*
Y1096750D01*
X1631000D01*
X1545000Y1010250D02*
Y1095250D01*
X1588000Y1047750D02*
Y1052750D01*
X1583000D02*
X1588000D01*
Y1057750D01*
Y1052750D02*
X1593000D01*
X1251000Y1008750D02*
Y1096750D01*
X1165000Y1008750D02*
X1251000D01*
X1165000D02*
Y1096750D01*
X1251000D01*
X1165000Y1010250D02*
Y1095250D01*
X1208000Y1047750D02*
Y1052750D01*
X1203000D02*
X1208000D01*
Y1057750D01*
Y1052750D02*
X1213000D01*
X1441000Y1008750D02*
Y1096750D01*
X1355000Y1008750D02*
X1441000Y1008750D01*
X1355000Y1008750D02*
X1355000Y1096750D01*
X1441000Y1096750D01*
X1355000Y1010250D02*
X1355000Y1095250D01*
X1398000Y1047750D02*
Y1052750D01*
X1393000D02*
X1398000D01*
Y1057750D01*
Y1052750D02*
X1403000D01*
X1061000Y1008750D02*
Y1096750D01*
X975000Y1008750D02*
X1061000D01*
X975000D02*
Y1096750D01*
X1061000D01*
X975000Y1010250D02*
Y1095250D01*
X1018000Y1047750D02*
Y1052750D01*
X1013000D02*
X1018000D01*
Y1057750D01*
Y1052750D02*
X1023000D01*
X1400000Y223750D02*
X1410000D01*
X1405000Y218750D02*
Y228750D01*
X1290000Y193750D02*
Y253750D01*
Y193750D02*
X1520000D01*
Y253750D01*
X1290000D02*
X1520000D01*
X383665Y1092333D02*
X382749Y1093249D01*
X380916D01*
X380000Y1092333D01*
Y1088667D01*
X380916Y1087751D01*
X382749D01*
X383665Y1088667D01*
X386414Y1087751D02*
X388247D01*
X389164Y1088667D01*
Y1090500D01*
X388247Y1091416D01*
X386414D01*
X385498Y1090500D01*
Y1088667D01*
X386414Y1087751D01*
X390996D02*
Y1091416D01*
X393745D01*
X394662Y1090500D01*
Y1087751D01*
X396494D02*
Y1091416D01*
X399244D01*
X400160Y1090500D01*
Y1087751D01*
X404742D02*
X402909D01*
X401993Y1088667D01*
Y1090500D01*
X402909Y1091416D01*
X404742D01*
X405658Y1090500D01*
Y1089584D01*
X401993D01*
X411156Y1091416D02*
X408407D01*
X407491Y1090500D01*
Y1088667D01*
X408407Y1087751D01*
X411156D01*
X413905Y1092333D02*
Y1091416D01*
X412989D01*
X414822D01*
X413905D01*
Y1088667D01*
X414822Y1087751D01*
X418487D02*
X420320D01*
X421236Y1088667D01*
Y1090500D01*
X420320Y1091416D01*
X418487D01*
X417571Y1090500D01*
Y1088667D01*
X418487Y1087751D01*
X423069Y1091416D02*
Y1087751D01*
Y1089584D01*
X423985Y1090500D01*
X424902Y1091416D01*
X425818D01*
X434982Y1087751D02*
X436815D01*
X437731Y1088667D01*
Y1090500D01*
X436815Y1091416D01*
X434982D01*
X434066Y1090500D01*
Y1088667D01*
X434982Y1087751D01*
X439564Y1091416D02*
Y1088667D01*
X440480Y1087751D01*
X443229D01*
Y1091416D01*
X445978Y1092333D02*
Y1091416D01*
X445062D01*
X446895D01*
X445978D01*
Y1088667D01*
X446895Y1087751D01*
X1321500Y330250D02*
X1323333D01*
X1322416D01*
Y335748D01*
X1321500Y334832D01*
X1329747Y335748D02*
X1326082D01*
Y332999D01*
X1327914Y333915D01*
X1328831D01*
X1329747Y332999D01*
Y331166D01*
X1328831Y330250D01*
X1326998D01*
X1326082Y331166D01*
X114915Y294165D02*
X113083D01*
X113999D01*
Y289583D01*
X113083Y288666D01*
X112166D01*
X111250Y289583D01*
X120414Y288666D02*
X116748D01*
X120414Y292332D01*
Y293248D01*
X119497Y294165D01*
X117665D01*
X116748Y293248D01*
X122246Y289583D02*
X123163Y288666D01*
X124995D01*
X125912Y289583D01*
Y293248D01*
X124995Y294165D01*
X123163D01*
X122246Y293248D01*
Y292332D01*
X123163Y291415D01*
X125912D01*
X233665Y1092333D02*
X232749Y1093249D01*
X230916D01*
X230000Y1092333D01*
Y1088667D01*
X230916Y1087751D01*
X232749D01*
X233665Y1088667D01*
X236414Y1087751D02*
X238247D01*
X239163Y1088667D01*
Y1090500D01*
X238247Y1091416D01*
X236414D01*
X235498Y1090500D01*
Y1088667D01*
X236414Y1087751D01*
X240996D02*
Y1091416D01*
X243745D01*
X244662Y1090500D01*
Y1087751D01*
X246494D02*
Y1091416D01*
X249244D01*
X250160Y1090500D01*
Y1087751D01*
X254742D02*
X252909D01*
X251993Y1088667D01*
Y1090500D01*
X252909Y1091416D01*
X254742D01*
X255658Y1090500D01*
Y1089584D01*
X251993D01*
X261156Y1091416D02*
X258407D01*
X257491Y1090500D01*
Y1088667D01*
X258407Y1087751D01*
X261156D01*
X263905Y1092333D02*
Y1091416D01*
X262989D01*
X264822D01*
X263905D01*
Y1088667D01*
X264822Y1087751D01*
X268487D02*
X270320D01*
X271236Y1088667D01*
Y1090500D01*
X270320Y1091416D01*
X268487D01*
X267571Y1090500D01*
Y1088667D01*
X268487Y1087751D01*
X273069Y1091416D02*
Y1087751D01*
Y1089584D01*
X273986Y1090500D01*
X274902Y1091416D01*
X275818D01*
X284982Y1087751D02*
X286815D01*
X287731Y1088667D01*
Y1090500D01*
X286815Y1091416D01*
X284982D01*
X284065Y1090500D01*
Y1088667D01*
X284982Y1087751D01*
X289564Y1091416D02*
Y1088667D01*
X290480Y1087751D01*
X293229D01*
Y1091416D01*
X295978Y1092333D02*
Y1091416D01*
X295062D01*
X296895D01*
X295978D01*
Y1088667D01*
X296895Y1087751D01*
X1481500Y295250D02*
X1483333D01*
X1482416D01*
Y300748D01*
X1481500Y299832D01*
X1559666Y1092333D02*
X1558749Y1093249D01*
X1556917D01*
X1556000Y1092333D01*
Y1088667D01*
X1556917Y1087751D01*
X1558749D01*
X1559666Y1088667D01*
X1562415Y1087751D02*
X1564247D01*
X1565164Y1088667D01*
Y1090500D01*
X1564247Y1091416D01*
X1562415D01*
X1561498Y1090500D01*
Y1088667D01*
X1562415Y1087751D01*
X1566996D02*
Y1091416D01*
X1569746D01*
X1570662Y1090500D01*
Y1087751D01*
X1572495D02*
Y1091416D01*
X1575244D01*
X1576160Y1090500D01*
Y1087751D01*
X1580742D02*
X1578909D01*
X1577993Y1088667D01*
Y1090500D01*
X1578909Y1091416D01*
X1580742D01*
X1581658Y1090500D01*
Y1089584D01*
X1577993D01*
X1587157Y1091416D02*
X1584408D01*
X1583491Y1090500D01*
Y1088667D01*
X1584408Y1087751D01*
X1587157D01*
X1589906Y1092333D02*
Y1091416D01*
X1588989D01*
X1590822D01*
X1589906D01*
Y1088667D01*
X1590822Y1087751D01*
X1594488D02*
X1596320D01*
X1597237Y1088667D01*
Y1090500D01*
X1596320Y1091416D01*
X1594488D01*
X1593571Y1090500D01*
Y1088667D01*
X1594488Y1087751D01*
X1599069Y1091416D02*
Y1087751D01*
Y1089584D01*
X1599986Y1090500D01*
X1600902Y1091416D01*
X1601819D01*
X1610982Y1087751D02*
X1612815D01*
X1613731Y1088667D01*
Y1090500D01*
X1612815Y1091416D01*
X1610982D01*
X1610066Y1090500D01*
Y1088667D01*
X1610982Y1087751D01*
X1615564Y1091416D02*
Y1088667D01*
X1616480Y1087751D01*
X1619229D01*
Y1091416D01*
X1621979Y1092333D02*
Y1091416D01*
X1621062D01*
X1622895D01*
X1621979D01*
Y1088667D01*
X1622895Y1087751D01*
X700000Y850165D02*
Y844666D01*
X703665D01*
X709164Y850165D02*
X705498D01*
Y847415D01*
X707331Y848332D01*
X708247D01*
X709164Y847415D01*
Y845583D01*
X708247Y844666D01*
X706415D01*
X705498Y845583D01*
X1333208Y539698D02*
Y545196D01*
X1335957D01*
X1336874Y544280D01*
Y542447D01*
X1335957Y541530D01*
X1333208D01*
X1341456Y545196D02*
X1339623D01*
X1338706Y544280D01*
Y540614D01*
X1339623Y539698D01*
X1341456D01*
X1342372Y540614D01*
Y544280D01*
X1341456Y545196D01*
X1347870Y544280D02*
X1346954Y545196D01*
X1345121D01*
X1344205Y544280D01*
Y543363D01*
X1345121Y542447D01*
X1346954D01*
X1347870Y541530D01*
Y540614D01*
X1346954Y539698D01*
X1345121D01*
X1344205Y540614D01*
X1349703Y545196D02*
X1351535D01*
X1350619D01*
Y539698D01*
X1349703D01*
X1351535D01*
X1354285Y545196D02*
X1357950D01*
X1356117D01*
Y539698D01*
X1359783Y545196D02*
X1361616D01*
X1360699D01*
Y539698D01*
X1359783D01*
X1361616D01*
X1364365Y545196D02*
Y541530D01*
X1366197Y539698D01*
X1368030Y541530D01*
Y545196D01*
X1373528D02*
X1369863D01*
Y539698D01*
X1373528D01*
X1369863Y542447D02*
X1371696D01*
X1332750Y534998D02*
X1336415D01*
X1334583D01*
Y529500D01*
X1341914Y534998D02*
X1338248D01*
Y529500D01*
X1341914D01*
X1338248Y532249D02*
X1340081D01*
X1343746Y529500D02*
Y534998D01*
X1346496D01*
X1347412Y534082D01*
Y532249D01*
X1346496Y531333D01*
X1343746D01*
X1345579D02*
X1347412Y529500D01*
X1349245D02*
Y534998D01*
X1351077Y533166D01*
X1352910Y534998D01*
Y529500D01*
X1354743Y534998D02*
X1356575D01*
X1355659D01*
Y529500D01*
X1354743D01*
X1356575D01*
X1359325D02*
Y534998D01*
X1362990Y529500D01*
Y534998D01*
X1364823Y529500D02*
Y533166D01*
X1366656Y534998D01*
X1368488Y533166D01*
Y529500D01*
Y532249D01*
X1364823D01*
X1370321Y534998D02*
Y529500D01*
X1373987D01*
X1321500Y295250D02*
X1323333D01*
X1322416D01*
Y300748D01*
X1321500Y299832D01*
X1329747Y300748D02*
X1326082D01*
Y297999D01*
X1327914Y298916D01*
X1328831D01*
X1329747Y297999D01*
Y296166D01*
X1328831Y295250D01*
X1326998D01*
X1326082Y296166D01*
X1332250Y710698D02*
Y716196D01*
X1335915Y710698D01*
Y716196D01*
X1341414D02*
X1337748D01*
Y710698D01*
X1341414D01*
X1337748Y713447D02*
X1339581D01*
X1346912Y715280D02*
X1345995Y716196D01*
X1344163D01*
X1343246Y715280D01*
Y711614D01*
X1344163Y710698D01*
X1345995D01*
X1346912Y711614D01*
Y713447D01*
X1345079D01*
X1348745Y710698D02*
Y714363D01*
X1350577Y716196D01*
X1352410Y714363D01*
Y710698D01*
Y713447D01*
X1348745D01*
X1354243Y716196D02*
X1357908D01*
X1356075D01*
Y710698D01*
X1359741Y716196D02*
X1361574D01*
X1360657D01*
Y710698D01*
X1359741D01*
X1361574D01*
X1364323Y716196D02*
Y712531D01*
X1366156Y710698D01*
X1367988Y712531D01*
Y716196D01*
X1373487D02*
X1369821D01*
Y710698D01*
X1373487D01*
X1369821Y713447D02*
X1371654D01*
X1332250Y705998D02*
X1335915D01*
X1334083D01*
Y700500D01*
X1341414Y705998D02*
X1337748D01*
Y700500D01*
X1341414D01*
X1337748Y703249D02*
X1339581D01*
X1343246Y700500D02*
Y705998D01*
X1345995D01*
X1346912Y705082D01*
Y703249D01*
X1345995Y702333D01*
X1343246D01*
X1345079D02*
X1346912Y700500D01*
X1348745D02*
Y705998D01*
X1350577Y704165D01*
X1352410Y705998D01*
Y700500D01*
X1354243Y705998D02*
X1356075D01*
X1355159D01*
Y700500D01*
X1354243D01*
X1356075D01*
X1358825D02*
Y705998D01*
X1362490Y700500D01*
Y705998D01*
X1364323Y700500D02*
Y704165D01*
X1366156Y705998D01*
X1367988Y704165D01*
Y700500D01*
Y703249D01*
X1364323D01*
X1369821Y705998D02*
Y700500D01*
X1373487D01*
X75665Y1092083D02*
X74749Y1092999D01*
X72916D01*
X72000Y1092083D01*
Y1088417D01*
X72916Y1087501D01*
X74749D01*
X75665Y1088417D01*
X78415Y1087501D02*
X80247D01*
X81164Y1088417D01*
Y1090250D01*
X80247Y1091166D01*
X78415D01*
X77498Y1090250D01*
Y1088417D01*
X78415Y1087501D01*
X82996D02*
Y1091166D01*
X85745D01*
X86662Y1090250D01*
Y1087501D01*
X88495D02*
Y1091166D01*
X91244D01*
X92160Y1090250D01*
Y1087501D01*
X96742D02*
X94909D01*
X93993Y1088417D01*
Y1090250D01*
X94909Y1091166D01*
X96742D01*
X97658Y1090250D01*
Y1089334D01*
X93993D01*
X103156Y1091166D02*
X100407D01*
X99491Y1090250D01*
Y1088417D01*
X100407Y1087501D01*
X103156D01*
X105906Y1092083D02*
Y1091166D01*
X104989D01*
X106822D01*
X105906D01*
Y1088417D01*
X106822Y1087501D01*
X110487D02*
X112320D01*
X113237Y1088417D01*
Y1090250D01*
X112320Y1091166D01*
X110487D01*
X109571Y1090250D01*
Y1088417D01*
X110487Y1087501D01*
X115069Y1091166D02*
Y1087501D01*
Y1089334D01*
X115986Y1090250D01*
X116902Y1091166D01*
X117818D01*
X126982Y1087501D02*
X128815D01*
X129731Y1088417D01*
Y1090250D01*
X128815Y1091166D01*
X126982D01*
X126066Y1090250D01*
Y1088417D01*
X126982Y1087501D01*
X131564Y1091166D02*
Y1088417D01*
X132480Y1087501D01*
X135229D01*
Y1091166D01*
X137978Y1092083D02*
Y1091166D01*
X137062D01*
X138895D01*
X137978D01*
Y1088417D01*
X138895Y1087501D01*
X28417Y287500D02*
X22919D01*
Y290249D01*
X23835Y291166D01*
X25668D01*
X26585Y290249D01*
Y287500D01*
X23835Y296664D02*
X22919Y295747D01*
Y293915D01*
X23835Y292998D01*
X27501D01*
X28417Y293915D01*
Y295747D01*
X27501Y296664D01*
X22919Y298496D02*
X28417D01*
Y301245D01*
X27501Y302162D01*
X26585D01*
X25668Y301245D01*
Y298496D01*
Y301245D01*
X24752Y302162D01*
X23835D01*
X22919Y301245D01*
Y298496D01*
X28417Y312242D02*
Y310409D01*
X27501Y309493D01*
X25668D01*
X24752Y310409D01*
Y312242D01*
X25668Y313158D01*
X26585D01*
Y309493D01*
X22919Y318657D02*
X28417D01*
Y315907D01*
X27501Y314991D01*
X25668D01*
X24752Y315907D01*
Y318657D01*
X30250Y322322D02*
Y323238D01*
X29334Y324155D01*
X24752D01*
Y321406D01*
X25668Y320489D01*
X27501D01*
X28417Y321406D01*
Y324155D01*
Y328737D02*
Y326904D01*
X27501Y325988D01*
X25668D01*
X24752Y326904D01*
Y328737D01*
X25668Y329653D01*
X26585D01*
Y325988D01*
X1321500Y205250D02*
X1323333D01*
X1322416D01*
Y210748D01*
X1321500Y209832D01*
X1329747Y210748D02*
X1326082D01*
Y207999D01*
X1327914Y208915D01*
X1328831D01*
X1329747Y207999D01*
Y206166D01*
X1328831Y205250D01*
X1326998D01*
X1326082Y206166D01*
X1179666Y1092333D02*
X1178749Y1093249D01*
X1176917D01*
X1176000Y1092333D01*
Y1088667D01*
X1176917Y1087751D01*
X1178749D01*
X1179666Y1088667D01*
X1182415Y1087751D02*
X1184247D01*
X1185164Y1088667D01*
Y1090500D01*
X1184247Y1091416D01*
X1182415D01*
X1181498Y1090500D01*
Y1088667D01*
X1182415Y1087751D01*
X1186997D02*
Y1091416D01*
X1189746D01*
X1190662Y1090500D01*
Y1087751D01*
X1192495D02*
Y1091416D01*
X1195244D01*
X1196160Y1090500D01*
Y1087751D01*
X1200742D02*
X1198909D01*
X1197993Y1088667D01*
Y1090500D01*
X1198909Y1091416D01*
X1200742D01*
X1201658Y1090500D01*
Y1089584D01*
X1197993D01*
X1207157Y1091416D02*
X1204408D01*
X1203491Y1090500D01*
Y1088667D01*
X1204408Y1087751D01*
X1207157D01*
X1209906Y1092333D02*
Y1091416D01*
X1208989D01*
X1210822D01*
X1209906D01*
Y1088667D01*
X1210822Y1087751D01*
X1214488D02*
X1216320D01*
X1217237Y1088667D01*
Y1090500D01*
X1216320Y1091416D01*
X1214488D01*
X1213571Y1090500D01*
Y1088667D01*
X1214488Y1087751D01*
X1219070Y1091416D02*
Y1087751D01*
Y1089584D01*
X1219986Y1090500D01*
X1220902Y1091416D01*
X1221819D01*
X1230982Y1087751D02*
X1232815D01*
X1233731Y1088667D01*
Y1090500D01*
X1232815Y1091416D01*
X1230982D01*
X1230066Y1090500D01*
Y1088667D01*
X1230982Y1087751D01*
X1235564Y1091416D02*
Y1088667D01*
X1236480Y1087751D01*
X1239230D01*
Y1091416D01*
X1241979Y1092333D02*
Y1091416D01*
X1241062D01*
X1242895D01*
X1241979D01*
Y1088667D01*
X1242895Y1087751D01*
X119002Y334000D02*
X124500D01*
Y336749D01*
X123584Y337665D01*
X122667D01*
X121751Y336749D01*
Y334000D01*
Y336749D01*
X120835Y337665D01*
X119918D01*
X119002Y336749D01*
Y334000D01*
X124500Y339498D02*
Y341331D01*
Y340415D01*
X119002D01*
X119918Y339498D01*
X1369666Y1092333D02*
X1368749Y1093249D01*
X1366917D01*
X1366000Y1092333D01*
Y1088667D01*
X1366917Y1087751D01*
X1368749D01*
X1369666Y1088667D01*
X1372415Y1087751D02*
X1374247D01*
X1375164Y1088667D01*
Y1090500D01*
X1374247Y1091416D01*
X1372415D01*
X1371498Y1090500D01*
Y1088667D01*
X1372415Y1087751D01*
X1376996D02*
Y1091416D01*
X1379746D01*
X1380662Y1090500D01*
Y1087751D01*
X1382495D02*
Y1091416D01*
X1385244D01*
X1386160Y1090500D01*
Y1087751D01*
X1390742D02*
X1388909D01*
X1387993Y1088667D01*
Y1090500D01*
X1388909Y1091416D01*
X1390742D01*
X1391658Y1090500D01*
Y1089584D01*
X1387993D01*
X1397157Y1091416D02*
X1394408D01*
X1393491Y1090500D01*
Y1088667D01*
X1394408Y1087751D01*
X1397157D01*
X1399906Y1092333D02*
Y1091416D01*
X1398989D01*
X1400822D01*
X1399906D01*
Y1088667D01*
X1400822Y1087751D01*
X1404488D02*
X1406320D01*
X1407237Y1088667D01*
Y1090500D01*
X1406320Y1091416D01*
X1404488D01*
X1403571Y1090500D01*
Y1088667D01*
X1404488Y1087751D01*
X1409069Y1091416D02*
Y1087751D01*
Y1089584D01*
X1409986Y1090500D01*
X1410902Y1091416D01*
X1411819D01*
X1420982Y1087751D02*
X1422815D01*
X1423731Y1088667D01*
Y1090500D01*
X1422815Y1091416D01*
X1420982D01*
X1420066Y1090500D01*
Y1088667D01*
X1420982Y1087751D01*
X1425564Y1091416D02*
Y1088667D01*
X1426481Y1087751D01*
X1429230D01*
Y1091416D01*
X1431979Y1092333D02*
Y1091416D01*
X1431062D01*
X1432895D01*
X1431979D01*
Y1088667D01*
X1432895Y1087751D01*
X143085Y334000D02*
Y337665D01*
Y335833D01*
X148584D01*
Y339498D02*
Y341331D01*
Y340415D01*
X143085D01*
X144002Y339498D01*
X1165915Y832998D02*
X1164999Y833915D01*
X1163166D01*
X1162250Y832998D01*
Y829333D01*
X1163166Y828416D01*
X1164999D01*
X1165915Y829333D01*
X1167748Y828416D02*
X1169581D01*
X1168665D01*
Y833915D01*
X1167748Y832998D01*
X1175995Y828416D02*
X1172330D01*
X1175995Y832082D01*
Y832998D01*
X1175079Y833915D01*
X1173246D01*
X1172330Y832998D01*
X1177828Y833915D02*
X1181494D01*
Y832998D01*
X1177828Y829333D01*
Y828416D01*
X1086415Y950998D02*
X1085499Y951915D01*
X1083666D01*
X1082750Y950998D01*
Y947333D01*
X1083666Y946416D01*
X1085499D01*
X1086415Y947333D01*
X1088248Y946416D02*
X1090081D01*
X1089165D01*
Y951915D01*
X1088248Y950998D01*
X1095579Y946416D02*
Y951915D01*
X1092830Y949165D01*
X1096496D01*
X1098328Y951915D02*
X1101994D01*
Y950998D01*
X1098328Y947333D01*
Y946416D01*
X1403415Y239415D02*
X1401583D01*
X1402499D01*
Y234833D01*
X1401583Y233916D01*
X1400666D01*
X1399750Y234833D01*
X1405248Y233916D02*
X1407081D01*
X1406165D01*
Y239415D01*
X1405248Y238498D01*
X1409830Y239415D02*
X1413495D01*
Y238498D01*
X1409830Y234833D01*
Y233916D01*
X144002Y264000D02*
Y267665D01*
Y265833D01*
X149500D01*
Y272247D02*
X144002D01*
X146751Y269498D01*
Y273164D01*
X1481500Y240250D02*
X1483333D01*
X1482416D01*
Y245748D01*
X1481500Y244832D01*
X1466665Y949748D02*
X1465749Y950665D01*
X1463916D01*
X1463000Y949748D01*
Y946083D01*
X1463916Y945166D01*
X1465749D01*
X1466665Y946083D01*
X1468498Y945166D02*
X1470331D01*
X1469415D01*
Y950665D01*
X1468498Y949748D01*
X1475829Y945166D02*
Y950665D01*
X1473080Y947915D01*
X1476745D01*
X1482244Y950665D02*
X1480411Y949748D01*
X1478578Y947915D01*
Y946083D01*
X1479495Y945166D01*
X1481327D01*
X1482244Y946083D01*
Y946999D01*
X1481327Y947915D01*
X1478578D01*
X1403415Y329415D02*
X1401583D01*
X1402499D01*
Y324833D01*
X1401583Y323916D01*
X1400666D01*
X1399750Y324833D01*
X1405248Y323916D02*
X1407081D01*
X1406165D01*
Y329415D01*
X1405248Y328498D01*
X1409830D02*
X1410746Y329415D01*
X1412579D01*
X1413495Y328498D01*
Y327582D01*
X1412579Y326665D01*
X1413495Y325749D01*
Y324833D01*
X1412579Y323916D01*
X1410746D01*
X1409830Y324833D01*
Y325749D01*
X1410746Y326665D01*
X1409830Y327582D01*
Y328498D01*
X1410746Y326665D02*
X1412579D01*
X1481500Y205250D02*
X1483333D01*
X1482416D01*
Y210748D01*
X1481500Y209832D01*
X1321500Y240250D02*
X1323333D01*
X1322416D01*
Y245748D01*
X1321500Y244832D01*
X1329747Y245748D02*
X1326082D01*
Y242999D01*
X1327914Y243915D01*
X1328831D01*
X1329747Y242999D01*
Y241166D01*
X1328831Y240250D01*
X1326998D01*
X1326082Y241166D01*
X989666Y1092333D02*
X988749Y1093249D01*
X986917D01*
X986000Y1092333D01*
Y1088667D01*
X986917Y1087751D01*
X988749D01*
X989666Y1088667D01*
X992415Y1087751D02*
X994248D01*
X995164Y1088667D01*
Y1090500D01*
X994248Y1091416D01*
X992415D01*
X991498Y1090500D01*
Y1088667D01*
X992415Y1087751D01*
X996997D02*
Y1091416D01*
X999746D01*
X1000662Y1090500D01*
Y1087751D01*
X1002495D02*
Y1091416D01*
X1005244D01*
X1006160Y1090500D01*
Y1087751D01*
X1010742D02*
X1008909D01*
X1007993Y1088667D01*
Y1090500D01*
X1008909Y1091416D01*
X1010742D01*
X1011658Y1090500D01*
Y1089584D01*
X1007993D01*
X1017157Y1091416D02*
X1014408D01*
X1013491Y1090500D01*
Y1088667D01*
X1014408Y1087751D01*
X1017157D01*
X1019906Y1092333D02*
Y1091416D01*
X1018989D01*
X1020822D01*
X1019906D01*
Y1088667D01*
X1020822Y1087751D01*
X1024488D02*
X1026320D01*
X1027237Y1088667D01*
Y1090500D01*
X1026320Y1091416D01*
X1024488D01*
X1023571Y1090500D01*
Y1088667D01*
X1024488Y1087751D01*
X1029070Y1091416D02*
Y1087751D01*
Y1089584D01*
X1029986Y1090500D01*
X1030902Y1091416D01*
X1031819D01*
X1040982Y1087751D02*
X1042815D01*
X1043731Y1088667D01*
Y1090500D01*
X1042815Y1091416D01*
X1040982D01*
X1040066Y1090500D01*
Y1088667D01*
X1040982Y1087751D01*
X1045564Y1091416D02*
Y1088667D01*
X1046480Y1087751D01*
X1049230D01*
Y1091416D01*
X1051979Y1092333D02*
Y1091416D01*
X1051062D01*
X1052895D01*
X1051979D01*
Y1088667D01*
X1052895Y1087751D01*
X1544915Y832998D02*
X1543999Y833915D01*
X1542166D01*
X1541250Y832998D01*
Y829333D01*
X1542166Y828416D01*
X1543999D01*
X1544915Y829333D01*
X1546748Y828416D02*
X1548581D01*
X1547665D01*
Y833915D01*
X1546748Y832998D01*
X1554996Y828416D02*
X1551330D01*
X1554996Y832082D01*
Y832998D01*
X1554079Y833915D01*
X1552246D01*
X1551330Y832998D01*
X1560494Y833915D02*
X1558661Y832998D01*
X1556828Y831165D01*
Y829333D01*
X1557745Y828416D01*
X1559577D01*
X1560494Y829333D01*
Y830249D01*
X1559577Y831165D01*
X1556828D01*
X119002Y264000D02*
X124500D01*
Y266749D01*
X123584Y267665D01*
X122667D01*
X121751Y266749D01*
Y264000D01*
Y266749D01*
X120835Y267665D01*
X119918D01*
X119002Y266749D01*
Y264000D01*
X124500Y272247D02*
X119002D01*
X121751Y269498D01*
Y273164D01*
X1481500Y330250D02*
X1483333D01*
X1482416D01*
Y335748D01*
X1481500Y334832D01*
X1343000Y607498D02*
Y602000D01*
X1345749D01*
X1346665Y602916D01*
Y603833D01*
X1345749Y604749D01*
X1343000D01*
X1345749D01*
X1346665Y605666D01*
Y606582D01*
X1345749Y607498D01*
X1343000D01*
X1348498Y602000D02*
Y605666D01*
X1350331Y607498D01*
X1352164Y605666D01*
Y602000D01*
Y604749D01*
X1348498D01*
X1353996Y607498D02*
X1357662D01*
X1355829D01*
Y602000D01*
X1359495Y607498D02*
X1363160D01*
X1361327D01*
Y602000D01*
X1364993D02*
X1366826D01*
X1365909D01*
Y607498D01*
X1364993Y606582D01*
X849666Y1015248D02*
X847833D01*
X848749D01*
Y1010666D01*
X847833Y1009750D01*
X846916D01*
X846000Y1010666D01*
X851498D02*
X852415Y1009750D01*
X854247D01*
X855164Y1010666D01*
Y1014332D01*
X854247Y1015248D01*
X852415D01*
X851498Y1014332D01*
Y1013416D01*
X852415Y1012499D01*
X855164D01*
X901000Y929250D02*
X902833D01*
X901916D01*
Y934748D01*
X901000Y933832D01*
X800000Y930166D02*
X800916Y929250D01*
X802749D01*
X803665Y930166D01*
Y933832D01*
X802749Y934748D01*
X800916D01*
X800000Y933832D01*
Y932915D01*
X800916Y931999D01*
X803665D01*
X903000Y980250D02*
X904833D01*
X903916D01*
Y985748D01*
X903000Y984832D01*
X907582Y980250D02*
X909415D01*
X908498D01*
Y985748D01*
X907582Y984832D01*
X789000Y980250D02*
X790833D01*
X789916D01*
Y985748D01*
X789000Y984832D01*
X796331Y980250D02*
Y985748D01*
X793582Y982999D01*
X797247D01*
X894416Y474498D02*
X892583D01*
X893499D01*
Y469916D01*
X892583Y469000D01*
X891666D01*
X890750Y469916D01*
X899914Y469000D02*
X896248D01*
X899914Y472665D01*
Y473582D01*
X898997Y474498D01*
X897165D01*
X896248Y473582D01*
X885084Y360500D02*
X886000Y361416D01*
Y363249D01*
X885084Y364165D01*
X881418D01*
X880502Y363249D01*
Y361416D01*
X881418Y360500D01*
X882335D01*
X883251Y361416D01*
Y364165D01*
X885084Y365998D02*
X886000Y366915D01*
Y368747D01*
X885084Y369664D01*
X881418D01*
X880502Y368747D01*
Y366915D01*
X881418Y365998D01*
X882335D01*
X883251Y366915D01*
Y369664D01*
X913000Y361500D02*
Y363333D01*
Y362416D01*
X907502D01*
X908418Y361500D01*
Y366082D02*
X907502Y366998D01*
Y368831D01*
X908418Y369747D01*
X912084D01*
X913000Y368831D01*
Y366998D01*
X912084Y366082D01*
X908418D01*
Y371580D02*
X907502Y372496D01*
Y374329D01*
X908418Y375246D01*
X912084D01*
X913000Y374329D01*
Y372496D01*
X912084Y371580D01*
X908418D01*
X913000Y556165D02*
Y552500D01*
X909334Y556165D01*
X908418D01*
X907502Y555249D01*
Y553416D01*
X908418Y552500D01*
X886000Y551500D02*
Y553333D01*
Y552416D01*
X880502D01*
X881418Y551500D01*
X66666Y787748D02*
X64833D01*
X65749D01*
Y783166D01*
X64833Y782250D01*
X63916D01*
X63000Y783166D01*
X68498Y787748D02*
X72164D01*
Y786832D01*
X68498Y783166D01*
Y782250D01*
X21930Y770000D02*
Y768167D01*
Y769084D01*
X27428D01*
X26512Y770000D01*
Y847000D02*
X27428Y846084D01*
Y844251D01*
X26512Y843335D01*
X25595D01*
X24679Y844251D01*
X23763Y843335D01*
X22846D01*
X21930Y844251D01*
Y846084D01*
X22846Y847000D01*
X23763D01*
X24679Y846084D01*
X25595Y847000D01*
X26512D01*
X24679Y846084D02*
Y844251D01*
X27502Y917000D02*
X33000D01*
Y919749D01*
X32084Y920666D01*
X31167D01*
X30251Y919749D01*
Y917000D01*
Y919749D01*
X29334Y920666D01*
X28418D01*
X27502Y919749D01*
Y917000D01*
X33000Y923415D02*
Y925247D01*
X32084Y926164D01*
X30251D01*
X29334Y925247D01*
Y923415D01*
X30251Y922498D01*
X32084D01*
X33000Y923415D01*
X29334Y928913D02*
Y930745D01*
X30251Y931662D01*
X33000D01*
Y928913D01*
X32084Y927996D01*
X31167Y928913D01*
Y931662D01*
X29334Y933495D02*
X33000D01*
X31167D01*
X30251Y934411D01*
X29334Y935327D01*
Y936244D01*
X27502Y942658D02*
X33000D01*
Y939909D01*
X32084Y938993D01*
X30251D01*
X29334Y939909D01*
Y942658D01*
X33000Y952738D02*
Y950906D01*
X32084Y949989D01*
X30251D01*
X29334Y950906D01*
Y952738D01*
X30251Y953655D01*
X31167D01*
Y949989D01*
X27502Y959153D02*
X33000D01*
Y956404D01*
X32084Y955488D01*
X30251D01*
X29334Y956404D01*
Y959153D01*
X34833Y962818D02*
Y963735D01*
X33916Y964651D01*
X29334D01*
Y961902D01*
X30251Y960986D01*
X32084D01*
X33000Y961902D01*
Y964651D01*
Y969233D02*
Y967400D01*
X32084Y966484D01*
X30251D01*
X29334Y967400D01*
Y969233D01*
X30251Y970149D01*
X31167D01*
Y966484D01*
X58665Y949498D02*
X56833D01*
X57749D01*
Y944916D01*
X56833Y944000D01*
X55916D01*
X55000Y944916D01*
X60498Y944000D02*
X62331D01*
X61415D01*
Y949498D01*
X60498Y948582D01*
X68746Y949498D02*
X66913Y948582D01*
X65080Y946749D01*
Y944916D01*
X65996Y944000D01*
X67829D01*
X68746Y944916D01*
Y945833D01*
X67829Y946749D01*
X65080D01*
X90502Y930666D02*
Y927000D01*
X93251D01*
X92334Y928833D01*
Y929749D01*
X93251Y930666D01*
X95084D01*
X96000Y929749D01*
Y927916D01*
X95084Y927000D01*
X29000Y912749D02*
X23502D01*
X26251Y910000D01*
Y913665D01*
X91418Y959000D02*
X90502Y959916D01*
Y961749D01*
X91418Y962665D01*
X92334D01*
X93251Y961749D01*
Y960833D01*
Y961749D01*
X94167Y962665D01*
X95084D01*
X96000Y961749D01*
Y959916D01*
X95084Y959000D01*
X65000Y909666D02*
Y906000D01*
X61335Y909666D01*
X60418D01*
X59502Y908749D01*
Y906916D01*
X60418Y906000D01*
X29000Y979000D02*
Y980833D01*
Y979916D01*
X23502D01*
X24418Y979000D01*
X694165Y1045248D02*
X692333D01*
X693249D01*
Y1040666D01*
X692333Y1039750D01*
X691416D01*
X690500Y1040666D01*
X699664Y1045248D02*
X695998D01*
Y1042499D01*
X697831Y1043416D01*
X698747D01*
X699664Y1042499D01*
Y1040666D01*
X698747Y1039750D01*
X696915D01*
X695998Y1040666D01*
X701496Y1044332D02*
X702413Y1045248D01*
X704246D01*
X705162Y1044332D01*
Y1040666D01*
X704246Y1039750D01*
X702413D01*
X701496Y1040666D01*
Y1044332D01*
X1106916Y239998D02*
X1105083D01*
X1105999D01*
Y235416D01*
X1105083Y234500D01*
X1104166D01*
X1103250Y235416D01*
X1108748Y239082D02*
X1109665Y239998D01*
X1111497D01*
X1112414Y239082D01*
Y238165D01*
X1111497Y237249D01*
X1110581D01*
X1111497D01*
X1112414Y236333D01*
Y235416D01*
X1111497Y234500D01*
X1109665D01*
X1108748Y235416D01*
X990250Y206000D02*
X992083D01*
X991166D01*
Y211498D01*
X990250Y210582D01*
X996915Y289000D02*
X993250D01*
X996915Y292666D01*
Y293582D01*
X995999Y294498D01*
X994166D01*
X993250Y293582D01*
X1228915Y294498D02*
X1225250D01*
Y291749D01*
X1227083Y292666D01*
X1227999D01*
X1228915Y291749D01*
Y289916D01*
X1227999Y289000D01*
X1226166D01*
X1225250Y289916D01*
X1234414Y289000D02*
X1230748D01*
X1234414Y292666D01*
Y293582D01*
X1233497Y294498D01*
X1231665D01*
X1230748Y293582D01*
X1224915Y211498D02*
X1221250D01*
Y208749D01*
X1223083Y209666D01*
X1223999D01*
X1224915Y208749D01*
Y206916D01*
X1223999Y206000D01*
X1222166D01*
X1221250Y206916D01*
X1226748Y206000D02*
X1228581D01*
X1227665D01*
Y211498D01*
X1226748Y210582D01*
X1565668Y223165D02*
X1564752Y222249D01*
Y220416D01*
X1565668Y219500D01*
X1569334D01*
X1570250Y220416D01*
Y222249D01*
X1569334Y223165D01*
X1564752Y224998D02*
X1570250D01*
Y227747D01*
X1569334Y228664D01*
X1565668D01*
X1564752Y227747D01*
Y224998D01*
X1565668Y208165D02*
X1564752Y207249D01*
Y205416D01*
X1565668Y204500D01*
X1569334D01*
X1570250Y205416D01*
Y207249D01*
X1569334Y208165D01*
X1564752Y213664D02*
Y209998D01*
X1567501D01*
X1566584Y211831D01*
Y212747D01*
X1567501Y213664D01*
X1569334D01*
X1570250Y212747D01*
Y210915D01*
X1569334Y209998D01*
X1565668Y198165D02*
X1564752Y197249D01*
Y195416D01*
X1565668Y194500D01*
X1569334D01*
X1570250Y195416D01*
Y197249D01*
X1569334Y198165D01*
X1570250Y199998D02*
Y201831D01*
Y200915D01*
X1564752D01*
X1565668Y199998D01*
Y183165D02*
X1564752Y182249D01*
Y180416D01*
X1565668Y179500D01*
X1569334D01*
X1570250Y180416D01*
Y182249D01*
X1569334Y183165D01*
X1564752Y188664D02*
X1565668Y186831D01*
X1567501Y184998D01*
X1569334D01*
X1570250Y185915D01*
Y187747D01*
X1569334Y188664D01*
X1568417D01*
X1567501Y187747D01*
Y184998D01*
X1565668Y170665D02*
X1564752Y169749D01*
Y167916D01*
X1565668Y167000D01*
X1569334D01*
X1570250Y167916D01*
Y169749D01*
X1569334Y170665D01*
X1570250Y176164D02*
Y172498D01*
X1566584Y176164D01*
X1565668D01*
X1564752Y175247D01*
Y173415D01*
X1565668Y172498D01*
Y158166D02*
X1564752Y157249D01*
Y155416D01*
X1565668Y154500D01*
X1569334D01*
X1570250Y155416D01*
Y157249D01*
X1569334Y158166D01*
X1564752Y159998D02*
Y163664D01*
X1565668D01*
X1569334Y159998D01*
X1570250D01*
X1565668Y145666D02*
X1564752Y144749D01*
Y142916D01*
X1565668Y142000D01*
X1569334D01*
X1570250Y142916D01*
Y144749D01*
X1569334Y145666D01*
X1565668Y147498D02*
X1564752Y148415D01*
Y150247D01*
X1565668Y151164D01*
X1566584D01*
X1567501Y150247D01*
Y149331D01*
Y150247D01*
X1568417Y151164D01*
X1569334D01*
X1570250Y150247D01*
Y148415D01*
X1569334Y147498D01*
X1648252Y187915D02*
Y186083D01*
Y186999D01*
X1652834D01*
X1653750Y186083D01*
Y185166D01*
X1652834Y184250D01*
X1648252Y193414D02*
X1649168Y191581D01*
X1651001Y189748D01*
X1652834D01*
X1653750Y190665D01*
Y192497D01*
X1652834Y193414D01*
X1651917D01*
X1651001Y192497D01*
Y189748D01*
X665851Y14275D02*
X662186D01*
X660353Y16108D01*
X662186Y17940D01*
X665851D01*
X663102D01*
Y14275D01*
X661269Y35940D02*
X660353Y35024D01*
Y33191D01*
X661269Y32275D01*
X664935D01*
X665851Y33191D01*
Y35024D01*
X664935Y35940D01*
X645103Y16525D02*
X650601D01*
Y20190D01*
X645103Y25689D02*
Y22023D01*
X650601D01*
Y25689D01*
X647852Y22023D02*
Y23856D01*
X645103Y27522D02*
X650601D01*
Y30271D01*
X649685Y31187D01*
X646019D01*
X645103Y30271D01*
Y27522D01*
Y36685D02*
X646019Y34852D01*
X647852Y33020D01*
X649685D01*
X650601Y33936D01*
Y35769D01*
X649685Y36685D01*
X648768D01*
X647852Y35769D01*
Y33020D01*
X843000Y155498D02*
Y150000D01*
X846665D01*
X852164Y154582D02*
X851247Y155498D01*
X849415D01*
X848498Y154582D01*
Y153666D01*
X849415Y152749D01*
X851247D01*
X852164Y151833D01*
Y150916D01*
X851247Y150000D01*
X849415D01*
X848498Y150916D01*
X853996Y150000D02*
X855829D01*
X854913D01*
Y155498D01*
X853996Y154582D01*
X827333Y83250D02*
X821835D01*
Y85999D01*
X822751Y86916D01*
X824584D01*
X825500Y85999D01*
Y83250D01*
Y89665D02*
Y91497D01*
X824584Y92414D01*
X822751D01*
X821835Y91497D01*
Y89665D01*
X822751Y88748D01*
X824584D01*
X825500Y89665D01*
Y94246D02*
Y96995D01*
X824584Y97912D01*
X823667Y96995D01*
Y95163D01*
X822751Y94246D01*
X821835Y95163D01*
Y97912D01*
X825500Y99745D02*
Y101577D01*
Y100661D01*
X821835D01*
Y99745D01*
X820918Y105243D02*
X821835D01*
Y104326D01*
Y106159D01*
Y105243D01*
X824584D01*
X825500Y106159D01*
Y108908D02*
Y110741D01*
Y109825D01*
X821835D01*
Y108908D01*
Y113490D02*
X825500Y115323D01*
X821835Y117156D01*
X825500Y121737D02*
Y119905D01*
X824584Y118988D01*
X822751D01*
X821835Y119905D01*
Y121737D01*
X822751Y122654D01*
X823667D01*
Y118988D01*
X825500Y131818D02*
X823667Y129985D01*
X821835D01*
X820002Y131818D01*
X825500Y134567D02*
Y136399D01*
Y135483D01*
X820002D01*
Y134567D01*
X825500Y140065D02*
Y141898D01*
X824584Y142814D01*
X822751D01*
X821835Y141898D01*
Y140065D01*
X822751Y139149D01*
X824584D01*
X825500Y140065D01*
Y144647D02*
X821835D01*
Y147396D01*
X822751Y148312D01*
X825500D01*
X827333Y151978D02*
Y152894D01*
X826416Y153811D01*
X821835D01*
Y151061D01*
X822751Y150145D01*
X824584D01*
X825500Y151061D01*
Y153811D01*
Y158392D02*
Y156560D01*
X824584Y155643D01*
X822751D01*
X821835Y156560D01*
Y158392D01*
X822751Y159309D01*
X823667D01*
Y155643D01*
X821835Y161141D02*
X825500D01*
X823667D01*
X822751Y162058D01*
X821835Y162974D01*
Y163890D01*
X827333Y172138D02*
X821835D01*
Y174887D01*
X822751Y175803D01*
X824584D01*
X825500Y174887D01*
Y172138D01*
Y177636D02*
Y179469D01*
Y178552D01*
X821835D01*
Y177636D01*
X825500Y182218D02*
X821835D01*
Y184967D01*
X822751Y185883D01*
X825500D01*
Y187716D02*
X823667Y189549D01*
X821835D01*
X820002Y187716D01*
X1335250Y102748D02*
X1338916Y97250D01*
Y102748D02*
X1335250Y97250D01*
X1343497Y102748D02*
X1341665D01*
X1340748Y101832D01*
Y98166D01*
X1341665Y97250D01*
X1343497D01*
X1344414Y98166D01*
Y101832D01*
X1343497Y102748D01*
X1346246Y97250D02*
X1348079D01*
X1347163D01*
Y102748D01*
X1346246Y101832D01*
X310500Y567750D02*
Y565917D01*
Y566834D01*
X315998D01*
X315082Y567750D01*
X277166Y514498D02*
X275333D01*
X276249D01*
Y509916D01*
X275333Y509000D01*
X274416D01*
X273500Y509916D01*
X282664Y514498D02*
X278998D01*
Y511749D01*
X280831Y512665D01*
X281747D01*
X282664Y511749D01*
Y509916D01*
X281747Y509000D01*
X279915D01*
X278998Y509916D01*
X284496Y513582D02*
X285413Y514498D01*
X287246D01*
X288162Y513582D01*
Y512665D01*
X287246Y511749D01*
X286329D01*
X287246D01*
X288162Y510833D01*
Y509916D01*
X287246Y509000D01*
X285413D01*
X284496Y509916D01*
X715500Y162498D02*
X717333D01*
X716416D01*
Y157000D01*
X715500D01*
X717333D01*
X723747Y161582D02*
X722831Y162498D01*
X720998D01*
X720082Y161582D01*
Y157916D01*
X720998Y157000D01*
X722831D01*
X723747Y157916D01*
X729246Y157000D02*
X725580D01*
X729246Y160665D01*
Y161582D01*
X728329Y162498D01*
X726496D01*
X725580Y161582D01*
X731078D02*
X731995Y162498D01*
X733827D01*
X734744Y161582D01*
Y157916D01*
X733827Y157000D01*
X731995D01*
X731078Y157916D01*
Y161582D01*
X498500Y1012250D02*
Y1015916D01*
X500333Y1017748D01*
X502165Y1015916D01*
Y1012250D01*
Y1014999D01*
X498500D01*
X503998Y1012250D02*
X505831D01*
X504915D01*
Y1017748D01*
X503998Y1016832D01*
X512245Y1012250D02*
X508580D01*
X512245Y1015916D01*
Y1016832D01*
X511329Y1017748D01*
X509496D01*
X508580Y1016832D01*
X570750Y1012750D02*
Y1016415D01*
X572583Y1018248D01*
X574416Y1016415D01*
Y1012750D01*
Y1015499D01*
X570750D01*
X576248Y1012750D02*
X578081D01*
X577165D01*
Y1018248D01*
X576248Y1017332D01*
X515500Y1107750D02*
Y1113248D01*
X518249D01*
X519165Y1112332D01*
Y1110499D01*
X518249Y1109583D01*
X515500D01*
X524664Y1112332D02*
X523747Y1113248D01*
X521915D01*
X520998Y1112332D01*
Y1108666D01*
X521915Y1107750D01*
X523747D01*
X524664Y1108666D01*
X526496Y1113248D02*
Y1107750D01*
X529245D01*
X530162Y1108666D01*
Y1109583D01*
X529245Y1110499D01*
X526496D01*
X529245D01*
X530162Y1111415D01*
Y1112332D01*
X529245Y1113248D01*
X526496D01*
X540242Y1107750D02*
X538409D01*
X537493Y1108666D01*
Y1110499D01*
X538409Y1111415D01*
X540242D01*
X541158Y1110499D01*
Y1109583D01*
X537493D01*
X546656Y1113248D02*
Y1107750D01*
X543907D01*
X542991Y1108666D01*
Y1110499D01*
X543907Y1111415D01*
X546656D01*
X550322Y1105917D02*
X551238D01*
X552155Y1106834D01*
Y1111415D01*
X549406D01*
X548489Y1110499D01*
Y1108666D01*
X549406Y1107750D01*
X552155D01*
X556737D02*
X554904D01*
X553988Y1108666D01*
Y1110499D01*
X554904Y1111415D01*
X556737D01*
X557653Y1110499D01*
Y1109583D01*
X553988D01*
X535415Y1063748D02*
X533583D01*
X534499D01*
Y1059166D01*
X533583Y1058250D01*
X532666D01*
X531750Y1059166D01*
X540914Y1058250D02*
X537248D01*
X540914Y1061916D01*
Y1062832D01*
X539997Y1063748D01*
X538165D01*
X537248Y1062832D01*
X542746Y1063748D02*
X546412D01*
Y1062832D01*
X542746Y1059166D01*
Y1058250D01*
X1103000Y870498D02*
Y865000D01*
X1106665D01*
X1111247D02*
Y870498D01*
X1108498Y867749D01*
X1112164D01*
X1169000Y21248D02*
Y15750D01*
X1171749D01*
X1172665Y16667D01*
Y17583D01*
X1171749Y18499D01*
X1169000D01*
X1171749D01*
X1172665Y19416D01*
Y20332D01*
X1171749Y21248D01*
X1169000D01*
X1175415Y15750D02*
X1177247D01*
X1178164Y16667D01*
Y18499D01*
X1177247Y19416D01*
X1175415D01*
X1174498Y18499D01*
Y16667D01*
X1175415Y15750D01*
X1180913Y19416D02*
X1182746D01*
X1183662Y18499D01*
Y15750D01*
X1180913D01*
X1179996Y16667D01*
X1180913Y17583D01*
X1183662D01*
X1185495Y19416D02*
Y15750D01*
Y17583D01*
X1186411Y18499D01*
X1187327Y19416D01*
X1188244D01*
X1194658Y21248D02*
Y15750D01*
X1191909D01*
X1190993Y16667D01*
Y18499D01*
X1191909Y19416D01*
X1194658D01*
X1204738Y15750D02*
X1202906D01*
X1201989Y16667D01*
Y18499D01*
X1202906Y19416D01*
X1204738D01*
X1205655Y18499D01*
Y17583D01*
X1201989D01*
X1211153Y21248D02*
Y15750D01*
X1208404D01*
X1207487Y16667D01*
Y18499D01*
X1208404Y19416D01*
X1211153D01*
X1214818Y13917D02*
X1215735D01*
X1216651Y14834D01*
Y19416D01*
X1213902D01*
X1212986Y18499D01*
Y16667D01*
X1213902Y15750D01*
X1216651D01*
X1221233D02*
X1219400D01*
X1218484Y16667D01*
Y18499D01*
X1219400Y19416D01*
X1221233D01*
X1222149Y18499D01*
Y17583D01*
X1218484D01*
X1190916Y57582D02*
X1189999Y58498D01*
X1188166D01*
X1187250Y57582D01*
Y56666D01*
X1188166Y55749D01*
X1189999D01*
X1190916Y54833D01*
Y53916D01*
X1189999Y53000D01*
X1188166D01*
X1187250Y53916D01*
X1192748Y58498D02*
Y53000D01*
X1195497D01*
X1196414Y53916D01*
Y54833D01*
X1195497Y55749D01*
X1192748D01*
X1195497D01*
X1196414Y56666D01*
Y57582D01*
X1195497Y58498D01*
X1192748D01*
X1198246Y53000D02*
X1200079D01*
X1199163D01*
Y58498D01*
X1198246Y57582D01*
X985750Y122748D02*
X989416Y117250D01*
Y122748D02*
X985750Y117250D01*
X991248Y122748D02*
X994914D01*
X993081D01*
Y117250D01*
X1000412D02*
X996746D01*
X1000412Y120915D01*
Y121832D01*
X999495Y122748D01*
X997663D01*
X996746Y121832D01*
X361668Y459916D02*
X360752Y458999D01*
Y457166D01*
X361668Y456250D01*
X365334D01*
X366250Y457166D01*
Y458999D01*
X365334Y459916D01*
X366250Y465414D02*
Y461748D01*
X362584Y465414D01*
X361668D01*
X360752Y464497D01*
Y462665D01*
X361668Y461748D01*
X366250Y470912D02*
Y467246D01*
X362584Y470912D01*
X361668D01*
X360752Y469995D01*
Y468163D01*
X361668Y467246D01*
X360752Y472745D02*
Y476410D01*
X361668D01*
X365334Y472745D01*
X366250D01*
X588250Y797998D02*
Y792500D01*
X590999D01*
X591916Y793416D01*
Y797082D01*
X590999Y797998D01*
X588250D01*
X596497Y792500D02*
Y797998D01*
X593748Y795249D01*
X597414D01*
X1562915Y1006498D02*
X1559250D01*
Y1001000D01*
X1562915D01*
X1559250Y1003749D02*
X1561083D01*
X1568414Y1005582D02*
X1567497Y1006498D01*
X1565665D01*
X1564748Y1005582D01*
Y1004666D01*
X1565665Y1003749D01*
X1567497D01*
X1568414Y1002833D01*
Y1001916D01*
X1567497Y1001000D01*
X1565665D01*
X1564748Y1001916D01*
X1570246Y1006498D02*
Y1001000D01*
X1572995D01*
X1573912Y1001916D01*
Y1005582D01*
X1572995Y1006498D01*
X1570246D01*
X1575745Y1001000D02*
X1577577D01*
X1576661D01*
Y1006498D01*
X1575745Y1005582D01*
X457500Y602998D02*
X459333D01*
X458416D01*
Y597500D01*
X457500D01*
X459333D01*
X465747Y602082D02*
X464831Y602998D01*
X462998D01*
X462082Y602082D01*
Y598416D01*
X462998Y597500D01*
X464831D01*
X465747Y598416D01*
X470329Y597500D02*
Y602998D01*
X467580Y600249D01*
X471245D01*
X473078Y602082D02*
X473995Y602998D01*
X475827D01*
X476744Y602082D01*
Y601166D01*
X475827Y600249D01*
X474911D01*
X475827D01*
X476744Y599333D01*
Y598416D01*
X475827Y597500D01*
X473995D01*
X473078Y598416D01*
X1397750Y948498D02*
X1399583D01*
X1398666D01*
Y943000D01*
X1397750D01*
X1399583D01*
X1405997Y947582D02*
X1405081Y948498D01*
X1403248D01*
X1402332Y947582D01*
Y943916D01*
X1403248Y943000D01*
X1405081D01*
X1405997Y943916D01*
X1407830Y947582D02*
X1408746Y948498D01*
X1410579D01*
X1411496Y947582D01*
Y946665D01*
X1410579Y945749D01*
X1409663D01*
X1410579D01*
X1411496Y944833D01*
Y943916D01*
X1410579Y943000D01*
X1408746D01*
X1407830Y943916D01*
X1413328Y943000D02*
X1415161D01*
X1414245D01*
Y948498D01*
X1413328Y947582D01*
X1208000Y860998D02*
X1209833D01*
X1208916D01*
Y855500D01*
X1208000D01*
X1209833D01*
X1216247Y860082D02*
X1215331Y860998D01*
X1213498D01*
X1212582Y860082D01*
Y856416D01*
X1213498Y855500D01*
X1215331D01*
X1216247Y856416D01*
X1218080Y860082D02*
X1218996Y860998D01*
X1220829D01*
X1221746Y860082D01*
Y859165D01*
X1220829Y858249D01*
X1219913D01*
X1220829D01*
X1221746Y857333D01*
Y856416D01*
X1220829Y855500D01*
X1218996D01*
X1218080Y856416D01*
X1223578Y860082D02*
X1224495Y860998D01*
X1226327D01*
X1227244Y860082D01*
Y856416D01*
X1226327Y855500D01*
X1224495D01*
X1223578Y856416D01*
Y860082D01*
X1037250Y866748D02*
X1039083D01*
X1038166D01*
Y861250D01*
X1037250D01*
X1039083D01*
X1045497Y865832D02*
X1044581Y866748D01*
X1042748D01*
X1041832Y865832D01*
Y862166D01*
X1042748Y861250D01*
X1044581D01*
X1045497Y862166D01*
X1047330Y865832D02*
X1048246Y866748D01*
X1050079D01*
X1050995Y865832D01*
Y864915D01*
X1050079Y863999D01*
X1049163D01*
X1050079D01*
X1050995Y863083D01*
Y862166D01*
X1050079Y861250D01*
X1048246D01*
X1047330Y862166D01*
X1055577Y861250D02*
Y866748D01*
X1052828Y863999D01*
X1056494D01*
X193250Y978250D02*
Y980083D01*
Y979166D01*
X189585D01*
Y978250D01*
X193250Y982832D02*
X189585D01*
Y985581D01*
X190501Y986497D01*
X193250D01*
X216002Y979165D02*
Y977333D01*
Y978249D01*
X220584D01*
X221500Y977333D01*
Y976416D01*
X220584Y975500D01*
X221500Y984664D02*
Y980998D01*
X217834Y984664D01*
X216918D01*
X216002Y983747D01*
Y981915D01*
X216918Y980998D01*
X221500Y989246D02*
X216002D01*
X218751Y986496D01*
Y990162D01*
X259666Y333498D02*
X257833D01*
X258749D01*
Y328916D01*
X257833Y328000D01*
X256916D01*
X256000Y328916D01*
X261498Y332582D02*
X262415Y333498D01*
X264247D01*
X265164Y332582D01*
Y331665D01*
X264247Y330749D01*
X263331D01*
X264247D01*
X265164Y329833D01*
Y328916D01*
X264247Y328000D01*
X262415D01*
X261498Y328916D01*
X270662Y328000D02*
X266996D01*
X270662Y331665D01*
Y332582D01*
X269746Y333498D01*
X267913D01*
X266996Y332582D01*
X249750Y360000D02*
X251583D01*
X250666D01*
Y365498D01*
X249750Y364582D01*
X1672752Y674750D02*
X1678250D01*
X1676417D01*
X1672752Y678415D01*
X1675501Y675666D01*
X1678250Y678415D01*
X1672752Y683914D02*
Y680248D01*
X1678250D01*
Y683914D01*
X1675501Y680248D02*
Y682081D01*
X1672752Y685746D02*
X1673668D01*
X1675501Y687579D01*
X1673668Y689412D01*
X1672752D01*
X1675501Y687579D02*
X1678250D01*
X1650250Y630250D02*
X1652083D01*
X1651166D01*
Y635748D01*
X1650250Y634832D01*
X1655415Y669498D02*
X1653583D01*
X1654499D01*
Y664916D01*
X1653583Y664000D01*
X1652666D01*
X1651750Y664916D01*
X1657248Y668582D02*
X1658165Y669498D01*
X1659997D01*
X1660914Y668582D01*
Y667665D01*
X1659997Y666749D01*
X1660914Y665833D01*
Y664916D01*
X1659997Y664000D01*
X1658165D01*
X1657248Y664916D01*
Y665833D01*
X1658165Y666749D01*
X1657248Y667665D01*
Y668582D01*
X1658165Y666749D02*
X1659997D01*
X1399915Y456248D02*
X1398083D01*
X1398999D01*
Y451666D01*
X1398083Y450750D01*
X1397166D01*
X1396250Y451666D01*
X1401748Y455332D02*
X1402665Y456248D01*
X1404497D01*
X1405414Y455332D01*
Y454416D01*
X1404497Y453499D01*
X1403581D01*
X1404497D01*
X1405414Y452583D01*
Y451666D01*
X1404497Y450750D01*
X1402665D01*
X1401748Y451666D01*
X1410912Y456248D02*
X1407246D01*
Y453499D01*
X1409079Y454416D01*
X1409996D01*
X1410912Y453499D01*
Y451666D01*
X1409996Y450750D01*
X1408163D01*
X1407246Y451666D01*
X92416Y668248D02*
X90583D01*
X91499D01*
Y663666D01*
X90583Y662750D01*
X89666D01*
X88750Y663666D01*
X94248Y662750D02*
X96081D01*
X95165D01*
Y668248D01*
X94248Y667332D01*
X98830D02*
X99746Y668248D01*
X101579D01*
X102495Y667332D01*
Y666415D01*
X101579Y665499D01*
X100663D01*
X101579D01*
X102495Y664583D01*
Y663666D01*
X101579Y662750D01*
X99746D01*
X98830Y663666D01*
X1513665Y653498D02*
X1511833D01*
X1512749D01*
Y648916D01*
X1511833Y648000D01*
X1510916D01*
X1510000Y648916D01*
X1515498Y648000D02*
X1517331D01*
X1516415D01*
Y653498D01*
X1515498Y652582D01*
X1522829Y648000D02*
Y653498D01*
X1520080Y650749D01*
X1523746D01*
X1532750Y557500D02*
Y559499D01*
Y558500D01*
X1526752D01*
X1527752Y557500D01*
X276255Y92998D02*
X274423D01*
X275339D01*
Y88416D01*
X274423Y87500D01*
X273506D01*
X272590Y88416D01*
X278088Y92082D02*
X279005Y92998D01*
X280837D01*
X281754Y92082D01*
Y91166D01*
X280837Y90249D01*
X279921D01*
X280837D01*
X281754Y89333D01*
Y88416D01*
X280837Y87500D01*
X279005D01*
X278088Y88416D01*
X283586D02*
X284503Y87500D01*
X286336D01*
X287252Y88416D01*
Y92082D01*
X286336Y92998D01*
X284503D01*
X283586Y92082D01*
Y91166D01*
X284503Y90249D01*
X287252D01*
X108415Y1044498D02*
X106583D01*
X107499D01*
Y1039916D01*
X106583Y1039000D01*
X105666D01*
X104750Y1039916D01*
X113913Y1039000D02*
X110248D01*
X113913Y1042665D01*
Y1043582D01*
X112997Y1044498D01*
X111164D01*
X110248Y1043582D01*
X115746D02*
X116663Y1044498D01*
X118495D01*
X119412Y1043582D01*
Y1042665D01*
X118495Y1041749D01*
X117579D01*
X118495D01*
X119412Y1040833D01*
Y1039916D01*
X118495Y1039000D01*
X116663D01*
X115746Y1039916D01*
X52870Y177340D02*
Y179173D01*
Y178256D01*
X47372D01*
X48288Y177340D01*
X20122Y146412D02*
X25620D01*
X23787D01*
X20122Y150077D01*
X22871Y147328D01*
X25620Y150077D01*
X20122Y155575D02*
Y151910D01*
X25620D01*
Y155575D01*
X22871Y151910D02*
Y153742D01*
X20122Y157408D02*
X21038D01*
X22871Y159241D01*
X21038Y161073D01*
X20122D01*
X22871Y159241D02*
X25620D01*
X54502Y136166D02*
Y134333D01*
Y135249D01*
X59084D01*
X60000Y134333D01*
Y133416D01*
X59084Y132500D01*
X60000Y141664D02*
Y137998D01*
X56335Y141664D01*
X55418D01*
X54502Y140747D01*
Y138915D01*
X55418Y137998D01*
X54502Y147162D02*
Y143496D01*
X57251D01*
X56335Y145329D01*
Y146245D01*
X57251Y147162D01*
X59084D01*
X60000Y146245D01*
Y144413D01*
X59084Y143496D01*
X428252Y503250D02*
X433750D01*
Y506916D01*
X429168Y508748D02*
X428252Y509665D01*
Y511497D01*
X429168Y512414D01*
X430084D01*
X431001Y511497D01*
X431917Y512414D01*
X432834D01*
X433750Y511497D01*
Y509665D01*
X432834Y508748D01*
X431917D01*
X431001Y509665D01*
X430084Y508748D01*
X429168D01*
X431001Y509665D02*
Y511497D01*
X458500Y480000D02*
X454835D01*
Y482749D01*
X455751Y483666D01*
X458500D01*
Y486415D02*
Y488247D01*
X457584Y489164D01*
X455751D01*
X454835Y488247D01*
Y486415D01*
X455751Y485498D01*
X457584D01*
X458500Y486415D01*
X460333Y496495D02*
X454835D01*
Y499244D01*
X455751Y500160D01*
X457584D01*
X458500Y499244D01*
Y496495D01*
Y502909D02*
Y504742D01*
X457584Y505658D01*
X455751D01*
X454835Y504742D01*
Y502909D01*
X455751Y501993D01*
X457584D01*
X458500Y502909D01*
Y507491D02*
Y509324D01*
Y508408D01*
X453002D01*
Y507491D01*
X454835Y512989D02*
Y514822D01*
X455751Y515738D01*
X458500D01*
Y512989D01*
X457584Y512073D01*
X456667Y512989D01*
Y515738D01*
X454835Y517571D02*
X458500D01*
X456667D01*
X455751Y518488D01*
X454835Y519404D01*
Y520320D01*
X458500Y523069D02*
Y524902D01*
Y523986D01*
X454835D01*
Y523069D01*
X453918Y528568D02*
X454835D01*
Y527651D01*
Y529484D01*
Y528568D01*
X457584D01*
X458500Y529484D01*
X454835Y532233D02*
X457584D01*
X458500Y533149D01*
Y535899D01*
X459416D01*
X460333Y534982D01*
Y534066D01*
X458500Y535899D02*
X454835D01*
X484500Y1069750D02*
X480835D01*
X479002Y1071583D01*
X480835Y1073416D01*
X484500D01*
X481751D01*
Y1069750D01*
X479918Y1091415D02*
X479002Y1090499D01*
Y1088666D01*
X479918Y1087750D01*
X483584D01*
X484500Y1088666D01*
Y1090499D01*
X483584Y1091415D01*
X465502Y1071250D02*
X471000D01*
Y1074915D01*
X465502Y1080414D02*
Y1076748D01*
X471000D01*
Y1080414D01*
X468251Y1076748D02*
Y1078581D01*
X465502Y1082246D02*
X471000D01*
Y1084995D01*
X470084Y1085912D01*
X466418D01*
X465502Y1084995D01*
Y1082246D01*
X466418Y1087745D02*
X465502Y1088661D01*
Y1090494D01*
X466418Y1091410D01*
X467335D01*
X468251Y1090494D01*
X469167Y1091410D01*
X470084D01*
X471000Y1090494D01*
Y1088661D01*
X470084Y1087745D01*
X469167D01*
X468251Y1088661D01*
X467335Y1087745D01*
X466418D01*
X468251Y1088661D02*
Y1090494D01*
X307750Y809248D02*
X311416D01*
X309583D01*
Y803750D01*
X313248D02*
X315081D01*
X314165D01*
Y809248D01*
X313248Y808332D01*
X332750Y514498D02*
X336415D01*
X334583D01*
Y509000D01*
X338248D02*
Y514498D01*
X340997D01*
X341914Y513582D01*
Y511749D01*
X340997Y510833D01*
X338248D01*
X346496Y509000D02*
Y514498D01*
X343746Y511749D01*
X347412D01*
X1640166Y454248D02*
X1638333D01*
X1639249D01*
Y449666D01*
X1638333Y448750D01*
X1637416D01*
X1636500Y449666D01*
X1641998Y448750D02*
X1643831D01*
X1642915D01*
Y454248D01*
X1641998Y453332D01*
X1646580D02*
X1647496Y454248D01*
X1649329D01*
X1650246Y453332D01*
Y449666D01*
X1649329Y448750D01*
X1647496D01*
X1646580Y449666D01*
Y453332D01*
X1658500Y317500D02*
Y319333D01*
Y318416D01*
X1653002D01*
X1653918Y317500D01*
X1633500Y321166D02*
Y317500D01*
X1629834Y321166D01*
X1628918D01*
X1628002Y320249D01*
Y318416D01*
X1628918Y317500D01*
X342250Y948750D02*
X344083D01*
X343166D01*
Y954248D01*
X342250Y953332D01*
X366252Y955250D02*
X371750D01*
X369917D01*
X366252Y958915D01*
X369001Y956166D01*
X371750Y958915D01*
X366252Y964414D02*
Y960748D01*
X371750D01*
Y964414D01*
X369001Y960748D02*
Y962581D01*
X366252Y966246D02*
X367168D01*
X369001Y968079D01*
X367168Y969912D01*
X366252D01*
X369001Y968079D02*
X371750D01*
X351166Y946748D02*
X349333D01*
X350249D01*
Y942166D01*
X349333Y941250D01*
X348416D01*
X347500Y942166D01*
X356664Y946748D02*
X352998D01*
Y943999D01*
X354831Y944915D01*
X355747D01*
X356664Y943999D01*
Y942166D01*
X355747Y941250D01*
X353915D01*
X352998Y942166D01*
X362162Y941250D02*
X358497D01*
X362162Y944915D01*
Y945832D01*
X361246Y946748D01*
X359413D01*
X358497Y945832D01*
X274415Y471748D02*
X272583D01*
X273499D01*
Y467166D01*
X272583Y466250D01*
X271666D01*
X270750Y467166D01*
X279914Y471748D02*
X276248D01*
Y468999D01*
X278081Y469916D01*
X278997D01*
X279914Y468999D01*
Y467166D01*
X278997Y466250D01*
X277165D01*
X276248Y467166D01*
X284496Y466250D02*
Y471748D01*
X281746Y468999D01*
X285412D01*
X846415Y865998D02*
X844583D01*
X845499D01*
Y861416D01*
X844583Y860500D01*
X843666D01*
X842750Y861416D01*
X848248Y860500D02*
X850081D01*
X849165D01*
Y865998D01*
X848248Y865082D01*
X856496Y865998D02*
X852830D01*
Y863249D01*
X854663Y864165D01*
X855579D01*
X856496Y863249D01*
Y861416D01*
X855579Y860500D01*
X853746D01*
X852830Y861416D01*
X845666Y483248D02*
X842000D01*
Y480499D01*
X843833D01*
X842000D01*
Y477750D01*
X847498D02*
Y481415D01*
X849331Y483248D01*
X851164Y481415D01*
Y477750D01*
Y480499D01*
X847498D01*
X852996Y477750D02*
Y483248D01*
X856662Y477750D01*
Y483248D01*
X858495Y477750D02*
X860327D01*
X859411D01*
Y483248D01*
X858495Y482332D01*
X1339250Y872750D02*
X1333752D01*
Y875499D01*
X1334668Y876415D01*
X1336501D01*
X1337417Y875499D01*
Y872750D01*
Y874583D02*
X1339250Y876415D01*
X1333752Y881914D02*
Y878248D01*
X1336501D01*
Y880081D01*
Y878248D01*
X1339250D01*
Y889245D02*
Y891994D01*
X1338334Y892910D01*
X1337417Y891994D01*
Y890161D01*
X1336501Y889245D01*
X1335585Y890161D01*
Y892910D01*
X1333752Y894743D02*
X1339250D01*
X1336501D01*
X1335585Y895659D01*
Y897492D01*
X1336501Y898408D01*
X1339250D01*
Y900241D02*
Y902074D01*
Y901157D01*
X1335585D01*
Y900241D01*
X1339250Y907572D02*
Y905739D01*
X1338334Y904823D01*
X1336501D01*
X1335585Y905739D01*
Y907572D01*
X1336501Y908488D01*
X1337417D01*
Y904823D01*
X1339250Y910321D02*
Y912154D01*
Y911237D01*
X1333752D01*
Y910321D01*
Y918568D02*
X1339250D01*
Y915819D01*
X1338334Y914903D01*
X1336501D01*
X1335585Y915819D01*
Y918568D01*
Y929565D02*
Y926816D01*
X1336501Y925899D01*
X1338334D01*
X1339250Y926816D01*
Y929565D01*
Y932314D02*
Y934147D01*
X1338334Y935063D01*
X1336501D01*
X1335585Y934147D01*
Y932314D01*
X1336501Y931398D01*
X1338334D01*
X1339250Y932314D01*
X1335585Y936896D02*
X1339250Y938729D01*
X1335585Y940561D01*
X1339250Y945143D02*
Y943310D01*
X1338334Y942394D01*
X1336501D01*
X1335585Y943310D01*
Y945143D01*
X1336501Y946059D01*
X1337417D01*
Y942394D01*
X1335585Y947892D02*
X1339250D01*
X1337417D01*
X1336501Y948809D01*
X1335585Y949725D01*
Y950641D01*
X1347750Y873000D02*
X1342252D01*
X1344084Y874833D01*
X1342252Y876665D01*
X1347750D01*
X1342252Y882164D02*
Y878498D01*
X1347750D01*
Y882164D01*
X1345001Y878498D02*
Y880331D01*
X1343168Y887662D02*
X1342252Y886746D01*
Y884913D01*
X1343168Y883996D01*
X1346834D01*
X1347750Y884913D01*
Y886746D01*
X1346834Y887662D01*
X1342252Y889495D02*
X1347750D01*
X1345001D01*
Y893160D01*
X1342252D01*
X1347750D01*
Y894993D02*
Y896826D01*
Y895909D01*
X1342252D01*
X1343168Y894993D01*
Y899575D02*
X1342252Y900491D01*
Y902324D01*
X1343168Y903240D01*
X1344084D01*
X1345001Y902324D01*
Y901407D01*
Y902324D01*
X1345917Y903240D01*
X1346834D01*
X1347750Y902324D01*
Y900491D01*
X1346834Y899575D01*
X650851Y54275D02*
Y59773D01*
X652684Y57941D01*
X654517Y59773D01*
Y54275D01*
X660015Y59773D02*
X656349D01*
Y54275D01*
X660015D01*
X656349Y57024D02*
X658182D01*
X665513Y58857D02*
X664596Y59773D01*
X662764D01*
X661847Y58857D01*
Y55191D01*
X662764Y54275D01*
X664596D01*
X665513Y55191D01*
X667346Y59773D02*
Y54275D01*
Y57024D01*
X671011D01*
Y59773D01*
Y54275D01*
X676509Y59773D02*
X674677Y58857D01*
X672844Y57024D01*
Y55191D01*
X673760Y54275D01*
X675593D01*
X676509Y55191D01*
Y56108D01*
X675593Y57024D01*
X672844D01*
X288416Y645582D02*
X287499Y646498D01*
X285666D01*
X284750Y645582D01*
Y641916D01*
X285666Y641000D01*
X287499D01*
X288416Y641916D01*
X290248Y641000D02*
X292081D01*
X291165D01*
Y646498D01*
X290248Y645582D01*
X294830D02*
X295746Y646498D01*
X297579D01*
X298496Y645582D01*
Y644666D01*
X297579Y643749D01*
X298496Y642833D01*
Y641916D01*
X297579Y641000D01*
X295746D01*
X294830Y641916D01*
Y642833D01*
X295746Y643749D01*
X294830Y644666D01*
Y645582D01*
X295746Y643749D02*
X297579D01*
X300328Y641000D02*
X302161D01*
X301245D01*
Y646498D01*
X300328Y645582D01*
X1133750Y810000D02*
Y815498D01*
X1136499D01*
X1137415Y814582D01*
Y812749D01*
X1136499Y811833D01*
X1133750D01*
X1135583D02*
X1137415Y810000D01*
X1142914Y815498D02*
X1139248D01*
Y812749D01*
X1141081D01*
X1139248D01*
Y810000D01*
X1150245D02*
X1152994D01*
X1153910Y810916D01*
X1152994Y811833D01*
X1151161D01*
X1150245Y812749D01*
X1151161Y813665D01*
X1153910D01*
X1155743Y815498D02*
Y810000D01*
Y812749D01*
X1156659Y813665D01*
X1158492D01*
X1159408Y812749D01*
Y810000D01*
X1161241D02*
X1163074D01*
X1162157D01*
Y813665D01*
X1161241D01*
X1168572Y810000D02*
X1166739D01*
X1165823Y810916D01*
Y812749D01*
X1166739Y813665D01*
X1168572D01*
X1169488Y812749D01*
Y811833D01*
X1165823D01*
X1171321Y810000D02*
X1173154D01*
X1172237D01*
Y815498D01*
X1171321D01*
X1179568D02*
Y810000D01*
X1176819D01*
X1175903Y810916D01*
Y812749D01*
X1176819Y813665D01*
X1179568D01*
X1187816Y810000D02*
Y814582D01*
Y812749D01*
X1186899D01*
X1188732D01*
X1187816D01*
Y814582D01*
X1188732Y815498D01*
X1191481Y813665D02*
Y810000D01*
Y811833D01*
X1192398Y812749D01*
X1193314Y813665D01*
X1194230D01*
X1197896D02*
X1199729D01*
X1200645Y812749D01*
Y810000D01*
X1197896D01*
X1196980Y810916D01*
X1197896Y811833D01*
X1200645D01*
X1202478Y810000D02*
Y813665D01*
X1203394D01*
X1204310Y812749D01*
Y810000D01*
Y812749D01*
X1205227Y813665D01*
X1206143Y812749D01*
Y810000D01*
X1210725D02*
X1208892D01*
X1207976Y810916D01*
Y812749D01*
X1208892Y813665D01*
X1210725D01*
X1211641Y812749D01*
Y811833D01*
X1207976D01*
X1133500Y801750D02*
Y807248D01*
X1135333Y805415D01*
X1137166Y807248D01*
Y801750D01*
X1142664Y807248D02*
X1138998D01*
Y801750D01*
X1142664D01*
X1138998Y804499D02*
X1140831D01*
X1148162Y806332D02*
X1147245Y807248D01*
X1145413D01*
X1144496Y806332D01*
Y802666D01*
X1145413Y801750D01*
X1147245D01*
X1148162Y802666D01*
X1149995Y807248D02*
Y801750D01*
Y804499D01*
X1153660D01*
Y807248D01*
Y801750D01*
X1155493D02*
X1157326D01*
X1156409D01*
Y807248D01*
X1155493Y806332D01*
X1160075D02*
X1160991Y807248D01*
X1162824D01*
X1163740Y806332D01*
Y802666D01*
X1162824Y801750D01*
X1160991D01*
X1160075Y802666D01*
Y806332D01*
X655918Y711916D02*
X655002Y710999D01*
Y709166D01*
X655918Y708250D01*
X659584D01*
X660500Y709166D01*
Y710999D01*
X659584Y711916D01*
X660500Y713748D02*
Y715581D01*
Y714665D01*
X655002D01*
X655918Y713748D01*
Y718330D02*
X655002Y719247D01*
Y721079D01*
X655918Y721996D01*
X656834D01*
X657751Y721079D01*
X658667Y721996D01*
X659584D01*
X660500Y721079D01*
Y719247D01*
X659584Y718330D01*
X658667D01*
X657751Y719247D01*
X656834Y718330D01*
X655918D01*
X657751Y719247D02*
Y721079D01*
X655002Y727494D02*
Y723828D01*
X657751D01*
X656834Y725661D01*
Y726577D01*
X657751Y727494D01*
X659584D01*
X660500Y726577D01*
Y724745D01*
X659584Y723828D01*
X177500Y1011750D02*
X172002D01*
Y1014499D01*
X172918Y1015415D01*
X174751D01*
X175667Y1014499D01*
Y1011750D01*
Y1013583D02*
X177500Y1015415D01*
X172002Y1020914D02*
Y1017248D01*
X174751D01*
X173834Y1019081D01*
Y1019997D01*
X174751Y1020914D01*
X176584D01*
X177500Y1019997D01*
Y1018165D01*
X176584Y1017248D01*
X177500Y1022746D02*
Y1024579D01*
Y1023663D01*
X172002D01*
X172918Y1022746D01*
X550750Y904000D02*
Y907665D01*
X552583Y909498D01*
X554416Y907665D01*
Y904000D01*
Y906749D01*
X550750D01*
X515415Y908582D02*
X514499Y909498D01*
X512666D01*
X511750Y908582D01*
Y904916D01*
X512666Y904000D01*
X514499D01*
X515415Y904916D01*
X526500Y920498D02*
Y916833D01*
X528333Y915000D01*
X530165Y916833D01*
Y920498D01*
X531998D02*
Y915000D01*
X534747D01*
X535664Y915916D01*
Y919582D01*
X534747Y920498D01*
X531998D01*
X541162Y915000D02*
X537496D01*
X541162Y918665D01*
Y919582D01*
X540246Y920498D01*
X538413D01*
X537496Y919582D01*
X542995D02*
X543911Y920498D01*
X545744D01*
X546660Y919582D01*
Y915916D01*
X545744Y915000D01*
X543911D01*
X542995Y915916D01*
Y919582D01*
X78165Y34748D02*
X76333D01*
X77249D01*
Y30166D01*
X76333Y29250D01*
X75416D01*
X74500Y30166D01*
X82747Y29250D02*
Y34748D01*
X79998Y31999D01*
X83664D01*
X85496Y30166D02*
X86413Y29250D01*
X88245D01*
X89162Y30166D01*
Y33832D01*
X88245Y34748D01*
X86413D01*
X85496Y33832D01*
Y32915D01*
X86413Y31999D01*
X89162D01*
X342502Y297000D02*
Y300665D01*
Y298833D01*
X348000D01*
Y302498D02*
X342502D01*
Y305247D01*
X343418Y306164D01*
X345251D01*
X346167Y305247D01*
Y302498D01*
X343418Y307996D02*
X342502Y308913D01*
Y310746D01*
X343418Y311662D01*
X344334D01*
X345251Y310746D01*
Y309829D01*
Y310746D01*
X346167Y311662D01*
X347084D01*
X348000Y310746D01*
Y308913D01*
X347084Y307996D01*
X591000Y999998D02*
X594665D01*
X592833D01*
Y994500D01*
X596498D02*
Y999998D01*
X599247D01*
X600164Y999082D01*
Y997249D01*
X599247Y996333D01*
X596498D01*
X605662Y994500D02*
X601996D01*
X605662Y998166D01*
Y999082D01*
X604745Y999998D01*
X602913D01*
X601996Y999082D01*
X711500Y936748D02*
X715165D01*
X713333D01*
Y931250D01*
X716998D02*
Y936748D01*
X719747D01*
X720664Y935832D01*
Y933999D01*
X719747Y933083D01*
X716998D01*
X722496Y931250D02*
X724329D01*
X723413D01*
Y936748D01*
X722496Y935832D01*
X425500Y419998D02*
X427333D01*
X426416D01*
Y414500D01*
X425500D01*
X427333D01*
X433747Y419082D02*
X432831Y419998D01*
X430998D01*
X430082Y419082D01*
Y415416D01*
X430998Y414500D01*
X432831D01*
X433747Y415416D01*
X438329Y414500D02*
Y419998D01*
X435580Y417249D01*
X439246D01*
X444744Y414500D02*
X441078D01*
X444744Y418166D01*
Y419082D01*
X443827Y419998D01*
X441995D01*
X441078Y419082D01*
X176250Y960250D02*
X170752D01*
Y962999D01*
X171668Y963915D01*
X173501D01*
X174417Y962999D01*
Y960250D01*
Y962083D02*
X176250Y963915D01*
X170752Y969414D02*
Y965748D01*
X173501D01*
X172584Y967581D01*
Y968497D01*
X173501Y969414D01*
X175334D01*
X176250Y968497D01*
Y966665D01*
X175334Y965748D01*
X176250Y974912D02*
Y971246D01*
X172584Y974912D01*
X171668D01*
X170752Y973996D01*
Y972163D01*
X171668Y971246D01*
X1311165Y1042248D02*
X1309333D01*
X1310249D01*
Y1037666D01*
X1309333Y1036750D01*
X1308416D01*
X1307500Y1037666D01*
X1316664Y1036750D02*
X1312998D01*
X1316664Y1040415D01*
Y1041332D01*
X1315747Y1042248D01*
X1313915D01*
X1312998Y1041332D01*
X1318496Y1036750D02*
X1320329D01*
X1319413D01*
Y1042248D01*
X1318496Y1041332D01*
X1058665Y895582D02*
X1057749Y896498D01*
X1055916D01*
X1055000Y895582D01*
Y891916D01*
X1055916Y891000D01*
X1057749D01*
X1058665Y891916D01*
X1060498Y891000D02*
X1062331D01*
X1061415D01*
Y896498D01*
X1060498Y895582D01*
X1068745Y896498D02*
X1065080D01*
Y893749D01*
X1066913Y894666D01*
X1067829D01*
X1068745Y893749D01*
Y891916D01*
X1067829Y891000D01*
X1065996D01*
X1065080Y891916D01*
X1074244Y896498D02*
X1070578D01*
Y893749D01*
X1072411Y894666D01*
X1073327D01*
X1074244Y893749D01*
Y891916D01*
X1073327Y891000D01*
X1071495D01*
X1070578Y891916D01*
X143002Y161665D02*
Y159833D01*
Y160749D01*
X147584D01*
X148500Y159833D01*
Y158916D01*
X147584Y158000D01*
X148500Y167164D02*
Y163498D01*
X144834Y167164D01*
X143918D01*
X143002Y166247D01*
Y164415D01*
X143918Y163498D01*
X143002Y172662D02*
X143918Y170829D01*
X145751Y168996D01*
X147584D01*
X148500Y169913D01*
Y171745D01*
X147584Y172662D01*
X146667D01*
X145751Y171745D01*
Y168996D01*
X104662Y159340D02*
X110160D01*
X108327D01*
X104662Y163006D01*
X107411Y160256D01*
X110160Y163006D01*
X104662Y168504D02*
Y164838D01*
X110160D01*
Y168504D01*
X107411Y164838D02*
Y166671D01*
X104662Y170336D02*
X105578D01*
X107411Y172169D01*
X105578Y174002D01*
X104662D01*
X107411Y172169D02*
X110160D01*
X134910Y177340D02*
Y179173D01*
Y178256D01*
X129412D01*
X130328Y177340D01*
X524500Y964748D02*
Y961083D01*
X526333Y959250D01*
X528166Y961083D01*
Y964748D01*
X529998D02*
Y959250D01*
X532747D01*
X533664Y960166D01*
Y963832D01*
X532747Y964748D01*
X529998D01*
X535496Y959250D02*
X537329D01*
X536413D01*
Y964748D01*
X535496Y963832D01*
X540078D02*
X540995Y964748D01*
X542827D01*
X543744Y963832D01*
Y962915D01*
X542827Y961999D01*
X543744Y961083D01*
Y960166D01*
X542827Y959250D01*
X540995D01*
X540078Y960166D01*
Y961083D01*
X540995Y961999D01*
X540078Y962915D01*
Y963832D01*
X540995Y961999D02*
X542827D01*
X515415Y952332D02*
X514499Y953248D01*
X512666D01*
X511750Y952332D01*
Y948666D01*
X512666Y947750D01*
X514499D01*
X515415Y948666D01*
X550750Y947750D02*
Y951415D01*
X552583Y953248D01*
X554416Y951415D01*
Y947750D01*
Y950499D01*
X550750D01*
X1418250Y866748D02*
X1420083D01*
X1419166D01*
Y861250D01*
X1418250D01*
X1420083D01*
X1426497Y865832D02*
X1425581Y866748D01*
X1423748D01*
X1422832Y865832D01*
Y862166D01*
X1423748Y861250D01*
X1425581D01*
X1426497Y862166D01*
X1428330Y865832D02*
X1429246Y866748D01*
X1431079D01*
X1431996Y865832D01*
Y864915D01*
X1431079Y863999D01*
X1430163D01*
X1431079D01*
X1431996Y863083D01*
Y862166D01*
X1431079Y861250D01*
X1429246D01*
X1428330Y862166D01*
X1433828Y865832D02*
X1434745Y866748D01*
X1436577D01*
X1437494Y865832D01*
Y864915D01*
X1436577Y863999D01*
X1435661D01*
X1436577D01*
X1437494Y863083D01*
Y862166D01*
X1436577Y861250D01*
X1434745D01*
X1433828Y862166D01*
X399765Y208752D02*
X401597D01*
X400681D01*
Y213333D01*
X401597Y214250D01*
X402514D01*
X403430Y213333D01*
X395183Y214250D02*
Y208752D01*
X397932Y211501D01*
X394266D01*
X395256Y92998D02*
X393423D01*
X394339D01*
Y88416D01*
X393423Y87500D01*
X392506D01*
X391590Y88416D01*
X397088Y92082D02*
X398005Y92998D01*
X399837D01*
X400754Y92082D01*
Y91166D01*
X399837Y90249D01*
X398921D01*
X399837D01*
X400754Y89333D01*
Y88416D01*
X399837Y87500D01*
X398005D01*
X397088Y88416D01*
X402586Y92082D02*
X403503Y92998D01*
X405336D01*
X406252Y92082D01*
Y91166D01*
X405336Y90249D01*
X406252Y89333D01*
Y88416D01*
X405336Y87500D01*
X403503D01*
X402586Y88416D01*
Y89333D01*
X403503Y90249D01*
X402586Y91166D01*
Y92082D01*
X403503Y90249D02*
X405336D01*
X395256Y153498D02*
X393423D01*
X394339D01*
Y148916D01*
X393423Y148000D01*
X392506D01*
X391590Y148916D01*
X397088Y152582D02*
X398005Y153498D01*
X399837D01*
X400754Y152582D01*
Y151665D01*
X399837Y150749D01*
X398921D01*
X399837D01*
X400754Y149833D01*
Y148916D01*
X399837Y148000D01*
X398005D01*
X397088Y148916D01*
X402586Y153498D02*
X406252D01*
Y152582D01*
X402586Y148916D01*
Y148000D01*
X1059915Y918832D02*
X1058999Y919748D01*
X1057166D01*
X1056250Y918832D01*
Y915166D01*
X1057166Y914250D01*
X1058999D01*
X1059915Y915166D01*
X1061748Y914250D02*
X1063581D01*
X1062665D01*
Y919748D01*
X1061748Y918832D01*
X1069079Y914250D02*
Y919748D01*
X1066330Y916999D01*
X1069995D01*
X1071828Y915166D02*
X1072745Y914250D01*
X1074577D01*
X1075494Y915166D01*
Y918832D01*
X1074577Y919748D01*
X1072745D01*
X1071828Y918832D01*
Y917915D01*
X1072745Y916999D01*
X1075494D01*
X1060165Y909082D02*
X1059249Y909998D01*
X1057416D01*
X1056500Y909082D01*
Y905416D01*
X1057416Y904500D01*
X1059249D01*
X1060165Y905416D01*
X1061998Y904500D02*
X1063831D01*
X1062915D01*
Y909998D01*
X1061998Y909082D01*
X1070246Y909998D02*
X1066580D01*
Y907249D01*
X1068413Y908166D01*
X1069329D01*
X1070246Y907249D01*
Y905416D01*
X1069329Y904500D01*
X1067496D01*
X1066580Y905416D01*
X1074827Y904500D02*
Y909998D01*
X1072078Y907249D01*
X1075744D01*
X1541168Y916916D02*
X1540252Y915999D01*
Y914166D01*
X1541168Y913250D01*
X1544834D01*
X1545750Y914166D01*
Y915999D01*
X1544834Y916916D01*
X1545750Y918748D02*
Y920581D01*
Y919665D01*
X1540252D01*
X1541168Y918748D01*
Y923330D02*
X1540252Y924246D01*
Y926079D01*
X1541168Y926995D01*
X1542085D01*
X1543001Y926079D01*
Y925163D01*
Y926079D01*
X1543917Y926995D01*
X1544834D01*
X1545750Y926079D01*
Y924246D01*
X1544834Y923330D01*
Y928828D02*
X1545750Y929745D01*
Y931577D01*
X1544834Y932494D01*
X1541168D01*
X1540252Y931577D01*
Y929745D01*
X1541168Y928828D01*
X1542085D01*
X1543001Y929745D01*
Y932494D01*
X1440166Y914582D02*
X1439249Y915498D01*
X1437416D01*
X1436500Y914582D01*
Y910916D01*
X1437416Y910000D01*
X1439249D01*
X1440166Y910916D01*
X1441998Y910000D02*
X1443831D01*
X1442915D01*
Y915498D01*
X1441998Y914582D01*
X1449329Y910000D02*
Y915498D01*
X1446580Y912749D01*
X1450246D01*
X1452078Y914582D02*
X1452995Y915498D01*
X1454827D01*
X1455744Y914582D01*
Y913665D01*
X1454827Y912749D01*
X1455744Y911833D01*
Y910916D01*
X1454827Y910000D01*
X1452995D01*
X1452078Y910916D01*
Y911833D01*
X1452995Y912749D01*
X1452078Y913665D01*
Y914582D01*
X1452995Y912749D02*
X1454827D01*
X1440166Y905582D02*
X1439249Y906498D01*
X1437416D01*
X1436500Y905582D01*
Y901916D01*
X1437416Y901000D01*
X1439249D01*
X1440166Y901916D01*
X1441998Y901000D02*
X1443831D01*
X1442915D01*
Y906498D01*
X1441998Y905582D01*
X1450246Y906498D02*
X1446580D01*
Y903749D01*
X1448413Y904665D01*
X1449329D01*
X1450246Y903749D01*
Y901916D01*
X1449329Y901000D01*
X1447496D01*
X1446580Y901916D01*
X1455744Y901000D02*
X1452078D01*
X1455744Y904665D01*
Y905582D01*
X1454827Y906498D01*
X1452995D01*
X1452078Y905582D01*
X1440166Y896332D02*
X1439249Y897248D01*
X1437416D01*
X1436500Y896332D01*
Y892666D01*
X1437416Y891750D01*
X1439249D01*
X1440166Y892666D01*
X1441998Y891750D02*
X1443831D01*
X1442915D01*
Y897248D01*
X1441998Y896332D01*
X1450246Y897248D02*
X1446580D01*
Y894499D01*
X1448413Y895415D01*
X1449329D01*
X1450246Y894499D01*
Y892666D01*
X1449329Y891750D01*
X1447496D01*
X1446580Y892666D01*
X1452078Y896332D02*
X1452995Y897248D01*
X1454827D01*
X1455744Y896332D01*
Y895415D01*
X1454827Y894499D01*
X1453911D01*
X1454827D01*
X1455744Y893583D01*
Y892666D01*
X1454827Y891750D01*
X1452995D01*
X1452078Y892666D01*
X1516165Y867832D02*
X1515249Y868748D01*
X1513416D01*
X1512500Y867832D01*
Y864166D01*
X1513416Y863250D01*
X1515249D01*
X1516165Y864166D01*
X1517998Y863250D02*
X1519831D01*
X1518915D01*
Y868748D01*
X1517998Y867832D01*
X1526246Y863250D02*
X1522580D01*
X1526246Y866916D01*
Y867832D01*
X1525329Y868748D01*
X1523496D01*
X1522580Y867832D01*
X1528078D02*
X1528995Y868748D01*
X1530827D01*
X1531744Y867832D01*
Y866916D01*
X1530827Y865999D01*
X1531744Y865083D01*
Y864166D01*
X1530827Y863250D01*
X1528995D01*
X1528078Y864166D01*
Y865083D01*
X1528995Y865999D01*
X1528078Y866916D01*
Y867832D01*
X1528995Y865999D02*
X1530827D01*
X1515916Y878832D02*
X1514999Y879748D01*
X1513166D01*
X1512250Y878832D01*
Y875166D01*
X1513166Y874250D01*
X1514999D01*
X1515916Y875166D01*
X1517748Y874250D02*
X1519581D01*
X1518665D01*
Y879748D01*
X1517748Y878832D01*
X1522330D02*
X1523246Y879748D01*
X1525079D01*
X1525996Y878832D01*
Y877915D01*
X1525079Y876999D01*
X1524163D01*
X1525079D01*
X1525996Y876083D01*
Y875166D01*
X1525079Y874250D01*
X1523246D01*
X1522330Y875166D01*
X1527828Y878832D02*
X1528745Y879748D01*
X1530577D01*
X1531494Y878832D01*
Y875166D01*
X1530577Y874250D01*
X1528745D01*
X1527828Y875166D01*
Y878832D01*
X1516165Y890332D02*
X1515249Y891248D01*
X1513416D01*
X1512500Y890332D01*
Y886666D01*
X1513416Y885750D01*
X1515249D01*
X1516165Y886666D01*
X1517998Y885750D02*
X1519831D01*
X1518915D01*
Y891248D01*
X1517998Y890332D01*
X1522580D02*
X1523496Y891248D01*
X1525329D01*
X1526246Y890332D01*
Y889416D01*
X1525329Y888499D01*
X1524413D01*
X1525329D01*
X1526246Y887583D01*
Y886666D01*
X1525329Y885750D01*
X1523496D01*
X1522580Y886666D01*
X1528078Y885750D02*
X1529911D01*
X1528995D01*
Y891248D01*
X1528078Y890332D01*
X123166Y35248D02*
X121333D01*
X122249D01*
Y30666D01*
X121333Y29750D01*
X120416D01*
X119500Y30666D01*
X128664Y29750D02*
X124998D01*
X128664Y33416D01*
Y34332D01*
X127747Y35248D01*
X125915D01*
X124998Y34332D01*
X130496D02*
X131413Y35248D01*
X133245D01*
X134162Y34332D01*
Y33416D01*
X133245Y32499D01*
X134162Y31583D01*
Y30666D01*
X133245Y29750D01*
X131413D01*
X130496Y30666D01*
Y31583D01*
X131413Y32499D01*
X130496Y33416D01*
Y34332D01*
X131413Y32499D02*
X133245D01*
X205166Y21998D02*
X203333D01*
X204249D01*
Y17416D01*
X203333Y16500D01*
X202416D01*
X201500Y17416D01*
X210664Y21998D02*
X206998D01*
Y19249D01*
X208831Y20166D01*
X209747D01*
X210664Y19249D01*
Y17416D01*
X209747Y16500D01*
X207915D01*
X206998Y17416D01*
X187915Y93498D02*
X186083D01*
X186999D01*
Y88916D01*
X186083Y88000D01*
X185166D01*
X184250Y88916D01*
X193414Y88000D02*
X189748D01*
X193414Y91665D01*
Y92582D01*
X192497Y93498D01*
X190665D01*
X189748Y92582D01*
X195246D02*
X196163Y93498D01*
X197995D01*
X198912Y92582D01*
Y88916D01*
X197995Y88000D01*
X196163D01*
X195246Y88916D01*
Y92582D01*
X727166Y802832D02*
X726249Y803748D01*
X724416D01*
X723500Y802832D01*
Y799166D01*
X724416Y798250D01*
X726249D01*
X727166Y799166D01*
X728998Y798250D02*
X730831D01*
X729915D01*
Y803748D01*
X728998Y802832D01*
X733580D02*
X734496Y803748D01*
X736329D01*
X737245Y802832D01*
Y801916D01*
X736329Y800999D01*
X737245Y800083D01*
Y799166D01*
X736329Y798250D01*
X734496D01*
X733580Y799166D01*
Y800083D01*
X734496Y800999D01*
X733580Y801916D01*
Y802832D01*
X734496Y800999D02*
X736329D01*
X742744Y798250D02*
X739078D01*
X742744Y801916D01*
Y802832D01*
X741827Y803748D01*
X739995D01*
X739078Y802832D01*
X728915Y771332D02*
X727999Y772248D01*
X726166D01*
X725250Y771332D01*
Y767666D01*
X726166Y766750D01*
X727999D01*
X728915Y767666D01*
X730748Y766750D02*
X732581D01*
X731665D01*
Y772248D01*
X730748Y771332D01*
X735330D02*
X736246Y772248D01*
X738079D01*
X738996Y771332D01*
Y770415D01*
X738079Y769499D01*
X738996Y768583D01*
Y767666D01*
X738079Y766750D01*
X736246D01*
X735330Y767666D01*
Y768583D01*
X736246Y769499D01*
X735330Y770415D01*
Y771332D01*
X736246Y769499D02*
X738079D01*
X743577Y766750D02*
Y772248D01*
X740828Y769499D01*
X744494D01*
X664168Y880916D02*
X663252Y879999D01*
Y878166D01*
X664168Y877250D01*
X667834D01*
X668750Y878166D01*
Y879999D01*
X667834Y880916D01*
X668750Y882748D02*
Y884581D01*
Y883665D01*
X663252D01*
X664168Y882748D01*
Y887330D02*
X663252Y888247D01*
Y890079D01*
X664168Y890996D01*
X665085D01*
X666001Y890079D01*
X666917Y890996D01*
X667834D01*
X668750Y890079D01*
Y888247D01*
X667834Y887330D01*
X666917D01*
X666001Y888247D01*
X665085Y887330D01*
X664168D01*
X666001Y888247D02*
Y890079D01*
X664168Y892828D02*
X663252Y893745D01*
Y895577D01*
X664168Y896494D01*
X665085D01*
X666001Y895577D01*
Y894661D01*
Y895577D01*
X666917Y896494D01*
X667834D01*
X668750Y895577D01*
Y893745D01*
X667834Y892828D01*
X198000Y1051250D02*
X199833D01*
X198916D01*
Y1056748D01*
X198000Y1055832D01*
X180000Y1081498D02*
Y1076000D01*
Y1077833D01*
X183666Y1081498D01*
X180916Y1078749D01*
X183666Y1076000D01*
X189164Y1081498D02*
X185498D01*
Y1076000D01*
X189164D01*
X185498Y1078749D02*
X187331D01*
X190996Y1081498D02*
Y1080582D01*
X192829Y1078749D01*
X194662Y1080582D01*
Y1081498D01*
X192829Y1078749D02*
Y1076000D01*
X183165Y1048248D02*
X181333D01*
X182249D01*
Y1043666D01*
X181333Y1042750D01*
X180416D01*
X179500Y1043666D01*
X188664Y1042750D02*
X184998D01*
X188664Y1046415D01*
Y1047332D01*
X187747Y1048248D01*
X185915D01*
X184998Y1047332D01*
X194162Y1042750D02*
X190496D01*
X194162Y1046415D01*
Y1047332D01*
X193246Y1048248D01*
X191413D01*
X190496Y1047332D01*
X768416Y848582D02*
X767499Y849498D01*
X765666D01*
X764750Y848582D01*
Y844916D01*
X765666Y844000D01*
X767499D01*
X768416Y844916D01*
X770248Y844000D02*
X772081D01*
X771165D01*
Y849498D01*
X770248Y848582D01*
X774830Y844916D02*
X775747Y844000D01*
X777579D01*
X778495Y844916D01*
Y848582D01*
X777579Y849498D01*
X775747D01*
X774830Y848582D01*
Y847665D01*
X775747Y846749D01*
X778495D01*
X780328Y848582D02*
X781245Y849498D01*
X783077D01*
X783994Y848582D01*
Y847665D01*
X783077Y846749D01*
X782161D01*
X783077D01*
X783994Y845833D01*
Y844916D01*
X783077Y844000D01*
X781245D01*
X780328Y844916D01*
X674918Y711665D02*
X674002Y710749D01*
Y708916D01*
X674918Y708000D01*
X678584D01*
X679500Y708916D01*
Y710749D01*
X678584Y711665D01*
X679500Y713498D02*
Y715331D01*
Y714415D01*
X674002D01*
X674918Y713498D01*
X678584Y718080D02*
X679500Y718997D01*
Y720829D01*
X678584Y721746D01*
X674918D01*
X674002Y720829D01*
Y718997D01*
X674918Y718080D01*
X675835D01*
X676751Y718997D01*
Y721746D01*
X679500Y723578D02*
Y725411D01*
Y724495D01*
X674002D01*
X674918Y723578D01*
X628418Y881165D02*
X627502Y880249D01*
Y878416D01*
X628418Y877500D01*
X632084D01*
X633000Y878416D01*
Y880249D01*
X632084Y881165D01*
X633000Y882998D02*
Y884831D01*
Y883915D01*
X627502D01*
X628418Y882998D01*
X632084Y887580D02*
X633000Y888496D01*
Y890329D01*
X632084Y891245D01*
X628418D01*
X627502Y890329D01*
Y888496D01*
X628418Y887580D01*
X629334D01*
X630251Y888496D01*
Y891245D01*
X628418Y893078D02*
X627502Y893995D01*
Y895827D01*
X628418Y896744D01*
X632084D01*
X633000Y895827D01*
Y893995D01*
X632084Y893078D01*
X628418D01*
X646668Y881165D02*
X645752Y880249D01*
Y878416D01*
X646668Y877500D01*
X650334D01*
X651250Y878416D01*
Y880249D01*
X650334Y881165D01*
X651250Y882998D02*
Y884831D01*
Y883915D01*
X645752D01*
X646668Y882998D01*
Y887580D02*
X645752Y888496D01*
Y890329D01*
X646668Y891245D01*
X647585D01*
X648501Y890329D01*
X649417Y891245D01*
X650334D01*
X651250Y890329D01*
Y888496D01*
X650334Y887580D01*
X649417D01*
X648501Y888496D01*
X647585Y887580D01*
X646668D01*
X648501Y888496D02*
Y890329D01*
X650334Y893078D02*
X651250Y893995D01*
Y895827D01*
X650334Y896744D01*
X646668D01*
X645752Y895827D01*
Y893995D01*
X646668Y893078D01*
X647585D01*
X648501Y893995D01*
Y896744D01*
X546000Y551500D02*
Y553333D01*
Y552416D01*
X540502D01*
X541418Y551500D01*
X573000Y556165D02*
Y552500D01*
X569334Y556165D01*
X568418D01*
X567502Y555249D01*
Y553416D01*
X568418Y552500D01*
X573000Y361500D02*
Y363333D01*
Y362416D01*
X567502D01*
X568418Y361500D01*
Y366082D02*
X567502Y366998D01*
Y368831D01*
X568418Y369747D01*
X572084D01*
X573000Y368831D01*
Y366998D01*
X572084Y366082D01*
X568418D01*
Y371580D02*
X567502Y372496D01*
Y374329D01*
X568418Y375246D01*
X572084D01*
X573000Y374329D01*
Y372496D01*
X572084Y371580D01*
X568418D01*
X545084Y360500D02*
X546000Y361416D01*
Y363249D01*
X545084Y364165D01*
X541418D01*
X540502Y363249D01*
Y361416D01*
X541418Y360500D01*
X542335D01*
X543251Y361416D01*
Y364165D01*
X545084Y365998D02*
X546000Y366915D01*
Y368747D01*
X545084Y369664D01*
X541418D01*
X540502Y368747D01*
Y366915D01*
X541418Y365998D01*
X542335D01*
X543251Y366915D01*
Y369664D01*
X553915Y451248D02*
X552083D01*
X552999D01*
Y446666D01*
X552083Y445750D01*
X551166D01*
X550250Y446666D01*
X555748Y445750D02*
X557581D01*
X556665D01*
Y451248D01*
X555748Y450332D01*
X397165Y659748D02*
X395333D01*
X396249D01*
Y655166D01*
X395333Y654250D01*
X394416D01*
X393500Y655166D01*
X402664Y659748D02*
X398998D01*
Y656999D01*
X400831Y657915D01*
X401747D01*
X402664Y656999D01*
Y655166D01*
X401747Y654250D01*
X399915D01*
X398998Y655166D01*
X404496Y654250D02*
X406329D01*
X405413D01*
Y659748D01*
X404496Y658832D01*
X394250Y695498D02*
Y690000D01*
Y691833D01*
X397915Y695498D01*
X395166Y692749D01*
X397915Y690000D01*
X403414Y695498D02*
X399748D01*
Y690000D01*
X403414D01*
X399748Y692749D02*
X401581D01*
X405246Y695498D02*
Y694582D01*
X407079Y692749D01*
X408912Y694582D01*
Y695498D01*
X407079Y692749D02*
Y690000D01*
X412250Y665250D02*
X414083D01*
X413166D01*
Y670748D01*
X412250Y669832D01*
X1344750Y764998D02*
X1348416D01*
X1346583D01*
Y759500D01*
X1350248D02*
Y764998D01*
X1352997D01*
X1353914Y764082D01*
Y762249D01*
X1352997Y761333D01*
X1350248D01*
X1355746Y764082D02*
X1356663Y764998D01*
X1358495D01*
X1359412Y764082D01*
Y763166D01*
X1358495Y762249D01*
X1359412Y761333D01*
Y760416D01*
X1358495Y759500D01*
X1356663D01*
X1355746Y760416D01*
Y761333D01*
X1356663Y762249D01*
X1355746Y763166D01*
Y764082D01*
X1356663Y762249D02*
X1358495D01*
X1533418Y218916D02*
X1532502Y217999D01*
Y216166D01*
X1533418Y215250D01*
X1537084D01*
X1538000Y216166D01*
Y217999D01*
X1537084Y218916D01*
X1538000Y220748D02*
Y222581D01*
Y221665D01*
X1532502D01*
X1533418Y220748D01*
X1521668Y159416D02*
X1520752Y158499D01*
Y156666D01*
X1521668Y155750D01*
X1525334D01*
X1526250Y156666D01*
Y158499D01*
X1525334Y159416D01*
X1526250Y164914D02*
Y161248D01*
X1522585Y164914D01*
X1521668D01*
X1520752Y163997D01*
Y162165D01*
X1521668Y161248D01*
X1517500Y179250D02*
X1512002D01*
Y181999D01*
X1512918Y182915D01*
X1514751D01*
X1515667Y181999D01*
Y179250D01*
Y181083D02*
X1517500Y182915D01*
X1512002Y184748D02*
Y188414D01*
X1512918D01*
X1516584Y184748D01*
X1517500D01*
X1502166Y445748D02*
X1500333D01*
X1501249D01*
Y441166D01*
X1500333Y440250D01*
X1499416D01*
X1498500Y441166D01*
X1503998Y440250D02*
X1505831D01*
X1504915D01*
Y445748D01*
X1503998Y444832D01*
X1508580Y440250D02*
X1510413D01*
X1509496D01*
Y445748D01*
X1508580Y444832D01*
X1399165Y368998D02*
X1397333D01*
X1398249D01*
Y364416D01*
X1397333Y363500D01*
X1396416D01*
X1395500Y364416D01*
X1400998Y368082D02*
X1401915Y368998D01*
X1403747D01*
X1404664Y368082D01*
Y367165D01*
X1403747Y366249D01*
X1402831D01*
X1403747D01*
X1404664Y365333D01*
Y364416D01*
X1403747Y363500D01*
X1401915D01*
X1400998Y364416D01*
X1409245Y363500D02*
Y368998D01*
X1406496Y366249D01*
X1410162D01*
X1422250Y372750D02*
Y374583D01*
Y373666D01*
X1418584D01*
Y372750D01*
X1422250Y377332D02*
X1418584D01*
Y380081D01*
X1419501Y380997D01*
X1422250D01*
X182750Y717500D02*
Y722998D01*
X185499D01*
X186416Y722082D01*
Y720249D01*
X185499Y719333D01*
X182750D01*
X184583D02*
X186416Y717500D01*
X188248D02*
X190081D01*
X189165D01*
Y722998D01*
X188248Y722082D01*
X192830Y718416D02*
X193746Y717500D01*
X195579D01*
X196495Y718416D01*
Y722082D01*
X195579Y722998D01*
X193746D01*
X192830Y722082D01*
Y721165D01*
X193746Y720249D01*
X196495D01*
X198328Y722082D02*
X199245Y722998D01*
X201077D01*
X201994Y722082D01*
Y721165D01*
X201077Y720249D01*
X200161D01*
X201077D01*
X201994Y719333D01*
Y718416D01*
X201077Y717500D01*
X199245D01*
X198328Y718416D01*
X179250Y589998D02*
X182915D01*
X181083D01*
Y584500D01*
X184748D02*
Y589998D01*
X187497D01*
X188414Y589082D01*
Y587249D01*
X187497Y586333D01*
X184748D01*
X193912Y589998D02*
X192079Y589082D01*
X190246Y587249D01*
Y585416D01*
X191163Y584500D01*
X192995D01*
X193912Y585416D01*
Y586333D01*
X192995Y587249D01*
X190246D01*
X141918Y721915D02*
X141002Y720999D01*
Y719166D01*
X141918Y718250D01*
X145584D01*
X146500Y719166D01*
Y720999D01*
X145584Y721915D01*
X146500Y743000D02*
X142835D01*
X141002Y744833D01*
X142835Y746665D01*
X146500D01*
X143751D01*
Y743000D01*
X125252Y718500D02*
X130750D01*
Y721249D01*
X129834Y722166D01*
X126168D01*
X125252Y721249D01*
Y718500D01*
Y727664D02*
Y723998D01*
X128001D01*
X127085Y725831D01*
Y726747D01*
X128001Y727664D01*
X129834D01*
X130750Y726747D01*
Y724915D01*
X129834Y723998D01*
X750000Y122500D02*
X744502D01*
Y125249D01*
X745418Y126166D01*
X747251D01*
X748167Y125249D01*
Y122500D01*
Y124333D02*
X750000Y126166D01*
Y127998D02*
Y129831D01*
Y128915D01*
X744502D01*
X745418Y127998D01*
Y132580D02*
X744502Y133497D01*
Y135329D01*
X745418Y136245D01*
X749084D01*
X750000Y135329D01*
Y133497D01*
X749084Y132580D01*
X745418D01*
X744502Y138078D02*
Y141744D01*
X745418D01*
X749084Y138078D01*
X750000D01*
X783750Y122000D02*
X778252D01*
Y124749D01*
X779168Y125666D01*
X781001D01*
X781917Y124749D01*
Y122000D01*
Y123833D02*
X783750Y125666D01*
Y127498D02*
Y129331D01*
Y128415D01*
X778252D01*
X779168Y127498D01*
Y132080D02*
X778252Y132997D01*
Y134829D01*
X779168Y135746D01*
X782834D01*
X783750Y134829D01*
Y132997D01*
X782834Y132080D01*
X779168D01*
Y137578D02*
X778252Y138495D01*
Y140327D01*
X779168Y141244D01*
X780085D01*
X781001Y140327D01*
X781917Y141244D01*
X782834D01*
X783750Y140327D01*
Y138495D01*
X782834Y137578D01*
X781917D01*
X781001Y138495D01*
X780085Y137578D01*
X779168D01*
X781001Y138495D02*
Y140327D01*
X760750Y189500D02*
X755252D01*
Y192249D01*
X756168Y193165D01*
X758001D01*
X758917Y192249D01*
Y189500D01*
Y191333D02*
X760750Y193165D01*
Y194998D02*
Y196831D01*
Y195915D01*
X755252D01*
X756168Y194998D01*
X760750Y199580D02*
Y201413D01*
Y200496D01*
X755252D01*
X756168Y199580D01*
X755252Y207827D02*
X756168Y205995D01*
X758001Y204162D01*
X759834D01*
X760750Y205078D01*
Y206911D01*
X759834Y207827D01*
X758917D01*
X758001Y206911D01*
Y204162D01*
X778000Y144500D02*
X772502D01*
Y147249D01*
X773418Y148166D01*
X775251D01*
X776167Y147249D01*
Y144500D01*
Y146333D02*
X778000Y148166D01*
Y149998D02*
Y151831D01*
Y150915D01*
X772502D01*
X773418Y149998D01*
X778000Y154580D02*
Y156413D01*
Y155496D01*
X772502D01*
X773418Y154580D01*
Y159162D02*
X772502Y160078D01*
Y161911D01*
X773418Y162827D01*
X777084D01*
X778000Y161911D01*
Y160078D01*
X777084Y159162D01*
X773418D01*
X744668Y182166D02*
X743752Y181249D01*
Y179416D01*
X744668Y178500D01*
X748334D01*
X749250Y179416D01*
Y181249D01*
X748334Y182166D01*
X743752Y183998D02*
Y187664D01*
X744668D01*
X748334Y183998D01*
X749250D01*
X744668Y189496D02*
X743752Y190413D01*
Y192246D01*
X744668Y193162D01*
X748334D01*
X749250Y192246D01*
Y190413D01*
X748334Y189496D01*
X744668D01*
X773500Y189750D02*
X768002D01*
Y192499D01*
X768918Y193416D01*
X770751D01*
X771667Y192499D01*
Y189750D01*
Y191583D02*
X773500Y193416D01*
Y195248D02*
Y197081D01*
Y196165D01*
X768002D01*
X768918Y195248D01*
X773500Y199830D02*
Y201663D01*
Y200746D01*
X768002D01*
X768918Y199830D01*
X773500Y208077D02*
Y204412D01*
X769835Y208077D01*
X768918D01*
X768002Y207161D01*
Y205328D01*
X768918Y204412D01*
X730000Y210000D02*
Y215498D01*
X732749D01*
X733665Y214582D01*
Y212749D01*
X732749Y211833D01*
X730000D01*
X731833D02*
X733665Y210000D01*
X735498D02*
X737331D01*
X736415D01*
Y215498D01*
X735498Y214582D01*
X743745Y210000D02*
X740080D01*
X743745Y213666D01*
Y214582D01*
X742829Y215498D01*
X740996D01*
X740080Y214582D01*
X745578Y210000D02*
X747411D01*
X746495D01*
Y215498D01*
X745578Y214582D01*
X706750Y210250D02*
Y215748D01*
X709499D01*
X710415Y214832D01*
Y212999D01*
X709499Y212083D01*
X706750D01*
X708583D02*
X710415Y210250D01*
X712248D02*
X714081D01*
X713165D01*
Y215748D01*
X712248Y214832D01*
X720496Y210250D02*
X716830D01*
X720496Y213916D01*
Y214832D01*
X719579Y215748D01*
X717746D01*
X716830Y214832D01*
X725994Y210250D02*
X722328D01*
X725994Y213916D01*
Y214832D01*
X725077Y215748D01*
X723245D01*
X722328Y214832D01*
X563750Y859250D02*
Y864748D01*
X566499D01*
X567416Y863832D01*
Y861999D01*
X566499Y861083D01*
X563750D01*
X565583D02*
X567416Y859250D01*
X569248D02*
X571081D01*
X570165D01*
Y864748D01*
X569248Y863832D01*
X573830Y860166D02*
X574747Y859250D01*
X576579D01*
X577495Y860166D01*
Y863832D01*
X576579Y864748D01*
X574747D01*
X573830Y863832D01*
Y862915D01*
X574747Y861999D01*
X577495D01*
X582077Y859250D02*
Y864748D01*
X579328Y861999D01*
X582994D01*
X598166Y864832D02*
X597249Y865748D01*
X595416D01*
X594500Y864832D01*
Y861166D01*
X595416Y860250D01*
X597249D01*
X598166Y861166D01*
X599998Y860250D02*
X601831D01*
X600915D01*
Y865748D01*
X599998Y864832D01*
X604580Y861166D02*
X605496Y860250D01*
X607329D01*
X608246Y861166D01*
Y864832D01*
X607329Y865748D01*
X605496D01*
X604580Y864832D01*
Y863915D01*
X605496Y862999D01*
X608246D01*
X613744Y865748D02*
X610078D01*
Y862999D01*
X611911Y863915D01*
X612827D01*
X613744Y862999D01*
Y861166D01*
X612827Y860250D01*
X610995D01*
X610078Y861166D01*
X718915Y787082D02*
X717999Y787998D01*
X716166D01*
X715250Y787082D01*
Y783416D01*
X716166Y782500D01*
X717999D01*
X718915Y783416D01*
X720748Y782500D02*
X722581D01*
X721665D01*
Y787998D01*
X720748Y787082D01*
X725330Y783416D02*
X726246Y782500D01*
X728079D01*
X728996Y783416D01*
Y787082D01*
X728079Y787998D01*
X726246D01*
X725330Y787082D01*
Y786165D01*
X726246Y785249D01*
X728996D01*
X734494Y782500D02*
X730828D01*
X734494Y786165D01*
Y787082D01*
X733577Y787998D01*
X731745D01*
X730828Y787082D01*
X768665Y889832D02*
X767749Y890748D01*
X765916D01*
X765000Y889832D01*
Y886166D01*
X765916Y885250D01*
X767749D01*
X768665Y886166D01*
X770498Y885250D02*
X772331D01*
X771415D01*
Y890748D01*
X770498Y889832D01*
X775080Y886166D02*
X775996Y885250D01*
X777829D01*
X778745Y886166D01*
Y889832D01*
X777829Y890748D01*
X775996D01*
X775080Y889832D01*
Y888915D01*
X775996Y887999D01*
X778745D01*
X783327Y885250D02*
Y890748D01*
X780578Y887999D01*
X784244D01*
X870103Y16525D02*
X875601D01*
Y20190D01*
X870103Y25689D02*
Y22023D01*
X875601D01*
Y25689D01*
X872852Y22023D02*
Y23856D01*
X870103Y27522D02*
X875601D01*
Y30271D01*
X874685Y31187D01*
X871019D01*
X870103Y30271D01*
Y27522D01*
X871019Y33020D02*
X870103Y33936D01*
Y35769D01*
X871019Y36685D01*
X871936D01*
X872852Y35769D01*
Y34852D01*
Y35769D01*
X873768Y36685D01*
X874685D01*
X875601Y35769D01*
Y33936D01*
X874685Y33020D01*
X886269Y35940D02*
X885353Y35024D01*
Y33191D01*
X886269Y32275D01*
X889935D01*
X890851Y33191D01*
Y35024D01*
X889935Y35940D01*
X890851Y14275D02*
X887186D01*
X885353Y16108D01*
X887186Y17940D01*
X890851D01*
X888102D01*
Y14275D01*
X1025851Y54250D02*
Y59748D01*
X1027684Y57916D01*
X1029517Y59748D01*
Y54250D01*
X1035015Y59748D02*
X1031349D01*
Y54250D01*
X1035015D01*
X1031349Y56999D02*
X1033182D01*
X1040513Y58832D02*
X1039596Y59748D01*
X1037764D01*
X1036847Y58832D01*
Y55166D01*
X1037764Y54250D01*
X1039596D01*
X1040513Y55166D01*
X1042346Y59748D02*
Y54250D01*
Y56999D01*
X1046011D01*
Y59748D01*
Y54250D01*
X1051509Y59748D02*
X1047844D01*
Y56999D01*
X1049677Y57916D01*
X1050593D01*
X1051509Y56999D01*
Y55166D01*
X1050593Y54250D01*
X1048760D01*
X1047844Y55166D01*
X795103Y16525D02*
X800601D01*
Y20190D01*
X795103Y25689D02*
Y22023D01*
X800601D01*
Y25689D01*
X797852Y22023D02*
Y23856D01*
X795103Y27522D02*
X800601D01*
Y30271D01*
X799685Y31187D01*
X796019D01*
X795103Y30271D01*
Y27522D01*
X800601Y36685D02*
Y33020D01*
X796936Y36685D01*
X796019D01*
X795103Y35769D01*
Y33936D01*
X796019Y33020D01*
X811269Y35940D02*
X810353Y35024D01*
Y33191D01*
X811269Y32275D01*
X814935D01*
X815851Y33191D01*
Y35024D01*
X814935Y35940D01*
X815851Y14275D02*
X812186D01*
X810353Y16108D01*
X812186Y17940D01*
X815851D01*
X813102D01*
Y14275D01*
X950851Y54275D02*
Y59773D01*
X952684Y57941D01*
X954517Y59773D01*
Y54275D01*
X960015Y59773D02*
X956349D01*
Y54275D01*
X960015D01*
X956349Y57024D02*
X958182D01*
X965513Y58857D02*
X964596Y59773D01*
X962764D01*
X961847Y58857D01*
Y55191D01*
X962764Y54275D01*
X964596D01*
X965513Y55191D01*
X967346Y59773D02*
Y54275D01*
Y57024D01*
X971011D01*
Y59773D01*
Y54275D01*
X975593D02*
Y59773D01*
X972844Y57024D01*
X976509D01*
X720103Y16525D02*
X725601D01*
Y20190D01*
X720103Y25689D02*
Y22023D01*
X725601D01*
Y25689D01*
X722852Y22023D02*
Y23856D01*
X720103Y27522D02*
X725601D01*
Y30271D01*
X724685Y31187D01*
X721019D01*
X720103Y30271D01*
Y27522D01*
X725601Y33020D02*
Y34852D01*
Y33936D01*
X720103D01*
X721019Y33020D01*
X736269Y35940D02*
X735353Y35024D01*
Y33191D01*
X736269Y32275D01*
X739935D01*
X740851Y33191D01*
Y35024D01*
X739935Y35940D01*
X740851Y14275D02*
X737186D01*
X735353Y16108D01*
X737186Y17940D01*
X740851D01*
X738102D01*
Y14275D01*
X875851Y54275D02*
Y59773D01*
X877684Y57941D01*
X879517Y59773D01*
Y54275D01*
X885015Y59773D02*
X881349D01*
Y54275D01*
X885015D01*
X881349Y57024D02*
X883182D01*
X890513Y58857D02*
X889596Y59773D01*
X887764D01*
X886847Y58857D01*
Y55191D01*
X887764Y54275D01*
X889596D01*
X890513Y55191D01*
X892346Y59773D02*
Y54275D01*
Y57024D01*
X896011D01*
Y59773D01*
Y54275D01*
X897844Y58857D02*
X898760Y59773D01*
X900593D01*
X901509Y58857D01*
Y57941D01*
X900593Y57024D01*
X899677D01*
X900593D01*
X901509Y56108D01*
Y55191D01*
X900593Y54275D01*
X898760D01*
X897844Y55191D01*
X800851Y54275D02*
Y59773D01*
X802684Y57941D01*
X804517Y59773D01*
Y54275D01*
X810015Y59773D02*
X806349D01*
Y54275D01*
X810015D01*
X806349Y57024D02*
X808182D01*
X815513Y58857D02*
X814596Y59773D01*
X812764D01*
X811847Y58857D01*
Y55191D01*
X812764Y54275D01*
X814596D01*
X815513Y55191D01*
X817346Y59773D02*
Y54275D01*
Y57024D01*
X821011D01*
Y59773D01*
Y54275D01*
X826509D02*
X822844D01*
X826509Y57941D01*
Y58857D01*
X825593Y59773D01*
X823760D01*
X822844Y58857D01*
X1020103Y16500D02*
X1025601D01*
Y20166D01*
X1020103Y25664D02*
Y21998D01*
X1025601D01*
Y25664D01*
X1022852Y21998D02*
Y23831D01*
X1020103Y27497D02*
X1025601D01*
Y30246D01*
X1024685Y31162D01*
X1021019D01*
X1020103Y30246D01*
Y27497D01*
Y36660D02*
Y32995D01*
X1022852D01*
X1021936Y34827D01*
Y35744D01*
X1022852Y36660D01*
X1024685D01*
X1025601Y35744D01*
Y33911D01*
X1024685Y32995D01*
X1036269Y35916D02*
X1035353Y34999D01*
Y33166D01*
X1036269Y32250D01*
X1039935D01*
X1040851Y33166D01*
Y34999D01*
X1039935Y35916D01*
X1040851Y14250D02*
X1037186D01*
X1035353Y16083D01*
X1037186Y17916D01*
X1040851D01*
X1038102D01*
Y14250D01*
X725851Y54275D02*
Y59773D01*
X727684Y57941D01*
X729517Y59773D01*
Y54275D01*
X735015Y59773D02*
X731349D01*
Y54275D01*
X735015D01*
X731349Y57024D02*
X733182D01*
X740513Y58857D02*
X739596Y59773D01*
X737764D01*
X736847Y58857D01*
Y55191D01*
X737764Y54275D01*
X739596D01*
X740513Y55191D01*
X742346Y59773D02*
Y54275D01*
Y57024D01*
X746011D01*
Y59773D01*
Y54275D01*
X747844D02*
X749677D01*
X748760D01*
Y59773D01*
X747844Y58857D01*
X945103Y16500D02*
X950601D01*
Y20166D01*
X945103Y25664D02*
Y21998D01*
X950601D01*
Y25664D01*
X947852Y21998D02*
Y23831D01*
X945103Y27497D02*
X950601D01*
Y30246D01*
X949685Y31162D01*
X946019D01*
X945103Y30246D01*
Y27497D01*
X950601Y35744D02*
X945103D01*
X947852Y32995D01*
Y36660D01*
X961269Y35916D02*
X960353Y34999D01*
Y33166D01*
X961269Y32250D01*
X964935D01*
X965851Y33166D01*
Y34999D01*
X964935Y35916D01*
X965851Y14250D02*
X962186D01*
X960353Y16083D01*
X962186Y17916D01*
X965851D01*
X963102D01*
Y14250D01*
X945000Y1070000D02*
X941335D01*
X939502Y1071833D01*
X941335Y1073665D01*
X945000D01*
X942251D01*
Y1070000D01*
X940418Y1091665D02*
X939502Y1090749D01*
Y1088916D01*
X940418Y1088000D01*
X944084D01*
X945000Y1088916D01*
Y1090749D01*
X944084Y1091665D01*
X952252Y1070500D02*
X957750D01*
Y1074165D01*
X952252Y1079664D02*
Y1075998D01*
X957750D01*
Y1079664D01*
X955001Y1075998D02*
Y1077831D01*
X952252Y1081496D02*
X957750D01*
Y1084246D01*
X956834Y1085162D01*
X953168D01*
X952252Y1084246D01*
Y1081496D01*
Y1086995D02*
Y1090660D01*
X953168D01*
X956834Y1086995D01*
X957750D01*
X1561250Y800750D02*
Y806248D01*
X1563083Y804416D01*
X1564915Y806248D01*
Y800750D01*
X1570414Y806248D02*
X1566748D01*
Y800750D01*
X1570414D01*
X1566748Y803499D02*
X1568581D01*
X1575912Y805332D02*
X1574996Y806248D01*
X1573163D01*
X1572246Y805332D01*
Y801666D01*
X1573163Y800750D01*
X1574996D01*
X1575912Y801666D01*
X1577745Y806248D02*
Y800750D01*
Y803499D01*
X1581410D01*
Y806248D01*
Y800750D01*
X1583243Y801666D02*
X1584159Y800750D01*
X1585992D01*
X1586908Y801666D01*
Y805332D01*
X1585992Y806248D01*
X1584159D01*
X1583243Y805332D01*
Y804416D01*
X1584159Y803499D01*
X1586908D01*
X1514750Y810250D02*
Y815748D01*
X1517499D01*
X1518416Y814832D01*
Y812999D01*
X1517499Y812083D01*
X1514750D01*
X1516583D02*
X1518416Y810250D01*
X1523914Y815748D02*
X1520248D01*
Y812999D01*
X1522081D01*
X1520248D01*
Y810250D01*
X1531245D02*
X1533994D01*
X1534910Y811166D01*
X1533994Y812083D01*
X1532161D01*
X1531245Y812999D01*
X1532161Y813915D01*
X1534910D01*
X1536743Y815748D02*
Y810250D01*
Y812999D01*
X1537659Y813915D01*
X1539492D01*
X1540408Y812999D01*
Y810250D01*
X1542241D02*
X1544074D01*
X1543157D01*
Y813915D01*
X1542241D01*
X1549572Y810250D02*
X1547739D01*
X1546823Y811166D01*
Y812999D01*
X1547739Y813915D01*
X1549572D01*
X1550488Y812999D01*
Y812083D01*
X1546823D01*
X1552321Y810250D02*
X1554154D01*
X1553237D01*
Y815748D01*
X1552321D01*
X1560569D02*
Y810250D01*
X1557819D01*
X1556903Y811166D01*
Y812999D01*
X1557819Y813915D01*
X1560569D01*
X1568816Y810250D02*
Y814832D01*
Y812999D01*
X1567899D01*
X1569732D01*
X1568816D01*
Y814832D01*
X1569732Y815748D01*
X1572481Y813915D02*
Y810250D01*
Y812083D01*
X1573398Y812999D01*
X1574314Y813915D01*
X1575230D01*
X1578896D02*
X1580729D01*
X1581645Y812999D01*
Y810250D01*
X1578896D01*
X1577979Y811166D01*
X1578896Y812083D01*
X1581645D01*
X1583478Y810250D02*
Y813915D01*
X1584394D01*
X1585310Y812999D01*
Y810250D01*
Y812999D01*
X1586227Y813915D01*
X1587143Y812999D01*
Y810250D01*
X1591725D02*
X1589892D01*
X1588976Y811166D01*
Y812999D01*
X1589892Y813915D01*
X1591725D01*
X1592641Y812999D01*
Y812083D01*
X1588976D01*
X1323000Y800500D02*
Y805998D01*
X1324833Y804165D01*
X1326665Y805998D01*
Y800500D01*
X1332164Y805998D02*
X1328498D01*
Y800500D01*
X1332164D01*
X1328498Y803249D02*
X1330331D01*
X1337662Y805082D02*
X1336745Y805998D01*
X1334913D01*
X1333996Y805082D01*
Y801416D01*
X1334913Y800500D01*
X1336745D01*
X1337662Y801416D01*
X1339495Y805998D02*
Y800500D01*
Y803249D01*
X1343160D01*
Y805998D01*
Y800500D01*
X1344993Y805998D02*
X1348658D01*
Y805082D01*
X1344993Y801416D01*
Y800500D01*
X1322750Y810250D02*
Y815748D01*
X1325499D01*
X1326416Y814832D01*
Y812999D01*
X1325499Y812083D01*
X1322750D01*
X1324583D02*
X1326416Y810250D01*
X1331914Y815748D02*
X1328248D01*
Y812999D01*
X1330081D01*
X1328248D01*
Y810250D01*
X1339245D02*
X1341994D01*
X1342910Y811166D01*
X1341994Y812083D01*
X1340161D01*
X1339245Y812999D01*
X1340161Y813915D01*
X1342910D01*
X1344743Y815748D02*
Y810250D01*
Y812999D01*
X1345659Y813915D01*
X1347492D01*
X1348408Y812999D01*
Y810250D01*
X1350241D02*
X1352074D01*
X1351157D01*
Y813915D01*
X1350241D01*
X1357572Y810250D02*
X1355739D01*
X1354823Y811166D01*
Y812999D01*
X1355739Y813915D01*
X1357572D01*
X1358488Y812999D01*
Y812083D01*
X1354823D01*
X1360321Y810250D02*
X1362154D01*
X1361237D01*
Y815748D01*
X1360321D01*
X1368569D02*
Y810250D01*
X1365819D01*
X1364903Y811166D01*
Y812999D01*
X1365819Y813915D01*
X1368569D01*
X1376816Y810250D02*
Y814832D01*
Y812999D01*
X1375899D01*
X1377732D01*
X1376816D01*
Y814832D01*
X1377732Y815748D01*
X1380481Y813915D02*
Y810250D01*
Y812083D01*
X1381398Y812999D01*
X1382314Y813915D01*
X1383230D01*
X1386896D02*
X1388729D01*
X1389645Y812999D01*
Y810250D01*
X1386896D01*
X1385979Y811166D01*
X1386896Y812083D01*
X1389645D01*
X1391478Y810250D02*
Y813915D01*
X1392394D01*
X1393310Y812999D01*
Y810250D01*
Y812999D01*
X1394227Y813915D01*
X1395143Y812999D01*
Y810250D01*
X1399725D02*
X1397892D01*
X1396976Y811166D01*
Y812999D01*
X1397892Y813915D01*
X1399725D01*
X1400641Y812999D01*
Y812083D01*
X1396976D01*
X943500Y801750D02*
Y807248D01*
X945333Y805415D01*
X947166Y807248D01*
Y801750D01*
X952664Y807248D02*
X948998D01*
Y801750D01*
X952664D01*
X948998Y804499D02*
X950831D01*
X958162Y806332D02*
X957245Y807248D01*
X955413D01*
X954496Y806332D01*
Y802666D01*
X955413Y801750D01*
X957245D01*
X958162Y802666D01*
X959995Y807248D02*
Y801750D01*
Y804499D01*
X963660D01*
Y807248D01*
Y801750D01*
X965493Y806332D02*
X966409Y807248D01*
X968242D01*
X969158Y806332D01*
Y805415D01*
X968242Y804499D01*
X969158Y803583D01*
Y802666D01*
X968242Y801750D01*
X966409D01*
X965493Y802666D01*
Y803583D01*
X966409Y804499D01*
X965493Y805415D01*
Y806332D01*
X966409Y804499D02*
X968242D01*
X944000Y810250D02*
Y815748D01*
X946749D01*
X947665Y814832D01*
Y812999D01*
X946749Y812083D01*
X944000D01*
X945833D02*
X947665Y810250D01*
X953164Y815748D02*
X949498D01*
Y812999D01*
X951331D01*
X949498D01*
Y810250D01*
X960495D02*
X963244D01*
X964160Y811166D01*
X963244Y812083D01*
X961411D01*
X960495Y812999D01*
X961411Y813915D01*
X964160D01*
X965993Y815748D02*
Y810250D01*
Y812999D01*
X966909Y813915D01*
X968742D01*
X969658Y812999D01*
Y810250D01*
X971491D02*
X973324D01*
X972407D01*
Y813915D01*
X971491D01*
X978822Y810250D02*
X976989D01*
X976073Y811166D01*
Y812999D01*
X976989Y813915D01*
X978822D01*
X979738Y812999D01*
Y812083D01*
X976073D01*
X981571Y810250D02*
X983404D01*
X982487D01*
Y815748D01*
X981571D01*
X989818D02*
Y810250D01*
X987069D01*
X986153Y811166D01*
Y812999D01*
X987069Y813915D01*
X989818D01*
X998066Y810250D02*
Y814832D01*
Y812999D01*
X997149D01*
X998982D01*
X998066D01*
Y814832D01*
X998982Y815748D01*
X1001731Y813915D02*
Y810250D01*
Y812083D01*
X1002648Y812999D01*
X1003564Y813915D01*
X1004480D01*
X1008146D02*
X1009978D01*
X1010895Y812999D01*
Y810250D01*
X1008146D01*
X1007230Y811166D01*
X1008146Y812083D01*
X1010895D01*
X1012728Y810250D02*
Y813915D01*
X1013644D01*
X1014560Y812999D01*
Y810250D01*
Y812999D01*
X1015477Y813915D01*
X1016393Y812999D01*
Y810250D01*
X1020975D02*
X1019142D01*
X1018226Y811166D01*
Y812999D01*
X1019142Y813915D01*
X1020975D01*
X1021891Y812999D01*
Y812083D01*
X1018226D01*
X1072400Y809250D02*
X1074233D01*
X1073317D01*
Y812916D01*
X1072400D01*
X1076982Y809250D02*
Y812916D01*
X1079731D01*
X1080648Y811999D01*
Y809250D01*
X1073066Y785498D02*
X1071233D01*
X1072149D01*
Y780917D01*
X1071233Y780000D01*
X1070317D01*
X1069400Y780917D01*
X1077648Y780000D02*
Y785498D01*
X1074899Y782749D01*
X1078564D01*
X1084062Y785498D02*
X1082230Y784582D01*
X1080397Y782749D01*
Y780917D01*
X1081313Y780000D01*
X1083146D01*
X1084062Y780917D01*
Y781833D01*
X1083146Y782749D01*
X1080397D01*
X1452400Y809250D02*
X1454233D01*
X1453317D01*
Y812916D01*
X1452400D01*
X1456982Y809250D02*
Y812916D01*
X1459731D01*
X1460648Y811999D01*
Y809250D01*
X1453066Y785498D02*
X1451233D01*
X1452149D01*
Y780917D01*
X1451233Y780000D01*
X1450317D01*
X1449400Y780917D01*
X1457648Y780000D02*
Y785498D01*
X1454899Y782749D01*
X1458564D01*
X1464062Y785498D02*
X1460397D01*
Y782749D01*
X1462229Y783666D01*
X1463146D01*
X1464062Y782749D01*
Y780917D01*
X1463146Y780000D01*
X1461313D01*
X1460397Y780917D01*
X1262400Y809250D02*
X1264233D01*
X1263317D01*
Y812916D01*
X1262400D01*
X1266982Y809250D02*
Y812916D01*
X1269731D01*
X1270648Y811999D01*
Y809250D01*
X1263066Y785498D02*
X1261233D01*
X1262149D01*
Y780917D01*
X1261233Y780000D01*
X1260317D01*
X1259400Y780917D01*
X1267648Y780000D02*
Y785498D01*
X1264899Y782749D01*
X1268564D01*
X1274062Y780000D02*
X1270397D01*
X1274062Y783666D01*
Y784582D01*
X1273146Y785498D01*
X1271313D01*
X1270397Y784582D01*
X1642400Y809250D02*
X1644233D01*
X1643317D01*
Y812916D01*
X1642400D01*
X1646982Y809250D02*
Y812916D01*
X1649731D01*
X1650648Y811999D01*
Y809250D01*
X1643066Y785498D02*
X1641233D01*
X1642149D01*
Y780917D01*
X1641233Y780000D01*
X1640317D01*
X1639400Y780917D01*
X1647648Y780000D02*
Y785498D01*
X1644898Y782749D01*
X1648564D01*
X1650397Y780000D02*
X1652229D01*
X1651313D01*
Y785498D01*
X1650397Y784582D01*
X83666Y504748D02*
X81833D01*
X82749D01*
Y500166D01*
X81833Y499250D01*
X80916D01*
X80000Y500166D01*
X85498Y499250D02*
X87331D01*
X86415D01*
Y504748D01*
X85498Y503832D01*
X93745Y499250D02*
X90080D01*
X93745Y502915D01*
Y503832D01*
X92829Y504748D01*
X90996D01*
X90080Y503832D01*
X137002Y939165D02*
Y937333D01*
Y938249D01*
X141584D01*
X142500Y937333D01*
Y936416D01*
X141584Y935500D01*
X142500Y940998D02*
Y942831D01*
Y941915D01*
X137002D01*
X137918Y940998D01*
X141584Y945580D02*
X142500Y946497D01*
Y948329D01*
X141584Y949246D01*
X137918D01*
X137002Y948329D01*
Y946497D01*
X137918Y945580D01*
X138834D01*
X139751Y946497D01*
Y949246D01*
X258415Y1044498D02*
X256583D01*
X257499D01*
Y1039916D01*
X256583Y1039000D01*
X255666D01*
X254750Y1039916D01*
X260248Y1043582D02*
X261164Y1044498D01*
X262997D01*
X263914Y1043582D01*
Y1042665D01*
X262997Y1041749D01*
X262081D01*
X262997D01*
X263914Y1040833D01*
Y1039916D01*
X262997Y1039000D01*
X261164D01*
X260248Y1039916D01*
X265746Y1043582D02*
X266663Y1044498D01*
X268495D01*
X269412Y1043582D01*
Y1042665D01*
X268495Y1041749D01*
X267579D01*
X268495D01*
X269412Y1040833D01*
Y1039916D01*
X268495Y1039000D01*
X266663D01*
X265746Y1039916D01*
X407165Y1043248D02*
X405333D01*
X406249D01*
Y1038666D01*
X405333Y1037750D01*
X404416D01*
X403500Y1038666D01*
X408998Y1042332D02*
X409915Y1043248D01*
X411747D01*
X412664Y1042332D01*
Y1041415D01*
X411747Y1040499D01*
X410831D01*
X411747D01*
X412664Y1039583D01*
Y1038666D01*
X411747Y1037750D01*
X409915D01*
X408998Y1038666D01*
X418162Y1043248D02*
X416329Y1042332D01*
X414496Y1040499D01*
Y1038666D01*
X415413Y1037750D01*
X417245D01*
X418162Y1038666D01*
Y1039583D01*
X417245Y1040499D01*
X414496D01*
X276255Y153498D02*
X274423D01*
X275339D01*
Y148916D01*
X274423Y148000D01*
X273506D01*
X272590Y148916D01*
X280837Y148000D02*
Y153498D01*
X278088Y150749D01*
X281754D01*
X283586Y152582D02*
X284503Y153498D01*
X286335D01*
X287252Y152582D01*
Y148916D01*
X286335Y148000D01*
X284503D01*
X283586Y148916D01*
Y152582D01*
X1674000Y873000D02*
X1668502D01*
X1670334Y874833D01*
X1668502Y876665D01*
X1674000D01*
X1668502Y882164D02*
Y878498D01*
X1674000D01*
Y882164D01*
X1671251Y878498D02*
Y880331D01*
X1669418Y887662D02*
X1668502Y886746D01*
Y884913D01*
X1669418Y883996D01*
X1673084D01*
X1674000Y884913D01*
Y886746D01*
X1673084Y887662D01*
X1668502Y889495D02*
X1674000D01*
X1671251D01*
Y893160D01*
X1668502D01*
X1674000D01*
Y894993D02*
Y896826D01*
Y895909D01*
X1668502D01*
X1669418Y894993D01*
X1674000Y899575D02*
Y901407D01*
Y900491D01*
X1668502D01*
X1669418Y899575D01*
X1683497Y873752D02*
X1677999D01*
Y876501D01*
X1678915Y877417D01*
X1680748D01*
X1681664Y876501D01*
Y873752D01*
Y875584D02*
X1683497Y877417D01*
X1677999Y882915D02*
Y879250D01*
X1680748D01*
Y881083D01*
Y879250D01*
X1683497D01*
Y890246D02*
Y892995D01*
X1682581Y893912D01*
X1681664Y892995D01*
Y891163D01*
X1680748Y890246D01*
X1679832Y891163D01*
Y893912D01*
X1677999Y895744D02*
X1683497D01*
X1680748D01*
X1679832Y896661D01*
Y898494D01*
X1680748Y899410D01*
X1683497D01*
Y901243D02*
Y903075D01*
Y902159D01*
X1679832D01*
Y901243D01*
X1683497Y908574D02*
Y906741D01*
X1682581Y905825D01*
X1680748D01*
X1679832Y906741D01*
Y908574D01*
X1680748Y909490D01*
X1681664D01*
Y905825D01*
X1683497Y911323D02*
Y913156D01*
Y912239D01*
X1677999D01*
Y911323D01*
Y919570D02*
X1683497D01*
Y916821D01*
X1682581Y915905D01*
X1680748D01*
X1679832Y916821D01*
Y919570D01*
Y930566D02*
Y927817D01*
X1680748Y926901D01*
X1682581D01*
X1683497Y927817D01*
Y930566D01*
Y933316D02*
Y935148D01*
X1682581Y936065D01*
X1680748D01*
X1679832Y935148D01*
Y933316D01*
X1680748Y932399D01*
X1682581D01*
X1683497Y933316D01*
X1679832Y937897D02*
X1683497Y939730D01*
X1679832Y941563D01*
X1683497Y946145D02*
Y944312D01*
X1682581Y943396D01*
X1680748D01*
X1679832Y944312D01*
Y946145D01*
X1680748Y947061D01*
X1681664D01*
Y943396D01*
X1679832Y948894D02*
X1683497D01*
X1681664D01*
X1680748Y949810D01*
X1679832Y950727D01*
Y951643D01*
X1294500Y873500D02*
X1289002D01*
X1290835Y875333D01*
X1289002Y877166D01*
X1294500D01*
X1289002Y882664D02*
Y878998D01*
X1294500D01*
Y882664D01*
X1291751Y878998D02*
Y880831D01*
X1289918Y888162D02*
X1289002Y887245D01*
Y885413D01*
X1289918Y884496D01*
X1293584D01*
X1294500Y885413D01*
Y887245D01*
X1293584Y888162D01*
X1289002Y889995D02*
X1294500D01*
X1291751D01*
Y893660D01*
X1289002D01*
X1294500D01*
Y895493D02*
Y897326D01*
Y896409D01*
X1289002D01*
X1289918Y895493D01*
X1294500Y902824D02*
X1289002D01*
X1291751Y900075D01*
Y903740D01*
X1303500Y873752D02*
X1298002D01*
Y876501D01*
X1298918Y877417D01*
X1300751D01*
X1301667Y876501D01*
Y873752D01*
Y875584D02*
X1303500Y877417D01*
X1298002Y882915D02*
Y879250D01*
X1300751D01*
Y881083D01*
Y879250D01*
X1303500D01*
Y890246D02*
Y892995D01*
X1302584Y893912D01*
X1301667Y892995D01*
Y891163D01*
X1300751Y890246D01*
X1299835Y891163D01*
Y893912D01*
X1298002Y895744D02*
X1303500D01*
X1300751D01*
X1299835Y896661D01*
Y898494D01*
X1300751Y899410D01*
X1303500D01*
Y901243D02*
Y903075D01*
Y902159D01*
X1299835D01*
Y901243D01*
X1303500Y908574D02*
Y906741D01*
X1302584Y905825D01*
X1300751D01*
X1299835Y906741D01*
Y908574D01*
X1300751Y909490D01*
X1301667D01*
Y905825D01*
X1303500Y911323D02*
Y913156D01*
Y912239D01*
X1298002D01*
Y911323D01*
Y919570D02*
X1303500D01*
Y916821D01*
X1302584Y915905D01*
X1300751D01*
X1299835Y916821D01*
Y919570D01*
Y930566D02*
Y927817D01*
X1300751Y926901D01*
X1302584D01*
X1303500Y927817D01*
Y930566D01*
Y933316D02*
Y935148D01*
X1302584Y936065D01*
X1300751D01*
X1299835Y935148D01*
Y933316D01*
X1300751Y932399D01*
X1302584D01*
X1303500Y933316D01*
X1299835Y937897D02*
X1303500Y939730D01*
X1299835Y941563D01*
X1303500Y946145D02*
Y944312D01*
X1302584Y943396D01*
X1300751D01*
X1299835Y944312D01*
Y946145D01*
X1300751Y947061D01*
X1301667D01*
Y943396D01*
X1299835Y948894D02*
X1303500D01*
X1301667D01*
X1300751Y949810D01*
X1299835Y950727D01*
Y951643D01*
X967750Y920750D02*
X962252D01*
X964084Y922583D01*
X962252Y924416D01*
X967750D01*
X962252Y929914D02*
Y926248D01*
X967750D01*
Y929914D01*
X965001Y926248D02*
Y928081D01*
X963168Y935412D02*
X962252Y934495D01*
Y932663D01*
X963168Y931746D01*
X966834D01*
X967750Y932663D01*
Y934495D01*
X966834Y935412D01*
X962252Y937245D02*
X967750D01*
X965001D01*
Y940910D01*
X962252D01*
X967750D01*
Y942743D02*
Y944576D01*
Y943659D01*
X962252D01*
X963168Y942743D01*
X967750Y950990D02*
Y947325D01*
X964084Y950990D01*
X963168D01*
X962252Y950074D01*
Y948241D01*
X963168Y947325D01*
X959000Y874000D02*
X953502D01*
Y876749D01*
X954418Y877665D01*
X956251D01*
X957167Y876749D01*
Y874000D01*
Y875833D02*
X959000Y877665D01*
X953502Y883164D02*
Y879498D01*
X956251D01*
Y881331D01*
Y879498D01*
X959000D01*
Y890495D02*
Y893244D01*
X958084Y894160D01*
X957167Y893244D01*
Y891411D01*
X956251Y890495D01*
X955334Y891411D01*
Y894160D01*
X953502Y895993D02*
X959000D01*
X956251D01*
X955334Y896909D01*
Y898742D01*
X956251Y899658D01*
X959000D01*
Y901491D02*
Y903324D01*
Y902407D01*
X955334D01*
Y901491D01*
X959000Y908822D02*
Y906989D01*
X958084Y906073D01*
X956251D01*
X955334Y906989D01*
Y908822D01*
X956251Y909738D01*
X957167D01*
Y906073D01*
X959000Y911571D02*
Y913404D01*
Y912487D01*
X953502D01*
Y911571D01*
Y919818D02*
X959000D01*
Y917069D01*
X958084Y916153D01*
X956251D01*
X955334Y917069D01*
Y919818D01*
Y930815D02*
Y928066D01*
X956251Y927149D01*
X958084D01*
X959000Y928066D01*
Y930815D01*
Y933564D02*
Y935397D01*
X958084Y936313D01*
X956251D01*
X955334Y935397D01*
Y933564D01*
X956251Y932648D01*
X958084D01*
X959000Y933564D01*
X955334Y938146D02*
X959000Y939979D01*
X955334Y941811D01*
X959000Y946393D02*
Y944560D01*
X958084Y943644D01*
X956251D01*
X955334Y944560D01*
Y946393D01*
X956251Y947309D01*
X957167D01*
Y943644D01*
X955334Y949142D02*
X959000D01*
X957167D01*
X956251Y950059D01*
X955334Y950975D01*
Y951891D01*
X381665Y436332D02*
X380749Y437248D01*
X378916D01*
X378000Y436332D01*
Y432666D01*
X378916Y431750D01*
X380749D01*
X381665Y432666D01*
X387164Y431750D02*
X383498D01*
X387164Y435415D01*
Y436332D01*
X386247Y437248D01*
X384415D01*
X383498Y436332D01*
X388996Y431750D02*
X390829D01*
X389913D01*
Y437248D01*
X388996Y436332D01*
X397244Y431750D02*
X393578D01*
X397244Y435415D01*
Y436332D01*
X396327Y437248D01*
X394495D01*
X393578Y436332D01*
X371415Y632832D02*
X370499Y633748D01*
X368666D01*
X367750Y632832D01*
Y629166D01*
X368666Y628250D01*
X370499D01*
X371415Y629166D01*
X376914Y628250D02*
X373248D01*
X376914Y631916D01*
Y632832D01*
X375997Y633748D01*
X374165D01*
X373248Y632832D01*
X382412Y628250D02*
X378746D01*
X382412Y631916D01*
Y632832D01*
X381496Y633748D01*
X379663D01*
X378746Y632832D01*
X386994Y628250D02*
Y633748D01*
X384245Y630999D01*
X387910D01*
X1631418Y930666D02*
X1630502Y929749D01*
Y927916D01*
X1631418Y927000D01*
X1635084D01*
X1636000Y927916D01*
Y929749D01*
X1635084Y930666D01*
X1636000Y932498D02*
Y934331D01*
Y933415D01*
X1630502D01*
X1631418Y932498D01*
Y937080D02*
X1630502Y937996D01*
Y939829D01*
X1631418Y940745D01*
X1632334D01*
X1633251Y939829D01*
Y938913D01*
Y939829D01*
X1634167Y940745D01*
X1635084D01*
X1636000Y939829D01*
Y937996D01*
X1635084Y937080D01*
X1630502Y946244D02*
Y942578D01*
X1633251D01*
X1632334Y944411D01*
Y945327D01*
X1633251Y946244D01*
X1635084D01*
X1636000Y945327D01*
Y943495D01*
X1635084Y942578D01*
X1570916Y916582D02*
X1569999Y917498D01*
X1568166D01*
X1567250Y916582D01*
Y912916D01*
X1568166Y912000D01*
X1569999D01*
X1570916Y912916D01*
X1572748Y912000D02*
X1574581D01*
X1573665D01*
Y917498D01*
X1572748Y916582D01*
X1577330D02*
X1578246Y917498D01*
X1580079D01*
X1580995Y916582D01*
Y915666D01*
X1580079Y914749D01*
X1579163D01*
X1580079D01*
X1580995Y913833D01*
Y912916D01*
X1580079Y912000D01*
X1578246D01*
X1577330Y912916D01*
X1585577Y912000D02*
Y917498D01*
X1582828Y914749D01*
X1586494D01*
X1656418Y843166D02*
X1655502Y842249D01*
Y840416D01*
X1656418Y839500D01*
X1660084D01*
X1661000Y840416D01*
Y842249D01*
X1660084Y843166D01*
X1661000Y844998D02*
Y846831D01*
Y845915D01*
X1655502D01*
X1656418Y844998D01*
Y849580D02*
X1655502Y850496D01*
Y852329D01*
X1656418Y853245D01*
X1657334D01*
X1658251Y852329D01*
Y851413D01*
Y852329D01*
X1659167Y853245D01*
X1660084D01*
X1661000Y852329D01*
Y850496D01*
X1660084Y849580D01*
X1656418Y855078D02*
X1655502Y855995D01*
Y857827D01*
X1656418Y858744D01*
X1657334D01*
X1658251Y857827D01*
X1659167Y858744D01*
X1660084D01*
X1661000Y857827D01*
Y855995D01*
X1660084Y855078D01*
X1659167D01*
X1658251Y855995D01*
X1657334Y855078D01*
X1656418D01*
X1658251Y855995D02*
Y857827D01*
X1584750Y857748D02*
X1586583D01*
X1585666D01*
Y852250D01*
X1584750D01*
X1586583D01*
X1592997Y856832D02*
X1592081Y857748D01*
X1590248D01*
X1589332Y856832D01*
Y853166D01*
X1590248Y852250D01*
X1592081D01*
X1592997Y853166D01*
X1598495Y852250D02*
X1594830D01*
X1598495Y855916D01*
Y856832D01*
X1597579Y857748D01*
X1595746D01*
X1594830Y856832D01*
X1600328Y853166D02*
X1601245Y852250D01*
X1603077D01*
X1603994Y853166D01*
Y856832D01*
X1603077Y857748D01*
X1601245D01*
X1600328Y856832D01*
Y855916D01*
X1601245Y854999D01*
X1603994D01*
X1524000Y904748D02*
Y899250D01*
X1527666D01*
X1529498D02*
X1531331D01*
X1530415D01*
Y904748D01*
X1529498Y903832D01*
X1538165Y974582D02*
X1537249Y975498D01*
X1535416D01*
X1534500Y974582D01*
Y970916D01*
X1535416Y970000D01*
X1537249D01*
X1538165Y970916D01*
X1539998Y970000D02*
X1541831D01*
X1540915D01*
Y975498D01*
X1539998Y974582D01*
X1547329Y970000D02*
Y975498D01*
X1544580Y972749D01*
X1548246D01*
X1552827Y970000D02*
Y975498D01*
X1550078Y972749D01*
X1553744D01*
X1576000Y959498D02*
X1577833D01*
X1576916D01*
Y954000D01*
X1576000D01*
X1577833D01*
X1584247Y958582D02*
X1583331Y959498D01*
X1581498D01*
X1580582Y958582D01*
Y954916D01*
X1581498Y954000D01*
X1583331D01*
X1584247Y954916D01*
X1589745Y954000D02*
X1586080D01*
X1589745Y957665D01*
Y958582D01*
X1588829Y959498D01*
X1586996D01*
X1586080Y958582D01*
X1591578Y959498D02*
X1595244D01*
Y958582D01*
X1591578Y954916D01*
Y954000D01*
X1625918Y959416D02*
X1625002Y958499D01*
Y956666D01*
X1625918Y955750D01*
X1629584D01*
X1630500Y956666D01*
Y958499D01*
X1629584Y959416D01*
X1630500Y961248D02*
Y963081D01*
Y962165D01*
X1625002D01*
X1625918Y961248D01*
X1630500Y968579D02*
X1625002D01*
X1627751Y965830D01*
Y969495D01*
X1630500Y974994D02*
Y971328D01*
X1626835Y974994D01*
X1625918D01*
X1625002Y974077D01*
Y972245D01*
X1625918Y971328D01*
X1483750Y870998D02*
Y865500D01*
X1487415D01*
X1489248Y870082D02*
X1490165Y870998D01*
X1491997D01*
X1492914Y870082D01*
Y869165D01*
X1491997Y868249D01*
X1491081D01*
X1491997D01*
X1492914Y867333D01*
Y866416D01*
X1491997Y865500D01*
X1490165D01*
X1489248Y866416D01*
X1466668Y840666D02*
X1465752Y839749D01*
Y837916D01*
X1466668Y837000D01*
X1470334D01*
X1471250Y837916D01*
Y839749D01*
X1470334Y840666D01*
X1471250Y842498D02*
Y844331D01*
Y843415D01*
X1465752D01*
X1466668Y842498D01*
X1465752Y850745D02*
X1466668Y848913D01*
X1468501Y847080D01*
X1470334D01*
X1471250Y847996D01*
Y849829D01*
X1470334Y850745D01*
X1469417D01*
X1468501Y849829D01*
Y847080D01*
X1466668Y852578D02*
X1465752Y853495D01*
Y855327D01*
X1466668Y856244D01*
X1470334D01*
X1471250Y855327D01*
Y853495D01*
X1470334Y852578D01*
X1466668D01*
X1407668Y865165D02*
X1406752Y864249D01*
Y862416D01*
X1407668Y861500D01*
X1411334D01*
X1412250Y862416D01*
Y864249D01*
X1411334Y865165D01*
X1412250Y866998D02*
Y868831D01*
Y867915D01*
X1406752D01*
X1407668Y866998D01*
X1406752Y875246D02*
Y871580D01*
X1409501D01*
X1408584Y873413D01*
Y874329D01*
X1409501Y875246D01*
X1411334D01*
X1412250Y874329D01*
Y872496D01*
X1411334Y871580D01*
X1407668Y877078D02*
X1406752Y877995D01*
Y879827D01*
X1407668Y880744D01*
X1408584D01*
X1409501Y879827D01*
X1410417Y880744D01*
X1411334D01*
X1412250Y879827D01*
Y877995D01*
X1411334Y877078D01*
X1410417D01*
X1409501Y877995D01*
X1408584Y877078D01*
X1407668D01*
X1409501Y877995D02*
Y879827D01*
X1382166Y890832D02*
X1381249Y891748D01*
X1379416D01*
X1378500Y890832D01*
Y887166D01*
X1379416Y886250D01*
X1381249D01*
X1382166Y887166D01*
X1383998Y886250D02*
X1385831D01*
X1384915D01*
Y891748D01*
X1383998Y890832D01*
X1392246Y891748D02*
X1388580D01*
Y888999D01*
X1390413Y889915D01*
X1391329D01*
X1392246Y888999D01*
Y887166D01*
X1391329Y886250D01*
X1389496D01*
X1388580Y887166D01*
X1394078Y890832D02*
X1394995Y891748D01*
X1396827D01*
X1397744Y890832D01*
Y887166D01*
X1396827Y886250D01*
X1394995D01*
X1394078Y887166D01*
Y890832D01*
X1362418Y910666D02*
X1361502Y909749D01*
Y907916D01*
X1362418Y907000D01*
X1366084D01*
X1367000Y907916D01*
Y909749D01*
X1366084Y910666D01*
X1367000Y912498D02*
Y914331D01*
Y913415D01*
X1361502D01*
X1362418Y912498D01*
X1361502Y920745D02*
Y917080D01*
X1364251D01*
X1363335Y918913D01*
Y919829D01*
X1364251Y920745D01*
X1366084D01*
X1367000Y919829D01*
Y917996D01*
X1366084Y917080D01*
X1361502Y926244D02*
X1362418Y924411D01*
X1364251Y922578D01*
X1366084D01*
X1367000Y923495D01*
Y925327D01*
X1366084Y926244D01*
X1365167D01*
X1364251Y925327D01*
Y922578D01*
X1384918Y965666D02*
X1384002Y964749D01*
Y962916D01*
X1384918Y962000D01*
X1388584D01*
X1389500Y962916D01*
Y964749D01*
X1388584Y965666D01*
X1389500Y967498D02*
Y969331D01*
Y968415D01*
X1384002D01*
X1384918Y967498D01*
X1384002Y975745D02*
X1384918Y973913D01*
X1386751Y972080D01*
X1388584D01*
X1389500Y972997D01*
Y974829D01*
X1388584Y975745D01*
X1387667D01*
X1386751Y974829D01*
Y972080D01*
X1389500Y981244D02*
Y977578D01*
X1385835Y981244D01*
X1384918D01*
X1384002Y980327D01*
Y978495D01*
X1384918Y977578D01*
X1371165Y1006498D02*
X1367500D01*
Y1001000D01*
X1371165D01*
X1367500Y1003749D02*
X1369333D01*
X1376664Y1005582D02*
X1375747Y1006498D01*
X1373915D01*
X1372998Y1005582D01*
Y1004666D01*
X1373915Y1003749D01*
X1375747D01*
X1376664Y1002833D01*
Y1001916D01*
X1375747Y1001000D01*
X1373915D01*
X1372998Y1001916D01*
X1378496Y1006498D02*
Y1001000D01*
X1381246D01*
X1382162Y1001916D01*
Y1005582D01*
X1381246Y1006498D01*
X1378496D01*
X1383995Y1005582D02*
X1384911Y1006498D01*
X1386744D01*
X1387660Y1005582D01*
Y1004666D01*
X1386744Y1003749D01*
X1385827D01*
X1386744D01*
X1387660Y1002833D01*
Y1001916D01*
X1386744Y1001000D01*
X1384911D01*
X1383995Y1001916D01*
X990666Y1006748D02*
X987000D01*
Y1001250D01*
X990666D01*
X987000Y1003999D02*
X988833D01*
X996164Y1005832D02*
X995247Y1006748D01*
X993415D01*
X992498Y1005832D01*
Y1004915D01*
X993415Y1003999D01*
X995247D01*
X996164Y1003083D01*
Y1002166D01*
X995247Y1001250D01*
X993415D01*
X992498Y1002166D01*
X997996Y1006748D02*
Y1001250D01*
X1000745D01*
X1001662Y1002166D01*
Y1005832D01*
X1000745Y1006748D01*
X997996D01*
X1006244Y1001250D02*
Y1006748D01*
X1003495Y1003999D01*
X1007160D01*
X1180666Y1007248D02*
X1177000D01*
Y1001750D01*
X1180666D01*
X1177000Y1004499D02*
X1178833D01*
X1186164Y1006332D02*
X1185247Y1007248D01*
X1183415D01*
X1182498Y1006332D01*
Y1005415D01*
X1183415Y1004499D01*
X1185247D01*
X1186164Y1003583D01*
Y1002666D01*
X1185247Y1001750D01*
X1183415D01*
X1182498Y1002666D01*
X1187996Y1007248D02*
Y1001750D01*
X1190745D01*
X1191662Y1002666D01*
Y1006332D01*
X1190745Y1007248D01*
X1187996D01*
X1197160Y1001750D02*
X1193495D01*
X1197160Y1005415D01*
Y1006332D01*
X1196244Y1007248D01*
X1194411D01*
X1193495Y1006332D01*
X1027168Y964165D02*
X1026252Y963249D01*
Y961416D01*
X1027168Y960500D01*
X1030834D01*
X1031750Y961416D01*
Y963249D01*
X1030834Y964165D01*
X1031750Y965998D02*
Y967831D01*
Y966915D01*
X1026252D01*
X1027168Y965998D01*
X1026252Y974246D02*
X1027168Y972413D01*
X1029001Y970580D01*
X1030834D01*
X1031750Y971497D01*
Y973329D01*
X1030834Y974246D01*
X1029917D01*
X1029001Y973329D01*
Y970580D01*
X1027168Y976078D02*
X1026252Y976995D01*
Y978827D01*
X1027168Y979744D01*
X1028084D01*
X1029001Y978827D01*
Y977911D01*
Y978827D01*
X1029917Y979744D01*
X1030834D01*
X1031750Y978827D01*
Y976995D01*
X1030834Y976078D01*
X1017500Y947998D02*
X1019333D01*
X1018416D01*
Y942500D01*
X1017500D01*
X1019333D01*
X1025747Y947082D02*
X1024831Y947998D01*
X1022998D01*
X1022082Y947082D01*
Y943416D01*
X1022998Y942500D01*
X1024831D01*
X1025747Y943416D01*
X1027580Y947082D02*
X1028496Y947998D01*
X1030329D01*
X1031245Y947082D01*
Y946165D01*
X1030329Y945249D01*
X1029413D01*
X1030329D01*
X1031245Y944333D01*
Y943416D01*
X1030329Y942500D01*
X1028496D01*
X1027580Y943416D01*
X1036744Y942500D02*
X1033078D01*
X1036744Y946165D01*
Y947082D01*
X1035827Y947998D01*
X1033995D01*
X1033078Y947082D01*
X983168Y912415D02*
X982252Y911499D01*
Y909666D01*
X983168Y908750D01*
X986834D01*
X987750Y909666D01*
Y911499D01*
X986834Y912415D01*
X987750Y914248D02*
Y916081D01*
Y915165D01*
X982252D01*
X983168Y914248D01*
X982252Y922495D02*
Y918830D01*
X985001D01*
X984084Y920663D01*
Y921579D01*
X985001Y922495D01*
X986834D01*
X987750Y921579D01*
Y919746D01*
X986834Y918830D01*
X982252Y924328D02*
Y927994D01*
X983168D01*
X986834Y924328D01*
X987750D01*
X1001916Y891582D02*
X1000999Y892498D01*
X999166D01*
X998250Y891582D01*
Y887916D01*
X999166Y887000D01*
X1000999D01*
X1001916Y887916D01*
X1003748Y887000D02*
X1005581D01*
X1004665D01*
Y892498D01*
X1003748Y891582D01*
X1011995Y892498D02*
X1008330D01*
Y889749D01*
X1010163Y890666D01*
X1011079D01*
X1011995Y889749D01*
Y887916D01*
X1011079Y887000D01*
X1009246D01*
X1008330Y887916D01*
X1013828Y887000D02*
X1015661D01*
X1014745D01*
Y892498D01*
X1013828Y891582D01*
X1027168Y866916D02*
X1026252Y865999D01*
Y864166D01*
X1027168Y863250D01*
X1030834D01*
X1031750Y864166D01*
Y865999D01*
X1030834Y866916D01*
X1031750Y868748D02*
Y870581D01*
Y869665D01*
X1026252D01*
X1027168Y868748D01*
X1026252Y876995D02*
Y873330D01*
X1029001D01*
X1028084Y875163D01*
Y876079D01*
X1029001Y876995D01*
X1030834D01*
X1031750Y876079D01*
Y874246D01*
X1030834Y873330D01*
Y878828D02*
X1031750Y879745D01*
Y881577D01*
X1030834Y882494D01*
X1027168D01*
X1026252Y881577D01*
Y879745D01*
X1027168Y878828D01*
X1028084D01*
X1029001Y879745D01*
Y882494D01*
X1086668Y841165D02*
X1085752Y840249D01*
Y838416D01*
X1086668Y837500D01*
X1090334D01*
X1091250Y838416D01*
Y840249D01*
X1090334Y841165D01*
X1091250Y842998D02*
Y844831D01*
Y843915D01*
X1085752D01*
X1086668Y842998D01*
X1085752Y851245D02*
X1086668Y849413D01*
X1088501Y847580D01*
X1090334D01*
X1091250Y848496D01*
Y850329D01*
X1090334Y851245D01*
X1089417D01*
X1088501Y850329D01*
Y847580D01*
X1091250Y853078D02*
Y854911D01*
Y853995D01*
X1085752D01*
X1086668Y853078D01*
X1196500Y959998D02*
X1198333D01*
X1197416D01*
Y954500D01*
X1196500D01*
X1198333D01*
X1204747Y959082D02*
X1203831Y959998D01*
X1201998D01*
X1201082Y959082D01*
Y955416D01*
X1201998Y954500D01*
X1203831D01*
X1204747Y955416D01*
X1210246Y954500D02*
X1206580D01*
X1210246Y958166D01*
Y959082D01*
X1209329Y959998D01*
X1207496D01*
X1206580Y959082D01*
X1212078D02*
X1212995Y959998D01*
X1214827D01*
X1215744Y959082D01*
Y958166D01*
X1214827Y957249D01*
X1215744Y956333D01*
Y955416D01*
X1214827Y954500D01*
X1212995D01*
X1212078Y955416D01*
Y956333D01*
X1212995Y957249D01*
X1212078Y958166D01*
Y959082D01*
X1212995Y957249D02*
X1214827D01*
X1158665Y975582D02*
X1157749Y976498D01*
X1155916D01*
X1155000Y975582D01*
Y971916D01*
X1155916Y971000D01*
X1157749D01*
X1158665Y971916D01*
X1160498Y971000D02*
X1162331D01*
X1161415D01*
Y976498D01*
X1160498Y975582D01*
X1167829Y971000D02*
Y976498D01*
X1165080Y973749D01*
X1168745D01*
X1174244Y976498D02*
X1170578D01*
Y973749D01*
X1172411Y974666D01*
X1173327D01*
X1174244Y973749D01*
Y971916D01*
X1173327Y971000D01*
X1171495D01*
X1170578Y971916D01*
X1143250Y908498D02*
Y903000D01*
X1146916D01*
X1152414D02*
X1148748D01*
X1152414Y906665D01*
Y907582D01*
X1151497Y908498D01*
X1149665D01*
X1148748Y907582D01*
X1161418Y916916D02*
X1160502Y915999D01*
Y914166D01*
X1161418Y913250D01*
X1165084D01*
X1166000Y914166D01*
Y915999D01*
X1165084Y916916D01*
X1166000Y918748D02*
Y920581D01*
Y919665D01*
X1160502D01*
X1161418Y918748D01*
X1166000Y926079D02*
X1160502D01*
X1163251Y923330D01*
Y926995D01*
X1166000Y928828D02*
Y930661D01*
Y929745D01*
X1160502D01*
X1161418Y928828D01*
X1245668Y958166D02*
X1244752Y957249D01*
Y955416D01*
X1245668Y954500D01*
X1249334D01*
X1250250Y955416D01*
Y957249D01*
X1249334Y958166D01*
X1250250Y959998D02*
Y961831D01*
Y960915D01*
X1244752D01*
X1245668Y959998D01*
X1250250Y967329D02*
X1244752D01*
X1247501Y964580D01*
Y968245D01*
X1245668Y970078D02*
X1244752Y970995D01*
Y972827D01*
X1245668Y973744D01*
X1246584D01*
X1247501Y972827D01*
Y971911D01*
Y972827D01*
X1248417Y973744D01*
X1249334D01*
X1250250Y972827D01*
Y970995D01*
X1249334Y970078D01*
X1251418Y930666D02*
X1250502Y929749D01*
Y927916D01*
X1251418Y927000D01*
X1255084D01*
X1256000Y927916D01*
Y929749D01*
X1255084Y930666D01*
X1256000Y932498D02*
Y934331D01*
Y933415D01*
X1250502D01*
X1251418Y932498D01*
Y937080D02*
X1250502Y937996D01*
Y939829D01*
X1251418Y940745D01*
X1252335D01*
X1253251Y939829D01*
Y938913D01*
Y939829D01*
X1254167Y940745D01*
X1255084D01*
X1256000Y939829D01*
Y937996D01*
X1255084Y937080D01*
X1250502Y942578D02*
Y946244D01*
X1251418D01*
X1255084Y942578D01*
X1256000D01*
X1236165Y916582D02*
X1235249Y917498D01*
X1233416D01*
X1232500Y916582D01*
Y912916D01*
X1233416Y912000D01*
X1235249D01*
X1236165Y912916D01*
X1237998Y912000D02*
X1239831D01*
X1238915D01*
Y917498D01*
X1237998Y916582D01*
X1242580D02*
X1243496Y917498D01*
X1245329D01*
X1246245Y916582D01*
Y915666D01*
X1245329Y914749D01*
X1244413D01*
X1245329D01*
X1246245Y913833D01*
Y912916D01*
X1245329Y912000D01*
X1243496D01*
X1242580Y912916D01*
X1251744Y917498D02*
X1249911Y916582D01*
X1248078Y914749D01*
Y912916D01*
X1248995Y912000D01*
X1250827D01*
X1251744Y912916D01*
Y913833D01*
X1250827Y914749D01*
X1248078D01*
X1276668Y844416D02*
X1275752Y843499D01*
Y841666D01*
X1276668Y840750D01*
X1280334D01*
X1281250Y841666D01*
Y843499D01*
X1280334Y844416D01*
X1281250Y846248D02*
Y848081D01*
Y847165D01*
X1275752D01*
X1276668Y846248D01*
X1281250Y853579D02*
X1275752D01*
X1278501Y850830D01*
Y854495D01*
X1276668Y856328D02*
X1275752Y857245D01*
Y859077D01*
X1276668Y859994D01*
X1280334D01*
X1281250Y859077D01*
Y857245D01*
X1280334Y856328D01*
X1276668D01*
X1135916Y868082D02*
X1134999Y868998D01*
X1133166D01*
X1132250Y868082D01*
Y864416D01*
X1133166Y863500D01*
X1134999D01*
X1135916Y864416D01*
X1137748Y863500D02*
X1139581D01*
X1138665D01*
Y868998D01*
X1137748Y868082D01*
X1145995Y863500D02*
X1142330D01*
X1145995Y867166D01*
Y868082D01*
X1145079Y868998D01*
X1143247D01*
X1142330Y868082D01*
X1147828Y864416D02*
X1148745Y863500D01*
X1150577D01*
X1151494Y864416D01*
Y868082D01*
X1150577Y868998D01*
X1148745D01*
X1147828Y868082D01*
Y867166D01*
X1148745Y866249D01*
X1151494D01*
X1135415Y892082D02*
X1134499Y892998D01*
X1132666D01*
X1131750Y892082D01*
Y888416D01*
X1132666Y887500D01*
X1134499D01*
X1135415Y888416D01*
X1137248Y887500D02*
X1139081D01*
X1138165D01*
Y892998D01*
X1137248Y892082D01*
X1141830D02*
X1142747Y892998D01*
X1144579D01*
X1145496Y892082D01*
Y891165D01*
X1144579Y890249D01*
X1143663D01*
X1144579D01*
X1145496Y889333D01*
Y888416D01*
X1144579Y887500D01*
X1142747D01*
X1141830Y888416D01*
X1147328Y892082D02*
X1148245Y892998D01*
X1150077D01*
X1150994Y892082D01*
Y891165D01*
X1150077Y890249D01*
X1149161D01*
X1150077D01*
X1150994Y889333D01*
Y888416D01*
X1150077Y887500D01*
X1148245D01*
X1147328Y888416D01*
X1135916Y879332D02*
X1134999Y880248D01*
X1133166D01*
X1132250Y879332D01*
Y875666D01*
X1133166Y874750D01*
X1134999D01*
X1135916Y875666D01*
X1137748Y874750D02*
X1139581D01*
X1138665D01*
Y880248D01*
X1137748Y879332D01*
X1142330D02*
X1143247Y880248D01*
X1145079D01*
X1145995Y879332D01*
Y878416D01*
X1145079Y877499D01*
X1144163D01*
X1145079D01*
X1145995Y876583D01*
Y875666D01*
X1145079Y874750D01*
X1143247D01*
X1142330Y875666D01*
X1151494Y874750D02*
X1147828D01*
X1151494Y878416D01*
Y879332D01*
X1150577Y880248D01*
X1148745D01*
X1147828Y879332D01*
X339500Y602750D02*
Y608248D01*
X342249D01*
X343166Y607332D01*
Y605499D01*
X342249Y604583D01*
X339500D01*
X341333D02*
X343166Y602750D01*
X348664D02*
X344998D01*
X348664Y606415D01*
Y607332D01*
X347747Y608248D01*
X345915D01*
X344998Y607332D01*
X353246Y602750D02*
Y608248D01*
X350496Y605499D01*
X354162D01*
X355995Y602750D02*
X357827D01*
X356911D01*
Y608248D01*
X355995Y607332D01*
X369916Y602332D02*
X368999Y603248D01*
X367166D01*
X366250Y602332D01*
Y598666D01*
X367166Y597750D01*
X368999D01*
X369916Y598666D01*
X375414Y597750D02*
X371748D01*
X375414Y601415D01*
Y602332D01*
X374497Y603248D01*
X372665D01*
X371748Y602332D01*
X377246D02*
X378163Y603248D01*
X379995D01*
X380912Y602332D01*
Y601415D01*
X379995Y600499D01*
X379079D01*
X379995D01*
X380912Y599583D01*
Y598666D01*
X379995Y597750D01*
X378163D01*
X377246Y598666D01*
X385494Y597750D02*
Y603248D01*
X382745Y600499D01*
X386410D01*
X365500Y606500D02*
Y611998D01*
X368249D01*
X369165Y611082D01*
Y609249D01*
X368249Y608333D01*
X365500D01*
X367333D02*
X369165Y606500D01*
X374664D02*
X370998D01*
X374664Y610165D01*
Y611082D01*
X373747Y611998D01*
X371915D01*
X370998Y611082D01*
X379245Y606500D02*
Y611998D01*
X376496Y609249D01*
X380162D01*
X381995Y611082D02*
X382911Y611998D01*
X384744D01*
X385660Y611082D01*
Y607416D01*
X384744Y606500D01*
X382911D01*
X381995Y607416D01*
Y611082D01*
X370415Y592582D02*
X369499Y593498D01*
X367666D01*
X366750Y592582D01*
Y588916D01*
X367666Y588000D01*
X369499D01*
X370415Y588916D01*
X375914Y588000D02*
X372248D01*
X375914Y591665D01*
Y592582D01*
X374997Y593498D01*
X373165D01*
X372248Y592582D01*
X377747D02*
X378663Y593498D01*
X380496D01*
X381412Y592582D01*
Y591665D01*
X380496Y590749D01*
X379579D01*
X380496D01*
X381412Y589833D01*
Y588916D01*
X380496Y588000D01*
X378663D01*
X377747Y588916D01*
X386910Y588000D02*
X383245D01*
X386910Y591665D01*
Y592582D01*
X385994Y593498D01*
X384161D01*
X383245Y592582D01*
X366500Y577750D02*
Y583248D01*
X369249D01*
X370165Y582332D01*
Y580499D01*
X369249Y579583D01*
X366500D01*
X368333D02*
X370165Y577750D01*
X375664D02*
X371998D01*
X375664Y581415D01*
Y582332D01*
X374747Y583248D01*
X372915D01*
X371998Y582332D01*
X380246Y577750D02*
Y583248D01*
X377496Y580499D01*
X381162D01*
X386660Y583248D02*
X382995D01*
Y580499D01*
X384827Y581415D01*
X385744D01*
X386660Y580499D01*
Y578666D01*
X385744Y577750D01*
X383911D01*
X382995Y578666D01*
X358418Y579416D02*
X357502Y578499D01*
Y576666D01*
X358418Y575750D01*
X362084D01*
X363000Y576666D01*
Y578499D01*
X362084Y579416D01*
X363000Y584914D02*
Y581248D01*
X359334Y584914D01*
X358418D01*
X357502Y583997D01*
Y582165D01*
X358418Y581248D01*
Y586746D02*
X357502Y587663D01*
Y589496D01*
X358418Y590412D01*
X359334D01*
X360251Y589496D01*
Y588579D01*
Y589496D01*
X361167Y590412D01*
X362084D01*
X363000Y589496D01*
Y587663D01*
X362084Y586746D01*
X358418Y592245D02*
X357502Y593161D01*
Y594994D01*
X358418Y595910D01*
X359334D01*
X360251Y594994D01*
Y594077D01*
Y594994D01*
X361167Y595910D01*
X362084D01*
X363000Y594994D01*
Y593161D01*
X362084Y592245D01*
X392250Y564000D02*
Y569498D01*
X394999D01*
X395915Y568582D01*
Y566749D01*
X394999Y565833D01*
X392250D01*
X394083D02*
X395915Y564000D01*
X401414D02*
X397748D01*
X401414Y567665D01*
Y568582D01*
X400497Y569498D01*
X398665D01*
X397748Y568582D01*
X403246D02*
X404163Y569498D01*
X405995D01*
X406912Y568582D01*
Y567665D01*
X405995Y566749D01*
X405079D01*
X405995D01*
X406912Y565833D01*
Y564916D01*
X405995Y564000D01*
X404163D01*
X403246Y564916D01*
X408745D02*
X409661Y564000D01*
X411494D01*
X412410Y564916D01*
Y568582D01*
X411494Y569498D01*
X409661D01*
X408745Y568582D01*
Y567665D01*
X409661Y566749D01*
X412410D01*
X468250Y563750D02*
X462752D01*
Y566499D01*
X463668Y567416D01*
X465501D01*
X466417Y566499D01*
Y563750D01*
Y565583D02*
X468250Y567416D01*
Y572914D02*
Y569248D01*
X464585Y572914D01*
X463668D01*
X462752Y571997D01*
Y570165D01*
X463668Y569248D01*
X468250Y577495D02*
X462752D01*
X465501Y574746D01*
Y578412D01*
X468250Y582994D02*
X462752D01*
X465501Y580245D01*
Y583910D01*
X471918Y567665D02*
X471002Y566749D01*
Y564916D01*
X471918Y564000D01*
X475584D01*
X476500Y564916D01*
Y566749D01*
X475584Y567665D01*
X476500Y573164D02*
Y569498D01*
X472835Y573164D01*
X471918D01*
X471002Y572247D01*
Y570415D01*
X471918Y569498D01*
Y574996D02*
X471002Y575913D01*
Y577746D01*
X471918Y578662D01*
X472835D01*
X473751Y577746D01*
Y576829D01*
Y577746D01*
X474667Y578662D01*
X475584D01*
X476500Y577746D01*
Y575913D01*
X475584Y574996D01*
X476500Y580495D02*
Y582327D01*
Y581411D01*
X471002D01*
X471918Y580495D01*
X459416Y661582D02*
X458499Y662498D01*
X456666D01*
X455750Y661582D01*
Y657916D01*
X456666Y657000D01*
X458499D01*
X459416Y657916D01*
X464914Y657000D02*
X461248D01*
X464914Y660666D01*
Y661582D01*
X463997Y662498D01*
X462165D01*
X461248Y661582D01*
X470412Y657000D02*
X466746D01*
X470412Y660666D01*
Y661582D01*
X469496Y662498D01*
X467663D01*
X466746Y661582D01*
X472245D02*
X473161Y662498D01*
X474994D01*
X475910Y661582D01*
Y660666D01*
X474994Y659749D01*
X474077D01*
X474994D01*
X475910Y658833D01*
Y657916D01*
X474994Y657000D01*
X473161D01*
X472245Y657916D01*
X342168Y532165D02*
X341252Y531249D01*
Y529416D01*
X342168Y528500D01*
X345834D01*
X346750Y529416D01*
Y531249D01*
X345834Y532165D01*
X346750Y537664D02*
Y533998D01*
X343085Y537664D01*
X342168D01*
X341252Y536747D01*
Y534915D01*
X342168Y533998D01*
X346750Y543162D02*
Y539496D01*
X343085Y543162D01*
X342168D01*
X341252Y542245D01*
Y540413D01*
X342168Y539496D01*
X341252Y548660D02*
Y544995D01*
X344001D01*
X343085Y546827D01*
Y547744D01*
X344001Y548660D01*
X345834D01*
X346750Y547744D01*
Y545911D01*
X345834Y544995D01*
X362918Y531916D02*
X362002Y530999D01*
Y529166D01*
X362918Y528250D01*
X366584D01*
X367500Y529166D01*
Y530999D01*
X366584Y531916D01*
X367500Y537414D02*
Y533748D01*
X363834Y537414D01*
X362918D01*
X362002Y536497D01*
Y534665D01*
X362918Y533748D01*
X367500Y542912D02*
Y539246D01*
X363834Y542912D01*
X362918D01*
X362002Y541996D01*
Y540163D01*
X362918Y539246D01*
X362002Y548410D02*
X362918Y546577D01*
X364751Y544745D01*
X366584D01*
X367500Y545661D01*
Y547494D01*
X366584Y548410D01*
X365667D01*
X364751Y547494D01*
Y544745D01*
X447500Y273750D02*
X443834D01*
Y276499D01*
X444751Y277416D01*
X447500D01*
Y280165D02*
Y281997D01*
X446584Y282914D01*
X444751D01*
X443834Y281997D01*
Y280165D01*
X444751Y279248D01*
X446584D01*
X447500Y280165D01*
X449333Y290245D02*
X443834D01*
Y292994D01*
X444751Y293910D01*
X446584D01*
X447500Y292994D01*
Y290245D01*
Y296659D02*
Y298492D01*
X446584Y299408D01*
X444751D01*
X443834Y298492D01*
Y296659D01*
X444751Y295743D01*
X446584D01*
X447500Y296659D01*
Y301241D02*
Y303074D01*
Y302157D01*
X442002D01*
Y301241D01*
X443834Y306739D02*
Y308572D01*
X444751Y309488D01*
X447500D01*
Y306739D01*
X446584Y305823D01*
X445667Y306739D01*
Y309488D01*
X443834Y311321D02*
X447500D01*
X445667D01*
X444751Y312237D01*
X443834Y313154D01*
Y314070D01*
X447500Y316819D02*
Y318652D01*
Y317736D01*
X443834D01*
Y316819D01*
X442918Y322318D02*
X443834D01*
Y321401D01*
Y323234D01*
Y322318D01*
X446584D01*
X447500Y323234D01*
X443834Y325983D02*
X446584D01*
X447500Y326899D01*
Y329649D01*
X448416D01*
X449333Y328732D01*
Y327816D01*
X447500Y329649D02*
X443834D01*
X406502Y292500D02*
X412000D01*
Y296166D01*
X406502Y297998D02*
Y301664D01*
X407418D01*
X411084Y297998D01*
X412000D01*
X340668Y251416D02*
X339752Y250499D01*
Y248666D01*
X340668Y247750D01*
X344334D01*
X345250Y248666D01*
Y250499D01*
X344334Y251416D01*
X345250Y256914D02*
Y253248D01*
X341585Y256914D01*
X340668D01*
X339752Y255997D01*
Y254165D01*
X340668Y253248D01*
X345250Y258746D02*
Y260579D01*
Y259663D01*
X339752D01*
X340668Y258746D01*
X339752Y266994D02*
Y263328D01*
X342501D01*
X341585Y265161D01*
Y266077D01*
X342501Y266994D01*
X344334D01*
X345250Y266077D01*
Y264245D01*
X344334Y263328D01*
X319168Y323165D02*
X318252Y322249D01*
Y320416D01*
X319168Y319500D01*
X322834D01*
X323750Y320416D01*
Y322249D01*
X322834Y323165D01*
X323750Y328664D02*
Y324998D01*
X320084Y328664D01*
X319168D01*
X318252Y327747D01*
Y325915D01*
X319168Y324998D01*
X323750Y330496D02*
Y332329D01*
Y331413D01*
X318252D01*
X319168Y330496D01*
Y335078D02*
X318252Y335995D01*
Y337827D01*
X319168Y338744D01*
X320084D01*
X321001Y337827D01*
Y336911D01*
Y337827D01*
X321917Y338744D01*
X322834D01*
X323750Y337827D01*
Y335995D01*
X322834Y335078D01*
X340918Y322915D02*
X340002Y321999D01*
Y320166D01*
X340918Y319250D01*
X344584D01*
X345500Y320166D01*
Y321999D01*
X344584Y322915D01*
X345500Y328414D02*
Y324748D01*
X341834Y328414D01*
X340918D01*
X340002Y327497D01*
Y325665D01*
X340918Y324748D01*
X345500Y330246D02*
Y332079D01*
Y331163D01*
X340002D01*
X340918Y330246D01*
X345500Y337577D02*
X340002D01*
X342751Y334828D01*
Y338494D01*
X447000Y354750D02*
X441502D01*
Y357499D01*
X442418Y358415D01*
X444251D01*
X445167Y357499D01*
Y354750D01*
Y356583D02*
X447000Y358415D01*
Y363914D02*
Y360248D01*
X443335Y363914D01*
X442418D01*
X441502Y362997D01*
Y361165D01*
X442418Y360248D01*
Y365746D02*
X441502Y366663D01*
Y368495D01*
X442418Y369412D01*
X443335D01*
X444251Y368495D01*
Y367579D01*
Y368495D01*
X445167Y369412D01*
X446084D01*
X447000Y368495D01*
Y366663D01*
X446084Y365746D01*
X441502Y371245D02*
Y374910D01*
X442418D01*
X446084Y371245D01*
X447000D01*
X453668Y358415D02*
X452752Y357499D01*
Y355666D01*
X453668Y354750D01*
X457334D01*
X458250Y355666D01*
Y357499D01*
X457334Y358415D01*
X458250Y363914D02*
Y360248D01*
X454585Y363914D01*
X453668D01*
X452752Y362997D01*
Y361165D01*
X453668Y360248D01*
X458250Y365746D02*
Y367579D01*
Y366663D01*
X452752D01*
X453668Y365746D01*
X457334Y370328D02*
X458250Y371245D01*
Y373077D01*
X457334Y373994D01*
X453668D01*
X452752Y373077D01*
Y371245D01*
X453668Y370328D01*
X454585D01*
X455501Y371245D01*
Y373994D01*
X372250Y357250D02*
Y362748D01*
X374999D01*
X375915Y361832D01*
Y359999D01*
X374999Y359083D01*
X372250D01*
X374083D02*
X375915Y357250D01*
X381414D02*
X377748D01*
X381414Y360915D01*
Y361832D01*
X380497Y362748D01*
X378665D01*
X377748Y361832D01*
X383246D02*
X384163Y362748D01*
X385995D01*
X386912Y361832D01*
Y360915D01*
X385995Y359999D01*
X385079D01*
X385995D01*
X386912Y359083D01*
Y358166D01*
X385995Y357250D01*
X384163D01*
X383246Y358166D01*
X391494Y357250D02*
Y362748D01*
X388745Y359999D01*
X392410D01*
X344500Y370500D02*
Y375998D01*
X347249D01*
X348165Y375082D01*
Y373249D01*
X347249Y372333D01*
X344500D01*
X346333D02*
X348165Y370500D01*
X353664D02*
X349998D01*
X353664Y374165D01*
Y375082D01*
X352747Y375998D01*
X350914D01*
X349998Y375082D01*
X355496D02*
X356413Y375998D01*
X358245D01*
X359162Y375082D01*
Y374165D01*
X358245Y373249D01*
X357329D01*
X358245D01*
X359162Y372333D01*
Y371416D01*
X358245Y370500D01*
X356413D01*
X355496Y371416D01*
X360995Y375082D02*
X361911Y375998D01*
X363744D01*
X364660Y375082D01*
Y374165D01*
X363744Y373249D01*
X364660Y372333D01*
Y371416D01*
X363744Y370500D01*
X361911D01*
X360995Y371416D01*
Y372333D01*
X361911Y373249D01*
X360995Y374165D01*
Y375082D01*
X361911Y373249D02*
X363744D01*
X348165Y384832D02*
X347249Y385748D01*
X345416D01*
X344500Y384832D01*
Y381166D01*
X345416Y380250D01*
X347249D01*
X348165Y381166D01*
X353664Y380250D02*
X349998D01*
X353664Y383915D01*
Y384832D01*
X352747Y385748D01*
X350914D01*
X349998Y384832D01*
X359162Y380250D02*
X355496D01*
X359162Y383915D01*
Y384832D01*
X358245Y385748D01*
X356413D01*
X355496Y384832D01*
X360995D02*
X361911Y385748D01*
X363744D01*
X364660Y384832D01*
Y381166D01*
X363744Y380250D01*
X361911D01*
X360995Y381166D01*
Y384832D01*
X335418Y372165D02*
X334502Y371249D01*
Y369416D01*
X335418Y368500D01*
X339084D01*
X340000Y369416D01*
Y371249D01*
X339084Y372165D01*
X340000Y377664D02*
Y373998D01*
X336334Y377664D01*
X335418D01*
X334502Y376747D01*
Y374915D01*
X335418Y373998D01*
X340000Y383162D02*
Y379496D01*
X336334Y383162D01*
X335418D01*
X334502Y382245D01*
Y380413D01*
X335418Y379496D01*
X340000Y384995D02*
Y386827D01*
Y385911D01*
X334502D01*
X335418Y384995D01*
X343750Y398500D02*
Y403998D01*
X346499D01*
X347416Y403082D01*
Y401249D01*
X346499Y400333D01*
X343750D01*
X345583D02*
X347416Y398500D01*
X352914D02*
X349248D01*
X352914Y402165D01*
Y403082D01*
X351997Y403998D01*
X350165D01*
X349248Y403082D01*
X354746D02*
X355663Y403998D01*
X357495D01*
X358412Y403082D01*
Y402165D01*
X357495Y401249D01*
X356579D01*
X357495D01*
X358412Y400333D01*
Y399416D01*
X357495Y398500D01*
X355663D01*
X354746Y399416D01*
X363910Y403998D02*
X362077Y403082D01*
X360245Y401249D01*
Y399416D01*
X361161Y398500D01*
X362994D01*
X363910Y399416D01*
Y400333D01*
X362994Y401249D01*
X360245D01*
X321250Y394750D02*
Y400248D01*
X323999D01*
X324916Y399332D01*
Y397499D01*
X323999Y396583D01*
X321250D01*
X323083D02*
X324916Y394750D01*
X330414D02*
X326748D01*
X330414Y398415D01*
Y399332D01*
X329497Y400248D01*
X327665D01*
X326748Y399332D01*
X332246D02*
X333163Y400248D01*
X334995D01*
X335912Y399332D01*
Y398415D01*
X334995Y397499D01*
X334079D01*
X334995D01*
X335912Y396583D01*
Y395666D01*
X334995Y394750D01*
X333163D01*
X332246Y395666D01*
X341410Y400248D02*
X337745D01*
Y397499D01*
X339577Y398415D01*
X340494D01*
X341410Y397499D01*
Y395666D01*
X340494Y394750D01*
X338661D01*
X337745Y395666D01*
X347915Y394582D02*
X346999Y395498D01*
X345166D01*
X344250Y394582D01*
Y390916D01*
X345166Y390000D01*
X346999D01*
X347915Y390916D01*
X353414Y390000D02*
X349748D01*
X353414Y393666D01*
Y394582D01*
X352497Y395498D01*
X350664D01*
X349748Y394582D01*
X358912Y390000D02*
X355246D01*
X358912Y393666D01*
Y394582D01*
X357995Y395498D01*
X356163D01*
X355246Y394582D01*
X364410Y390000D02*
X360745D01*
X364410Y393666D01*
Y394582D01*
X363494Y395498D01*
X361661D01*
X360745Y394582D01*
X414416Y441582D02*
X413499Y442498D01*
X411666D01*
X410750Y441582D01*
Y437916D01*
X411666Y437000D01*
X413499D01*
X414416Y437916D01*
X419914Y437000D02*
X416248D01*
X419914Y440666D01*
Y441582D01*
X418997Y442498D01*
X417165D01*
X416248Y441582D01*
X421746Y437000D02*
X423579D01*
X422663D01*
Y442498D01*
X421746Y441582D01*
X426328Y437000D02*
X428161D01*
X427245D01*
Y442498D01*
X426328Y441582D01*
X479165Y24248D02*
X477333D01*
X478249D01*
Y19666D01*
X477333Y18750D01*
X476416D01*
X475500Y19666D01*
X480998Y23332D02*
X481915Y24248D01*
X483747D01*
X484664Y23332D01*
Y22415D01*
X483747Y21499D01*
X482831D01*
X483747D01*
X484664Y20583D01*
Y19666D01*
X483747Y18750D01*
X481915D01*
X480998Y19666D01*
X486496Y23332D02*
X487413Y24248D01*
X489245D01*
X490162Y23332D01*
Y19666D01*
X489245Y18750D01*
X487413D01*
X486496Y19666D01*
Y23332D01*
X335666Y23998D02*
X333833D01*
X334749D01*
Y19416D01*
X333833Y18500D01*
X332916D01*
X332000Y19416D01*
X337498Y23082D02*
X338415Y23998D01*
X340247D01*
X341164Y23082D01*
Y22166D01*
X340247Y21249D01*
X339331D01*
X340247D01*
X341164Y20333D01*
Y19416D01*
X340247Y18500D01*
X338415D01*
X337498Y19416D01*
X342996Y18500D02*
X344829D01*
X343913D01*
Y23998D01*
X342996Y23082D01*
X1583916Y1044748D02*
X1582083D01*
X1582999D01*
Y1040166D01*
X1582083Y1039250D01*
X1581167D01*
X1580250Y1040166D01*
X1588497Y1039250D02*
Y1044748D01*
X1585748Y1041999D01*
X1589414D01*
X1591247Y1043832D02*
X1592163Y1044748D01*
X1593996D01*
X1594912Y1043832D01*
Y1042915D01*
X1593996Y1041999D01*
X1593079D01*
X1593996D01*
X1594912Y1041083D01*
Y1040166D01*
X1593996Y1039250D01*
X1592163D01*
X1591247Y1040166D01*
X1203916Y1044748D02*
X1202083D01*
X1202999D01*
Y1040166D01*
X1202083Y1039250D01*
X1201167D01*
X1200250Y1040166D01*
X1208497Y1039250D02*
Y1044748D01*
X1205748Y1041999D01*
X1209414D01*
X1213996Y1039250D02*
Y1044748D01*
X1211247Y1041999D01*
X1214912D01*
X1393916Y1044748D02*
X1392083D01*
X1392999D01*
Y1040166D01*
X1392083Y1039250D01*
X1391167D01*
X1390250Y1040166D01*
X1398497Y1039250D02*
Y1044748D01*
X1395748Y1041999D01*
X1399414D01*
X1401247Y1044748D02*
X1404912D01*
Y1043832D01*
X1401247Y1040166D01*
Y1039250D01*
X1013916Y1044748D02*
X1012083D01*
X1012999D01*
Y1040166D01*
X1012083Y1039250D01*
X1011167D01*
X1010250Y1040166D01*
X1018498Y1039250D02*
Y1044748D01*
X1015749Y1041999D01*
X1019414D01*
X1021247Y1043832D02*
X1022163Y1044748D01*
X1023996D01*
X1024912Y1043832D01*
Y1042915D01*
X1023996Y1041999D01*
X1024912Y1041083D01*
Y1040166D01*
X1023996Y1039250D01*
X1022163D01*
X1021247Y1040166D01*
Y1041083D01*
X1022163Y1041999D01*
X1021247Y1042915D01*
Y1043832D01*
X1022163Y1041999D02*
X1023996D01*
D223*
X358943Y513000D02*
G03*
X358943Y513000I-2693J0D01*
G01*
X336443Y304250D02*
G03*
X336443Y304250I-2693J0D01*
G01*
X600943Y1009750D02*
G03*
X600943Y1009750I-2693J0D01*
G01*
X720953Y923500D02*
G03*
X720953Y923500I-2693J0D01*
G01*
D226*
X1399000Y914400D02*
G03*
X1399000Y914400I-1000J0D01*
G01*
X1604250Y936500D02*
G03*
X1604250Y936500I-1000J0D01*
G01*
X1019000Y914400D02*
G03*
X1019000Y914400I-1000J0D01*
G01*
X1224250Y936500D02*
G03*
X1224250Y936500I-1000J0D01*
G01*
D388*
X368000Y476750D02*
D03*
X592750Y802750D02*
D03*
X533750Y909000D02*
D03*
Y952750D02*
D03*
X144000Y732500D02*
D03*
X349750Y549000D02*
D03*
X370500Y549000D02*
D03*
X348500Y268000D02*
D03*
X327312Y340187D02*
D03*
X348500Y340250D02*
D03*
D389*
X662851Y26275D02*
D03*
X1085900Y867500D02*
D03*
X481500Y1081750D02*
D03*
X658500Y750250D02*
D03*
X702750Y801500D02*
D03*
X703000Y770500D02*
D03*
X666250Y859000D02*
D03*
X773000Y862000D02*
D03*
X677000Y750250D02*
D03*
X630000Y859000D02*
D03*
X648000D02*
D03*
X604250Y850250D02*
D03*
X887851Y26275D02*
D03*
X812851D02*
D03*
X737851D02*
D03*
X1037851Y26250D02*
D03*
X962851D02*
D03*
X942000Y1082000D02*
D03*
X387125Y419905D02*
D03*
X407250Y630500D02*
D03*
X1549250Y902500D02*
D03*
X1465900Y867500D02*
D03*
X1169250Y902500D02*
D03*
D390*
X174000Y998500D02*
D03*
Y988500D02*
D03*
X1089400Y881375D02*
D03*
Y903875D02*
D03*
Y892625D02*
D03*
X1553750Y922500D02*
D03*
X1469400Y903875D02*
D03*
Y892625D02*
D03*
Y881375D02*
D03*
X1545750Y866125D02*
D03*
Y877375D02*
D03*
Y888625D02*
D03*
X1535250Y202000D02*
D03*
X1535250Y163750D02*
D03*
X1530900Y184350D02*
D03*
X169250Y720000D02*
D03*
X758500Y131750D02*
D03*
X770750D02*
D03*
X758500Y176250D02*
D03*
X764500Y154000D02*
D03*
X747750Y165250D02*
D03*
X770750Y176250D02*
D03*
X736750Y201000D02*
D03*
X714500Y201063D02*
D03*
X574750Y850250D02*
D03*
X701000Y785000D02*
D03*
X773000Y877000D02*
D03*
X1622500Y937000D02*
D03*
X1599400Y914750D02*
D03*
X1647400Y849750D02*
D03*
X1544500Y962750D02*
D03*
X1617000Y963750D02*
D03*
X1457400Y849750D02*
D03*
X1411000Y896217D02*
D03*
X1388250Y900150D02*
D03*
X1376250Y918250D02*
D03*
X1398000Y970000D02*
D03*
X1018000Y970000D02*
D03*
X996250Y918250D02*
D03*
X1008251Y900150D02*
D03*
X1031000Y896217D02*
D03*
X1077400Y849750D02*
D03*
X1164500Y962750D02*
D03*
X1173750Y922500D02*
D03*
X1237000Y963750D02*
D03*
X1242500Y937000D02*
D03*
X1219400Y914750D02*
D03*
X1267400Y849750D02*
D03*
X1165750Y866125D02*
D03*
Y888625D02*
D03*
Y877375D02*
D03*
X419250Y610750D02*
D03*
X419250Y600250D02*
D03*
X398250Y605750D02*
D03*
X419250Y590250D02*
D03*
X419250Y579750D02*
D03*
X403855Y584750D02*
D03*
X427091Y568341D02*
D03*
X443750Y571250D02*
D03*
X454250Y571250D02*
D03*
X464250Y648250D02*
D03*
X422500Y362500D02*
D03*
X433000D02*
D03*
X405909Y359478D02*
D03*
X398000Y371000D02*
D03*
X398000Y381500D02*
D03*
X382605Y376000D02*
D03*
X398000Y402000D02*
D03*
X377000Y397000D02*
D03*
X398000Y391750D02*
D03*
X443000Y439500D02*
D03*
D392*
X226350Y903120D02*
G03*
X226350Y913280I0J5080D01*
G01*
D02*
G03*
X226350Y903120I0J-5080D01*
G01*
M02*
