M48
;Layer_Color=9474304
;FILE_FORMAT=4:4
METRIC,LZ
;TYPE=PLATED
T1F00S00C0.2000
T2F00S00C0.4000
T3F00S00C0.5500
T5F00S00C0.7000
T7F00S00C0.9000
T9F00S00C1.0000
T11F00S00C1.1000
T12F00S00C1.1200
T13F00S00C1.2000
T14F00S00C1.3000
T15F00S00C1.6000
T16F00S00C1.7000
T17F00S00C2.3000
T18F00S00C3.0000
T19F00S00C3.2000
;TYPE=NON_PLATED
T20F00S00C0.7500
T21F00S00C0.8000
T22F00S00C0.9000
T23F00S00C1.0000
T24F00S00C1.1000
T25F00S00C1.3000
T26F00S00C1.6000
T27F00S00C1.8000
T28F00S00C3.0000
T29F00S00C3.4000
%
T01
X0011875Y000165
X0016225
Y000292
X0016225Y000546
X0007675Y000635
X000765Y0007475
X0002425Y0012325
X0001675Y0020425
Y00209
X00095Y0019025
X00153Y002025
Y00208
X0015775Y0021175
X001715Y002175
X00172229Y0020125
X001745Y0017275
X001695
X00163
X0015675Y0017325
X0017375Y0016725
X0017925Y00171
X0018575
X0018975Y00175
X0019425Y00212
X0019025Y00227
X001975Y002455
X002015Y0024175
X0018225Y0025475
X001785Y002585
X001745Y0025475
X00172Y0027175
X00173Y0027675
X00172Y0028175
X00171Y00298
X00171Y00308
X00171Y00318
X0007725Y0031625
X000565Y0031175
X0006125Y0032975
X00058Y00343
X000285Y0032975
X0001575
X0002825Y00303
X0005725Y0028375
X0007075Y002695
X00209Y0027075
X002265
Y0026425
Y002575
X0022825Y00248
X00225Y002435
X002315Y002435
X002365Y0023925
X00243803Y0023675
X0020775Y0024175
X002195Y0021925
X0022825Y0020875
X00225Y0020425
X002315Y0020425
X00237Y001995
X0021975Y0019975
X0021375Y0016675
X00223Y0015625
X002265Y0027725
Y00284
X00206Y003175
X00307Y002815
X0031225Y002775
Y0020275
X0030725
X003645Y0025175
X003685Y002565
X0040125Y0026
X0041375Y0026075
X004155Y0027275
X0041825Y003085
Y00314
X00423Y0031125
X0043725Y003235
X00436Y0029225
X00433Y003525
X004225Y003525
X00366Y003485
X0034875Y0034225
X0034375
X0033875
Y0033725
X0034375
X0034875
Y0033225
X0034375
X0033875
X0034375Y0036475
X0035
X0050025Y0032625
X005105Y0033225
X00527Y00327
X005305Y0033025
X0052725Y003405
X00533Y0035725
X005575Y0035425
X0056125Y0026475
X00575392Y00258892
X0058125Y0024475
X00575392Y00230608
X0056125Y0022475
X00547108Y00230608
X0054125Y0024475
X00547108Y00258892
X0058875Y00268
X0059575
X00598Y002725
X0058575
X00503Y0029325
Y0029925
X0049625Y002975
X0046925Y0024725
X0046375Y002475
X0046925Y00218
X0047425Y00219
Y0021
X0046925Y00211
X00436Y00185
X0045075Y00166
Y00161
X0046125Y0008575
X0038725Y00082
X003915Y0011075
X003975Y0011175
X003175Y00101
X003015Y00056
X0053945Y0008425
X0055925Y0011325
X0056925
X005579Y001517
X005452
X005515Y0017225
X00567Y0016175
X00598965Y00053536
X006025Y0005
X0061965Y0008175
X0064385
X00655101Y00032525
Y00018525
X00730101Y00032525
X00746101Y00032525
X00805101Y00032525
X00821101Y00032525
X0082625Y000835
X0081
X00817Y0009225
X00799Y0009275
X0077225Y0008825
Y0008325
X00785Y0015375
X0082275Y00154
X0084275
X0085225Y00142
X00878Y00201
X0089175Y0018825
X0089125Y0022475
X00905392Y00230608
X0091125Y0024475
X00905392Y00258892
X0089125Y0026475
X00877108Y00258892
X0087125Y0024475
X00877108Y00230608
X0080975Y0024225
X00806Y00245921
X0080105Y00250871
X007975Y0025475
X00772379Y00249222
X00767Y00249172
X0076205Y00254121
X007595Y002585
X00754Y0027175
X0075575Y0028525
X0075625Y0030925
X0073475
X00729Y0032325
X007275Y0034025
X00707Y0034475
X00702Y003485
X006955
X0068975Y003485
X0068325
X0068025Y0034175
X00671Y00334
X0067075Y0032875
X0067925Y0032275
X00694Y00323
X0067425Y0030825
X0066875Y003095
X00654Y0031525
Y0032975
X0063875Y0034675
X00634Y00351211
X0062675Y003515
X0060525
X006125Y003655
X00667Y00364
X006675Y0035825
X006985Y0037025
X007165Y0037125
X00734Y0037
X007565Y0035475
X007895Y0035275
X007895Y0035825
Y0036475
X007895Y0037025
X008255Y0036125
X00830709Y0035975
X00830709Y0035325
X008255Y00352
X00837904Y00371346
X008425Y0036675
X00846389Y00362861
X0079975Y0029375
X0078075Y0028775
X007365Y002645
X0072725Y0026125
X00699Y0025225
X0069875Y00272
X006855Y002715
X006825Y002435
X00664Y002355
X0066625Y0022225
X0067125
X0066825Y002135
X0065Y0021675
X0063725Y002305
X0063875Y0024375
X006125Y002425
X006125Y00237
X006125Y002315
X006295Y0020225
X006485Y0018
X006345Y0016175
X006254Y001517
X006127
X0063235Y0014225
X0064385
X00682Y0014325
X00682521Y00170625
X00683Y00176
X006825Y001815
X0070675Y0017975
X0070675Y0017225
X007115Y00183
X0070475Y00193312
X0070325Y00201063
X007195Y0019475
X0073175
X007465Y0019325
X00748Y00201
X0075575Y0021
X0074525Y0022375
X0072125Y002215
X007095Y00221
X0069625Y002215
X0066175Y00251
X0064675Y002845
Y002895
X00645Y0029475
X0064175Y002805
X0060325Y0027225
X006015Y002995
X0060975Y0029975
X0060775Y0017975
X0072Y001665
X007315Y001665
X007405Y001665
X00743Y0016
X0076425Y0017175
X00722Y001245
X00880101Y00032525
X00896101Y00032525
X0092925Y00032
X00955101Y000325
X00971101Y000325
X009835Y0019975
X0098075Y00204
X009815Y0022175
X00966Y00236
X0096375Y0027975
X0095875Y0028225
X00941898Y00302148
Y00307352
X0094625Y00317
X00967Y0032675
X009635Y0033075
X0099425Y0031125
X0099425Y003065
X009455Y0018975
X0099875Y0016825
Y0016275
X0099875Y0015625
Y0015075
X01053875Y00148375
X01054Y00142
X0106875Y00164
X0107425
X0105325Y00209
X0104625Y00223
X0105325Y00231
X0104975Y0023475
X0102225Y00223
X0101425Y00223
X0100625
X0099825
X0100225Y00276
X0101825Y002785
X0102625
X0103425
X0104225
X0105025
X0107425Y0027675
X010905Y0026275
X0111425Y0027075
X0111425Y002755
X01114Y0030825
X011095Y003115
X0112Y0031075
X0113025Y0030725
Y0030225
X0113825Y0031
X0114625
X01139Y003365
X01133375Y00331125
X0109825Y0033325
X010895Y0031425
X0109775Y0030425
X0112275Y0024975
X0114075Y002485
X0115175
X0115875Y00241
X0115825Y00223
X0115025Y00223
X0114225
X0113425Y00223
X0112625
X0111825Y00225
X0111025
X0110225Y00223
X0113375Y00241
X0117425Y0022925
X0117425Y002245
X0118225
X0118225Y0022925
X0122625Y0027075
X0122625Y002755
X0123875Y00304
X012595Y003095
Y002975
X0126925Y003035
X01279Y003095
Y002975
X012835Y0031725
X0129425Y00319
X01335Y0031925
X01335Y0031375
X01335Y003085
X01375Y00314
X01385Y00346
X01385Y002815
Y00256
X01355Y00256
X01345Y00254375
Y00259
X01335Y00259
Y00254375
X01355Y00221
X01365Y00224
X01375
X01385Y001915
X01311Y00204
X012995Y00208
X01292Y00208
X0128525Y0020775
X012795Y002125
X0128425Y00168
X0130275Y00169
X0130775Y0016575
X01309Y0013925
X0130475Y0011875
X0131475Y0008725
X01348Y000985
X0135525Y0010575
X0134725Y0011975
X0136875Y0011975
X0139375Y0007575
X013755Y0004875
X013675
X0133075Y0005525
X0133475Y000595
X0119025Y0006075
X0112675Y0006875
X0111625Y0005875
X0110475Y0004975
X0111375Y0003184
X0113366Y0003384
Y0002884
Y0002384
X0113366Y0003884
X0112025Y0001384
X01046101Y000325
X01030101Y000325
X011515Y001375
X011565
X011615
Y001425
Y001475
X011565
Y001425
X011515
Y001475
X0126175Y0024825
X0121025Y003035
Y003085
X0120225Y0035875
X0119425
X0118625
X0101025Y003085
Y003035
X01395Y00314
X01405
X01425
X01435
X01455Y00314
X01465
X01487007Y00314856
X01496144Y00314506
Y00324506
X01502507Y00343
X01475Y00346
X01445Y00346
X01415
Y002815
Y00256
X01445Y00256
X01451993Y00255894
X01464493Y00255894
X01475744Y00255894
X01486994Y00255894
X01495394Y00271007
X0149475Y00281
X01475Y002815
X014815Y002985
X01501393Y00302743
X0151175Y0031
X01532493Y00308106
X01549394Y00301007
X01544606Y00296007
X0155175Y00291007
X01544606Y00281007
X015255Y00278
Y00289
X015145Y00289
Y00278
X01517493Y00258894
X01532493
X01539856Y00237493
X01538856Y00225243
X01545Y002195
X0154475Y002095
X0151Y0021125
X01494394Y00224506
X01494394Y00235756
X01465Y00224
X01455
X01435Y00224
X01425
X01405
X01395
X01415Y00193
X01445
X01475Y00193
X0144225Y00164
Y0015875
X014475Y0014075
X01448Y0013425
X0139875Y001385
Y0015
X0142064Y0010315
X0141239Y0009365
X0141Y0008525
X0142064Y0008415
X0142889Y0009365
X014095Y0007
X014979Y000259
X015079Y000259
X01508Y00164
X01528Y0016925
X015415Y001715
X0154525Y00152
Y00147
X01582Y0015775
X01585Y001725
X01603Y0019325
X0163625Y001935
X01651Y0018775
Y00177
Y00167
X0166424Y00136
X0166325Y001145
X01658Y001095
X0168325Y001045
X016245Y00113
X016195Y001355
X016085
Y001465
X016195
X01593Y001135
X015775Y0012
X015675
X01572Y0010425
X0157725
X015855Y00228
X0158875Y002325
X01583Y002365
X015765
X015625Y0026325
X0155525Y00266257
X0157725Y00284
X01578456Y0030295
X0157075Y0032575
X01569987Y00339394
X01553631Y0036625
X01544731Y00372387
X01607337Y00368644
X016185Y00291063
Y00285813
X01618Y0025525
X0167075Y0027825
X01457875Y0027225
X01445Y002815
X014375Y0027
X0143025Y003775
X0143025Y00383
X014625Y00396875
Y00402
X0148775Y004155
X0147275Y0044
Y00452
X01463Y00446
X0145325Y0044
Y00452
X0144875Y0043225
X01438Y004305
X01515041Y004355
X01521404Y0045295
X01554641Y0044185
X01563656Y00434872
X01563494Y0042035
X01569994
X01576494
X01582843Y00413987
X01576481Y00407637
X0158374Y00388494
X01607337Y00388644
X01553637Y00376303
X01556994Y0042035
X01563481Y00450137
Y0046285
X01563494Y0048185
X01569994
X01556994
X01551237Y00504993
X01563487
X01575737Y00504993
X01576371Y00444879
X014915Y0047225
X014575Y00517
Y005215
X014305Y0051025
X014255
X014128Y0055085
X014001
X0142Y006035
X0141325Y0062725
X014295Y00633
X0142425Y006415
X01426Y006755
X0141575Y0067675
X014475Y0071775
X0145275
X0145Y0072225
X0147975Y0073725
X01485
X0148225Y0074175
X0157075Y0073525
Y0073025
X01605821Y00662821
X013345Y006535
X013385Y0063975
X01328581Y005565
X0127375Y0056825
Y0057375
X0117075Y0059475
X0116525
X0116525Y0060025
X0117075
X011475Y0062325
X0114225
X0114475Y0062775
X0111375Y006275
X0111125Y00623
X011165
X0115227Y0066485
Y0066985
X0116875Y007275
X01174
X0117125Y00732
X0120925Y007305
X01215108Y00744642
X0122925Y007505
X01243392Y00744642
X0124925Y007305
X01243392Y00716358
X0122925Y007105
X01215108Y00716358
X0118902Y0070825
X0112298Y007185
X0110825Y0071865
X0112525Y007655
X011305
X0112775Y0077
X010775Y0076925
X0104221Y007289
X0100725Y007305
X01001392Y00716358
Y00744642
X010715Y0068025
Y0067525
X012675Y0076975
X0137437Y00734975
Y00729975
X013845Y0054025
X0130975Y004315
X01305Y00436
X0092525Y0043175
X009205Y0042875
X009205Y0043475
X00924Y0042425
X009205Y0041075
X009205Y0040475
X0092525Y0040775
X009255Y00384
X009205Y0038675
X009205Y0038075
X009028Y0039275
X009028Y0039875
X0089775Y00395
X008897Y0038675
X008897Y0038075
X0089325Y0037625
X008897Y0040475
X008897Y0041075
X0088775Y0042
X00888Y0043025
X0089Y0044375
X00898
X009028Y0044675
X009028Y0044075
X009028Y0042275
X009028Y0041675
X00872Y0041675
X00872Y0042275
Y0044075
X00872Y0044675
X008675Y004495
X0086125Y0046175
Y0046975
X0085475Y0047375
Y0046575
X00898Y0046075
X009028Y0046475
X009028Y0047075
X00898Y004725
X008953Y0047675
X008953Y0048275
X0089825Y004915
X009028Y0048875
X009028Y0049475
X009028Y0050075
X009028Y0050675
X0090275Y0051925
X009028Y0052475
X009028Y0053075
X009028Y0053675
X009028Y0054275
X00907Y0053375
X00919Y0052625
X009235Y005305
X009205Y0051875
X009205Y0051275
X009205Y0050725
X009185Y0049425
X009225Y0048475
X0092775Y0048175
X009215Y0047025
X009205Y0045875
X009205Y0045275
X0092575Y0045525
X00872Y0050075
X00872Y0050675
X008665Y00507
X008645Y0051275
X008645Y0051875
X0085825Y0052149
X00872Y0052475
X00872Y0053075
X0087375Y005365
X00872Y0054275
X0086125Y00536
Y00564
X008475Y0056925
X008425
X00827121Y0056475
X0082075Y0056925
X008175Y0060725
X0081818Y0062268
X007965Y0060725
X007755Y00607
X0075425
X007335Y0060675
X007125
X006915
X006855Y00606
X00680188Y00606
X0068425Y0060025
X00668521Y0059575
X006605Y0059525
X006645Y0058775
X00672521Y00582
Y005765
X006335Y00571
X0063375Y0056175
X006265
X0061875Y0055425
X0060825Y0056625
X006195Y006055
X0062825Y00618
X0064057Y0062268
X006565Y00606725
X006925Y00636
X0069425Y0064125
X007095Y006535
X0071575
X0072251Y0065351
X007285Y006535
X007345
X0078725Y006545
X0079686Y0064186
X008565Y0064475
X0087575Y006425
X0086375Y00661062
Y00680437
X0087125Y00682937
X00877108Y00710608
X0087125Y0072475
X00877108Y00738892
X0089125Y0074475
X00905392Y00738892
X0091125Y0072475
X00905392Y00710608
X0089125Y0070475
X0091275Y006645
X0093275Y0065975
X0094064Y006575
X00948Y006225
X00946Y0060625
X0092025Y0060575
X00922Y0062175
X00918Y0062475
X00909Y0062375
X0090325
X008525Y006255
X0086825Y00606
X00878Y0056925
X0090575Y00564
X009535Y0053575
Y005305
X009685Y00614
X00973108Y00716358
X0096725Y007305
X00973108Y00744642
X0098725Y007505
Y007105
X00828Y007245
X0082675Y0069275
X00716Y00709
X00725161Y00721201
X00725361Y007315
X0070525Y00752
X0071125Y007615
X0068325Y00745
X0065975
X0065025Y0074975
X00645
Y007445
X00637161Y00739701
X00637136Y00728225
X006255Y0072675
X00625Y007505
X0065975Y007215
X00664Y0070804
X006715Y0073325
X0068325Y007215
X0068425Y0067675
X0067925Y006725
X0063925Y0067925
X00629Y006725
X006315Y0050925
X0063675Y0051275
X006415Y0051675
X006615Y0049725
X0066775
X0068125
X0070625Y0048
X007295Y004805
X0075325Y0048075
X0075375Y0049675
X007375Y0049825
X00736Y0052625
X0073675Y0053125
X00723Y00546
X00709629Y00512771
X007095Y00455
X0070375Y0045675
X007045Y0043275
X0070968Y0043285
X006835Y0043175
Y00437
X0066875Y00428
X00683Y004045
X007035Y00374
X007115Y00374
X007215Y00374
X007295Y00374
X0074425Y00398
X0074925Y0040225
X0075625Y004055
X00739Y0040475
X0072875Y004485
X0073425Y0045925
X007875Y0046
X0078525Y00452
X00792Y0044325
X007955Y004465
X0081075Y00444
X007985Y0040475
X00788582Y0039175
X0083325Y0039225
Y0038575
X0083275Y00374
X0083225Y0040025
X0086725Y00396
X00872Y0039875
X00872Y0039275
X008125Y005265
X007985Y005395
X0078065Y0052735
X00648Y0048025
X0066275Y00461
X00603Y00436
X00614Y0040275
X00594Y0040625
X0059Y0040275
Y00397
X005905Y0038075
X005845
X0057775Y0038175
X0057775Y0038975
X0056555Y0038575
X0056555Y0039375
X0054695Y0038975
X0054695Y0039775
X0053475Y0039375
Y0038575
X0050625Y0038
X0048Y00388
X0048175Y00394
X0046325Y0039925
Y00406
Y0041275
X0046325Y004195
X0046025Y0042925
X0045225Y0042925
X00444Y00413
Y004045
Y00396
X00432
Y004045
Y00413
X00418295Y00427239
X00410795
X00410795Y00434739
X00418295
X00403295Y00434739
X00403295Y00427239
X00378625Y00427405
Y00412405
X00388Y0040225
X00388Y0039175
X00388Y003815
X00382605Y00386
X0032475Y0037525
X0031075Y0038425
X0026587Y003924
X0027175Y0040075
X00275786Y00404535
X0026158Y00441425
X0023658Y0044105
Y0044605
X00273Y004955
X00288
Y00525
Y005305
Y00568
X002675Y0058625
X002625Y0058625
X0025225Y0062275
X00275
X0029775Y00623
X0031775Y0062275
X00337Y0062475
X003425
Y0063
X0033725
X003405Y005895
X00347Y0058675
X0036Y00551
Y00546
Y00541
X00365
X0037
Y00546
Y00551
X00365
Y00546
X00403855Y0059475
X0040925Y0059025
X0040925Y006005
X0040925Y00611
X00424545Y00635989
X00424545Y00643489
X00432045
X00439545
Y00635989
X00432045
X0045325Y0062175
Y0061325
Y0060475
X0046525
Y0061325
Y0062175
X004845Y006215
Y0061475
Y00608
X004845Y0062825
X004815Y00638
X004735Y00638
X004425Y00689
X00547108Y00710608
X0054125Y0072475
X00547108Y00738892
X0056125Y0074475
X00575392Y00738892
X0058125Y0072475
X00575392Y00710608
X0056125Y0070475
X0056275Y0066825
X0056875
X0059275Y0066075
X0057225Y006135
X00566Y00608
X0054575Y0060925
X0053475
X005285
X0053225Y0058375
X005225Y0058225
X0052025Y0057775
X00541Y0056125
X0053475Y0054575
X0053475Y0052575
Y0051375
X0053475Y0050575
X0053475Y0049775
Y0048975
Y0047375
X0054695Y0047775
X0054695Y0049375
X0055325Y0049775
X0056555
X0056555Y0050575
X0055525Y0051425
X0055025Y0051375
X0054695Y0051775
X0054695Y0050975
Y0052975
X0055325Y005235
X00559Y0054425
X0057775Y0055775
X0058375Y00569
X0058725Y005725
X00582Y0052675
X0058225Y0052125
X005865Y00518
X005895Y0051375
X0056425Y004735
X0056555Y0045775
X0056555Y0044175
X005618Y0043775
X00561Y004315
X00565Y00427
X0054675Y004295
X00533
X00527
X0052175Y0042725
X0052525Y004375
Y004435
X00536Y0044575
X0054695Y0045375
X0058175Y004385
X0058725
Y00433
X0058175
X0059625Y0043275
X00524Y005275
X004575Y005305
Y00538
X0045425Y0056125
X0044375Y0056125
X00323Y0048725
X00318
X00313
Y0048225
X00318
X00323
X0021385Y0055696
X002241Y00623
X002275Y0071875
X00235
Y0072625
Y0073375
X002275
X0022
Y0072625
Y0071875
X002275Y0072625
X00224328Y0075525
X00219025Y0075525
X0021225Y0075625
X0036875Y0075475
X003735Y0075475
X0037825Y0075475
X003875Y00765
X0039225Y00765
X001965Y0076575
X0015675
X000965Y007535
X00072Y00755
X000655Y00755
X00059Y00755
X00025Y00769
X000651Y00624
Y0055796
X0011775Y00562
X0011875Y0058725
X0011375
X001135Y0059675
X001185
X001095Y0041725
X0018525Y00397
X0019983Y0040265
X001965Y00772
Y0077825
Y007845
X0018775Y00815
Y00825
X0017775
X0016775
Y00815
X0017775
X0015675Y007845
Y0077825
Y00772
X00025Y0078
X00025Y00791
Y00802
Y00813
Y00824
Y00835
Y00846
X0003375Y008475
Y008375
X000335Y008275
X00026Y00922
X0002525Y0096625
X0015425Y009615
Y009715
X0016425
X0017425
X0018425
X0019425
X0015425Y009515
Y009415
Y009315
Y009215
Y009115
X001055Y0091225
X00095Y009
X0024Y0092825
Y009345
Y0094075
Y00947
X00264
Y0094075
Y009345
Y0092825
X002895Y0092325
Y00917
X003415Y0089725
X00351Y009065
X00359625Y00912625
X0044375Y00912
X0044375Y0090525
X0045125
X0045125Y00912
X0045875
Y0090525
X00458Y0088475
X0045075
X00427Y008945
X0042575Y0083075
X0045725Y00845
Y0085425
X00491Y009025
X004905Y00924
X0051325Y00925
X0051325Y0093175
X0052075
X0052075Y00925
X0052825
Y0093175
Y0088425
X00546625Y00901125
X00594Y0087725
X0060075Y0099825
X0059825Y0100975
X0059125Y01027
X0055175Y0100575
X0052675
X0052825Y009905
X0052225
X0053825Y00983
X005485Y0098325
X005045Y01011
X00506Y01017
X0023425Y009715
X0022425
X0021425
X0020425
X0034475Y0081425
Y0080675
X0035225
X0035975
Y0079925
X0035225
X0034475
X0035225Y0081425
X0035975
X003855Y0078775
X0039025Y0078775
X0060725Y0087725
X006175
X006295Y0099825
X0062Y0100975
X00705Y0094425
X007215Y0094275
X007435Y009465
X0075025Y009505
Y009565
X0076225
Y009505
X00814Y0094675
X0081125Y0097475
X0085625Y0098125
X0084325Y0100375
X008545Y0106225
X00747
X00779Y0089175
X0084425Y0089575
X0085625Y008985
X008805Y0090175
X008885Y008925
X0088175Y00947
X0093525Y0094535
Y0095135
X0094725
Y0094535
X009475Y0093425
X00942
X00944Y009295
X0094975
X0099625Y00928
X009895Y009155
Y0091
X0095125Y01038
X00749Y008435
X0073675Y0083025
X00721Y0081275
X0072075Y008065
X00713Y007765
X0074375Y007915
X0105Y00795
X0106Y00815
X01065Y00825
Y00835
Y00845
X01064Y00854
X01055Y00859
X01048Y0087
X01054Y00879
X0105Y0089
X01045Y009
Y0091
Y0092
X01037751Y00923
Y009328
Y009428
X0102785Y009429
X0102775Y009329
X0101775Y00933
Y009428
Y00923
X01027651Y009229
X0102Y009
Y0089
X0101325Y00894
X009985Y0090015
X01023Y00878
X01033Y00869
X0107Y00885
X01079Y00887
X0109Y00855
Y00845
Y00835
Y00825
X01095Y00815
X0110525Y00799
X0107725Y0078875
X0108665Y00924375
Y00928875
X0110215Y00928875
Y00924375
X01097801Y0094175
X01091
X01086875Y0094975
X01076875Y0094975
X01066875
X01056875Y0094975
X01046875
Y0097575
X01056875
X01066875Y0097575
X01076875
X01086875Y0097575
X01096875
X01106875
X01116875
X01126875Y0097575
X01136875
X01146875
X01156875
X01166875
X01176875Y0097425
X0118575Y0096975
X0120225Y009775
X011965Y00989
X01195Y0100125
Y0101125
X01221001
Y0100125
X01227Y009925
X0123975Y00989
X0124775Y0098075
X0124575Y0096875
X012425Y00956728
X01226Y00965
X0121475Y0097125
X0120475Y0094625
X0117675Y0094625
X01166875Y0094975
X01156875
X01146875
X01136875
X01126875
X01116875Y0094975
X01106875
X01096875
X01031001Y0096
Y0097
X0103675Y0097175
X01031001Y0098
Y0099
Y01
Y0101
X01005
Y01
Y0099
Y0098
Y0097
Y0096
Y0095
X011675Y0093925
X0116075Y00930125
Y00920125
X0116275Y00911
X0118925Y009105
X0118675Y00920125
Y00930125
X0119825Y0090425
X0120965Y0091475
X0122215Y009105
X0122765
X012295Y0090425
X012405Y0090375
X012525Y009025
X0126275Y0089525
X01271Y008875
X0127775Y008785
X0127925Y0086675
X01280401Y0085625
Y0084625
Y0083625
Y0082625
X012844Y0081625
X012494
X012544Y0082625
Y0083625
Y0084625
Y0085625
X012525Y0086625
X012455Y0087275
X0123575Y00875
X0122Y0088425
X0121325Y008845
X012135Y0089125
X0122025Y00891
X0120575Y0087525
X011945Y008755
X0118525Y00876
X0117675Y00879
X012015Y00854125
X01206
X01206Y00838625
X012015
X0122175Y00841125
Y00846375
Y00851625
X012405Y007945
X012675Y0079325
X0134508Y00783625
X013856Y0079325
X0139085
X0139325Y00894
X013785Y0090015
X013695Y0091
Y009155
X0137625Y00928
X01385Y0095
Y0096
Y0097
Y0098
Y0099
Y01
Y0101
X0131975Y00971104
X012505Y00932
X0139775Y00933
Y009428
X0140785Y009429
X01417751Y009428
Y009328
Y00923
X0140765Y009229
X0139775Y00923
X0140775Y009329
X01425Y0092
Y0091
Y009
X0143Y0089
X01434Y00879
X0142975Y0087
X01435Y00859
X01444Y00854
X01445Y00845
Y00835
Y00825
X0144Y00815
X014305Y0079475
X014575Y00789
X01475Y00815
X0147Y00825
Y00835
Y00845
Y00855
X0145925Y0088725
X0145Y00885
X014125Y0087125
X01403Y00878
X014Y0089
Y009
X01411001Y0096
Y0097
X0141725Y00971
X01426875Y0097575
X01436875
X01446875Y0097575
X01456875
X01466875Y0097575
X01476875
X01486875
X01496875
X01506875Y0097575
X01516875
X01526875
X01536875
X01546875
X01556875Y0097425
X0156575Y0096975
X0158075Y009775
X015765Y00989
X01575Y0100125
Y0101125
X01601
Y0100125
X01607Y009925
X0161975Y00989
X0162775Y0098075
X0163Y0096825
X01629Y00956
X0162575Y009485
X016305Y00932
X016325Y009025
X016205Y0090375
X016095Y0090425
X0160765Y009105
X0160215
X0158965Y0091475
X0157825Y0090425
X0156925Y009105
X0156675Y00920125
Y00930125
X0154075
Y00920125
X0154275Y00911
X015475Y0093925
X01546875Y0094975
X01536875
X01526875
X01516875
X01506875
X01496875Y0094975
X01486875
X01476875
X01477801Y0094175
X01471
X01466875Y0094975
X01456875Y0094975
X01446875
X01436875Y0094975
X01426875
X01411001Y0098
Y0099
Y01
Y0101
X0146665Y00928875
Y00924375
X0148215Y00924375
Y00928875
X0155675Y0094625
X0158475Y0094625
X0159475Y0097125
X01606Y00965
X0160025Y00891
X015935Y0089125
X0159325Y008845
X016Y0088425
X0158575Y0087525
X015745Y008755
X0156525Y00876
X0155675Y00879
X015815Y00854125
X01586
X01586Y00838625
X015815
X0160175Y00841125
Y00846375
Y00851625
X016344Y0085625
Y0084625
Y0083625
Y0082625
X016294Y0081625
X0162025Y00795
X016475Y00794
X016335Y00778
X016075Y0077365
X01591Y00792
X0158575
X015805
X01564Y0081975
X015595Y0082225
Y00817
X0154146Y007839
X0148425Y0080575
X013961Y0079325
X0141112Y00773375
X016644Y0081625
X01660401Y0082625
Y0083625
Y0084625
Y0085625
X0165925Y0086675
X0165775Y008785
X01651Y008875
X0164275Y0089525
X016325Y0086625
X016255Y0087275
X0161575Y00875
T02
X0051125Y0102545
X0051925
X0052725
X0053525
X0054325
X0055125
X0055925
X0056725
X0056325Y0103245
X0055525
X0054725
X0053125
X0052325
X0051525
T03
X00082001Y00498983
X00093561
X00105121
X00116681
X00128241
X00139801
X00151361
X00162921
X00174481
X00186041
X00180261Y00508983
X00168701
X00157141
X00145581
X00134021
X00122461
X00110901
X00099341
X00087781
X00093561Y00660983
X00105121
X00116681
X00128241
X00139801Y00660983
X00151361
X00162921
X00174481
X00186041Y00660983
X00180261Y00670983
X00168701
X00157141
X00145581
X00134021
X00122461
X00110901
X00099341
X00087781
X00082001Y00660983
T05
X000991Y00273
X001141Y00268
Y00288
Y00308
Y00328
Y00348
X000991Y00343
Y00318
Y00298
X001311
Y00318
X001461Y00328
Y00308
Y00288
Y00268
X001311Y00273
Y00343
X001461Y00348
X008115Y0013625
X008875
T07
X001063Y000905
X001317
X0016955Y000905
X0019495
X0025419Y0009025
X0027959
X0030499
X0030499Y0015075
X0027959
X0025419
X0037319Y0015075
X0039859
X0042399
Y0021125
X0039859
X0037319
Y0009025
X0039859
X0042399
X00445447Y0002163
X00470876
X00496304
X00521733
X003987Y000205
X003733
X0030499Y0002038
X0027959
X0025419
X01416214Y00427607
Y00453035
X01416214Y00478464
X015055Y00479143
Y00453714
Y00428286
Y00402857
X01390785Y00427607
Y00453035
X01390786Y00478464
X00318143Y00468
X00292714
X00267286
X00241857
X0014Y00904357
Y00929786
Y00955214
Y00980643
X0079285Y0098335
X0090715
X00860714Y00876214
X00835286
Y00850786
X00860714
X013075Y0102405
Y0104945
T09
X0004287Y00102519
Y00127947
Y00153376
Y00178804
X0012491
Y00153376
X011725Y000253
X012175
X016308Y003182
Y003436
X016562
Y003182
X016562Y00369
X016308
X016308Y003944
Y004198
Y004452
Y004706
X016562
Y004452
Y004198
Y003944
X016562Y00496
X016308
X016308Y005214
Y005468
X016562
Y005214
X0165875Y00631893
X0165875Y00657321
X0165875Y0068275
X0165875Y00708178
X0165875Y00733607
X01529964Y00711536
Y00686107
Y00660679
Y0063525
Y00609822
Y00584393
Y00558964
X01504536
Y00584393
Y00609822
X01504536Y0063525
X01504536Y00660679
Y00686107
Y00711536
X00413714Y0067525
X00388286
X00199464Y0106125
X00174036
X003525Y00975714
Y00950286
X0079285Y0095815
X0081825
X0084365
X0086905
X0089445
X0088175Y0093275
X0085635
X0083095
X0080555
X0081825Y0099605
X0088175
X0090715Y0093275
T11
X0001975Y00899
X0001975Y00944
X0001975Y00992
X0006975Y00944
Y00908
X0010075Y00928
Y0096
T12
X007836Y0106225
X00809
X00891
X009164
T13
X00250286Y00261393
Y00286821
Y0031225
X00275714
X00275714Y00286821
Y00261393
Y00337678
X00250286
Y00363107
X00275714Y00363107
T14
X0115995Y000502
X0123005
T15
X000865Y0102725
Y0107825
X001375
X00112Y0105275
X001375Y0102725
X002365
X00262Y0105275
X002875Y0107825
X002365
X002875Y0102725
X003865
X00412Y0105275
X004375Y0107825
X003865
X004375Y0102725
X009925Y0102725
Y0107825
X01018Y0105275
X010435Y0102725
Y0107825
X011825
X012335
X01208Y0105275
X011825Y0102725
X012335Y0102725
X013725
Y0107825
X014235
X01398Y0105275
X014235Y0102725
X015625
Y0107825
X016135
X01588Y0105275
X016135Y0102725
T16
X007715Y0099115
X009285
T17
X000791Y002423
X001359
Y003737
X000791
T18
X00035Y00035
X01665
X00035Y01065
X01665
T19
X004925Y001425
X012075
X004925Y008575
T20
X0167635Y001445
Y002295
T21
X0Y0029375
Y003055
Y003175
Y003295
X017
Y003175
Y003055
Y0029375
Y007205
Y007325
Y007445
Y0075625
X0
Y007445
Y007325
Y007205
X0039475Y011
X004065Y011
X004185
X004305
X00832125
X00843875Y011
X00855875
X00867875
X012695Y011
X012815
X012935
X0130525Y011
T22
X0126575Y0001625
X0126575Y0014525
X0141475
Y0001625
T23
X0135225Y006605
T24
X0123325Y0025
T25
X0006447Y00127947
X00650105Y00053025
X00675105
X00725105
X00750105
X00800105
X00825105
X00875105
X00900105
X00950105
X00975105
X01025105Y00053
X01050105
X0135225Y005855
T26
X0098325Y0025
T27
X00063001Y00488983
Y00650983
X00195501Y00685983
Y00523983
T28
X0056125Y0024475
X0089125Y0024475
X0122925Y007305
X0098725
X0089125Y0072475
X0056125Y0072475
T29
X0079285Y0102165
X0090715Y0102165
M30
