G04*
G04 #@! TF.GenerationSoftware,Altium Limited,Altium Designer,19.1.6 (110)*
G04*
G04 Layer_Color=8388736*
%FSLAX44Y44*%
%MOMM*%
G71*
G01*
G75*
%ADD38R,0.6000X2.0000*%
%ADD39R,2.3000X3.2000*%
%ADD43C,1.6000*%
%ADD102C,3.0000*%
%ADD103R,2.9000X4.1000*%
%ADD104R,2.9000X3.9000*%
%ADD105R,0.7000X0.2000*%
%ADD106R,1.7019X1.2013*%
%ADD107R,1.2000X1.7000*%
%ADD108R,1.6006X1.0004*%
%ADD109R,1.7011X1.0006*%
%ADD110R,1.7018X1.7018*%
%ADD111R,1.7009X1.7009*%
%ADD112R,1.9526X0.9011*%
%ADD113R,1.9518X0.9007*%
%ADD114R,1.9504X0.9002*%
%ADD115R,1.9525X0.9010*%
%ADD116R,1.9522X0.9009*%
%ADD117R,1.9516X0.9006*%
%ADD118R,1.9530X0.9012*%
%ADD119R,1.9504X0.9002*%
%ADD120R,2.2000X0.8000*%
%ADD121R,1.3400X1.0000*%
%ADD122R,1.2400X0.9000*%
G04:AMPARAMS|DCode=123|XSize=0.8mm|YSize=0.5mm|CornerRadius=0.1mm|HoleSize=0mm|Usage=FLASHONLY|Rotation=90.000|XOffset=0mm|YOffset=0mm|HoleType=Round|Shape=RoundedRectangle|*
%AMROUNDEDRECTD123*
21,1,0.8000,0.3000,0,0,90.0*
21,1,0.6000,0.5000,0,0,90.0*
1,1,0.2000,0.1500,0.3000*
1,1,0.2000,0.1500,-0.3000*
1,1,0.2000,-0.1500,-0.3000*
1,1,0.2000,-0.1500,0.3000*
%
%ADD123ROUNDEDRECTD123*%
%ADD124C,1.7000*%
G04:AMPARAMS|DCode=125|XSize=0.95mm|YSize=3.65mm|CornerRadius=0.2625mm|HoleSize=0mm|Usage=FLASHONLY|Rotation=0.000|XOffset=0mm|YOffset=0mm|HoleType=Round|Shape=RoundedRectangle|*
%AMROUNDEDRECTD125*
21,1,0.9500,3.1250,0,0,0.0*
21,1,0.4250,3.6500,0,0,0.0*
1,1,0.5250,0.2125,-1.5625*
1,1,0.5250,-0.2125,-1.5625*
1,1,0.5250,-0.2125,1.5625*
1,1,0.5250,0.2125,1.5625*
%
%ADD125ROUNDEDRECTD125*%
G04:AMPARAMS|DCode=126|XSize=0.95mm|YSize=2.75mm|CornerRadius=0.2625mm|HoleSize=0mm|Usage=FLASHONLY|Rotation=0.000|XOffset=0mm|YOffset=0mm|HoleType=Round|Shape=RoundedRectangle|*
%AMROUNDEDRECTD126*
21,1,0.9500,2.2250,0,0,0.0*
21,1,0.4250,2.7500,0,0,0.0*
1,1,0.5250,0.2125,-1.1125*
1,1,0.5250,-0.2125,-1.1125*
1,1,0.5250,-0.2125,1.1125*
1,1,0.5250,0.2125,1.1125*
%
%ADD126ROUNDEDRECTD126*%
%ADD127R,0.7000X2.1000*%
%ADD128R,1.7000X3.8000*%
%ADD129R,1.6000X0.8500*%
%ADD130R,0.7000X1.0000*%
%ADD131R,0.4200X1.1100*%
%ADD132R,0.4200X1.0100*%
%ADD133R,1.0100X0.4200*%
%ADD134R,0.3000X1.1000*%
%ADD135R,0.4000X1.3000*%
G04:AMPARAMS|DCode=136|XSize=1.1mm|YSize=1mm|CornerRadius=0.1625mm|HoleSize=0mm|Usage=FLASHONLY|Rotation=270.000|XOffset=0mm|YOffset=0mm|HoleType=Round|Shape=RoundedRectangle|*
%AMROUNDEDRECTD136*
21,1,1.1000,0.6750,0,0,270.0*
21,1,0.7750,1.0000,0,0,270.0*
1,1,0.3250,-0.3375,-0.3875*
1,1,0.3250,-0.3375,0.3875*
1,1,0.3250,0.3375,0.3875*
1,1,0.3250,0.3375,-0.3875*
%
%ADD136ROUNDEDRECTD136*%
G04:AMPARAMS|DCode=137|XSize=5.7mm|YSize=2.2mm|CornerRadius=0.575mm|HoleSize=0mm|Usage=FLASHONLY|Rotation=0.000|XOffset=0mm|YOffset=0mm|HoleType=Round|Shape=RoundedRectangle|*
%AMROUNDEDRECTD137*
21,1,5.7000,1.0500,0,0,0.0*
21,1,4.5500,2.2000,0,0,0.0*
1,1,1.1500,2.2750,-0.5250*
1,1,1.1500,-2.2750,-0.5250*
1,1,1.1500,-2.2750,0.5250*
1,1,1.1500,2.2750,0.5250*
%
%ADD137ROUNDEDRECTD137*%
G04:AMPARAMS|DCode=138|XSize=1.9mm|YSize=1.25mm|CornerRadius=0.1938mm|HoleSize=0mm|Usage=FLASHONLY|Rotation=180.000|XOffset=0mm|YOffset=0mm|HoleType=Round|Shape=RoundedRectangle|*
%AMROUNDEDRECTD138*
21,1,1.9000,0.8625,0,0,180.0*
21,1,1.5125,1.2500,0,0,180.0*
1,1,0.3875,-0.7563,0.4313*
1,1,0.3875,0.7563,0.4313*
1,1,0.3875,0.7563,-0.4313*
1,1,0.3875,-0.7563,-0.4313*
%
%ADD138ROUNDEDRECTD138*%
G04:AMPARAMS|DCode=139|XSize=3.4mm|YSize=1.7mm|CornerRadius=0.25mm|HoleSize=0mm|Usage=FLASHONLY|Rotation=180.000|XOffset=0mm|YOffset=0mm|HoleType=Round|Shape=RoundedRectangle|*
%AMROUNDEDRECTD139*
21,1,3.4000,1.2000,0,0,180.0*
21,1,2.9000,1.7000,0,0,180.0*
1,1,0.5000,-1.4500,0.6000*
1,1,0.5000,1.4500,0.6000*
1,1,0.5000,1.4500,-0.6000*
1,1,0.5000,-1.4500,-0.6000*
%
%ADD139ROUNDEDRECTD139*%
G04:AMPARAMS|DCode=140|XSize=6.8mm|YSize=6.8mm|CornerRadius=0.8875mm|HoleSize=0mm|Usage=FLASHONLY|Rotation=180.000|XOffset=0mm|YOffset=0mm|HoleType=Round|Shape=RoundedRectangle|*
%AMROUNDEDRECTD140*
21,1,6.8000,5.0250,0,0,180.0*
21,1,5.0250,6.8000,0,0,180.0*
1,1,1.7750,-2.5125,2.5125*
1,1,1.7750,2.5125,2.5125*
1,1,1.7750,2.5125,-2.5125*
1,1,1.7750,-2.5125,-2.5125*
%
%ADD140ROUNDEDRECTD140*%
%ADD141R,0.4100X0.4000*%
%ADD142R,1.0000X2.6500*%
%ADD143R,1.5000X2.6500*%
G04:AMPARAMS|DCode=144|XSize=0.35mm|YSize=1.1mm|CornerRadius=0.1125mm|HoleSize=0mm|Usage=FLASHONLY|Rotation=90.000|XOffset=0mm|YOffset=0mm|HoleType=Round|Shape=RoundedRectangle|*
%AMROUNDEDRECTD144*
21,1,0.3500,0.8750,0,0,90.0*
21,1,0.1250,1.1000,0,0,90.0*
1,1,0.2250,0.4375,0.0625*
1,1,0.2250,0.4375,-0.0625*
1,1,0.2250,-0.4375,-0.0625*
1,1,0.2250,-0.4375,0.0625*
%
%ADD144ROUNDEDRECTD144*%
G04:AMPARAMS|DCode=145|XSize=0.35mm|YSize=1.1mm|CornerRadius=0.1125mm|HoleSize=0mm|Usage=FLASHONLY|Rotation=180.000|XOffset=0mm|YOffset=0mm|HoleType=Round|Shape=RoundedRectangle|*
%AMROUNDEDRECTD145*
21,1,0.3500,0.8750,0,0,180.0*
21,1,0.1250,1.1000,0,0,180.0*
1,1,0.2250,-0.0625,0.4375*
1,1,0.2250,0.0625,0.4375*
1,1,0.2250,0.0625,-0.4375*
1,1,0.2250,-0.0625,-0.4375*
%
%ADD145ROUNDEDRECTD145*%
%ADD146R,0.4300X0.9500*%
%ADD147R,0.9500X0.4300*%
%ADD148R,2.5000X2.5000*%
G04:AMPARAMS|DCode=149|XSize=2.1mm|YSize=3.5mm|CornerRadius=0mm|HoleSize=0mm|Usage=FLASHONLY|Rotation=0.000|XOffset=0mm|YOffset=0mm|HoleType=Round|Shape=Octagon|*
%AMOCTAGOND149*
4,1,8,-0.5250,1.7500,0.5250,1.7500,1.0500,1.2250,1.0500,-1.2250,0.5250,-1.7500,-0.5250,-1.7500,-1.0500,-1.2250,-1.0500,1.2250,-0.5250,1.7500,0.0*
%
%ADD149OCTAGOND149*%

%ADD150R,0.8112X1.7000*%
%ADD151R,1.0144X2.1000*%
G04:AMPARAMS|DCode=152|XSize=1.05mm|YSize=0.75mm|CornerRadius=0.2125mm|HoleSize=0mm|Usage=FLASHONLY|Rotation=180.000|XOffset=0mm|YOffset=0mm|HoleType=Round|Shape=RoundedRectangle|*
%AMROUNDEDRECTD152*
21,1,1.0500,0.3250,0,0,180.0*
21,1,0.6250,0.7500,0,0,180.0*
1,1,0.4250,-0.3125,0.1625*
1,1,0.4250,0.3125,0.1625*
1,1,0.4250,0.3125,-0.1625*
1,1,0.4250,-0.3125,-0.1625*
%
%ADD152ROUNDEDRECTD152*%
G04:AMPARAMS|DCode=153|XSize=1.05mm|YSize=1.1mm|CornerRadius=0.2875mm|HoleSize=0mm|Usage=FLASHONLY|Rotation=180.000|XOffset=0mm|YOffset=0mm|HoleType=Round|Shape=RoundedRectangle|*
%AMROUNDEDRECTD153*
21,1,1.0500,0.5250,0,0,180.0*
21,1,0.4750,1.1000,0,0,180.0*
1,1,0.5750,-0.2375,0.2625*
1,1,0.5750,0.2375,0.2625*
1,1,0.5750,0.2375,-0.2625*
1,1,0.5750,-0.2375,-0.2625*
%
%ADD153ROUNDEDRECTD153*%
%ADD154R,1.1000X1.6500*%
%ADD155R,1.7000X1.3000*%
%ADD156R,1.3000X1.3000*%
%ADD157R,2.2500X1.3000*%
%ADD158R,4.1000X5.1000*%
G04:AMPARAMS|DCode=159|XSize=0.9mm|YSize=0.9mm|CornerRadius=0.15mm|HoleSize=0mm|Usage=FLASHONLY|Rotation=90.000|XOffset=0mm|YOffset=0mm|HoleType=Round|Shape=RoundedRectangle|*
%AMROUNDEDRECTD159*
21,1,0.9000,0.6000,0,0,90.0*
21,1,0.6000,0.9000,0,0,90.0*
1,1,0.3000,0.3000,0.3000*
1,1,0.3000,0.3000,-0.3000*
1,1,0.3000,-0.3000,-0.3000*
1,1,0.3000,-0.3000,0.3000*
%
%ADD159ROUNDEDRECTD159*%
%ADD160R,3.4000X1.3700*%
%ADD161R,4.6000X2.4500*%
G04:AMPARAMS|DCode=162|XSize=3.1mm|YSize=1.3mm|CornerRadius=0.35mm|HoleSize=0mm|Usage=FLASHONLY|Rotation=90.000|XOffset=0mm|YOffset=0mm|HoleType=Round|Shape=RoundedRectangle|*
%AMROUNDEDRECTD162*
21,1,3.1000,0.6000,0,0,90.0*
21,1,2.4000,1.3000,0,0,90.0*
1,1,0.7000,0.3000,1.2000*
1,1,0.7000,0.3000,-1.2000*
1,1,0.7000,-0.3000,-1.2000*
1,1,0.7000,-0.3000,1.2000*
%
%ADD162ROUNDEDRECTD162*%
G04:AMPARAMS|DCode=163|XSize=3.6mm|YSize=1.3mm|CornerRadius=0.35mm|HoleSize=0mm|Usage=FLASHONLY|Rotation=90.000|XOffset=0mm|YOffset=0mm|HoleType=Round|Shape=RoundedRectangle|*
%AMROUNDEDRECTD163*
21,1,3.6000,0.6000,0,0,90.0*
21,1,2.9000,1.3000,0,0,90.0*
1,1,0.7000,0.3000,1.4500*
1,1,0.7000,0.3000,-1.4500*
1,1,0.7000,-0.3000,-1.4500*
1,1,0.7000,-0.3000,1.4500*
%
%ADD163ROUNDEDRECTD163*%
G04:AMPARAMS|DCode=164|XSize=3.6mm|YSize=1.3mm|CornerRadius=0.35mm|HoleSize=0mm|Usage=FLASHONLY|Rotation=0.000|XOffset=0mm|YOffset=0mm|HoleType=Round|Shape=RoundedRectangle|*
%AMROUNDEDRECTD164*
21,1,3.6000,0.6000,0,0,0.0*
21,1,2.9000,1.3000,0,0,0.0*
1,1,0.7000,1.4500,-0.3000*
1,1,0.7000,-1.4500,-0.3000*
1,1,0.7000,-1.4500,0.3000*
1,1,0.7000,1.4500,0.3000*
%
%ADD164ROUNDEDRECTD164*%
G04:AMPARAMS|DCode=165|XSize=3.1mm|YSize=1.3mm|CornerRadius=0.35mm|HoleSize=0mm|Usage=FLASHONLY|Rotation=0.000|XOffset=0mm|YOffset=0mm|HoleType=Round|Shape=RoundedRectangle|*
%AMROUNDEDRECTD165*
21,1,3.1000,0.6000,0,0,0.0*
21,1,2.4000,1.3000,0,0,0.0*
1,1,0.7000,1.2000,-0.3000*
1,1,0.7000,-1.2000,-0.3000*
1,1,0.7000,-1.2000,0.3000*
1,1,0.7000,1.2000,0.3000*
%
%ADD165ROUNDEDRECTD165*%
G04:AMPARAMS|DCode=166|XSize=5.1mm|YSize=1.3mm|CornerRadius=0.35mm|HoleSize=0mm|Usage=FLASHONLY|Rotation=270.000|XOffset=0mm|YOffset=0mm|HoleType=Round|Shape=RoundedRectangle|*
%AMROUNDEDRECTD166*
21,1,5.1000,0.6000,0,0,270.0*
21,1,4.4000,1.3000,0,0,270.0*
1,1,0.7000,-0.3000,-2.2000*
1,1,0.7000,-0.3000,2.2000*
1,1,0.7000,0.3000,2.2000*
1,1,0.7000,0.3000,-2.2000*
%
%ADD166ROUNDEDRECTD166*%
G04:AMPARAMS|DCode=167|XSize=5.1mm|YSize=1.3mm|CornerRadius=0.35mm|HoleSize=0mm|Usage=FLASHONLY|Rotation=0.000|XOffset=0mm|YOffset=0mm|HoleType=Round|Shape=RoundedRectangle|*
%AMROUNDEDRECTD167*
21,1,5.1000,0.6000,0,0,0.0*
21,1,4.4000,1.3000,0,0,0.0*
1,1,0.7000,2.2000,-0.3000*
1,1,0.7000,-2.2000,-0.3000*
1,1,0.7000,-2.2000,0.3000*
1,1,0.7000,2.2000,0.3000*
%
%ADD167ROUNDEDRECTD167*%
G04:AMPARAMS|DCode=168|XSize=1.5mm|YSize=1.1mm|CornerRadius=0.175mm|HoleSize=0mm|Usage=FLASHONLY|Rotation=0.000|XOffset=0mm|YOffset=0mm|HoleType=Round|Shape=RoundedRectangle|*
%AMROUNDEDRECTD168*
21,1,1.5000,0.7500,0,0,0.0*
21,1,1.1500,1.1000,0,0,0.0*
1,1,0.3500,0.5750,-0.3750*
1,1,0.3500,-0.5750,-0.3750*
1,1,0.3500,-0.5750,0.3750*
1,1,0.3500,0.5750,0.3750*
%
%ADD168ROUNDEDRECTD168*%
G04:AMPARAMS|DCode=169|XSize=0.7mm|YSize=0.7mm|CornerRadius=0.11mm|HoleSize=0mm|Usage=FLASHONLY|Rotation=180.000|XOffset=0mm|YOffset=0mm|HoleType=Round|Shape=RoundedRectangle|*
%AMROUNDEDRECTD169*
21,1,0.7000,0.4800,0,0,180.0*
21,1,0.4800,0.7000,0,0,180.0*
1,1,0.2200,-0.2400,0.2400*
1,1,0.2200,0.2400,0.2400*
1,1,0.2200,0.2400,-0.2400*
1,1,0.2200,-0.2400,-0.2400*
%
%ADD169ROUNDEDRECTD169*%
G04:AMPARAMS|DCode=170|XSize=2.6mm|YSize=2.1mm|CornerRadius=0.3mm|HoleSize=0mm|Usage=FLASHONLY|Rotation=90.000|XOffset=0mm|YOffset=0mm|HoleType=Round|Shape=RoundedRectangle|*
%AMROUNDEDRECTD170*
21,1,2.6000,1.5000,0,0,90.0*
21,1,2.0000,2.1000,0,0,90.0*
1,1,0.6000,0.7500,1.0000*
1,1,0.6000,0.7500,-1.0000*
1,1,0.6000,-0.7500,-1.0000*
1,1,0.6000,-0.7500,1.0000*
%
%ADD170ROUNDEDRECTD170*%
G04:AMPARAMS|DCode=171|XSize=0.6mm|YSize=0.7mm|CornerRadius=0.1mm|HoleSize=0mm|Usage=FLASHONLY|Rotation=90.000|XOffset=0mm|YOffset=0mm|HoleType=Round|Shape=RoundedRectangle|*
%AMROUNDEDRECTD171*
21,1,0.6000,0.5000,0,0,90.0*
21,1,0.4000,0.7000,0,0,90.0*
1,1,0.2000,0.2500,0.2000*
1,1,0.2000,0.2500,-0.2000*
1,1,0.2000,-0.2500,-0.2000*
1,1,0.2000,-0.2500,0.2000*
%
%ADD171ROUNDEDRECTD171*%
G04:AMPARAMS|DCode=172|XSize=0.6mm|YSize=0.7mm|CornerRadius=0.1mm|HoleSize=0mm|Usage=FLASHONLY|Rotation=0.000|XOffset=0mm|YOffset=0mm|HoleType=Round|Shape=RoundedRectangle|*
%AMROUNDEDRECTD172*
21,1,0.6000,0.5000,0,0,0.0*
21,1,0.4000,0.7000,0,0,0.0*
1,1,0.2000,0.2000,-0.2500*
1,1,0.2000,-0.2000,-0.2500*
1,1,0.2000,-0.2000,0.2500*
1,1,0.2000,0.2000,0.2500*
%
%ADD172ROUNDEDRECTD172*%
G04:AMPARAMS|DCode=173|XSize=1.5mm|YSize=1.1mm|CornerRadius=0.175mm|HoleSize=0mm|Usage=FLASHONLY|Rotation=90.000|XOffset=0mm|YOffset=0mm|HoleType=Round|Shape=RoundedRectangle|*
%AMROUNDEDRECTD173*
21,1,1.5000,0.7500,0,0,90.0*
21,1,1.1500,1.1000,0,0,90.0*
1,1,0.3500,0.3750,0.5750*
1,1,0.3500,0.3750,-0.5750*
1,1,0.3500,-0.3750,-0.5750*
1,1,0.3500,-0.3750,0.5750*
%
%ADD173ROUNDEDRECTD173*%
%ADD174C,2.0000*%
%ADD175R,3.6000X2.0000*%
G04:AMPARAMS|DCode=176|XSize=0.7mm|YSize=0.7mm|CornerRadius=0.11mm|HoleSize=0mm|Usage=FLASHONLY|Rotation=90.000|XOffset=0mm|YOffset=0mm|HoleType=Round|Shape=RoundedRectangle|*
%AMROUNDEDRECTD176*
21,1,0.7000,0.4800,0,0,90.0*
21,1,0.4800,0.7000,0,0,90.0*
1,1,0.2200,0.2400,0.2400*
1,1,0.2200,0.2400,-0.2400*
1,1,0.2200,-0.2400,-0.2400*
1,1,0.2200,-0.2400,0.2400*
%
%ADD176ROUNDEDRECTD176*%
G04:AMPARAMS|DCode=177|XSize=0.7mm|YSize=0.8mm|CornerRadius=0.125mm|HoleSize=0mm|Usage=FLASHONLY|Rotation=270.000|XOffset=0mm|YOffset=0mm|HoleType=Round|Shape=RoundedRectangle|*
%AMROUNDEDRECTD177*
21,1,0.7000,0.5500,0,0,270.0*
21,1,0.4500,0.8000,0,0,270.0*
1,1,0.2500,-0.2750,-0.2250*
1,1,0.2500,-0.2750,0.2250*
1,1,0.2500,0.2750,0.2250*
1,1,0.2500,0.2750,-0.2250*
%
%ADD177ROUNDEDRECTD177*%
%ADD178R,1.6500X1.1000*%
%ADD179R,1.3000X1.7000*%
%ADD180R,1.3000X1.3000*%
%ADD181R,1.3000X2.2500*%
%ADD182R,1.0000X0.7000*%
%ADD183R,0.8500X1.6000*%
%ADD184R,2.5000X2.5000*%
%ADD185C,1.1000*%
%ADD186C,1.4000*%
%ADD187C,1.7800*%
%ADD188C,1.6080*%
%ADD189C,1.5080*%
%ADD190R,1.6080X1.6080*%
%ADD191C,2.6500*%
%ADD192C,3.4500*%
%ADD193C,1.6500*%
%ADD194O,2.1000X5.1000*%
%ADD195O,5.1000X2.3000*%
%ADD196O,5.1000X2.1000*%
%ADD197C,2.4000*%
%ADD198C,0.7500*%
%ADD199C,1.3000*%
%ADD200C,5.1000*%
%ADD201O,1.1000X1.7000*%
%ADD202C,0.7300*%
%ADD203C,2.0500*%
%ADD204C,1.5000*%
%ADD205C,3.2000*%
%ADD206C,2.1000*%
G04:AMPARAMS|DCode=207|XSize=2.1mm|YSize=2.1mm|CornerRadius=0.55mm|HoleSize=0mm|Usage=FLASHONLY|Rotation=270.000|XOffset=0mm|YOffset=0mm|HoleType=Round|Shape=RoundedRectangle|*
%AMROUNDEDRECTD207*
21,1,2.1000,1.0000,0,0,270.0*
21,1,1.0000,2.1000,0,0,270.0*
1,1,1.1000,-0.5000,-0.5000*
1,1,1.1000,-0.5000,0.5000*
1,1,1.1000,0.5000,0.5000*
1,1,1.1000,0.5000,-0.5000*
%
%ADD207ROUNDEDRECTD207*%
G04:AMPARAMS|DCode=208|XSize=1.7mm|YSize=1.7mm|CornerRadius=0.45mm|HoleSize=0mm|Usage=FLASHONLY|Rotation=90.000|XOffset=0mm|YOffset=0mm|HoleType=Round|Shape=RoundedRectangle|*
%AMROUNDEDRECTD208*
21,1,1.7000,0.8000,0,0,90.0*
21,1,0.8000,1.7000,0,0,90.0*
1,1,0.9000,0.4000,0.4000*
1,1,0.9000,0.4000,-0.4000*
1,1,0.9000,-0.4000,-0.4000*
1,1,0.9000,-0.4000,0.4000*
%
%ADD208ROUNDEDRECTD208*%
%ADD209O,4.1000X1.5000*%
%ADD210C,0.9000*%
%ADD211R,0.9000X0.9000*%
%ADD212C,1.9000*%
G04:AMPARAMS|DCode=213|XSize=1.624mm|YSize=1.624mm|CornerRadius=0.2405mm|HoleSize=0mm|Usage=FLASHONLY|Rotation=90.000|XOffset=0mm|YOffset=0mm|HoleType=Round|Shape=RoundedRectangle|*
%AMROUNDEDRECTD213*
21,1,1.6240,1.1430,0,0,90.0*
21,1,1.1430,1.6240,0,0,90.0*
1,1,0.4810,0.5715,0.5715*
1,1,0.4810,0.5715,-0.5715*
1,1,0.4810,-0.5715,-0.5715*
1,1,0.4810,-0.5715,0.5715*
%
%ADD213ROUNDEDRECTD213*%
%ADD214C,3.1000*%
%ADD215C,0.3500*%
G04:AMPARAMS|DCode=216|XSize=2mm|YSize=2mm|CornerRadius=0.525mm|HoleSize=0mm|Usage=FLASHONLY|Rotation=90.000|XOffset=0mm|YOffset=0mm|HoleType=Round|Shape=RoundedRectangle|*
%AMROUNDEDRECTD216*
21,1,2.0000,0.9500,0,0,90.0*
21,1,0.9500,2.0000,0,0,90.0*
1,1,1.0500,0.4750,0.4750*
1,1,1.0500,0.4750,-0.4750*
1,1,1.0500,-0.4750,-0.4750*
1,1,1.0500,-0.4750,0.4750*
%
%ADD216ROUNDEDRECTD216*%
G04:AMPARAMS|DCode=217|XSize=1.7mm|YSize=1.7mm|CornerRadius=0.45mm|HoleSize=0mm|Usage=FLASHONLY|Rotation=180.000|XOffset=0mm|YOffset=0mm|HoleType=Round|Shape=RoundedRectangle|*
%AMROUNDEDRECTD217*
21,1,1.7000,0.8000,0,0,180.0*
21,1,0.8000,1.7000,0,0,180.0*
1,1,0.9000,-0.4000,0.4000*
1,1,0.9000,0.4000,0.4000*
1,1,0.9000,0.4000,-0.4000*
1,1,0.9000,-0.4000,-0.4000*
%
%ADD217ROUNDEDRECTD217*%
%ADD218C,1.0000*%
G04:AMPARAMS|DCode=219|XSize=1.624mm|YSize=1.624mm|CornerRadius=0.2405mm|HoleSize=0mm|Usage=FLASHONLY|Rotation=0.000|XOffset=0mm|YOffset=0mm|HoleType=Round|Shape=RoundedRectangle|*
%AMROUNDEDRECTD219*
21,1,1.6240,1.1430,0,0,0.0*
21,1,1.1430,1.6240,0,0,0.0*
1,1,0.4810,0.5715,-0.5715*
1,1,0.4810,-0.5715,-0.5715*
1,1,0.4810,-0.5715,0.5715*
1,1,0.4810,0.5715,0.5715*
%
%ADD219ROUNDEDRECTD219*%
G04:AMPARAMS|DCode=220|XSize=2.1mm|YSize=2.1mm|CornerRadius=0.55mm|HoleSize=0mm|Usage=FLASHONLY|Rotation=180.000|XOffset=0mm|YOffset=0mm|HoleType=Round|Shape=RoundedRectangle|*
%AMROUNDEDRECTD220*
21,1,2.1000,1.0000,0,0,180.0*
21,1,1.0000,2.1000,0,0,180.0*
1,1,1.1000,-0.5000,0.5000*
1,1,1.1000,0.5000,0.5000*
1,1,1.1000,0.5000,-0.5000*
1,1,1.1000,-0.5000,-0.5000*
%
%ADD220ROUNDEDRECTD220*%
%ADD221C,3.6000*%
G36*
X568000Y1028250D02*
Y1026200D01*
X565550Y1023750D01*
X544950D01*
X543250Y1025450D01*
Y1024250D01*
X535250D01*
Y1025450D01*
X533550Y1023750D01*
X512950D01*
X510500Y1026200D01*
Y1028250D01*
X516000Y1033750D01*
X530500D01*
X536000Y1028250D01*
Y1026250D01*
X542500D01*
Y1028250D01*
X548000Y1033750D01*
X562500D01*
X568000Y1028250D01*
D02*
G37*
G36*
X219250Y989000D02*
X216750D01*
Y991500D01*
X219250D01*
Y989000D01*
D02*
G37*
G36*
X197750D02*
X195250D01*
Y991500D01*
X197750D01*
Y989000D01*
D02*
G37*
G36*
X219250Y975000D02*
X216750D01*
Y977500D01*
X219250D01*
Y975000D01*
D02*
G37*
G36*
X197750D02*
X195250D01*
Y977500D01*
X197750D01*
Y975000D01*
D02*
G37*
G36*
X110180Y848500D02*
X97930D01*
Y855750D01*
X97430D01*
Y865750D01*
X110180D01*
X110180Y848500D01*
D02*
G37*
G36*
X728314Y63602D02*
X730315Y62773D01*
X732117Y61569D01*
X733649Y60037D01*
X734853Y58236D01*
X735682Y56234D01*
X736105Y54108D01*
X736105Y53025D01*
X736105Y51942D01*
X735682Y49816D01*
X734853Y47814D01*
X733649Y46013D01*
X732117Y44481D01*
X730315Y43277D01*
X728314Y42448D01*
X726188Y42025D01*
X725105Y42025D01*
Y53025D01*
X725105Y42025D01*
X725105D01*
X724022Y42025D01*
X721896Y42448D01*
X719894Y43277D01*
X718093Y44481D01*
X716561Y46013D01*
X715357Y47814D01*
X714528Y49816D01*
X714105Y51942D01*
Y53025D01*
X714105Y54108D01*
X714528Y56234D01*
X715357Y58236D01*
X716561Y60037D01*
X718093Y61569D01*
X719894Y62773D01*
X721896Y63602D01*
X724022Y64025D01*
X725105Y64025D01*
X726188Y64025D01*
X728314Y63602D01*
D02*
G37*
G36*
X953314D02*
X955315Y62773D01*
X957117Y61569D01*
X958649Y60037D01*
X959853Y58236D01*
X960682Y56234D01*
X961105Y54108D01*
X961105Y53025D01*
X961105Y51942D01*
X960682Y49816D01*
X959853Y47814D01*
X958649Y46013D01*
X957117Y44481D01*
X955315Y43277D01*
X953314Y42448D01*
X951188Y42025D01*
X950105Y42025D01*
Y53025D01*
X950105Y42025D01*
X950105D01*
X949022Y42025D01*
X946896Y42448D01*
X944894Y43277D01*
X943093Y44481D01*
X941561Y46013D01*
X940357Y47814D01*
X939528Y49816D01*
X939105Y51942D01*
Y53025D01*
X939105Y54108D01*
X939528Y56234D01*
X940357Y58236D01*
X941561Y60037D01*
X943093Y61569D01*
X944894Y62773D01*
X946896Y63602D01*
X949022Y64025D01*
X950105Y64025D01*
X951188Y64025D01*
X953314Y63602D01*
D02*
G37*
G36*
X878314D02*
X880315Y62773D01*
X882117Y61569D01*
X883649Y60037D01*
X884853Y58236D01*
X885682Y56234D01*
X886105Y54108D01*
X886105Y53025D01*
X886105Y51942D01*
X885682Y49816D01*
X884853Y47814D01*
X883649Y46013D01*
X882117Y44481D01*
X880315Y43277D01*
X878314Y42448D01*
X876188Y42025D01*
X875105Y42025D01*
Y53025D01*
X875105Y42025D01*
X875105D01*
X874022Y42025D01*
X871896Y42448D01*
X869894Y43277D01*
X868093Y44481D01*
X866561Y46013D01*
X865357Y47814D01*
X864528Y49816D01*
X864105Y51942D01*
Y53025D01*
X864105Y54108D01*
X864528Y56234D01*
X865357Y58236D01*
X866561Y60037D01*
X868093Y61569D01*
X869894Y62773D01*
X871896Y63602D01*
X874022Y64025D01*
X875105Y64025D01*
X876188Y64025D01*
X878314Y63602D01*
D02*
G37*
G36*
X803314D02*
X805315Y62773D01*
X807117Y61569D01*
X808649Y60037D01*
X809853Y58236D01*
X810682Y56234D01*
X811105Y54108D01*
X811105Y53025D01*
X811105Y51942D01*
X810682Y49816D01*
X809853Y47814D01*
X808649Y46013D01*
X807117Y44481D01*
X805315Y43277D01*
X803314Y42448D01*
X801188Y42025D01*
X800105Y42025D01*
Y53025D01*
X800105Y42025D01*
X800105D01*
X799022Y42025D01*
X796896Y42448D01*
X794894Y43277D01*
X793093Y44481D01*
X791561Y46013D01*
X790357Y47814D01*
X789528Y49816D01*
X789105Y51942D01*
Y53025D01*
X789105Y54108D01*
X789528Y56234D01*
X790357Y58236D01*
X791561Y60037D01*
X793093Y61569D01*
X794894Y62773D01*
X796896Y63602D01*
X799022Y64025D01*
X800105Y64025D01*
X801188Y64025D01*
X803314Y63602D01*
D02*
G37*
G36*
X653314D02*
X655315Y62773D01*
X657117Y61569D01*
X658649Y60037D01*
X659853Y58236D01*
X660682Y56234D01*
X661105Y54108D01*
X661105Y53025D01*
X661105Y51942D01*
X660682Y49816D01*
X659853Y47814D01*
X658649Y46013D01*
X657117Y44481D01*
X655315Y43277D01*
X653314Y42448D01*
X651188Y42025D01*
X650105Y42025D01*
Y53025D01*
X650105Y42025D01*
X650105D01*
X649022Y42025D01*
X646896Y42448D01*
X644894Y43277D01*
X643093Y44481D01*
X641561Y46013D01*
X640357Y47814D01*
X639528Y49816D01*
X639105Y51942D01*
Y53025D01*
X639105Y54108D01*
X639528Y56234D01*
X640357Y58236D01*
X641561Y60037D01*
X643093Y61569D01*
X644894Y62773D01*
X646896Y63602D01*
X649022Y64025D01*
X650105Y64025D01*
X651188Y64025D01*
X653314Y63602D01*
D02*
G37*
G36*
X978314Y63602D02*
X980315Y62773D01*
X982117Y61569D01*
X983649Y60037D01*
X984853Y58236D01*
X985682Y56234D01*
X986105Y54108D01*
Y53025D01*
Y51942D01*
X985682Y49816D01*
X984853Y47814D01*
X983649Y46013D01*
X982117Y44481D01*
X980315Y43277D01*
X978314Y42448D01*
X976188Y42025D01*
X975105D01*
Y53025D01*
X975105Y42025D01*
X975105Y42025D01*
X974022D01*
X971896Y42448D01*
X969894Y43277D01*
X968093Y44481D01*
X966561Y46013D01*
X965357Y47814D01*
X964528Y49816D01*
X964105Y51942D01*
Y53025D01*
Y54108D01*
X964528Y56234D01*
X965357Y58236D01*
X966561Y60037D01*
X968093Y61569D01*
X969894Y62773D01*
X971896Y63602D01*
X974022Y64025D01*
X976188D01*
X978314Y63602D01*
D02*
G37*
G36*
X903314D02*
X905315Y62773D01*
X907117Y61569D01*
X908649Y60037D01*
X909853Y58236D01*
X910682Y56234D01*
X911105Y54108D01*
Y53025D01*
Y51942D01*
X910682Y49816D01*
X909853Y47814D01*
X908649Y46013D01*
X907117Y44481D01*
X905315Y43277D01*
X903314Y42448D01*
X901188Y42025D01*
X900105D01*
Y53025D01*
X900105Y42025D01*
X900105Y42025D01*
X899022D01*
X896896Y42448D01*
X894894Y43277D01*
X893093Y44481D01*
X891561Y46013D01*
X890357Y47814D01*
X889528Y49816D01*
X889105Y51942D01*
Y53025D01*
Y54108D01*
X889528Y56234D01*
X890357Y58236D01*
X891561Y60037D01*
X893093Y61569D01*
X894894Y62773D01*
X896896Y63602D01*
X899022Y64025D01*
X901188D01*
X903314Y63602D01*
D02*
G37*
G36*
X828314D02*
X830315Y62773D01*
X832117Y61569D01*
X833649Y60037D01*
X834853Y58236D01*
X835682Y56234D01*
X836105Y54108D01*
Y53025D01*
Y51942D01*
X835682Y49816D01*
X834853Y47814D01*
X833649Y46013D01*
X832117Y44481D01*
X830315Y43277D01*
X828314Y42448D01*
X826188Y42025D01*
X825105D01*
Y53025D01*
X825105Y42025D01*
X825105Y42025D01*
X824022D01*
X821896Y42448D01*
X819894Y43277D01*
X818093Y44481D01*
X816561Y46013D01*
X815357Y47814D01*
X814528Y49816D01*
X814105Y51942D01*
Y53025D01*
Y54108D01*
X814528Y56234D01*
X815357Y58236D01*
X816561Y60037D01*
X818093Y61569D01*
X819894Y62773D01*
X821896Y63602D01*
X824022Y64025D01*
X826188D01*
X828314Y63602D01*
D02*
G37*
G36*
X753314D02*
X755315Y62773D01*
X757117Y61569D01*
X758649Y60037D01*
X759853Y58236D01*
X760682Y56234D01*
X761105Y54108D01*
Y53025D01*
Y51942D01*
X760682Y49816D01*
X759853Y47814D01*
X758649Y46013D01*
X757117Y44481D01*
X755315Y43277D01*
X753314Y42448D01*
X751188Y42025D01*
X750105D01*
Y53025D01*
X750105Y42025D01*
X750105Y42025D01*
X749022D01*
X746896Y42448D01*
X744894Y43277D01*
X743093Y44481D01*
X741561Y46013D01*
X740357Y47814D01*
X739528Y49816D01*
X739105Y51942D01*
Y53025D01*
Y54108D01*
X739528Y56234D01*
X740357Y58236D01*
X741561Y60037D01*
X743093Y61569D01*
X744894Y62773D01*
X746896Y63602D01*
X749022Y64025D01*
X751188D01*
X753314Y63602D01*
D02*
G37*
G36*
X678314D02*
X680315Y62773D01*
X682117Y61569D01*
X683649Y60037D01*
X684853Y58236D01*
X685682Y56234D01*
X686105Y54108D01*
Y53025D01*
Y51942D01*
X685682Y49816D01*
X684853Y47814D01*
X683649Y46013D01*
X682117Y44481D01*
X680315Y43277D01*
X678314Y42448D01*
X676188Y42025D01*
X675105D01*
Y53025D01*
X675105Y42025D01*
X675105Y42025D01*
X674022D01*
X671896Y42448D01*
X669894Y43277D01*
X668093Y44481D01*
X666561Y46013D01*
X665357Y47814D01*
X664528Y49816D01*
X664105Y51942D01*
Y53025D01*
Y54108D01*
X664528Y56234D01*
X665357Y58236D01*
X666561Y60037D01*
X668093Y61569D01*
X669894Y62773D01*
X671896Y63602D01*
X674022Y64025D01*
X676188D01*
X678314Y63602D01*
D02*
G37*
G36*
X1268958Y155828D02*
X1270960Y154998D01*
X1272762Y153794D01*
X1274294Y152262D01*
X1275498Y150461D01*
X1276327Y148459D01*
X1276750Y146334D01*
Y145250D01*
Y144167D01*
X1276327Y142042D01*
X1275498Y140040D01*
X1274294Y138238D01*
X1272762Y136706D01*
X1270960Y135502D01*
X1268958Y134673D01*
X1266833Y134250D01*
X1264666D01*
X1262541Y134673D01*
X1260539Y135502D01*
X1258738Y136706D01*
X1257206Y138238D01*
X1256002Y140040D01*
X1255172Y142042D01*
X1254750Y144167D01*
Y145250D01*
Y146334D01*
X1255172Y148459D01*
X1256002Y150461D01*
X1257206Y152262D01*
X1258738Y153794D01*
X1260539Y154998D01*
X1262541Y155828D01*
X1264666Y156250D01*
X1265750D01*
Y145250D01*
X1265750Y156250D01*
X1265750Y156250D01*
X1266833D01*
X1268958Y155828D01*
D02*
G37*
G36*
X1417958Y155828D02*
X1419960Y154998D01*
X1421762Y153794D01*
X1423294Y152262D01*
X1424498Y150461D01*
X1425327Y148459D01*
X1425750Y146334D01*
Y145250D01*
Y144167D01*
X1425327Y142042D01*
X1424498Y140040D01*
X1423294Y138238D01*
X1421762Y136706D01*
X1419960Y135502D01*
X1417958Y134673D01*
X1415833Y134250D01*
X1413666D01*
X1411541Y134673D01*
X1409539Y135502D01*
X1407738Y136706D01*
X1406205Y138238D01*
X1405002Y140040D01*
X1404173Y142042D01*
X1403750Y144167D01*
Y145250D01*
Y146334D01*
X1404173Y148459D01*
X1405002Y150461D01*
X1406205Y152262D01*
X1407738Y153794D01*
X1409539Y154998D01*
X1411541Y155828D01*
X1413666Y156250D01*
X1415833D01*
X1417958Y155828D01*
D02*
G37*
G36*
X1028314Y63577D02*
X1030315Y62748D01*
X1032117Y61544D01*
X1033649Y60012D01*
X1034853Y58211D01*
X1035682Y56209D01*
X1036105Y54083D01*
X1036105Y53000D01*
X1036105Y51917D01*
X1035682Y49791D01*
X1034853Y47790D01*
X1033649Y45988D01*
X1032117Y44456D01*
X1030315Y43252D01*
X1028314Y42423D01*
X1026188Y42000D01*
X1025105Y42000D01*
Y53000D01*
X1025105Y42000D01*
X1025105D01*
X1024022Y42000D01*
X1021896Y42423D01*
X1019894Y43252D01*
X1018093Y44456D01*
X1016561Y45988D01*
X1015357Y47790D01*
X1014528Y49791D01*
X1014105Y51917D01*
Y53000D01*
X1014105Y54083D01*
X1014528Y56209D01*
X1015357Y58211D01*
X1016561Y60012D01*
X1018093Y61544D01*
X1019894Y62748D01*
X1021896Y63577D01*
X1024022Y64000D01*
X1025105Y64000D01*
X1026188Y64000D01*
X1028314Y63577D01*
D02*
G37*
G36*
X1053314Y63577D02*
X1055315Y62748D01*
X1057117Y61544D01*
X1058649Y60012D01*
X1059853Y58211D01*
X1060682Y56209D01*
X1061105Y54083D01*
Y53000D01*
Y51917D01*
X1060682Y49791D01*
X1059853Y47790D01*
X1058649Y45988D01*
X1057117Y44456D01*
X1055315Y43252D01*
X1053314Y42423D01*
X1051188Y42000D01*
X1050105D01*
Y53000D01*
X1050105Y42000D01*
X1050105Y42000D01*
X1049022D01*
X1046896Y42423D01*
X1044894Y43252D01*
X1043093Y44456D01*
X1041561Y45988D01*
X1040357Y47790D01*
X1039528Y49791D01*
X1039105Y51917D01*
Y53000D01*
Y54083D01*
X1039528Y56209D01*
X1040357Y58211D01*
X1041561Y60012D01*
X1043093Y61544D01*
X1044894Y62748D01*
X1046896Y63577D01*
X1049022Y64000D01*
X1051188D01*
X1053314Y63577D01*
D02*
G37*
G36*
X1417958Y26827D02*
X1419960Y25998D01*
X1421762Y24794D01*
X1423294Y23262D01*
X1424498Y21461D01*
X1425327Y19459D01*
X1425750Y17334D01*
Y16250D01*
Y15167D01*
X1425327Y13042D01*
X1424498Y11040D01*
X1423294Y9238D01*
X1421762Y7706D01*
X1419960Y6502D01*
X1417958Y5673D01*
X1415833Y5250D01*
X1413666D01*
X1411541Y5673D01*
X1409539Y6502D01*
X1407738Y7706D01*
X1406205Y9238D01*
X1405002Y11040D01*
X1404173Y13042D01*
X1403750Y15167D01*
Y16250D01*
Y17334D01*
X1404173Y19459D01*
X1405002Y21461D01*
X1406205Y23262D01*
X1407738Y24794D01*
X1409539Y25998D01*
X1411541Y26827D01*
X1413666Y27250D01*
X1415833D01*
X1417958Y26827D01*
D02*
G37*
G36*
X1268958D02*
X1270960Y25998D01*
X1272762Y24794D01*
X1274294Y23262D01*
X1275498Y21461D01*
X1276327Y19459D01*
X1276750Y17334D01*
Y16250D01*
Y15167D01*
X1276327Y13042D01*
X1275498Y11040D01*
X1274294Y9238D01*
X1272762Y7706D01*
X1270960Y6502D01*
X1268958Y5673D01*
X1266833Y5250D01*
X1264666D01*
X1262541Y5673D01*
X1260539Y6502D01*
X1258738Y7706D01*
X1257206Y9238D01*
X1256002Y11040D01*
X1255173Y13042D01*
X1254750Y15167D01*
Y16250D01*
Y17334D01*
X1255173Y19459D01*
X1256002Y21461D01*
X1257206Y23262D01*
X1258738Y24794D01*
X1260539Y25998D01*
X1262541Y26827D01*
X1264666Y27250D01*
X1266833D01*
X1268958Y26827D01*
D02*
G37*
G36*
X1275650Y783250D02*
X1273150D01*
Y785750D01*
X1275650D01*
Y783250D01*
D02*
G37*
G36*
X1085650D02*
X1083150D01*
Y785750D01*
X1085650D01*
Y783250D01*
D02*
G37*
G36*
X1261650Y783250D02*
X1259150D01*
Y785750D01*
X1261650D01*
Y783250D01*
D02*
G37*
G36*
X1071650D02*
X1069150D01*
Y785750D01*
X1071650D01*
Y783250D01*
D02*
G37*
G36*
X1394000Y383250D02*
X1391500D01*
Y385750D01*
X1394000D01*
Y383250D01*
D02*
G37*
G36*
Y369250D02*
X1391500D01*
Y371750D01*
X1394000D01*
Y369250D01*
D02*
G37*
G36*
X1415500D02*
Y371750D01*
X1413000D01*
Y369250D01*
X1415500D01*
D02*
G37*
G36*
Y385750D02*
Y383250D01*
X1413000D01*
Y385750D01*
X1415500D01*
D02*
G37*
G36*
X1451650Y785750D02*
X1449150D01*
Y783250D01*
X1451650D01*
Y785750D01*
D02*
G37*
G36*
X1465650Y785750D02*
X1463150D01*
Y783250D01*
X1465650D01*
Y785750D01*
D02*
G37*
G36*
X1641650Y785750D02*
X1639150D01*
Y783250D01*
X1641650D01*
Y785750D01*
D02*
G37*
G36*
X1655650Y785750D02*
X1653150D01*
Y783250D01*
X1655650D01*
Y785750D01*
D02*
G37*
G36*
X1069150Y807250D02*
X1071650D01*
Y804750D01*
X1069150D01*
Y807250D01*
D02*
G37*
G36*
X1085650D02*
X1083150D01*
Y804750D01*
X1085650D01*
Y807250D01*
D02*
G37*
G36*
X1019750Y997750D02*
Y1001750D01*
X1011750D01*
Y997750D01*
X1019750D01*
D02*
G37*
G36*
X1259150Y807250D02*
X1261650D01*
Y804750D01*
X1259150D01*
Y807250D01*
D02*
G37*
G36*
X1275650D02*
X1273150D01*
Y804750D01*
X1275650D01*
Y807250D01*
D02*
G37*
G36*
X1209750Y997750D02*
Y1001750D01*
X1201750D01*
Y997750D01*
X1209750Y997750D01*
D02*
G37*
G36*
X1449150Y807250D02*
X1451650D01*
Y804750D01*
X1449150D01*
Y807250D01*
D02*
G37*
G36*
X1465650D02*
X1463150D01*
Y804750D01*
X1465650D01*
Y807250D01*
D02*
G37*
G36*
X1399750Y997750D02*
Y1001750D01*
X1391750D01*
Y997750D01*
X1399750D01*
D02*
G37*
G36*
X1639150Y807250D02*
X1641650D01*
Y804750D01*
X1639150D01*
Y807250D01*
D02*
G37*
G36*
X1655650D02*
X1653150D01*
Y804750D01*
X1655650D01*
Y807250D01*
D02*
G37*
G36*
X1589750Y997750D02*
Y1001750D01*
X1581750D01*
Y997750D01*
X1589750D01*
D02*
G37*
%LPC*%
G36*
X1403750Y145250D02*
X1403750Y145250D01*
X1414750D01*
X1403750Y145250D01*
D02*
G37*
%LPD*%
D38*
X1226250Y291000D02*
D03*
X1218250D02*
D03*
X1210250D02*
D03*
X1202250D02*
D03*
X1194250D02*
D03*
X1186250D02*
D03*
X1178250D02*
D03*
X1170250D02*
D03*
X1162250D02*
D03*
X1154250D02*
D03*
X1146250D02*
D03*
X1138250D02*
D03*
X1130250D02*
D03*
X1122250D02*
D03*
X1114250D02*
D03*
X1106250D02*
D03*
X1098250D02*
D03*
X1090250D02*
D03*
X1222250Y209000D02*
D03*
X1214250D02*
D03*
X1206250D02*
D03*
X1198250D02*
D03*
X1190250D02*
D03*
X1182250D02*
D03*
X1174250D02*
D03*
X1166250D02*
D03*
X1158250D02*
D03*
X1150250D02*
D03*
X1142250D02*
D03*
X1134250D02*
D03*
X1126250D02*
D03*
X1118250D02*
D03*
X1110250D02*
D03*
X1102250D02*
D03*
X1094250D02*
D03*
X1086250D02*
D03*
X1050250Y291000D02*
D03*
X1042250D02*
D03*
X1034250D02*
D03*
X1026250D02*
D03*
X1018250D02*
D03*
X1010250D02*
D03*
X1002250D02*
D03*
X994250D02*
D03*
X1046250Y209000D02*
D03*
X1038250D02*
D03*
X1030250D02*
D03*
X1022250D02*
D03*
X1014250D02*
D03*
X1006250D02*
D03*
X998250D02*
D03*
X990250D02*
D03*
D39*
X1254750Y215000D02*
D03*
X961750D02*
D03*
D43*
X356250Y513000D02*
D03*
X333750Y304250D02*
D03*
X598250Y1009750D02*
D03*
X718260Y923500D02*
D03*
X983250Y250000D02*
D03*
X1172500Y25300D02*
D03*
X1217500D02*
D03*
D102*
X-80150Y-80000D02*
D03*
X-80150Y1180000D02*
D03*
X1780150Y1180000D02*
D03*
X1780150Y-80000D02*
D03*
D103*
X1352250Y702500D02*
D03*
D104*
X1352500Y542750D02*
D03*
D105*
X911650Y361750D02*
D03*
X911650Y365750D02*
D03*
X911650Y369750D02*
D03*
X911650Y373750D02*
D03*
X911650Y377750D02*
D03*
Y381750D02*
D03*
Y385750D02*
D03*
X911650Y389750D02*
D03*
X911650Y393750D02*
D03*
X911650Y397750D02*
D03*
X911650Y401750D02*
D03*
X911650Y405750D02*
D03*
X911650Y409750D02*
D03*
X911650Y413750D02*
D03*
Y417750D02*
D03*
X911650Y421750D02*
D03*
X911650Y425750D02*
D03*
X911650Y429750D02*
D03*
X911650Y433750D02*
D03*
X911650Y437750D02*
D03*
X911650Y441750D02*
D03*
X911650Y445750D02*
D03*
X911650Y449750D02*
D03*
X911650Y453750D02*
D03*
X911650Y457750D02*
D03*
X911650Y461750D02*
D03*
X911650Y465750D02*
D03*
X911650Y469750D02*
D03*
Y473750D02*
D03*
Y477750D02*
D03*
Y481750D02*
D03*
X911650Y485750D02*
D03*
X911650Y489750D02*
D03*
X911650Y493750D02*
D03*
X911650Y497750D02*
D03*
X911650Y501750D02*
D03*
X911650Y505750D02*
D03*
X911650Y509750D02*
D03*
X911650Y513750D02*
D03*
X911650Y517750D02*
D03*
X911650Y521750D02*
D03*
X911650Y525750D02*
D03*
Y529750D02*
D03*
Y533750D02*
D03*
X911650Y537750D02*
D03*
X911650Y541750D02*
D03*
X911650Y545750D02*
D03*
X911650Y549750D02*
D03*
X911650Y553750D02*
D03*
X911650Y557750D02*
D03*
X880850Y361750D02*
D03*
X880850Y365750D02*
D03*
X880850Y369750D02*
D03*
X880850Y373750D02*
D03*
X880850Y377750D02*
D03*
X880850Y381750D02*
D03*
X880850Y385750D02*
D03*
Y389750D02*
D03*
Y393750D02*
D03*
X880850Y397750D02*
D03*
Y401750D02*
D03*
Y405750D02*
D03*
Y409750D02*
D03*
X880850Y413750D02*
D03*
Y417750D02*
D03*
X880850Y421750D02*
D03*
Y425750D02*
D03*
Y429750D02*
D03*
Y433750D02*
D03*
X880850Y437750D02*
D03*
Y441750D02*
D03*
Y445750D02*
D03*
X880850Y449750D02*
D03*
X880850Y453750D02*
D03*
X880850Y457750D02*
D03*
X880850Y461750D02*
D03*
X880850Y465750D02*
D03*
X880850Y469750D02*
D03*
X880850Y473750D02*
D03*
X880850Y477750D02*
D03*
X880850Y481750D02*
D03*
X880850Y485750D02*
D03*
Y489750D02*
D03*
Y493750D02*
D03*
X880850Y497750D02*
D03*
Y501750D02*
D03*
X880850Y505750D02*
D03*
X880850Y509750D02*
D03*
Y513750D02*
D03*
X880850Y517750D02*
D03*
X880850Y521750D02*
D03*
Y525750D02*
D03*
Y529750D02*
D03*
X880850Y533750D02*
D03*
Y537750D02*
D03*
X880850Y541750D02*
D03*
X880850Y545750D02*
D03*
X880850Y549750D02*
D03*
X880850Y553750D02*
D03*
X880850Y557750D02*
D03*
X540850Y557750D02*
D03*
X540850Y553750D02*
D03*
X540850Y549750D02*
D03*
Y545750D02*
D03*
X540850Y541750D02*
D03*
X540850Y537750D02*
D03*
X540850Y533750D02*
D03*
Y529750D02*
D03*
Y525750D02*
D03*
X540850Y521750D02*
D03*
X540850Y517750D02*
D03*
X540850Y513750D02*
D03*
Y509750D02*
D03*
X540850Y505750D02*
D03*
X540850Y501750D02*
D03*
X540850Y497750D02*
D03*
X540850Y493750D02*
D03*
X540850Y489750D02*
D03*
X540850Y485750D02*
D03*
X540850Y481750D02*
D03*
Y477750D02*
D03*
Y473750D02*
D03*
X540850Y469750D02*
D03*
X540850Y465750D02*
D03*
X540850Y461750D02*
D03*
X540850Y457750D02*
D03*
Y453750D02*
D03*
X540850Y449750D02*
D03*
X540850Y445750D02*
D03*
X540850Y441750D02*
D03*
X540850Y437750D02*
D03*
X540850Y433750D02*
D03*
X540850Y429750D02*
D03*
X540850Y425750D02*
D03*
Y421750D02*
D03*
Y417750D02*
D03*
X540850Y413750D02*
D03*
X540850Y409750D02*
D03*
X540850Y405750D02*
D03*
Y401750D02*
D03*
Y397750D02*
D03*
X540850Y393750D02*
D03*
Y389750D02*
D03*
X540850Y385750D02*
D03*
Y381750D02*
D03*
X540850Y377750D02*
D03*
X540850Y373750D02*
D03*
X540850Y369750D02*
D03*
X540850Y365750D02*
D03*
Y361750D02*
D03*
X571650Y557750D02*
D03*
X571650Y553750D02*
D03*
X571650Y549750D02*
D03*
X571650Y545750D02*
D03*
X571650Y541750D02*
D03*
X571650Y537750D02*
D03*
X571650Y533750D02*
D03*
Y529750D02*
D03*
Y525750D02*
D03*
X571650Y521750D02*
D03*
X571650Y517750D02*
D03*
X571650Y513750D02*
D03*
X571650Y509750D02*
D03*
X571650Y505750D02*
D03*
X571650Y501750D02*
D03*
X571650Y497750D02*
D03*
X571650Y493750D02*
D03*
X571650Y489750D02*
D03*
X571650Y485750D02*
D03*
X571650Y481750D02*
D03*
Y477750D02*
D03*
Y473750D02*
D03*
Y469750D02*
D03*
X571650Y465750D02*
D03*
X571650Y461750D02*
D03*
X571650Y457750D02*
D03*
X571650Y453750D02*
D03*
X571650Y449750D02*
D03*
X571650Y445750D02*
D03*
X571650Y441750D02*
D03*
X571650Y437750D02*
D03*
X571650Y433750D02*
D03*
X571650Y429750D02*
D03*
X571650Y425750D02*
D03*
X571650Y421750D02*
D03*
X571650Y417750D02*
D03*
Y413750D02*
D03*
X571650Y409750D02*
D03*
X571650Y405750D02*
D03*
X571650Y401750D02*
D03*
X571650Y397750D02*
D03*
X571650Y393750D02*
D03*
Y389750D02*
D03*
X571650Y385750D02*
D03*
Y381750D02*
D03*
Y377750D02*
D03*
X571650Y373750D02*
D03*
X571650Y369750D02*
D03*
X571650Y365750D02*
D03*
X571650Y361750D02*
D03*
D106*
X120055Y745250D02*
D03*
D107*
X104055Y857200D02*
D03*
D108*
X95555Y741250D02*
D03*
D109*
X89055Y860750D02*
D03*
D110*
X13055Y744500D02*
D03*
D111*
Y859000D02*
D03*
D112*
X11805Y846000D02*
D03*
D113*
Y835000D02*
D03*
D114*
Y824000D02*
D03*
D115*
Y813000D02*
D03*
D116*
Y802000D02*
D03*
D117*
Y791000D02*
D03*
D118*
X11805Y780000D02*
D03*
D119*
X11805Y769000D02*
D03*
D120*
X1688850Y259500D02*
D03*
Y129500D02*
D03*
X1568850Y259500D02*
D03*
Y129500D02*
D03*
D121*
X1554050Y219200D02*
D03*
Y209700D02*
D03*
D122*
X1554050Y197000D02*
D03*
X1554050Y184300D02*
D03*
Y171600D02*
D03*
Y158900D02*
D03*
Y146200D02*
D03*
D123*
X666601Y18525D02*
D03*
Y32525D02*
D03*
X659601Y32525D02*
D03*
Y18525D02*
D03*
X884601D02*
D03*
Y32525D02*
D03*
X891601Y32525D02*
D03*
Y18525D02*
D03*
X809601Y18525D02*
D03*
Y32525D02*
D03*
X816601Y32525D02*
D03*
Y18525D02*
D03*
X734601Y18525D02*
D03*
Y32525D02*
D03*
X741601Y32525D02*
D03*
Y18525D02*
D03*
X1034601Y18500D02*
D03*
Y32500D02*
D03*
X1041601Y32500D02*
D03*
Y18500D02*
D03*
X959601Y18500D02*
D03*
Y32500D02*
D03*
X966601Y32500D02*
D03*
Y18500D02*
D03*
D124*
X1310750Y100750D02*
D03*
X1370750D02*
D03*
Y60750D02*
D03*
X1310750D02*
D03*
X1390785Y453035D02*
D03*
X1416214Y453035D02*
D03*
X1390785Y427607D02*
D03*
X1416214Y478464D02*
D03*
X1390786Y478464D02*
D03*
X304990Y90250D02*
D03*
X279590D02*
D03*
X241857Y468000D02*
D03*
X267286D02*
D03*
X292714D02*
D03*
X860714Y850786D02*
D03*
X835286Y876214D02*
D03*
Y850786D02*
D03*
X82500Y19300D02*
D03*
X1307500Y1024050D02*
D03*
X398590Y211250D02*
D03*
X423990D02*
D03*
X398590Y90250D02*
D03*
X423990D02*
D03*
X398590Y150750D02*
D03*
X423990D02*
D03*
X126750Y19300D02*
D03*
X206340Y20380D02*
D03*
X231740D02*
D03*
X205200Y90000D02*
D03*
X1505500Y428286D02*
D03*
Y453714D02*
D03*
Y479143D02*
D03*
X140000Y929786D02*
D03*
Y955214D02*
D03*
Y980643D02*
D03*
X304990Y150750D02*
D03*
X279590D02*
D03*
X521733Y21630D02*
D03*
X496304D02*
D03*
X470876D02*
D03*
X377233Y21630D02*
D03*
X351804D02*
D03*
X326376D02*
D03*
D125*
X303000Y549250D02*
D03*
X288000D02*
D03*
X273000D02*
D03*
X258000Y549250D02*
D03*
D126*
X303000Y510250D02*
D03*
X288000D02*
D03*
X273000D02*
D03*
X258000Y510250D02*
D03*
D127*
X1475000Y331250D02*
D03*
X1465000D02*
D03*
X1455000Y331250D02*
D03*
X1445000D02*
D03*
X1435000D02*
D03*
X1425000D02*
D03*
X1415000D02*
D03*
X1405000D02*
D03*
X1395000D02*
D03*
X1385000D02*
D03*
X1375000D02*
D03*
X1365000Y331250D02*
D03*
X1355000D02*
D03*
X1345000Y331250D02*
D03*
X1335000Y331250D02*
D03*
Y296250D02*
D03*
X1345000D02*
D03*
X1355000D02*
D03*
X1365000D02*
D03*
X1375000D02*
D03*
X1385000D02*
D03*
X1395000Y296250D02*
D03*
X1405000Y296250D02*
D03*
X1415000D02*
D03*
X1425000D02*
D03*
X1435000Y296250D02*
D03*
X1445000Y296250D02*
D03*
X1455000D02*
D03*
X1465000D02*
D03*
X1475000D02*
D03*
Y206250D02*
D03*
X1465000D02*
D03*
X1455000Y206250D02*
D03*
X1445000D02*
D03*
X1435000D02*
D03*
X1425000D02*
D03*
X1415000D02*
D03*
X1405000D02*
D03*
X1395000D02*
D03*
X1385000D02*
D03*
X1375000D02*
D03*
X1365000Y206250D02*
D03*
X1355000D02*
D03*
X1345000Y206250D02*
D03*
X1335000Y206250D02*
D03*
Y241250D02*
D03*
X1345000Y241250D02*
D03*
X1355000Y241250D02*
D03*
X1365000D02*
D03*
X1375000D02*
D03*
X1385000Y241250D02*
D03*
X1395000D02*
D03*
X1405000Y241250D02*
D03*
X1415000D02*
D03*
X1425000D02*
D03*
X1435000Y241250D02*
D03*
X1445000D02*
D03*
X1455000Y241250D02*
D03*
X1465000D02*
D03*
X1475000D02*
D03*
D128*
X690000Y837000D02*
D03*
X718000D02*
D03*
D129*
X1094400Y937125D02*
D03*
Y916125D02*
D03*
X1474400D02*
D03*
Y937125D02*
D03*
D130*
X1087400Y926625D02*
D03*
X1101400D02*
D03*
X1481400D02*
D03*
X1467400D02*
D03*
D131*
X727750Y184000D02*
D03*
D132*
X723750Y184500D02*
D03*
Y171500D02*
D03*
X727750Y171500D02*
D03*
D133*
X717250Y182000D02*
D03*
X717250Y178000D02*
D03*
X717250Y174000D02*
D03*
X734250D02*
D03*
X734250Y178000D02*
D03*
X734250Y182000D02*
D03*
D134*
X539250Y1058750D02*
D03*
Y1089750D02*
D03*
D135*
X566750Y1012950D02*
D03*
X561750D02*
D03*
X556750D02*
D03*
X551750D02*
D03*
X546750D02*
D03*
X541750D02*
D03*
X536750D02*
D03*
X531750D02*
D03*
X526750D02*
D03*
X521750D02*
D03*
X516750D02*
D03*
X511750D02*
D03*
D136*
X1077400Y867500D02*
D03*
X1094400Y867500D02*
D03*
X595750Y850250D02*
D03*
X612750D02*
D03*
X1540750Y902500D02*
D03*
X1557750D02*
D03*
X1474400Y867500D02*
D03*
X1457400D02*
D03*
X1160750Y902500D02*
D03*
X1177750D02*
D03*
D137*
X1038750Y102250D02*
D03*
X948750D02*
D03*
D138*
X368000Y491750D02*
D03*
Y461750D02*
D03*
X349750Y564000D02*
D03*
X349750Y534000D02*
D03*
X370500Y564000D02*
D03*
Y534000D02*
D03*
X348500Y253000D02*
D03*
X348500Y283000D02*
D03*
X327313Y355188D02*
D03*
Y325187D02*
D03*
X348500Y355250D02*
D03*
Y325250D02*
D03*
D139*
X557492Y825750D02*
D03*
Y779750D02*
D03*
D140*
X632007Y802750D02*
D03*
D141*
X1588000Y999750D02*
D03*
X1583500D02*
D03*
X1393500D02*
D03*
X1398000D02*
D03*
X1013500D02*
D03*
X1018000D02*
D03*
X1203500Y999750D02*
D03*
X1208000Y999750D02*
D03*
D142*
X465250Y613250D02*
D03*
X444000Y404500D02*
D03*
D143*
X450750Y613250D02*
D03*
X429500Y404500D02*
D03*
D144*
X436750Y600750D02*
D03*
Y605750D02*
D03*
Y610750D02*
D03*
Y615750D02*
D03*
Y620750D02*
D03*
Y625750D02*
D03*
X476750D02*
D03*
Y620750D02*
D03*
Y615750D02*
D03*
Y610750D02*
D03*
Y605750D02*
D03*
Y600750D02*
D03*
X415500Y392000D02*
D03*
Y397000D02*
D03*
Y402000D02*
D03*
Y407000D02*
D03*
Y412000D02*
D03*
Y417000D02*
D03*
X455500D02*
D03*
Y412000D02*
D03*
Y407000D02*
D03*
Y402000D02*
D03*
Y397000D02*
D03*
Y392000D02*
D03*
D145*
X444250Y633250D02*
D03*
X449250D02*
D03*
X454250D02*
D03*
X459250D02*
D03*
X464250D02*
D03*
X469250D02*
D03*
Y593250D02*
D03*
X464250D02*
D03*
X459250D02*
D03*
X454250D02*
D03*
X449250D02*
D03*
X444250D02*
D03*
X423000Y424500D02*
D03*
X428000D02*
D03*
X433000D02*
D03*
X438000D02*
D03*
X443000D02*
D03*
X448000D02*
D03*
Y384500D02*
D03*
X443000D02*
D03*
X438000D02*
D03*
X433000D02*
D03*
X428000D02*
D03*
X423000D02*
D03*
D146*
X1398000Y914150D02*
D03*
X1404500D02*
D03*
X1411000D02*
D03*
X1417500D02*
D03*
X1417500Y951650D02*
D03*
X1411000D02*
D03*
X1404500D02*
D03*
X1398000D02*
D03*
X1594500Y927500D02*
D03*
X1588000D02*
D03*
X1581500D02*
D03*
X1575000D02*
D03*
Y965000D02*
D03*
X1581500D02*
D03*
X1588000D02*
D03*
X1594500D02*
D03*
X1018000Y951650D02*
D03*
X1024500D02*
D03*
X1031000Y951650D02*
D03*
X1037500D02*
D03*
X1037501Y914150D02*
D03*
X1031000D02*
D03*
X1024500D02*
D03*
X1018000D02*
D03*
X1214500Y927500D02*
D03*
X1208000D02*
D03*
X1201500D02*
D03*
X1195000D02*
D03*
Y965000D02*
D03*
X1201500D02*
D03*
X1208000D02*
D03*
X1214500D02*
D03*
D147*
X1426500Y923150D02*
D03*
Y929650D02*
D03*
Y936150D02*
D03*
Y942650D02*
D03*
X1389000D02*
D03*
Y936150D02*
D03*
Y929650D02*
D03*
Y923150D02*
D03*
X1566000Y936500D02*
D03*
Y943000D02*
D03*
Y949500D02*
D03*
Y956000D02*
D03*
X1603500Y956000D02*
D03*
Y949500D02*
D03*
Y943000D02*
D03*
Y936500D02*
D03*
X1009000Y923150D02*
D03*
Y929650D02*
D03*
Y936150D02*
D03*
X1009000Y942650D02*
D03*
X1046500Y942650D02*
D03*
Y936150D02*
D03*
Y929650D02*
D03*
X1046500Y923150D02*
D03*
X1186000Y936500D02*
D03*
Y943000D02*
D03*
Y949500D02*
D03*
Y956000D02*
D03*
X1223500Y956000D02*
D03*
Y949500D02*
D03*
Y943000D02*
D03*
Y936500D02*
D03*
D148*
X1407750Y932900D02*
D03*
X1027750D02*
D03*
D149*
X1216500Y860500D02*
D03*
X1596500D02*
D03*
D150*
X1201500Y889500D02*
D03*
X1231500D02*
D03*
X1611500D02*
D03*
X1581500D02*
D03*
D151*
X1216500Y887500D02*
D03*
X1596500D02*
D03*
D152*
X1063400Y866000D02*
D03*
X1041400Y882000D02*
D03*
Y866000D02*
D03*
X1443400D02*
D03*
X1421400Y882000D02*
D03*
Y866000D02*
D03*
D153*
X1063400Y880250D02*
D03*
X1443400D02*
D03*
D154*
X190250Y983250D02*
D03*
X224250D02*
D03*
X1386500Y377500D02*
D03*
X1420500D02*
D03*
D155*
X207250Y966250D02*
D03*
Y1000250D02*
D03*
X1403500Y360500D02*
D03*
Y394500D02*
D03*
D156*
X223250Y983250D02*
D03*
X191250D02*
D03*
X1419500Y377500D02*
D03*
X1387500D02*
D03*
D157*
X207250Y997250D02*
D03*
Y969250D02*
D03*
X1403500Y391500D02*
D03*
Y363500D02*
D03*
D158*
X402000Y507000D02*
D03*
X482500D02*
D03*
X461136Y298250D02*
D03*
X380636D02*
D03*
D159*
X481500Y1090250D02*
D03*
Y1073250D02*
D03*
X942000Y1090500D02*
D03*
Y1073500D02*
D03*
D160*
X447100Y895000D02*
D03*
Y865000D02*
D03*
Y835000D02*
D03*
Y805000D02*
D03*
Y775000D02*
D03*
Y745000D02*
D03*
X177900D02*
D03*
Y775000D02*
D03*
Y805000D02*
D03*
Y835000D02*
D03*
Y865000D02*
D03*
Y895000D02*
D03*
D161*
X336750Y655250D02*
D03*
X252750D02*
D03*
D162*
X1306000Y982252D02*
D03*
X1141000D02*
D03*
X1520997D02*
D03*
X1685997D02*
D03*
X1330999D02*
D03*
X1495999D02*
D03*
X951002D02*
D03*
X1116002D02*
D03*
D163*
X1306002Y908750D02*
D03*
X1140999Y908753D02*
D03*
X1520995D02*
D03*
X1685999Y908750D02*
D03*
X1330997Y908753D02*
D03*
X1496000Y908750D02*
D03*
X951000Y908753D02*
D03*
X1116003Y908750D02*
D03*
D164*
X1223499Y826250D02*
D03*
X1603495D02*
D03*
X1413497D02*
D03*
X1033500D02*
D03*
D165*
X1297000Y826252D02*
D03*
X1150000D02*
D03*
X1529997D02*
D03*
X1676997D02*
D03*
X1339999D02*
D03*
X1486998D02*
D03*
X960002D02*
D03*
X1107002D02*
D03*
D166*
X1306000Y845252D02*
D03*
X1141000D02*
D03*
X1520997D02*
D03*
X1685997D02*
D03*
X1330999D02*
D03*
X1495999D02*
D03*
X951002D02*
D03*
X1116002D02*
D03*
D167*
X1287000Y991252D02*
D03*
X1160000D02*
D03*
X1539997D02*
D03*
X1666997D02*
D03*
X1349999D02*
D03*
X1476999D02*
D03*
X970002D02*
D03*
X1097002D02*
D03*
D168*
X658500Y740250D02*
D03*
Y760250D02*
D03*
X666250Y849000D02*
D03*
Y869000D02*
D03*
X677000Y760250D02*
D03*
Y740250D02*
D03*
X630000Y849000D02*
D03*
Y869000D02*
D03*
X648000Y849000D02*
D03*
Y869000D02*
D03*
D169*
X174000Y1003500D02*
D03*
Y993500D02*
D03*
D03*
Y983500D02*
D03*
X758500Y126750D02*
D03*
Y136750D02*
D03*
X770750Y126750D02*
D03*
Y136750D02*
D03*
X758500Y171250D02*
D03*
Y181250D02*
D03*
X764500Y149000D02*
D03*
Y159000D02*
D03*
X770750Y181250D02*
D03*
Y171250D02*
D03*
X443750Y566250D02*
D03*
Y576250D02*
D03*
X422500Y357500D02*
D03*
Y367500D02*
D03*
D170*
X556750Y909000D02*
D03*
X510750D02*
D03*
Y952750D02*
D03*
X556750D02*
D03*
D171*
X1084400Y881375D02*
D03*
X1094400D02*
D03*
X1084400Y903875D02*
D03*
X1094400D02*
D03*
Y892625D02*
D03*
X1084400D02*
D03*
X1464400Y903875D02*
D03*
X1474400D02*
D03*
Y892625D02*
D03*
X1464400Y892625D02*
D03*
X1464400Y881375D02*
D03*
X1474400D02*
D03*
X1550750Y866125D02*
D03*
X1540750D02*
D03*
Y877375D02*
D03*
X1550750D02*
D03*
Y888625D02*
D03*
X1540750D02*
D03*
X706000Y785000D02*
D03*
X696000D02*
D03*
X778000Y877000D02*
D03*
X768000D02*
D03*
X1604400Y914750D02*
D03*
X1594400D02*
D03*
X1539500Y962750D02*
D03*
X1549500D02*
D03*
X1393250Y900150D02*
D03*
X1383250D02*
D03*
X1013250Y900150D02*
D03*
X1003251Y900150D02*
D03*
X1159500Y962750D02*
D03*
X1169500D02*
D03*
X1224400Y914750D02*
D03*
X1214400D02*
D03*
X1170750Y866125D02*
D03*
X1160750D02*
D03*
X1170750Y888625D02*
D03*
X1160750D02*
D03*
Y877375D02*
D03*
X1170750D02*
D03*
X414250Y600250D02*
D03*
X424250D02*
D03*
X424250Y590250D02*
D03*
X414250D02*
D03*
X459250Y648250D02*
D03*
X469250D02*
D03*
X403000Y381500D02*
D03*
X393000D02*
D03*
X403000Y391750D02*
D03*
X393000D02*
D03*
X438000Y439500D02*
D03*
X448000Y439500D02*
D03*
D172*
X1553750Y927500D02*
D03*
Y917500D02*
D03*
X1535250Y207000D02*
D03*
Y197000D02*
D03*
X1535250Y168750D02*
D03*
Y158750D02*
D03*
X747750Y160250D02*
D03*
Y170250D02*
D03*
X1622500Y942000D02*
D03*
Y932000D02*
D03*
X1647400Y854750D02*
D03*
Y844750D02*
D03*
X1617000Y968750D02*
D03*
Y958750D02*
D03*
X1457400Y854750D02*
D03*
Y844750D02*
D03*
X1411000Y901217D02*
D03*
Y891217D02*
D03*
X1376250Y913250D02*
D03*
Y923250D02*
D03*
X1398000Y975000D02*
D03*
Y965000D02*
D03*
X1018000Y975000D02*
D03*
X1018000Y965000D02*
D03*
X996250Y913250D02*
D03*
Y923250D02*
D03*
X1031000Y901217D02*
D03*
Y891217D02*
D03*
X1077400Y854750D02*
D03*
Y844750D02*
D03*
X1173750Y927500D02*
D03*
Y917500D02*
D03*
X1237000Y968750D02*
D03*
Y958750D02*
D03*
X1242500Y942000D02*
D03*
Y932000D02*
D03*
X1267400Y854750D02*
D03*
Y844750D02*
D03*
X403855Y579750D02*
D03*
Y589750D02*
D03*
X454250Y576250D02*
D03*
Y566250D02*
D03*
X433000Y367500D02*
D03*
Y357500D02*
D03*
X382605Y371000D02*
D03*
Y381000D02*
D03*
D173*
X692750Y801500D02*
D03*
X712750D02*
D03*
X693000Y770500D02*
D03*
X713000D02*
D03*
X763000Y862000D02*
D03*
X783000D02*
D03*
X397125Y419905D02*
D03*
X377125D02*
D03*
X417250Y630500D02*
D03*
X397250D02*
D03*
D174*
X491000Y723250D02*
D03*
X1277750Y349250D02*
D03*
X1630800Y546800D02*
D03*
Y521400D02*
D03*
X1630800Y496000D02*
D03*
X1630800Y470600D02*
D03*
Y445200D02*
D03*
Y419800D02*
D03*
Y394400D02*
D03*
X1630800Y369000D02*
D03*
X1630800Y343600D02*
D03*
Y318200D02*
D03*
X1656200Y546800D02*
D03*
Y521400D02*
D03*
X1656200Y496000D02*
D03*
X1656200Y470600D02*
D03*
Y445200D02*
D03*
Y419800D02*
D03*
Y394400D02*
D03*
X1656200Y369000D02*
D03*
X1656200Y343600D02*
D03*
D175*
X1350750Y761750D02*
D03*
X186250Y587750D02*
D03*
D176*
X1535900Y184350D02*
D03*
X1525900Y184350D02*
D03*
X174250Y720000D02*
D03*
X164250D02*
D03*
X731750Y201000D02*
D03*
X741750D02*
D03*
X719500Y201063D02*
D03*
X709500D02*
D03*
X569750Y850250D02*
D03*
X579750D02*
D03*
X424250Y610750D02*
D03*
X414250D02*
D03*
X403250Y605750D02*
D03*
X393250Y605750D02*
D03*
X414250Y579750D02*
D03*
X424250D02*
D03*
X432091Y568341D02*
D03*
X422091D02*
D03*
X400909Y359478D02*
D03*
X410909D02*
D03*
X393000Y371000D02*
D03*
X403000D02*
D03*
X403000Y402000D02*
D03*
X393000Y402000D02*
D03*
X382000Y397000D02*
D03*
X372000D02*
D03*
D177*
X144000Y745000D02*
D03*
Y720000D02*
D03*
D178*
X1077400Y812250D02*
D03*
Y778250D02*
D03*
X1457400Y812250D02*
D03*
Y778250D02*
D03*
X1267400Y812250D02*
D03*
Y778250D02*
D03*
X1647400Y812250D02*
D03*
Y778250D02*
D03*
D179*
X1060400Y795250D02*
D03*
X1094400D02*
D03*
X1440400D02*
D03*
X1474400D02*
D03*
X1250400D02*
D03*
X1284400D02*
D03*
X1630400D02*
D03*
X1664400D02*
D03*
D180*
X1077400Y779250D02*
D03*
Y811250D02*
D03*
X1457400Y779250D02*
D03*
Y811250D02*
D03*
X1267400Y779250D02*
D03*
Y811250D02*
D03*
X1647400Y779250D02*
D03*
Y811250D02*
D03*
D181*
X1091400Y795250D02*
D03*
X1063400D02*
D03*
X1471400D02*
D03*
X1443400D02*
D03*
X1281400D02*
D03*
X1253400D02*
D03*
X1661400D02*
D03*
X1633400D02*
D03*
D182*
X1551250Y839375D02*
D03*
Y853375D02*
D03*
X1171250Y839375D02*
D03*
Y853375D02*
D03*
D183*
X1540750Y846375D02*
D03*
X1561750D02*
D03*
X1160750D02*
D03*
X1181750D02*
D03*
D184*
X1584750Y946250D02*
D03*
X1204750D02*
D03*
D185*
X1352250Y660500D02*
D03*
X1233250Y250000D02*
D03*
D186*
X1352250Y585500D02*
D03*
D187*
X783600Y1062250D02*
D03*
X809000D02*
D03*
X891000D02*
D03*
X916400D02*
D03*
D188*
X818250Y996050D02*
D03*
X881750D02*
D03*
X792850Y958150D02*
D03*
X805550Y932750D02*
D03*
X818250Y958150D02*
D03*
X830950Y932750D02*
D03*
X843650Y958150D02*
D03*
X856350Y932750D02*
D03*
X869050Y958150D02*
D03*
X881750Y932750D02*
D03*
X894450Y958150D02*
D03*
D189*
X792850Y983350D02*
D03*
X907150D02*
D03*
D190*
X907150Y932750D02*
D03*
D191*
X771500Y991150D02*
D03*
X928500D02*
D03*
D192*
X792850Y1021650D02*
D03*
X907150Y1021650D02*
D03*
D193*
X76000Y944000D02*
D03*
X26000D02*
D03*
X107000Y928000D02*
D03*
X26000Y899000D02*
D03*
X107000Y960000D02*
D03*
X76000Y908000D02*
D03*
X26000Y992000D02*
D03*
D194*
X643500Y1022750D02*
D03*
D195*
X691500Y989750D02*
D03*
D196*
Y1052750D02*
D03*
D197*
X987250Y730500D02*
D03*
X1229250D02*
D03*
D198*
X1676350Y229500D02*
D03*
Y144500D02*
D03*
D199*
X811500Y136250D02*
D03*
X887500D02*
D03*
D200*
X1665000Y35000D02*
D03*
X492500Y857500D02*
D03*
Y142500D02*
D03*
X1207500D02*
D03*
X35000Y1065000D02*
D03*
Y35000D02*
D03*
X1665000Y1065000D02*
D03*
D201*
X581950Y1084250D02*
D03*
X496550D02*
D03*
X581950Y1036950D02*
D03*
X496550D02*
D03*
D202*
X515250Y1032450D02*
D03*
X563250D02*
D03*
X523250D02*
D03*
X555250D02*
D03*
X531250D02*
D03*
X547250D02*
D03*
X511250Y1025450D02*
D03*
X567250D02*
D03*
X519250D02*
D03*
X559250D02*
D03*
X527250D02*
D03*
X551250D02*
D03*
X535250D02*
D03*
X543250D02*
D03*
D203*
X1230050Y50200D02*
D03*
X1159950D02*
D03*
D204*
X144900Y343000D02*
D03*
X144900Y318000D02*
D03*
Y298000D02*
D03*
Y273000D02*
D03*
X118700Y343000D02*
D03*
Y318000D02*
D03*
Y298000D02*
D03*
Y273000D02*
D03*
D205*
X91600Y242300D02*
D03*
Y373700D02*
D03*
X148400Y242300D02*
D03*
Y373700D02*
D03*
D206*
X275714Y286821D02*
D03*
X250286D02*
D03*
X275714Y312250D02*
D03*
X250286D02*
D03*
X275714Y337678D02*
D03*
X250286D02*
D03*
X275714Y363107D02*
D03*
X250286Y261393D02*
D03*
X275714Y261393D02*
D03*
X1658750Y733607D02*
D03*
X1658750Y708178D02*
D03*
X1658750Y682750D02*
D03*
X1658750Y657321D02*
D03*
X1504536Y711536D02*
D03*
X1529964D02*
D03*
X1504536Y686107D02*
D03*
X1529964Y686107D02*
D03*
X1504536Y660679D02*
D03*
X1529964D02*
D03*
X1504536Y635250D02*
D03*
X1529964D02*
D03*
X1504536Y609822D02*
D03*
X1529964D02*
D03*
X1504536Y584393D02*
D03*
X1529964Y584393D02*
D03*
X1504536Y558964D02*
D03*
X1529964D02*
D03*
X42870Y102519D02*
D03*
Y127947D02*
D03*
Y153376D02*
D03*
X352500Y975714D02*
D03*
X124910Y153376D02*
D03*
X174036Y1061250D02*
D03*
X388286Y675250D02*
D03*
D207*
X250286Y363107D02*
D03*
X1658750Y631893D02*
D03*
X42870Y178804D02*
D03*
X352500Y950286D02*
D03*
X124910Y178804D02*
D03*
D208*
X1416214Y427607D02*
D03*
X1505500Y402857D02*
D03*
X140000Y904357D02*
D03*
D209*
X74501Y698483D02*
D03*
X164501Y698483D02*
D03*
X195501Y633483D02*
D03*
X100501D02*
D03*
Y471483D02*
D03*
X195501D02*
D03*
X164501Y536483D02*
D03*
X74501D02*
D03*
D210*
X180261Y670983D02*
D03*
X168701D02*
D03*
X157141D02*
D03*
X145581D02*
D03*
X134021D02*
D03*
X122461D02*
D03*
X110901D02*
D03*
X99341D02*
D03*
X186041Y660983D02*
D03*
X174481Y660983D02*
D03*
X162921D02*
D03*
X151361D02*
D03*
X139801D02*
D03*
X128241Y660983D02*
D03*
X116681D02*
D03*
X105121D02*
D03*
X93561D02*
D03*
X87781Y670983D02*
D03*
Y508983D02*
D03*
X93561Y498983D02*
D03*
X105121D02*
D03*
X116681D02*
D03*
X128241D02*
D03*
X139801D02*
D03*
X151361D02*
D03*
X162921D02*
D03*
X174481D02*
D03*
X186041D02*
D03*
X99341Y508983D02*
D03*
X110901D02*
D03*
X122461D02*
D03*
X134021D02*
D03*
X145581D02*
D03*
X157141D02*
D03*
X168701D02*
D03*
X180261D02*
D03*
D211*
X82001Y660983D02*
D03*
Y498983D02*
D03*
D212*
X195501Y685983D02*
D03*
X63001Y650983D02*
D03*
Y488983D02*
D03*
X195501Y523983D02*
D03*
D213*
X254190Y90250D02*
D03*
X373190Y211250D02*
D03*
Y90250D02*
D03*
Y150750D02*
D03*
X180940Y20380D02*
D03*
X179800Y90000D02*
D03*
X254190Y150750D02*
D03*
D214*
X86500Y1078250D02*
D03*
Y1027250D02*
D03*
X137500Y1078250D02*
D03*
X112000Y1052750D02*
D03*
X137500Y1027250D02*
D03*
X287500Y1027250D02*
D03*
X262000Y1052750D02*
D03*
X287500Y1078250D02*
D03*
X236500Y1027250D02*
D03*
Y1078250D02*
D03*
X437500Y1027250D02*
D03*
X412000Y1052750D02*
D03*
X437500Y1078250D02*
D03*
X386500Y1027250D02*
D03*
Y1078250D02*
D03*
X1562500Y1078250D02*
D03*
Y1027250D02*
D03*
X1613500Y1078250D02*
D03*
X1588000Y1052750D02*
D03*
X1613500Y1027250D02*
D03*
X1182500Y1078250D02*
D03*
X1182500Y1027250D02*
D03*
X1233500Y1078250D02*
D03*
X1208000Y1052750D02*
D03*
X1233500Y1027250D02*
D03*
X1372500Y1078250D02*
D03*
Y1027250D02*
D03*
X1423500Y1078250D02*
D03*
X1398000Y1052750D02*
D03*
X1423500Y1027250D02*
D03*
X992500Y1078250D02*
D03*
Y1027250D02*
D03*
X1043500Y1078250D02*
D03*
X1018000Y1052750D02*
D03*
X1043500Y1027250D02*
D03*
D215*
X64470Y127947D02*
D03*
D216*
X1656200Y318200D02*
D03*
D217*
X318143Y468000D02*
D03*
X860714Y876214D02*
D03*
X445447Y21630D02*
D03*
X300947Y21630D02*
D03*
D218*
X675105Y53025D02*
D03*
X650105D02*
D03*
X1025105Y53000D02*
D03*
X1050105D02*
D03*
X950105Y53025D02*
D03*
X975105D02*
D03*
X875105D02*
D03*
X900105D02*
D03*
X800105D02*
D03*
X825105D02*
D03*
X725105D02*
D03*
X750105D02*
D03*
D219*
X82500Y44700D02*
D03*
X1307500Y1049450D02*
D03*
X126750Y44700D02*
D03*
D220*
X199464Y1061250D02*
D03*
X413714Y675250D02*
D03*
D221*
X891250Y724750D02*
D03*
X561250Y724750D02*
D03*
X561250Y244750D02*
D03*
X891250Y244750D02*
D03*
M02*
