M48
;Layer_Color=9474304
;FILE_FORMAT=4:4
METRIC,LZ
;TYPE=PLATED
T1F00S00C0.2000
T2F00S00C0.4000
T5F00S00C0.7000
T7F00S00C0.9000
T8F00S00C0.9500
T9F00S00C1.0000
T11F00S00C1.1000
T12F00S00C1.1200
T13F00S00C1.3000
T14F00S00C1.6000
T15F00S00C1.7000
T16F00S00C2.3000
T17F00S00C3.0000
T18F00S00C3.2000
;TYPE=NON_PLATED
T19F00S00C0.7500
T20F00S00C0.8000
T21F00S00C0.8100
T22F00S00C1.0000
T23F00S00C1.1000
T24F00S00C1.3000
T25F00S00C1.5000
T26F00S00C1.6000
T27F00S00C3.0000
T28F00S00C3.4000
%
T01
X0011875Y000165
X0016225
Y000292
X0016225Y000546
X0007675Y000635
X00074Y0007475
X0002425Y0012325
X0001675Y0020425
Y00209
X00095Y0019025
X00153Y002025
Y00208
X0015775Y0021175
X001715Y002175
X00172229Y0020125
X001745Y0017275
X001695
X00163
X0015675Y0017325
X0017375Y0016725
X0017925Y00171
X0018575
X0018975Y00175
X0019425Y00212
X0019025Y00227
X00195Y0024075
X001975Y002455
X002015Y0024175
X0018225Y0025475
X001785Y002585
X001745Y0025475
X00172Y0027175
X00173Y0027675
X00172Y0028175
X00171Y00298
X00171Y00308
X00171Y00318
X0007725Y0031625
X000565Y0031175
X0006125Y0032975
X00058Y00343
X000285Y0032975
X0001425
X0002825Y00303
X0005725Y0028375
X0007075Y002695
X00169Y0014375
X001745Y00145
X002065Y0015725
X0021475Y001575
X0021375Y0016675
X002145Y0019975
X0021975
X00225Y0020425
X002315Y0020425
X00237Y001995
X002195Y0021925
X0021025Y0023125
X002365Y0023925
X002265Y002575
Y0026425
Y0027075
Y0027725
Y00284
X00209Y0027075
X00206Y003175
X00236Y003145
X002355Y00326
X0021175Y003595
Y0036475
X002115Y0037175
X0034375Y0036475
X0035
X0034875Y0034225
X0034375
X0033875
Y0033725
X0034375
X0034875
Y0033225
X0034375
X0033875
X00366Y003485
X004225Y003525
X00433Y003525
X0043725Y003235
X00423Y0031125
X0041825Y003085
Y00314
X00436Y0029225
X004155Y0027275
X0041375Y0026075
X0039675Y0026025
X003685Y002565
X003645Y0025175
X0031225Y0025575
X0031175Y00242
X002875Y002375
X002875Y002325
X0026275Y00225
X0028825Y003
X00303Y0029675
X0030925Y00156
X003175Y00101
X0032225
X0034325Y0008325
X0029225Y0008125
X003015Y00056
X002795Y0010725
X002435Y00104
X0021275Y000415
X00451Y0009525
X0045075Y00161
Y00166
X00436Y00185
X0040725Y00159
X00379Y0019775
Y0020275
X00373Y001995
X0046925Y00211
X0047425Y0021
Y00219
X0046925Y00218
X0046925Y0024725
X0046375Y002475
X004945Y002905
X0049625Y002975
X00503Y0029925
X0050025Y0032625
X005105Y0033225
X00527Y00327
X005305Y0033025
X0052725Y003405
X00533Y0035675
X005575Y0035425
X0054925Y00341
X00547108Y00258892
X0056125Y0026475
X00575392Y00258892
X0058125Y0024475
X00575392Y00230608
X0056125Y0022475
X00547108Y00230608
X0054125Y0024475
X0058875Y00268
X0059575
X00598Y002725
X0058575
X00567Y0016175
X005579Y001517
X005452
X005515Y0017225
X0055925Y0011325
X0056925
X0053945Y0008425
X00598965Y00053536
X006025Y0005
X0061965Y0008175
X0064385
X00655101Y00032525
Y00018525
X00730101Y00032525
X00746101Y00032525
X00805101Y00032525
X00821101Y00032525
X0084875Y0003525
X0084525Y00039
X0084475Y0004825
X00880101Y00032525
X00896101Y00032525
X0092925Y00032
X0092825Y0004975
X009125Y00062922
X0090775Y0006575
X008945Y0007225
X008945Y0008225
X008945Y0009225
X0096725Y0009375
X009655Y000995
X00972Y0010225
Y0008925
X009785Y000795
X00995Y00073
X009965Y0006425
X009625Y000635
X0095475Y0007775
X00955101Y000325
X00971101Y000325
X0097575Y001545
X0098425Y0015025
X00994Y0015325
X00994Y0016575
X009855Y001945
X0098025
X009595Y00193
X009545Y00198
X00948Y00188
X00944Y0017075
X0096125
X0097625Y00216
X00985Y0022125
X00982125Y0022625
X00966Y00236
X00963363Y00247012
X00958875Y002645
X0095875Y0028225
X0096375Y0027975
X009745Y002755
X0097675Y002695
X0098975Y0030875
X0099425Y003065
X0099425Y0031125
X00967Y0032675
X009635Y0033075
X0094625Y00317
X00941898Y00307352
Y00302148
X0092775Y0029225
X0092925Y0028725
X0089625Y0028375
X0088425Y002885
X00884Y002945
X0086925Y0029475
X008595Y0028825
Y0028175
Y0030125
X0082775Y0030025
X0082775Y0028925
X0081675
Y0030025
X00786Y0030125
X0078575Y0031825
X007965Y00324
X0079275Y0032925
X0078875Y0034125
X007895Y0035275
X007895Y0035825
Y0036475
X007895Y0037025
X00799Y0034875
X0080925Y003305
X008255Y00352
X00830709Y0035325
X00830709Y0035975
X008255Y0036125
X00837904Y00371346
X008425Y0036675
X00846389Y00362861
X008745Y0032175
X00893Y003225
X009115Y0033275
X0091125Y00338
Y0034425
X00963Y003685
X00952Y002355
X0092075Y0022625
X00905392Y00230608
X0089125Y0022475
X00877108Y00230608
X0087125Y0024475
X00877108Y00258892
X0089125Y0026475
X00905392Y00258892
X0091125Y0024475
X0090575Y0020325
X0089175Y0018825
X00878Y00201
X008435Y0020225
X00836Y00212
X008175Y0021875
X0081625Y0022425
X0082175Y0022875
X0080975Y0024225
X00806Y00245921
X0080105Y00250871
X007975Y0025475
X00772379Y00249222
X00767Y00249172
X0076205Y00254121
X007595Y002585
X00754Y0027175
X0075425Y002895
X0075675Y0031075
X0073475Y0030925
X00725Y003085
X0071875Y0030775
X007145Y00299
X0071775Y002935
X0069875Y00272
X006855Y002715
X006825Y002435
X00699Y0025225
X0069625Y002215
X007095Y00221
X0072125Y002215
X0074525Y0022375
X0075575Y0021
X00748Y00201
X007465Y0019325
X0073175Y0019475
X007195
X0070475Y00193312
X0070325Y00201063
X0070675Y0017975
X0070675Y0017225
X007115Y00183
X0072Y001665
X007315Y001665
X007405Y001665
X00743Y0016
X0076425Y0017175
X00785Y0015375
X0082275Y00154
X00837Y001555
X0085525Y0013925
X0082625Y000835
X0081
X00817Y0009225
X00799Y0009275
X0077225Y0008825
Y0008325
X00722Y001245
X00682Y0014325
X00682521Y00170625
X00683Y00176
X006825Y001815
X006485Y0018
X006345Y0016175
X006254Y001517
X006127
X0063235Y0014225
X0064385
X0060775Y0017975
X006295Y0020225
X0065Y0021675
X0066825Y002135
X0066625Y0022225
X0067125
X00664Y002355
X0066175Y00251
X0063875Y0024375
X0063725Y002305
X006125Y002315
X006125Y00237
X006125Y002425
X0060325Y0027225
X006015Y002995
X0060975Y0029975
X00645Y0029475
X0064675Y002895
Y002845
X0064175Y002805
X00654Y0031525
Y0032975
X0067075Y00329
Y0033425
X0068025Y0034175
X0068325Y003485
X0068975
X006955Y003485
X00702
X00707Y0034475
X00693Y003435
X00694Y003255
X0067925Y0032275
X006745Y0030775
X0066875Y003095
X0066175Y003425
X0065225Y0035
X0063875Y0034675
X00634Y00351211
X0062675Y003515
X0060525
X006125Y003655
X00667Y00364
X006675Y0035825
X006985Y0037025
X007165Y0037125
X00734Y0037
X00731Y003415
X00729Y0032325
X007565Y0035475
X0077775Y0028825
X007365Y002645
X0072725Y0026125
X007805Y0022
X0078425Y002105
X0079125Y00210562
X007945Y002145
X00842Y0024275
X00849Y0024225
X0085Y0024825
X00839Y00254
X01020312Y00251875
X0102075Y0026625
X0101825Y002785
X0102625
X010305Y00275
X0103425Y002785
X0104225
X0105025
X0107425Y0027675
X010905Y0026275
X0111425Y0027075
X0111425Y002755
X01114Y0030825
X0112Y0031075
X0113025Y0030725
Y0030225
X0113825Y0031
X0114625
X01144Y00328
X011305Y0032775
X011005Y0033075
X010895Y0031425
X0109775Y0030425
X0112275Y0024975
X0114075Y002485
X0115175
X0115875Y00241
X0115825Y00223
X0115025Y00223
X0114225
X0113425Y00223
X0112625
X0111825Y00225
X0111025
X0110225Y00223
X01075Y0021275
X0107875Y00209
X01063Y0021
X0105075Y00209
X0104625Y00223
X0105325Y00231
X010425Y0024925
X0103075Y00246
X0102225Y00223
X0101425Y00223
X0100625
X0099825
X0100225Y00276
X0101025Y003035
Y003085
X0099875Y0016275
X0099875Y0015625
X010025Y0011425
Y0010325
X010135
X010135Y0011425
X01068875Y00116875
X0105975Y00142
X0106225Y00157812
X010695Y00157812
X010755Y0015925
X01075375Y001675
X010885Y0017075
X0109475
X0108925Y00146
X0108525Y0014975
X01045Y001705
X010835Y000835
X010895Y000685
X01108Y0005
X0110725Y0003275
X01102Y00032875
X01109601Y00013101
X011275Y000185
X0112675Y0006875
X0114375Y0006775
X0119025Y0006075
X01228387Y00065387
X01238393Y00066743
X01249537Y00066737
Y00081737
X01243994Y00076743
X01222Y0008075
Y0008625
X01238893Y00102487
X0126165Y001036
X0127665Y0010385
X01279643Y00084743
X01268643
Y00073744
X01279643
X01282393Y00052744
X0129025Y0006
X01298Y00048237
Y00038237
X0130069Y00031197
X01308894Y00035506
X01313493Y00019144
X01323493
X01335993Y00012116
X01348994Y00020861
X01365Y0000825
X013695Y000125
X01373687Y00046125
X01364Y00052
X0135825Y00052
X01377477Y0005825
X0137Y000735
X01374Y0007775
X01354Y001055
X0134125Y0010825
X0132965Y0010685
X013184Y0010685
X0130715Y0010685
X0129875Y00091737
X01299393Y00081743
X013055Y00083
X01312643Y00064243
X013135Y00054237
X01336268Y00090493
X0132925Y0012475
X0134125Y0013325
X01338Y0015825
X01298Y00154
X01292744Y00158
X01272744Y0015775
X01255287Y001375
X01254287Y0012525
X0129125Y00131
X01312744Y00133743
X013115Y0020975
X0130575Y0021425
X012995
X01292Y0021425
X0128625Y0021425
X01281Y0021425
X01281Y0022325
X01276Y0022325
X0127725Y0024725
X0126175Y0024825
X01259Y00235
X0130725Y0022875
X0132875Y0022
X0132675Y002405
X01335Y00254375
Y00259
X01345Y00259
Y00254375
X01355Y00256
X01385Y00256
Y002815
X0138225Y0031325
X01375Y00314
X01335Y0031375
X01335Y003085
Y0031925
X0129425Y00319
X012835Y0031725
X01279Y003095
Y002975
X0126925Y003035
X012595Y003095
Y002975
X0123875Y00304
X0121025Y003035
Y003085
X0122625Y002755
X0122625Y0027075
X0118225Y0022925
X0118225Y002245
X0117425
X0117425Y0022925
X0113375Y00241
X011515Y001475
Y001425
Y001375
X011565
X011615
Y001425
Y001475
X011565
Y001425
X0117175Y00119
X0117875Y0011025
X012355Y001825
X01355Y0021975
X01365Y00224
X01372Y0022475
X01385Y00194
X013865Y00138
X013945Y00124
X0138725Y0011675
X01385Y00346
X0139125Y0036
X013585Y0036675
X01334Y003595
X0131575Y0036925
X01294Y0037075
X0124425Y0035875
X01234Y0035975
X0122875Y00359854
X0121575Y00364
X0120875Y003585
X0120225Y0035875
X0119425
X0118625
X011865Y0036975
X0119175
X012045Y003675
X01046101Y000325
X01030101Y000325
X010015Y0006825
X0140675Y00067
X0141475
X01433Y00094
X0144875Y0008825
X0144925Y001035
X0145989Y001024
X0146814Y001119
X0146239Y001214
X014525Y0014275
X0145875Y001535
X0143875Y0015675
Y0016825
X0143236Y0017261
X0142736
X014455Y0017225
X0145075
X01445Y00194
X01475Y00194
X0148975Y001775
X0149Y00159
X0149375Y001555
X0148625Y0013325
X01494839Y00112161
X0152Y001615
X0152025Y001705
X0154525Y00152
Y00147
X01582Y0015775
X01585Y001725
X01603Y0019325
X0163625Y001935
X01651Y0018775
Y00177
Y00167
X0166424Y00136
X0166325Y001145
X01658Y001095
X0168325Y001045
X016245Y00113
X016195Y001355
X016085
Y001465
X016195
X01593Y001135
X015775Y0012
X015675
X01572Y0010425
X0157725
X0153965Y0004415
X0152965Y0004415
X0146925Y000555
X0146925Y0006075
X0145225Y0004275
X0144625Y0004275
X014265Y00026
X01408Y00138
X01415Y00194
X01405Y00224
X01395
X01425
X01435
X01455Y00224
X01465
X01494394Y00224506
X01494394Y00235756
X01486994Y00255894
X01475744Y00255894
X01464493Y00255894
X01451993Y00255894
X01445Y00256
X014375Y0027
X01445Y002815
X01457875Y0027225
X01475Y002815
X0149475Y00281
X01495394Y00271007
X015145Y00278
X015255Y00278
Y00289
X015145Y00289
X0151175Y0031
X01501393Y00302743
X01496144Y00314506
X01487007Y00314856
X01496144Y00324506
X01502507Y00343
X0149725Y0035425
X0149725Y0035975
X01475Y00346
X01445Y00346
X01415
X01405Y00314
X01395
X01425
X01435
X0144875Y00314
X01455
X01465
X014815Y002985
X01532493Y00308106
X01549394Y00301007
X01544606Y00296007
X0155175Y00291007
X0154925Y002775
X01544606Y00281007
X0156425Y00282
X015695
X015625Y0026325
X0155525Y00266257
X01532493Y00258894
X01517493
X01539856Y00237493
X01538856Y00225243
X01545Y002195
X0154475Y002095
X0151Y0021125
X0157575Y002365
X015815
X0158875Y002325
X015855Y00228
X0162125Y0022325
X016185Y00285813
X01578456Y0030295
X0157075Y0032575
X01569987Y00339394
X01553631Y0036625
X01544731Y00372387
X01607337Y00368644
X0167075Y0027825
X01415Y002815
Y00256
X014625Y00399125
Y00404
X0148775Y004155
X0147275Y0044
Y00452
X01463Y00446
X0145325Y0044
Y00452
X0144875Y0043225
X01438Y004305
X0142625Y0046825
X0141525Y0049775
Y00502875
X01404Y0049775
Y0049275
X0143275Y0050275
X0143775
X014345Y0053175
X014575Y005215
Y00517
X0150675Y005235
X01522Y00533
X015215Y0048275
X01556994Y0048185
X01563494
X01569994
X01563481Y0046285
Y00450137
X01563656Y00434872
X01563494Y0042035
X01569994
X01576494
X01582843Y00413987
X01576481Y00407637
X0158374Y00388494
X01607337Y00388644
X01553637Y00376303
X01556994Y0042035
X01554641Y0044185
X01576371Y00444879
X01575737Y00504993
X01563487Y00504993
X01551237
X014915Y0047225
X01515041Y004355
X01541422Y00411578
X0148575Y0056675
X0141845Y0055625
X0140575
X0142Y006035
X0144175Y0060175
X014295Y00633
X0142425Y006415
X0141325Y0062725
X0141575Y0068025
X0143425Y0066975
X014475Y0071775
X0145275
X0145Y0072225
X0148075Y0071625
X0148475Y0070975
X014885Y007135
X01485Y0073725
X0147975
X0148225Y0074175
X0157075Y0073525
Y0073025
X016305Y006995
X0161325Y00651
X016065Y00657
X01616Y006185
X013505Y0061625
Y006115
X013385Y0063975
X01338Y0065175
X0135275Y006775
X01373321Y00678929
X01379679
X01382Y00714
X0137437Y00729975
Y00734975
X0132075Y00753
X01287Y0073175
X0129Y0072475
X0128275Y0072525
X0124925Y007305
X01243392Y00716358
X0122925Y007105
X01215108Y00716358
X0120925Y007305
X01215108Y00744642
X0122925Y007505
X01243392Y00744642
X0117125Y00732
X0116875Y007275
X01174
X0118902Y0070825
X0118675Y006435
Y006385
X0114475Y0062775
X0114225Y0062325
X011475
X011165Y00623
X0111125
X0111375Y006275
X0109Y00587
X01085
X0116525Y0059475
X0117075
Y0060025
X0116525
X0116Y00555
X0118825Y00549
X01194207Y00549
X011915Y0053275
X0119425Y005185
X01187Y005195
X011524Y005206
X0114425Y005145
X0113825Y00531
X0112975Y005295
X0112175Y0052525
X011329Y004936
X0114575Y0048475
X011635Y0049375
X0117225Y0049325
X0118725Y00481
X011895Y0047075
X0120875Y004665
X0120275Y004845
X0121875Y0049125
X0122875Y00481
X0123375Y004675
X0124325Y004565
Y00447
Y00437
X012485Y00442
X012475Y00422
X0124325Y00417
X0125425Y004165
X0128525Y00409
Y0040425
X0128625Y0039375
X0129475Y004
X0129975Y003875
X0131575Y0037425
X0132925Y003965
X0134875Y0041675
X0135375
X013865Y0038625
X0138975Y0051775
X01355Y00498
X0129Y004985
X01285125
X0127375Y0046425
X0129875Y004585
X0122625Y004495
X0117625
X011635Y00459
X011565Y00452
X011515Y00432
X0115625Y00427
X0113725Y00427
X0113725Y00417
X0112875Y0042
X01155Y00407
X0116Y00402
X0117625Y003995
X0118875Y00385
X0119375Y00383
X0120875Y0038275
X0121525Y0038275
X0122375Y00381
X0122625Y003995
X0120125Y004245
X01146Y0038825
X0107975Y003895
X010735Y0039
X0108525Y0040125
X010865Y0043175
X0108275Y004355
X0110225Y00437
X0109775Y00442
X0110325Y0044675
X0111675Y004625
X0113
X0112375Y00456
X01101Y00475
X011005Y00487
X0107675Y004905
X0106675Y0050975
X0104825Y0053075
X010405Y0053775
X01036Y0054375
X01Y0051875
X0100025Y0041625
X01005
X010025Y0041225
X0102125Y00411
X0102675Y004015
X01021Y0039225
X0104775Y0039
X0103075Y0042825
X0101875Y00627
X0102075Y0068775
X010255Y0069275
X01001392Y00716358
X0100725Y007305
X01001392Y00744642
X0102775Y00766
X0104221Y007289
X010775Y0076925
X0112775Y0077
X0112525Y007655
X011305
X0112298Y007185
X0110825Y0071865
X010715Y0068025
Y0067525
X0115227Y0066985
Y0066485
X01272Y0067775
X01298Y0064025
X0130525Y0064325
X0128525Y0057025
X0127675Y00541
X0123525Y0053
X01229Y005095
X01242957
X009955
X0095825Y00523
X009535Y005305
Y0053575
X0094875Y00542
X0095025Y0056875
X0094275
X0093525
X0092825
X0090575Y00564
X009028Y0054275
X009028Y0053675
X009028Y0053075
X009028Y0052475
X0090275Y0051925
X009028Y0050675
X009028Y0050075
X009028Y0049475
X009028Y0048875
X0089825Y004915
X008953Y0048275
X008953Y0047675
X00898Y004725
X009028Y0047075
X009028Y0046475
X00898Y0046225
Y0044375
X009028Y0044675
X009028Y0044075
X0089Y0044375
X00888Y0043025
X0088775Y0042
X008897Y0041075
X008897Y0040475
X0089775Y00395
X009028Y0039275
X009028Y0039875
X009028Y0041675
X009028Y0042275
X00924Y0042425
X009275Y0041975
X0092525Y0040775
X009205Y0041075
X009205Y0040475
X0091825Y0039175
X009205Y0038675
X009205Y0038075
X0091825Y0037575
X0089325Y0037625
X008897Y0038075
X008897Y0038675
X00872Y0039275
X00872Y0039875
X0086725Y00396
X00872Y0041675
X00872Y0042275
Y0044075
X00872Y0044675
X008675Y004495
X0086125Y0046175
Y0046975
X0085475Y0047375
Y0046575
X00808364Y004615
X00808364Y004555
X008195Y004485
X0081425Y004425
X007955Y004465
X00792Y0044325
X0078525Y00452
X007805Y004485
X0072875
X0073425Y0045925
X007295Y004805
X0070625Y0048
X007025Y004555
X007095Y00455
X0070968Y0043285
X007045Y0043275
X0067625Y00432
X00676Y00437
X006675Y00427
X00683Y004045
X007035Y00374
X007115Y00374
X007215Y00374
X007295Y00374
X0074425Y00398
X0074925Y0040225
X0075625Y004055
X00739Y0040475
X007985Y0040225
X00788582Y0039175
X0083325Y00391
Y00386
X0083175Y0039675
X0083275Y00374
X0092775Y0039375
X009205Y0042875
X009205Y0043475
X0092525Y0043675
X0092575Y0045525
X009205Y0045275
X009205Y0045875
X009215Y0047025
X009225Y0048475
X0092775Y0048275
X009185Y0049425
X009205Y0050725
X009205Y0051275
X009205Y0051875
X00919Y0052625
X009235Y005305
X00907Y0053375
X0087375Y005365
X00872Y0053075
X00872Y0052475
X008645Y0051875
X008645Y0051275
X008665Y00507
X00872Y0050675
X00872Y0050075
X0085825Y0052149
X0086125Y00536
X00872Y0054275
X0086125Y00564
X008475Y0056925
X008425
X00827121Y0056475
X0082075Y0056925
X008175Y0060725
X0081818Y0062268
X007965Y0060725
X007755Y00607
X0075425
X007335Y0060675
X007125
X006915
X006855Y00606
X00680188Y00606
X00665Y0060375
X006565Y00606725
X006605Y0059525
X00668521Y0059575
X006645Y0058775
X00672521Y00582
Y005765
X006795Y0058225
X00691Y0057825
X006925Y00636
X0069425Y0064125
X007095Y006535
X0071575
X007285
X007345
X007445Y0065425
X0072251Y0064093
X0068425Y0067675
X0067925Y006725
X0063925Y0067925
X00629Y006725
X0062825Y00618
X0064057Y0062268
X006195Y006055
X006335Y00571
X0063375Y0056175
X006265
X0061875Y0055425
X0060825Y0056625
X0062775Y0051275
X006315Y0050925
X006615Y0049725
X0066775
X0068125
X00709629Y00512771
X00736Y0052625
X0073675Y0053125
X00723Y00546
X007375Y0049825
X0075375Y0049675
X0075325Y0048075
X00767929Y00527371
X0078065Y0052735
X007985Y005395
X008125Y005265
X008785Y0056875
X0086825Y00606
X008525Y006255
X008565Y0064475
X0087575Y006425
X0086375Y00661062
Y00680437
X0087125Y00682937
X00877108Y00710608
X0087125Y0072475
X00877108Y00738892
X0089125Y0074475
X00905392Y00738892
X0091125Y0072475
X00905392Y00710608
X0089125Y0070475
X0082675Y0069275
X0078725Y006545
X0079686Y0064186
X00716Y00709
X00725161Y00721201
X00725361Y007315
X0070525Y00752
X0071125Y007615
X0068325Y00745
X0065975
X0065025Y0074975
X00645
Y007445
X00637161Y00739701
X00637136Y00728225
X006255Y0072675
X00625Y007505
X0065975Y007215
X00664Y0070804
X006715Y0073325
X0068325Y007215
X00648Y0048025
X0066275Y00461
X0061425Y004275
X00603Y00436
X00614Y0040275
X009575Y0041325
X009625Y0041175
X0097175Y00406
X0096725Y003905
X0098275Y00415
X0094825Y00445
X00974Y005455
X009585Y0056875
X0094475Y0060025
X00973108Y00716358
X0096725Y007305
X00973108Y00744642
X0098725Y007505
Y007105
X00575392Y00710608
X0056125Y0070475
X00547108Y00710608
X0054125Y0072475
X00547108Y00738892
X0056125Y0074475
X00575392Y00738892
X0058125Y0072475
X0056875Y0066825
X0056275
X0059275Y0066075
X0057225Y006135
X00566Y00608
X005455Y00599
X0053475Y0060925
X005285
X00533Y0063175
X00514Y0063775
X004815Y00638
X004735Y00638
X004845Y0062825
X004845Y006215
Y0061475
Y00608
X0046525Y0060475
Y0061325
Y0062175
X0045325
Y0061325
Y0060475
X0045425Y0056125
X0044375Y0056125
X004575Y00538
Y005305
X00524Y005275
X0053475Y0052575
Y0051375
X0053475Y0050575
X0053475Y0049775
Y0048975
Y0047375
X0054695Y0047775
X0054695Y0049375
X0054925Y0050175
X0054695Y0050975
X0055025Y0051375
X0055525Y0051425
X0055325Y005235
X0054695Y0051775
X0054695Y0052975
X00559Y0054425
X0053475Y0054575
X00541Y0056125
X0053225Y0058375
X005225Y0058225
X0052025Y0057775
X0052125Y0058775
X0058375Y00569
X0058725Y005725
X0057775Y0055775
X00582Y0052675
X0058225Y0052125
X005865Y00518
X0056555Y0050575
X0056555Y0049775
X0055975Y0050175
X0056425Y004735
X0056555Y0045775
X0056555Y0044175
X005618Y0043775
X00561Y004315
X00565Y00427
X0054675Y004295
X00533
X00527
X0052175Y0042725
X0052525Y004375
Y004435
X00536Y0044575
X0054695Y0045375
X0058175Y004385
X0058725
Y00433
X0058175
X0059625Y0043275
X00594Y0040625
X0059Y0040275
Y00397
X005905Y0038075
X005845
X0057775Y0038175
X0057775Y0038975
X0056555Y0038575
X0056555Y0039375
X0054695Y0038975
X0054695Y0039775
X0053475Y0039375
Y0038575
X0050625Y0038
X0048Y00388
X0048175Y00394
X0046325Y0039925
Y00406
Y0041275
X0046325Y004195
X0046025Y0042925
X0045225Y0042925
X00444Y00413
Y004045
Y00396
X00432
Y004045
Y00413
X00418295Y00427239
X00410795
X00410795Y00434739
X00418295
X00403295Y00434739
X00403295Y00427239
X00378625Y00427405
Y00412405
X00388Y0040225
X00388Y0039175
X00388Y003815
X00382605Y00386
X0032475Y0037525
X0031075Y0038425
X00263Y004045
X0021313Y0040525
X0021888Y0042
X00221Y00385
X0021125Y003775
X0025075Y00444
X00273Y004955
X00288
Y00525
Y005305
Y00568
X002675Y0058625
X002625Y0058625
X0029775Y00623
X0031775Y0062275
X00337Y0062475
X003425
Y0063
X0033725
X003405Y005895
X00347Y0058675
X0036Y00551
Y00546
Y00541
X00365
X0037
Y00546
Y00551
X00365
Y00546
X00403855Y0059475
X0040925Y0059025
X0040925Y006005
X0040925Y00611
X00424545Y00635989
X00424545Y00643489
X00432045
X00439545
Y00635989
X00432045
X00486Y0065875
X003165Y00705
Y0071025
X0031125
X00306
Y00705
X00311
X00315Y00747
X003375Y007595
X002925
X002241Y00623
X0021385Y0055696
X00313Y0048725
X00318
X00323
Y0048225
X00318
X00313
X001675Y004805
Y0047475
X0017421Y0045048
X0017023Y0039071
X0018525Y00397
X001875Y00385
X001095Y0041725
X0011125Y0046575
Y004705
X0010925Y0049725
X00113483Y00500733
X00113483Y00507233
X0011825Y0051025
X001175Y005225
X0012125Y005275
X001275Y0053225
X0013225Y0053525
X00145Y00541
X0015025Y00541
X0015675Y00541
X00162Y00541
X001635Y00524
X0015825Y00524
X0017
X0017525Y00524
X00145Y0050375
X001385Y0050375
X0014175Y0049925
X0010825Y005235
X0007175Y0052275
X0007225Y00528
X0006725Y0052625
X00071287Y00509983
Y00497983
X00045965Y00503983
X0004121Y00501483
X00041193Y00506483
X0004121Y00513483
X00045965Y00515983
Y00491983
X00041193Y00494483
X000651Y0055796
X0011775Y00562
X0011875Y0058725
X0011375
X001135Y0059675
X001185
X00147Y005785
Y0057275
X00152Y0057575
X001725Y0060025
X0016525Y0067875
X0016Y0067875
X001535Y0067875
X0014825Y0067875
X001365Y006675
X00139Y0066275
X0012775Y00675
X0012775Y006815
X00127Y0068675
X001195Y00685
X0011325
X00113483Y00669233
X00113483Y00662733
X001225Y0064775
X00071287Y00659983
Y00671983
X00083Y0068725
X0011275Y0070325
X001115Y0072575
X000965Y007535
X00072Y00755
X000655Y00755
X00059Y00755
X000605Y0072625
X0005575
X00045965Y00677983
X0004121Y00675483
X00041193Y00668483
X0004121Y00663483
X00041193Y00656483
X00045965Y00653983
Y00665983
X000651Y00624
X00145Y00703
X0015025Y00703
X0015675Y00703
X00162Y00703
X00025Y00769
X00025Y0078
X00025Y00791
Y00802
Y00813
Y00824
Y00835
Y00846
X0003375Y008475
Y008375
X000335Y008275
X00026Y00922
X0002525Y0096625
X0015425Y009615
Y009715
X0016425
X0015425Y009515
Y009415
Y009315
Y009215
Y009115
X001055Y0091225
X00095Y009
X002895Y00903
X00312Y009155
Y008905
X0033325Y00903
X003165Y0095475
X0031125
X00306
Y0096
X00311
X003165
X00394Y0093175
Y009225
X0040325Y0092225
X004145Y00922
X0040875Y00915
X00398
X0044375Y00912
X0044375Y0090525
X0045125
X0045125Y00912
X0045875
Y0090525
X00458Y0088475
X0045075
X0045725Y0085425
Y00845
X00491Y009025
X004905Y00924
X0051325Y00925
X0051325Y0093175
X0052075
X0052075Y00925
X0052825
Y0093175
X00546625Y00901125
X00594Y0087725
X00595Y008235
X0060075Y0099825
X0059825Y0100975
X0059125Y01027
X0055175Y0100575
X0052675
X0052825Y009905
X0052225
X0053825Y00983
X005485Y0098325
X005045Y01011
X00506Y01017
X004815Y010445
X00315Y00772
X0060725Y0087725
X006175
X006295Y0099825
X0062Y0100975
X007215Y0094275
X007435Y009465
X0075025Y009505
Y009565
X0076225
Y009505
X00814Y0094675
X0081125Y0097475
X0085625Y0098125
X0084325Y0100375
X008545Y0106225
X00747
X00779Y0089175
X0084425Y0089575
X0085625Y008985
X008805Y0090175
X008885Y008925
X0088175Y00947
X0093525Y0094535
Y0095135
X0094725
Y0094535
X009475Y0093425
X00942
X00944Y009295
X0094975
X00756Y0083325
X0074375Y007915
X0072075Y008065
X00721Y0081275
X00713Y007765
X0102375Y007705
X0105Y00795
X0106125Y0081625
X01065Y00825
Y00835
Y00845
X01064Y00854
X01055Y00859
X01048Y0087
X01054Y00879
X0107Y0087425
Y00885
X0108425Y0088675
X01084Y00898
X0108665Y00924375
Y00928875
X0110215Y00928875
Y00924375
X01097801Y0094175
X01091
X0108475Y009475
X010945Y00951
X011045
X011145
X011245
X011345
X011445
X0115925Y0094825
X0116175Y0096975
X0115175
X0117175
X0118175
X0119175
X0120175
X0121125Y0096775
X0121575Y0096075
X01223Y00965
X0122325Y00956
X0121965Y009505
X0119985
X01194683Y009471
Y009405
X01190683Y0093135
X01185183
X0119985Y009305
X0121965
X0123Y0093425
X0123875Y0093775
X0124275Y009465
X012425Y00956728
Y0096875
X012435Y00979
X012485Y0098775
X0122325Y00987
X0122275Y0097575
X0122775Y00998
X0123475Y01006
X012435Y010115
X012555Y010145
X01314Y0101325
X0131125Y0100525
X0129875Y00997
X0138925Y0098325
Y0097325
Y0096325
X0136075Y0095475
X0138475Y008265
X0139125
Y008155
X0138575
X013856Y0079325
X0139085
X0134508Y00783625
X01332Y008095
X0128675Y00807
X012844Y0081625
X01280401Y0082625
Y0083625
Y0084625
Y0085625
X012805Y0086825
X0127775Y008785
X01271Y008875
X0126275Y0089525
X0125175Y00899
X0124075
X01231Y0090275
X0122025Y00891
X012135Y0089125
X0121325Y008845
X0122Y0088425
X0120575Y0087525
X011945Y008755
X0118525Y00876
X0117675Y00879
X01169755Y00875995
X01171Y0089725
X01172Y0090275
X011835
X01192Y0090525
X0119825Y0090425
X0115525Y0090025
Y0091275
X0114125Y00875
X0114825Y00864
X01151Y00848
Y0083725
X01164
X012015Y00838625
X01206
X01206Y00854125
X012015
X0122175Y00851625
Y00846375
Y00841125
X012544Y0083625
Y0084625
Y0085625
X012525Y0086625
X012455Y0087275
X0123575Y00875
X012544Y0082625
X012494Y0081625
X012405Y007945
X012675Y0079325
X011565Y0078725
X01151
X0110525Y00799
X01095Y00815
X0109Y00825
Y00835
Y00845
Y00855
X01096Y0085525
X01033Y00869
X010314Y00932533
X0102175Y0093425
X010314Y00952333
X0103225Y009615
Y00967
X010414Y009575
X01048
X01051401Y00952333
X0106125Y0095275
X01068Y009595
X01076Y0096625
X010835Y00969
X0109475Y009695
X0110475
X0111475
X0112475
X011175Y0101425
X011075
X010815Y010145
X01073
X010625
X010715Y00995
X0104925Y0098875
X01033Y010025
X010285Y01006
X01026Y0101375
X0102675Y0099625
X010105Y00979
X0100875Y0096825
X010414Y00942433
X01051401Y00932533
X010585Y0093425
X0107075Y0093525
X0107775Y00941
X0120975Y009405
X0116625Y0099775
X0116875Y0100525
X0107725Y0078875
X013961Y0079325
X0140485Y00779645
X014305Y0079475
X0144Y00815
X01445Y00825
Y00835
X014355Y00835
X01437Y0085275
X01444Y00854
X01445Y00845
X0142525Y0084575
X01435Y00859
X0142975Y0087
X01434Y00879
X0145Y0087425
X0145Y00885
X0145925Y0088725
X0147Y00855
Y00845
Y00835
Y00825
X01475Y00815
X0147975Y0080975
X01483Y00805
X014915Y0081625
X014845Y00841
X01483Y0085
X0149052Y0087425
X015245Y0087525
X015215Y0088075
X0153525Y0090025
Y0091275
X01534Y009185
X0154075Y00920125
X015405Y009315
X015365Y00951
X015275Y0095125
X015175
X015075
X014975
X014875
X014775
X01477801Y0094175
X01471
X014675Y00949
X01458Y0094225
X014485Y0093525
X0143975Y009345
X01431401Y00932533
Y00952333
X01428Y009575
X014214
X0141225Y009615
Y00967
X014114Y00952333
Y00932533
X014045Y009345
X01397Y00937
X014214Y00942433
X014425Y00953
X0145025Y0096075
X014585Y00967
X0146725Y00969
X0147725
X0148725
X0149725
X0150725
X0151725
X0152725
X0154725
X0155725
X0156725
X0157725
X0158725
X01589937Y00974709
X0158375Y0098125
X015765Y00989
X01575Y0100125
Y0101125
X01601
Y0100125
X016065Y009935
X01612687Y00986959
X01619758Y00979888
X016245Y009715
X01625Y00962
X0162475Y00953
X016225Y009415
X0161525Y00935
X0159965Y009305
X0157985
X01570683Y0093135
X01565183
X01574683Y009405
Y009471
X0157985Y009505
X0159965
X01602Y009605
X01597008Y00967638
X0158975Y009405
X0157825Y0090425
X015725Y009075
X015635Y0090275
X01552
X01551Y0089725
X01557Y008785
X0156525Y00876
X015745Y008755
X0158575Y0087525
X0159325Y008845
X015935Y0089125
X0160025Y00891
X016Y0088425
X0161575Y00875
X016255Y0087275
X016325Y0086625
X016344Y0085625
Y0084625
Y0083625
Y0082625
X016294Y0081625
X0162025Y00795
X016475Y00794
X016335Y00778
X016075Y0077365
X01591Y00792
X0158575
X015805
X01557Y00805
X015595Y00817
Y0082225
X01564Y0081975
X015495Y0083425
X0152675Y008255
X0154146Y007839
X0151225Y00776
X014575Y00789
X0146665Y00924375
Y00928875
X0148215Y00928875
Y00924375
X01458Y010035
X0145775Y010115
X01433Y01011
X01433967Y01002125
X0142725Y009985
X0141725
X0140725
X0139975Y0099675
X01611Y0090275
X0161975Y00899
X01631Y0089875
X0164275Y0089525
X01651Y008875
X0165775Y008785
X016605Y008675
X01660401Y0085625
Y0084625
Y0083625
Y0082625
X016644Y0081625
X0160175Y00841125
Y00846375
Y00851625
X01586Y00854125
X015815
X015815Y00838625
X01586
T02
X0051125Y0102545
X0051925
X0052725
X0053525
X0054325
X0055125
X0055925
X0056725
X0056325Y0103245
X0055525
X0054725
X0053125
X0052325
X0051525
T05
X000991Y00273
X001141Y00268
Y00288
Y00308
Y00328
Y00348
X000991Y00343
Y00318
Y00298
X001311
Y00318
X001461Y00328
Y00348
X001311Y00343
X001461Y00308
Y00288
Y00268
X001311Y00273
X008115Y0013625
X008875
T07
X001063Y000905
X001317
X0016955Y000905
X0019495
X0025345Y0009075
X0027885
X0030425
X0030499Y0002038
X0027959
X0025419
X003733Y000205
X003987
X00445447Y0002163
X00470876
X00496304
X00521733
X01578Y0001685
Y0004225
Y0006765
X01461Y003618
Y003872
X015055Y00402857
Y00428286
Y00453714
Y00479143
X00318143Y00468
X00292714
X00267286
X00241857
X0014Y00904357
Y00929786
Y00955214
Y00980643
X0079285Y0098335
X0090715
X00860714Y00876214
X00835286
Y00850786
X00860714
X0108925Y0102975
Y0105515
X0137425
Y0102975
T08
X00253Y00231
Y00251
Y00271
Y00291
Y00311
Y00331
Y00351
Y00371
X00273
Y00351
Y00331
Y00311
Y00291
Y00271
Y00251
Y00231
Y00391
X00253
Y00411
X00273
T09
X0004287Y00102519
Y00127947
Y00153376
Y00178804
X0012491
Y00153376
X011725Y000253
X012175
X016308Y003182
Y003436
X016562
Y003182
X016562Y00369
X016308
X016308Y003944
Y004198
Y004452
Y004706
X016562
Y004452
Y004198
Y003944
X016562Y00496
X016308
X016308Y005214
Y005468
X016562
Y005214
X0165875Y00631893
X0165875Y00657321
X0165875Y0068275
X0165875Y00708178
X0165875Y00733607
X01528964Y00711536
Y00686107
Y00660679
Y0063525
Y00609822
Y00584393
Y00558964
X01503536
Y00584393
Y00609822
X01503536Y0063525
X01503536Y00660679
Y00686107
Y00711536
X00196214Y00765
X00170786
X00170536Y0084775
X00195964
X00199464Y0106125
X00174036
X0081825Y0099605
Y0095815
X0079285
X0080555Y0093275
X0083095
X0085635
X0088175
X0090715
X0089445Y0095815
X0086905
X0084365
X0088175Y0099605
T11
X000295Y00899
X000295Y00944
X000295Y00992
X000795Y00944
Y00908
X001105Y00928
Y0096
T12
X007836Y0106225
X00809
X00891
X009164
T13
X0115995Y000502
X0123005
T14
X000865Y0102725
Y0107825
X001375
X00112Y0105275
X001375Y0102725
X002365
X00262Y0105275
X002875Y0107825
X002365
X002875Y0102725
X003865
X00412Y0105275
X004375Y0107825
X003865
X004375Y0102725
X009925Y0102725
Y0107825
X010435
X01018Y0105275
X010435Y0102725
X01135
Y0107825
X01186
X011605Y0105275
X01186Y0102725
X012775
X01303Y0105275
X013285Y0107825
X012775
X013285Y0102725
X0142
X01471Y0102725
X014455Y0105275
X01471Y0107825
X0142
X015625
X016135
X01588Y0105275
X015625Y0102725
X016135Y0102725
T15
X007715Y0099115
X009285
T16
X000791Y002423
X001359
Y003737
X000791
T17
X00035Y00035
X01665
X00035Y01065
X01665
T18
X004925Y001425
X012075
X004925Y008575
T19
X0167635Y001445
Y002295
T20
X0Y0029375
Y003055
Y003175
Y003295
X017
Y003175
Y003055
Y0029375
Y007205
Y007325
Y007445
Y0075625
X0
Y007445
Y007325
Y007205
X0039475Y011
X004065Y011
X004185
X004305
X00832125
X00843875Y011
X00855875
X00867875
X012695Y011
X012815
X012935
X0130525Y011
T21
X00033801Y00488983
Y00518983
Y00650983
Y00680983
T22
X0140825Y004265
T23
X0123325Y0025
T24
X0006447Y00127947
X00650105Y00053025
X00675105
X00725105
X00750105
X00800105
X00825105
X00875105
X00900105
X00950105
X00975105
X01025105Y00053
X01050105
X0133325Y004265
T25
X0125675Y0001575
X0138575Y0001575
Y0016475
X0125675
X0140475
X0153375
Y0001575
X0140475Y0001575
T26
X0098325Y0025
T27
X0056125Y0024475
X0089125Y0024475
X0122925Y007305
X0098725
X0089125Y0072475
X0056125Y0072475
T28
X0079285Y0102165
X0090715Y0102165
M30
