M48
;Layer_Color=9474304
;FILE_FORMAT=4:4
METRIC,LZ
;TYPE=PLATED
T3F00S00C0.6000
T4F00S00C0.6500
T6F00S00C0.8000
T10F00S00C1.0000
;TYPE=NON_PLATED
%
G90
G05
T03
G00X0049655Y0103995
M15
G01Y0103395
M16
G00X0049655Y0108725
M15
G01Y0108125
M16
G00X0058195Y0108725
M15
G01Y0108125
M16
G00X0058195Y0103995
M15
G01Y0103395
M16
T04
G00X00011751Y00472983
M15
G01X00022251
M16
G00X00045851Y00472983
M15
G01X00056351
M16
G00X00045851Y00534983
M15
G01X00056351
M16
G00X00011751Y00534983
M15
G01X00022251
M16
G00X00011751Y00634983
M15
G01X00022251
M16
G00X00045851Y00634983
M15
G01X00056351
M16
G00X00045851Y00696983
M15
G01X00056351
M16
G00X00011751Y00696983
M15
G01X00022251
M16
T06
G00X006435Y010115
M15
G01Y01034
M16
G00X0070275Y0105275
M15
G01X0068025
M16
T10
G00X007043Y0098975
M15
G01X006787
M16
M17
M30
