G04*
G04 #@! TF.GenerationSoftware,Altium Limited,Altium Designer,19.1.6 (110)*
G04*
G04 Layer_Color=8388736*
%FSLAX44Y44*%
%MOMM*%
G71*
G01*
G75*
%ADD12C,0.1000*%
%ADD19C,0.1500*%
D12*
X879125Y1150000D02*
X1258250D01*
X441750Y1150000D02*
X820875D01*
X879125Y1100000D02*
Y1150000D01*
X820875Y1100000D02*
Y1150000D01*
X1258250Y1100000D02*
Y1150000D01*
X1316500Y1100000D02*
Y1150000D01*
X383500Y1100000D02*
Y1150000D01*
X441750Y1100000D02*
Y1150000D01*
X1750000Y1150000D02*
X1750000Y767500D01*
X1700000D02*
X1750000D01*
X1700000Y709250D02*
X1750000Y709250D01*
X1316500Y1150000D02*
X1750000Y1150000D01*
X1852150Y-152000D02*
X1852150Y1252000D01*
X-50000Y-50000D02*
X1750000Y-50000D01*
X1700000Y340750D02*
X1750000Y340750D01*
X1700000Y282500D02*
X1750000D01*
X1750000Y-50000D02*
X1750000Y282500D01*
X1750000Y709250D02*
X1750000Y340750D01*
X-152150Y-152000D02*
X1852150Y-152000D01*
X-50000Y340750D02*
X-50000Y709250D01*
X-50000Y282500D02*
X-50000Y-50000D01*
X-50000Y282500D02*
X0D01*
X-50000Y340750D02*
X0Y340750D01*
X-152150Y1252000D02*
X1852150Y1252000D01*
X-152150Y1252000D02*
X-152150Y-152000D01*
X-50000Y1150000D02*
X383500D01*
X-50000Y709250D02*
X0Y709250D01*
X-50000Y767500D02*
X0D01*
X-50000D02*
X-50000Y1150000D01*
D19*
X43233Y584983D02*
G03*
X28233Y599983I-15000J0D01*
G01*
Y569983D02*
G03*
X43233Y584983I0J15000D01*
G01*
X16742Y569983D02*
G03*
X0Y553242I0J-16742D01*
G01*
Y616725D02*
G03*
X16742Y599983I16742J0D01*
G01*
X1700000Y1074600D02*
G03*
X1674600Y1100000I-25400J0D01*
G01*
X1674600Y0D02*
G03*
X1700000Y25400I0J25400D01*
G01*
X25400Y1100000D02*
G03*
X0Y1074600I0J-25400D01*
G01*
X0Y25400D02*
G03*
X25400Y0I25400J0D01*
G01*
X0Y550000D02*
Y553242D01*
Y340750D02*
Y550000D01*
Y616725D02*
Y709250D01*
X16742Y569983D02*
X28233D01*
X16742Y599983D02*
X28233D01*
X25400Y1100000D02*
X1674600D01*
X0Y282500D02*
Y340750D01*
X1700000Y282500D02*
Y340750D01*
X1700000Y709250D02*
Y767500D01*
X0Y709250D02*
Y767500D01*
X0D02*
Y1074600D01*
X1700000Y709250D02*
X1700000Y340750D01*
X1700000Y1074600D02*
X1700000Y767500D01*
X1700000Y25400D02*
Y282500D01*
X879125Y1100000D02*
X1258250Y1100000D01*
X1316500Y1100000D02*
X1674600D01*
X441750Y1100000D02*
X820875D01*
X25400Y1100000D02*
X383500D01*
X879125Y1100000D02*
Y1100000D01*
X441750Y1100000D02*
Y1100000D01*
X25400Y0D02*
X1674600D01*
X0Y25400D02*
Y282500D01*
M02*
