G04*
G04 #@! TF.GenerationSoftware,Altium Limited,Altium Designer,19.1.6 (110)*
G04*
G04 Layer_Color=8388736*
%FSLAX44Y44*%
%MOMM*%
G71*
G01*
G75*
%ADD38C,1.6000*%
%ADD39R,0.6000X2.0000*%
%ADD53R,0.7000X0.2000*%
%ADD54R,2.3000X3.2000*%
%ADD109R,1.3000X1.3000*%
%ADD110R,2.2500X1.3000*%
%ADD111R,1.1000X1.6500*%
%ADD112R,1.7000X1.3000*%
%ADD113R,0.9000X3.1000*%
G04:AMPARAMS|DCode=114|XSize=0.7mm|YSize=0.7mm|CornerRadius=0.11mm|HoleSize=0mm|Usage=FLASHONLY|Rotation=180.000|XOffset=0mm|YOffset=0mm|HoleType=Round|Shape=RoundedRectangle|*
%AMROUNDEDRECTD114*
21,1,0.7000,0.4800,0,0,180.0*
21,1,0.4800,0.7000,0,0,180.0*
1,1,0.2200,-0.2400,0.2400*
1,1,0.2200,0.2400,0.2400*
1,1,0.2200,0.2400,-0.2400*
1,1,0.2200,-0.2400,-0.2400*
%
%ADD114ROUNDEDRECTD114*%
%ADD115R,3.9000X2.9000*%
%ADD116R,4.1000X2.9000*%
G04:AMPARAMS|DCode=117|XSize=0.8mm|YSize=0.5mm|CornerRadius=0.1mm|HoleSize=0mm|Usage=FLASHONLY|Rotation=90.000|XOffset=0mm|YOffset=0mm|HoleType=Round|Shape=RoundedRectangle|*
%AMROUNDEDRECTD117*
21,1,0.8000,0.3000,0,0,90.0*
21,1,0.6000,0.5000,0,0,90.0*
1,1,0.2000,0.1500,0.3000*
1,1,0.2000,0.1500,-0.3000*
1,1,0.2000,-0.1500,-0.3000*
1,1,0.2000,-0.1500,0.3000*
%
%ADD117ROUNDEDRECTD117*%
G04:AMPARAMS|DCode=118|XSize=0.6mm|YSize=0.7mm|CornerRadius=0.1mm|HoleSize=0mm|Usage=FLASHONLY|Rotation=270.000|XOffset=0mm|YOffset=0mm|HoleType=Round|Shape=RoundedRectangle|*
%AMROUNDEDRECTD118*
21,1,0.6000,0.5000,0,0,270.0*
21,1,0.4000,0.7000,0,0,270.0*
1,1,0.2000,-0.2500,-0.2000*
1,1,0.2000,-0.2500,0.2000*
1,1,0.2000,0.2500,0.2000*
1,1,0.2000,0.2500,-0.2000*
%
%ADD118ROUNDEDRECTD118*%
%ADD119R,0.4000X0.4100*%
G04:AMPARAMS|DCode=120|XSize=0.6mm|YSize=0.7mm|CornerRadius=0.1mm|HoleSize=0mm|Usage=FLASHONLY|Rotation=0.000|XOffset=0mm|YOffset=0mm|HoleType=Round|Shape=RoundedRectangle|*
%AMROUNDEDRECTD120*
21,1,0.6000,0.5000,0,0,0.0*
21,1,0.4000,0.7000,0,0,0.0*
1,1,0.2000,0.2000,-0.2500*
1,1,0.2000,-0.2000,-0.2500*
1,1,0.2000,-0.2000,0.2500*
1,1,0.2000,0.2000,0.2500*
%
%ADD120ROUNDEDRECTD120*%
G04:AMPARAMS|DCode=121|XSize=0.7mm|YSize=0.7mm|CornerRadius=0.11mm|HoleSize=0mm|Usage=FLASHONLY|Rotation=90.000|XOffset=0mm|YOffset=0mm|HoleType=Round|Shape=RoundedRectangle|*
%AMROUNDEDRECTD121*
21,1,0.7000,0.4800,0,0,90.0*
21,1,0.4800,0.7000,0,0,90.0*
1,1,0.2200,0.2400,0.2400*
1,1,0.2200,0.2400,-0.2400*
1,1,0.2200,-0.2400,-0.2400*
1,1,0.2200,-0.2400,0.2400*
%
%ADD121ROUNDEDRECTD121*%
G04:AMPARAMS|DCode=122|XSize=1.1mm|YSize=1mm|CornerRadius=0.1625mm|HoleSize=0mm|Usage=FLASHONLY|Rotation=270.000|XOffset=0mm|YOffset=0mm|HoleType=Round|Shape=RoundedRectangle|*
%AMROUNDEDRECTD122*
21,1,1.1000,0.6750,0,0,270.0*
21,1,0.7750,1.0000,0,0,270.0*
1,1,0.3250,-0.3375,-0.3875*
1,1,0.3250,-0.3375,0.3875*
1,1,0.3250,0.3375,0.3875*
1,1,0.3250,0.3375,-0.3875*
%
%ADD122ROUNDEDRECTD122*%
%ADD123C,1.7000*%
%ADD124R,0.7000X2.1000*%
%ADD125R,0.8000X0.2800*%
%ADD126R,0.2800X0.8900*%
%ADD127R,0.2800X0.9900*%
%ADD128R,1.5000X0.9000*%
G04:AMPARAMS|DCode=129|XSize=1.1mm|YSize=1mm|CornerRadius=0.1625mm|HoleSize=0mm|Usage=FLASHONLY|Rotation=180.000|XOffset=0mm|YOffset=0mm|HoleType=Round|Shape=RoundedRectangle|*
%AMROUNDEDRECTD129*
21,1,1.1000,0.6750,0,0,180.0*
21,1,0.7750,1.0000,0,0,180.0*
1,1,0.3250,-0.3875,0.3375*
1,1,0.3250,0.3875,0.3375*
1,1,0.3250,0.3875,-0.3375*
1,1,0.3250,-0.3875,-0.3375*
%
%ADD129ROUNDEDRECTD129*%
G04:AMPARAMS|DCode=130|XSize=1.6mm|YSize=1.6mm|CornerRadius=0.125mm|HoleSize=0mm|Usage=FLASHONLY|Rotation=180.000|XOffset=0mm|YOffset=0mm|HoleType=Round|Shape=RoundedRectangle|*
%AMROUNDEDRECTD130*
21,1,1.6000,1.3500,0,0,180.0*
21,1,1.3500,1.6000,0,0,180.0*
1,1,0.2500,-0.6750,0.6750*
1,1,0.2500,0.6750,0.6750*
1,1,0.2500,0.6750,-0.6750*
1,1,0.2500,-0.6750,-0.6750*
%
%ADD130ROUNDEDRECTD130*%
G04:AMPARAMS|DCode=131|XSize=0.4mm|YSize=0.9mm|CornerRadius=0.125mm|HoleSize=0mm|Usage=FLASHONLY|Rotation=180.000|XOffset=0mm|YOffset=0mm|HoleType=Round|Shape=RoundedRectangle|*
%AMROUNDEDRECTD131*
21,1,0.4000,0.6500,0,0,180.0*
21,1,0.1500,0.9000,0,0,180.0*
1,1,0.2500,-0.0750,0.3250*
1,1,0.2500,0.0750,0.3250*
1,1,0.2500,0.0750,-0.3250*
1,1,0.2500,-0.0750,-0.3250*
%
%ADD131ROUNDEDRECTD131*%
G04:AMPARAMS|DCode=132|XSize=0.4mm|YSize=0.9mm|CornerRadius=0.125mm|HoleSize=0mm|Usage=FLASHONLY|Rotation=270.000|XOffset=0mm|YOffset=0mm|HoleType=Round|Shape=RoundedRectangle|*
%AMROUNDEDRECTD132*
21,1,0.4000,0.6500,0,0,270.0*
21,1,0.1500,0.9000,0,0,270.0*
1,1,0.2500,-0.3250,-0.0750*
1,1,0.2500,-0.3250,0.0750*
1,1,0.2500,0.3250,0.0750*
1,1,0.2500,0.3250,-0.0750*
%
%ADD132ROUNDEDRECTD132*%
%ADD133R,0.8500X1.6000*%
%ADD134R,1.0000X0.7000*%
%ADD135R,1.6000X0.8500*%
%ADD136R,0.7000X1.0000*%
G04:AMPARAMS|DCode=137|XSize=1.5mm|YSize=1.1mm|CornerRadius=0.175mm|HoleSize=0mm|Usage=FLASHONLY|Rotation=0.000|XOffset=0mm|YOffset=0mm|HoleType=Round|Shape=RoundedRectangle|*
%AMROUNDEDRECTD137*
21,1,1.5000,0.7500,0,0,0.0*
21,1,1.1500,1.1000,0,0,0.0*
1,1,0.3500,0.5750,-0.3750*
1,1,0.3500,-0.5750,-0.3750*
1,1,0.3500,-0.5750,0.3750*
1,1,0.3500,0.5750,0.3750*
%
%ADD137ROUNDEDRECTD137*%
%ADD138R,4.2500X2.2500*%
%ADD139C,3.0000*%
%ADD140R,1.7019X1.2013*%
%ADD141R,1.2000X1.7000*%
%ADD142R,1.6006X1.0004*%
%ADD143R,1.7011X1.0006*%
%ADD144R,1.7018X1.7018*%
%ADD145R,1.7009X1.7009*%
%ADD146R,1.9526X0.9011*%
%ADD147R,1.9518X0.9007*%
%ADD148R,1.9504X0.9002*%
%ADD149R,1.9525X0.9010*%
%ADD150R,1.9522X0.9009*%
%ADD151R,1.9516X0.9006*%
%ADD152R,1.9530X0.9012*%
%ADD153R,1.9504X0.9002*%
%ADD154R,2.2000X0.8000*%
%ADD155R,1.3400X1.0000*%
%ADD156R,1.2400X0.9000*%
G04:AMPARAMS|DCode=157|XSize=0.95mm|YSize=3.65mm|CornerRadius=0.2625mm|HoleSize=0mm|Usage=FLASHONLY|Rotation=0.000|XOffset=0mm|YOffset=0mm|HoleType=Round|Shape=RoundedRectangle|*
%AMROUNDEDRECTD157*
21,1,0.9500,3.1250,0,0,0.0*
21,1,0.4250,3.6500,0,0,0.0*
1,1,0.5250,0.2125,-1.5625*
1,1,0.5250,-0.2125,-1.5625*
1,1,0.5250,-0.2125,1.5625*
1,1,0.5250,0.2125,1.5625*
%
%ADD157ROUNDEDRECTD157*%
G04:AMPARAMS|DCode=158|XSize=0.95mm|YSize=2.75mm|CornerRadius=0.2625mm|HoleSize=0mm|Usage=FLASHONLY|Rotation=0.000|XOffset=0mm|YOffset=0mm|HoleType=Round|Shape=RoundedRectangle|*
%AMROUNDEDRECTD158*
21,1,0.9500,2.2250,0,0,0.0*
21,1,0.4250,2.7500,0,0,0.0*
1,1,0.5250,0.2125,-1.1125*
1,1,0.5250,-0.2125,-1.1125*
1,1,0.5250,-0.2125,1.1125*
1,1,0.5250,0.2125,1.1125*
%
%ADD158ROUNDEDRECTD158*%
%ADD159R,3.8000X1.7000*%
%ADD160R,0.3000X1.1000*%
%ADD161R,0.4000X1.3000*%
G04:AMPARAMS|DCode=162|XSize=1.9mm|YSize=1.25mm|CornerRadius=0.1938mm|HoleSize=0mm|Usage=FLASHONLY|Rotation=180.000|XOffset=0mm|YOffset=0mm|HoleType=Round|Shape=RoundedRectangle|*
%AMROUNDEDRECTD162*
21,1,1.9000,0.8625,0,0,180.0*
21,1,1.5125,1.2500,0,0,180.0*
1,1,0.3875,-0.7563,0.4313*
1,1,0.3875,0.7563,0.4313*
1,1,0.3875,0.7563,-0.4313*
1,1,0.3875,-0.7563,-0.4313*
%
%ADD162ROUNDEDRECTD162*%
G04:AMPARAMS|DCode=163|XSize=3.4mm|YSize=1.7mm|CornerRadius=0.25mm|HoleSize=0mm|Usage=FLASHONLY|Rotation=180.000|XOffset=0mm|YOffset=0mm|HoleType=Round|Shape=RoundedRectangle|*
%AMROUNDEDRECTD163*
21,1,3.4000,1.2000,0,0,180.0*
21,1,2.9000,1.7000,0,0,180.0*
1,1,0.5000,-1.4500,0.6000*
1,1,0.5000,1.4500,0.6000*
1,1,0.5000,1.4500,-0.6000*
1,1,0.5000,-1.4500,-0.6000*
%
%ADD163ROUNDEDRECTD163*%
G04:AMPARAMS|DCode=164|XSize=6.8mm|YSize=6.8mm|CornerRadius=0.8875mm|HoleSize=0mm|Usage=FLASHONLY|Rotation=180.000|XOffset=0mm|YOffset=0mm|HoleType=Round|Shape=RoundedRectangle|*
%AMROUNDEDRECTD164*
21,1,6.8000,5.0250,0,0,180.0*
21,1,5.0250,6.8000,0,0,180.0*
1,1,1.7750,-2.5125,2.5125*
1,1,1.7750,2.5125,2.5125*
1,1,1.7750,2.5125,-2.5125*
1,1,1.7750,-2.5125,-2.5125*
%
%ADD164ROUNDEDRECTD164*%
%ADD165R,0.4100X0.4000*%
%ADD166R,1.0000X2.6500*%
%ADD167R,1.5000X2.6500*%
G04:AMPARAMS|DCode=168|XSize=0.35mm|YSize=1.1mm|CornerRadius=0.1125mm|HoleSize=0mm|Usage=FLASHONLY|Rotation=90.000|XOffset=0mm|YOffset=0mm|HoleType=Round|Shape=RoundedRectangle|*
%AMROUNDEDRECTD168*
21,1,0.3500,0.8750,0,0,90.0*
21,1,0.1250,1.1000,0,0,90.0*
1,1,0.2250,0.4375,0.0625*
1,1,0.2250,0.4375,-0.0625*
1,1,0.2250,-0.4375,-0.0625*
1,1,0.2250,-0.4375,0.0625*
%
%ADD168ROUNDEDRECTD168*%
G04:AMPARAMS|DCode=169|XSize=0.35mm|YSize=1.1mm|CornerRadius=0.1125mm|HoleSize=0mm|Usage=FLASHONLY|Rotation=180.000|XOffset=0mm|YOffset=0mm|HoleType=Round|Shape=RoundedRectangle|*
%AMROUNDEDRECTD169*
21,1,0.3500,0.8750,0,0,180.0*
21,1,0.1250,1.1000,0,0,180.0*
1,1,0.2250,-0.0625,0.4375*
1,1,0.2250,0.0625,0.4375*
1,1,0.2250,0.0625,-0.4375*
1,1,0.2250,-0.0625,-0.4375*
%
%ADD169ROUNDEDRECTD169*%
%ADD170R,0.4300X0.9500*%
%ADD171R,0.9500X0.4300*%
%ADD172R,2.5000X2.5000*%
G04:AMPARAMS|DCode=173|XSize=1.05mm|YSize=0.75mm|CornerRadius=0.2125mm|HoleSize=0mm|Usage=FLASHONLY|Rotation=180.000|XOffset=0mm|YOffset=0mm|HoleType=Round|Shape=RoundedRectangle|*
%AMROUNDEDRECTD173*
21,1,1.0500,0.3250,0,0,180.0*
21,1,0.6250,0.7500,0,0,180.0*
1,1,0.4250,-0.3125,0.1625*
1,1,0.4250,0.3125,0.1625*
1,1,0.4250,0.3125,-0.1625*
1,1,0.4250,-0.3125,-0.1625*
%
%ADD173ROUNDEDRECTD173*%
G04:AMPARAMS|DCode=174|XSize=1.05mm|YSize=1.1mm|CornerRadius=0.2875mm|HoleSize=0mm|Usage=FLASHONLY|Rotation=180.000|XOffset=0mm|YOffset=0mm|HoleType=Round|Shape=RoundedRectangle|*
%AMROUNDEDRECTD174*
21,1,1.0500,0.5250,0,0,180.0*
21,1,0.4750,1.1000,0,0,180.0*
1,1,0.5750,-0.2375,0.2625*
1,1,0.5750,0.2375,0.2625*
1,1,0.5750,0.2375,-0.2625*
1,1,0.5750,-0.2375,-0.2625*
%
%ADD174ROUNDEDRECTD174*%
%ADD175R,4.1000X5.1000*%
G04:AMPARAMS|DCode=176|XSize=0.9mm|YSize=0.9mm|CornerRadius=0.15mm|HoleSize=0mm|Usage=FLASHONLY|Rotation=90.000|XOffset=0mm|YOffset=0mm|HoleType=Round|Shape=RoundedRectangle|*
%AMROUNDEDRECTD176*
21,1,0.9000,0.6000,0,0,90.0*
21,1,0.6000,0.9000,0,0,90.0*
1,1,0.3000,0.3000,0.3000*
1,1,0.3000,0.3000,-0.3000*
1,1,0.3000,-0.3000,-0.3000*
1,1,0.3000,-0.3000,0.3000*
%
%ADD176ROUNDEDRECTD176*%
%ADD177R,3.4000X1.3700*%
%ADD178R,4.6000X2.4500*%
G04:AMPARAMS|DCode=179|XSize=3.1mm|YSize=1.3mm|CornerRadius=0.35mm|HoleSize=0mm|Usage=FLASHONLY|Rotation=90.000|XOffset=0mm|YOffset=0mm|HoleType=Round|Shape=RoundedRectangle|*
%AMROUNDEDRECTD179*
21,1,3.1000,0.6000,0,0,90.0*
21,1,2.4000,1.3000,0,0,90.0*
1,1,0.7000,0.3000,1.2000*
1,1,0.7000,0.3000,-1.2000*
1,1,0.7000,-0.3000,-1.2000*
1,1,0.7000,-0.3000,1.2000*
%
%ADD179ROUNDEDRECTD179*%
G04:AMPARAMS|DCode=180|XSize=3.6mm|YSize=1.3mm|CornerRadius=0.35mm|HoleSize=0mm|Usage=FLASHONLY|Rotation=90.000|XOffset=0mm|YOffset=0mm|HoleType=Round|Shape=RoundedRectangle|*
%AMROUNDEDRECTD180*
21,1,3.6000,0.6000,0,0,90.0*
21,1,2.9000,1.3000,0,0,90.0*
1,1,0.7000,0.3000,1.4500*
1,1,0.7000,0.3000,-1.4500*
1,1,0.7000,-0.3000,-1.4500*
1,1,0.7000,-0.3000,1.4500*
%
%ADD180ROUNDEDRECTD180*%
G04:AMPARAMS|DCode=181|XSize=3.6mm|YSize=1.3mm|CornerRadius=0.35mm|HoleSize=0mm|Usage=FLASHONLY|Rotation=0.000|XOffset=0mm|YOffset=0mm|HoleType=Round|Shape=RoundedRectangle|*
%AMROUNDEDRECTD181*
21,1,3.6000,0.6000,0,0,0.0*
21,1,2.9000,1.3000,0,0,0.0*
1,1,0.7000,1.4500,-0.3000*
1,1,0.7000,-1.4500,-0.3000*
1,1,0.7000,-1.4500,0.3000*
1,1,0.7000,1.4500,0.3000*
%
%ADD181ROUNDEDRECTD181*%
G04:AMPARAMS|DCode=182|XSize=3.1mm|YSize=1.3mm|CornerRadius=0.35mm|HoleSize=0mm|Usage=FLASHONLY|Rotation=0.000|XOffset=0mm|YOffset=0mm|HoleType=Round|Shape=RoundedRectangle|*
%AMROUNDEDRECTD182*
21,1,3.1000,0.6000,0,0,0.0*
21,1,2.4000,1.3000,0,0,0.0*
1,1,0.7000,1.2000,-0.3000*
1,1,0.7000,-1.2000,-0.3000*
1,1,0.7000,-1.2000,0.3000*
1,1,0.7000,1.2000,0.3000*
%
%ADD182ROUNDEDRECTD182*%
G04:AMPARAMS|DCode=183|XSize=5.1mm|YSize=1.3mm|CornerRadius=0.35mm|HoleSize=0mm|Usage=FLASHONLY|Rotation=270.000|XOffset=0mm|YOffset=0mm|HoleType=Round|Shape=RoundedRectangle|*
%AMROUNDEDRECTD183*
21,1,5.1000,0.6000,0,0,270.0*
21,1,4.4000,1.3000,0,0,270.0*
1,1,0.7000,-0.3000,-2.2000*
1,1,0.7000,-0.3000,2.2000*
1,1,0.7000,0.3000,2.2000*
1,1,0.7000,0.3000,-2.2000*
%
%ADD183ROUNDEDRECTD183*%
G04:AMPARAMS|DCode=184|XSize=5.1mm|YSize=1.3mm|CornerRadius=0.35mm|HoleSize=0mm|Usage=FLASHONLY|Rotation=0.000|XOffset=0mm|YOffset=0mm|HoleType=Round|Shape=RoundedRectangle|*
%AMROUNDEDRECTD184*
21,1,5.1000,0.6000,0,0,0.0*
21,1,4.4000,1.3000,0,0,0.0*
1,1,0.7000,2.2000,-0.3000*
1,1,0.7000,-2.2000,-0.3000*
1,1,0.7000,-2.2000,0.3000*
1,1,0.7000,2.2000,0.3000*
%
%ADD184ROUNDEDRECTD184*%
G04:AMPARAMS|DCode=185|XSize=2.6mm|YSize=2.1mm|CornerRadius=0.3mm|HoleSize=0mm|Usage=FLASHONLY|Rotation=90.000|XOffset=0mm|YOffset=0mm|HoleType=Round|Shape=RoundedRectangle|*
%AMROUNDEDRECTD185*
21,1,2.6000,1.5000,0,0,90.0*
21,1,2.0000,2.1000,0,0,90.0*
1,1,0.6000,0.7500,1.0000*
1,1,0.6000,0.7500,-1.0000*
1,1,0.6000,-0.7500,-1.0000*
1,1,0.6000,-0.7500,1.0000*
%
%ADD185ROUNDEDRECTD185*%
%ADD186C,2.0000*%
%ADD187R,3.6000X2.0000*%
G04:AMPARAMS|DCode=188|XSize=0.7mm|YSize=0.8mm|CornerRadius=0.125mm|HoleSize=0mm|Usage=FLASHONLY|Rotation=270.000|XOffset=0mm|YOffset=0mm|HoleType=Round|Shape=RoundedRectangle|*
%AMROUNDEDRECTD188*
21,1,0.7000,0.5500,0,0,270.0*
21,1,0.4500,0.8000,0,0,270.0*
1,1,0.2500,-0.2750,-0.2250*
1,1,0.2500,-0.2750,0.2250*
1,1,0.2500,0.2750,0.2250*
1,1,0.2500,0.2750,-0.2250*
%
%ADD188ROUNDEDRECTD188*%
%ADD189R,1.6500X1.1000*%
%ADD190R,1.3000X1.7000*%
%ADD191R,1.3000X1.3000*%
%ADD192R,1.3000X2.2500*%
G04:AMPARAMS|DCode=193|XSize=1.5mm|YSize=1.1mm|CornerRadius=0.175mm|HoleSize=0mm|Usage=FLASHONLY|Rotation=90.000|XOffset=0mm|YOffset=0mm|HoleType=Round|Shape=RoundedRectangle|*
%AMROUNDEDRECTD193*
21,1,1.5000,0.7500,0,0,90.0*
21,1,1.1500,1.1000,0,0,90.0*
1,1,0.3500,0.3750,0.5750*
1,1,0.3500,0.3750,-0.5750*
1,1,0.3500,-0.3750,-0.5750*
1,1,0.3500,-0.3750,0.5750*
%
%ADD193ROUNDEDRECTD193*%
%ADD194R,2.5000X2.5000*%
%ADD195C,2.7250*%
%ADD196O,3.5600X1.7600*%
%ADD197C,0.9000*%
%ADD198R,0.9000X0.9000*%
%ADD199C,2.2580*%
%ADD200C,1.2500*%
%ADD201C,1.5780*%
G04:AMPARAMS|DCode=202|XSize=1.624mm|YSize=1.624mm|CornerRadius=0.2405mm|HoleSize=0mm|Usage=FLASHONLY|Rotation=180.000|XOffset=0mm|YOffset=0mm|HoleType=Round|Shape=RoundedRectangle|*
%AMROUNDEDRECTD202*
21,1,1.6240,1.1430,0,0,180.0*
21,1,1.1430,1.6240,0,0,180.0*
1,1,0.4810,-0.5715,0.5715*
1,1,0.4810,0.5715,0.5715*
1,1,0.4810,0.5715,-0.5715*
1,1,0.4810,-0.5715,-0.5715*
%
%ADD202ROUNDEDRECTD202*%
%ADD203C,1.4000*%
%ADD204C,1.1000*%
G04:AMPARAMS|DCode=205|XSize=1.7mm|YSize=1.7mm|CornerRadius=0.45mm|HoleSize=0mm|Usage=FLASHONLY|Rotation=0.000|XOffset=0mm|YOffset=0mm|HoleType=Round|Shape=RoundedRectangle|*
%AMROUNDEDRECTD205*
21,1,1.7000,0.8000,0,0,0.0*
21,1,0.8000,1.7000,0,0,0.0*
1,1,0.9000,0.4000,-0.4000*
1,1,0.9000,-0.4000,-0.4000*
1,1,0.9000,-0.4000,0.4000*
1,1,0.9000,0.4000,0.4000*
%
%ADD205ROUNDEDRECTD205*%
%ADD206C,1.1886*%
%ADD207C,2.1000*%
%ADD208C,5.4000*%
G04:AMPARAMS|DCode=209|XSize=1.624mm|YSize=1.624mm|CornerRadius=0.2405mm|HoleSize=0mm|Usage=FLASHONLY|Rotation=90.000|XOffset=0mm|YOffset=0mm|HoleType=Round|Shape=RoundedRectangle|*
%AMROUNDEDRECTD209*
21,1,1.6240,1.1430,0,0,90.0*
21,1,1.1430,1.6240,0,0,90.0*
1,1,0.4810,0.5715,0.5715*
1,1,0.4810,0.5715,-0.5715*
1,1,0.4810,-0.5715,-0.5715*
1,1,0.4810,-0.5715,0.5715*
%
%ADD209ROUNDEDRECTD209*%
%ADD210C,1.7800*%
%ADD211C,1.6080*%
%ADD212C,1.5080*%
%ADD213R,1.6080X1.6080*%
%ADD214C,2.6500*%
%ADD215C,3.4500*%
%ADD216C,1.6500*%
%ADD217O,2.1000X5.1000*%
%ADD218O,5.1000X2.3000*%
%ADD219O,5.1000X2.1000*%
%ADD220C,0.7500*%
%ADD221C,1.3000*%
%ADD222C,5.1000*%
%ADD223O,1.1000X1.7000*%
%ADD224C,0.7300*%
%ADD225C,2.0500*%
G04:AMPARAMS|DCode=226|XSize=2.1mm|YSize=2.1mm|CornerRadius=0.55mm|HoleSize=0mm|Usage=FLASHONLY|Rotation=90.000|XOffset=0mm|YOffset=0mm|HoleType=Round|Shape=RoundedRectangle|*
%AMROUNDEDRECTD226*
21,1,2.1000,1.0000,0,0,90.0*
21,1,1.0000,2.1000,0,0,90.0*
1,1,1.1000,0.5000,0.5000*
1,1,1.1000,0.5000,-0.5000*
1,1,1.1000,-0.5000,-0.5000*
1,1,1.1000,-0.5000,0.5000*
%
%ADD226ROUNDEDRECTD226*%
G04:AMPARAMS|DCode=227|XSize=1.7mm|YSize=1.7mm|CornerRadius=0.45mm|HoleSize=0mm|Usage=FLASHONLY|Rotation=90.000|XOffset=0mm|YOffset=0mm|HoleType=Round|Shape=RoundedRectangle|*
%AMROUNDEDRECTD227*
21,1,1.7000,0.8000,0,0,90.0*
21,1,0.8000,1.7000,0,0,90.0*
1,1,0.9000,0.4000,0.4000*
1,1,0.9000,0.4000,-0.4000*
1,1,0.9000,-0.4000,-0.4000*
1,1,0.9000,-0.4000,0.4000*
%
%ADD227ROUNDEDRECTD227*%
%ADD228C,3.1000*%
%ADD229C,0.3500*%
G04:AMPARAMS|DCode=230|XSize=2mm|YSize=2mm|CornerRadius=0.525mm|HoleSize=0mm|Usage=FLASHONLY|Rotation=90.000|XOffset=0mm|YOffset=0mm|HoleType=Round|Shape=RoundedRectangle|*
%AMROUNDEDRECTD230*
21,1,2.0000,0.9500,0,0,90.0*
21,1,0.9500,2.0000,0,0,90.0*
1,1,1.0500,0.4750,0.4750*
1,1,1.0500,0.4750,-0.4750*
1,1,1.0500,-0.4750,-0.4750*
1,1,1.0500,-0.4750,0.4750*
%
%ADD230ROUNDEDRECTD230*%
%ADD231C,1.0000*%
G04:AMPARAMS|DCode=232|XSize=2.1mm|YSize=2.1mm|CornerRadius=0.55mm|HoleSize=0mm|Usage=FLASHONLY|Rotation=180.000|XOffset=0mm|YOffset=0mm|HoleType=Round|Shape=RoundedRectangle|*
%AMROUNDEDRECTD232*
21,1,2.1000,1.0000,0,0,180.0*
21,1,1.0000,2.1000,0,0,180.0*
1,1,1.1000,-0.5000,0.5000*
1,1,1.1000,0.5000,0.5000*
1,1,1.1000,0.5000,-0.5000*
1,1,1.1000,-0.5000,-0.5000*
%
%ADD232ROUNDEDRECTD232*%
G36*
X568000Y1028250D02*
Y1026200D01*
X565550Y1023750D01*
X544950D01*
X543250Y1025450D01*
Y1024250D01*
X535250D01*
Y1025450D01*
X533550Y1023750D01*
X512950D01*
X510500Y1026200D01*
Y1028250D01*
X516000Y1033750D01*
X530500D01*
X536000Y1028250D01*
Y1026250D01*
X542500D01*
Y1028250D01*
X548000Y1033750D01*
X562500D01*
X568000Y1028250D01*
D02*
G37*
G36*
X1589750Y997750D02*
X1581750D01*
Y1001750D01*
X1589750D01*
Y997750D01*
D02*
G37*
G36*
X1399750D02*
X1391750D01*
Y1001750D01*
X1399750D01*
Y997750D01*
D02*
G37*
G36*
X1209750Y997750D02*
X1201750Y997750D01*
Y1001750D01*
X1209750D01*
Y997750D01*
D02*
G37*
G36*
X1019750Y997750D02*
X1011750D01*
Y1001750D01*
X1019750D01*
Y997750D01*
D02*
G37*
G36*
X130250D02*
X126250D01*
Y1005750D01*
X130250D01*
Y997750D01*
D02*
G37*
G36*
X219250Y989000D02*
X216750D01*
Y991500D01*
X219250D01*
Y989000D01*
D02*
G37*
G36*
X197750D02*
X195250D01*
Y991500D01*
X197750D01*
Y989000D01*
D02*
G37*
G36*
X219250Y975000D02*
X216750D01*
Y977500D01*
X219250D01*
Y975000D01*
D02*
G37*
G36*
X197750D02*
X195250D01*
Y977500D01*
X197750D01*
Y975000D01*
D02*
G37*
G36*
X110180Y848500D02*
X97930D01*
Y855750D01*
X97430D01*
Y865750D01*
X110180D01*
X110180Y848500D01*
D02*
G37*
G36*
X1655650Y804750D02*
X1653150D01*
Y807250D01*
X1655650D01*
Y804750D01*
D02*
G37*
G36*
X1641650D02*
X1639150D01*
Y807250D01*
X1641650D01*
Y804750D01*
D02*
G37*
G36*
X1465650D02*
X1463150D01*
Y807250D01*
X1465650D01*
Y804750D01*
D02*
G37*
G36*
X1451650D02*
X1449150D01*
Y807250D01*
X1451650D01*
Y804750D01*
D02*
G37*
G36*
X1275650D02*
X1273150D01*
Y807250D01*
X1275650D01*
Y804750D01*
D02*
G37*
G36*
X1261650D02*
X1259150D01*
Y807250D01*
X1261650D01*
Y804750D01*
D02*
G37*
G36*
X1085650D02*
X1083150D01*
Y807250D01*
X1085650D01*
Y804750D01*
D02*
G37*
G36*
X1071650D02*
X1069150D01*
Y807250D01*
X1071650D01*
Y804750D01*
D02*
G37*
G36*
X1655650Y783250D02*
X1653150D01*
Y785750D01*
X1655650D01*
Y783250D01*
D02*
G37*
G36*
X1465650D02*
X1463150D01*
Y785750D01*
X1465650D01*
Y783250D01*
D02*
G37*
G36*
X1275650D02*
X1273150D01*
Y785750D01*
X1275650D01*
Y783250D01*
D02*
G37*
G36*
X1085650D02*
X1083150D01*
Y785750D01*
X1085650D01*
Y783250D01*
D02*
G37*
G36*
X1641650Y783250D02*
X1639150D01*
Y785750D01*
X1641650D01*
Y783250D01*
D02*
G37*
G36*
X1451650D02*
X1449150D01*
Y785750D01*
X1451650D01*
Y783250D01*
D02*
G37*
G36*
X1261650D02*
X1259150D01*
Y785750D01*
X1261650D01*
Y783250D01*
D02*
G37*
G36*
X1071650D02*
X1069150D01*
Y785750D01*
X1071650D01*
Y783250D01*
D02*
G37*
G36*
X1355750Y746500D02*
X1353250D01*
Y749000D01*
X1355750D01*
Y746500D01*
D02*
G37*
G36*
X1334250D02*
X1331750D01*
Y749000D01*
X1334250D01*
Y746500D01*
D02*
G37*
G36*
X1317000Y739000D02*
X1313000D01*
Y747000D01*
X1317000D01*
Y739000D01*
D02*
G37*
G36*
X1355750Y732500D02*
X1353250D01*
Y735000D01*
X1355750D01*
Y732500D01*
D02*
G37*
G36*
X1334250D02*
X1331750D01*
Y735000D01*
X1334250D01*
Y732500D01*
D02*
G37*
G36*
X1536000Y360000D02*
X1533500D01*
Y362500D01*
X1536000D01*
Y360000D01*
D02*
G37*
G36*
X1514500D02*
X1512000D01*
Y362500D01*
X1514500D01*
Y360000D01*
D02*
G37*
G36*
X1536000Y346000D02*
X1533500D01*
Y348500D01*
X1536000D01*
Y346000D01*
D02*
G37*
G36*
X1514500D02*
X1512000D01*
Y348500D01*
X1514500D01*
Y346000D01*
D02*
G37*
G36*
X1407958Y175327D02*
X1409960Y174498D01*
X1411762Y173294D01*
X1413294Y171762D01*
X1414498Y169960D01*
X1415327Y167958D01*
X1415750Y165833D01*
Y164750D01*
Y163666D01*
X1415327Y161541D01*
X1414498Y159539D01*
X1413294Y157738D01*
X1411762Y156206D01*
X1409960Y155002D01*
X1407958Y154172D01*
X1405833Y153750D01*
X1404750D01*
Y164750D01*
X1404750Y153750D01*
X1404750Y153750D01*
X1403666D01*
X1401541Y154172D01*
X1399539Y155002D01*
X1397738Y156206D01*
X1396206Y157738D01*
X1395250Y159168D01*
X1394294Y157738D01*
X1392762Y156206D01*
X1390960Y155002D01*
X1388958Y154172D01*
X1386833Y153750D01*
X1384666D01*
X1382541Y154172D01*
X1380539Y155002D01*
X1378738Y156206D01*
X1377206Y157738D01*
X1376002Y159539D01*
X1375172Y161541D01*
X1374750Y163666D01*
Y164750D01*
Y165833D01*
X1375172Y167958D01*
X1376002Y169960D01*
X1377206Y171762D01*
X1378738Y173294D01*
X1380539Y174498D01*
X1382541Y175327D01*
X1384666Y175750D01*
X1386833D01*
X1388958Y175327D01*
X1390960Y174498D01*
X1392762Y173294D01*
X1394294Y171762D01*
X1395250Y170331D01*
X1396206Y171762D01*
X1397738Y173294D01*
X1399539Y174498D01*
X1401541Y175327D01*
X1403666Y175750D01*
X1405833D01*
X1407958Y175327D01*
D02*
G37*
G36*
X1536958D02*
X1538960Y174498D01*
X1540762Y173294D01*
X1542294Y171762D01*
X1543498Y169960D01*
X1544327Y167958D01*
X1544750Y165833D01*
Y164750D01*
Y163666D01*
X1544327Y161541D01*
X1543498Y159539D01*
X1542294Y157738D01*
X1540762Y156206D01*
X1538960Y155002D01*
X1536958Y154172D01*
X1534833Y153750D01*
X1532666D01*
X1530541Y154172D01*
X1528539Y155002D01*
X1526738Y156206D01*
X1525206Y157738D01*
X1524002Y159539D01*
X1523172Y161541D01*
X1522750Y163666D01*
Y164750D01*
Y165833D01*
X1523172Y167958D01*
X1524002Y169960D01*
X1525206Y171762D01*
X1526738Y173294D01*
X1528539Y174498D01*
X1530541Y175327D01*
X1532666Y175750D01*
X1534833D01*
X1536958Y175327D01*
D02*
G37*
G36*
X1259958D02*
X1261960Y174498D01*
X1263762Y173294D01*
X1265294Y171762D01*
X1266498Y169960D01*
X1267327Y167958D01*
X1267750Y165833D01*
Y164750D01*
Y163666D01*
X1267327Y161541D01*
X1266498Y159539D01*
X1265294Y157738D01*
X1263762Y156206D01*
X1261960Y155002D01*
X1259958Y154172D01*
X1257833Y153750D01*
X1256750D01*
Y164750D01*
X1256750Y153750D01*
X1256750Y153750D01*
X1255666D01*
X1253541Y154172D01*
X1251539Y155002D01*
X1249738Y156206D01*
X1248206Y157738D01*
X1247002Y159539D01*
X1246172Y161541D01*
X1245750Y163666D01*
Y164750D01*
Y165833D01*
X1246172Y167958D01*
X1247002Y169960D01*
X1248206Y171762D01*
X1249738Y173294D01*
X1251539Y174498D01*
X1253541Y175327D01*
X1255666Y175750D01*
X1257833D01*
X1259958Y175327D01*
D02*
G37*
G36*
X1112750Y103000D02*
X1110250D01*
Y105500D01*
X1112750D01*
Y103000D01*
D02*
G37*
G36*
X1091250D02*
X1088750D01*
Y105500D01*
X1091250D01*
Y103000D01*
D02*
G37*
G36*
X1112750Y89000D02*
X1110250D01*
Y91500D01*
X1112750D01*
Y89000D01*
D02*
G37*
G36*
X1091250D02*
X1088750D01*
Y91500D01*
X1091250D01*
Y89000D01*
D02*
G37*
G36*
X953314Y63602D02*
X955315Y62773D01*
X957117Y61569D01*
X958649Y60037D01*
X959853Y58236D01*
X960682Y56234D01*
X961105Y54108D01*
X961105Y53025D01*
X961105Y51942D01*
X960682Y49816D01*
X959853Y47814D01*
X958649Y46013D01*
X957117Y44481D01*
X955315Y43277D01*
X953314Y42448D01*
X951188Y42025D01*
X950105Y42025D01*
Y53025D01*
X950105Y42025D01*
X950105D01*
X949022Y42025D01*
X946896Y42448D01*
X944894Y43277D01*
X943093Y44481D01*
X941561Y46013D01*
X940357Y47814D01*
X939528Y49816D01*
X939105Y51942D01*
Y53025D01*
X939105Y54108D01*
X939528Y56234D01*
X940357Y58236D01*
X941561Y60037D01*
X943093Y61569D01*
X944894Y62773D01*
X946896Y63602D01*
X949022Y64025D01*
X950105Y64025D01*
X951188Y64025D01*
X953314Y63602D01*
D02*
G37*
G36*
X878314D02*
X880315Y62773D01*
X882117Y61569D01*
X883649Y60037D01*
X884853Y58236D01*
X885682Y56234D01*
X886105Y54108D01*
X886105Y53025D01*
X886105Y51942D01*
X885682Y49816D01*
X884853Y47814D01*
X883649Y46013D01*
X882117Y44481D01*
X880315Y43277D01*
X878314Y42448D01*
X876188Y42025D01*
X875105Y42025D01*
Y53025D01*
X875105Y42025D01*
X875105D01*
X874022Y42025D01*
X871896Y42448D01*
X869894Y43277D01*
X868093Y44481D01*
X866561Y46013D01*
X865357Y47814D01*
X864528Y49816D01*
X864105Y51942D01*
Y53025D01*
X864105Y54108D01*
X864528Y56234D01*
X865357Y58236D01*
X866561Y60037D01*
X868093Y61569D01*
X869894Y62773D01*
X871896Y63602D01*
X874022Y64025D01*
X875105Y64025D01*
X876188Y64025D01*
X878314Y63602D01*
D02*
G37*
G36*
X803314D02*
X805315Y62773D01*
X807117Y61569D01*
X808649Y60037D01*
X809853Y58236D01*
X810682Y56234D01*
X811105Y54108D01*
X811105Y53025D01*
X811105Y51942D01*
X810682Y49816D01*
X809853Y47814D01*
X808649Y46013D01*
X807117Y44481D01*
X805315Y43277D01*
X803314Y42448D01*
X801188Y42025D01*
X800105Y42025D01*
Y53025D01*
X800105Y42025D01*
X800105D01*
X799022Y42025D01*
X796896Y42448D01*
X794894Y43277D01*
X793093Y44481D01*
X791561Y46013D01*
X790357Y47814D01*
X789528Y49816D01*
X789105Y51942D01*
Y53025D01*
X789105Y54108D01*
X789528Y56234D01*
X790357Y58236D01*
X791561Y60037D01*
X793093Y61569D01*
X794894Y62773D01*
X796896Y63602D01*
X799022Y64025D01*
X800105Y64025D01*
X801188Y64025D01*
X803314Y63602D01*
D02*
G37*
G36*
X728314D02*
X730315Y62773D01*
X732117Y61569D01*
X733649Y60037D01*
X734853Y58236D01*
X735682Y56234D01*
X736105Y54108D01*
X736105Y53025D01*
X736105Y51942D01*
X735682Y49816D01*
X734853Y47814D01*
X733649Y46013D01*
X732117Y44481D01*
X730315Y43277D01*
X728314Y42448D01*
X726188Y42025D01*
X725105Y42025D01*
Y53025D01*
X725105Y42025D01*
X725105D01*
X724022Y42025D01*
X721896Y42448D01*
X719894Y43277D01*
X718093Y44481D01*
X716561Y46013D01*
X715357Y47814D01*
X714528Y49816D01*
X714105Y51942D01*
Y53025D01*
X714105Y54108D01*
X714528Y56234D01*
X715357Y58236D01*
X716561Y60037D01*
X718093Y61569D01*
X719894Y62773D01*
X721896Y63602D01*
X724022Y64025D01*
X725105Y64025D01*
X726188Y64025D01*
X728314Y63602D01*
D02*
G37*
G36*
X653314D02*
X655315Y62773D01*
X657117Y61569D01*
X658649Y60037D01*
X659853Y58236D01*
X660682Y56234D01*
X661105Y54108D01*
X661105Y53025D01*
X661105Y51942D01*
X660682Y49816D01*
X659853Y47814D01*
X658649Y46013D01*
X657117Y44481D01*
X655315Y43277D01*
X653314Y42448D01*
X651188Y42025D01*
X650105Y42025D01*
Y53025D01*
X650105Y42025D01*
X650105D01*
X649022Y42025D01*
X646896Y42448D01*
X644894Y43277D01*
X643093Y44481D01*
X641561Y46013D01*
X640357Y47814D01*
X639528Y49816D01*
X639105Y51942D01*
Y53025D01*
X639105Y54108D01*
X639528Y56234D01*
X640357Y58236D01*
X641561Y60037D01*
X643093Y61569D01*
X644894Y62773D01*
X646896Y63602D01*
X649022Y64025D01*
X650105Y64025D01*
X651188Y64025D01*
X653314Y63602D01*
D02*
G37*
G36*
X1028314Y63577D02*
X1030315Y62748D01*
X1032117Y61544D01*
X1033649Y60012D01*
X1034853Y58211D01*
X1035682Y56209D01*
X1036105Y54083D01*
X1036105Y53000D01*
X1036105Y51917D01*
X1035682Y49791D01*
X1034853Y47790D01*
X1033649Y45988D01*
X1032117Y44456D01*
X1030315Y43252D01*
X1028314Y42423D01*
X1026188Y42000D01*
X1025105Y42000D01*
Y53000D01*
X1025105Y42000D01*
X1025105D01*
X1024022Y42000D01*
X1021896Y42423D01*
X1019894Y43252D01*
X1018093Y44456D01*
X1016561Y45988D01*
X1015357Y47790D01*
X1014528Y49791D01*
X1014105Y51917D01*
Y53000D01*
X1014105Y54083D01*
X1014528Y56209D01*
X1015357Y58211D01*
X1016561Y60012D01*
X1018093Y61544D01*
X1019894Y62748D01*
X1021896Y63577D01*
X1024022Y64000D01*
X1025105Y64000D01*
X1026188Y64000D01*
X1028314Y63577D01*
D02*
G37*
G36*
X978314Y63602D02*
X980315Y62773D01*
X982117Y61569D01*
X983649Y60037D01*
X984853Y58236D01*
X985682Y56234D01*
X986105Y54108D01*
Y53025D01*
Y51942D01*
X985682Y49816D01*
X984853Y47814D01*
X983649Y46013D01*
X982117Y44481D01*
X980315Y43277D01*
X978314Y42448D01*
X976188Y42025D01*
X975105D01*
Y53025D01*
X975105Y42025D01*
X975105Y42025D01*
X974022D01*
X971896Y42448D01*
X969894Y43277D01*
X968093Y44481D01*
X966561Y46013D01*
X965357Y47814D01*
X964528Y49816D01*
X964105Y51942D01*
Y53025D01*
Y54108D01*
X964528Y56234D01*
X965357Y58236D01*
X966561Y60037D01*
X968093Y61569D01*
X969894Y62773D01*
X971896Y63602D01*
X974022Y64025D01*
X976188D01*
X978314Y63602D01*
D02*
G37*
G36*
X903314D02*
X905315Y62773D01*
X907117Y61569D01*
X908649Y60037D01*
X909853Y58236D01*
X910682Y56234D01*
X911105Y54108D01*
Y53025D01*
Y51942D01*
X910682Y49816D01*
X909853Y47814D01*
X908649Y46013D01*
X907117Y44481D01*
X905315Y43277D01*
X903314Y42448D01*
X901188Y42025D01*
X900105D01*
Y53025D01*
X900105Y42025D01*
X900105Y42025D01*
X899022D01*
X896896Y42448D01*
X894894Y43277D01*
X893093Y44481D01*
X891561Y46013D01*
X890357Y47814D01*
X889528Y49816D01*
X889105Y51942D01*
Y53025D01*
Y54108D01*
X889528Y56234D01*
X890357Y58236D01*
X891561Y60037D01*
X893093Y61569D01*
X894894Y62773D01*
X896896Y63602D01*
X899022Y64025D01*
X901188D01*
X903314Y63602D01*
D02*
G37*
G36*
X828314D02*
X830315Y62773D01*
X832117Y61569D01*
X833649Y60037D01*
X834853Y58236D01*
X835682Y56234D01*
X836105Y54108D01*
Y53025D01*
Y51942D01*
X835682Y49816D01*
X834853Y47814D01*
X833649Y46013D01*
X832117Y44481D01*
X830315Y43277D01*
X828314Y42448D01*
X826188Y42025D01*
X825105D01*
Y53025D01*
X825105Y42025D01*
X825105Y42025D01*
X824022D01*
X821896Y42448D01*
X819894Y43277D01*
X818093Y44481D01*
X816561Y46013D01*
X815357Y47814D01*
X814528Y49816D01*
X814105Y51942D01*
Y53025D01*
Y54108D01*
X814528Y56234D01*
X815357Y58236D01*
X816561Y60037D01*
X818093Y61569D01*
X819894Y62773D01*
X821896Y63602D01*
X824022Y64025D01*
X826188D01*
X828314Y63602D01*
D02*
G37*
G36*
X753314D02*
X755315Y62773D01*
X757117Y61569D01*
X758649Y60037D01*
X759853Y58236D01*
X760682Y56234D01*
X761105Y54108D01*
Y53025D01*
Y51942D01*
X760682Y49816D01*
X759853Y47814D01*
X758649Y46013D01*
X757117Y44481D01*
X755315Y43277D01*
X753314Y42448D01*
X751188Y42025D01*
X750105D01*
Y53025D01*
X750105Y42025D01*
X750105Y42025D01*
X749022D01*
X746896Y42448D01*
X744894Y43277D01*
X743093Y44481D01*
X741561Y46013D01*
X740357Y47814D01*
X739528Y49816D01*
X739105Y51942D01*
Y53025D01*
Y54108D01*
X739528Y56234D01*
X740357Y58236D01*
X741561Y60037D01*
X743093Y61569D01*
X744894Y62773D01*
X746896Y63602D01*
X749022Y64025D01*
X751188D01*
X753314Y63602D01*
D02*
G37*
G36*
X678314D02*
X680315Y62773D01*
X682117Y61569D01*
X683649Y60037D01*
X684853Y58236D01*
X685682Y56234D01*
X686105Y54108D01*
Y53025D01*
Y51942D01*
X685682Y49816D01*
X684853Y47814D01*
X683649Y46013D01*
X682117Y44481D01*
X680315Y43277D01*
X678314Y42448D01*
X676188Y42025D01*
X675105D01*
Y53025D01*
X675105Y42025D01*
X675105Y42025D01*
X674022D01*
X671896Y42448D01*
X669894Y43277D01*
X668093Y44481D01*
X666561Y46013D01*
X665357Y47814D01*
X664528Y49816D01*
X664105Y51942D01*
Y53025D01*
Y54108D01*
X664528Y56234D01*
X665357Y58236D01*
X666561Y60037D01*
X668093Y61569D01*
X669894Y62773D01*
X671896Y63602D01*
X674022Y64025D01*
X676188D01*
X678314Y63602D01*
D02*
G37*
G36*
X1053314Y63577D02*
X1055315Y62748D01*
X1057117Y61544D01*
X1058649Y60012D01*
X1059853Y58211D01*
X1060682Y56209D01*
X1061105Y54083D01*
Y53000D01*
Y51917D01*
X1060682Y49791D01*
X1059853Y47790D01*
X1058649Y45988D01*
X1057117Y44456D01*
X1055315Y43252D01*
X1053314Y42423D01*
X1051188Y42000D01*
X1050105D01*
Y53000D01*
X1050105Y42000D01*
X1050105Y42000D01*
X1049022D01*
X1046896Y42423D01*
X1044894Y43252D01*
X1043093Y44456D01*
X1041561Y45988D01*
X1040357Y47790D01*
X1039528Y49791D01*
X1039105Y51917D01*
Y53000D01*
Y54083D01*
X1039528Y56209D01*
X1040357Y58211D01*
X1041561Y60012D01*
X1043093Y61544D01*
X1044894Y62748D01*
X1046896Y63577D01*
X1049022Y64000D01*
X1051188D01*
X1053314Y63577D01*
D02*
G37*
G36*
X1536958Y26327D02*
X1538960Y25498D01*
X1540762Y24294D01*
X1542294Y22762D01*
X1543498Y20960D01*
X1544327Y18958D01*
X1544750Y16833D01*
Y15750D01*
Y14666D01*
X1544327Y12541D01*
X1543498Y10539D01*
X1542294Y8738D01*
X1540762Y7206D01*
X1538960Y6002D01*
X1536958Y5173D01*
X1534833Y4750D01*
X1532666D01*
X1530541Y5173D01*
X1528539Y6002D01*
X1526738Y7206D01*
X1525206Y8738D01*
X1524002Y10539D01*
X1523172Y12541D01*
X1522750Y14666D01*
Y15750D01*
Y16833D01*
X1523172Y18958D01*
X1524002Y20960D01*
X1525206Y22762D01*
X1526738Y24294D01*
X1528539Y25498D01*
X1530541Y26327D01*
X1532666Y26750D01*
X1534833D01*
X1536958Y26327D01*
D02*
G37*
G36*
X1388958D02*
X1390960Y25498D01*
X1392762Y24294D01*
X1394294Y22762D01*
X1395250Y21332D01*
X1396205Y22762D01*
X1397738Y24294D01*
X1399539Y25498D01*
X1401541Y26327D01*
X1403666Y26750D01*
X1405833D01*
X1407958Y26327D01*
X1409960Y25498D01*
X1411762Y24294D01*
X1413294Y22762D01*
X1414498Y20960D01*
X1415327Y18958D01*
X1415750Y16833D01*
Y15750D01*
Y14666D01*
X1415327Y12541D01*
X1414498Y10539D01*
X1413294Y8738D01*
X1411762Y7206D01*
X1409960Y6002D01*
X1407958Y5173D01*
X1405833Y4750D01*
X1403666D01*
X1401541Y5173D01*
X1399539Y6002D01*
X1397738Y7206D01*
X1396205Y8738D01*
X1395250Y10168D01*
X1394294Y8738D01*
X1392762Y7206D01*
X1390960Y6002D01*
X1388958Y5173D01*
X1386833Y4750D01*
X1384666D01*
X1382541Y5173D01*
X1380539Y6002D01*
X1378738Y7206D01*
X1377206Y8738D01*
X1376002Y10539D01*
X1375172Y12541D01*
X1374750Y14666D01*
Y15750D01*
Y16833D01*
X1375172Y18958D01*
X1376002Y20960D01*
X1377206Y22762D01*
X1378738Y24294D01*
X1380539Y25498D01*
X1382541Y26327D01*
X1384666Y26750D01*
X1386833D01*
X1388958Y26327D01*
D02*
G37*
G36*
X1259958Y26327D02*
X1261960Y25498D01*
X1263762Y24294D01*
X1265294Y22762D01*
X1266498Y20960D01*
X1267327Y18958D01*
X1267750Y16833D01*
Y15750D01*
Y14666D01*
X1267327Y12541D01*
X1266498Y10539D01*
X1265294Y8738D01*
X1263762Y7206D01*
X1261960Y6002D01*
X1259958Y5173D01*
X1257833Y4750D01*
X1255666D01*
X1253541Y5173D01*
X1251539Y6002D01*
X1249738Y7206D01*
X1248205Y8738D01*
X1247002Y10539D01*
X1246172Y12541D01*
X1245750Y14666D01*
Y15750D01*
Y16833D01*
X1246172Y18958D01*
X1247002Y20960D01*
X1248205Y22762D01*
X1249738Y24294D01*
X1251539Y25498D01*
X1253541Y26327D01*
X1255666Y26750D01*
X1257833D01*
X1259958Y26327D01*
D02*
G37*
%LPC*%
G36*
X1396750Y15750D02*
Y15750D01*
X1404750D01*
X1396750Y15750D01*
D02*
G37*
G36*
X1245750D02*
X1245750Y15750D01*
X1256750D01*
X1245750Y15750D01*
D02*
G37*
%LPD*%
D38*
X356250Y513000D02*
D03*
X333750Y304250D02*
D03*
X598250Y1009750D02*
D03*
X615500Y922750D02*
D03*
X1385750Y164750D02*
D03*
X983250Y250000D02*
D03*
X1172500Y25300D02*
D03*
X1217500D02*
D03*
D39*
X1030250Y209000D02*
D03*
X1038250D02*
D03*
X1226250Y291000D02*
D03*
X1218250D02*
D03*
X1210250D02*
D03*
X1202250D02*
D03*
X1194250D02*
D03*
X1186250D02*
D03*
X1178250D02*
D03*
X1170250D02*
D03*
X1162250D02*
D03*
X1154250D02*
D03*
X1146250D02*
D03*
X1138250D02*
D03*
X1130250D02*
D03*
X1122250D02*
D03*
X1114250D02*
D03*
X1106250D02*
D03*
X1098250D02*
D03*
X1090250D02*
D03*
X1222250Y209000D02*
D03*
X1214250D02*
D03*
X1206250D02*
D03*
X1198250D02*
D03*
X1190250D02*
D03*
X1182250D02*
D03*
X1174250D02*
D03*
X1166250D02*
D03*
X1158250D02*
D03*
X1150250D02*
D03*
X1142250D02*
D03*
X1134250D02*
D03*
X1126250D02*
D03*
X1118250D02*
D03*
X1110250D02*
D03*
X1102250D02*
D03*
X1094250D02*
D03*
X1086250D02*
D03*
X1050250Y291000D02*
D03*
X1042250D02*
D03*
X1034250D02*
D03*
X1026250D02*
D03*
X1018250D02*
D03*
X1010250D02*
D03*
X1002250D02*
D03*
X994250D02*
D03*
X1046250Y209000D02*
D03*
X1022250D02*
D03*
X1014250D02*
D03*
X1006250D02*
D03*
X998250D02*
D03*
X990250D02*
D03*
D53*
X880850Y557750D02*
D03*
Y553750D02*
D03*
Y549750D02*
D03*
Y545750D02*
D03*
Y541750D02*
D03*
Y537750D02*
D03*
Y533750D02*
D03*
Y529750D02*
D03*
Y525750D02*
D03*
Y521750D02*
D03*
Y517750D02*
D03*
Y513750D02*
D03*
Y509750D02*
D03*
Y505750D02*
D03*
Y501750D02*
D03*
Y497750D02*
D03*
Y493750D02*
D03*
Y489750D02*
D03*
Y485750D02*
D03*
Y481750D02*
D03*
Y477750D02*
D03*
Y473750D02*
D03*
Y469750D02*
D03*
Y465750D02*
D03*
Y461750D02*
D03*
Y457750D02*
D03*
Y453750D02*
D03*
Y449750D02*
D03*
Y445750D02*
D03*
Y441750D02*
D03*
Y437750D02*
D03*
Y433750D02*
D03*
Y429750D02*
D03*
Y425750D02*
D03*
Y421750D02*
D03*
Y417750D02*
D03*
Y413750D02*
D03*
Y409750D02*
D03*
Y405750D02*
D03*
Y401750D02*
D03*
Y397750D02*
D03*
Y393750D02*
D03*
Y389750D02*
D03*
Y385750D02*
D03*
Y381750D02*
D03*
Y377750D02*
D03*
Y373750D02*
D03*
Y369750D02*
D03*
Y365750D02*
D03*
Y361750D02*
D03*
X911650Y557750D02*
D03*
Y553750D02*
D03*
Y549750D02*
D03*
Y545750D02*
D03*
Y541750D02*
D03*
Y537750D02*
D03*
Y533750D02*
D03*
Y529750D02*
D03*
Y525750D02*
D03*
Y521750D02*
D03*
Y517750D02*
D03*
Y513750D02*
D03*
Y509750D02*
D03*
Y505750D02*
D03*
Y501750D02*
D03*
Y497750D02*
D03*
Y493750D02*
D03*
Y489750D02*
D03*
Y485750D02*
D03*
Y481750D02*
D03*
Y477750D02*
D03*
Y473750D02*
D03*
Y469750D02*
D03*
Y465750D02*
D03*
Y461750D02*
D03*
Y457750D02*
D03*
Y453750D02*
D03*
Y449750D02*
D03*
Y445750D02*
D03*
Y441750D02*
D03*
Y437750D02*
D03*
Y433750D02*
D03*
Y429750D02*
D03*
Y425750D02*
D03*
Y421750D02*
D03*
Y417750D02*
D03*
Y413750D02*
D03*
Y409750D02*
D03*
Y405750D02*
D03*
Y401750D02*
D03*
Y397750D02*
D03*
Y393750D02*
D03*
Y389750D02*
D03*
Y385750D02*
D03*
Y381750D02*
D03*
Y377750D02*
D03*
Y373750D02*
D03*
Y369750D02*
D03*
Y365750D02*
D03*
Y361750D02*
D03*
X540850Y557750D02*
D03*
Y553750D02*
D03*
Y549750D02*
D03*
Y545750D02*
D03*
Y541750D02*
D03*
Y537750D02*
D03*
Y533750D02*
D03*
Y529750D02*
D03*
Y525750D02*
D03*
Y521750D02*
D03*
Y517750D02*
D03*
Y513750D02*
D03*
Y509750D02*
D03*
Y505750D02*
D03*
Y501750D02*
D03*
Y497750D02*
D03*
Y493750D02*
D03*
Y489750D02*
D03*
Y485750D02*
D03*
Y481750D02*
D03*
Y477750D02*
D03*
Y473750D02*
D03*
Y469750D02*
D03*
Y465750D02*
D03*
Y461750D02*
D03*
Y457750D02*
D03*
Y453750D02*
D03*
Y449750D02*
D03*
Y445750D02*
D03*
Y441750D02*
D03*
Y437750D02*
D03*
Y433750D02*
D03*
Y429750D02*
D03*
Y425750D02*
D03*
Y421750D02*
D03*
Y417750D02*
D03*
Y413750D02*
D03*
Y409750D02*
D03*
Y405750D02*
D03*
Y401750D02*
D03*
Y397750D02*
D03*
Y393750D02*
D03*
Y389750D02*
D03*
Y385750D02*
D03*
Y381750D02*
D03*
Y377750D02*
D03*
Y373750D02*
D03*
Y369750D02*
D03*
Y365750D02*
D03*
Y361750D02*
D03*
X571650Y557750D02*
D03*
Y553750D02*
D03*
Y549750D02*
D03*
Y545750D02*
D03*
Y541750D02*
D03*
Y537750D02*
D03*
Y533750D02*
D03*
Y529750D02*
D03*
Y525750D02*
D03*
Y521750D02*
D03*
Y517750D02*
D03*
Y513750D02*
D03*
Y509750D02*
D03*
Y505750D02*
D03*
Y501750D02*
D03*
Y497750D02*
D03*
Y493750D02*
D03*
Y489750D02*
D03*
Y485750D02*
D03*
Y481750D02*
D03*
Y477750D02*
D03*
Y473750D02*
D03*
Y469750D02*
D03*
Y465750D02*
D03*
Y461750D02*
D03*
Y457750D02*
D03*
Y453750D02*
D03*
Y449750D02*
D03*
Y445750D02*
D03*
Y441750D02*
D03*
Y437750D02*
D03*
Y433750D02*
D03*
Y429750D02*
D03*
Y425750D02*
D03*
Y421750D02*
D03*
Y417750D02*
D03*
Y413750D02*
D03*
Y409750D02*
D03*
Y405750D02*
D03*
Y401750D02*
D03*
Y397750D02*
D03*
Y393750D02*
D03*
Y389750D02*
D03*
Y385750D02*
D03*
Y381750D02*
D03*
Y377750D02*
D03*
Y373750D02*
D03*
Y369750D02*
D03*
Y365750D02*
D03*
Y361750D02*
D03*
D54*
X1254750Y215000D02*
D03*
X961750D02*
D03*
D109*
X1327750Y740750D02*
D03*
X1359750D02*
D03*
X1116750Y97250D02*
D03*
X1084750D02*
D03*
X223250Y983250D02*
D03*
X191250D02*
D03*
X1508000Y354250D02*
D03*
X1540000D02*
D03*
D110*
X1343750Y726750D02*
D03*
X1343750Y754750D02*
D03*
X1100750Y111250D02*
D03*
Y83250D02*
D03*
X207250Y997250D02*
D03*
Y969250D02*
D03*
X1524000Y340250D02*
D03*
Y368250D02*
D03*
D111*
X1360750Y740750D02*
D03*
X1326750Y740750D02*
D03*
X1083750Y97250D02*
D03*
X1117750D02*
D03*
X190250Y983250D02*
D03*
X224250D02*
D03*
X1541000Y354250D02*
D03*
X1507000D02*
D03*
D112*
X1343750Y757750D02*
D03*
X1343750Y723750D02*
D03*
X1100750Y80250D02*
D03*
Y114250D02*
D03*
X207250Y966250D02*
D03*
Y1000250D02*
D03*
X1524000Y371250D02*
D03*
Y337250D02*
D03*
D113*
X1371000Y662250D02*
D03*
X1382000D02*
D03*
X1426000Y538250D02*
D03*
X1415000D02*
D03*
X1404000D02*
D03*
X1393000D02*
D03*
X1382000D02*
D03*
X1371000D02*
D03*
X1360000D02*
D03*
X1330000Y538250D02*
D03*
X1426000Y662250D02*
D03*
X1415000D02*
D03*
X1404000D02*
D03*
X1393000D02*
D03*
X1360000D02*
D03*
X1330000D02*
D03*
X1319000Y662250D02*
D03*
X1308000Y662250D02*
D03*
X1297000D02*
D03*
X1286000D02*
D03*
Y538250D02*
D03*
X1297000D02*
D03*
X1308000D02*
D03*
X1319000D02*
D03*
D114*
X1446000Y630000D02*
D03*
Y640000D02*
D03*
X1446250Y605750D02*
D03*
Y615750D02*
D03*
X1330000Y709500D02*
D03*
Y699500D02*
D03*
X1319000D02*
D03*
Y689500D02*
D03*
X940000Y333750D02*
D03*
Y323750D02*
D03*
X471250Y1008000D02*
D03*
Y1018000D02*
D03*
X660125Y212125D02*
D03*
Y222125D02*
D03*
X778250Y203062D02*
D03*
Y193062D02*
D03*
X789250D02*
D03*
Y203062D02*
D03*
X767250Y193062D02*
D03*
Y203062D02*
D03*
X758500Y136750D02*
D03*
Y126750D02*
D03*
X756250Y193062D02*
D03*
Y203062D02*
D03*
X770750Y126750D02*
D03*
Y136750D02*
D03*
X764500Y149000D02*
D03*
Y159000D02*
D03*
X758500Y172000D02*
D03*
Y182000D02*
D03*
X770750D02*
D03*
Y172000D02*
D03*
X174000Y1003500D02*
D03*
Y993500D02*
D03*
D03*
Y983500D02*
D03*
X443750Y566250D02*
D03*
Y576250D02*
D03*
X422500Y357500D02*
D03*
Y367500D02*
D03*
D115*
X1290500Y426250D02*
D03*
D116*
X1450250Y426500D02*
D03*
D117*
X1109601Y18500D02*
D03*
Y32500D02*
D03*
X1116601Y32500D02*
D03*
X1116601Y18500D02*
D03*
X666601Y18525D02*
D03*
Y32525D02*
D03*
X659601Y32525D02*
D03*
Y18525D02*
D03*
X884601D02*
D03*
Y32525D02*
D03*
X891601Y32525D02*
D03*
Y18525D02*
D03*
X809601Y18525D02*
D03*
Y32525D02*
D03*
X816601Y32525D02*
D03*
Y18525D02*
D03*
X734601Y18525D02*
D03*
Y32525D02*
D03*
X741601Y32525D02*
D03*
Y18525D02*
D03*
X1034601Y18500D02*
D03*
Y32500D02*
D03*
X1041601Y32500D02*
D03*
Y18500D02*
D03*
X959601Y18500D02*
D03*
Y32500D02*
D03*
X966601Y32500D02*
D03*
Y18500D02*
D03*
D118*
X1412750Y712750D02*
D03*
X1402750D02*
D03*
X1439500Y513750D02*
D03*
X1429500D02*
D03*
X1367500Y688000D02*
D03*
X1377500D02*
D03*
X938000Y299750D02*
D03*
X948000D02*
D03*
X938000Y309750D02*
D03*
X948000D02*
D03*
X1224400Y914750D02*
D03*
X1214400D02*
D03*
X645750Y244750D02*
D03*
X655750D02*
D03*
X647750Y234750D02*
D03*
X657750D02*
D03*
X698500Y215500D02*
D03*
X708500D02*
D03*
X1084400Y881375D02*
D03*
X1094400D02*
D03*
X1084400Y903875D02*
D03*
X1094400D02*
D03*
Y892625D02*
D03*
X1084400D02*
D03*
X1464400Y903875D02*
D03*
X1474400D02*
D03*
Y892625D02*
D03*
X1464400Y892625D02*
D03*
X1464400Y881375D02*
D03*
X1474400D02*
D03*
X1497250Y186000D02*
D03*
X1507250D02*
D03*
X1604400Y914750D02*
D03*
X1594400D02*
D03*
X1539500Y962750D02*
D03*
X1549500D02*
D03*
X1393250Y900150D02*
D03*
X1383250D02*
D03*
X1013250Y900150D02*
D03*
X1003251Y900150D02*
D03*
X1159500Y962750D02*
D03*
X1169500D02*
D03*
X414250Y600250D02*
D03*
X424250D02*
D03*
X424250Y590250D02*
D03*
X414250D02*
D03*
X459250Y648250D02*
D03*
X469250D02*
D03*
X403000Y381500D02*
D03*
X393000D02*
D03*
X403000Y391750D02*
D03*
X393000D02*
D03*
X438000Y439500D02*
D03*
X448000Y439500D02*
D03*
D119*
X1315000Y740750D02*
D03*
Y745250D02*
D03*
X128250Y1004000D02*
D03*
Y999500D02*
D03*
D120*
X1317500Y720750D02*
D03*
Y710750D02*
D03*
X1297000Y699500D02*
D03*
Y689500D02*
D03*
X1242500Y942000D02*
D03*
Y932000D02*
D03*
X604500Y873750D02*
D03*
Y883750D02*
D03*
X730750Y221500D02*
D03*
Y211500D02*
D03*
X688000Y222250D02*
D03*
Y212250D02*
D03*
X678000D02*
D03*
Y222250D02*
D03*
X719000Y215250D02*
D03*
Y225250D02*
D03*
X747750Y160250D02*
D03*
Y170250D02*
D03*
X1553750Y927500D02*
D03*
Y917500D02*
D03*
X1560750Y841375D02*
D03*
Y851375D02*
D03*
X1549500Y851375D02*
D03*
Y841375D02*
D03*
X1538250D02*
D03*
Y851375D02*
D03*
X1535250Y212000D02*
D03*
Y202000D02*
D03*
X667000Y758500D02*
D03*
Y748500D02*
D03*
X1622500Y942000D02*
D03*
Y932000D02*
D03*
X1647400Y854750D02*
D03*
Y844750D02*
D03*
X1617000Y968750D02*
D03*
Y958750D02*
D03*
X1457400Y854750D02*
D03*
Y844750D02*
D03*
X1411000Y901217D02*
D03*
Y891217D02*
D03*
X1376250Y913250D02*
D03*
Y923250D02*
D03*
X1398000Y975000D02*
D03*
Y965000D02*
D03*
X1018000Y975000D02*
D03*
X1018000Y965000D02*
D03*
X996250Y913250D02*
D03*
Y923250D02*
D03*
X1031000Y901217D02*
D03*
Y891217D02*
D03*
X1077400Y854750D02*
D03*
Y844750D02*
D03*
X1173750Y927500D02*
D03*
Y917500D02*
D03*
X1233750Y972000D02*
D03*
Y962000D02*
D03*
X1267400Y854750D02*
D03*
Y844750D02*
D03*
X1180750Y841375D02*
D03*
Y851375D02*
D03*
X1158250Y841375D02*
D03*
Y851375D02*
D03*
X1169500D02*
D03*
Y841375D02*
D03*
X403855Y579750D02*
D03*
Y589750D02*
D03*
X454250Y576250D02*
D03*
Y566250D02*
D03*
X433000Y367500D02*
D03*
Y357500D02*
D03*
X382605Y371000D02*
D03*
Y381000D02*
D03*
D121*
X1297000Y710500D02*
D03*
X1307000D02*
D03*
X1340750Y688000D02*
D03*
X1330750D02*
D03*
X1377500Y700500D02*
D03*
X1367500D02*
D03*
X1402750Y723250D02*
D03*
X1392750D02*
D03*
X1365000Y711500D02*
D03*
X1375000D02*
D03*
X698750Y181500D02*
D03*
X688750D02*
D03*
X698771Y170625D02*
D03*
X688771D02*
D03*
X697750Y245000D02*
D03*
X687750D02*
D03*
X790000Y83500D02*
D03*
X800000D02*
D03*
X676750Y245000D02*
D03*
X666750D02*
D03*
X719500Y201063D02*
D03*
X709500D02*
D03*
X731750Y201000D02*
D03*
X741750D02*
D03*
X1535900Y191100D02*
D03*
X1525900Y191100D02*
D03*
X174250Y720000D02*
D03*
X164250D02*
D03*
X569750Y850250D02*
D03*
X579750D02*
D03*
X424250Y610750D02*
D03*
X414250D02*
D03*
X403250Y605750D02*
D03*
X393250Y605750D02*
D03*
X414250Y579750D02*
D03*
X424250D02*
D03*
X432091Y568341D02*
D03*
X422091D02*
D03*
X400909Y359478D02*
D03*
X410909D02*
D03*
X393000Y371000D02*
D03*
X403000D02*
D03*
X403000Y402000D02*
D03*
X393000Y402000D02*
D03*
X382000Y397000D02*
D03*
X372000D02*
D03*
D122*
X1419750Y699750D02*
D03*
X1402750D02*
D03*
X1077400Y867500D02*
D03*
X1094400Y867500D02*
D03*
X595750Y850250D02*
D03*
X612750D02*
D03*
X1541750Y896500D02*
D03*
X1558750D02*
D03*
X1474400Y867500D02*
D03*
X1457400D02*
D03*
X1161750Y896500D02*
D03*
X1178750D02*
D03*
D123*
X1301250Y60750D02*
D03*
Y120750D02*
D03*
X1341250D02*
D03*
Y60750D02*
D03*
X1489250D02*
D03*
Y120750D02*
D03*
X1449250D02*
D03*
Y60750D02*
D03*
X1567750Y584650D02*
D03*
Y559250D02*
D03*
X1461000Y361800D02*
D03*
X1578000Y42250D02*
D03*
Y67650D02*
D03*
X470876Y21630D02*
D03*
X496304D02*
D03*
X521733D02*
D03*
X423990Y150750D02*
D03*
X398590D02*
D03*
X279590Y150750D02*
D03*
X304990D02*
D03*
X1573286Y655964D02*
D03*
X1598714Y655964D02*
D03*
X1573286Y630536D02*
D03*
X1598715Y681393D02*
D03*
X1573286Y681393D02*
D03*
X304990Y90250D02*
D03*
X279590D02*
D03*
X241857Y468000D02*
D03*
X267286D02*
D03*
X292714D02*
D03*
X860714Y850786D02*
D03*
X835286Y876214D02*
D03*
Y850786D02*
D03*
X131700Y90500D02*
D03*
X1307500Y1024050D02*
D03*
X398590Y211250D02*
D03*
X423990D02*
D03*
X398590Y90250D02*
D03*
X423990D02*
D03*
X194950Y90500D02*
D03*
X279590Y20380D02*
D03*
X304990D02*
D03*
X398700Y20500D02*
D03*
X1505500Y428286D02*
D03*
Y453714D02*
D03*
Y479143D02*
D03*
X140000Y929786D02*
D03*
Y955214D02*
D03*
Y980643D02*
D03*
D124*
X1475000Y296250D02*
D03*
X1465000D02*
D03*
X1455000D02*
D03*
X1445000D02*
D03*
X1435000Y296250D02*
D03*
X1425000Y296250D02*
D03*
X1415000D02*
D03*
X1405000D02*
D03*
X1395000Y296250D02*
D03*
X1385000Y296250D02*
D03*
X1375000D02*
D03*
X1365000D02*
D03*
X1355000D02*
D03*
X1345000D02*
D03*
X1335000D02*
D03*
Y331250D02*
D03*
X1345000Y331250D02*
D03*
X1355000Y331250D02*
D03*
X1365000D02*
D03*
X1375000Y331250D02*
D03*
X1385000D02*
D03*
X1395000D02*
D03*
X1405000D02*
D03*
X1415000D02*
D03*
X1425000D02*
D03*
X1435000D02*
D03*
X1445000D02*
D03*
X1455000D02*
D03*
X1465000Y331250D02*
D03*
X1475000D02*
D03*
Y241250D02*
D03*
X1465000D02*
D03*
X1455000D02*
D03*
X1445000Y241250D02*
D03*
X1435000D02*
D03*
X1425000Y241250D02*
D03*
X1415000D02*
D03*
X1405000D02*
D03*
X1395000Y241250D02*
D03*
X1385000D02*
D03*
X1375000Y241250D02*
D03*
X1365000D02*
D03*
X1355000D02*
D03*
X1345000Y241250D02*
D03*
X1335000Y241250D02*
D03*
Y206250D02*
D03*
X1345000Y206250D02*
D03*
X1355000Y206250D02*
D03*
X1365000D02*
D03*
X1375000Y206250D02*
D03*
X1385000D02*
D03*
X1395000D02*
D03*
X1405000D02*
D03*
X1415000D02*
D03*
X1425000D02*
D03*
X1435000D02*
D03*
X1445000D02*
D03*
X1455000D02*
D03*
X1465000Y206250D02*
D03*
X1475000D02*
D03*
D125*
X734250Y182000D02*
D03*
Y178000D02*
D03*
Y174000D02*
D03*
X717250D02*
D03*
Y178000D02*
D03*
Y182000D02*
D03*
D126*
X727750Y171500D02*
D03*
X723750D02*
D03*
Y184500D02*
D03*
D127*
X727750Y184000D02*
D03*
D128*
X171500Y54700D02*
D03*
X171500Y42000D02*
D03*
Y29300D02*
D03*
Y16600D02*
D03*
X108500D02*
D03*
X108500Y29300D02*
D03*
Y42000D02*
D03*
X108500Y54700D02*
D03*
D129*
X1538250Y881750D02*
D03*
Y864750D02*
D03*
X1158250Y881750D02*
D03*
Y864750D02*
D03*
D130*
X1216750Y887750D02*
D03*
X1596750D02*
D03*
D131*
X1224250Y873500D02*
D03*
X1219250D02*
D03*
X1214250D02*
D03*
X1209250D02*
D03*
Y902000D02*
D03*
X1214250D02*
D03*
X1219250D02*
D03*
X1224250D02*
D03*
X1604250Y873500D02*
D03*
X1599250D02*
D03*
X1594250D02*
D03*
X1589250D02*
D03*
Y902000D02*
D03*
X1594250D02*
D03*
X1599250D02*
D03*
X1604250D02*
D03*
D132*
X1202500Y880250D02*
D03*
Y885250D02*
D03*
Y890250D02*
D03*
Y895250D02*
D03*
X1231000D02*
D03*
Y890250D02*
D03*
Y885250D02*
D03*
Y880250D02*
D03*
X1582500Y880250D02*
D03*
Y885250D02*
D03*
Y890250D02*
D03*
Y895250D02*
D03*
X1611000D02*
D03*
Y890250D02*
D03*
Y885250D02*
D03*
Y880250D02*
D03*
D133*
X1594250Y846375D02*
D03*
X1573250D02*
D03*
X1193250D02*
D03*
X1214250D02*
D03*
D134*
X1583750Y853375D02*
D03*
Y839375D02*
D03*
X1203750D02*
D03*
Y853375D02*
D03*
D135*
X1474400Y937125D02*
D03*
Y916125D02*
D03*
X1094400D02*
D03*
Y937125D02*
D03*
D136*
X1467400Y926625D02*
D03*
X1481400D02*
D03*
X1101400D02*
D03*
X1087400D02*
D03*
D137*
X670500Y869750D02*
D03*
Y849750D02*
D03*
X584000Y892250D02*
D03*
Y872250D02*
D03*
D138*
X686500Y899750D02*
D03*
X755500D02*
D03*
X686500Y811750D02*
D03*
X755500D02*
D03*
D139*
X-80150Y-80000D02*
D03*
X-80150Y1180000D02*
D03*
X1780150Y1180000D02*
D03*
X1780150Y-80000D02*
D03*
D140*
X120055Y745250D02*
D03*
D141*
X104055Y857200D02*
D03*
D142*
X95555Y741250D02*
D03*
D143*
X89055Y860750D02*
D03*
D144*
X13055Y744500D02*
D03*
D145*
Y859000D02*
D03*
D146*
X11805Y846000D02*
D03*
D147*
Y835000D02*
D03*
D148*
Y824000D02*
D03*
D149*
Y813000D02*
D03*
D150*
Y802000D02*
D03*
D151*
Y791000D02*
D03*
D152*
X11805Y780000D02*
D03*
D153*
X11805Y769000D02*
D03*
D154*
X1688850Y259500D02*
D03*
Y129500D02*
D03*
X1568850Y259500D02*
D03*
Y129500D02*
D03*
D155*
X1554050Y219200D02*
D03*
Y209700D02*
D03*
D156*
X1554050Y197000D02*
D03*
X1554050Y184300D02*
D03*
Y171600D02*
D03*
Y158900D02*
D03*
Y146200D02*
D03*
D157*
X303000Y549250D02*
D03*
X288000D02*
D03*
X273000D02*
D03*
X258000Y549250D02*
D03*
D158*
X303000Y510250D02*
D03*
X288000D02*
D03*
X273000D02*
D03*
X258000Y510250D02*
D03*
D159*
X639750Y856000D02*
D03*
Y884000D02*
D03*
D160*
X539250Y1058750D02*
D03*
Y1089750D02*
D03*
D161*
X566750Y1012950D02*
D03*
X561750D02*
D03*
X556750D02*
D03*
X551750D02*
D03*
X546750D02*
D03*
X541750D02*
D03*
X536750D02*
D03*
X531750D02*
D03*
X526750D02*
D03*
X521750D02*
D03*
X516750D02*
D03*
X511750D02*
D03*
D162*
X368000Y491750D02*
D03*
Y461750D02*
D03*
X349750Y564000D02*
D03*
X349750Y534000D02*
D03*
X370500Y564000D02*
D03*
Y534000D02*
D03*
X348500Y253000D02*
D03*
X348500Y283000D02*
D03*
X327313Y355188D02*
D03*
Y325187D02*
D03*
X348500Y355250D02*
D03*
Y325250D02*
D03*
D163*
X549992Y825750D02*
D03*
Y779750D02*
D03*
D164*
X624507Y802750D02*
D03*
D165*
X1588000Y999750D02*
D03*
X1583500D02*
D03*
X1393500D02*
D03*
X1398000D02*
D03*
X1013500D02*
D03*
X1018000D02*
D03*
X1203500Y999750D02*
D03*
X1208000Y999750D02*
D03*
D166*
X465250Y613250D02*
D03*
X444000Y404500D02*
D03*
D167*
X450750Y613250D02*
D03*
X429500Y404500D02*
D03*
D168*
X436750Y600750D02*
D03*
Y605750D02*
D03*
Y610750D02*
D03*
Y615750D02*
D03*
Y620750D02*
D03*
Y625750D02*
D03*
X476750D02*
D03*
Y620750D02*
D03*
Y615750D02*
D03*
Y610750D02*
D03*
Y605750D02*
D03*
Y600750D02*
D03*
X415500Y392000D02*
D03*
Y397000D02*
D03*
Y402000D02*
D03*
Y407000D02*
D03*
Y412000D02*
D03*
Y417000D02*
D03*
X455500D02*
D03*
Y412000D02*
D03*
Y407000D02*
D03*
Y402000D02*
D03*
Y397000D02*
D03*
Y392000D02*
D03*
D169*
X444250Y633250D02*
D03*
X449250D02*
D03*
X454250D02*
D03*
X459250D02*
D03*
X464250D02*
D03*
X469250D02*
D03*
Y593250D02*
D03*
X464250D02*
D03*
X459250D02*
D03*
X454250D02*
D03*
X449250D02*
D03*
X444250D02*
D03*
X423000Y424500D02*
D03*
X428000D02*
D03*
X433000D02*
D03*
X438000D02*
D03*
X443000D02*
D03*
X448000D02*
D03*
Y384500D02*
D03*
X443000D02*
D03*
X438000D02*
D03*
X433000D02*
D03*
X428000D02*
D03*
X423000D02*
D03*
D170*
X1398000Y914150D02*
D03*
X1404500D02*
D03*
X1411000D02*
D03*
X1417500D02*
D03*
X1417500Y951650D02*
D03*
X1411000D02*
D03*
X1404500D02*
D03*
X1398000D02*
D03*
X1594500Y927500D02*
D03*
X1588000D02*
D03*
X1581500D02*
D03*
X1575000D02*
D03*
Y965000D02*
D03*
X1581500D02*
D03*
X1588000D02*
D03*
X1594500D02*
D03*
X1018000Y951650D02*
D03*
X1024500D02*
D03*
X1031000Y951650D02*
D03*
X1037500D02*
D03*
X1037501Y914150D02*
D03*
X1031000D02*
D03*
X1024500D02*
D03*
X1018000D02*
D03*
X1214500Y927500D02*
D03*
X1208000D02*
D03*
X1201500D02*
D03*
X1195000D02*
D03*
Y965000D02*
D03*
X1201500D02*
D03*
X1208000D02*
D03*
X1214500D02*
D03*
D171*
X1426500Y923150D02*
D03*
Y929650D02*
D03*
Y936150D02*
D03*
Y942650D02*
D03*
X1389000D02*
D03*
Y936150D02*
D03*
Y929650D02*
D03*
Y923150D02*
D03*
X1566000Y936500D02*
D03*
Y943000D02*
D03*
Y949500D02*
D03*
Y956000D02*
D03*
X1603500Y956000D02*
D03*
Y949500D02*
D03*
Y943000D02*
D03*
Y936500D02*
D03*
X1009000Y923150D02*
D03*
Y929650D02*
D03*
Y936150D02*
D03*
X1009000Y942650D02*
D03*
X1046500Y942650D02*
D03*
Y936150D02*
D03*
Y929650D02*
D03*
X1046500Y923150D02*
D03*
X1186000Y936500D02*
D03*
Y943000D02*
D03*
Y949500D02*
D03*
Y956000D02*
D03*
X1223500Y956000D02*
D03*
Y949500D02*
D03*
Y943000D02*
D03*
Y936500D02*
D03*
D172*
X1407750Y932900D02*
D03*
X1027750D02*
D03*
D173*
X1063400Y866000D02*
D03*
X1041400Y882000D02*
D03*
Y866000D02*
D03*
X1443400D02*
D03*
X1421400Y882000D02*
D03*
Y866000D02*
D03*
D174*
X1063400Y880250D02*
D03*
X1443400D02*
D03*
D175*
X402000Y507000D02*
D03*
X482500D02*
D03*
X461136Y298250D02*
D03*
X380636D02*
D03*
D176*
X481500Y1090250D02*
D03*
Y1073250D02*
D03*
X942000Y1090500D02*
D03*
Y1073500D02*
D03*
D177*
X439600Y895000D02*
D03*
Y865000D02*
D03*
Y835000D02*
D03*
Y805000D02*
D03*
Y775000D02*
D03*
Y745000D02*
D03*
X170400D02*
D03*
Y775000D02*
D03*
Y805000D02*
D03*
Y835000D02*
D03*
Y865000D02*
D03*
Y895000D02*
D03*
D178*
X336750Y655250D02*
D03*
X252750D02*
D03*
D179*
X1306000Y982252D02*
D03*
X1141000D02*
D03*
X1520997D02*
D03*
X1685997D02*
D03*
X1330999D02*
D03*
X1495999D02*
D03*
X951002D02*
D03*
X1116002D02*
D03*
D180*
X1306002Y908750D02*
D03*
X1140999Y908753D02*
D03*
X1520995D02*
D03*
X1685999Y908750D02*
D03*
X1330997Y908753D02*
D03*
X1496000Y908750D02*
D03*
X951000Y908753D02*
D03*
X1116003Y908750D02*
D03*
D181*
X1223499Y826250D02*
D03*
X1603495D02*
D03*
X1413497D02*
D03*
X1033500D02*
D03*
D182*
X1297000Y826252D02*
D03*
X1150000D02*
D03*
X1529997D02*
D03*
X1676997D02*
D03*
X1339999D02*
D03*
X1486998D02*
D03*
X960002D02*
D03*
X1107002D02*
D03*
D183*
X1306000Y845252D02*
D03*
X1141000D02*
D03*
X1520997D02*
D03*
X1685997D02*
D03*
X1330999D02*
D03*
X1495999D02*
D03*
X951002D02*
D03*
X1116002D02*
D03*
D184*
X1287000Y991252D02*
D03*
X1160000D02*
D03*
X1539997D02*
D03*
X1666997D02*
D03*
X1349999D02*
D03*
X1476999D02*
D03*
X970002D02*
D03*
X1097002D02*
D03*
D185*
X556750Y909000D02*
D03*
X510750D02*
D03*
Y952750D02*
D03*
X556750D02*
D03*
D186*
X491000Y723250D02*
D03*
X1278250Y334000D02*
D03*
X1630800Y546800D02*
D03*
Y521400D02*
D03*
X1630800Y496000D02*
D03*
X1630800Y470600D02*
D03*
Y445200D02*
D03*
Y419800D02*
D03*
Y394400D02*
D03*
X1630800Y369000D02*
D03*
X1630800Y343600D02*
D03*
Y318200D02*
D03*
X1656200Y546800D02*
D03*
Y521400D02*
D03*
X1656200Y496000D02*
D03*
X1656200Y470600D02*
D03*
Y445200D02*
D03*
Y419800D02*
D03*
Y394400D02*
D03*
X1656200Y369000D02*
D03*
X1656200Y343600D02*
D03*
D187*
X1627750Y92750D02*
D03*
X186250Y587750D02*
D03*
D188*
X144000Y745000D02*
D03*
Y720000D02*
D03*
D189*
X1077400Y812250D02*
D03*
Y778250D02*
D03*
X1457400Y812250D02*
D03*
Y778250D02*
D03*
X1267400Y812250D02*
D03*
Y778250D02*
D03*
X1647400Y812250D02*
D03*
Y778250D02*
D03*
D190*
X1060400Y795250D02*
D03*
X1094400D02*
D03*
X1440400D02*
D03*
X1474400D02*
D03*
X1250400D02*
D03*
X1284400D02*
D03*
X1630400D02*
D03*
X1664400D02*
D03*
D191*
X1077400Y779250D02*
D03*
Y811250D02*
D03*
X1457400Y779250D02*
D03*
Y811250D02*
D03*
X1267400Y779250D02*
D03*
Y811250D02*
D03*
X1647400Y779250D02*
D03*
Y811250D02*
D03*
D192*
X1091400Y795250D02*
D03*
X1063400D02*
D03*
X1471400D02*
D03*
X1443400D02*
D03*
X1281400D02*
D03*
X1253400D02*
D03*
X1661400D02*
D03*
X1633400D02*
D03*
D193*
X397125Y419905D02*
D03*
X377125D02*
D03*
X417250Y630500D02*
D03*
X397250D02*
D03*
D194*
X1584750Y946250D02*
D03*
X1204750D02*
D03*
D195*
X15201Y665983D02*
D03*
Y503983D02*
D03*
D196*
X74501Y698483D02*
D03*
X164501D02*
D03*
X195501Y633483D02*
D03*
X100501D02*
D03*
X74501Y536483D02*
D03*
X164501D02*
D03*
X195501Y471483D02*
D03*
X100501D02*
D03*
D197*
X180176Y670983D02*
D03*
X168626D02*
D03*
X157076D02*
D03*
X145526D02*
D03*
X133976Y670983D02*
D03*
X122426Y670983D02*
D03*
X110876D02*
D03*
X99326Y670983D02*
D03*
X185951Y660983D02*
D03*
X174401D02*
D03*
X162851D02*
D03*
X151301D02*
D03*
X139751D02*
D03*
X128201D02*
D03*
X116651D02*
D03*
X105101D02*
D03*
X93551D02*
D03*
X87776Y670983D02*
D03*
X180176Y508983D02*
D03*
X168626D02*
D03*
X157076D02*
D03*
X145526D02*
D03*
X133976Y508983D02*
D03*
X122426Y508983D02*
D03*
X110876D02*
D03*
X99326Y508983D02*
D03*
X185951Y498983D02*
D03*
X174401D02*
D03*
X162851D02*
D03*
X151301D02*
D03*
X139751D02*
D03*
X128201D02*
D03*
X116651D02*
D03*
X105101D02*
D03*
X93551D02*
D03*
X87776Y508983D02*
D03*
D198*
X82001Y660983D02*
D03*
Y498983D02*
D03*
D199*
X195501Y685983D02*
D03*
X63001Y650983D02*
D03*
X195501Y523983D02*
D03*
X63001Y488983D02*
D03*
D200*
X146100Y268000D02*
D03*
Y288000D02*
D03*
X99100Y343000D02*
D03*
Y318000D02*
D03*
Y298000D02*
D03*
Y273000D02*
D03*
X114100Y268000D02*
D03*
Y288000D02*
D03*
Y308000D02*
D03*
Y328000D02*
D03*
Y348000D02*
D03*
X131100Y343000D02*
D03*
Y318000D02*
D03*
Y298000D02*
D03*
Y273000D02*
D03*
X146100Y308000D02*
D03*
Y348000D02*
D03*
Y328000D02*
D03*
D201*
X253000Y371000D02*
D03*
Y391000D02*
D03*
Y311000D02*
D03*
Y331000D02*
D03*
X273000Y391000D02*
D03*
Y411000D02*
D03*
X253000Y291000D02*
D03*
Y411000D02*
D03*
X273000Y371000D02*
D03*
X253000Y351000D02*
D03*
X273000D02*
D03*
Y331000D02*
D03*
Y311000D02*
D03*
Y291000D02*
D03*
X253000Y271000D02*
D03*
X273000D02*
D03*
X253000Y251000D02*
D03*
X273000D02*
D03*
X253000Y231000D02*
D03*
X273000D02*
D03*
D202*
X1567750Y533850D02*
D03*
X1461000Y387200D02*
D03*
X1578000Y16850D02*
D03*
X1307500Y1049450D02*
D03*
D203*
X1333250Y426500D02*
D03*
D204*
X1408250D02*
D03*
X1233250Y250000D02*
D03*
D205*
X445447Y21630D02*
D03*
X318143Y468000D02*
D03*
X860714Y876214D02*
D03*
D206*
X135900Y373700D02*
D03*
Y242300D02*
D03*
X79100Y373700D02*
D03*
Y242300D02*
D03*
D207*
X1528964Y558964D02*
D03*
X1503536D02*
D03*
X1528964Y584393D02*
D03*
X1503536Y584393D02*
D03*
X1528964Y609822D02*
D03*
X1503536D02*
D03*
X1528964Y635250D02*
D03*
X1503536D02*
D03*
X1528964Y660679D02*
D03*
X1503536D02*
D03*
X1528964Y686107D02*
D03*
X1503536Y686107D02*
D03*
X1528964Y711536D02*
D03*
X1503536D02*
D03*
X1658750Y733607D02*
D03*
X1658750Y708178D02*
D03*
X1658750Y682750D02*
D03*
X1658750Y657321D02*
D03*
X42870Y102519D02*
D03*
Y127947D02*
D03*
Y153376D02*
D03*
X352500Y975714D02*
D03*
X124910Y153376D02*
D03*
X174036Y1061250D02*
D03*
X388286Y675250D02*
D03*
D208*
X987250Y730500D02*
D03*
X1229250D02*
D03*
X561250Y244750D02*
D03*
X891250Y724750D02*
D03*
X561250Y724750D02*
D03*
X891250Y244750D02*
D03*
D209*
X373190Y150750D02*
D03*
X254190Y150750D02*
D03*
X254190Y90250D02*
D03*
X106300Y90500D02*
D03*
X373190Y211250D02*
D03*
Y90250D02*
D03*
X169550Y90500D02*
D03*
X254190Y20380D02*
D03*
X373300Y20500D02*
D03*
D210*
X783600Y1062250D02*
D03*
X809000D02*
D03*
X891000D02*
D03*
X916400D02*
D03*
D211*
X818250Y996050D02*
D03*
X881750D02*
D03*
X792850Y958150D02*
D03*
X805550Y932750D02*
D03*
X818250Y958150D02*
D03*
X830950Y932750D02*
D03*
X843650Y958150D02*
D03*
X856350Y932750D02*
D03*
X869050Y958150D02*
D03*
X881750Y932750D02*
D03*
X894450Y958150D02*
D03*
D212*
X792850Y983350D02*
D03*
X907150D02*
D03*
D213*
X907150Y932750D02*
D03*
D214*
X771500Y991150D02*
D03*
X928500D02*
D03*
D215*
X792850Y1021650D02*
D03*
X907150Y1021650D02*
D03*
D216*
X69750Y944000D02*
D03*
X19750D02*
D03*
X100750Y928000D02*
D03*
X19750Y899000D02*
D03*
X100750Y960000D02*
D03*
X69750Y908000D02*
D03*
X19750Y992000D02*
D03*
D217*
X643500Y1022750D02*
D03*
D218*
X691500Y989750D02*
D03*
D219*
Y1052750D02*
D03*
D220*
X1676350Y229500D02*
D03*
Y144500D02*
D03*
D221*
X811500Y136250D02*
D03*
X887500D02*
D03*
D222*
X1665000Y35000D02*
D03*
X492500Y857500D02*
D03*
Y142500D02*
D03*
X1207500D02*
D03*
X35000Y1065000D02*
D03*
Y35000D02*
D03*
X1665000Y1065000D02*
D03*
D223*
X581950Y1084250D02*
D03*
X496550D02*
D03*
X581950Y1036950D02*
D03*
X496550D02*
D03*
D224*
X515250Y1032450D02*
D03*
X563250D02*
D03*
X523250D02*
D03*
X555250D02*
D03*
X531250D02*
D03*
X547250D02*
D03*
X511250Y1025450D02*
D03*
X567250D02*
D03*
X519250D02*
D03*
X559250D02*
D03*
X527250D02*
D03*
X551250D02*
D03*
X535250D02*
D03*
X543250D02*
D03*
D225*
X1230050Y50200D02*
D03*
X1159950D02*
D03*
D226*
X1658750Y631893D02*
D03*
X42870Y178804D02*
D03*
X352500Y950286D02*
D03*
X124910Y178804D02*
D03*
D227*
X1598714Y630536D02*
D03*
X1505500Y402857D02*
D03*
X140000Y904357D02*
D03*
D228*
X86500Y1078250D02*
D03*
Y1027250D02*
D03*
X137500Y1078250D02*
D03*
X112000Y1052750D02*
D03*
X137500Y1027250D02*
D03*
X287500Y1027250D02*
D03*
X262000Y1052750D02*
D03*
X287500Y1078250D02*
D03*
X236500Y1027250D02*
D03*
Y1078250D02*
D03*
X437500Y1027250D02*
D03*
X412000Y1052750D02*
D03*
X437500Y1078250D02*
D03*
X386500Y1027250D02*
D03*
Y1078250D02*
D03*
X1562500Y1078250D02*
D03*
Y1027250D02*
D03*
X1613500Y1078250D02*
D03*
X1588000Y1052750D02*
D03*
X1613500Y1027250D02*
D03*
X1182500Y1078250D02*
D03*
X1182500Y1027250D02*
D03*
X1233500Y1078250D02*
D03*
X1208000Y1052750D02*
D03*
X1233500Y1027250D02*
D03*
X1372500Y1078250D02*
D03*
Y1027250D02*
D03*
X1423500Y1078250D02*
D03*
X1398000Y1052750D02*
D03*
X1423500Y1027250D02*
D03*
X992500Y1078250D02*
D03*
Y1027250D02*
D03*
X1043500Y1078250D02*
D03*
X1018000Y1052750D02*
D03*
X1043500Y1027250D02*
D03*
D229*
X64470Y127947D02*
D03*
D230*
X1656200Y318200D02*
D03*
D231*
X675105Y53025D02*
D03*
X650105D02*
D03*
X1025105Y53000D02*
D03*
X1050105D02*
D03*
X950105Y53025D02*
D03*
X975105D02*
D03*
X875105D02*
D03*
X900105D02*
D03*
X800105D02*
D03*
X825105D02*
D03*
X725105D02*
D03*
X750105D02*
D03*
D232*
X199464Y1061250D02*
D03*
X413714Y675250D02*
D03*
M02*
