G04*
G04 #@! TF.GenerationSoftware,Altium Limited,Altium Designer,19.1.6 (110)*
G04*
G04 Layer_Color=16711935*
%FSLAX44Y44*%
%MOMM*%
G71*
G01*
G75*
%ADD64C,1.6000*%
G04:AMPARAMS|DCode=108|XSize=0.7mm|YSize=0.7mm|CornerRadius=0.11mm|HoleSize=0mm|Usage=FLASHONLY|Rotation=0.000|XOffset=0mm|YOffset=0mm|HoleType=Round|Shape=RoundedRectangle|*
%AMROUNDEDRECTD108*
21,1,0.7000,0.4800,0,0,0.0*
21,1,0.4800,0.7000,0,0,0.0*
1,1,0.2200,0.2400,-0.2400*
1,1,0.2200,-0.2400,-0.2400*
1,1,0.2200,-0.2400,0.2400*
1,1,0.2200,0.2400,0.2400*
%
%ADD108ROUNDEDRECTD108*%
G04:AMPARAMS|DCode=109|XSize=0.6mm|YSize=0.7mm|CornerRadius=0.1mm|HoleSize=0mm|Usage=FLASHONLY|Rotation=270.000|XOffset=0mm|YOffset=0mm|HoleType=Round|Shape=RoundedRectangle|*
%AMROUNDEDRECTD109*
21,1,0.6000,0.5000,0,0,270.0*
21,1,0.4000,0.7000,0,0,270.0*
1,1,0.2000,-0.2500,-0.2000*
1,1,0.2000,-0.2500,0.2000*
1,1,0.2000,0.2500,0.2000*
1,1,0.2000,0.2500,-0.2000*
%
%ADD109ROUNDEDRECTD109*%
G04:AMPARAMS|DCode=113|XSize=0.7mm|YSize=0.7mm|CornerRadius=0.11mm|HoleSize=0mm|Usage=FLASHONLY|Rotation=270.000|XOffset=0mm|YOffset=0mm|HoleType=Round|Shape=RoundedRectangle|*
%AMROUNDEDRECTD113*
21,1,0.7000,0.4800,0,0,270.0*
21,1,0.4800,0.7000,0,0,270.0*
1,1,0.2200,-0.2400,-0.2400*
1,1,0.2200,-0.2400,0.2400*
1,1,0.2200,0.2400,0.2400*
1,1,0.2200,0.2400,-0.2400*
%
%ADD113ROUNDEDRECTD113*%
%ADD115R,0.4000X0.4100*%
G04:AMPARAMS|DCode=116|XSize=1.1mm|YSize=1mm|CornerRadius=0.1625mm|HoleSize=0mm|Usage=FLASHONLY|Rotation=180.000|XOffset=0mm|YOffset=0mm|HoleType=Round|Shape=RoundedRectangle|*
%AMROUNDEDRECTD116*
21,1,1.1000,0.6750,0,0,180.0*
21,1,0.7750,1.0000,0,0,180.0*
1,1,0.3250,-0.3875,0.3375*
1,1,0.3250,0.3875,0.3375*
1,1,0.3250,0.3875,-0.3375*
1,1,0.3250,-0.3875,-0.3375*
%
%ADD116ROUNDEDRECTD116*%
G04:AMPARAMS|DCode=124|XSize=0.6mm|YSize=0.7mm|CornerRadius=0.1mm|HoleSize=0mm|Usage=FLASHONLY|Rotation=0.000|XOffset=0mm|YOffset=0mm|HoleType=Round|Shape=RoundedRectangle|*
%AMROUNDEDRECTD124*
21,1,0.6000,0.5000,0,0,0.0*
21,1,0.4000,0.7000,0,0,0.0*
1,1,0.2000,0.2000,-0.2500*
1,1,0.2000,-0.2000,-0.2500*
1,1,0.2000,-0.2000,0.2500*
1,1,0.2000,0.2000,0.2500*
%
%ADD124ROUNDEDRECTD124*%
%ADD127C,3.0000*%
%ADD148C,1.7000*%
%ADD151R,3.8000X1.7000*%
G04:AMPARAMS|DCode=154|XSize=1.1mm|YSize=1mm|CornerRadius=0.1625mm|HoleSize=0mm|Usage=FLASHONLY|Rotation=270.000|XOffset=0mm|YOffset=0mm|HoleType=Round|Shape=RoundedRectangle|*
%AMROUNDEDRECTD154*
21,1,1.1000,0.6750,0,0,270.0*
21,1,0.7750,1.0000,0,0,270.0*
1,1,0.3250,-0.3375,-0.3875*
1,1,0.3250,-0.3375,0.3875*
1,1,0.3250,0.3375,0.3875*
1,1,0.3250,0.3375,-0.3875*
%
%ADD154ROUNDEDRECTD154*%
G04:AMPARAMS|DCode=155|XSize=1.9mm|YSize=1.25mm|CornerRadius=0.1938mm|HoleSize=0mm|Usage=FLASHONLY|Rotation=180.000|XOffset=0mm|YOffset=0mm|HoleType=Round|Shape=RoundedRectangle|*
%AMROUNDEDRECTD155*
21,1,1.9000,0.8625,0,0,180.0*
21,1,1.5125,1.2500,0,0,180.0*
1,1,0.3875,-0.7563,0.4313*
1,1,0.3875,0.7563,0.4313*
1,1,0.3875,0.7563,-0.4313*
1,1,0.3875,-0.7563,-0.4313*
%
%ADD155ROUNDEDRECTD155*%
%ADD158R,0.4100X0.4000*%
G04:AMPARAMS|DCode=182|XSize=2.6mm|YSize=2.1mm|CornerRadius=0.3mm|HoleSize=0mm|Usage=FLASHONLY|Rotation=90.000|XOffset=0mm|YOffset=0mm|HoleType=Round|Shape=RoundedRectangle|*
%AMROUNDEDRECTD182*
21,1,2.6000,1.5000,0,0,90.0*
21,1,2.0000,2.1000,0,0,90.0*
1,1,0.6000,0.7500,1.0000*
1,1,0.6000,0.7500,-1.0000*
1,1,0.6000,-0.7500,-1.0000*
1,1,0.6000,-0.7500,1.0000*
%
%ADD182ROUNDEDRECTD182*%
%ADD183C,2.0000*%
%ADD184R,3.6000X2.0000*%
G04:AMPARAMS|DCode=185|XSize=0.7mm|YSize=0.8mm|CornerRadius=0.125mm|HoleSize=0mm|Usage=FLASHONLY|Rotation=270.000|XOffset=0mm|YOffset=0mm|HoleType=Round|Shape=RoundedRectangle|*
%AMROUNDEDRECTD185*
21,1,0.7000,0.5500,0,0,270.0*
21,1,0.4500,0.8000,0,0,270.0*
1,1,0.2500,-0.2750,-0.2250*
1,1,0.2500,-0.2750,0.2250*
1,1,0.2500,0.2750,0.2250*
1,1,0.2500,0.2750,-0.2250*
%
%ADD185ROUNDEDRECTD185*%
G04:AMPARAMS|DCode=190|XSize=1.5mm|YSize=1.1mm|CornerRadius=0.175mm|HoleSize=0mm|Usage=FLASHONLY|Rotation=90.000|XOffset=0mm|YOffset=0mm|HoleType=Round|Shape=RoundedRectangle|*
%AMROUNDEDRECTD190*
21,1,1.5000,0.7500,0,0,90.0*
21,1,1.1500,1.1000,0,0,90.0*
1,1,0.3500,0.3750,0.5750*
1,1,0.3500,0.3750,-0.5750*
1,1,0.3500,-0.3750,-0.5750*
1,1,0.3500,-0.3750,0.5750*
%
%ADD190ROUNDEDRECTD190*%
G04:AMPARAMS|DCode=192|XSize=1.7mm|YSize=1.7mm|CornerRadius=0.45mm|HoleSize=0mm|Usage=FLASHONLY|Rotation=0.000|XOffset=0mm|YOffset=0mm|HoleType=Round|Shape=RoundedRectangle|*
%AMROUNDEDRECTD192*
21,1,1.7000,0.8000,0,0,0.0*
21,1,0.8000,1.7000,0,0,0.0*
1,1,0.9000,0.4000,-0.4000*
1,1,0.9000,-0.4000,-0.4000*
1,1,0.9000,-0.4000,0.4000*
1,1,0.9000,0.4000,0.4000*
%
%ADD192ROUNDEDRECTD192*%
%ADD193C,1.2500*%
%ADD194C,1.1886*%
%ADD195C,2.1000*%
%ADD196C,5.4000*%
%ADD197C,1.1000*%
G04:AMPARAMS|DCode=198|XSize=1.624mm|YSize=1.624mm|CornerRadius=0.2405mm|HoleSize=0mm|Usage=FLASHONLY|Rotation=90.000|XOffset=0mm|YOffset=0mm|HoleType=Round|Shape=RoundedRectangle|*
%AMROUNDEDRECTD198*
21,1,1.6240,1.1430,0,0,90.0*
21,1,1.1430,1.6240,0,0,90.0*
1,1,0.4810,0.5715,0.5715*
1,1,0.4810,0.5715,-0.5715*
1,1,0.4810,-0.5715,-0.5715*
1,1,0.4810,-0.5715,0.5715*
%
%ADD198ROUNDEDRECTD198*%
%ADD199C,1.4000*%
%ADD200C,1.7800*%
%ADD201C,1.6080*%
%ADD202C,1.5080*%
%ADD203R,1.6080X1.6080*%
%ADD204C,2.6500*%
%ADD205C,3.4500*%
%ADD206C,1.6500*%
%ADD207O,2.1000X5.1000*%
%ADD208O,5.1000X2.3000*%
%ADD209O,5.1000X2.1000*%
%ADD210C,0.7500*%
%ADD211C,1.3000*%
%ADD212C,5.1000*%
%ADD213O,1.1000X1.7000*%
%ADD214C,0.7300*%
%ADD215C,2.0500*%
G04:AMPARAMS|DCode=216|XSize=2.1mm|YSize=2.1mm|CornerRadius=0.55mm|HoleSize=0mm|Usage=FLASHONLY|Rotation=270.000|XOffset=0mm|YOffset=0mm|HoleType=Round|Shape=RoundedRectangle|*
%AMROUNDEDRECTD216*
21,1,2.1000,1.0000,0,0,270.0*
21,1,1.0000,2.1000,0,0,270.0*
1,1,1.1000,-0.5000,-0.5000*
1,1,1.1000,-0.5000,0.5000*
1,1,1.1000,0.5000,0.5000*
1,1,1.1000,0.5000,-0.5000*
%
%ADD216ROUNDEDRECTD216*%
G04:AMPARAMS|DCode=217|XSize=1.7mm|YSize=1.7mm|CornerRadius=0.45mm|HoleSize=0mm|Usage=FLASHONLY|Rotation=90.000|XOffset=0mm|YOffset=0mm|HoleType=Round|Shape=RoundedRectangle|*
%AMROUNDEDRECTD217*
21,1,1.7000,0.8000,0,0,90.0*
21,1,0.8000,1.7000,0,0,90.0*
1,1,0.9000,0.4000,0.4000*
1,1,0.9000,0.4000,-0.4000*
1,1,0.9000,-0.4000,-0.4000*
1,1,0.9000,-0.4000,0.4000*
%
%ADD217ROUNDEDRECTD217*%
%ADD218O,4.1000X1.5000*%
%ADD219C,0.9000*%
%ADD220R,0.9000X0.9000*%
%ADD221C,1.9000*%
%ADD222C,3.1000*%
%ADD223C,0.3500*%
G04:AMPARAMS|DCode=224|XSize=2mm|YSize=2mm|CornerRadius=0.525mm|HoleSize=0mm|Usage=FLASHONLY|Rotation=90.000|XOffset=0mm|YOffset=0mm|HoleType=Round|Shape=RoundedRectangle|*
%AMROUNDEDRECTD224*
21,1,2.0000,0.9500,0,0,90.0*
21,1,0.9500,2.0000,0,0,90.0*
1,1,1.0500,0.4750,0.4750*
1,1,1.0500,0.4750,-0.4750*
1,1,1.0500,-0.4750,-0.4750*
1,1,1.0500,-0.4750,0.4750*
%
%ADD224ROUNDEDRECTD224*%
%ADD225C,1.0000*%
G04:AMPARAMS|DCode=226|XSize=1.624mm|YSize=1.624mm|CornerRadius=0.2405mm|HoleSize=0mm|Usage=FLASHONLY|Rotation=0.000|XOffset=0mm|YOffset=0mm|HoleType=Round|Shape=RoundedRectangle|*
%AMROUNDEDRECTD226*
21,1,1.6240,1.1430,0,0,0.0*
21,1,1.1430,1.6240,0,0,0.0*
1,1,0.4810,0.5715,-0.5715*
1,1,0.4810,-0.5715,-0.5715*
1,1,0.4810,-0.5715,0.5715*
1,1,0.4810,0.5715,0.5715*
%
%ADD226ROUNDEDRECTD226*%
G04:AMPARAMS|DCode=227|XSize=2.1mm|YSize=2.1mm|CornerRadius=0.55mm|HoleSize=0mm|Usage=FLASHONLY|Rotation=180.000|XOffset=0mm|YOffset=0mm|HoleType=Round|Shape=RoundedRectangle|*
%AMROUNDEDRECTD227*
21,1,2.1000,1.0000,0,0,180.0*
21,1,1.0000,2.1000,0,0,180.0*
1,1,1.1000,-0.5000,0.5000*
1,1,1.1000,0.5000,0.5000*
1,1,1.1000,0.5000,-0.5000*
1,1,1.1000,-0.5000,-0.5000*
%
%ADD227ROUNDEDRECTD227*%
%ADD297R,1.7000X1.7000*%
%ADD350R,0.8300X0.2600*%
%ADD351R,0.2600X0.8700*%
%ADD352R,0.2600X0.9700*%
G04:AMPARAMS|DCode=353|XSize=0.67mm|YSize=0.27mm|CornerRadius=0.11mm|HoleSize=0mm|Usage=FLASHONLY|Rotation=90.000|XOffset=0mm|YOffset=0mm|HoleType=Round|Shape=RoundedRectangle|*
%AMROUNDEDRECTD353*
21,1,0.6700,0.0500,0,0,90.0*
21,1,0.4500,0.2700,0,0,90.0*
1,1,0.2200,0.0250,0.2250*
1,1,0.2200,0.0250,-0.2250*
1,1,0.2200,-0.0250,-0.2250*
1,1,0.2200,-0.0250,0.2250*
%
%ADD353ROUNDEDRECTD353*%
G04:AMPARAMS|DCode=354|XSize=0.67mm|YSize=0.27mm|CornerRadius=0.085mm|HoleSize=0mm|Usage=FLASHONLY|Rotation=180.000|XOffset=0mm|YOffset=0mm|HoleType=Round|Shape=RoundedRectangle|*
%AMROUNDEDRECTD354*
21,1,0.6700,0.1000,0,0,180.0*
21,1,0.5000,0.2700,0,0,180.0*
1,1,0.1700,-0.2500,0.0500*
1,1,0.1700,0.2500,0.0500*
1,1,0.1700,0.2500,-0.0500*
1,1,0.1700,-0.2500,-0.0500*
%
%ADD354ROUNDEDRECTD354*%
G04:AMPARAMS|DCode=355|XSize=0.67mm|YSize=0.27mm|CornerRadius=0.11mm|HoleSize=0mm|Usage=FLASHONLY|Rotation=180.000|XOffset=0mm|YOffset=0mm|HoleType=Round|Shape=RoundedRectangle|*
%AMROUNDEDRECTD355*
21,1,0.6700,0.0500,0,0,180.0*
21,1,0.4500,0.2700,0,0,180.0*
1,1,0.2200,-0.2250,0.0250*
1,1,0.2200,0.2250,0.0250*
1,1,0.2200,0.2250,-0.0250*
1,1,0.2200,-0.2250,-0.0250*
%
%ADD355ROUNDEDRECTD355*%
G04:AMPARAMS|DCode=356|XSize=0.27mm|YSize=0.67mm|CornerRadius=0.11mm|HoleSize=0mm|Usage=FLASHONLY|Rotation=180.000|XOffset=0mm|YOffset=0mm|HoleType=Round|Shape=RoundedRectangle|*
%AMROUNDEDRECTD356*
21,1,0.2700,0.4500,0,0,180.0*
21,1,0.0500,0.6700,0,0,180.0*
1,1,0.2200,-0.0250,0.2250*
1,1,0.2200,0.0250,0.2250*
1,1,0.2200,0.0250,-0.2250*
1,1,0.2200,-0.0250,-0.2250*
%
%ADD356ROUNDEDRECTD356*%
G04:AMPARAMS|DCode=357|XSize=1.07mm|YSize=1.87mm|CornerRadius=0.285mm|HoleSize=0mm|Usage=FLASHONLY|Rotation=180.000|XOffset=0mm|YOffset=0mm|HoleType=Round|Shape=RoundedRectangle|*
%AMROUNDEDRECTD357*
21,1,1.0700,1.3000,0,0,180.0*
21,1,0.5000,1.8700,0,0,180.0*
1,1,0.5700,-0.2500,0.6500*
1,1,0.5700,0.2500,0.6500*
1,1,0.5700,0.2500,-0.6500*
1,1,0.5700,-0.2500,-0.6500*
%
%ADD357ROUNDEDRECTD357*%
G04:AMPARAMS|DCode=358|XSize=0.27mm|YSize=0.67mm|CornerRadius=0.11mm|HoleSize=0mm|Usage=FLASHONLY|Rotation=90.000|XOffset=0mm|YOffset=0mm|HoleType=Round|Shape=RoundedRectangle|*
%AMROUNDEDRECTD358*
21,1,0.2700,0.4500,0,0,90.0*
21,1,0.0500,0.6700,0,0,90.0*
1,1,0.2200,0.2250,0.0250*
1,1,0.2200,0.2250,-0.0250*
1,1,0.2200,-0.2250,-0.0250*
1,1,0.2200,-0.2250,0.0250*
%
%ADD358ROUNDEDRECTD358*%
G04:AMPARAMS|DCode=359|XSize=1.07mm|YSize=1.87mm|CornerRadius=0.285mm|HoleSize=0mm|Usage=FLASHONLY|Rotation=90.000|XOffset=0mm|YOffset=0mm|HoleType=Round|Shape=RoundedRectangle|*
%AMROUNDEDRECTD359*
21,1,1.0700,1.3000,0,0,90.0*
21,1,0.5000,1.8700,0,0,90.0*
1,1,0.5700,0.6500,0.2500*
1,1,0.5700,0.6500,-0.2500*
1,1,0.5700,-0.6500,-0.2500*
1,1,0.5700,-0.6500,0.2500*
%
%ADD359ROUNDEDRECTD359*%
G04:AMPARAMS|DCode=360|XSize=0.67mm|YSize=0.27mm|CornerRadius=0.085mm|HoleSize=0mm|Usage=FLASHONLY|Rotation=90.000|XOffset=0mm|YOffset=0mm|HoleType=Round|Shape=RoundedRectangle|*
%AMROUNDEDRECTD360*
21,1,0.6700,0.1000,0,0,90.0*
21,1,0.5000,0.2700,0,0,90.0*
1,1,0.1700,0.0500,0.2500*
1,1,0.1700,0.0500,-0.2500*
1,1,0.1700,-0.0500,-0.2500*
1,1,0.1700,-0.0500,0.2500*
%
%ADD360ROUNDEDRECTD360*%
%ADD361R,0.8100X0.2800*%
%ADD362R,0.2800X0.8700*%
%ADD363R,0.2800X0.9700*%
%ADD364R,0.3500X0.6250*%
G04:AMPARAMS|DCode=365|XSize=0.41mm|YSize=0.4mm|CornerRadius=0mm|HoleSize=0mm|Usage=FLASHONLY|Rotation=225.000|XOffset=0mm|YOffset=0mm|HoleType=Round|Shape=Rectangle|*
%AMROTATEDRECTD365*
4,1,4,0.0035,0.2864,0.2864,0.0035,-0.0035,-0.2864,-0.2864,-0.0035,0.0035,0.2864,0.0*
%
%ADD365ROTATEDRECTD365*%

G04:AMPARAMS|DCode=366|XSize=0.7mm|YSize=0.8mm|CornerRadius=0.125mm|HoleSize=0mm|Usage=FLASHONLY|Rotation=0.000|XOffset=0mm|YOffset=0mm|HoleType=Round|Shape=RoundedRectangle|*
%AMROUNDEDRECTD366*
21,1,0.7000,0.5500,0,0,0.0*
21,1,0.4500,0.8000,0,0,0.0*
1,1,0.2500,0.2250,-0.2750*
1,1,0.2500,-0.2250,-0.2750*
1,1,0.2500,-0.2250,0.2750*
1,1,0.2500,0.2250,0.2750*
%
%ADD366ROUNDEDRECTD366*%
G04:AMPARAMS|DCode=367|XSize=1.8mm|YSize=0.55mm|CornerRadius=0.1625mm|HoleSize=0mm|Usage=FLASHONLY|Rotation=180.000|XOffset=0mm|YOffset=0mm|HoleType=Round|Shape=RoundedRectangle|*
%AMROUNDEDRECTD367*
21,1,1.8000,0.2250,0,0,180.0*
21,1,1.4750,0.5500,0,0,180.0*
1,1,0.3250,-0.7375,0.1125*
1,1,0.3250,0.7375,0.1125*
1,1,0.3250,0.7375,-0.1125*
1,1,0.3250,-0.7375,-0.1125*
%
%ADD367ROUNDEDRECTD367*%
G04:AMPARAMS|DCode=368|XSize=1.9mm|YSize=1.25mm|CornerRadius=0.1938mm|HoleSize=0mm|Usage=FLASHONLY|Rotation=270.000|XOffset=0mm|YOffset=0mm|HoleType=Round|Shape=RoundedRectangle|*
%AMROUNDEDRECTD368*
21,1,1.9000,0.8625,0,0,270.0*
21,1,1.5125,1.2500,0,0,270.0*
1,1,0.3875,-0.4313,-0.7563*
1,1,0.3875,-0.4313,0.7563*
1,1,0.3875,0.4313,0.7563*
1,1,0.3875,0.4313,-0.7563*
%
%ADD368ROUNDEDRECTD368*%
%ADD369R,0.4500X1.6000*%
G04:AMPARAMS|DCode=370|XSize=0.7mm|YSize=1.1mm|CornerRadius=0.125mm|HoleSize=0mm|Usage=FLASHONLY|Rotation=0.000|XOffset=0mm|YOffset=0mm|HoleType=Round|Shape=RoundedRectangle|*
%AMROUNDEDRECTD370*
21,1,0.7000,0.8500,0,0,0.0*
21,1,0.4500,1.1000,0,0,0.0*
1,1,0.2500,0.2250,-0.4250*
1,1,0.2500,-0.2250,-0.4250*
1,1,0.2500,-0.2250,0.4250*
1,1,0.2500,0.2250,0.4250*
%
%ADD370ROUNDEDRECTD370*%
G04:AMPARAMS|DCode=371|XSize=2.6mm|YSize=2.1mm|CornerRadius=0.3mm|HoleSize=0mm|Usage=FLASHONLY|Rotation=180.000|XOffset=0mm|YOffset=0mm|HoleType=Round|Shape=RoundedRectangle|*
%AMROUNDEDRECTD371*
21,1,2.6000,1.5000,0,0,180.0*
21,1,2.0000,2.1000,0,0,180.0*
1,1,0.6000,-1.0000,0.7500*
1,1,0.6000,1.0000,0.7500*
1,1,0.6000,1.0000,-0.7500*
1,1,0.6000,-1.0000,-0.7500*
%
%ADD371ROUNDEDRECTD371*%
G04:AMPARAMS|DCode=372|XSize=1.4mm|YSize=0.9mm|CornerRadius=0.15mm|HoleSize=0mm|Usage=FLASHONLY|Rotation=90.000|XOffset=0mm|YOffset=0mm|HoleType=Round|Shape=RoundedRectangle|*
%AMROUNDEDRECTD372*
21,1,1.4000,0.6000,0,0,90.0*
21,1,1.1000,0.9000,0,0,90.0*
1,1,0.3000,0.3000,0.5500*
1,1,0.3000,0.3000,-0.5500*
1,1,0.3000,-0.3000,-0.5500*
1,1,0.3000,-0.3000,0.5500*
%
%ADD372ROUNDEDRECTD372*%
G04:AMPARAMS|DCode=373|XSize=0.7mm|YSize=1.1mm|CornerRadius=0.125mm|HoleSize=0mm|Usage=FLASHONLY|Rotation=90.000|XOffset=0mm|YOffset=0mm|HoleType=Round|Shape=RoundedRectangle|*
%AMROUNDEDRECTD373*
21,1,0.7000,0.8500,0,0,90.0*
21,1,0.4500,1.1000,0,0,90.0*
1,1,0.2500,0.4250,0.2250*
1,1,0.2500,0.4250,-0.2250*
1,1,0.2500,-0.4250,-0.2250*
1,1,0.2500,-0.4250,0.2250*
%
%ADD373ROUNDEDRECTD373*%
G04:AMPARAMS|DCode=374|XSize=1.5mm|YSize=1.3mm|CornerRadius=0.2mm|HoleSize=0mm|Usage=FLASHONLY|Rotation=270.000|XOffset=0mm|YOffset=0mm|HoleType=Round|Shape=RoundedRectangle|*
%AMROUNDEDRECTD374*
21,1,1.5000,0.9000,0,0,270.0*
21,1,1.1000,1.3000,0,0,270.0*
1,1,0.4000,-0.4500,-0.5500*
1,1,0.4000,-0.4500,0.5500*
1,1,0.4000,0.4500,0.5500*
1,1,0.4000,0.4500,-0.5500*
%
%ADD374ROUNDEDRECTD374*%
%ADD375O,0.7000X1.8000*%
%ADD376R,1.8000X1.8000*%
%ADD377R,0.3900X0.7400*%
G04:AMPARAMS|DCode=378|XSize=0.4mm|YSize=0.8mm|CornerRadius=0.125mm|HoleSize=0mm|Usage=FLASHONLY|Rotation=270.000|XOffset=0mm|YOffset=0mm|HoleType=Round|Shape=RoundedRectangle|*
%AMROUNDEDRECTD378*
21,1,0.4000,0.5500,0,0,270.0*
21,1,0.1500,0.8000,0,0,270.0*
1,1,0.2500,-0.2750,-0.0750*
1,1,0.2500,-0.2750,0.0750*
1,1,0.2500,0.2750,0.0750*
1,1,0.2500,0.2750,-0.0750*
%
%ADD378ROUNDEDRECTD378*%
G04:AMPARAMS|DCode=379|XSize=0.4mm|YSize=0.8mm|CornerRadius=0.125mm|HoleSize=0mm|Usage=FLASHONLY|Rotation=0.000|XOffset=0mm|YOffset=0mm|HoleType=Round|Shape=RoundedRectangle|*
%AMROUNDEDRECTD379*
21,1,0.4000,0.5500,0,0,0.0*
21,1,0.1500,0.8000,0,0,0.0*
1,1,0.2500,0.0750,-0.2750*
1,1,0.2500,-0.0750,-0.2750*
1,1,0.2500,-0.0750,0.2750*
1,1,0.2500,0.0750,0.2750*
%
%ADD379ROUNDEDRECTD379*%
%ADD380R,4.8000X4.8000*%
%ADD381R,0.4000X0.8000*%
%ADD382R,1.7000X1.5000*%
G04:AMPARAMS|DCode=383|XSize=1.7mm|YSize=3.75mm|CornerRadius=0.45mm|HoleSize=0mm|Usage=FLASHONLY|Rotation=90.000|XOffset=0mm|YOffset=0mm|HoleType=Round|Shape=RoundedRectangle|*
%AMROUNDEDRECTD383*
21,1,1.7000,2.8500,0,0,90.0*
21,1,0.8000,3.7500,0,0,90.0*
1,1,0.9000,1.4250,0.4000*
1,1,0.9000,1.4250,-0.4000*
1,1,0.9000,-1.4250,-0.4000*
1,1,0.9000,-1.4250,0.4000*
%
%ADD383ROUNDEDRECTD383*%
G04:AMPARAMS|DCode=384|XSize=1.1mm|YSize=1.6mm|CornerRadius=0.3mm|HoleSize=0mm|Usage=FLASHONLY|Rotation=90.000|XOffset=0mm|YOffset=0mm|HoleType=Round|Shape=RoundedRectangle|*
%AMROUNDEDRECTD384*
21,1,1.1000,1.0000,0,0,90.0*
21,1,0.5000,1.6000,0,0,90.0*
1,1,0.6000,0.5000,0.2500*
1,1,0.6000,0.5000,-0.2500*
1,1,0.6000,-0.5000,-0.2500*
1,1,0.6000,-0.5000,0.2500*
%
%ADD384ROUNDEDRECTD384*%
G04:AMPARAMS|DCode=385|XSize=3.7mm|YSize=1.6mm|CornerRadius=0.2375mm|HoleSize=0mm|Usage=FLASHONLY|Rotation=0.000|XOffset=0mm|YOffset=0mm|HoleType=Round|Shape=RoundedRectangle|*
%AMROUNDEDRECTD385*
21,1,3.7000,1.1250,0,0,0.0*
21,1,3.2250,1.6000,0,0,0.0*
1,1,0.4750,1.6125,-0.5625*
1,1,0.4750,-1.6125,-0.5625*
1,1,0.4750,-1.6125,0.5625*
1,1,0.4750,1.6125,0.5625*
%
%ADD385ROUNDEDRECTD385*%
G04:AMPARAMS|DCode=386|XSize=0.55mm|YSize=0.8mm|CornerRadius=0.1063mm|HoleSize=0mm|Usage=FLASHONLY|Rotation=180.000|XOffset=0mm|YOffset=0mm|HoleType=Round|Shape=RoundedRectangle|*
%AMROUNDEDRECTD386*
21,1,0.5500,0.5875,0,0,180.0*
21,1,0.3375,0.8000,0,0,180.0*
1,1,0.2125,-0.1688,0.2938*
1,1,0.2125,0.1688,0.2938*
1,1,0.2125,0.1688,-0.2938*
1,1,0.2125,-0.1688,-0.2938*
%
%ADD386ROUNDEDRECTD386*%
%ADD387R,2.6000X2.6000*%
%ADD388O,0.3500X1.0000*%
%ADD389O,1.0000X0.3500*%
%ADD390R,0.5000X1.1000*%
%ADD391R,2.2000X2.2000*%
%ADD392R,0.9500X0.4000*%
%ADD393R,0.4000X0.9500*%
%ADD394R,0.5000X0.9500*%
%ADD395R,2.4500X1.7000*%
%ADD396R,0.4000X0.8000*%
G04:AMPARAMS|DCode=397|XSize=1.7mm|YSize=3.75mm|CornerRadius=0.45mm|HoleSize=0mm|Usage=FLASHONLY|Rotation=180.000|XOffset=0mm|YOffset=0mm|HoleType=Round|Shape=RoundedRectangle|*
%AMROUNDEDRECTD397*
21,1,1.7000,2.8500,0,0,180.0*
21,1,0.8000,3.7500,0,0,180.0*
1,1,0.9000,-0.4000,1.4250*
1,1,0.9000,0.4000,1.4250*
1,1,0.9000,0.4000,-1.4250*
1,1,0.9000,-0.4000,-1.4250*
%
%ADD397ROUNDEDRECTD397*%
%ADD398R,1.8000X2.6000*%
G04:AMPARAMS|DCode=399|XSize=1.8mm|YSize=2.1mm|CornerRadius=0.475mm|HoleSize=0mm|Usage=FLASHONLY|Rotation=90.000|XOffset=0mm|YOffset=0mm|HoleType=Round|Shape=RoundedRectangle|*
%AMROUNDEDRECTD399*
21,1,1.8000,1.1500,0,0,90.0*
21,1,0.8500,2.1000,0,0,90.0*
1,1,0.9500,0.5750,0.4250*
1,1,0.9500,0.5750,-0.4250*
1,1,0.9500,-0.5750,-0.4250*
1,1,0.9500,-0.5750,0.4250*
%
%ADD399ROUNDEDRECTD399*%
%ADD400R,1.3000X1.6000*%
%ADD401R,1.0000X1.5000*%
%ADD402R,0.8000X1.4500*%
%ADD403R,1.4500X0.8000*%
%ADD404R,1.1000X1.4500*%
G04:AMPARAMS|DCode=405|XSize=1mm|YSize=1mm|CornerRadius=0.1625mm|HoleSize=0mm|Usage=FLASHONLY|Rotation=0.000|XOffset=0mm|YOffset=0mm|HoleType=Round|Shape=RoundedRectangle|*
%AMROUNDEDRECTD405*
21,1,1.0000,0.6750,0,0,0.0*
21,1,0.6750,1.0000,0,0,0.0*
1,1,0.3250,0.3375,-0.3375*
1,1,0.3250,-0.3375,-0.3375*
1,1,0.3250,-0.3375,0.3375*
1,1,0.3250,0.3375,0.3375*
%
%ADD405ROUNDEDRECTD405*%
%ADD406R,0.3500X0.7250*%
%ADD407R,1.0000X1.9400*%
G04:AMPARAMS|DCode=408|XSize=1.32mm|YSize=1.01mm|CornerRadius=0.1638mm|HoleSize=0mm|Usage=FLASHONLY|Rotation=180.000|XOffset=0mm|YOffset=0mm|HoleType=Round|Shape=RoundedRectangle|*
%AMROUNDEDRECTD408*
21,1,1.3200,0.6825,0,0,180.0*
21,1,0.9925,1.0100,0,0,180.0*
1,1,0.3275,-0.4963,0.3413*
1,1,0.3275,0.4963,0.3413*
1,1,0.3275,0.4963,-0.3413*
1,1,0.3275,-0.4963,-0.3413*
%
%ADD408ROUNDEDRECTD408*%
%ADD409R,0.3500X1.0000*%
%ADD410R,1.0000X0.3500*%
%ADD411R,1.0000X2.0000*%
%ADD412O,0.8000X2.6000*%
%ADD413R,3.2000X4.4000*%
%ADD414R,1.7000X0.4600*%
%ADD415R,0.7500X1.6250*%
%ADD416R,0.4600X1.1000*%
%ADD417R,0.3550X0.6000*%
%ADD418R,0.7100X1.3700*%
%ADD419R,0.7100X0.8700*%
%ADD420R,4.0100X3.8500*%
G04:AMPARAMS|DCode=421|XSize=1.1mm|YSize=1.9mm|CornerRadius=0.3mm|HoleSize=0mm|Usage=FLASHONLY|Rotation=180.000|XOffset=0mm|YOffset=0mm|HoleType=Round|Shape=RoundedRectangle|*
%AMROUNDEDRECTD421*
21,1,1.1000,1.3000,0,0,180.0*
21,1,0.5000,1.9000,0,0,180.0*
1,1,0.6000,-0.2500,0.6500*
1,1,0.6000,0.2500,0.6500*
1,1,0.6000,0.2500,-0.6500*
1,1,0.6000,-0.2500,-0.6500*
%
%ADD421ROUNDEDRECTD421*%
G04:AMPARAMS|DCode=422|XSize=0.3393mm|YSize=0.8811mm|CornerRadius=0.1098mm|HoleSize=0mm|Usage=FLASHONLY|Rotation=180.000|XOffset=0mm|YOffset=0mm|HoleType=Round|Shape=RoundedRectangle|*
%AMROUNDEDRECTD422*
21,1,0.3393,0.6614,0,0,180.0*
21,1,0.1196,0.8811,0,0,180.0*
1,1,0.2196,-0.0598,0.3307*
1,1,0.2196,0.0598,0.3307*
1,1,0.2196,0.0598,-0.3307*
1,1,0.2196,-0.0598,-0.3307*
%
%ADD422ROUNDEDRECTD422*%
G04:AMPARAMS|DCode=423|XSize=0.8811mm|YSize=0.3393mm|CornerRadius=0.1098mm|HoleSize=0mm|Usage=FLASHONLY|Rotation=180.000|XOffset=0mm|YOffset=0mm|HoleType=Round|Shape=RoundedRectangle|*
%AMROUNDEDRECTD423*
21,1,0.8811,0.1196,0,0,180.0*
21,1,0.6614,0.3393,0,0,180.0*
1,1,0.2196,-0.3307,0.0598*
1,1,0.2196,0.3307,0.0598*
1,1,0.2196,0.3307,-0.0598*
1,1,0.2196,-0.3307,-0.0598*
%
%ADD423ROUNDEDRECTD423*%
%ADD424R,0.8811X0.3393*%
%ADD425R,2.8000X2.8000*%
G04:AMPARAMS|DCode=426|XSize=1.4mm|YSize=0.9mm|CornerRadius=0.15mm|HoleSize=0mm|Usage=FLASHONLY|Rotation=180.000|XOffset=0mm|YOffset=0mm|HoleType=Round|Shape=RoundedRectangle|*
%AMROUNDEDRECTD426*
21,1,1.4000,0.6000,0,0,180.0*
21,1,1.1000,0.9000,0,0,180.0*
1,1,0.3000,-0.5500,0.3000*
1,1,0.3000,0.5500,0.3000*
1,1,0.3000,0.5500,-0.3000*
1,1,0.3000,-0.5500,-0.3000*
%
%ADD426ROUNDEDRECTD426*%
%ADD427R,1.1000X0.4600*%
G36*
X568000Y1028250D02*
Y1026200D01*
X565550Y1023750D01*
X544950D01*
X543250Y1025450D01*
Y1024250D01*
X535250D01*
Y1025450D01*
X533550Y1023750D01*
X512950D01*
X510500Y1026200D01*
Y1028250D01*
X516000Y1033750D01*
X530500D01*
X536000Y1028250D01*
Y1026250D01*
X542500D01*
Y1028250D01*
X548000Y1033750D01*
X562500D01*
X568000Y1028250D01*
D02*
G37*
G36*
X75250Y775250D02*
X55750D01*
X55750Y784250D01*
X75250D01*
X75250Y775250D01*
D02*
G37*
G36*
X75250Y758250D02*
X55750D01*
Y767250D01*
X75250D01*
Y758250D01*
D02*
G37*
G36*
X177250Y677500D02*
X173250D01*
Y685500D01*
X177250D01*
Y677500D01*
D02*
G37*
G36*
X170701Y677468D02*
X166701D01*
Y685468D01*
X170701D01*
Y677468D01*
D02*
G37*
G36*
X147581D02*
X143581D01*
Y685468D01*
X147581D01*
Y677468D01*
D02*
G37*
G36*
X136021D02*
X132021D01*
Y685468D01*
X136021D01*
Y677468D01*
D02*
G37*
G36*
X112901D02*
X108901D01*
Y685468D01*
X112901D01*
Y677468D01*
D02*
G37*
G36*
X101341D02*
X97341D01*
Y685468D01*
X101341D01*
Y677468D01*
D02*
G37*
G36*
X159750Y654984D02*
X154093Y649327D01*
X151265Y652155D01*
X156922Y657812D01*
X159750Y654984D01*
D02*
G37*
G36*
X148190D02*
X142533Y649327D01*
X139705Y652155D01*
X145362Y657812D01*
X148190Y654984D01*
D02*
G37*
G36*
X130241Y646498D02*
X126241D01*
Y654499D01*
X130241D01*
Y646498D01*
D02*
G37*
G36*
X118681D02*
X114681D01*
Y654499D01*
X118681D01*
Y646498D01*
D02*
G37*
G36*
X95561Y646498D02*
X91561D01*
Y654499D01*
X95561D01*
Y646498D01*
D02*
G37*
G36*
X84001D02*
X80001D01*
Y654499D01*
X84001D01*
Y646498D01*
D02*
G37*
G36*
X170701Y515468D02*
X166701D01*
Y523468D01*
X170701D01*
Y515468D01*
D02*
G37*
G36*
X147581D02*
X143581D01*
Y523468D01*
X147581D01*
Y515468D01*
D02*
G37*
G36*
X136021D02*
X132021D01*
Y523468D01*
X136021D01*
Y515468D01*
D02*
G37*
G36*
X112901D02*
X108901D01*
Y523468D01*
X112901D01*
Y515468D01*
D02*
G37*
G36*
X101341D02*
X97341D01*
Y523468D01*
X101341D01*
Y515468D01*
D02*
G37*
G36*
X188041Y484499D02*
X184041D01*
Y492499D01*
X188041D01*
Y484499D01*
D02*
G37*
G36*
X164921D02*
X160921D01*
Y492499D01*
X164921D01*
Y484499D01*
D02*
G37*
G36*
X153361D02*
X149361D01*
Y492499D01*
X153361D01*
Y484499D01*
D02*
G37*
G36*
X130241D02*
X126241D01*
Y492499D01*
X130241D01*
Y484499D01*
D02*
G37*
G36*
X118681D02*
X114681D01*
Y492499D01*
X118681D01*
Y484499D01*
D02*
G37*
G36*
X95561D02*
X91561D01*
Y492499D01*
X95561D01*
Y484499D01*
D02*
G37*
G36*
X84001D02*
X80001D01*
Y492499D01*
X84001D01*
Y484499D01*
D02*
G37*
G36*
X113350Y358350D02*
X105350D01*
Y362350D01*
X113350D01*
Y358350D01*
D02*
G37*
G36*
X165000Y346000D02*
X157000D01*
Y350000D01*
X165000D01*
Y346000D01*
D02*
G37*
G36*
X103550Y328500D02*
X95550D01*
Y332500D01*
X103550D01*
Y328500D01*
D02*
G37*
G36*
X165000Y326000D02*
X157000D01*
Y330000D01*
X165000D01*
Y326000D01*
D02*
G37*
G36*
Y286000D02*
X157000D01*
Y290000D01*
X165000D01*
Y286000D01*
D02*
G37*
G36*
X103500Y283500D02*
X95500D01*
Y287500D01*
X103500D01*
Y283500D01*
D02*
G37*
G36*
X165000Y266000D02*
X157000D01*
Y270000D01*
X165000D01*
Y266000D01*
D02*
G37*
G36*
X113350Y253700D02*
X105350D01*
Y257700D01*
X113350D01*
Y253700D01*
D02*
G37*
D64*
X1472250Y400750D02*
D03*
X1274000Y348750D02*
D03*
X983250Y250000D02*
D03*
X1172500Y25300D02*
D03*
X1217500D02*
D03*
D108*
X118750Y23750D02*
D03*
Y33750D02*
D03*
X652000Y492500D02*
D03*
Y482500D02*
D03*
X698628Y487500D02*
D03*
Y477500D02*
D03*
X183500Y123750D02*
D03*
Y133750D02*
D03*
X1415750Y670750D02*
D03*
Y660750D02*
D03*
X630750Y295750D02*
D03*
Y305750D02*
D03*
X653250Y954500D02*
D03*
Y964500D02*
D03*
X1506250Y767000D02*
D03*
Y757000D02*
D03*
X1518500D02*
D03*
Y767000D02*
D03*
X1294250Y324000D02*
D03*
Y334000D02*
D03*
X700161Y778951D02*
D03*
Y768951D02*
D03*
X901750Y655750D02*
D03*
Y645750D02*
D03*
X912750Y655750D02*
D03*
Y645750D02*
D03*
X1122500Y665500D02*
D03*
Y675500D02*
D03*
X1025500Y671000D02*
D03*
Y681000D02*
D03*
X1036500Y681000D02*
D03*
Y691000D02*
D03*
X1328250Y725750D02*
D03*
Y735750D02*
D03*
X1339250Y735750D02*
D03*
Y745750D02*
D03*
X1591000Y324500D02*
D03*
Y334500D02*
D03*
X749760Y443600D02*
D03*
Y453600D02*
D03*
X465750Y314500D02*
D03*
Y304500D02*
D03*
X454000Y336750D02*
D03*
Y326750D02*
D03*
Y347750D02*
D03*
Y357750D02*
D03*
X44250Y293000D02*
D03*
Y303000D02*
D03*
X56500Y293000D02*
D03*
Y303000D02*
D03*
X343870Y283370D02*
D03*
Y273370D02*
D03*
X664250Y196500D02*
D03*
Y206500D02*
D03*
X856849Y167897D02*
D03*
X856849Y157897D02*
D03*
X625400Y161150D02*
D03*
Y171150D02*
D03*
X612700Y161150D02*
D03*
Y171150D02*
D03*
X1307500Y980750D02*
D03*
Y990750D02*
D03*
X1319750Y980750D02*
D03*
Y990750D02*
D03*
X701510Y623350D02*
D03*
Y613350D02*
D03*
X722510Y623350D02*
D03*
Y613350D02*
D03*
X743510Y623350D02*
D03*
Y613350D02*
D03*
X829000Y500000D02*
D03*
Y510000D02*
D03*
X1008000Y214000D02*
D03*
Y204000D02*
D03*
X997000D02*
D03*
Y214000D02*
D03*
X1575737Y500494D02*
D03*
Y490494D02*
D03*
X1563487Y500494D02*
D03*
Y490494D02*
D03*
X541000Y599000D02*
D03*
Y589000D02*
D03*
X1136750Y317750D02*
D03*
Y327750D02*
D03*
X1147750Y317750D02*
D03*
Y327750D02*
D03*
X1140750Y230750D02*
D03*
Y240750D02*
D03*
X1151750Y230750D02*
D03*
Y240750D02*
D03*
X649101Y28525D02*
D03*
Y18525D02*
D03*
X26750Y243750D02*
D03*
Y253750D02*
D03*
X1486500Y584500D02*
D03*
Y574500D02*
D03*
X1551237Y500494D02*
D03*
Y490494D02*
D03*
X108000Y552000D02*
D03*
Y562000D02*
D03*
X65100Y574230D02*
D03*
Y564230D02*
D03*
X65100Y596730D02*
D03*
Y586730D02*
D03*
X86500Y749520D02*
D03*
Y739520D02*
D03*
X1438000Y425500D02*
D03*
Y415500D02*
D03*
X266750Y784250D02*
D03*
Y774250D02*
D03*
X260000Y704500D02*
D03*
Y714500D02*
D03*
X295750Y704500D02*
D03*
Y714500D02*
D03*
X283464Y704536D02*
D03*
Y714536D02*
D03*
X388250Y780750D02*
D03*
Y770750D02*
D03*
X411545Y882475D02*
D03*
Y872475D02*
D03*
X411500Y894750D02*
D03*
Y904750D02*
D03*
X213850Y595730D02*
D03*
Y585730D02*
D03*
X256750Y553380D02*
D03*
Y563380D02*
D03*
X213850Y573230D02*
D03*
Y563230D02*
D03*
X653250Y939500D02*
D03*
Y929500D02*
D03*
X721661Y693451D02*
D03*
Y703451D02*
D03*
X710661Y724701D02*
D03*
Y714701D02*
D03*
X721661Y724701D02*
D03*
Y714701D02*
D03*
X711161Y746701D02*
D03*
Y756701D02*
D03*
X710661Y693451D02*
D03*
Y703451D02*
D03*
X651161Y697951D02*
D03*
Y687951D02*
D03*
X632911Y710701D02*
D03*
Y720701D02*
D03*
X691161Y687951D02*
D03*
Y697951D02*
D03*
X638911Y687951D02*
D03*
Y697951D02*
D03*
X286830Y405800D02*
D03*
Y415800D02*
D03*
X1601987Y345744D02*
D03*
Y355744D02*
D03*
X1531397Y414894D02*
D03*
X1531397Y424894D02*
D03*
X1590987Y355744D02*
D03*
X1590987Y345744D02*
D03*
X1558487Y342394D02*
D03*
Y332394D02*
D03*
X1569994Y345750D02*
D03*
Y355750D02*
D03*
X1544647Y456494D02*
D03*
Y446494D02*
D03*
X72000Y802250D02*
D03*
Y792250D02*
D03*
X59000Y802250D02*
D03*
Y792250D02*
D03*
X718760Y442850D02*
D03*
Y432850D02*
D03*
X764510Y613350D02*
D03*
Y623350D02*
D03*
X785510Y613350D02*
D03*
Y623350D02*
D03*
X806510Y613350D02*
D03*
Y623350D02*
D03*
X827510Y613350D02*
D03*
Y623350D02*
D03*
X1593000Y97750D02*
D03*
Y107750D02*
D03*
X1689990Y104500D02*
D03*
Y114500D02*
D03*
X1636000Y186500D02*
D03*
Y176500D02*
D03*
X1593000Y189500D02*
D03*
Y199500D02*
D03*
X1614000Y176500D02*
D03*
Y186500D02*
D03*
X1625000Y176500D02*
D03*
Y186500D02*
D03*
X1452750Y272250D02*
D03*
Y262250D02*
D03*
X1487400Y41650D02*
D03*
Y31650D02*
D03*
X1432000Y119750D02*
D03*
Y129750D02*
D03*
X1528400Y20650D02*
D03*
Y30650D02*
D03*
X1535630Y757000D02*
D03*
Y767000D02*
D03*
X1547880D02*
D03*
Y757000D02*
D03*
X1339250Y756725D02*
D03*
X1339250Y766725D02*
D03*
X1351500D02*
D03*
Y756725D02*
D03*
X1117150Y691600D02*
D03*
X1117150Y701600D02*
D03*
X1129400D02*
D03*
Y691600D02*
D03*
X1036380Y702000D02*
D03*
Y712000D02*
D03*
X1048630D02*
D03*
Y702000D02*
D03*
D109*
X1590981Y368644D02*
D03*
X1600981D02*
D03*
Y378644D02*
D03*
X1590981D02*
D03*
X217500Y295000D02*
D03*
X207500D02*
D03*
X177500Y281750D02*
D03*
X187500D02*
D03*
X177500Y271750D02*
D03*
X187500D02*
D03*
X152500Y145250D02*
D03*
X162500D02*
D03*
X205500Y168250D02*
D03*
X195500D02*
D03*
X755750Y214750D02*
D03*
X745750D02*
D03*
X762500Y260500D02*
D03*
X752500D02*
D03*
X687000Y331750D02*
D03*
X697000D02*
D03*
X696750Y342500D02*
D03*
X686750D02*
D03*
X213750Y650250D02*
D03*
X203750D02*
D03*
X1600981Y388644D02*
D03*
X1590981D02*
D03*
X386250Y299850D02*
D03*
X376250D02*
D03*
X582750Y161750D02*
D03*
X572750D02*
D03*
X650250D02*
D03*
X640250D02*
D03*
X733510Y591850D02*
D03*
X743510D02*
D03*
X667661Y788451D02*
D03*
X677661D02*
D03*
Y778451D02*
D03*
X667661D02*
D03*
Y768451D02*
D03*
X677661D02*
D03*
X1510750Y235750D02*
D03*
X1500750D02*
D03*
X1510750Y224500D02*
D03*
X1500750D02*
D03*
X722510Y591850D02*
D03*
X712510D02*
D03*
X829000Y531500D02*
D03*
X819000D02*
D03*
X701510Y591850D02*
D03*
X691510D02*
D03*
X940500Y650000D02*
D03*
X930500D02*
D03*
X562000Y599000D02*
D03*
X552000D02*
D03*
X1200250Y43050D02*
D03*
X1190250D02*
D03*
X1126750Y61250D02*
D03*
X1136750D02*
D03*
X1651000Y162000D02*
D03*
X1661000D02*
D03*
X1512500Y324500D02*
D03*
X1502500D02*
D03*
X1512500Y314500D02*
D03*
X1502500D02*
D03*
X1472750Y415500D02*
D03*
X1482750D02*
D03*
X1442854Y675500D02*
D03*
X1432854D02*
D03*
X98000Y613730D02*
D03*
X108000D02*
D03*
X852500Y521490D02*
D03*
X842500D02*
D03*
X1384700Y546880D02*
D03*
X1374700D02*
D03*
X1476500Y472250D02*
D03*
X1486500D02*
D03*
X222250Y785000D02*
D03*
X232250D02*
D03*
X256750Y612730D02*
D03*
X246750D02*
D03*
X632911Y743701D02*
D03*
X622911D02*
D03*
X632911Y732451D02*
D03*
X622911D02*
D03*
X226580Y451150D02*
D03*
X236580D02*
D03*
X216100Y402650D02*
D03*
X206100D02*
D03*
X1531397Y435494D02*
D03*
X1521397D02*
D03*
X1569987Y366244D02*
D03*
X1559987D02*
D03*
X1559994Y376297D02*
D03*
X1569994D02*
D03*
X82000Y823750D02*
D03*
X72000D02*
D03*
X59000D02*
D03*
X49000D02*
D03*
X86525Y761245D02*
D03*
X96525D02*
D03*
X96500Y771250D02*
D03*
X86500D02*
D03*
X749760Y464350D02*
D03*
X759760Y464350D02*
D03*
X754510Y591850D02*
D03*
X764510D02*
D03*
X775510Y591850D02*
D03*
X785510D02*
D03*
X796510Y591850D02*
D03*
X806510D02*
D03*
X817510Y591850D02*
D03*
X827510D02*
D03*
X759760Y474350D02*
D03*
X749760D02*
D03*
X718760Y454600D02*
D03*
X728760D02*
D03*
X718760Y464600D02*
D03*
X728760D02*
D03*
X718760Y474600D02*
D03*
X728760D02*
D03*
X1661000Y182000D02*
D03*
X1651000D02*
D03*
X1572000Y97750D02*
D03*
X1582000D02*
D03*
X1651000Y172000D02*
D03*
X1661000D02*
D03*
X1678250Y158000D02*
D03*
X1688250D02*
D03*
Y168000D02*
D03*
X1678250D02*
D03*
X1572000Y141000D02*
D03*
X1582000D02*
D03*
X1552000Y152000D02*
D03*
X1562000D02*
D03*
X1679490Y114500D02*
D03*
X1669490D02*
D03*
X1624500Y108250D02*
D03*
X1614500D02*
D03*
X1556000Y271000D02*
D03*
X1566000D02*
D03*
X1394250Y85250D02*
D03*
X1404250D02*
D03*
X1314750Y113000D02*
D03*
X1304750D02*
D03*
X1570230Y725150D02*
D03*
X1580230Y725150D02*
D03*
X1601230Y773650D02*
D03*
X1591230D02*
D03*
X1374370Y724875D02*
D03*
X1384370D02*
D03*
X1404850Y773375D02*
D03*
X1394850D02*
D03*
X1152270Y659750D02*
D03*
X1162270D02*
D03*
X1182750Y708250D02*
D03*
X1172750Y708250D02*
D03*
X1071500Y670150D02*
D03*
X1081500D02*
D03*
X1101980Y718650D02*
D03*
X1091980D02*
D03*
X53750Y213250D02*
D03*
X43750D02*
D03*
D113*
X130122Y23736D02*
D03*
X140122D02*
D03*
X676000Y455500D02*
D03*
X686000D02*
D03*
X833500Y674500D02*
D03*
X843500D02*
D03*
X1292000Y585000D02*
D03*
X1282000D02*
D03*
X152500Y134750D02*
D03*
X162500D02*
D03*
Y123750D02*
D03*
X172500D02*
D03*
X174500Y106000D02*
D03*
X184500D02*
D03*
X217000Y95000D02*
D03*
X227000D02*
D03*
X609750Y307250D02*
D03*
X619750D02*
D03*
X786500Y231000D02*
D03*
X796500D02*
D03*
X786500Y220500D02*
D03*
X796500D02*
D03*
X98250Y69750D02*
D03*
X108250D02*
D03*
X1531397Y476750D02*
D03*
X1521397D02*
D03*
X376250Y253285D02*
D03*
X386250D02*
D03*
X386250Y312750D02*
D03*
X376250D02*
D03*
X1273250Y334000D02*
D03*
X1283250D02*
D03*
X718760Y490100D02*
D03*
X728760D02*
D03*
X711161Y768951D02*
D03*
X721161D02*
D03*
X901750Y634750D02*
D03*
X891750D02*
D03*
X77500Y308750D02*
D03*
X67500D02*
D03*
X1108250Y672000D02*
D03*
X1098250D02*
D03*
X1591000Y313500D02*
D03*
X1601000D02*
D03*
X1613750Y331250D02*
D03*
X1603750D02*
D03*
X329250Y264750D02*
D03*
X319250D02*
D03*
X337000Y253750D02*
D03*
X347000D02*
D03*
X406665Y253285D02*
D03*
X396665D02*
D03*
X758750Y241750D02*
D03*
X768750D02*
D03*
X629750Y231500D02*
D03*
X619750D02*
D03*
X629750Y242500D02*
D03*
X619750D02*
D03*
X783500Y266250D02*
D03*
X773500D02*
D03*
X768750Y230750D02*
D03*
X758750D02*
D03*
X783500Y278250D02*
D03*
X773500D02*
D03*
X98250Y58750D02*
D03*
X108250D02*
D03*
X1317500Y1004500D02*
D03*
X1307500D02*
D03*
X1510750Y247500D02*
D03*
X1500750D02*
D03*
X1613321Y662821D02*
D03*
X1623321D02*
D03*
X1613321Y651821D02*
D03*
X1623321D02*
D03*
X1432250Y153000D02*
D03*
X1442250D02*
D03*
X691510Y602350D02*
D03*
X701510D02*
D03*
X712510Y602350D02*
D03*
X722510D02*
D03*
X733510D02*
D03*
X743510D02*
D03*
X829000Y521000D02*
D03*
X819000D02*
D03*
X884099Y186897D02*
D03*
X874099D02*
D03*
X1125750Y317750D02*
D03*
X1115750D02*
D03*
X1129750Y231000D02*
D03*
X1119750D02*
D03*
X1019000Y214000D02*
D03*
X1029000D02*
D03*
X1190250Y53550D02*
D03*
X1200250D02*
D03*
X26750Y213250D02*
D03*
X16750D02*
D03*
X26750Y225780D02*
D03*
X16750D02*
D03*
X754000Y1062250D02*
D03*
X764000D02*
D03*
X861500D02*
D03*
X871500D02*
D03*
X1601000Y532500D02*
D03*
X1611000D02*
D03*
X1601000Y521500D02*
D03*
X1611000D02*
D03*
X1512500Y335000D02*
D03*
X1502500D02*
D03*
X630250Y449720D02*
D03*
X640250D02*
D03*
X634000Y549530D02*
D03*
X624000D02*
D03*
X1436250Y596000D02*
D03*
X1446250D02*
D03*
X1436250Y628000D02*
D03*
X1446250D02*
D03*
X92000Y552130D02*
D03*
X82000D02*
D03*
X82000Y564380D02*
D03*
X92000D02*
D03*
X842500Y578510D02*
D03*
X852500D02*
D03*
X1459000Y415500D02*
D03*
X1449000D02*
D03*
X377125Y912625D02*
D03*
X367125D02*
D03*
X254500Y785000D02*
D03*
X244500D02*
D03*
X377250Y788500D02*
D03*
X367250D02*
D03*
X377250Y773000D02*
D03*
X367250D02*
D03*
X399250Y791750D02*
D03*
X409250D02*
D03*
X399250Y780750D02*
D03*
X409250D02*
D03*
X437500Y878500D02*
D03*
X427500D02*
D03*
X367250Y762000D02*
D03*
X377250D02*
D03*
X240750Y551130D02*
D03*
X230750D02*
D03*
X230750Y563380D02*
D03*
X240750D02*
D03*
X610661Y720701D02*
D03*
X620661D02*
D03*
X616661Y697951D02*
D03*
X626661D02*
D03*
X722161Y746701D02*
D03*
X732161D02*
D03*
X711361Y735750D02*
D03*
X721361D02*
D03*
X237100Y392400D02*
D03*
X227100D02*
D03*
X259600Y392400D02*
D03*
X249600D02*
D03*
X261580Y435300D02*
D03*
X271580D02*
D03*
X261580Y447550D02*
D03*
X271580D02*
D03*
X261580Y416800D02*
D03*
X271580D02*
D03*
X1531397Y446594D02*
D03*
X1521397D02*
D03*
X1554647Y435494D02*
D03*
X1544647D02*
D03*
X72000Y813250D02*
D03*
X82000D02*
D03*
X86250Y886000D02*
D03*
X76250Y886000D02*
D03*
X49000Y813250D02*
D03*
X59000D02*
D03*
X54750Y886250D02*
D03*
X44750D02*
D03*
X749735Y490105D02*
D03*
X739735D02*
D03*
X764510Y602350D02*
D03*
X754510D02*
D03*
X785510Y602350D02*
D03*
X775510D02*
D03*
X806510Y602350D02*
D03*
X796510D02*
D03*
X817510Y602350D02*
D03*
X827510D02*
D03*
X1552000Y130000D02*
D03*
X1542000D02*
D03*
X1672250Y182000D02*
D03*
X1682250D02*
D03*
X1578640Y178400D02*
D03*
X1588640D02*
D03*
X1679490Y125000D02*
D03*
X1669490D02*
D03*
X1572000Y152000D02*
D03*
X1582000D02*
D03*
X1658490Y136000D02*
D03*
X1648490D02*
D03*
X1647990Y104000D02*
D03*
X1657990D02*
D03*
X1522500Y225250D02*
D03*
X1532500D02*
D03*
X1486500Y287500D02*
D03*
X1476500D02*
D03*
X1432000Y140750D02*
D03*
X1442000D02*
D03*
X1432000Y129750D02*
D03*
X1442000D02*
D03*
X1528400Y41650D02*
D03*
X1518400D02*
D03*
X1518250Y60000D02*
D03*
X1528250D02*
D03*
X1497000Y60000D02*
D03*
X1507000D02*
D03*
X1432000Y129750D02*
D03*
X1422000D02*
D03*
X1330750Y113000D02*
D03*
X1340750D02*
D03*
X1347250Y165750D02*
D03*
X1357250D02*
D03*
X1580250Y783880D02*
D03*
X1570250D02*
D03*
X1557730Y783900D02*
D03*
X1547730D02*
D03*
X1383850Y783625D02*
D03*
X1373850D02*
D03*
X1361350Y783625D02*
D03*
X1351350Y783625D02*
D03*
X1161750Y718500D02*
D03*
X1151750D02*
D03*
X1139250D02*
D03*
X1129250Y718500D02*
D03*
X1080980Y728900D02*
D03*
X1070980D02*
D03*
X1058480D02*
D03*
X1048480D02*
D03*
X912101Y32525D02*
D03*
X902101D02*
D03*
X864101Y32525D02*
D03*
X874101D02*
D03*
X837101Y32525D02*
D03*
X827101D02*
D03*
X789101Y32525D02*
D03*
X799101D02*
D03*
X714101D02*
D03*
X724101D02*
D03*
X762101Y32525D02*
D03*
X752101D02*
D03*
X1014101Y32500D02*
D03*
X1024101D02*
D03*
X1062101Y32500D02*
D03*
X1052101D02*
D03*
X939101Y32500D02*
D03*
X949101D02*
D03*
X987101Y32500D02*
D03*
X977101D02*
D03*
X65750Y213250D02*
D03*
X75750D02*
D03*
X45250Y323000D02*
D03*
X35250Y323000D02*
D03*
D115*
X116681Y648249D02*
D03*
Y652748D02*
D03*
X128241Y648249D02*
D03*
Y652748D02*
D03*
X93561Y648249D02*
D03*
Y652748D02*
D03*
X82001Y648249D02*
D03*
Y652748D02*
D03*
X99341Y683718D02*
D03*
Y679218D02*
D03*
X110901Y683718D02*
D03*
Y679218D02*
D03*
X145581Y683718D02*
D03*
Y679218D02*
D03*
X134021Y683718D02*
D03*
Y679218D02*
D03*
X168701Y683718D02*
D03*
Y679218D02*
D03*
X175250Y683750D02*
D03*
Y679250D02*
D03*
X168701Y521718D02*
D03*
Y517218D02*
D03*
X145581Y521718D02*
D03*
Y517218D02*
D03*
X134021Y521718D02*
D03*
Y517218D02*
D03*
X99341Y521718D02*
D03*
Y517218D02*
D03*
X110901Y521718D02*
D03*
Y517218D02*
D03*
X82001Y486249D02*
D03*
Y490749D02*
D03*
X93561Y486249D02*
D03*
Y490749D02*
D03*
X116681Y486249D02*
D03*
Y490749D02*
D03*
X128241Y486249D02*
D03*
Y490749D02*
D03*
X151361Y486249D02*
D03*
Y490749D02*
D03*
X162921Y486249D02*
D03*
Y490749D02*
D03*
X186041Y486249D02*
D03*
Y490749D02*
D03*
D116*
X390250Y879250D02*
D03*
Y896250D02*
D03*
X601000Y1032500D02*
D03*
Y1015500D02*
D03*
X33750Y802000D02*
D03*
Y819000D02*
D03*
X662750Y869750D02*
D03*
Y886750D02*
D03*
X465500Y785750D02*
D03*
Y802750D02*
D03*
X345750Y839000D02*
D03*
Y822000D02*
D03*
X637750Y967750D02*
D03*
Y950750D02*
D03*
X1334750Y165750D02*
D03*
X1334750Y182750D02*
D03*
D124*
X652000Y461500D02*
D03*
X652000Y471500D02*
D03*
X863750Y655000D02*
D03*
Y645000D02*
D03*
X205750Y220750D02*
D03*
Y230750D02*
D03*
X183250Y233500D02*
D03*
Y223500D02*
D03*
X173228Y233500D02*
D03*
Y223500D02*
D03*
X260500Y118000D02*
D03*
Y108000D02*
D03*
X205750Y181500D02*
D03*
Y191500D02*
D03*
X641250Y285750D02*
D03*
Y295750D02*
D03*
X198500Y497250D02*
D03*
Y507250D02*
D03*
X336500Y315250D02*
D03*
Y305250D02*
D03*
X402100Y273370D02*
D03*
Y283370D02*
D03*
X653750Y196500D02*
D03*
Y186500D02*
D03*
X816500Y110250D02*
D03*
Y120250D02*
D03*
X707500Y340500D02*
D03*
Y330500D02*
D03*
X717485Y330475D02*
D03*
X717485Y340475D02*
D03*
X653750Y208250D02*
D03*
Y218250D02*
D03*
X433750Y896000D02*
D03*
Y906000D02*
D03*
X18000Y812000D02*
D03*
Y802000D02*
D03*
X370250Y956500D02*
D03*
Y966500D02*
D03*
X856250Y907250D02*
D03*
Y917250D02*
D03*
X1130750Y653750D02*
D03*
Y643750D02*
D03*
X1119500Y643750D02*
D03*
Y653750D02*
D03*
X1463250Y756000D02*
D03*
Y746000D02*
D03*
X1473250D02*
D03*
Y756000D02*
D03*
X1636321Y647321D02*
D03*
Y657321D02*
D03*
X1658500Y288500D02*
D03*
Y298500D02*
D03*
X608380Y418000D02*
D03*
Y428000D02*
D03*
X662120Y418000D02*
D03*
Y428000D02*
D03*
X628500Y596000D02*
D03*
Y606000D02*
D03*
X602130Y580750D02*
D03*
Y570750D02*
D03*
X518000Y345500D02*
D03*
Y335500D02*
D03*
X518000Y317597D02*
D03*
Y307597D02*
D03*
X1436250Y607000D02*
D03*
Y617000D02*
D03*
X1505500Y503750D02*
D03*
Y493750D02*
D03*
X65100Y607730D02*
D03*
Y617730D02*
D03*
X123850Y597250D02*
D03*
Y587250D02*
D03*
X1261750Y263250D02*
D03*
X1261750Y253250D02*
D03*
X1238750Y319000D02*
D03*
Y309000D02*
D03*
X1574832Y307950D02*
D03*
Y317950D02*
D03*
X272600Y586250D02*
D03*
X272600Y596250D02*
D03*
X224100Y616730D02*
D03*
Y606730D02*
D03*
X688911Y768951D02*
D03*
Y778951D02*
D03*
X210100Y425300D02*
D03*
Y435300D02*
D03*
X1544737Y378744D02*
D03*
Y388744D02*
D03*
X1570012Y434879D02*
D03*
Y444879D02*
D03*
X1562500Y130000D02*
D03*
Y120000D02*
D03*
X1582500D02*
D03*
Y130000D02*
D03*
X1572500Y120000D02*
D03*
Y130000D02*
D03*
X1604000Y97750D02*
D03*
Y107750D02*
D03*
X1647990Y125000D02*
D03*
Y115000D02*
D03*
X1657990Y125000D02*
D03*
Y115000D02*
D03*
X1603500Y186500D02*
D03*
Y176500D02*
D03*
X1522500Y237500D02*
D03*
Y247500D02*
D03*
Y203000D02*
D03*
Y213000D02*
D03*
X1533500Y247500D02*
D03*
X1533500Y237500D02*
D03*
X1487000Y298500D02*
D03*
Y308500D02*
D03*
X1464500Y272250D02*
D03*
Y262250D02*
D03*
X1475750Y272250D02*
D03*
Y262250D02*
D03*
X1555750Y291000D02*
D03*
Y301000D02*
D03*
X1487000Y272250D02*
D03*
Y262250D02*
D03*
X1497900Y41650D02*
D03*
Y31650D02*
D03*
X1507900Y41650D02*
D03*
Y31650D02*
D03*
X1403750Y60000D02*
D03*
Y70000D02*
D03*
X1393750Y60000D02*
D03*
X1393750Y70000D02*
D03*
X1363000Y129750D02*
D03*
Y119750D02*
D03*
X1314750Y102500D02*
D03*
Y92500D02*
D03*
X1353000Y129750D02*
D03*
Y119750D02*
D03*
X1322000Y165750D02*
D03*
Y175750D02*
D03*
X1312000D02*
D03*
Y165750D02*
D03*
X1597230Y741000D02*
D03*
Y751000D02*
D03*
X1400850Y740725D02*
D03*
Y750725D02*
D03*
X1178750Y675600D02*
D03*
Y685600D02*
D03*
X1097980Y686000D02*
D03*
Y696000D02*
D03*
D127*
X-80150Y-80000D02*
D03*
X1780150Y-80000D02*
D03*
X1780150Y1180000D02*
D03*
X-80150Y1180000D02*
D03*
D148*
X470876Y21630D02*
D03*
X496304D02*
D03*
X521733D02*
D03*
X423990Y150750D02*
D03*
X398590D02*
D03*
X279590Y150750D02*
D03*
X304990D02*
D03*
X1390785Y453035D02*
D03*
X1416214Y453035D02*
D03*
X1390785Y427607D02*
D03*
X1416214Y478464D02*
D03*
X1390786Y478464D02*
D03*
X304990Y90250D02*
D03*
X279590D02*
D03*
X241857Y468000D02*
D03*
X267286D02*
D03*
X292714D02*
D03*
X860714Y850786D02*
D03*
X835286Y876214D02*
D03*
Y850786D02*
D03*
X131700Y90500D02*
D03*
X1307500Y1024050D02*
D03*
X398590Y211250D02*
D03*
X423990D02*
D03*
X398590Y90250D02*
D03*
X423990D02*
D03*
X194950Y90500D02*
D03*
X279590Y20380D02*
D03*
X304990D02*
D03*
X398700Y20500D02*
D03*
X1505500Y428286D02*
D03*
Y453714D02*
D03*
Y479143D02*
D03*
X140000Y929786D02*
D03*
Y955214D02*
D03*
Y980643D02*
D03*
D151*
X442250Y949500D02*
D03*
Y921500D02*
D03*
D154*
X236500Y772750D02*
D03*
X219500D02*
D03*
X153500Y774500D02*
D03*
X136500D02*
D03*
X538500Y991000D02*
D03*
X555500D02*
D03*
X267500Y806000D02*
D03*
X284500D02*
D03*
X218750Y745250D02*
D03*
X235750D02*
D03*
D155*
X254250Y762000D02*
D03*
Y732000D02*
D03*
X220000Y349250D02*
D03*
Y379250D02*
D03*
X76250Y840500D02*
D03*
X76250Y870500D02*
D03*
X54750Y840500D02*
D03*
Y870500D02*
D03*
D158*
X97250Y285500D02*
D03*
X101750D02*
D03*
X163250Y348000D02*
D03*
X158750D02*
D03*
X163250Y328000D02*
D03*
X158750D02*
D03*
X163250Y288000D02*
D03*
X158750D02*
D03*
X163250Y268000D02*
D03*
X158750D02*
D03*
X111600Y360350D02*
D03*
X107100D02*
D03*
X101800Y330500D02*
D03*
X97300D02*
D03*
X111600Y255700D02*
D03*
X107100D02*
D03*
D182*
X512500Y945250D02*
D03*
X558500D02*
D03*
X240750Y812250D02*
D03*
X194750D02*
D03*
D183*
X490000Y695250D02*
D03*
X1400750Y258000D02*
D03*
X1630800Y546800D02*
D03*
Y521400D02*
D03*
X1630800Y496000D02*
D03*
X1630800Y470600D02*
D03*
Y445200D02*
D03*
Y419800D02*
D03*
Y394400D02*
D03*
X1630800Y369000D02*
D03*
X1630800Y343600D02*
D03*
Y318200D02*
D03*
X1656200Y546800D02*
D03*
Y521400D02*
D03*
X1656200Y496000D02*
D03*
X1656200Y470600D02*
D03*
Y445200D02*
D03*
Y419800D02*
D03*
Y394400D02*
D03*
X1656200Y369000D02*
D03*
X1656200Y343600D02*
D03*
D184*
X1233500Y469750D02*
D03*
X466250Y508250D02*
D03*
D185*
X83000Y298000D02*
D03*
Y273000D02*
D03*
X843500Y996750D02*
D03*
Y971750D02*
D03*
X786000Y915250D02*
D03*
Y940250D02*
D03*
X812250Y891750D02*
D03*
Y916750D02*
D03*
X831000Y891750D02*
D03*
Y916750D02*
D03*
X881750Y916750D02*
D03*
Y891750D02*
D03*
X900450Y916750D02*
D03*
Y891750D02*
D03*
D190*
X472000Y911750D02*
D03*
X492000D02*
D03*
D192*
X445447Y21630D02*
D03*
X318143Y468000D02*
D03*
X860714Y876214D02*
D03*
D193*
X99100Y343000D02*
D03*
Y318000D02*
D03*
Y298000D02*
D03*
Y273000D02*
D03*
X114100Y268000D02*
D03*
Y288000D02*
D03*
Y308000D02*
D03*
Y328000D02*
D03*
Y348000D02*
D03*
X131100Y343000D02*
D03*
Y318000D02*
D03*
Y298000D02*
D03*
Y273000D02*
D03*
X146100Y308000D02*
D03*
Y348000D02*
D03*
Y328000D02*
D03*
Y288000D02*
D03*
Y268000D02*
D03*
D194*
X135900Y373700D02*
D03*
Y242300D02*
D03*
X79100Y373700D02*
D03*
Y242300D02*
D03*
D195*
X1529964Y558964D02*
D03*
X1504536D02*
D03*
X1529964Y584393D02*
D03*
X1504536Y584393D02*
D03*
X1529964Y609822D02*
D03*
X1504536D02*
D03*
X1529964Y635250D02*
D03*
X1504536D02*
D03*
X1529964Y660679D02*
D03*
X1504536D02*
D03*
X1529964Y686107D02*
D03*
X1504536Y686107D02*
D03*
X1529964Y711536D02*
D03*
X1504536D02*
D03*
X275714Y286821D02*
D03*
X250286D02*
D03*
X275714Y312250D02*
D03*
X250286D02*
D03*
X275714Y337678D02*
D03*
X250286D02*
D03*
X275714Y363107D02*
D03*
X250286Y261393D02*
D03*
X275714Y261393D02*
D03*
X1658750Y733607D02*
D03*
X1658750Y708178D02*
D03*
X1658750Y682750D02*
D03*
X1658750Y657321D02*
D03*
X42870Y102519D02*
D03*
Y127947D02*
D03*
Y153376D02*
D03*
X352500Y975714D02*
D03*
X124910Y153376D02*
D03*
X174036Y1061250D02*
D03*
X388286Y675250D02*
D03*
D196*
X987250Y730500D02*
D03*
X1229250D02*
D03*
X561250Y244750D02*
D03*
X891250Y724750D02*
D03*
X561250Y724750D02*
D03*
X891250Y244750D02*
D03*
D197*
X1233250Y250000D02*
D03*
X1352250Y660500D02*
D03*
D198*
X373190Y150750D02*
D03*
X254190Y150750D02*
D03*
X254190Y90250D02*
D03*
X106300Y90500D02*
D03*
X373190Y211250D02*
D03*
Y90250D02*
D03*
X169550Y90500D02*
D03*
X254190Y20380D02*
D03*
X373300Y20500D02*
D03*
D199*
X1352250Y585500D02*
D03*
D200*
X783600Y1062250D02*
D03*
X809000D02*
D03*
X891000D02*
D03*
X916400D02*
D03*
D201*
X818250Y996050D02*
D03*
X881750D02*
D03*
X792850Y958150D02*
D03*
X805550Y932750D02*
D03*
X818250Y958150D02*
D03*
X830950Y932750D02*
D03*
X843650Y958150D02*
D03*
X856350Y932750D02*
D03*
X869050Y958150D02*
D03*
X881750Y932750D02*
D03*
X894450Y958150D02*
D03*
D202*
X792850Y983350D02*
D03*
X907150D02*
D03*
D203*
X907150Y932750D02*
D03*
D204*
X771500Y991150D02*
D03*
X928500D02*
D03*
D205*
X792850Y1021650D02*
D03*
X907150Y1021650D02*
D03*
D206*
X69750Y944000D02*
D03*
X19750D02*
D03*
X100750Y928000D02*
D03*
X19750Y899000D02*
D03*
X100750Y960000D02*
D03*
X69750Y908000D02*
D03*
X19750Y992000D02*
D03*
D207*
X643500Y1022750D02*
D03*
D208*
X691500Y989750D02*
D03*
D209*
Y1052750D02*
D03*
D210*
X1676350Y229500D02*
D03*
Y144500D02*
D03*
D211*
X811500Y136250D02*
D03*
X887500D02*
D03*
D212*
X1665000Y35000D02*
D03*
X492500Y857500D02*
D03*
Y142500D02*
D03*
X1207500D02*
D03*
X35000Y1065000D02*
D03*
Y35000D02*
D03*
X1665000Y1065000D02*
D03*
D213*
X581950Y1084250D02*
D03*
X496550D02*
D03*
X581950Y1036950D02*
D03*
X496550D02*
D03*
D214*
X515250Y1032450D02*
D03*
X563250D02*
D03*
X523250D02*
D03*
X555250D02*
D03*
X531250D02*
D03*
X547250D02*
D03*
X511250Y1025450D02*
D03*
X567250D02*
D03*
X519250D02*
D03*
X559250D02*
D03*
X527250D02*
D03*
X551250D02*
D03*
X535250D02*
D03*
X543250D02*
D03*
D215*
X1230050Y50200D02*
D03*
X1159950D02*
D03*
D216*
X250286Y363107D02*
D03*
X1658750Y631893D02*
D03*
X42870Y178804D02*
D03*
X352500Y950286D02*
D03*
X124910Y178804D02*
D03*
D217*
X1416214Y427607D02*
D03*
X1505500Y402857D02*
D03*
X140000Y904357D02*
D03*
D218*
X74501Y698483D02*
D03*
X164501Y698483D02*
D03*
X195501Y633483D02*
D03*
X100501D02*
D03*
Y471483D02*
D03*
X195501D02*
D03*
X164501Y536483D02*
D03*
X74501D02*
D03*
D219*
X180261Y670983D02*
D03*
X168701D02*
D03*
X157141D02*
D03*
X145581D02*
D03*
X134021D02*
D03*
X122461D02*
D03*
X110901D02*
D03*
X99341D02*
D03*
X186041Y660983D02*
D03*
X174481Y660983D02*
D03*
X162921D02*
D03*
X151361D02*
D03*
X139801D02*
D03*
X128241Y660983D02*
D03*
X116681D02*
D03*
X105121D02*
D03*
X93561D02*
D03*
X87781Y670983D02*
D03*
Y508983D02*
D03*
X93561Y498983D02*
D03*
X105121D02*
D03*
X116681D02*
D03*
X128241D02*
D03*
X139801D02*
D03*
X151361D02*
D03*
X162921D02*
D03*
X174481D02*
D03*
X186041D02*
D03*
X99341Y508983D02*
D03*
X110901D02*
D03*
X122461D02*
D03*
X134021D02*
D03*
X145581D02*
D03*
X157141D02*
D03*
X168701D02*
D03*
X180261D02*
D03*
D220*
X82001Y660983D02*
D03*
Y498983D02*
D03*
D221*
X195501Y685983D02*
D03*
X63001Y650983D02*
D03*
Y488983D02*
D03*
X195501Y523983D02*
D03*
D222*
X86500Y1078250D02*
D03*
Y1027250D02*
D03*
X137500Y1078250D02*
D03*
X112000Y1052750D02*
D03*
X137500Y1027250D02*
D03*
X287500Y1027250D02*
D03*
X262000Y1052750D02*
D03*
X287500Y1078250D02*
D03*
X236500Y1027250D02*
D03*
Y1078250D02*
D03*
X437500Y1027250D02*
D03*
X412000Y1052750D02*
D03*
X437500Y1078250D02*
D03*
X386500Y1027250D02*
D03*
Y1078250D02*
D03*
X1562500Y1078250D02*
D03*
Y1027250D02*
D03*
X1613500Y1078250D02*
D03*
X1588000Y1052750D02*
D03*
X1613500Y1027250D02*
D03*
X1182500Y1078250D02*
D03*
X1182500Y1027250D02*
D03*
X1233500Y1078250D02*
D03*
X1208000Y1052750D02*
D03*
X1233500Y1027250D02*
D03*
X1372500Y1078250D02*
D03*
Y1027250D02*
D03*
X1423500Y1078250D02*
D03*
X1398000Y1052750D02*
D03*
X1423500Y1027250D02*
D03*
X992500Y1078250D02*
D03*
Y1027250D02*
D03*
X1043500Y1078250D02*
D03*
X1018000Y1052750D02*
D03*
X1043500Y1027250D02*
D03*
D223*
X64470Y127947D02*
D03*
D224*
X1656200Y318200D02*
D03*
D225*
X675105Y53025D02*
D03*
X650105D02*
D03*
X1025105Y53000D02*
D03*
X1050105D02*
D03*
X950105Y53025D02*
D03*
X975105D02*
D03*
X875105D02*
D03*
X900105D02*
D03*
X800105D02*
D03*
X825105D02*
D03*
X725105D02*
D03*
X750105D02*
D03*
D226*
X1307500Y1049450D02*
D03*
D227*
X199464Y1061250D02*
D03*
X413714Y675250D02*
D03*
D297*
X850000Y550000D02*
D03*
D350*
X219750Y195500D02*
D03*
X219750Y191500D02*
D03*
X219750Y187500D02*
D03*
X236750D02*
D03*
X236750Y191500D02*
D03*
X236750Y195500D02*
D03*
X219750Y234750D02*
D03*
X219750Y230750D02*
D03*
X219750Y226750D02*
D03*
X236750D02*
D03*
X236750Y230750D02*
D03*
X236750Y234750D02*
D03*
D351*
X226250Y185000D02*
D03*
X230250D02*
D03*
Y198000D02*
D03*
X226250Y224250D02*
D03*
X230250D02*
D03*
Y237250D02*
D03*
D352*
X226250Y197500D02*
D03*
Y236750D02*
D03*
D353*
X164228Y191479D02*
D03*
X168228D02*
D03*
X180229Y211021D02*
D03*
X176229D02*
D03*
X172229D02*
D03*
X168228D02*
D03*
X164228D02*
D03*
X172229Y191479D02*
D03*
X176229D02*
D03*
D354*
X218771Y278750D02*
D03*
D355*
Y274750D02*
D03*
Y270750D02*
D03*
Y266750D02*
D03*
Y262750D02*
D03*
X199228D02*
D03*
Y266750D02*
D03*
Y270750D02*
D03*
Y274750D02*
D03*
Y278750D02*
D03*
D356*
X215000Y256978D02*
D03*
X211000D02*
D03*
X207000D02*
D03*
X203000Y284522D02*
D03*
X207000D02*
D03*
X211000D02*
D03*
X215000D02*
D03*
X203000Y256978D02*
D03*
D357*
X209000Y270750D02*
D03*
D358*
X158457Y207250D02*
D03*
X186000Y195250D02*
D03*
Y199250D02*
D03*
Y203250D02*
D03*
Y207250D02*
D03*
X158457Y203250D02*
D03*
Y199250D02*
D03*
Y195250D02*
D03*
D359*
X172229Y201250D02*
D03*
D360*
X180229Y191479D02*
D03*
D361*
X664728Y481500D02*
D03*
Y477500D02*
D03*
Y473500D02*
D03*
X681728D02*
D03*
Y477500D02*
D03*
Y481500D02*
D03*
D362*
X671228Y471000D02*
D03*
X675228D02*
D03*
Y484000D02*
D03*
D363*
X671228Y483500D02*
D03*
D364*
X858750Y667125D02*
D03*
X863750D02*
D03*
X868750D02*
D03*
X868750Y674375D02*
D03*
X863750D02*
D03*
X858750D02*
D03*
D365*
X142356Y651978D02*
D03*
X145538Y655160D02*
D03*
X153916Y651978D02*
D03*
X157098Y655160D02*
D03*
D366*
X183750Y318000D02*
D03*
X158750D02*
D03*
X183750Y298000D02*
D03*
X158750D02*
D03*
X86250Y321750D02*
D03*
X61250D02*
D03*
X316436Y311936D02*
D03*
X291436D02*
D03*
X204750Y308000D02*
D03*
X229750D02*
D03*
X208750Y328500D02*
D03*
X233750D02*
D03*
X316436Y337804D02*
D03*
X291436D02*
D03*
X252750Y892250D02*
D03*
X227750D02*
D03*
X804750Y974750D02*
D03*
X829750D02*
D03*
X856500D02*
D03*
X881500D02*
D03*
D367*
X201996Y131000D02*
D03*
Y124500D02*
D03*
Y118000D02*
D03*
Y111500D02*
D03*
X243004D02*
D03*
Y118000D02*
D03*
Y124500D02*
D03*
Y131000D02*
D03*
D368*
X49500Y342500D02*
D03*
X79500D02*
D03*
X294250Y362750D02*
D03*
X324250D02*
D03*
X330000Y284250D02*
D03*
X300000D02*
D03*
X526500Y410050D02*
D03*
X496500D02*
D03*
X526250Y386500D02*
D03*
X496250D02*
D03*
X572250Y374000D02*
D03*
X602250D02*
D03*
X572250Y398978D02*
D03*
X602250D02*
D03*
D369*
X1310750Y640000D02*
D03*
X1317250D02*
D03*
X1323750D02*
D03*
X1330250D02*
D03*
X1310750Y581000D02*
D03*
X1317250D02*
D03*
X1323750D02*
D03*
X1330250D02*
D03*
D370*
X1594250Y278250D02*
D03*
X1603750Y301250D02*
D03*
X1584750D02*
D03*
X869500Y174200D02*
D03*
X888500D02*
D03*
X879000Y151200D02*
D03*
X53750Y254500D02*
D03*
X63250Y277500D02*
D03*
X44250D02*
D03*
X250750Y846000D02*
D03*
X231750D02*
D03*
X241250Y869000D02*
D03*
X236580Y409300D02*
D03*
X246080D02*
D03*
X227080Y435300D02*
D03*
X236580D02*
D03*
X246080D02*
D03*
X227080Y409300D02*
D03*
X1580250Y767000D02*
D03*
X1561250Y741000D02*
D03*
X1570750D02*
D03*
X1580250D02*
D03*
X1561250Y767000D02*
D03*
X1570750D02*
D03*
X1383870Y766725D02*
D03*
X1364870Y740725D02*
D03*
X1374370Y740725D02*
D03*
X1383870D02*
D03*
X1364870Y766725D02*
D03*
X1374370D02*
D03*
X1161770Y701600D02*
D03*
X1142770Y675600D02*
D03*
X1152270D02*
D03*
X1161770D02*
D03*
X1142770Y701600D02*
D03*
X1152270D02*
D03*
X1081000Y712000D02*
D03*
X1062000Y686000D02*
D03*
X1071500D02*
D03*
X1081000D02*
D03*
X1062000Y712000D02*
D03*
X1071500D02*
D03*
D371*
X318500Y636250D02*
D03*
Y590250D02*
D03*
X353000Y458250D02*
D03*
Y504250D02*
D03*
X310750Y812750D02*
D03*
Y858750D02*
D03*
X152250Y848000D02*
D03*
Y802000D02*
D03*
D372*
X368750Y524750D02*
D03*
X388750D02*
D03*
X591500Y858250D02*
D03*
X611500D02*
D03*
X591500Y898250D02*
D03*
X611500D02*
D03*
X491000Y975500D02*
D03*
X511000D02*
D03*
X1371500Y165750D02*
D03*
X1391500D02*
D03*
D373*
X360250Y273370D02*
D03*
Y263870D02*
D03*
X386250Y282870D02*
D03*
Y273370D02*
D03*
Y263870D02*
D03*
X360250Y282870D02*
D03*
X1340750Y129750D02*
D03*
X1314750Y148750D02*
D03*
X1314750Y139250D02*
D03*
Y129750D02*
D03*
X1340750Y148750D02*
D03*
X1337585Y537380D02*
D03*
Y556380D02*
D03*
X1360585Y546880D02*
D03*
X648250Y418000D02*
D03*
X622250Y437000D02*
D03*
Y427500D02*
D03*
Y418000D02*
D03*
X648250Y437000D02*
D03*
Y427500D02*
D03*
X82000Y596750D02*
D03*
X108000Y577750D02*
D03*
Y587250D02*
D03*
Y596750D02*
D03*
X82000Y577750D02*
D03*
Y587250D02*
D03*
X616000Y571250D02*
D03*
Y561750D02*
D03*
X642000Y580750D02*
D03*
Y571250D02*
D03*
Y561750D02*
D03*
X616000Y580750D02*
D03*
X351000Y887750D02*
D03*
Y878250D02*
D03*
X377000Y897250D02*
D03*
Y887750D02*
D03*
Y878250D02*
D03*
X351000Y897250D02*
D03*
X230750Y595750D02*
D03*
X256750Y576750D02*
D03*
Y586250D02*
D03*
X256750Y595750D02*
D03*
X230750Y576750D02*
D03*
X230750Y586250D02*
D03*
D374*
X622000Y209865D02*
D03*
Y187865D02*
D03*
X639000D02*
D03*
Y209865D02*
D03*
D375*
X752950Y136750D02*
D03*
X765650D02*
D03*
X778350D02*
D03*
X791050D02*
D03*
X752950Y78750D02*
D03*
X765650D02*
D03*
X778350D02*
D03*
X791050D02*
D03*
X545200Y142250D02*
D03*
X557900D02*
D03*
X570600Y142250D02*
D03*
X583300Y142250D02*
D03*
X545200Y84250D02*
D03*
X557900D02*
D03*
X570600D02*
D03*
X583300D02*
D03*
X612700Y142250D02*
D03*
X625400Y142250D02*
D03*
X638100Y142250D02*
D03*
X650800D02*
D03*
X612700Y84250D02*
D03*
X625400D02*
D03*
X638100D02*
D03*
X650800D02*
D03*
X582450Y985250D02*
D03*
X595150Y985250D02*
D03*
X607850D02*
D03*
X620550D02*
D03*
X582450Y934250D02*
D03*
X595150Y934250D02*
D03*
X607850D02*
D03*
X620550Y934250D02*
D03*
D376*
X837000Y133500D02*
D03*
X631750Y113750D02*
D03*
D377*
X829500Y119500D02*
D03*
X834500D02*
D03*
X839500D02*
D03*
X844500D02*
D03*
Y147500D02*
D03*
X839500D02*
D03*
X834500D02*
D03*
X829500D02*
D03*
X639250Y127750D02*
D03*
X634250Y127750D02*
D03*
X629250D02*
D03*
X624250D02*
D03*
Y99750D02*
D03*
X629250D02*
D03*
X634250D02*
D03*
X639250Y99750D02*
D03*
D378*
X655000Y234500D02*
D03*
Y239500D02*
D03*
Y244500D02*
D03*
Y249500D02*
D03*
Y254500D02*
D03*
Y259500D02*
D03*
Y264500D02*
D03*
Y269500D02*
D03*
Y274500D02*
D03*
Y279500D02*
D03*
Y284500D02*
D03*
Y289500D02*
D03*
Y294500D02*
D03*
Y299500D02*
D03*
Y304500D02*
D03*
Y309500D02*
D03*
X742500D02*
D03*
Y304500D02*
D03*
Y299500D02*
D03*
Y294500D02*
D03*
Y289500D02*
D03*
Y284500D02*
D03*
Y279500D02*
D03*
Y274500D02*
D03*
Y269500D02*
D03*
Y264500D02*
D03*
Y259500D02*
D03*
Y254500D02*
D03*
Y249500D02*
D03*
Y244500D02*
D03*
Y239500D02*
D03*
Y234500D02*
D03*
D379*
X661250Y315750D02*
D03*
X666250D02*
D03*
X671250D02*
D03*
X676250D02*
D03*
X681250D02*
D03*
X686250D02*
D03*
X691250D02*
D03*
X696250D02*
D03*
X701250D02*
D03*
X706250D02*
D03*
X711250D02*
D03*
X716250D02*
D03*
X721250D02*
D03*
X726250D02*
D03*
X731250D02*
D03*
X736250D02*
D03*
Y228250D02*
D03*
X731250D02*
D03*
X726250D02*
D03*
X721250D02*
D03*
X716250D02*
D03*
X711250D02*
D03*
X706250D02*
D03*
X701250D02*
D03*
X696250D02*
D03*
X691250D02*
D03*
X686250D02*
D03*
X681250D02*
D03*
X676250D02*
D03*
X671250D02*
D03*
X666250D02*
D03*
X661250D02*
D03*
D380*
X698750Y272000D02*
D03*
D381*
X571750Y128250D02*
D03*
X566750D02*
D03*
X561750Y128250D02*
D03*
X556750Y128250D02*
D03*
X556750Y98250D02*
D03*
X561750Y98250D02*
D03*
X566750Y98250D02*
D03*
X571750D02*
D03*
D382*
X564250Y113250D02*
D03*
D383*
X114500Y807000D02*
D03*
Y869000D02*
D03*
D384*
X364500Y851850D02*
D03*
Y839150D02*
D03*
X427500D02*
D03*
Y851850D02*
D03*
D385*
X229000Y710500D02*
D03*
Y670500D02*
D03*
D386*
X72000Y779750D02*
D03*
X65500Y779750D02*
D03*
X59000Y779750D02*
D03*
X59000Y762750D02*
D03*
X65500Y762750D02*
D03*
X72000Y762750D02*
D03*
D387*
X1520000Y283500D02*
D03*
D388*
X1507500Y264250D02*
D03*
X1512500D02*
D03*
X1517500D02*
D03*
X1522500D02*
D03*
X1527500D02*
D03*
X1532500D02*
D03*
Y302750D02*
D03*
X1527500D02*
D03*
X1522500D02*
D03*
X1517500D02*
D03*
X1512500D02*
D03*
X1507500D02*
D03*
D389*
X1539250Y271000D02*
D03*
X1539250Y276000D02*
D03*
Y281000D02*
D03*
X1539250Y286000D02*
D03*
X1539250Y291000D02*
D03*
X1539250Y296000D02*
D03*
X1500750D02*
D03*
Y291000D02*
D03*
Y286000D02*
D03*
Y281000D02*
D03*
Y276000D02*
D03*
Y271000D02*
D03*
D390*
X1576487Y388994D02*
D03*
X1569987D02*
D03*
X1563487D02*
D03*
Y413994D02*
D03*
X1569987D02*
D03*
X1576487D02*
D03*
X1556987D02*
D03*
X1556987Y388994D02*
D03*
D391*
X1614000Y141000D02*
D03*
D392*
X1633000Y131000D02*
D03*
Y136000D02*
D03*
Y141000D02*
D03*
Y146000D02*
D03*
Y151000D02*
D03*
X1595000D02*
D03*
Y146000D02*
D03*
Y141000D02*
D03*
Y136000D02*
D03*
Y131000D02*
D03*
D393*
X1624000Y161500D02*
D03*
X1619000D02*
D03*
X1614000D02*
D03*
X1609000D02*
D03*
X1604000D02*
D03*
Y120500D02*
D03*
X1609000D02*
D03*
X1614000D02*
D03*
X1619000D02*
D03*
X1624000D02*
D03*
D394*
X1556987Y475494D02*
D03*
X1563487D02*
D03*
X1569987D02*
D03*
Y456494D02*
D03*
X1563487Y456494D02*
D03*
X1556987Y456494D02*
D03*
D395*
X1269250Y303500D02*
D03*
X1463000Y446000D02*
D03*
D396*
X1259500Y289750D02*
D03*
X1266000D02*
D03*
X1272500D02*
D03*
X1279000D02*
D03*
Y317250D02*
D03*
X1272500D02*
D03*
X1266000D02*
D03*
X1259500D02*
D03*
X1472750Y432250D02*
D03*
X1466250Y432250D02*
D03*
X1459750Y432250D02*
D03*
X1453250Y432250D02*
D03*
Y459750D02*
D03*
X1459750D02*
D03*
X1466250D02*
D03*
X1472750D02*
D03*
D397*
X252000Y934250D02*
D03*
X190000D02*
D03*
D398*
X469750Y1026250D02*
D03*
Y986250D02*
D03*
D399*
X635750Y858250D02*
D03*
Y898250D02*
D03*
D400*
X1420640Y41650D02*
D03*
X1420640Y93650D02*
D03*
X1464640D02*
D03*
X1464640Y41650D02*
D03*
D03*
X1464640Y93650D02*
D03*
X1420640D02*
D03*
X1420640Y41650D02*
D03*
D401*
X1442640Y98150D02*
D03*
X1442640Y34150D02*
D03*
D402*
X1366750Y60000D02*
D03*
X1366750Y98500D02*
D03*
D403*
X1376500Y73250D02*
D03*
Y85250D02*
D03*
X1357000Y85250D02*
D03*
Y73250D02*
D03*
D404*
X1378250Y60000D02*
D03*
X1378250Y98500D02*
D03*
X1355250Y98500D02*
D03*
X1355250Y60000D02*
D03*
D405*
X1376750Y129750D02*
D03*
X1398750D02*
D03*
Y144250D02*
D03*
X1376750D02*
D03*
D406*
X842500Y564000D02*
D03*
X847500D02*
D03*
X852500D02*
D03*
X857500D02*
D03*
X857500Y536000D02*
D03*
X852500Y536000D02*
D03*
X847500Y536000D02*
D03*
X842500D02*
D03*
D407*
X965750Y888500D02*
D03*
Y948500D02*
D03*
X941750Y888500D02*
D03*
Y948500D02*
D03*
X732250Y953500D02*
D03*
Y893500D02*
D03*
X756250Y953500D02*
D03*
Y893500D02*
D03*
D408*
X671500Y970250D02*
D03*
Y937250D02*
D03*
D409*
X945640Y635700D02*
D03*
Y599700D02*
D03*
X940640D02*
D03*
Y635700D02*
D03*
X1116250Y13840D02*
D03*
X1116250Y49840D02*
D03*
X1111250D02*
D03*
Y13840D02*
D03*
D410*
X956140Y630700D02*
D03*
Y625700D02*
D03*
X956140Y620700D02*
D03*
Y615700D02*
D03*
X956140Y610700D02*
D03*
X956140Y605700D02*
D03*
X930140Y605700D02*
D03*
Y610700D02*
D03*
Y615700D02*
D03*
X930140Y620700D02*
D03*
X930140Y625700D02*
D03*
X930140Y630700D02*
D03*
X1126750Y18840D02*
D03*
X1126750Y23840D02*
D03*
Y28840D02*
D03*
Y33840D02*
D03*
X1126750Y38840D02*
D03*
X1126750Y43840D02*
D03*
X1100750D02*
D03*
Y38840D02*
D03*
X1100750Y33840D02*
D03*
Y28840D02*
D03*
Y23840D02*
D03*
Y18840D02*
D03*
D411*
X943140Y617700D02*
D03*
X1113750Y31840D02*
D03*
D412*
X806029Y512771D02*
D03*
X793329D02*
D03*
X780629D02*
D03*
X767929D02*
D03*
X755229D02*
D03*
X742529D02*
D03*
X729829D02*
D03*
X717129D02*
D03*
X806029Y561771D02*
D03*
X793329D02*
D03*
X780629D02*
D03*
X767929D02*
D03*
X755229D02*
D03*
X742529D02*
D03*
X729829D02*
D03*
X717129D02*
D03*
D413*
X314500Y764500D02*
D03*
D414*
X284464Y793750D02*
D03*
Y787250D02*
D03*
Y780750D02*
D03*
Y774250D02*
D03*
Y767750D02*
D03*
Y761250D02*
D03*
Y754750D02*
D03*
Y748250D02*
D03*
Y741750D02*
D03*
Y735250D02*
D03*
X344535Y735250D02*
D03*
Y741750D02*
D03*
Y748250D02*
D03*
Y754750D02*
D03*
Y761250D02*
D03*
Y767750D02*
D03*
Y774250D02*
D03*
Y780750D02*
D03*
Y787250D02*
D03*
Y793750D02*
D03*
D415*
X1374700Y561880D02*
D03*
X1387400D02*
D03*
X1400100D02*
D03*
X1412800D02*
D03*
Y616120D02*
D03*
X1400100D02*
D03*
X1387400D02*
D03*
X1374700D02*
D03*
D416*
X1442854Y660804D02*
D03*
X1429646D02*
D03*
Y641500D02*
D03*
X1436250Y641500D02*
D03*
X1442854Y641500D02*
D03*
D417*
X175171Y842649D02*
D03*
X216831D02*
D03*
D418*
X176951Y892199D02*
D03*
X189651D02*
D03*
X202351D02*
D03*
X215051D02*
D03*
D419*
Y836299D02*
D03*
X202351D02*
D03*
X189651D02*
D03*
X176951Y836299D02*
D03*
D420*
X196001Y858899D02*
D03*
D421*
X1368299Y641345D02*
D03*
X1393300D02*
D03*
D422*
X684000Y752905D02*
D03*
X679000D02*
D03*
X674000D02*
D03*
X669000D02*
D03*
X664000D02*
D03*
X659000D02*
D03*
Y713595D02*
D03*
X664000D02*
D03*
X669000D02*
D03*
X674000D02*
D03*
X679000D02*
D03*
X684000D02*
D03*
D423*
X651845Y745750D02*
D03*
Y740750D02*
D03*
Y735750D02*
D03*
Y730750D02*
D03*
Y725750D02*
D03*
Y720750D02*
D03*
X691155D02*
D03*
Y725750D02*
D03*
Y730750D02*
D03*
Y735750D02*
D03*
Y740750D02*
D03*
D424*
Y745750D02*
D03*
D425*
X671500Y733250D02*
D03*
D426*
X308250Y493250D02*
D03*
Y513250D02*
D03*
X324200Y493140D02*
D03*
Y513140D02*
D03*
X571750Y434000D02*
D03*
Y414000D02*
D03*
X13750Y770500D02*
D03*
Y790500D02*
D03*
X408750Y980500D02*
D03*
Y960500D02*
D03*
X473500Y925250D02*
D03*
Y945250D02*
D03*
X1468750Y729500D02*
D03*
Y709500D02*
D03*
X1678500Y298500D02*
D03*
Y318500D02*
D03*
X1129250Y628000D02*
D03*
Y608000D02*
D03*
X1462250Y480500D02*
D03*
X1462250Y500500D02*
D03*
X1580250Y798880D02*
D03*
Y818880D02*
D03*
X1161770Y733480D02*
D03*
Y753480D02*
D03*
D427*
X499900Y317604D02*
D03*
Y311000D02*
D03*
Y304396D02*
D03*
X480596D02*
D03*
Y317604D02*
D03*
X499900Y345507D02*
D03*
Y338903D02*
D03*
Y332299D02*
D03*
X480596D02*
D03*
Y345507D02*
D03*
M02*
