G04*
G04 #@! TF.GenerationSoftware,Altium Limited,Altium Designer,19.1.6 (110)*
G04*
G04 Layer_Color=255*
%FSLAX44Y44*%
%MOMM*%
G71*
G01*
G75*
%ADD23R,0.6000X2.0000*%
G04:AMPARAMS|DCode=24|XSize=0.6mm|YSize=0.6mm|CornerRadius=0.06mm|HoleSize=0mm|Usage=FLASHONLY|Rotation=0.000|XOffset=0mm|YOffset=0mm|HoleType=Round|Shape=RoundedRectangle|*
%AMROUNDEDRECTD24*
21,1,0.6000,0.4800,0,0,0.0*
21,1,0.4800,0.6000,0,0,0.0*
1,1,0.1200,0.2400,-0.2400*
1,1,0.1200,-0.2400,-0.2400*
1,1,0.1200,-0.2400,0.2400*
1,1,0.1200,0.2400,0.2400*
%
%ADD24ROUNDEDRECTD24*%
G04:AMPARAMS|DCode=25|XSize=0.5mm|YSize=0.6mm|CornerRadius=0.05mm|HoleSize=0mm|Usage=FLASHONLY|Rotation=270.000|XOffset=0mm|YOffset=0mm|HoleType=Round|Shape=RoundedRectangle|*
%AMROUNDEDRECTD25*
21,1,0.5000,0.5000,0,0,270.0*
21,1,0.4000,0.6000,0,0,270.0*
1,1,0.1000,-0.2500,-0.2000*
1,1,0.1000,-0.2500,0.2000*
1,1,0.1000,0.2500,0.2000*
1,1,0.1000,0.2500,-0.2000*
%
%ADD25ROUNDEDRECTD25*%
%ADD26R,0.7200X0.2000*%
%ADD27R,0.2000X0.8100*%
%ADD28R,0.2000X0.9100*%
G04:AMPARAMS|DCode=29|XSize=0.6mm|YSize=0.6mm|CornerRadius=0.06mm|HoleSize=0mm|Usage=FLASHONLY|Rotation=270.000|XOffset=0mm|YOffset=0mm|HoleType=Round|Shape=RoundedRectangle|*
%AMROUNDEDRECTD29*
21,1,0.6000,0.4800,0,0,270.0*
21,1,0.4800,0.6000,0,0,270.0*
1,1,0.1200,-0.2400,-0.2400*
1,1,0.1200,-0.2400,0.2400*
1,1,0.1200,0.2400,0.2400*
1,1,0.1200,0.2400,-0.2400*
%
%ADD29ROUNDEDRECTD29*%
%ADD30R,1.4000X0.8000*%
%ADD31R,0.3000X0.3100*%
G04:AMPARAMS|DCode=32|XSize=1mm|YSize=0.9mm|CornerRadius=0.1125mm|HoleSize=0mm|Usage=FLASHONLY|Rotation=180.000|XOffset=0mm|YOffset=0mm|HoleType=Round|Shape=RoundedRectangle|*
%AMROUNDEDRECTD32*
21,1,1.0000,0.6750,0,0,180.0*
21,1,0.7750,0.9000,0,0,180.0*
1,1,0.2250,-0.3875,0.3375*
1,1,0.2250,0.3875,0.3375*
1,1,0.2250,0.3875,-0.3375*
1,1,0.2250,-0.3875,-0.3375*
%
%ADD32ROUNDEDRECTD32*%
G04:AMPARAMS|DCode=33|XSize=1.5mm|YSize=1.5mm|CornerRadius=0.075mm|HoleSize=0mm|Usage=FLASHONLY|Rotation=180.000|XOffset=0mm|YOffset=0mm|HoleType=Round|Shape=RoundedRectangle|*
%AMROUNDEDRECTD33*
21,1,1.5000,1.3500,0,0,180.0*
21,1,1.3500,1.5000,0,0,180.0*
1,1,0.1500,-0.6750,0.6750*
1,1,0.1500,0.6750,0.6750*
1,1,0.1500,0.6750,-0.6750*
1,1,0.1500,-0.6750,-0.6750*
%
%ADD33ROUNDEDRECTD33*%
G04:AMPARAMS|DCode=34|XSize=0.3mm|YSize=0.8mm|CornerRadius=0.075mm|HoleSize=0mm|Usage=FLASHONLY|Rotation=180.000|XOffset=0mm|YOffset=0mm|HoleType=Round|Shape=RoundedRectangle|*
%AMROUNDEDRECTD34*
21,1,0.3000,0.6500,0,0,180.0*
21,1,0.1500,0.8000,0,0,180.0*
1,1,0.1500,-0.0750,0.3250*
1,1,0.1500,0.0750,0.3250*
1,1,0.1500,0.0750,-0.3250*
1,1,0.1500,-0.0750,-0.3250*
%
%ADD34ROUNDEDRECTD34*%
G04:AMPARAMS|DCode=35|XSize=0.3mm|YSize=0.8mm|CornerRadius=0.075mm|HoleSize=0mm|Usage=FLASHONLY|Rotation=270.000|XOffset=0mm|YOffset=0mm|HoleType=Round|Shape=RoundedRectangle|*
%AMROUNDEDRECTD35*
21,1,0.3000,0.6500,0,0,270.0*
21,1,0.1500,0.8000,0,0,270.0*
1,1,0.1500,-0.3250,-0.0750*
1,1,0.1500,-0.3250,0.0750*
1,1,0.1500,0.3250,0.0750*
1,1,0.1500,0.3250,-0.0750*
%
%ADD35ROUNDEDRECTD35*%
%ADD36R,0.7500X1.5000*%
%ADD37R,0.9000X0.6000*%
%ADD38R,1.5000X0.7500*%
%ADD39R,0.6000X0.9000*%
G04:AMPARAMS|DCode=40|XSize=0.5mm|YSize=0.6mm|CornerRadius=0.05mm|HoleSize=0mm|Usage=FLASHONLY|Rotation=0.000|XOffset=0mm|YOffset=0mm|HoleType=Round|Shape=RoundedRectangle|*
%AMROUNDEDRECTD40*
21,1,0.5000,0.5000,0,0,0.0*
21,1,0.4000,0.6000,0,0,0.0*
1,1,0.1000,0.2000,-0.2500*
1,1,0.1000,-0.2000,-0.2500*
1,1,0.1000,-0.2000,0.2500*
1,1,0.1000,0.2000,0.2500*
%
%ADD40ROUNDEDRECTD40*%
G04:AMPARAMS|DCode=41|XSize=1.4mm|YSize=1mm|CornerRadius=0.125mm|HoleSize=0mm|Usage=FLASHONLY|Rotation=0.000|XOffset=0mm|YOffset=0mm|HoleType=Round|Shape=RoundedRectangle|*
%AMROUNDEDRECTD41*
21,1,1.4000,0.7500,0,0,0.0*
21,1,1.1500,1.0000,0,0,0.0*
1,1,0.2500,0.5750,-0.3750*
1,1,0.2500,-0.5750,-0.3750*
1,1,0.2500,-0.5750,0.3750*
1,1,0.2500,0.5750,0.3750*
%
%ADD41ROUNDEDRECTD41*%
%ADD42R,0.7000X0.2000*%
%ADD43R,2.3000X3.2000*%
%ADD44R,4.1500X2.1500*%
%ADD45R,2.8000X4.0000*%
%ADD46R,2.8000X3.8000*%
%ADD47R,1.5019X1.0013*%
%ADD48R,1.0000X1.5000*%
%ADD49R,1.4006X0.8004*%
%ADD50R,1.5011X0.8006*%
%ADD51R,1.5018X1.5018*%
%ADD52R,1.5009X1.5009*%
%ADD53R,1.7526X0.7011*%
%ADD54R,1.7518X0.7007*%
%ADD55R,1.7504X0.7002*%
%ADD56R,1.7525X0.7010*%
%ADD57R,1.7522X0.7009*%
%ADD58R,1.7516X0.7006*%
%ADD59R,1.7530X0.7012*%
%ADD60R,1.7504X0.7002*%
%ADD61R,2.1000X0.7000*%
%ADD62R,1.1400X0.8000*%
G04:AMPARAMS|DCode=63|XSize=0.7mm|YSize=0.4mm|CornerRadius=0.05mm|HoleSize=0mm|Usage=FLASHONLY|Rotation=90.000|XOffset=0mm|YOffset=0mm|HoleType=Round|Shape=RoundedRectangle|*
%AMROUNDEDRECTD63*
21,1,0.7000,0.3000,0,0,90.0*
21,1,0.6000,0.4000,0,0,90.0*
1,1,0.1000,0.1500,0.3000*
1,1,0.1000,0.1500,-0.3000*
1,1,0.1000,-0.1500,-0.3000*
1,1,0.1000,-0.1500,0.3000*
%
%ADD63ROUNDEDRECTD63*%
%ADD64C,1.6000*%
G04:AMPARAMS|DCode=65|XSize=0.85mm|YSize=3.55mm|CornerRadius=0.2125mm|HoleSize=0mm|Usage=FLASHONLY|Rotation=0.000|XOffset=0mm|YOffset=0mm|HoleType=Round|Shape=RoundedRectangle|*
%AMROUNDEDRECTD65*
21,1,0.8500,3.1250,0,0,0.0*
21,1,0.4250,3.5500,0,0,0.0*
1,1,0.4250,0.2125,-1.5625*
1,1,0.4250,-0.2125,-1.5625*
1,1,0.4250,-0.2125,1.5625*
1,1,0.4250,0.2125,1.5625*
%
%ADD65ROUNDEDRECTD65*%
G04:AMPARAMS|DCode=66|XSize=0.85mm|YSize=2.65mm|CornerRadius=0.2125mm|HoleSize=0mm|Usage=FLASHONLY|Rotation=0.000|XOffset=0mm|YOffset=0mm|HoleType=Round|Shape=RoundedRectangle|*
%AMROUNDEDRECTD66*
21,1,0.8500,2.2250,0,0,0.0*
21,1,0.4250,2.6500,0,0,0.0*
1,1,0.4250,0.2125,-1.1125*
1,1,0.4250,-0.2125,-1.1125*
1,1,0.4250,-0.2125,1.1125*
1,1,0.4250,0.2125,1.1125*
%
%ADD66ROUNDEDRECTD66*%
%ADD67R,3.7000X1.6000*%
%ADD68R,0.2000X1.0000*%
%ADD69R,0.3000X1.2000*%
G04:AMPARAMS|DCode=70|XSize=1mm|YSize=0.9mm|CornerRadius=0.1125mm|HoleSize=0mm|Usage=FLASHONLY|Rotation=270.000|XOffset=0mm|YOffset=0mm|HoleType=Round|Shape=RoundedRectangle|*
%AMROUNDEDRECTD70*
21,1,1.0000,0.6750,0,0,270.0*
21,1,0.7750,0.9000,0,0,270.0*
1,1,0.2250,-0.3375,-0.3875*
1,1,0.2250,-0.3375,0.3875*
1,1,0.2250,0.3375,0.3875*
1,1,0.2250,0.3375,-0.3875*
%
%ADD70ROUNDEDRECTD70*%
G04:AMPARAMS|DCode=71|XSize=1.8mm|YSize=1.15mm|CornerRadius=0.1438mm|HoleSize=0mm|Usage=FLASHONLY|Rotation=180.000|XOffset=0mm|YOffset=0mm|HoleType=Round|Shape=RoundedRectangle|*
%AMROUNDEDRECTD71*
21,1,1.8000,0.8625,0,0,180.0*
21,1,1.5125,1.1500,0,0,180.0*
1,1,0.2875,-0.7563,0.4313*
1,1,0.2875,0.7563,0.4313*
1,1,0.2875,0.7563,-0.4313*
1,1,0.2875,-0.7563,-0.4313*
%
%ADD71ROUNDEDRECTD71*%
G04:AMPARAMS|DCode=72|XSize=3.3mm|YSize=1.6mm|CornerRadius=0.2mm|HoleSize=0mm|Usage=FLASHONLY|Rotation=180.000|XOffset=0mm|YOffset=0mm|HoleType=Round|Shape=RoundedRectangle|*
%AMROUNDEDRECTD72*
21,1,3.3000,1.2000,0,0,180.0*
21,1,2.9000,1.6000,0,0,180.0*
1,1,0.4000,-1.4500,0.6000*
1,1,0.4000,1.4500,0.6000*
1,1,0.4000,1.4500,-0.6000*
1,1,0.4000,-1.4500,-0.6000*
%
%ADD72ROUNDEDRECTD72*%
G04:AMPARAMS|DCode=73|XSize=6.7mm|YSize=6.7mm|CornerRadius=0.8375mm|HoleSize=0mm|Usage=FLASHONLY|Rotation=180.000|XOffset=0mm|YOffset=0mm|HoleType=Round|Shape=RoundedRectangle|*
%AMROUNDEDRECTD73*
21,1,6.7000,5.0250,0,0,180.0*
21,1,5.0250,6.7000,0,0,180.0*
1,1,1.6750,-2.5125,2.5125*
1,1,1.6750,2.5125,2.5125*
1,1,1.6750,2.5125,-2.5125*
1,1,1.6750,-2.5125,-2.5125*
%
%ADD73ROUNDEDRECTD73*%
%ADD74R,0.3100X0.3000*%
%ADD75R,0.9000X2.5500*%
%ADD76R,1.4000X2.5500*%
G04:AMPARAMS|DCode=77|XSize=0.25mm|YSize=1mm|CornerRadius=0.0625mm|HoleSize=0mm|Usage=FLASHONLY|Rotation=90.000|XOffset=0mm|YOffset=0mm|HoleType=Round|Shape=RoundedRectangle|*
%AMROUNDEDRECTD77*
21,1,0.2500,0.8750,0,0,90.0*
21,1,0.1250,1.0000,0,0,90.0*
1,1,0.1250,0.4375,0.0625*
1,1,0.1250,0.4375,-0.0625*
1,1,0.1250,-0.4375,-0.0625*
1,1,0.1250,-0.4375,0.0625*
%
%ADD77ROUNDEDRECTD77*%
G04:AMPARAMS|DCode=78|XSize=0.25mm|YSize=1mm|CornerRadius=0.0625mm|HoleSize=0mm|Usage=FLASHONLY|Rotation=180.000|XOffset=0mm|YOffset=0mm|HoleType=Round|Shape=RoundedRectangle|*
%AMROUNDEDRECTD78*
21,1,0.2500,0.8750,0,0,180.0*
21,1,0.1250,1.0000,0,0,180.0*
1,1,0.1250,-0.0625,0.4375*
1,1,0.1250,0.0625,0.4375*
1,1,0.1250,0.0625,-0.4375*
1,1,0.1250,-0.0625,-0.4375*
%
%ADD78ROUNDEDRECTD78*%
%ADD79R,0.3300X0.8500*%
%ADD80R,0.8500X0.3300*%
%ADD81R,2.4000X2.4000*%
G04:AMPARAMS|DCode=82|XSize=0.95mm|YSize=0.65mm|CornerRadius=0.1625mm|HoleSize=0mm|Usage=FLASHONLY|Rotation=180.000|XOffset=0mm|YOffset=0mm|HoleType=Round|Shape=RoundedRectangle|*
%AMROUNDEDRECTD82*
21,1,0.9500,0.3250,0,0,180.0*
21,1,0.6250,0.6500,0,0,180.0*
1,1,0.3250,-0.3125,0.1625*
1,1,0.3250,0.3125,0.1625*
1,1,0.3250,0.3125,-0.1625*
1,1,0.3250,-0.3125,-0.1625*
%
%ADD82ROUNDEDRECTD82*%
G04:AMPARAMS|DCode=83|XSize=0.95mm|YSize=1mm|CornerRadius=0.2375mm|HoleSize=0mm|Usage=FLASHONLY|Rotation=180.000|XOffset=0mm|YOffset=0mm|HoleType=Round|Shape=RoundedRectangle|*
%AMROUNDEDRECTD83*
21,1,0.9500,0.5250,0,0,180.0*
21,1,0.4750,1.0000,0,0,180.0*
1,1,0.4750,-0.2375,0.2625*
1,1,0.4750,0.2375,0.2625*
1,1,0.4750,0.2375,-0.2625*
1,1,0.4750,-0.2375,-0.2625*
%
%ADD83ROUNDEDRECTD83*%
%ADD84R,1.0000X1.5500*%
%ADD85R,1.6000X1.2000*%
%ADD86R,1.2000X1.2000*%
%ADD87R,2.1500X1.2000*%
%ADD88R,4.0000X5.0000*%
G04:AMPARAMS|DCode=89|XSize=0.8mm|YSize=0.8mm|CornerRadius=0.1mm|HoleSize=0mm|Usage=FLASHONLY|Rotation=90.000|XOffset=0mm|YOffset=0mm|HoleType=Round|Shape=RoundedRectangle|*
%AMROUNDEDRECTD89*
21,1,0.8000,0.6000,0,0,90.0*
21,1,0.6000,0.8000,0,0,90.0*
1,1,0.2000,0.3000,0.3000*
1,1,0.2000,0.3000,-0.3000*
1,1,0.2000,-0.3000,-0.3000*
1,1,0.2000,-0.3000,0.3000*
%
%ADD89ROUNDEDRECTD89*%
%ADD90R,3.3000X1.2700*%
%ADD91R,4.5000X2.3500*%
G04:AMPARAMS|DCode=92|XSize=3mm|YSize=1.2mm|CornerRadius=0.3mm|HoleSize=0mm|Usage=FLASHONLY|Rotation=90.000|XOffset=0mm|YOffset=0mm|HoleType=Round|Shape=RoundedRectangle|*
%AMROUNDEDRECTD92*
21,1,3.0000,0.6000,0,0,90.0*
21,1,2.4000,1.2000,0,0,90.0*
1,1,0.6000,0.3000,1.2000*
1,1,0.6000,0.3000,-1.2000*
1,1,0.6000,-0.3000,-1.2000*
1,1,0.6000,-0.3000,1.2000*
%
%ADD92ROUNDEDRECTD92*%
G04:AMPARAMS|DCode=93|XSize=3.5mm|YSize=1.2mm|CornerRadius=0.3mm|HoleSize=0mm|Usage=FLASHONLY|Rotation=90.000|XOffset=0mm|YOffset=0mm|HoleType=Round|Shape=RoundedRectangle|*
%AMROUNDEDRECTD93*
21,1,3.5000,0.6000,0,0,90.0*
21,1,2.9000,1.2000,0,0,90.0*
1,1,0.6000,0.3000,1.4500*
1,1,0.6000,0.3000,-1.4500*
1,1,0.6000,-0.3000,-1.4500*
1,1,0.6000,-0.3000,1.4500*
%
%ADD93ROUNDEDRECTD93*%
G04:AMPARAMS|DCode=94|XSize=3.5mm|YSize=1.2mm|CornerRadius=0.3mm|HoleSize=0mm|Usage=FLASHONLY|Rotation=0.000|XOffset=0mm|YOffset=0mm|HoleType=Round|Shape=RoundedRectangle|*
%AMROUNDEDRECTD94*
21,1,3.5000,0.6000,0,0,0.0*
21,1,2.9000,1.2000,0,0,0.0*
1,1,0.6000,1.4500,-0.3000*
1,1,0.6000,-1.4500,-0.3000*
1,1,0.6000,-1.4500,0.3000*
1,1,0.6000,1.4500,0.3000*
%
%ADD94ROUNDEDRECTD94*%
G04:AMPARAMS|DCode=95|XSize=3mm|YSize=1.2mm|CornerRadius=0.3mm|HoleSize=0mm|Usage=FLASHONLY|Rotation=0.000|XOffset=0mm|YOffset=0mm|HoleType=Round|Shape=RoundedRectangle|*
%AMROUNDEDRECTD95*
21,1,3.0000,0.6000,0,0,0.0*
21,1,2.4000,1.2000,0,0,0.0*
1,1,0.6000,1.2000,-0.3000*
1,1,0.6000,-1.2000,-0.3000*
1,1,0.6000,-1.2000,0.3000*
1,1,0.6000,1.2000,0.3000*
%
%ADD95ROUNDEDRECTD95*%
G04:AMPARAMS|DCode=96|XSize=5mm|YSize=1.2mm|CornerRadius=0.3mm|HoleSize=0mm|Usage=FLASHONLY|Rotation=270.000|XOffset=0mm|YOffset=0mm|HoleType=Round|Shape=RoundedRectangle|*
%AMROUNDEDRECTD96*
21,1,5.0000,0.6000,0,0,270.0*
21,1,4.4000,1.2000,0,0,270.0*
1,1,0.6000,-0.3000,-2.2000*
1,1,0.6000,-0.3000,2.2000*
1,1,0.6000,0.3000,2.2000*
1,1,0.6000,0.3000,-2.2000*
%
%ADD96ROUNDEDRECTD96*%
G04:AMPARAMS|DCode=97|XSize=5mm|YSize=1.2mm|CornerRadius=0.3mm|HoleSize=0mm|Usage=FLASHONLY|Rotation=0.000|XOffset=0mm|YOffset=0mm|HoleType=Round|Shape=RoundedRectangle|*
%AMROUNDEDRECTD97*
21,1,5.0000,0.6000,0,0,0.0*
21,1,4.4000,1.2000,0,0,0.0*
1,1,0.6000,2.2000,-0.3000*
1,1,0.6000,-2.2000,-0.3000*
1,1,0.6000,-2.2000,0.3000*
1,1,0.6000,2.2000,0.3000*
%
%ADD97ROUNDEDRECTD97*%
G04:AMPARAMS|DCode=98|XSize=2.5mm|YSize=2mm|CornerRadius=0.25mm|HoleSize=0mm|Usage=FLASHONLY|Rotation=90.000|XOffset=0mm|YOffset=0mm|HoleType=Round|Shape=RoundedRectangle|*
%AMROUNDEDRECTD98*
21,1,2.5000,1.5000,0,0,90.0*
21,1,2.0000,2.0000,0,0,90.0*
1,1,0.5000,0.7500,1.0000*
1,1,0.5000,0.7500,-1.0000*
1,1,0.5000,-0.7500,-1.0000*
1,1,0.5000,-0.7500,1.0000*
%
%ADD98ROUNDEDRECTD98*%
%ADD99R,3.5000X1.9000*%
G04:AMPARAMS|DCode=100|XSize=0.6mm|YSize=0.7mm|CornerRadius=0.075mm|HoleSize=0mm|Usage=FLASHONLY|Rotation=270.000|XOffset=0mm|YOffset=0mm|HoleType=Round|Shape=RoundedRectangle|*
%AMROUNDEDRECTD100*
21,1,0.6000,0.5500,0,0,270.0*
21,1,0.4500,0.7000,0,0,270.0*
1,1,0.1500,-0.2750,-0.2250*
1,1,0.1500,-0.2750,0.2250*
1,1,0.1500,0.2750,0.2250*
1,1,0.1500,0.2750,-0.2250*
%
%ADD100ROUNDEDRECTD100*%
%ADD101R,1.5500X1.0000*%
%ADD102R,1.2000X1.6000*%
%ADD103R,1.2000X1.2000*%
%ADD104R,1.2000X2.1500*%
G04:AMPARAMS|DCode=105|XSize=1.4mm|YSize=1mm|CornerRadius=0.125mm|HoleSize=0mm|Usage=FLASHONLY|Rotation=90.000|XOffset=0mm|YOffset=0mm|HoleType=Round|Shape=RoundedRectangle|*
%AMROUNDEDRECTD105*
21,1,1.4000,0.7500,0,0,90.0*
21,1,1.1500,1.0000,0,0,90.0*
1,1,0.2500,0.3750,0.5750*
1,1,0.2500,0.3750,-0.5750*
1,1,0.2500,-0.3750,-0.5750*
1,1,0.2500,-0.3750,0.5750*
%
%ADD105ROUNDEDRECTD105*%
%ADD106R,2.4000X2.4000*%
%ADD193C,1.2500*%
%ADD197C,1.1000*%
%ADD202C,1.5080*%
%ADD210C,0.7500*%
%ADD211C,1.3000*%
%ADD219C,0.9000*%
%ADD221C,1.9000*%
%ADD225C,1.0000*%
%ADD229C,1.5000*%
G04:AMPARAMS|DCode=236|XSize=1.6mm|YSize=1.6mm|CornerRadius=0.4mm|HoleSize=0mm|Usage=FLASHONLY|Rotation=0.000|XOffset=0mm|YOffset=0mm|HoleType=Round|Shape=RoundedRectangle|*
%AMROUNDEDRECTD236*
21,1,1.6000,0.8000,0,0,0.0*
21,1,0.8000,1.6000,0,0,0.0*
1,1,0.8000,0.4000,-0.4000*
1,1,0.8000,-0.4000,-0.4000*
1,1,0.8000,-0.4000,0.4000*
1,1,0.8000,0.4000,0.4000*
%
%ADD236ROUNDEDRECTD236*%
%ADD237C,3.5000*%
%ADD238C,2.0000*%
%ADD239C,5.3000*%
G04:AMPARAMS|DCode=240|XSize=1.524mm|YSize=1.524mm|CornerRadius=0.1905mm|HoleSize=0mm|Usage=FLASHONLY|Rotation=90.000|XOffset=0mm|YOffset=0mm|HoleType=Round|Shape=RoundedRectangle|*
%AMROUNDEDRECTD240*
21,1,1.5240,1.1430,0,0,90.0*
21,1,1.1430,1.5240,0,0,90.0*
1,1,0.3810,0.5715,0.5715*
1,1,0.3810,0.5715,-0.5715*
1,1,0.3810,-0.5715,-0.5715*
1,1,0.3810,-0.5715,0.5715*
%
%ADD240ROUNDEDRECTD240*%
%ADD241C,1.6800*%
%ADD242C,1.4080*%
%ADD243R,1.5080X1.5080*%
%ADD244C,2.5500*%
%ADD245C,3.3500*%
%ADD246C,1.5500*%
%ADD247O,2.0000X5.0000*%
%ADD248O,5.0000X2.2000*%
%ADD249O,5.0000X2.0000*%
%ADD250C,1.2000*%
%ADD251C,5.0000*%
%ADD252O,1.0000X1.6000*%
%ADD253C,0.6500*%
%ADD254C,1.9500*%
G04:AMPARAMS|DCode=255|XSize=2mm|YSize=2mm|CornerRadius=0.5mm|HoleSize=0mm|Usage=FLASHONLY|Rotation=270.000|XOffset=0mm|YOffset=0mm|HoleType=Round|Shape=RoundedRectangle|*
%AMROUNDEDRECTD255*
21,1,2.0000,1.0000,0,0,270.0*
21,1,1.0000,2.0000,0,0,270.0*
1,1,1.0000,-0.5000,-0.5000*
1,1,1.0000,-0.5000,0.5000*
1,1,1.0000,0.5000,0.5000*
1,1,1.0000,0.5000,-0.5000*
%
%ADD255ROUNDEDRECTD255*%
G04:AMPARAMS|DCode=256|XSize=1.6mm|YSize=1.6mm|CornerRadius=0.4mm|HoleSize=0mm|Usage=FLASHONLY|Rotation=90.000|XOffset=0mm|YOffset=0mm|HoleType=Round|Shape=RoundedRectangle|*
%AMROUNDEDRECTD256*
21,1,1.6000,0.8000,0,0,90.0*
21,1,0.8000,1.6000,0,0,90.0*
1,1,0.8000,0.4000,0.4000*
1,1,0.8000,0.4000,-0.4000*
1,1,0.8000,-0.4000,-0.4000*
1,1,0.8000,-0.4000,0.4000*
%
%ADD256ROUNDEDRECTD256*%
%ADD257O,4.0000X1.4000*%
%ADD258C,0.8000*%
%ADD259R,0.8000X0.8000*%
%ADD260C,1.8000*%
%ADD261C,3.0000*%
%ADD262C,0.2500*%
G04:AMPARAMS|DCode=263|XSize=1.9mm|YSize=1.9mm|CornerRadius=0.475mm|HoleSize=0mm|Usage=FLASHONLY|Rotation=90.000|XOffset=0mm|YOffset=0mm|HoleType=Round|Shape=RoundedRectangle|*
%AMROUNDEDRECTD263*
21,1,1.9000,0.9500,0,0,90.0*
21,1,0.9500,1.9000,0,0,90.0*
1,1,0.9500,0.4750,0.4750*
1,1,0.9500,0.4750,-0.4750*
1,1,0.9500,-0.4750,-0.4750*
1,1,0.9500,-0.4750,0.4750*
%
%ADD263ROUNDEDRECTD263*%
G04:AMPARAMS|DCode=264|XSize=1.524mm|YSize=1.524mm|CornerRadius=0.1905mm|HoleSize=0mm|Usage=FLASHONLY|Rotation=0.000|XOffset=0mm|YOffset=0mm|HoleType=Round|Shape=RoundedRectangle|*
%AMROUNDEDRECTD264*
21,1,1.5240,1.1430,0,0,0.0*
21,1,1.1430,1.5240,0,0,0.0*
1,1,0.3810,0.5715,-0.5715*
1,1,0.3810,-0.5715,-0.5715*
1,1,0.3810,-0.5715,0.5715*
1,1,0.3810,0.5715,0.5715*
%
%ADD264ROUNDEDRECTD264*%
G04:AMPARAMS|DCode=265|XSize=2mm|YSize=2mm|CornerRadius=0.5mm|HoleSize=0mm|Usage=FLASHONLY|Rotation=180.000|XOffset=0mm|YOffset=0mm|HoleType=Round|Shape=RoundedRectangle|*
%AMROUNDEDRECTD265*
21,1,2.0000,1.0000,0,0,180.0*
21,1,1.0000,2.0000,0,0,180.0*
1,1,1.0000,-0.5000,0.5000*
1,1,1.0000,0.5000,0.5000*
1,1,1.0000,0.5000,-0.5000*
1,1,1.0000,-0.5000,-0.5000*
%
%ADD265ROUNDEDRECTD265*%
D23*
X1475000Y296250D02*
D03*
X1465000D02*
D03*
X1455000D02*
D03*
X1445000D02*
D03*
X1435000Y296250D02*
D03*
X1425000Y296250D02*
D03*
X1415000D02*
D03*
X1405000D02*
D03*
X1395000Y296250D02*
D03*
X1385000Y296250D02*
D03*
X1375000D02*
D03*
X1365000D02*
D03*
X1355000D02*
D03*
X1345000D02*
D03*
X1335000D02*
D03*
Y331250D02*
D03*
X1345000Y331250D02*
D03*
X1355000Y331250D02*
D03*
X1365000D02*
D03*
X1375000Y331250D02*
D03*
X1385000D02*
D03*
X1395000D02*
D03*
X1405000D02*
D03*
X1415000D02*
D03*
X1425000D02*
D03*
X1435000D02*
D03*
X1445000D02*
D03*
X1455000D02*
D03*
X1465000Y331250D02*
D03*
X1475000D02*
D03*
Y241250D02*
D03*
X1465000D02*
D03*
X1455000D02*
D03*
X1445000Y241250D02*
D03*
X1435000D02*
D03*
X1425000Y241250D02*
D03*
X1415000D02*
D03*
X1405000D02*
D03*
X1395000Y241250D02*
D03*
X1385000D02*
D03*
X1375000Y241250D02*
D03*
X1365000D02*
D03*
X1355000D02*
D03*
X1345000Y241250D02*
D03*
X1335000Y241250D02*
D03*
Y206250D02*
D03*
X1345000Y206250D02*
D03*
X1355000Y206250D02*
D03*
X1365000D02*
D03*
X1375000Y206250D02*
D03*
X1385000D02*
D03*
X1395000D02*
D03*
X1405000D02*
D03*
X1415000D02*
D03*
X1425000D02*
D03*
X1435000D02*
D03*
X1445000D02*
D03*
X1455000D02*
D03*
X1465000Y206250D02*
D03*
X1475000D02*
D03*
X1030250Y209000D02*
D03*
X1038250D02*
D03*
X1226250Y291000D02*
D03*
X1218250D02*
D03*
X1210250D02*
D03*
X1202250D02*
D03*
X1194250D02*
D03*
X1186250D02*
D03*
X1178250D02*
D03*
X1170250D02*
D03*
X1162250D02*
D03*
X1154250D02*
D03*
X1146250D02*
D03*
X1138250D02*
D03*
X1130250D02*
D03*
X1122250D02*
D03*
X1114250D02*
D03*
X1106250D02*
D03*
X1098250D02*
D03*
X1090250D02*
D03*
X1222250Y209000D02*
D03*
X1214250D02*
D03*
X1206250D02*
D03*
X1198250D02*
D03*
X1190250D02*
D03*
X1182250D02*
D03*
X1174250D02*
D03*
X1166250D02*
D03*
X1158250D02*
D03*
X1150250D02*
D03*
X1142250D02*
D03*
X1134250D02*
D03*
X1126250D02*
D03*
X1118250D02*
D03*
X1110250D02*
D03*
X1102250D02*
D03*
X1094250D02*
D03*
X1086250D02*
D03*
X1050250Y291000D02*
D03*
X1042250D02*
D03*
X1034250D02*
D03*
X1026250D02*
D03*
X1018250D02*
D03*
X1010250D02*
D03*
X1002250D02*
D03*
X994250D02*
D03*
X1046250Y209000D02*
D03*
X1022250D02*
D03*
X1014250D02*
D03*
X1006250D02*
D03*
X998250D02*
D03*
X990250D02*
D03*
D24*
X940000Y333750D02*
D03*
Y323750D02*
D03*
X471250Y1008000D02*
D03*
Y1018000D02*
D03*
X660125Y212125D02*
D03*
Y222125D02*
D03*
X778250Y203062D02*
D03*
Y193062D02*
D03*
X789250D02*
D03*
Y203062D02*
D03*
X767250Y193062D02*
D03*
Y203062D02*
D03*
X758500Y136750D02*
D03*
Y126750D02*
D03*
X756250Y193062D02*
D03*
Y203062D02*
D03*
X770750Y126750D02*
D03*
Y136750D02*
D03*
X764500Y149000D02*
D03*
Y159000D02*
D03*
X758500Y172000D02*
D03*
Y182000D02*
D03*
X770750D02*
D03*
Y172000D02*
D03*
X174000Y1003500D02*
D03*
Y993500D02*
D03*
D03*
Y983500D02*
D03*
X443750Y566250D02*
D03*
Y576250D02*
D03*
X422500Y357500D02*
D03*
Y367500D02*
D03*
D25*
X938000Y299750D02*
D03*
X948000D02*
D03*
X938000Y309750D02*
D03*
X948000D02*
D03*
X1224400Y914750D02*
D03*
X1214400D02*
D03*
X645750Y244750D02*
D03*
X655750D02*
D03*
X647750Y234750D02*
D03*
X657750D02*
D03*
X698500Y215500D02*
D03*
X708500D02*
D03*
X1084400Y881375D02*
D03*
X1094400D02*
D03*
X1084400Y903875D02*
D03*
X1094400D02*
D03*
Y892625D02*
D03*
X1084400D02*
D03*
X1464400Y903875D02*
D03*
X1474400D02*
D03*
Y892625D02*
D03*
X1464400Y892625D02*
D03*
X1464400Y881375D02*
D03*
X1474400D02*
D03*
X1604400Y914750D02*
D03*
X1594400D02*
D03*
X1539500Y962750D02*
D03*
X1549500D02*
D03*
X1393250Y900150D02*
D03*
X1383250D02*
D03*
X1013250Y900150D02*
D03*
X1003251Y900150D02*
D03*
X1159500Y962750D02*
D03*
X1169500D02*
D03*
X414250Y600250D02*
D03*
X424250D02*
D03*
X424250Y590250D02*
D03*
X414250D02*
D03*
X459250Y648250D02*
D03*
X469250D02*
D03*
X403000Y381500D02*
D03*
X393000D02*
D03*
X403000Y391750D02*
D03*
X393000D02*
D03*
X438000Y439500D02*
D03*
X448000Y439500D02*
D03*
D26*
X734250Y182000D02*
D03*
Y178000D02*
D03*
Y174000D02*
D03*
X717250D02*
D03*
Y178000D02*
D03*
Y182000D02*
D03*
D27*
X727750Y171500D02*
D03*
X723750D02*
D03*
Y184500D02*
D03*
D28*
X727750Y184000D02*
D03*
D29*
X698750Y181500D02*
D03*
X688750D02*
D03*
X698771Y170625D02*
D03*
X688771D02*
D03*
X697750Y245000D02*
D03*
X687750D02*
D03*
X790000Y83500D02*
D03*
X800000D02*
D03*
X676750Y245000D02*
D03*
X666750D02*
D03*
X719500Y201063D02*
D03*
X709500D02*
D03*
X731750Y201000D02*
D03*
X741750D02*
D03*
X1535900Y184350D02*
D03*
X1525900Y184350D02*
D03*
X174250Y720000D02*
D03*
X164250D02*
D03*
X569750Y850250D02*
D03*
X579750D02*
D03*
X424250Y610750D02*
D03*
X414250D02*
D03*
X403250Y605750D02*
D03*
X393250Y605750D02*
D03*
X414250Y579750D02*
D03*
X424250D02*
D03*
X432091Y568341D02*
D03*
X422091D02*
D03*
X400909Y359478D02*
D03*
X410909D02*
D03*
X393000Y371000D02*
D03*
X403000D02*
D03*
X403000Y402000D02*
D03*
X393000Y402000D02*
D03*
X382000Y397000D02*
D03*
X372000D02*
D03*
D30*
X171500Y54700D02*
D03*
X171500Y42000D02*
D03*
Y29300D02*
D03*
Y16600D02*
D03*
X108500D02*
D03*
X108500Y29300D02*
D03*
Y42000D02*
D03*
X108500Y54700D02*
D03*
D31*
X128250Y1004000D02*
D03*
Y999500D02*
D03*
D32*
X1538250Y881750D02*
D03*
Y864750D02*
D03*
X1158250Y881750D02*
D03*
Y864750D02*
D03*
D33*
X1216750Y887750D02*
D03*
X1596750D02*
D03*
D34*
X1224250Y873500D02*
D03*
X1219250D02*
D03*
X1214250D02*
D03*
X1209250D02*
D03*
Y902000D02*
D03*
X1214250D02*
D03*
X1219250D02*
D03*
X1224250D02*
D03*
X1604250Y873500D02*
D03*
X1599250D02*
D03*
X1594250D02*
D03*
X1589250D02*
D03*
Y902000D02*
D03*
X1594250D02*
D03*
X1599250D02*
D03*
X1604250D02*
D03*
D35*
X1202500Y880250D02*
D03*
Y885250D02*
D03*
Y890250D02*
D03*
Y895250D02*
D03*
X1231000D02*
D03*
Y890250D02*
D03*
Y885250D02*
D03*
Y880250D02*
D03*
X1582500Y880250D02*
D03*
Y885250D02*
D03*
Y890250D02*
D03*
Y895250D02*
D03*
X1611000D02*
D03*
Y890250D02*
D03*
Y885250D02*
D03*
Y880250D02*
D03*
D36*
X1594250Y846375D02*
D03*
X1573250D02*
D03*
X1193250D02*
D03*
X1214250D02*
D03*
D37*
X1583750Y853375D02*
D03*
Y839375D02*
D03*
X1203750D02*
D03*
Y853375D02*
D03*
D38*
X1474400Y937125D02*
D03*
Y916125D02*
D03*
X1094400D02*
D03*
Y937125D02*
D03*
D39*
X1467400Y926625D02*
D03*
X1481400D02*
D03*
X1101400D02*
D03*
X1087400D02*
D03*
D40*
X1242500Y942000D02*
D03*
Y932000D02*
D03*
X604500Y873750D02*
D03*
Y883750D02*
D03*
X730750Y221500D02*
D03*
Y211500D02*
D03*
X688000Y222250D02*
D03*
Y212250D02*
D03*
X678000D02*
D03*
Y222250D02*
D03*
X719000Y215250D02*
D03*
Y225250D02*
D03*
X747750Y160250D02*
D03*
Y170250D02*
D03*
X1553750Y927500D02*
D03*
Y917500D02*
D03*
X1560750Y841375D02*
D03*
Y851375D02*
D03*
X1549500Y851375D02*
D03*
Y841375D02*
D03*
X1538250D02*
D03*
Y851375D02*
D03*
X1535250Y207000D02*
D03*
Y197000D02*
D03*
X1535250Y168750D02*
D03*
Y158750D02*
D03*
X667000Y758500D02*
D03*
Y748500D02*
D03*
X1622500Y942000D02*
D03*
Y932000D02*
D03*
X1647400Y854750D02*
D03*
Y844750D02*
D03*
X1617000Y968750D02*
D03*
Y958750D02*
D03*
X1457400Y854750D02*
D03*
Y844750D02*
D03*
X1411000Y901217D02*
D03*
Y891217D02*
D03*
X1376250Y913250D02*
D03*
Y923250D02*
D03*
X1398000Y975000D02*
D03*
Y965000D02*
D03*
X1018000Y975000D02*
D03*
X1018000Y965000D02*
D03*
X996250Y913250D02*
D03*
Y923250D02*
D03*
X1031000Y901217D02*
D03*
Y891217D02*
D03*
X1077400Y854750D02*
D03*
Y844750D02*
D03*
X1173750Y927500D02*
D03*
Y917500D02*
D03*
X1233750Y972000D02*
D03*
Y962000D02*
D03*
X1267400Y854750D02*
D03*
Y844750D02*
D03*
X1180750Y841375D02*
D03*
Y851375D02*
D03*
X1158250Y841375D02*
D03*
Y851375D02*
D03*
X1169500D02*
D03*
Y841375D02*
D03*
X403855Y579750D02*
D03*
Y589750D02*
D03*
X454250Y576250D02*
D03*
Y566250D02*
D03*
X433000Y367500D02*
D03*
Y357500D02*
D03*
X382605Y371000D02*
D03*
Y381000D02*
D03*
D41*
X670500Y869750D02*
D03*
Y849750D02*
D03*
X584000Y892250D02*
D03*
Y872250D02*
D03*
D42*
X880850Y557750D02*
D03*
Y553750D02*
D03*
Y549750D02*
D03*
Y545750D02*
D03*
Y541750D02*
D03*
Y537750D02*
D03*
Y533750D02*
D03*
Y529750D02*
D03*
Y525750D02*
D03*
Y521750D02*
D03*
Y517750D02*
D03*
Y513750D02*
D03*
Y509750D02*
D03*
Y505750D02*
D03*
Y501750D02*
D03*
Y497750D02*
D03*
Y493750D02*
D03*
Y489750D02*
D03*
Y485750D02*
D03*
Y481750D02*
D03*
Y477750D02*
D03*
Y473750D02*
D03*
Y469750D02*
D03*
Y465750D02*
D03*
Y461750D02*
D03*
Y457750D02*
D03*
Y453750D02*
D03*
Y449750D02*
D03*
Y445750D02*
D03*
Y441750D02*
D03*
Y437750D02*
D03*
Y433750D02*
D03*
Y429750D02*
D03*
Y425750D02*
D03*
Y421750D02*
D03*
Y417750D02*
D03*
Y413750D02*
D03*
Y409750D02*
D03*
Y405750D02*
D03*
Y401750D02*
D03*
Y397750D02*
D03*
Y393750D02*
D03*
Y389750D02*
D03*
Y385750D02*
D03*
Y381750D02*
D03*
Y377750D02*
D03*
Y373750D02*
D03*
Y369750D02*
D03*
Y365750D02*
D03*
Y361750D02*
D03*
X911650Y557750D02*
D03*
Y553750D02*
D03*
Y549750D02*
D03*
Y545750D02*
D03*
Y541750D02*
D03*
Y537750D02*
D03*
Y533750D02*
D03*
Y529750D02*
D03*
Y525750D02*
D03*
Y521750D02*
D03*
Y517750D02*
D03*
Y513750D02*
D03*
Y509750D02*
D03*
Y505750D02*
D03*
Y501750D02*
D03*
Y497750D02*
D03*
Y493750D02*
D03*
Y489750D02*
D03*
Y485750D02*
D03*
Y481750D02*
D03*
Y477750D02*
D03*
Y473750D02*
D03*
Y469750D02*
D03*
Y465750D02*
D03*
Y461750D02*
D03*
Y457750D02*
D03*
Y453750D02*
D03*
Y449750D02*
D03*
Y445750D02*
D03*
Y441750D02*
D03*
Y437750D02*
D03*
Y433750D02*
D03*
Y429750D02*
D03*
Y425750D02*
D03*
Y421750D02*
D03*
Y417750D02*
D03*
Y413750D02*
D03*
Y409750D02*
D03*
Y405750D02*
D03*
Y401750D02*
D03*
Y397750D02*
D03*
Y393750D02*
D03*
Y389750D02*
D03*
Y385750D02*
D03*
Y381750D02*
D03*
Y377750D02*
D03*
Y373750D02*
D03*
Y369750D02*
D03*
Y365750D02*
D03*
Y361750D02*
D03*
X540850Y557750D02*
D03*
Y553750D02*
D03*
Y549750D02*
D03*
Y545750D02*
D03*
Y541750D02*
D03*
Y537750D02*
D03*
Y533750D02*
D03*
Y529750D02*
D03*
Y525750D02*
D03*
Y521750D02*
D03*
Y517750D02*
D03*
Y513750D02*
D03*
Y509750D02*
D03*
Y505750D02*
D03*
Y501750D02*
D03*
Y497750D02*
D03*
Y493750D02*
D03*
Y489750D02*
D03*
Y485750D02*
D03*
Y481750D02*
D03*
Y477750D02*
D03*
Y473750D02*
D03*
Y469750D02*
D03*
Y465750D02*
D03*
Y461750D02*
D03*
Y457750D02*
D03*
Y453750D02*
D03*
Y449750D02*
D03*
Y445750D02*
D03*
Y441750D02*
D03*
Y437750D02*
D03*
Y433750D02*
D03*
Y429750D02*
D03*
Y425750D02*
D03*
Y421750D02*
D03*
Y417750D02*
D03*
Y413750D02*
D03*
Y409750D02*
D03*
Y405750D02*
D03*
Y401750D02*
D03*
Y397750D02*
D03*
Y393750D02*
D03*
Y389750D02*
D03*
Y385750D02*
D03*
Y381750D02*
D03*
Y377750D02*
D03*
Y373750D02*
D03*
Y369750D02*
D03*
Y365750D02*
D03*
Y361750D02*
D03*
X571650Y557750D02*
D03*
Y553750D02*
D03*
Y549750D02*
D03*
Y545750D02*
D03*
Y541750D02*
D03*
Y537750D02*
D03*
Y533750D02*
D03*
Y529750D02*
D03*
Y525750D02*
D03*
Y521750D02*
D03*
Y517750D02*
D03*
Y513750D02*
D03*
Y509750D02*
D03*
Y505750D02*
D03*
Y501750D02*
D03*
Y497750D02*
D03*
Y493750D02*
D03*
Y489750D02*
D03*
Y485750D02*
D03*
Y481750D02*
D03*
Y477750D02*
D03*
Y473750D02*
D03*
Y469750D02*
D03*
Y465750D02*
D03*
Y461750D02*
D03*
Y457750D02*
D03*
Y453750D02*
D03*
Y449750D02*
D03*
Y445750D02*
D03*
Y441750D02*
D03*
Y437750D02*
D03*
Y433750D02*
D03*
Y429750D02*
D03*
Y425750D02*
D03*
Y421750D02*
D03*
Y417750D02*
D03*
Y413750D02*
D03*
Y409750D02*
D03*
Y405750D02*
D03*
Y401750D02*
D03*
Y397750D02*
D03*
Y393750D02*
D03*
Y389750D02*
D03*
Y385750D02*
D03*
Y381750D02*
D03*
Y377750D02*
D03*
Y373750D02*
D03*
Y369750D02*
D03*
Y365750D02*
D03*
Y361750D02*
D03*
D43*
X1254750Y215000D02*
D03*
X961750D02*
D03*
D44*
X686500Y899750D02*
D03*
X755500D02*
D03*
X686500Y811750D02*
D03*
X755500D02*
D03*
D45*
X1352250Y702500D02*
D03*
D46*
X1352500Y542750D02*
D03*
D47*
X120055Y745250D02*
D03*
D48*
X104055Y857200D02*
D03*
D49*
X95555Y741250D02*
D03*
D50*
X89055Y860750D02*
D03*
D51*
X13055Y744500D02*
D03*
D52*
Y859000D02*
D03*
D53*
X11805Y846000D02*
D03*
D54*
Y835000D02*
D03*
D55*
Y824000D02*
D03*
D56*
Y813000D02*
D03*
D57*
Y802000D02*
D03*
D58*
Y791000D02*
D03*
D59*
X11805Y780000D02*
D03*
D60*
X11805Y769000D02*
D03*
D61*
X1688850Y259500D02*
D03*
Y129500D02*
D03*
X1568850Y259500D02*
D03*
Y129500D02*
D03*
D62*
X1554050Y219200D02*
D03*
Y209700D02*
D03*
X1554050Y197000D02*
D03*
X1554050Y184300D02*
D03*
Y171600D02*
D03*
Y158900D02*
D03*
Y146200D02*
D03*
D63*
X666601Y18525D02*
D03*
Y32525D02*
D03*
X659601Y32525D02*
D03*
Y18525D02*
D03*
X884601D02*
D03*
Y32525D02*
D03*
X891601Y32525D02*
D03*
Y18525D02*
D03*
X809601Y18525D02*
D03*
Y32525D02*
D03*
X816601Y32525D02*
D03*
Y18525D02*
D03*
X734601Y18525D02*
D03*
Y32525D02*
D03*
X741601Y32525D02*
D03*
Y18525D02*
D03*
X1034601Y18500D02*
D03*
Y32500D02*
D03*
X1041601Y32500D02*
D03*
Y18500D02*
D03*
X959601Y18500D02*
D03*
Y32500D02*
D03*
X966601Y32500D02*
D03*
Y18500D02*
D03*
D64*
X1310750Y100750D02*
D03*
X1370750D02*
D03*
Y60750D02*
D03*
X1310750D02*
D03*
X470876Y21630D02*
D03*
X496304D02*
D03*
X521733D02*
D03*
X983250Y250000D02*
D03*
X423990Y150750D02*
D03*
X398590D02*
D03*
X279590Y150750D02*
D03*
X304990D02*
D03*
X1390785Y453035D02*
D03*
X1416214Y453035D02*
D03*
X1390785Y427607D02*
D03*
X1416214Y478464D02*
D03*
X1390786Y478464D02*
D03*
X304990Y90250D02*
D03*
X279590D02*
D03*
X241857Y468000D02*
D03*
X267286D02*
D03*
X292714D02*
D03*
X860714Y850786D02*
D03*
X835286Y876214D02*
D03*
Y850786D02*
D03*
X131700Y90500D02*
D03*
X1307500Y1024050D02*
D03*
X398590Y211250D02*
D03*
X423990D02*
D03*
X398590Y90250D02*
D03*
X423990D02*
D03*
X194950Y90500D02*
D03*
X279590Y20380D02*
D03*
X304990D02*
D03*
X398700Y20500D02*
D03*
X1505500Y428286D02*
D03*
Y453714D02*
D03*
Y479143D02*
D03*
X140000Y929786D02*
D03*
Y955214D02*
D03*
Y980643D02*
D03*
D65*
X303000Y549250D02*
D03*
X288000D02*
D03*
X273000D02*
D03*
X258000Y549250D02*
D03*
D66*
X303000Y510250D02*
D03*
X288000D02*
D03*
X273000D02*
D03*
X258000Y510250D02*
D03*
D67*
X639750Y856000D02*
D03*
Y884000D02*
D03*
D68*
X539250Y1058750D02*
D03*
Y1089750D02*
D03*
D69*
X566750Y1012950D02*
D03*
X561750D02*
D03*
X556750D02*
D03*
X551750D02*
D03*
X546750D02*
D03*
X541750D02*
D03*
X536750D02*
D03*
X531750D02*
D03*
X526750D02*
D03*
X521750D02*
D03*
X516750D02*
D03*
X511750D02*
D03*
D70*
X1077400Y867500D02*
D03*
X1094400Y867500D02*
D03*
X595750Y850250D02*
D03*
X612750D02*
D03*
X1541750Y896500D02*
D03*
X1558750D02*
D03*
X1474400Y867500D02*
D03*
X1457400D02*
D03*
X1161750Y896500D02*
D03*
X1178750D02*
D03*
D71*
X368000Y491750D02*
D03*
Y461750D02*
D03*
X349750Y564000D02*
D03*
X349750Y534000D02*
D03*
X370500Y564000D02*
D03*
Y534000D02*
D03*
X348500Y253000D02*
D03*
X348500Y283000D02*
D03*
X327313Y355188D02*
D03*
Y325187D02*
D03*
X348500Y355250D02*
D03*
Y325250D02*
D03*
D72*
X549992Y825750D02*
D03*
Y779750D02*
D03*
D73*
X624507Y802750D02*
D03*
D74*
X1588000Y999750D02*
D03*
X1583500D02*
D03*
X1393500D02*
D03*
X1398000D02*
D03*
X1013500D02*
D03*
X1018000D02*
D03*
X1203500Y999750D02*
D03*
X1208000Y999750D02*
D03*
D75*
X465250Y613250D02*
D03*
X444000Y404500D02*
D03*
D76*
X450750Y613250D02*
D03*
X429500Y404500D02*
D03*
D77*
X436750Y600750D02*
D03*
Y605750D02*
D03*
Y610750D02*
D03*
Y615750D02*
D03*
Y620750D02*
D03*
Y625750D02*
D03*
X476750D02*
D03*
Y620750D02*
D03*
Y615750D02*
D03*
Y610750D02*
D03*
Y605750D02*
D03*
Y600750D02*
D03*
X415500Y392000D02*
D03*
Y397000D02*
D03*
Y402000D02*
D03*
Y407000D02*
D03*
Y412000D02*
D03*
Y417000D02*
D03*
X455500D02*
D03*
Y412000D02*
D03*
Y407000D02*
D03*
Y402000D02*
D03*
Y397000D02*
D03*
Y392000D02*
D03*
D78*
X444250Y633250D02*
D03*
X449250D02*
D03*
X454250D02*
D03*
X459250D02*
D03*
X464250D02*
D03*
X469250D02*
D03*
Y593250D02*
D03*
X464250D02*
D03*
X459250D02*
D03*
X454250D02*
D03*
X449250D02*
D03*
X444250D02*
D03*
X423000Y424500D02*
D03*
X428000D02*
D03*
X433000D02*
D03*
X438000D02*
D03*
X443000D02*
D03*
X448000D02*
D03*
Y384500D02*
D03*
X443000D02*
D03*
X438000D02*
D03*
X433000D02*
D03*
X428000D02*
D03*
X423000D02*
D03*
D79*
X1398000Y914150D02*
D03*
X1404500D02*
D03*
X1411000D02*
D03*
X1417500D02*
D03*
X1417500Y951650D02*
D03*
X1411000D02*
D03*
X1404500D02*
D03*
X1398000D02*
D03*
X1594500Y927500D02*
D03*
X1588000D02*
D03*
X1581500D02*
D03*
X1575000D02*
D03*
Y965000D02*
D03*
X1581500D02*
D03*
X1588000D02*
D03*
X1594500D02*
D03*
X1018000Y951650D02*
D03*
X1024500D02*
D03*
X1031000Y951650D02*
D03*
X1037500D02*
D03*
X1037501Y914150D02*
D03*
X1031000D02*
D03*
X1024500D02*
D03*
X1018000D02*
D03*
X1214500Y927500D02*
D03*
X1208000D02*
D03*
X1201500D02*
D03*
X1195000D02*
D03*
Y965000D02*
D03*
X1201500D02*
D03*
X1208000D02*
D03*
X1214500D02*
D03*
D80*
X1426500Y923150D02*
D03*
Y929650D02*
D03*
Y936150D02*
D03*
Y942650D02*
D03*
X1389000D02*
D03*
Y936150D02*
D03*
Y929650D02*
D03*
Y923150D02*
D03*
X1566000Y936500D02*
D03*
Y943000D02*
D03*
Y949500D02*
D03*
Y956000D02*
D03*
X1603500Y956000D02*
D03*
Y949500D02*
D03*
Y943000D02*
D03*
Y936500D02*
D03*
X1009000Y923150D02*
D03*
Y929650D02*
D03*
Y936150D02*
D03*
X1009000Y942650D02*
D03*
X1046500Y942650D02*
D03*
Y936150D02*
D03*
Y929650D02*
D03*
X1046500Y923150D02*
D03*
X1186000Y936500D02*
D03*
Y943000D02*
D03*
Y949500D02*
D03*
Y956000D02*
D03*
X1223500Y956000D02*
D03*
Y949500D02*
D03*
Y943000D02*
D03*
Y936500D02*
D03*
D81*
X1407750Y932900D02*
D03*
X1027750D02*
D03*
D82*
X1063400Y866000D02*
D03*
X1041400Y882000D02*
D03*
Y866000D02*
D03*
X1443400D02*
D03*
X1421400Y882000D02*
D03*
Y866000D02*
D03*
D83*
X1063400Y880250D02*
D03*
X1443400D02*
D03*
D84*
X190250Y983250D02*
D03*
X224250D02*
D03*
X1386500Y377500D02*
D03*
X1420500D02*
D03*
D85*
X207250Y966250D02*
D03*
Y1000250D02*
D03*
X1403500Y360500D02*
D03*
Y394500D02*
D03*
D86*
X223250Y983250D02*
D03*
X191250D02*
D03*
X1419500Y377500D02*
D03*
X1387500D02*
D03*
D87*
X207250Y997250D02*
D03*
Y969250D02*
D03*
X1403500Y391500D02*
D03*
Y363500D02*
D03*
D88*
X402000Y507000D02*
D03*
X482500D02*
D03*
X461136Y298250D02*
D03*
X380636D02*
D03*
D89*
X481500Y1090250D02*
D03*
Y1073250D02*
D03*
X942000Y1090500D02*
D03*
Y1073500D02*
D03*
D90*
X439600Y895000D02*
D03*
Y865000D02*
D03*
Y835000D02*
D03*
Y805000D02*
D03*
Y775000D02*
D03*
Y745000D02*
D03*
X170400D02*
D03*
Y775000D02*
D03*
Y805000D02*
D03*
Y835000D02*
D03*
Y865000D02*
D03*
Y895000D02*
D03*
D91*
X336750Y655250D02*
D03*
X252750D02*
D03*
D92*
X1306000Y982252D02*
D03*
X1141000D02*
D03*
X1520997D02*
D03*
X1685997D02*
D03*
X1330999D02*
D03*
X1495999D02*
D03*
X951002D02*
D03*
X1116002D02*
D03*
D93*
X1306002Y908750D02*
D03*
X1140999Y908753D02*
D03*
X1520995D02*
D03*
X1685999Y908750D02*
D03*
X1330997Y908753D02*
D03*
X1496000Y908750D02*
D03*
X951000Y908753D02*
D03*
X1116003Y908750D02*
D03*
D94*
X1223499Y826250D02*
D03*
X1603495D02*
D03*
X1413497D02*
D03*
X1033500D02*
D03*
D95*
X1297000Y826252D02*
D03*
X1150000D02*
D03*
X1529997D02*
D03*
X1676997D02*
D03*
X1339999D02*
D03*
X1486998D02*
D03*
X960002D02*
D03*
X1107002D02*
D03*
D96*
X1306000Y845252D02*
D03*
X1141000D02*
D03*
X1520997D02*
D03*
X1685997D02*
D03*
X1330999D02*
D03*
X1495999D02*
D03*
X951002D02*
D03*
X1116002D02*
D03*
D97*
X1287000Y991252D02*
D03*
X1160000D02*
D03*
X1539997D02*
D03*
X1666997D02*
D03*
X1349999D02*
D03*
X1476999D02*
D03*
X970002D02*
D03*
X1097002D02*
D03*
D98*
X556750Y909000D02*
D03*
X510750D02*
D03*
Y952750D02*
D03*
X556750D02*
D03*
D99*
X1350750Y761750D02*
D03*
X186250Y587750D02*
D03*
D100*
X144000Y745000D02*
D03*
Y720000D02*
D03*
D101*
X1077400Y812250D02*
D03*
Y778250D02*
D03*
X1457400Y812250D02*
D03*
Y778250D02*
D03*
X1267400Y812250D02*
D03*
Y778250D02*
D03*
X1647400Y812250D02*
D03*
Y778250D02*
D03*
D102*
X1060400Y795250D02*
D03*
X1094400D02*
D03*
X1440400D02*
D03*
X1474400D02*
D03*
X1250400D02*
D03*
X1284400D02*
D03*
X1630400D02*
D03*
X1664400D02*
D03*
D103*
X1077400Y779250D02*
D03*
Y811250D02*
D03*
X1457400Y779250D02*
D03*
Y811250D02*
D03*
X1267400Y779250D02*
D03*
Y811250D02*
D03*
X1647400Y779250D02*
D03*
Y811250D02*
D03*
D104*
X1091400Y795250D02*
D03*
X1063400D02*
D03*
X1471400D02*
D03*
X1443400D02*
D03*
X1281400D02*
D03*
X1253400D02*
D03*
X1661400D02*
D03*
X1633400D02*
D03*
D105*
X397125Y419905D02*
D03*
X377125D02*
D03*
X417250Y630500D02*
D03*
X397250D02*
D03*
D106*
X1584750Y946250D02*
D03*
X1204750D02*
D03*
D193*
X99100Y343000D02*
D03*
Y318000D02*
D03*
Y298000D02*
D03*
Y273000D02*
D03*
X114100Y268000D02*
D03*
Y288000D02*
D03*
Y308000D02*
D03*
Y328000D02*
D03*
Y348000D02*
D03*
X131100Y343000D02*
D03*
Y318000D02*
D03*
Y298000D02*
D03*
Y273000D02*
D03*
X146100Y308000D02*
D03*
Y348000D02*
D03*
Y328000D02*
D03*
Y288000D02*
D03*
Y268000D02*
D03*
D197*
X1233250Y250000D02*
D03*
D202*
X818250Y996050D02*
D03*
X881750D02*
D03*
X792850Y958150D02*
D03*
X805550Y932750D02*
D03*
X818250Y958150D02*
D03*
X830950Y932750D02*
D03*
X843650Y958150D02*
D03*
X856350Y932750D02*
D03*
X869050Y958150D02*
D03*
X881750Y932750D02*
D03*
X894450Y958150D02*
D03*
D210*
X1676350Y229500D02*
D03*
Y144500D02*
D03*
D211*
X1352250Y585500D02*
D03*
D219*
X1265750Y16250D02*
D03*
X1265750Y145250D02*
D03*
X1414750Y16250D02*
D03*
Y145250D02*
D03*
X675105Y53025D02*
D03*
X650105D02*
D03*
X1025105Y53000D02*
D03*
X1050105D02*
D03*
X950105Y53025D02*
D03*
X975105D02*
D03*
X875105D02*
D03*
X900105D02*
D03*
X800105D02*
D03*
X825105D02*
D03*
X725105D02*
D03*
X750105D02*
D03*
D221*
X1630800Y546800D02*
D03*
Y521400D02*
D03*
X1630800Y496000D02*
D03*
X1630800Y470600D02*
D03*
Y445200D02*
D03*
Y419800D02*
D03*
Y394400D02*
D03*
X1630800Y369000D02*
D03*
X1630800Y343600D02*
D03*
Y318200D02*
D03*
X1656200Y546800D02*
D03*
Y521400D02*
D03*
X1656200Y496000D02*
D03*
X1656200Y470600D02*
D03*
Y445200D02*
D03*
Y419800D02*
D03*
Y394400D02*
D03*
X1656200Y369000D02*
D03*
X1656200Y343600D02*
D03*
D225*
X-80150Y-80000D02*
D03*
X491000Y723250D02*
D03*
X1277750Y349250D02*
D03*
X-80150Y1180000D02*
D03*
X1780150Y1180000D02*
D03*
X1780150Y-80000D02*
D03*
X1352250Y660500D02*
D03*
D229*
X356250Y513000D02*
D03*
X333750Y304250D02*
D03*
X598250Y1009750D02*
D03*
X615500Y922750D02*
D03*
X1172500Y25300D02*
D03*
X1217500D02*
D03*
D236*
X445447Y21630D02*
D03*
X318143Y468000D02*
D03*
X860714Y876214D02*
D03*
D237*
X135900Y373700D02*
D03*
Y242300D02*
D03*
X79100Y373700D02*
D03*
Y242300D02*
D03*
D238*
X1529964Y558964D02*
D03*
X1504536D02*
D03*
X1529964Y584393D02*
D03*
X1504536Y584393D02*
D03*
X1529964Y609822D02*
D03*
X1504536D02*
D03*
X1529964Y635250D02*
D03*
X1504536D02*
D03*
X1529964Y660679D02*
D03*
X1504536D02*
D03*
X1529964Y686107D02*
D03*
X1504536Y686107D02*
D03*
X1529964Y711536D02*
D03*
X1504536D02*
D03*
X275714Y286821D02*
D03*
X250286D02*
D03*
X275714Y312250D02*
D03*
X250286D02*
D03*
X275714Y337678D02*
D03*
X250286D02*
D03*
X275714Y363107D02*
D03*
X250286Y261393D02*
D03*
X275714Y261393D02*
D03*
X1658750Y733607D02*
D03*
X1658750Y708178D02*
D03*
X1658750Y682750D02*
D03*
X1658750Y657321D02*
D03*
X42870Y102519D02*
D03*
Y127947D02*
D03*
Y153376D02*
D03*
X352500Y975714D02*
D03*
X124910Y153376D02*
D03*
X174036Y1061250D02*
D03*
X388286Y675250D02*
D03*
D239*
X987250Y730500D02*
D03*
X1229250D02*
D03*
X561250Y244750D02*
D03*
X891250Y724750D02*
D03*
X561250Y724750D02*
D03*
X891250Y244750D02*
D03*
D240*
X373190Y150750D02*
D03*
X254190Y150750D02*
D03*
X254190Y90250D02*
D03*
X106300Y90500D02*
D03*
X373190Y211250D02*
D03*
Y90250D02*
D03*
X169550Y90500D02*
D03*
X254190Y20380D02*
D03*
X373300Y20500D02*
D03*
D241*
X783600Y1062250D02*
D03*
X809000D02*
D03*
X891000D02*
D03*
X916400D02*
D03*
D242*
X792850Y983350D02*
D03*
X907150D02*
D03*
D243*
X907150Y932750D02*
D03*
D244*
X771500Y991150D02*
D03*
X928500D02*
D03*
D245*
X792850Y1021650D02*
D03*
X907150Y1021650D02*
D03*
D246*
X69750Y944000D02*
D03*
X19750D02*
D03*
X100750Y928000D02*
D03*
X19750Y899000D02*
D03*
X100750Y960000D02*
D03*
X69750Y908000D02*
D03*
X19750Y992000D02*
D03*
D247*
X643500Y1022750D02*
D03*
D248*
X691500Y989750D02*
D03*
D249*
Y1052750D02*
D03*
D250*
X811500Y136250D02*
D03*
X887500D02*
D03*
D251*
X1665000Y35000D02*
D03*
X492500Y857500D02*
D03*
Y142500D02*
D03*
X1207500D02*
D03*
X35000Y1065000D02*
D03*
Y35000D02*
D03*
X1665000Y1065000D02*
D03*
D252*
X581950Y1084250D02*
D03*
X496550D02*
D03*
X581950Y1036950D02*
D03*
X496550D02*
D03*
D253*
X515250Y1032450D02*
D03*
X563250D02*
D03*
X523250D02*
D03*
X555250D02*
D03*
X531250D02*
D03*
X547250D02*
D03*
X511250Y1025450D02*
D03*
X567250D02*
D03*
X519250D02*
D03*
X559250D02*
D03*
X527250D02*
D03*
X551250D02*
D03*
X535250D02*
D03*
X543250D02*
D03*
D254*
X1230050Y50200D02*
D03*
X1159950D02*
D03*
D255*
X250286Y363107D02*
D03*
X1658750Y631893D02*
D03*
X42870Y178804D02*
D03*
X352500Y950286D02*
D03*
X124910Y178804D02*
D03*
D256*
X1416214Y427607D02*
D03*
X1505500Y402857D02*
D03*
X140000Y904357D02*
D03*
D257*
X74501Y698483D02*
D03*
X164501Y698483D02*
D03*
X195501Y633483D02*
D03*
X100501D02*
D03*
Y471483D02*
D03*
X195501D02*
D03*
X164501Y536483D02*
D03*
X74501D02*
D03*
D258*
X180261Y670983D02*
D03*
X168701D02*
D03*
X157141D02*
D03*
X145581D02*
D03*
X134021D02*
D03*
X122461D02*
D03*
X110901D02*
D03*
X99341D02*
D03*
X186041Y660983D02*
D03*
X174481Y660983D02*
D03*
X162921D02*
D03*
X151361D02*
D03*
X139801D02*
D03*
X128241Y660983D02*
D03*
X116681D02*
D03*
X105121D02*
D03*
X93561D02*
D03*
X87781Y670983D02*
D03*
X867875Y1100000D02*
D03*
X832125Y1100000D02*
D03*
X843875Y1100000D02*
D03*
X855875D02*
D03*
X1269500Y1100000D02*
D03*
X1305250Y1100000D02*
D03*
X1293500Y1100000D02*
D03*
X1281500D02*
D03*
X418500D02*
D03*
X406500D02*
D03*
X394750Y1100000D02*
D03*
X430500Y1100000D02*
D03*
X1700000Y732500D02*
D03*
Y744500D02*
D03*
Y756250D02*
D03*
Y720500D02*
D03*
Y329500D02*
D03*
Y293750D02*
D03*
Y305500D02*
D03*
Y317500D02*
D03*
X0D02*
D03*
Y305500D02*
D03*
Y293750D02*
D03*
Y329500D02*
D03*
Y720500D02*
D03*
Y756250D02*
D03*
Y744500D02*
D03*
Y732500D02*
D03*
X87781Y508983D02*
D03*
X93561Y498983D02*
D03*
X105121D02*
D03*
X116681D02*
D03*
X128241D02*
D03*
X139801D02*
D03*
X151361D02*
D03*
X162921D02*
D03*
X174481D02*
D03*
X186041D02*
D03*
X99341Y508983D02*
D03*
X110901D02*
D03*
X122461D02*
D03*
X134021D02*
D03*
X145581D02*
D03*
X157141D02*
D03*
X168701D02*
D03*
X180261D02*
D03*
D259*
X82001Y660983D02*
D03*
Y498983D02*
D03*
D260*
X195501Y685983D02*
D03*
X63001Y650983D02*
D03*
Y488983D02*
D03*
X195501Y523983D02*
D03*
D261*
X86500Y1078250D02*
D03*
Y1027250D02*
D03*
X137500Y1078250D02*
D03*
X112000Y1052750D02*
D03*
X137500Y1027250D02*
D03*
X287500Y1027250D02*
D03*
X262000Y1052750D02*
D03*
X287500Y1078250D02*
D03*
X236500Y1027250D02*
D03*
Y1078250D02*
D03*
X437500Y1027250D02*
D03*
X412000Y1052750D02*
D03*
X437500Y1078250D02*
D03*
X386500Y1027250D02*
D03*
Y1078250D02*
D03*
X1562500Y1078250D02*
D03*
Y1027250D02*
D03*
X1613500Y1078250D02*
D03*
X1588000Y1052750D02*
D03*
X1613500Y1027250D02*
D03*
X1182500Y1078250D02*
D03*
X1182500Y1027250D02*
D03*
X1233500Y1078250D02*
D03*
X1208000Y1052750D02*
D03*
X1233500Y1027250D02*
D03*
X1372500Y1078250D02*
D03*
Y1027250D02*
D03*
X1423500Y1078250D02*
D03*
X1398000Y1052750D02*
D03*
X1423500Y1027250D02*
D03*
X992500Y1078250D02*
D03*
Y1027250D02*
D03*
X1043500Y1078250D02*
D03*
X1018000Y1052750D02*
D03*
X1043500Y1027250D02*
D03*
D262*
X64470Y127947D02*
D03*
D263*
X1656200Y318200D02*
D03*
D264*
X1307500Y1049450D02*
D03*
D265*
X199464Y1061250D02*
D03*
X413714Y675250D02*
D03*
M02*
