G04*
G04 #@! TF.GenerationSoftware,Altium Limited,Altium Designer,19.1.6 (110)*
G04*
G04 Layer_Color=8388736*
%FSLAX44Y44*%
%MOMM*%
G71*
G01*
G75*
%ADD48C,1.6000*%
%ADD49R,0.6000X2.0000*%
%ADD63R,0.7000X0.2000*%
%ADD64R,2.3000X3.2000*%
G04:AMPARAMS|DCode=109|XSize=0.6mm|YSize=0.7mm|CornerRadius=0.1mm|HoleSize=0mm|Usage=FLASHONLY|Rotation=0.000|XOffset=0mm|YOffset=0mm|HoleType=Round|Shape=RoundedRectangle|*
%AMROUNDEDRECTD109*
21,1,0.6000,0.5000,0,0,0.0*
21,1,0.4000,0.7000,0,0,0.0*
1,1,0.2000,0.2000,-0.2500*
1,1,0.2000,-0.2000,-0.2500*
1,1,0.2000,-0.2000,0.2500*
1,1,0.2000,0.2000,0.2500*
%
%ADD109ROUNDEDRECTD109*%
G04:AMPARAMS|DCode=110|XSize=0.35mm|YSize=0.575mm|CornerRadius=0.1125mm|HoleSize=0mm|Usage=FLASHONLY|Rotation=270.000|XOffset=0mm|YOffset=0mm|HoleType=Round|Shape=RoundedRectangle|*
%AMROUNDEDRECTD110*
21,1,0.3500,0.3500,0,0,270.0*
21,1,0.1250,0.5750,0,0,270.0*
1,1,0.2250,-0.1750,-0.0625*
1,1,0.2250,-0.1750,0.0625*
1,1,0.2250,0.1750,0.0625*
1,1,0.2250,0.1750,-0.0625*
%
%ADD110ROUNDEDRECTD110*%
G04:AMPARAMS|DCode=111|XSize=0.35mm|YSize=0.575mm|CornerRadius=0.1125mm|HoleSize=0mm|Usage=FLASHONLY|Rotation=180.000|XOffset=0mm|YOffset=0mm|HoleType=Round|Shape=RoundedRectangle|*
%AMROUNDEDRECTD111*
21,1,0.3500,0.3500,0,0,180.0*
21,1,0.1250,0.5750,0,0,180.0*
1,1,0.2250,-0.0625,0.1750*
1,1,0.2250,0.0625,0.1750*
1,1,0.2250,0.0625,-0.1750*
1,1,0.2250,-0.0625,-0.1750*
%
%ADD111ROUNDEDRECTD111*%
G04:AMPARAMS|DCode=112|XSize=1.2mm|YSize=1.2mm|CornerRadius=0.325mm|HoleSize=0mm|Usage=FLASHONLY|Rotation=270.000|XOffset=0mm|YOffset=0mm|HoleType=Round|Shape=RoundedRectangle|*
%AMROUNDEDRECTD112*
21,1,1.2000,0.5500,0,0,270.0*
21,1,0.5500,1.2000,0,0,270.0*
1,1,0.6500,-0.2750,-0.2750*
1,1,0.6500,-0.2750,0.2750*
1,1,0.6500,0.2750,0.2750*
1,1,0.6500,0.2750,-0.2750*
%
%ADD112ROUNDEDRECTD112*%
G04:AMPARAMS|DCode=113|XSize=0.6mm|YSize=0.7mm|CornerRadius=0.1mm|HoleSize=0mm|Usage=FLASHONLY|Rotation=270.000|XOffset=0mm|YOffset=0mm|HoleType=Round|Shape=RoundedRectangle|*
%AMROUNDEDRECTD113*
21,1,0.6000,0.5000,0,0,270.0*
21,1,0.4000,0.7000,0,0,270.0*
1,1,0.2000,-0.2500,-0.2000*
1,1,0.2000,-0.2500,0.2000*
1,1,0.2000,0.2500,0.2000*
1,1,0.2000,0.2500,-0.2000*
%
%ADD113ROUNDEDRECTD113*%
%ADD114R,0.4100X0.4000*%
G04:AMPARAMS|DCode=115|XSize=1.2mm|YSize=1.2mm|CornerRadius=0.325mm|HoleSize=0mm|Usage=FLASHONLY|Rotation=0.000|XOffset=0mm|YOffset=0mm|HoleType=Round|Shape=RoundedRectangle|*
%AMROUNDEDRECTD115*
21,1,1.2000,0.5500,0,0,0.0*
21,1,0.5500,1.2000,0,0,0.0*
1,1,0.6500,0.2750,-0.2750*
1,1,0.6500,-0.2750,-0.2750*
1,1,0.6500,-0.2750,0.2750*
1,1,0.6500,0.2750,0.2750*
%
%ADD115ROUNDEDRECTD115*%
G04:AMPARAMS|DCode=116|XSize=0.7mm|YSize=0.7mm|CornerRadius=0.11mm|HoleSize=0mm|Usage=FLASHONLY|Rotation=90.000|XOffset=0mm|YOffset=0mm|HoleType=Round|Shape=RoundedRectangle|*
%AMROUNDEDRECTD116*
21,1,0.7000,0.4800,0,0,90.0*
21,1,0.4800,0.7000,0,0,90.0*
1,1,0.2200,0.2400,0.2400*
1,1,0.2200,0.2400,-0.2400*
1,1,0.2200,-0.2400,-0.2400*
1,1,0.2200,-0.2400,0.2400*
%
%ADD116ROUNDEDRECTD116*%
G04:AMPARAMS|DCode=117|XSize=0.45mm|YSize=0.325mm|CornerRadius=0.1063mm|HoleSize=0mm|Usage=FLASHONLY|Rotation=90.000|XOffset=0mm|YOffset=0mm|HoleType=Round|Shape=RoundedRectangle|*
%AMROUNDEDRECTD117*
21,1,0.4500,0.1125,0,0,90.0*
21,1,0.2375,0.3250,0,0,90.0*
1,1,0.2125,0.0563,0.1188*
1,1,0.2125,0.0563,-0.1188*
1,1,0.2125,-0.0563,-0.1188*
1,1,0.2125,-0.0563,0.1188*
%
%ADD117ROUNDEDRECTD117*%
%ADD118R,0.4000X0.4100*%
%ADD119R,0.9100X0.2900*%
%ADD120R,1.0600X0.2900*%
%ADD121R,1.1000X1.6500*%
%ADD122R,1.7000X1.3000*%
%ADD123R,1.3000X1.3000*%
%ADD124R,2.2500X1.3000*%
G04:AMPARAMS|DCode=125|XSize=0.7mm|YSize=0.7mm|CornerRadius=0.11mm|HoleSize=0mm|Usage=FLASHONLY|Rotation=315.000|XOffset=0mm|YOffset=0mm|HoleType=Round|Shape=RoundedRectangle|*
%AMROUNDEDRECTD125*
21,1,0.7000,0.4800,0,0,315.0*
21,1,0.4800,0.7000,0,0,315.0*
1,1,0.2200,0.0000,-0.3394*
1,1,0.2200,-0.3394,0.0000*
1,1,0.2200,0.0000,0.3394*
1,1,0.2200,0.3394,0.0000*
%
%ADD125ROUNDEDRECTD125*%
G04:AMPARAMS|DCode=126|XSize=0.7mm|YSize=0.7mm|CornerRadius=0.11mm|HoleSize=0mm|Usage=FLASHONLY|Rotation=45.000|XOffset=0mm|YOffset=0mm|HoleType=Round|Shape=RoundedRectangle|*
%AMROUNDEDRECTD126*
21,1,0.7000,0.4800,0,0,45.0*
21,1,0.4800,0.7000,0,0,45.0*
1,1,0.2200,0.3394,0.0000*
1,1,0.2200,0.0000,-0.3394*
1,1,0.2200,-0.3394,0.0000*
1,1,0.2200,0.0000,0.3394*
%
%ADD126ROUNDEDRECTD126*%
G04:AMPARAMS|DCode=127|XSize=0.7mm|YSize=0.7mm|CornerRadius=0.11mm|HoleSize=0mm|Usage=FLASHONLY|Rotation=180.000|XOffset=0mm|YOffset=0mm|HoleType=Round|Shape=RoundedRectangle|*
%AMROUNDEDRECTD127*
21,1,0.7000,0.4800,0,0,180.0*
21,1,0.4800,0.7000,0,0,180.0*
1,1,0.2200,-0.2400,0.2400*
1,1,0.2200,0.2400,0.2400*
1,1,0.2200,0.2400,-0.2400*
1,1,0.2200,-0.2400,-0.2400*
%
%ADD127ROUNDEDRECTD127*%
G04:AMPARAMS|DCode=128|XSize=5.1mm|YSize=2mm|CornerRadius=0.24mm|HoleSize=0mm|Usage=FLASHONLY|Rotation=180.000|XOffset=0mm|YOffset=0mm|HoleType=Round|Shape=RoundedRectangle|*
%AMROUNDEDRECTD128*
21,1,5.1000,1.5200,0,0,180.0*
21,1,4.6200,2.0000,0,0,180.0*
1,1,0.4800,-2.3100,0.7600*
1,1,0.4800,2.3100,0.7600*
1,1,0.4800,2.3100,-0.7600*
1,1,0.4800,-2.3100,-0.7600*
%
%ADD128ROUNDEDRECTD128*%
%ADD129R,0.9000X3.1000*%
%ADD130R,3.9000X2.9000*%
%ADD131R,4.1000X2.9000*%
G04:AMPARAMS|DCode=132|XSize=0.8mm|YSize=0.5mm|CornerRadius=0.1mm|HoleSize=0mm|Usage=FLASHONLY|Rotation=90.000|XOffset=0mm|YOffset=0mm|HoleType=Round|Shape=RoundedRectangle|*
%AMROUNDEDRECTD132*
21,1,0.8000,0.3000,0,0,90.0*
21,1,0.6000,0.5000,0,0,90.0*
1,1,0.2000,0.1500,0.3000*
1,1,0.2000,0.1500,-0.3000*
1,1,0.2000,-0.1500,-0.3000*
1,1,0.2000,-0.1500,0.3000*
%
%ADD132ROUNDEDRECTD132*%
G04:AMPARAMS|DCode=133|XSize=1.1mm|YSize=1mm|CornerRadius=0.1625mm|HoleSize=0mm|Usage=FLASHONLY|Rotation=270.000|XOffset=0mm|YOffset=0mm|HoleType=Round|Shape=RoundedRectangle|*
%AMROUNDEDRECTD133*
21,1,1.1000,0.6750,0,0,270.0*
21,1,0.7750,1.0000,0,0,270.0*
1,1,0.3250,-0.3375,-0.3875*
1,1,0.3250,-0.3375,0.3875*
1,1,0.3250,0.3375,0.3875*
1,1,0.3250,0.3375,-0.3875*
%
%ADD133ROUNDEDRECTD133*%
%ADD134C,1.7000*%
%ADD135R,0.7000X2.1000*%
%ADD136R,0.8000X0.2800*%
%ADD137R,0.2800X0.8900*%
%ADD138R,0.2800X0.9900*%
%ADD139R,1.5000X0.9000*%
G04:AMPARAMS|DCode=140|XSize=1.1mm|YSize=1mm|CornerRadius=0.1625mm|HoleSize=0mm|Usage=FLASHONLY|Rotation=180.000|XOffset=0mm|YOffset=0mm|HoleType=Round|Shape=RoundedRectangle|*
%AMROUNDEDRECTD140*
21,1,1.1000,0.6750,0,0,180.0*
21,1,0.7750,1.0000,0,0,180.0*
1,1,0.3250,-0.3875,0.3375*
1,1,0.3250,0.3875,0.3375*
1,1,0.3250,0.3875,-0.3375*
1,1,0.3250,-0.3875,-0.3375*
%
%ADD140ROUNDEDRECTD140*%
G04:AMPARAMS|DCode=141|XSize=1.6mm|YSize=1.6mm|CornerRadius=0.125mm|HoleSize=0mm|Usage=FLASHONLY|Rotation=180.000|XOffset=0mm|YOffset=0mm|HoleType=Round|Shape=RoundedRectangle|*
%AMROUNDEDRECTD141*
21,1,1.6000,1.3500,0,0,180.0*
21,1,1.3500,1.6000,0,0,180.0*
1,1,0.2500,-0.6750,0.6750*
1,1,0.2500,0.6750,0.6750*
1,1,0.2500,0.6750,-0.6750*
1,1,0.2500,-0.6750,-0.6750*
%
%ADD141ROUNDEDRECTD141*%
G04:AMPARAMS|DCode=142|XSize=0.4mm|YSize=0.9mm|CornerRadius=0.125mm|HoleSize=0mm|Usage=FLASHONLY|Rotation=180.000|XOffset=0mm|YOffset=0mm|HoleType=Round|Shape=RoundedRectangle|*
%AMROUNDEDRECTD142*
21,1,0.4000,0.6500,0,0,180.0*
21,1,0.1500,0.9000,0,0,180.0*
1,1,0.2500,-0.0750,0.3250*
1,1,0.2500,0.0750,0.3250*
1,1,0.2500,0.0750,-0.3250*
1,1,0.2500,-0.0750,-0.3250*
%
%ADD142ROUNDEDRECTD142*%
G04:AMPARAMS|DCode=143|XSize=0.4mm|YSize=0.9mm|CornerRadius=0.125mm|HoleSize=0mm|Usage=FLASHONLY|Rotation=270.000|XOffset=0mm|YOffset=0mm|HoleType=Round|Shape=RoundedRectangle|*
%AMROUNDEDRECTD143*
21,1,0.4000,0.6500,0,0,270.0*
21,1,0.1500,0.9000,0,0,270.0*
1,1,0.2500,-0.3250,-0.0750*
1,1,0.2500,-0.3250,0.0750*
1,1,0.2500,0.3250,0.0750*
1,1,0.2500,0.3250,-0.0750*
%
%ADD143ROUNDEDRECTD143*%
%ADD144R,0.8500X1.6000*%
%ADD145R,1.0000X0.7000*%
%ADD146R,1.6000X0.8500*%
%ADD147R,0.7000X1.0000*%
G04:AMPARAMS|DCode=148|XSize=1.5mm|YSize=1.1mm|CornerRadius=0.175mm|HoleSize=0mm|Usage=FLASHONLY|Rotation=270.000|XOffset=0mm|YOffset=0mm|HoleType=Round|Shape=RoundedRectangle|*
%AMROUNDEDRECTD148*
21,1,1.5000,0.7500,0,0,270.0*
21,1,1.1500,1.1000,0,0,270.0*
1,1,0.3500,-0.3750,-0.5750*
1,1,0.3500,-0.3750,0.5750*
1,1,0.3500,0.3750,0.5750*
1,1,0.3500,0.3750,-0.5750*
%
%ADD148ROUNDEDRECTD148*%
%ADD149R,4.2500X2.2500*%
%ADD150C,3.0000*%
%ADD151R,1.7019X1.2013*%
%ADD152R,1.2000X1.7000*%
%ADD153R,1.6006X1.0004*%
%ADD154R,1.7011X1.0006*%
%ADD155R,1.7018X1.7018*%
%ADD156R,1.7009X1.7009*%
%ADD157R,1.9526X0.9011*%
%ADD158R,1.9518X0.9007*%
%ADD159R,1.9504X0.9002*%
%ADD160R,1.9525X0.9010*%
%ADD161R,1.9522X0.9009*%
%ADD162R,1.9516X0.9006*%
%ADD163R,1.9530X0.9012*%
%ADD164R,1.9504X0.9002*%
%ADD165R,2.2000X0.8000*%
%ADD166R,1.3400X1.0000*%
%ADD167R,1.2400X0.9000*%
G04:AMPARAMS|DCode=168|XSize=0.95mm|YSize=3.65mm|CornerRadius=0.2625mm|HoleSize=0mm|Usage=FLASHONLY|Rotation=0.000|XOffset=0mm|YOffset=0mm|HoleType=Round|Shape=RoundedRectangle|*
%AMROUNDEDRECTD168*
21,1,0.9500,3.1250,0,0,0.0*
21,1,0.4250,3.6500,0,0,0.0*
1,1,0.5250,0.2125,-1.5625*
1,1,0.5250,-0.2125,-1.5625*
1,1,0.5250,-0.2125,1.5625*
1,1,0.5250,0.2125,1.5625*
%
%ADD168ROUNDEDRECTD168*%
G04:AMPARAMS|DCode=169|XSize=0.95mm|YSize=2.75mm|CornerRadius=0.2625mm|HoleSize=0mm|Usage=FLASHONLY|Rotation=0.000|XOffset=0mm|YOffset=0mm|HoleType=Round|Shape=RoundedRectangle|*
%AMROUNDEDRECTD169*
21,1,0.9500,2.2250,0,0,0.0*
21,1,0.4250,2.7500,0,0,0.0*
1,1,0.5250,0.2125,-1.1125*
1,1,0.5250,-0.2125,-1.1125*
1,1,0.5250,-0.2125,1.1125*
1,1,0.5250,0.2125,1.1125*
%
%ADD169ROUNDEDRECTD169*%
%ADD170R,3.8000X1.7000*%
%ADD171R,0.3000X1.1000*%
%ADD172R,0.4000X1.3000*%
G04:AMPARAMS|DCode=173|XSize=1.9mm|YSize=1.25mm|CornerRadius=0.1938mm|HoleSize=0mm|Usage=FLASHONLY|Rotation=180.000|XOffset=0mm|YOffset=0mm|HoleType=Round|Shape=RoundedRectangle|*
%AMROUNDEDRECTD173*
21,1,1.9000,0.8625,0,0,180.0*
21,1,1.5125,1.2500,0,0,180.0*
1,1,0.3875,-0.7563,0.4313*
1,1,0.3875,0.7563,0.4313*
1,1,0.3875,0.7563,-0.4313*
1,1,0.3875,-0.7563,-0.4313*
%
%ADD173ROUNDEDRECTD173*%
%ADD174R,1.0000X2.6500*%
%ADD175R,1.5000X2.6500*%
G04:AMPARAMS|DCode=176|XSize=0.35mm|YSize=1.1mm|CornerRadius=0.1125mm|HoleSize=0mm|Usage=FLASHONLY|Rotation=90.000|XOffset=0mm|YOffset=0mm|HoleType=Round|Shape=RoundedRectangle|*
%AMROUNDEDRECTD176*
21,1,0.3500,0.8750,0,0,90.0*
21,1,0.1250,1.1000,0,0,90.0*
1,1,0.2250,0.4375,0.0625*
1,1,0.2250,0.4375,-0.0625*
1,1,0.2250,-0.4375,-0.0625*
1,1,0.2250,-0.4375,0.0625*
%
%ADD176ROUNDEDRECTD176*%
G04:AMPARAMS|DCode=177|XSize=0.35mm|YSize=1.1mm|CornerRadius=0.1125mm|HoleSize=0mm|Usage=FLASHONLY|Rotation=180.000|XOffset=0mm|YOffset=0mm|HoleType=Round|Shape=RoundedRectangle|*
%AMROUNDEDRECTD177*
21,1,0.3500,0.8750,0,0,180.0*
21,1,0.1250,1.1000,0,0,180.0*
1,1,0.2250,-0.0625,0.4375*
1,1,0.2250,0.0625,0.4375*
1,1,0.2250,0.0625,-0.4375*
1,1,0.2250,-0.0625,-0.4375*
%
%ADD177ROUNDEDRECTD177*%
G04:AMPARAMS|DCode=178|XSize=1.05mm|YSize=0.75mm|CornerRadius=0.2125mm|HoleSize=0mm|Usage=FLASHONLY|Rotation=180.000|XOffset=0mm|YOffset=0mm|HoleType=Round|Shape=RoundedRectangle|*
%AMROUNDEDRECTD178*
21,1,1.0500,0.3250,0,0,180.0*
21,1,0.6250,0.7500,0,0,180.0*
1,1,0.4250,-0.3125,0.1625*
1,1,0.4250,0.3125,0.1625*
1,1,0.4250,0.3125,-0.1625*
1,1,0.4250,-0.3125,-0.1625*
%
%ADD178ROUNDEDRECTD178*%
G04:AMPARAMS|DCode=179|XSize=1.05mm|YSize=1.1mm|CornerRadius=0.2875mm|HoleSize=0mm|Usage=FLASHONLY|Rotation=180.000|XOffset=0mm|YOffset=0mm|HoleType=Round|Shape=RoundedRectangle|*
%AMROUNDEDRECTD179*
21,1,1.0500,0.5250,0,0,180.0*
21,1,0.4750,1.1000,0,0,180.0*
1,1,0.5750,-0.2375,0.2625*
1,1,0.5750,0.2375,0.2625*
1,1,0.5750,0.2375,-0.2625*
1,1,0.5750,-0.2375,-0.2625*
%
%ADD179ROUNDEDRECTD179*%
%ADD180R,1.6500X1.1000*%
%ADD181R,1.3000X1.7000*%
%ADD182R,1.3000X1.3000*%
%ADD183R,1.3000X2.2500*%
%ADD184R,4.1000X5.1000*%
G04:AMPARAMS|DCode=185|XSize=0.9mm|YSize=0.9mm|CornerRadius=0.15mm|HoleSize=0mm|Usage=FLASHONLY|Rotation=90.000|XOffset=0mm|YOffset=0mm|HoleType=Round|Shape=RoundedRectangle|*
%AMROUNDEDRECTD185*
21,1,0.9000,0.6000,0,0,90.0*
21,1,0.6000,0.9000,0,0,90.0*
1,1,0.3000,0.3000,0.3000*
1,1,0.3000,0.3000,-0.3000*
1,1,0.3000,-0.3000,-0.3000*
1,1,0.3000,-0.3000,0.3000*
%
%ADD185ROUNDEDRECTD185*%
G04:AMPARAMS|DCode=186|XSize=3.1mm|YSize=1.3mm|CornerRadius=0.35mm|HoleSize=0mm|Usage=FLASHONLY|Rotation=90.000|XOffset=0mm|YOffset=0mm|HoleType=Round|Shape=RoundedRectangle|*
%AMROUNDEDRECTD186*
21,1,3.1000,0.6000,0,0,90.0*
21,1,2.4000,1.3000,0,0,90.0*
1,1,0.7000,0.3000,1.2000*
1,1,0.7000,0.3000,-1.2000*
1,1,0.7000,-0.3000,-1.2000*
1,1,0.7000,-0.3000,1.2000*
%
%ADD186ROUNDEDRECTD186*%
G04:AMPARAMS|DCode=187|XSize=3.6mm|YSize=1.3mm|CornerRadius=0.35mm|HoleSize=0mm|Usage=FLASHONLY|Rotation=90.000|XOffset=0mm|YOffset=0mm|HoleType=Round|Shape=RoundedRectangle|*
%AMROUNDEDRECTD187*
21,1,3.6000,0.6000,0,0,90.0*
21,1,2.9000,1.3000,0,0,90.0*
1,1,0.7000,0.3000,1.4500*
1,1,0.7000,0.3000,-1.4500*
1,1,0.7000,-0.3000,-1.4500*
1,1,0.7000,-0.3000,1.4500*
%
%ADD187ROUNDEDRECTD187*%
G04:AMPARAMS|DCode=188|XSize=3.6mm|YSize=1.3mm|CornerRadius=0.35mm|HoleSize=0mm|Usage=FLASHONLY|Rotation=0.000|XOffset=0mm|YOffset=0mm|HoleType=Round|Shape=RoundedRectangle|*
%AMROUNDEDRECTD188*
21,1,3.6000,0.6000,0,0,0.0*
21,1,2.9000,1.3000,0,0,0.0*
1,1,0.7000,1.4500,-0.3000*
1,1,0.7000,-1.4500,-0.3000*
1,1,0.7000,-1.4500,0.3000*
1,1,0.7000,1.4500,0.3000*
%
%ADD188ROUNDEDRECTD188*%
G04:AMPARAMS|DCode=189|XSize=3.1mm|YSize=1.3mm|CornerRadius=0.35mm|HoleSize=0mm|Usage=FLASHONLY|Rotation=0.000|XOffset=0mm|YOffset=0mm|HoleType=Round|Shape=RoundedRectangle|*
%AMROUNDEDRECTD189*
21,1,3.1000,0.6000,0,0,0.0*
21,1,2.4000,1.3000,0,0,0.0*
1,1,0.7000,1.2000,-0.3000*
1,1,0.7000,-1.2000,-0.3000*
1,1,0.7000,-1.2000,0.3000*
1,1,0.7000,1.2000,0.3000*
%
%ADD189ROUNDEDRECTD189*%
G04:AMPARAMS|DCode=190|XSize=5.1mm|YSize=1.3mm|CornerRadius=0.35mm|HoleSize=0mm|Usage=FLASHONLY|Rotation=270.000|XOffset=0mm|YOffset=0mm|HoleType=Round|Shape=RoundedRectangle|*
%AMROUNDEDRECTD190*
21,1,5.1000,0.6000,0,0,270.0*
21,1,4.4000,1.3000,0,0,270.0*
1,1,0.7000,-0.3000,-2.2000*
1,1,0.7000,-0.3000,2.2000*
1,1,0.7000,0.3000,2.2000*
1,1,0.7000,0.3000,-2.2000*
%
%ADD190ROUNDEDRECTD190*%
G04:AMPARAMS|DCode=191|XSize=5.1mm|YSize=1.3mm|CornerRadius=0.35mm|HoleSize=0mm|Usage=FLASHONLY|Rotation=0.000|XOffset=0mm|YOffset=0mm|HoleType=Round|Shape=RoundedRectangle|*
%AMROUNDEDRECTD191*
21,1,5.1000,0.6000,0,0,0.0*
21,1,4.4000,1.3000,0,0,0.0*
1,1,0.7000,2.2000,-0.3000*
1,1,0.7000,-2.2000,-0.3000*
1,1,0.7000,-2.2000,0.3000*
1,1,0.7000,2.2000,0.3000*
%
%ADD191ROUNDEDRECTD191*%
G04:AMPARAMS|DCode=192|XSize=2.6mm|YSize=2.1mm|CornerRadius=0.3mm|HoleSize=0mm|Usage=FLASHONLY|Rotation=90.000|XOffset=0mm|YOffset=0mm|HoleType=Round|Shape=RoundedRectangle|*
%AMROUNDEDRECTD192*
21,1,2.6000,1.5000,0,0,90.0*
21,1,2.0000,2.1000,0,0,90.0*
1,1,0.6000,0.7500,1.0000*
1,1,0.6000,0.7500,-1.0000*
1,1,0.6000,-0.7500,-1.0000*
1,1,0.6000,-0.7500,1.0000*
%
%ADD192ROUNDEDRECTD192*%
%ADD193C,2.0000*%
%ADD194R,3.6000X2.0000*%
G04:AMPARAMS|DCode=195|XSize=0.9mm|YSize=0.9mm|CornerRadius=0.15mm|HoleSize=0mm|Usage=FLASHONLY|Rotation=180.000|XOffset=0mm|YOffset=0mm|HoleType=Round|Shape=RoundedRectangle|*
%AMROUNDEDRECTD195*
21,1,0.9000,0.6000,0,0,180.0*
21,1,0.6000,0.9000,0,0,180.0*
1,1,0.3000,-0.3000,0.3000*
1,1,0.3000,0.3000,0.3000*
1,1,0.3000,0.3000,-0.3000*
1,1,0.3000,-0.3000,-0.3000*
%
%ADD195ROUNDEDRECTD195*%
%ADD196C,3.1000*%
%ADD197C,1.2500*%
%ADD198C,1.5780*%
%ADD199O,2.6500X1.6000*%
G04:AMPARAMS|DCode=200|XSize=1.624mm|YSize=1.624mm|CornerRadius=0.2405mm|HoleSize=0mm|Usage=FLASHONLY|Rotation=0.000|XOffset=0mm|YOffset=0mm|HoleType=Round|Shape=RoundedRectangle|*
%AMROUNDEDRECTD200*
21,1,1.6240,1.1430,0,0,0.0*
21,1,1.1430,1.6240,0,0,0.0*
1,1,0.4810,0.5715,-0.5715*
1,1,0.4810,-0.5715,-0.5715*
1,1,0.4810,-0.5715,0.5715*
1,1,0.4810,0.5715,0.5715*
%
%ADD200ROUNDEDRECTD200*%
%ADD201C,1.4000*%
%ADD202C,1.1000*%
G04:AMPARAMS|DCode=203|XSize=1.7mm|YSize=1.7mm|CornerRadius=0.45mm|HoleSize=0mm|Usage=FLASHONLY|Rotation=0.000|XOffset=0mm|YOffset=0mm|HoleType=Round|Shape=RoundedRectangle|*
%AMROUNDEDRECTD203*
21,1,1.7000,0.8000,0,0,0.0*
21,1,0.8000,1.7000,0,0,0.0*
1,1,0.9000,0.4000,-0.4000*
1,1,0.9000,-0.4000,-0.4000*
1,1,0.9000,-0.4000,0.4000*
1,1,0.9000,0.4000,0.4000*
%
%ADD203ROUNDEDRECTD203*%
%ADD204C,1.1886*%
%ADD205C,2.1000*%
%ADD206C,5.4000*%
%ADD207C,1.7800*%
%ADD208C,1.6080*%
%ADD209C,1.5080*%
%ADD210R,1.6080X1.6080*%
%ADD211C,2.6500*%
%ADD212C,3.4500*%
%ADD213C,1.6500*%
%ADD214O,2.1000X5.1000*%
%ADD215O,5.1000X2.3000*%
%ADD216O,5.1000X2.1000*%
%ADD217C,0.7500*%
%ADD218C,1.3000*%
%ADD219C,5.1000*%
%ADD220O,1.1000X1.7000*%
%ADD221C,0.7300*%
%ADD222C,2.0500*%
G04:AMPARAMS|DCode=223|XSize=2.1mm|YSize=2.1mm|CornerRadius=0.55mm|HoleSize=0mm|Usage=FLASHONLY|Rotation=90.000|XOffset=0mm|YOffset=0mm|HoleType=Round|Shape=RoundedRectangle|*
%AMROUNDEDRECTD223*
21,1,2.1000,1.0000,0,0,90.0*
21,1,1.0000,2.1000,0,0,90.0*
1,1,1.1000,0.5000,0.5000*
1,1,1.1000,0.5000,-0.5000*
1,1,1.1000,-0.5000,-0.5000*
1,1,1.1000,-0.5000,0.5000*
%
%ADD223ROUNDEDRECTD223*%
%ADD224C,0.3500*%
G04:AMPARAMS|DCode=225|XSize=2mm|YSize=2mm|CornerRadius=0.525mm|HoleSize=0mm|Usage=FLASHONLY|Rotation=90.000|XOffset=0mm|YOffset=0mm|HoleType=Round|Shape=RoundedRectangle|*
%AMROUNDEDRECTD225*
21,1,2.0000,0.9500,0,0,90.0*
21,1,0.9500,2.0000,0,0,90.0*
1,1,1.0500,0.4750,0.4750*
1,1,1.0500,0.4750,-0.4750*
1,1,1.0500,-0.4750,-0.4750*
1,1,1.0500,-0.4750,0.4750*
%
%ADD225ROUNDEDRECTD225*%
G04:AMPARAMS|DCode=226|XSize=2.1mm|YSize=2.1mm|CornerRadius=0.55mm|HoleSize=0mm|Usage=FLASHONLY|Rotation=180.000|XOffset=0mm|YOffset=0mm|HoleType=Round|Shape=RoundedRectangle|*
%AMROUNDEDRECTD226*
21,1,2.1000,1.0000,0,0,180.0*
21,1,1.0000,2.1000,0,0,180.0*
1,1,1.1000,-0.5000,0.5000*
1,1,1.1000,0.5000,0.5000*
1,1,1.1000,0.5000,-0.5000*
1,1,1.1000,-0.5000,-0.5000*
%
%ADD226ROUNDEDRECTD226*%
%ADD227C,1.0000*%
G04:AMPARAMS|DCode=228|XSize=1.624mm|YSize=1.624mm|CornerRadius=0.2405mm|HoleSize=0mm|Usage=FLASHONLY|Rotation=90.000|XOffset=0mm|YOffset=0mm|HoleType=Round|Shape=RoundedRectangle|*
%AMROUNDEDRECTD228*
21,1,1.6240,1.1430,0,0,90.0*
21,1,1.1430,1.6240,0,0,90.0*
1,1,0.4810,0.5715,0.5715*
1,1,0.4810,0.5715,-0.5715*
1,1,0.4810,-0.5715,-0.5715*
1,1,0.4810,-0.5715,0.5715*
%
%ADD228ROUNDEDRECTD228*%
G04:AMPARAMS|DCode=229|XSize=1.7mm|YSize=1.7mm|CornerRadius=0.45mm|HoleSize=0mm|Usage=FLASHONLY|Rotation=90.000|XOffset=0mm|YOffset=0mm|HoleType=Round|Shape=RoundedRectangle|*
%AMROUNDEDRECTD229*
21,1,1.7000,0.8000,0,0,90.0*
21,1,0.8000,1.7000,0,0,90.0*
1,1,0.9000,0.4000,0.4000*
1,1,0.9000,0.4000,-0.4000*
1,1,0.9000,-0.4000,-0.4000*
1,1,0.9000,-0.4000,0.4000*
%
%ADD229ROUNDEDRECTD229*%
G36*
X568000Y1028250D02*
Y1026200D01*
X565550Y1023750D01*
X544950D01*
X543250Y1025450D01*
Y1024250D01*
X535250D01*
Y1025450D01*
X533550Y1023750D01*
X512950D01*
X510500Y1026200D01*
Y1028250D01*
X516000Y1033750D01*
X530500D01*
X536000Y1028250D01*
Y1026250D01*
X542500D01*
Y1028250D01*
X548000Y1033750D01*
X562500D01*
X568000Y1028250D01*
D02*
G37*
G36*
X1308250Y1003250D02*
X1300250D01*
Y1007250D01*
X1308250Y1007250D01*
Y1003250D01*
D02*
G37*
G36*
X1165750D02*
X1157750D01*
Y1007250D01*
X1165750D01*
Y1003250D01*
D02*
G37*
G36*
X1447250Y1000250D02*
X1439250D01*
Y1004250D01*
X1447250D01*
Y1000250D01*
D02*
G37*
G36*
X1589750Y997750D02*
X1581750D01*
Y1001750D01*
X1589750D01*
Y997750D01*
D02*
G37*
G36*
X130250D02*
X126250D01*
Y1005750D01*
X130250D01*
Y997750D01*
D02*
G37*
G36*
X192000Y969750D02*
X189500D01*
Y972250D01*
X192000D01*
Y969750D01*
D02*
G37*
G36*
X178000D02*
X175500D01*
Y972250D01*
X178000D01*
Y969750D01*
D02*
G37*
G36*
X192000Y948250D02*
X189500D01*
Y950750D01*
X192000D01*
Y948250D01*
D02*
G37*
G36*
X178000Y948250D02*
X175500D01*
Y950750D01*
X178000D01*
Y948250D01*
D02*
G37*
G36*
X110180Y848500D02*
X97930D01*
Y855750D01*
X97430D01*
Y865750D01*
X110180D01*
X110180Y848500D01*
D02*
G37*
G36*
X1655650Y804750D02*
X1653150D01*
Y807250D01*
X1655650D01*
Y804750D01*
D02*
G37*
G36*
X1641650D02*
X1639150D01*
Y807250D01*
X1641650D01*
Y804750D01*
D02*
G37*
G36*
X1465650D02*
X1463150D01*
Y807250D01*
X1465650D01*
Y804750D01*
D02*
G37*
G36*
X1451650D02*
X1449150D01*
Y807250D01*
X1451650D01*
Y804750D01*
D02*
G37*
G36*
X1275650D02*
X1273150D01*
Y807250D01*
X1275650D01*
Y804750D01*
D02*
G37*
G36*
X1261650D02*
X1259150D01*
Y807250D01*
X1261650D01*
Y804750D01*
D02*
G37*
G36*
X1085650D02*
X1083150D01*
Y807250D01*
X1085650D01*
Y804750D01*
D02*
G37*
G36*
X1071650D02*
X1069150D01*
Y807250D01*
X1071650D01*
Y804750D01*
D02*
G37*
G36*
X1363250Y796000D02*
X1360750D01*
Y798500D01*
X1363250D01*
Y796000D01*
D02*
G37*
G36*
X1341750D02*
X1339250D01*
Y798500D01*
X1341750D01*
Y796000D01*
D02*
G37*
G36*
X1655650Y783250D02*
X1653150D01*
Y785750D01*
X1655650D01*
Y783250D01*
D02*
G37*
G36*
X1465650D02*
X1463150D01*
Y785750D01*
X1465650D01*
Y783250D01*
D02*
G37*
G36*
X1275650D02*
X1273150D01*
Y785750D01*
X1275650D01*
Y783250D01*
D02*
G37*
G36*
X1085650D02*
X1083150D01*
Y785750D01*
X1085650D01*
Y783250D01*
D02*
G37*
G36*
X1641650Y783250D02*
X1639150D01*
Y785750D01*
X1641650D01*
Y783250D01*
D02*
G37*
G36*
X1451650D02*
X1449150D01*
Y785750D01*
X1451650D01*
Y783250D01*
D02*
G37*
G36*
X1261650D02*
X1259150D01*
Y785750D01*
X1261650D01*
Y783250D01*
D02*
G37*
G36*
X1071650D02*
X1069150D01*
Y785750D01*
X1071650D01*
Y783250D01*
D02*
G37*
G36*
X1363250Y782000D02*
X1360750D01*
Y784500D01*
X1363250D01*
Y782000D01*
D02*
G37*
G36*
X1341750D02*
X1339250D01*
Y784500D01*
X1341750D01*
Y782000D01*
D02*
G37*
G36*
X1355750Y746500D02*
X1353250D01*
Y749000D01*
X1355750D01*
Y746500D01*
D02*
G37*
G36*
X1334250D02*
X1331750D01*
Y749000D01*
X1334250D01*
Y746500D01*
D02*
G37*
G36*
X1317000Y739000D02*
X1313000D01*
Y747000D01*
X1317000D01*
Y739000D01*
D02*
G37*
G36*
X1355750Y732500D02*
X1353250D01*
Y735000D01*
X1355750D01*
Y732500D01*
D02*
G37*
G36*
X1334250D02*
X1331750D01*
Y735000D01*
X1334250D01*
Y732500D01*
D02*
G37*
G36*
X77750Y701500D02*
X73750D01*
Y709500D01*
X77750D01*
Y701500D01*
D02*
G37*
G36*
X80000Y678250D02*
X76000D01*
Y686250D01*
X80000D01*
Y678250D01*
D02*
G37*
G36*
X85250Y669733D02*
X81250D01*
Y677733D01*
X85250D01*
Y669733D01*
D02*
G37*
G36*
X93233Y668233D02*
X89233D01*
Y676233D01*
X93233D01*
Y668233D01*
D02*
G37*
G36*
X93250Y655733D02*
X89250D01*
Y663733D01*
X93250D01*
Y655733D01*
D02*
G37*
G36*
X86750Y651500D02*
X82750D01*
Y659500D01*
X86750D01*
Y651500D01*
D02*
G37*
G36*
X86767Y639000D02*
X82767D01*
Y647000D01*
X86767D01*
Y639000D01*
D02*
G37*
G36*
X79750Y630500D02*
X75750D01*
Y638500D01*
X79750D01*
Y630500D01*
D02*
G37*
G36*
X80000Y530500D02*
X76000D01*
Y538500D01*
X80000D01*
Y530500D01*
D02*
G37*
G36*
X79983Y516233D02*
X75983D01*
Y524233D01*
X79983D01*
Y516233D01*
D02*
G37*
G36*
X85250Y507733D02*
X81250D01*
Y515733D01*
X85250D01*
Y507733D01*
D02*
G37*
G36*
X93233Y506233D02*
X89233D01*
Y514233D01*
X93233D01*
Y506233D01*
D02*
G37*
G36*
X93250Y493733D02*
X89250D01*
Y501733D01*
X93250D01*
Y493733D01*
D02*
G37*
G36*
X86750Y489500D02*
X82750D01*
Y497500D01*
X86750D01*
Y489500D01*
D02*
G37*
G36*
X86767Y477000D02*
X82767D01*
Y485000D01*
X86767D01*
Y477000D01*
D02*
G37*
G36*
X79750Y468500D02*
X75750D01*
Y476500D01*
X79750D01*
Y468500D01*
D02*
G37*
G36*
X1536000Y360000D02*
X1533500D01*
Y362500D01*
X1536000D01*
Y360000D01*
D02*
G37*
G36*
X1514500D02*
X1512000D01*
Y362500D01*
X1514500D01*
Y360000D01*
D02*
G37*
G36*
X1536000Y346000D02*
X1533500D01*
Y348500D01*
X1536000D01*
Y346000D01*
D02*
G37*
G36*
X1514500D02*
X1512000D01*
Y348500D01*
X1514500D01*
Y346000D01*
D02*
G37*
G36*
X1407958Y175327D02*
X1409960Y174498D01*
X1411762Y173294D01*
X1413294Y171762D01*
X1414498Y169960D01*
X1415327Y167958D01*
X1415750Y165833D01*
Y164750D01*
Y163666D01*
X1415327Y161541D01*
X1414498Y159539D01*
X1413294Y157738D01*
X1411762Y156206D01*
X1409960Y155002D01*
X1407958Y154172D01*
X1405833Y153750D01*
X1404750D01*
Y164750D01*
X1404750Y153750D01*
X1404750Y153750D01*
X1403666D01*
X1401541Y154172D01*
X1399539Y155002D01*
X1397738Y156206D01*
X1396206Y157738D01*
X1395250Y159168D01*
X1394294Y157738D01*
X1392762Y156206D01*
X1390960Y155002D01*
X1388958Y154172D01*
X1386833Y153750D01*
X1384666D01*
X1382541Y154172D01*
X1380539Y155002D01*
X1378738Y156206D01*
X1377206Y157738D01*
X1376002Y159539D01*
X1375172Y161541D01*
X1374750Y163666D01*
Y164750D01*
Y165833D01*
X1375172Y167958D01*
X1376002Y169960D01*
X1377206Y171762D01*
X1378738Y173294D01*
X1380539Y174498D01*
X1382541Y175327D01*
X1384666Y175750D01*
X1386833D01*
X1388958Y175327D01*
X1390960Y174498D01*
X1392762Y173294D01*
X1394294Y171762D01*
X1395250Y170331D01*
X1396206Y171762D01*
X1397738Y173294D01*
X1399539Y174498D01*
X1401541Y175327D01*
X1403666Y175750D01*
X1405833D01*
X1407958Y175327D01*
D02*
G37*
G36*
X1536958D02*
X1538960Y174498D01*
X1540762Y173294D01*
X1542294Y171762D01*
X1543498Y169960D01*
X1544327Y167958D01*
X1544750Y165833D01*
Y164750D01*
Y163666D01*
X1544327Y161541D01*
X1543498Y159539D01*
X1542294Y157738D01*
X1540762Y156206D01*
X1538960Y155002D01*
X1536958Y154172D01*
X1534833Y153750D01*
X1532666D01*
X1530541Y154172D01*
X1528539Y155002D01*
X1526738Y156206D01*
X1525206Y157738D01*
X1524002Y159539D01*
X1523172Y161541D01*
X1522750Y163666D01*
Y164750D01*
Y165833D01*
X1523172Y167958D01*
X1524002Y169960D01*
X1525206Y171762D01*
X1526738Y173294D01*
X1528539Y174498D01*
X1530541Y175327D01*
X1532666Y175750D01*
X1534833D01*
X1536958Y175327D01*
D02*
G37*
G36*
X1259958D02*
X1261960Y174498D01*
X1263762Y173294D01*
X1265294Y171762D01*
X1266498Y169960D01*
X1267327Y167958D01*
X1267750Y165833D01*
Y164750D01*
Y163666D01*
X1267327Y161541D01*
X1266498Y159539D01*
X1265294Y157738D01*
X1263762Y156206D01*
X1261960Y155002D01*
X1259958Y154172D01*
X1257833Y153750D01*
X1256750D01*
Y164750D01*
X1256750Y153750D01*
X1256750Y153750D01*
X1255666D01*
X1253541Y154172D01*
X1251539Y155002D01*
X1249738Y156206D01*
X1248206Y157738D01*
X1247002Y159539D01*
X1246172Y161541D01*
X1245750Y163666D01*
Y164750D01*
Y165833D01*
X1246172Y167958D01*
X1247002Y169960D01*
X1248206Y171762D01*
X1249738Y173294D01*
X1251539Y174498D01*
X1253541Y175327D01*
X1255666Y175750D01*
X1257833D01*
X1259958Y175327D01*
D02*
G37*
G36*
X1112750Y103000D02*
X1110250D01*
Y105500D01*
X1112750D01*
Y103000D01*
D02*
G37*
G36*
X1091250D02*
X1088750D01*
Y105500D01*
X1091250D01*
Y103000D01*
D02*
G37*
G36*
X1112750Y89000D02*
X1110250D01*
Y91500D01*
X1112750D01*
Y89000D01*
D02*
G37*
G36*
X1091250D02*
X1088750D01*
Y91500D01*
X1091250D01*
Y89000D01*
D02*
G37*
G36*
X953314Y63602D02*
X955315Y62773D01*
X957117Y61569D01*
X958649Y60037D01*
X959853Y58236D01*
X960682Y56234D01*
X961105Y54108D01*
X961105Y53025D01*
X961105Y51942D01*
X960682Y49816D01*
X959853Y47814D01*
X958649Y46013D01*
X957117Y44481D01*
X955315Y43277D01*
X953314Y42448D01*
X951188Y42025D01*
X950105Y42025D01*
Y53025D01*
X950105Y42025D01*
X950105D01*
X949022Y42025D01*
X946896Y42448D01*
X944894Y43277D01*
X943093Y44481D01*
X941561Y46013D01*
X940357Y47814D01*
X939528Y49816D01*
X939105Y51942D01*
Y53025D01*
X939105Y54108D01*
X939528Y56234D01*
X940357Y58236D01*
X941561Y60037D01*
X943093Y61569D01*
X944894Y62773D01*
X946896Y63602D01*
X949022Y64025D01*
X950105Y64025D01*
X951188Y64025D01*
X953314Y63602D01*
D02*
G37*
G36*
X878314D02*
X880315Y62773D01*
X882117Y61569D01*
X883649Y60037D01*
X884853Y58236D01*
X885682Y56234D01*
X886105Y54108D01*
X886105Y53025D01*
X886105Y51942D01*
X885682Y49816D01*
X884853Y47814D01*
X883649Y46013D01*
X882117Y44481D01*
X880315Y43277D01*
X878314Y42448D01*
X876188Y42025D01*
X875105Y42025D01*
Y53025D01*
X875105Y42025D01*
X875105D01*
X874022Y42025D01*
X871896Y42448D01*
X869894Y43277D01*
X868093Y44481D01*
X866561Y46013D01*
X865357Y47814D01*
X864528Y49816D01*
X864105Y51942D01*
Y53025D01*
X864105Y54108D01*
X864528Y56234D01*
X865357Y58236D01*
X866561Y60037D01*
X868093Y61569D01*
X869894Y62773D01*
X871896Y63602D01*
X874022Y64025D01*
X875105Y64025D01*
X876188Y64025D01*
X878314Y63602D01*
D02*
G37*
G36*
X803314D02*
X805315Y62773D01*
X807117Y61569D01*
X808649Y60037D01*
X809853Y58236D01*
X810682Y56234D01*
X811105Y54108D01*
X811105Y53025D01*
X811105Y51942D01*
X810682Y49816D01*
X809853Y47814D01*
X808649Y46013D01*
X807117Y44481D01*
X805315Y43277D01*
X803314Y42448D01*
X801188Y42025D01*
X800105Y42025D01*
Y53025D01*
X800105Y42025D01*
X800105D01*
X799022Y42025D01*
X796896Y42448D01*
X794894Y43277D01*
X793093Y44481D01*
X791561Y46013D01*
X790357Y47814D01*
X789528Y49816D01*
X789105Y51942D01*
Y53025D01*
X789105Y54108D01*
X789528Y56234D01*
X790357Y58236D01*
X791561Y60037D01*
X793093Y61569D01*
X794894Y62773D01*
X796896Y63602D01*
X799022Y64025D01*
X800105Y64025D01*
X801188Y64025D01*
X803314Y63602D01*
D02*
G37*
G36*
X728314D02*
X730315Y62773D01*
X732117Y61569D01*
X733649Y60037D01*
X734853Y58236D01*
X735682Y56234D01*
X736105Y54108D01*
X736105Y53025D01*
X736105Y51942D01*
X735682Y49816D01*
X734853Y47814D01*
X733649Y46013D01*
X732117Y44481D01*
X730315Y43277D01*
X728314Y42448D01*
X726188Y42025D01*
X725105Y42025D01*
Y53025D01*
X725105Y42025D01*
X725105D01*
X724022Y42025D01*
X721896Y42448D01*
X719894Y43277D01*
X718093Y44481D01*
X716561Y46013D01*
X715357Y47814D01*
X714528Y49816D01*
X714105Y51942D01*
Y53025D01*
X714105Y54108D01*
X714528Y56234D01*
X715357Y58236D01*
X716561Y60037D01*
X718093Y61569D01*
X719894Y62773D01*
X721896Y63602D01*
X724022Y64025D01*
X725105Y64025D01*
X726188Y64025D01*
X728314Y63602D01*
D02*
G37*
G36*
X653314D02*
X655315Y62773D01*
X657117Y61569D01*
X658649Y60037D01*
X659853Y58236D01*
X660682Y56234D01*
X661105Y54108D01*
X661105Y53025D01*
X661105Y51942D01*
X660682Y49816D01*
X659853Y47814D01*
X658649Y46013D01*
X657117Y44481D01*
X655315Y43277D01*
X653314Y42448D01*
X651188Y42025D01*
X650105Y42025D01*
Y53025D01*
X650105Y42025D01*
X650105D01*
X649022Y42025D01*
X646896Y42448D01*
X644894Y43277D01*
X643093Y44481D01*
X641561Y46013D01*
X640357Y47814D01*
X639528Y49816D01*
X639105Y51942D01*
Y53025D01*
X639105Y54108D01*
X639528Y56234D01*
X640357Y58236D01*
X641561Y60037D01*
X643093Y61569D01*
X644894Y62773D01*
X646896Y63602D01*
X649022Y64025D01*
X650105Y64025D01*
X651188Y64025D01*
X653314Y63602D01*
D02*
G37*
G36*
X1028314Y63577D02*
X1030315Y62748D01*
X1032117Y61544D01*
X1033649Y60012D01*
X1034853Y58211D01*
X1035682Y56209D01*
X1036105Y54083D01*
X1036105Y53000D01*
X1036105Y51917D01*
X1035682Y49791D01*
X1034853Y47790D01*
X1033649Y45988D01*
X1032117Y44456D01*
X1030315Y43252D01*
X1028314Y42423D01*
X1026188Y42000D01*
X1025105Y42000D01*
Y53000D01*
X1025105Y42000D01*
X1025105D01*
X1024022Y42000D01*
X1021896Y42423D01*
X1019894Y43252D01*
X1018093Y44456D01*
X1016561Y45988D01*
X1015357Y47790D01*
X1014528Y49791D01*
X1014105Y51917D01*
Y53000D01*
X1014105Y54083D01*
X1014528Y56209D01*
X1015357Y58211D01*
X1016561Y60012D01*
X1018093Y61544D01*
X1019894Y62748D01*
X1021896Y63577D01*
X1024022Y64000D01*
X1025105Y64000D01*
X1026188Y64000D01*
X1028314Y63577D01*
D02*
G37*
G36*
X978314Y63602D02*
X980315Y62773D01*
X982117Y61569D01*
X983649Y60037D01*
X984853Y58236D01*
X985682Y56234D01*
X986105Y54108D01*
Y53025D01*
Y51942D01*
X985682Y49816D01*
X984853Y47814D01*
X983649Y46013D01*
X982117Y44481D01*
X980315Y43277D01*
X978314Y42448D01*
X976188Y42025D01*
X975105D01*
Y53025D01*
X975105Y42025D01*
X975105Y42025D01*
X974022D01*
X971896Y42448D01*
X969894Y43277D01*
X968093Y44481D01*
X966561Y46013D01*
X965357Y47814D01*
X964528Y49816D01*
X964105Y51942D01*
Y53025D01*
Y54108D01*
X964528Y56234D01*
X965357Y58236D01*
X966561Y60037D01*
X968093Y61569D01*
X969894Y62773D01*
X971896Y63602D01*
X974022Y64025D01*
X976188D01*
X978314Y63602D01*
D02*
G37*
G36*
X903314D02*
X905315Y62773D01*
X907117Y61569D01*
X908649Y60037D01*
X909853Y58236D01*
X910682Y56234D01*
X911105Y54108D01*
Y53025D01*
Y51942D01*
X910682Y49816D01*
X909853Y47814D01*
X908649Y46013D01*
X907117Y44481D01*
X905315Y43277D01*
X903314Y42448D01*
X901188Y42025D01*
X900105D01*
Y53025D01*
X900105Y42025D01*
X900105Y42025D01*
X899022D01*
X896896Y42448D01*
X894894Y43277D01*
X893093Y44481D01*
X891561Y46013D01*
X890357Y47814D01*
X889528Y49816D01*
X889105Y51942D01*
Y53025D01*
Y54108D01*
X889528Y56234D01*
X890357Y58236D01*
X891561Y60037D01*
X893093Y61569D01*
X894894Y62773D01*
X896896Y63602D01*
X899022Y64025D01*
X901188D01*
X903314Y63602D01*
D02*
G37*
G36*
X828314D02*
X830315Y62773D01*
X832117Y61569D01*
X833649Y60037D01*
X834853Y58236D01*
X835682Y56234D01*
X836105Y54108D01*
Y53025D01*
Y51942D01*
X835682Y49816D01*
X834853Y47814D01*
X833649Y46013D01*
X832117Y44481D01*
X830315Y43277D01*
X828314Y42448D01*
X826188Y42025D01*
X825105D01*
Y53025D01*
X825105Y42025D01*
X825105Y42025D01*
X824022D01*
X821896Y42448D01*
X819894Y43277D01*
X818093Y44481D01*
X816561Y46013D01*
X815357Y47814D01*
X814528Y49816D01*
X814105Y51942D01*
Y53025D01*
Y54108D01*
X814528Y56234D01*
X815357Y58236D01*
X816561Y60037D01*
X818093Y61569D01*
X819894Y62773D01*
X821896Y63602D01*
X824022Y64025D01*
X826188D01*
X828314Y63602D01*
D02*
G37*
G36*
X753314D02*
X755315Y62773D01*
X757117Y61569D01*
X758649Y60037D01*
X759853Y58236D01*
X760682Y56234D01*
X761105Y54108D01*
Y53025D01*
Y51942D01*
X760682Y49816D01*
X759853Y47814D01*
X758649Y46013D01*
X757117Y44481D01*
X755315Y43277D01*
X753314Y42448D01*
X751188Y42025D01*
X750105D01*
Y53025D01*
X750105Y42025D01*
X750105Y42025D01*
X749022D01*
X746896Y42448D01*
X744894Y43277D01*
X743093Y44481D01*
X741561Y46013D01*
X740357Y47814D01*
X739528Y49816D01*
X739105Y51942D01*
Y53025D01*
Y54108D01*
X739528Y56234D01*
X740357Y58236D01*
X741561Y60037D01*
X743093Y61569D01*
X744894Y62773D01*
X746896Y63602D01*
X749022Y64025D01*
X751188D01*
X753314Y63602D01*
D02*
G37*
G36*
X678314D02*
X680315Y62773D01*
X682117Y61569D01*
X683649Y60037D01*
X684853Y58236D01*
X685682Y56234D01*
X686105Y54108D01*
Y53025D01*
Y51942D01*
X685682Y49816D01*
X684853Y47814D01*
X683649Y46013D01*
X682117Y44481D01*
X680315Y43277D01*
X678314Y42448D01*
X676188Y42025D01*
X675105D01*
Y53025D01*
X675105Y42025D01*
X675105Y42025D01*
X674022D01*
X671896Y42448D01*
X669894Y43277D01*
X668093Y44481D01*
X666561Y46013D01*
X665357Y47814D01*
X664528Y49816D01*
X664105Y51942D01*
Y53025D01*
Y54108D01*
X664528Y56234D01*
X665357Y58236D01*
X666561Y60037D01*
X668093Y61569D01*
X669894Y62773D01*
X671896Y63602D01*
X674022Y64025D01*
X676188D01*
X678314Y63602D01*
D02*
G37*
G36*
X1053314Y63577D02*
X1055315Y62748D01*
X1057117Y61544D01*
X1058649Y60012D01*
X1059853Y58211D01*
X1060682Y56209D01*
X1061105Y54083D01*
Y53000D01*
Y51917D01*
X1060682Y49791D01*
X1059853Y47790D01*
X1058649Y45988D01*
X1057117Y44456D01*
X1055315Y43252D01*
X1053314Y42423D01*
X1051188Y42000D01*
X1050105D01*
Y53000D01*
X1050105Y42000D01*
X1050105Y42000D01*
X1049022D01*
X1046896Y42423D01*
X1044894Y43252D01*
X1043093Y44456D01*
X1041561Y45988D01*
X1040357Y47790D01*
X1039528Y49791D01*
X1039105Y51917D01*
Y53000D01*
Y54083D01*
X1039528Y56209D01*
X1040357Y58211D01*
X1041561Y60012D01*
X1043093Y61544D01*
X1044894Y62748D01*
X1046896Y63577D01*
X1049022Y64000D01*
X1051188D01*
X1053314Y63577D01*
D02*
G37*
G36*
X1536958Y26327D02*
X1538960Y25498D01*
X1540762Y24294D01*
X1542294Y22762D01*
X1543498Y20960D01*
X1544327Y18958D01*
X1544750Y16833D01*
Y15750D01*
Y14666D01*
X1544327Y12541D01*
X1543498Y10539D01*
X1542294Y8738D01*
X1540762Y7206D01*
X1538960Y6002D01*
X1536958Y5173D01*
X1534833Y4750D01*
X1532666D01*
X1530541Y5173D01*
X1528539Y6002D01*
X1526738Y7206D01*
X1525206Y8738D01*
X1524002Y10539D01*
X1523172Y12541D01*
X1522750Y14666D01*
Y15750D01*
Y16833D01*
X1523172Y18958D01*
X1524002Y20960D01*
X1525206Y22762D01*
X1526738Y24294D01*
X1528539Y25498D01*
X1530541Y26327D01*
X1532666Y26750D01*
X1534833D01*
X1536958Y26327D01*
D02*
G37*
G36*
X1388958D02*
X1390960Y25498D01*
X1392762Y24294D01*
X1394294Y22762D01*
X1395250Y21332D01*
X1396205Y22762D01*
X1397738Y24294D01*
X1399539Y25498D01*
X1401541Y26327D01*
X1403666Y26750D01*
X1405833D01*
X1407958Y26327D01*
X1409960Y25498D01*
X1411762Y24294D01*
X1413294Y22762D01*
X1414498Y20960D01*
X1415327Y18958D01*
X1415750Y16833D01*
Y15750D01*
Y14666D01*
X1415327Y12541D01*
X1414498Y10539D01*
X1413294Y8738D01*
X1411762Y7206D01*
X1409960Y6002D01*
X1407958Y5173D01*
X1405833Y4750D01*
X1403666D01*
X1401541Y5173D01*
X1399539Y6002D01*
X1397738Y7206D01*
X1396205Y8738D01*
X1395250Y10168D01*
X1394294Y8738D01*
X1392762Y7206D01*
X1390960Y6002D01*
X1388958Y5173D01*
X1386833Y4750D01*
X1384666D01*
X1382541Y5173D01*
X1380539Y6002D01*
X1378738Y7206D01*
X1377206Y8738D01*
X1376002Y10539D01*
X1375172Y12541D01*
X1374750Y14666D01*
Y15750D01*
Y16833D01*
X1375172Y18958D01*
X1376002Y20960D01*
X1377206Y22762D01*
X1378738Y24294D01*
X1380539Y25498D01*
X1382541Y26327D01*
X1384666Y26750D01*
X1386833D01*
X1388958Y26327D01*
D02*
G37*
G36*
X1259958Y26327D02*
X1261960Y25498D01*
X1263762Y24294D01*
X1265294Y22762D01*
X1266498Y20960D01*
X1267327Y18958D01*
X1267750Y16833D01*
Y15750D01*
Y14666D01*
X1267327Y12541D01*
X1266498Y10539D01*
X1265294Y8738D01*
X1263762Y7206D01*
X1261960Y6002D01*
X1259958Y5173D01*
X1257833Y4750D01*
X1255666D01*
X1253541Y5173D01*
X1251539Y6002D01*
X1249738Y7206D01*
X1248205Y8738D01*
X1247002Y10539D01*
X1246172Y12541D01*
X1245750Y14666D01*
Y15750D01*
Y16833D01*
X1246172Y18958D01*
X1247002Y20960D01*
X1248205Y22762D01*
X1249738Y24294D01*
X1251539Y25498D01*
X1253541Y26327D01*
X1255666Y26750D01*
X1257833D01*
X1259958Y26327D01*
D02*
G37*
%LPC*%
G36*
X1396750Y15750D02*
Y15750D01*
X1404750D01*
X1396750Y15750D01*
D02*
G37*
G36*
X1245750D02*
X1245750Y15750D01*
X1256750D01*
X1245750Y15750D01*
D02*
G37*
%LPD*%
D48*
X356250Y513000D02*
D03*
X333750Y304250D02*
D03*
X598250Y1009750D02*
D03*
X601250Y918500D02*
D03*
X1385750Y164750D02*
D03*
X983250Y250000D02*
D03*
X1172500Y25300D02*
D03*
X1217500D02*
D03*
D49*
X1030250Y209000D02*
D03*
X1038250D02*
D03*
X1226250Y291000D02*
D03*
X1218250D02*
D03*
X1210250D02*
D03*
X1202250D02*
D03*
X1194250D02*
D03*
X1186250D02*
D03*
X1178250D02*
D03*
X1170250D02*
D03*
X1162250D02*
D03*
X1154250D02*
D03*
X1146250D02*
D03*
X1138250D02*
D03*
X1130250D02*
D03*
X1122250D02*
D03*
X1114250D02*
D03*
X1106250D02*
D03*
X1098250D02*
D03*
X1090250D02*
D03*
X1222250Y209000D02*
D03*
X1214250D02*
D03*
X1206250D02*
D03*
X1198250D02*
D03*
X1190250D02*
D03*
X1182250D02*
D03*
X1174250D02*
D03*
X1166250D02*
D03*
X1158250D02*
D03*
X1150250D02*
D03*
X1142250D02*
D03*
X1134250D02*
D03*
X1126250D02*
D03*
X1118250D02*
D03*
X1110250D02*
D03*
X1102250D02*
D03*
X1094250D02*
D03*
X1086250D02*
D03*
X1050250Y291000D02*
D03*
X1042250D02*
D03*
X1034250D02*
D03*
X1026250D02*
D03*
X1018250D02*
D03*
X1010250D02*
D03*
X1002250D02*
D03*
X994250D02*
D03*
X1046250Y209000D02*
D03*
X1022250D02*
D03*
X1014250D02*
D03*
X1006250D02*
D03*
X998250D02*
D03*
X990250D02*
D03*
D63*
X880850Y557750D02*
D03*
Y553750D02*
D03*
Y549750D02*
D03*
Y545750D02*
D03*
Y541750D02*
D03*
Y537750D02*
D03*
Y533750D02*
D03*
Y529750D02*
D03*
Y525750D02*
D03*
Y521750D02*
D03*
Y517750D02*
D03*
Y513750D02*
D03*
Y509750D02*
D03*
Y505750D02*
D03*
Y501750D02*
D03*
Y497750D02*
D03*
Y493750D02*
D03*
Y489750D02*
D03*
Y485750D02*
D03*
Y481750D02*
D03*
Y477750D02*
D03*
Y473750D02*
D03*
Y469750D02*
D03*
Y465750D02*
D03*
Y461750D02*
D03*
Y457750D02*
D03*
Y453750D02*
D03*
Y449750D02*
D03*
Y445750D02*
D03*
Y441750D02*
D03*
Y437750D02*
D03*
Y433750D02*
D03*
Y429750D02*
D03*
Y425750D02*
D03*
Y421750D02*
D03*
Y417750D02*
D03*
Y413750D02*
D03*
Y409750D02*
D03*
Y405750D02*
D03*
Y401750D02*
D03*
Y397750D02*
D03*
Y393750D02*
D03*
Y389750D02*
D03*
Y385750D02*
D03*
Y381750D02*
D03*
Y377750D02*
D03*
Y373750D02*
D03*
Y369750D02*
D03*
Y365750D02*
D03*
Y361750D02*
D03*
X911650Y557750D02*
D03*
Y553750D02*
D03*
Y549750D02*
D03*
Y545750D02*
D03*
Y541750D02*
D03*
Y537750D02*
D03*
Y533750D02*
D03*
Y529750D02*
D03*
Y525750D02*
D03*
Y521750D02*
D03*
Y517750D02*
D03*
Y513750D02*
D03*
Y509750D02*
D03*
Y505750D02*
D03*
Y501750D02*
D03*
Y497750D02*
D03*
Y493750D02*
D03*
Y489750D02*
D03*
Y485750D02*
D03*
Y481750D02*
D03*
Y477750D02*
D03*
Y473750D02*
D03*
Y469750D02*
D03*
Y465750D02*
D03*
Y461750D02*
D03*
Y457750D02*
D03*
Y453750D02*
D03*
Y449750D02*
D03*
Y445750D02*
D03*
Y441750D02*
D03*
Y437750D02*
D03*
Y433750D02*
D03*
Y429750D02*
D03*
Y425750D02*
D03*
Y421750D02*
D03*
Y417750D02*
D03*
Y413750D02*
D03*
Y409750D02*
D03*
Y405750D02*
D03*
Y401750D02*
D03*
Y397750D02*
D03*
Y393750D02*
D03*
Y389750D02*
D03*
Y385750D02*
D03*
Y381750D02*
D03*
Y377750D02*
D03*
Y373750D02*
D03*
Y369750D02*
D03*
Y365750D02*
D03*
Y361750D02*
D03*
X540850Y557750D02*
D03*
Y553750D02*
D03*
Y549750D02*
D03*
Y545750D02*
D03*
Y541750D02*
D03*
Y537750D02*
D03*
Y533750D02*
D03*
Y529750D02*
D03*
Y525750D02*
D03*
Y521750D02*
D03*
Y517750D02*
D03*
Y513750D02*
D03*
Y509750D02*
D03*
Y505750D02*
D03*
Y501750D02*
D03*
Y497750D02*
D03*
Y493750D02*
D03*
Y489750D02*
D03*
Y485750D02*
D03*
Y481750D02*
D03*
Y477750D02*
D03*
Y473750D02*
D03*
Y469750D02*
D03*
Y465750D02*
D03*
Y461750D02*
D03*
Y457750D02*
D03*
Y453750D02*
D03*
Y449750D02*
D03*
Y445750D02*
D03*
Y441750D02*
D03*
Y437750D02*
D03*
Y433750D02*
D03*
Y429750D02*
D03*
Y425750D02*
D03*
Y421750D02*
D03*
Y417750D02*
D03*
Y413750D02*
D03*
Y409750D02*
D03*
Y405750D02*
D03*
Y401750D02*
D03*
Y397750D02*
D03*
Y393750D02*
D03*
Y389750D02*
D03*
Y385750D02*
D03*
Y381750D02*
D03*
Y377750D02*
D03*
Y373750D02*
D03*
Y369750D02*
D03*
Y365750D02*
D03*
Y361750D02*
D03*
X571650Y557750D02*
D03*
Y553750D02*
D03*
Y549750D02*
D03*
Y545750D02*
D03*
Y541750D02*
D03*
Y537750D02*
D03*
Y533750D02*
D03*
Y529750D02*
D03*
Y525750D02*
D03*
Y521750D02*
D03*
Y517750D02*
D03*
Y513750D02*
D03*
Y509750D02*
D03*
Y505750D02*
D03*
Y501750D02*
D03*
Y497750D02*
D03*
Y493750D02*
D03*
Y489750D02*
D03*
Y485750D02*
D03*
Y481750D02*
D03*
Y477750D02*
D03*
Y473750D02*
D03*
Y469750D02*
D03*
Y465750D02*
D03*
Y461750D02*
D03*
Y457750D02*
D03*
Y453750D02*
D03*
Y449750D02*
D03*
Y445750D02*
D03*
Y441750D02*
D03*
Y437750D02*
D03*
Y433750D02*
D03*
Y429750D02*
D03*
Y425750D02*
D03*
Y421750D02*
D03*
Y417750D02*
D03*
Y413750D02*
D03*
Y409750D02*
D03*
Y405750D02*
D03*
Y401750D02*
D03*
Y397750D02*
D03*
Y393750D02*
D03*
Y389750D02*
D03*
Y385750D02*
D03*
Y381750D02*
D03*
Y377750D02*
D03*
Y373750D02*
D03*
Y369750D02*
D03*
Y365750D02*
D03*
Y361750D02*
D03*
D64*
X1254750Y215000D02*
D03*
X961750D02*
D03*
D109*
X1018250Y964000D02*
D03*
Y954000D02*
D03*
X1416400Y963850D02*
D03*
Y973850D02*
D03*
X119500Y698500D02*
D03*
Y708500D02*
D03*
X1317500Y720750D02*
D03*
Y710750D02*
D03*
X1297000Y699500D02*
D03*
Y689500D02*
D03*
X623250Y876500D02*
D03*
Y886500D02*
D03*
X730750Y221500D02*
D03*
Y211500D02*
D03*
X688000Y222250D02*
D03*
Y212250D02*
D03*
X678000D02*
D03*
Y222250D02*
D03*
X719000Y215250D02*
D03*
Y225250D02*
D03*
X747750Y160250D02*
D03*
Y170250D02*
D03*
X1560750Y841375D02*
D03*
Y851375D02*
D03*
X1549500Y851375D02*
D03*
Y841375D02*
D03*
X1538250D02*
D03*
Y851375D02*
D03*
X1535250Y212000D02*
D03*
Y202000D02*
D03*
X1647400Y854750D02*
D03*
Y844750D02*
D03*
X1613750Y968250D02*
D03*
Y958250D02*
D03*
X1457400Y854750D02*
D03*
Y844750D02*
D03*
X1421400Y919500D02*
D03*
Y909500D02*
D03*
X1398250Y964000D02*
D03*
Y954000D02*
D03*
X1036400Y973850D02*
D03*
Y963850D02*
D03*
X1041400Y919500D02*
D03*
Y909500D02*
D03*
X1077400Y854750D02*
D03*
Y844750D02*
D03*
X1233750Y968250D02*
D03*
Y958250D02*
D03*
X1267400Y854750D02*
D03*
Y844750D02*
D03*
X1180750Y841375D02*
D03*
Y851375D02*
D03*
X1158250Y841375D02*
D03*
Y851375D02*
D03*
X1169500D02*
D03*
Y841375D02*
D03*
X403855Y579750D02*
D03*
Y589750D02*
D03*
X454250Y576250D02*
D03*
Y566250D02*
D03*
X433000Y367500D02*
D03*
Y357500D02*
D03*
X382605Y371000D02*
D03*
Y381000D02*
D03*
D110*
X1411400Y937433D02*
D03*
Y942433D02*
D03*
Y947433D02*
D03*
X1431400D02*
D03*
Y942433D02*
D03*
Y937433D02*
D03*
X1051400Y937433D02*
D03*
Y942433D02*
D03*
Y947433D02*
D03*
X1031400D02*
D03*
Y942433D02*
D03*
Y937433D02*
D03*
X1599750Y935500D02*
D03*
Y940500D02*
D03*
Y945500D02*
D03*
X1579750D02*
D03*
Y940500D02*
D03*
Y935500D02*
D03*
X1219750D02*
D03*
Y940500D02*
D03*
Y945500D02*
D03*
X1199750D02*
D03*
Y940500D02*
D03*
Y935500D02*
D03*
D111*
X1416400Y952433D02*
D03*
X1421400D02*
D03*
X1426400D02*
D03*
Y932433D02*
D03*
X1421400D02*
D03*
X1416400D02*
D03*
X1036400Y932433D02*
D03*
X1041400D02*
D03*
X1046400D02*
D03*
Y952433D02*
D03*
X1041400D02*
D03*
X1036400D02*
D03*
X1594750Y950500D02*
D03*
X1589750D02*
D03*
X1584750D02*
D03*
Y930500D02*
D03*
X1589750D02*
D03*
X1594750D02*
D03*
X1214750Y950500D02*
D03*
X1209750D02*
D03*
X1204750D02*
D03*
Y930500D02*
D03*
X1209750D02*
D03*
X1214750D02*
D03*
D112*
X1421400Y942433D02*
D03*
X1041400Y942433D02*
D03*
D113*
X1178334Y935500D02*
D03*
X1188334Y935500D02*
D03*
X1412750Y712750D02*
D03*
X1402750D02*
D03*
X1439500Y513750D02*
D03*
X1429500D02*
D03*
X1367500Y688000D02*
D03*
X1377500D02*
D03*
X938000Y299750D02*
D03*
X948000D02*
D03*
X938000Y309750D02*
D03*
X948000D02*
D03*
X645750Y244750D02*
D03*
X655750D02*
D03*
X647750Y234750D02*
D03*
X657750D02*
D03*
X698500Y215500D02*
D03*
X708500D02*
D03*
X1084400Y881375D02*
D03*
X1094400D02*
D03*
X1084400Y903875D02*
D03*
X1094400D02*
D03*
Y892625D02*
D03*
X1084400D02*
D03*
X1578000Y920500D02*
D03*
X1568000D02*
D03*
X1464400Y903875D02*
D03*
X1474400D02*
D03*
Y892625D02*
D03*
X1464400Y892625D02*
D03*
X1464400Y881375D02*
D03*
X1474400D02*
D03*
X1497250Y186000D02*
D03*
X1507250D02*
D03*
X671250Y765250D02*
D03*
X681250D02*
D03*
X1568000Y960500D02*
D03*
X1578000D02*
D03*
X1568334Y935500D02*
D03*
X1558334D02*
D03*
X1189037Y960500D02*
D03*
X1199037D02*
D03*
X1198000Y920500D02*
D03*
X1188000D02*
D03*
X414250Y600250D02*
D03*
X424250D02*
D03*
X424250Y590250D02*
D03*
X414250D02*
D03*
X459250Y648250D02*
D03*
X469250D02*
D03*
X403000Y381500D02*
D03*
X393000D02*
D03*
X403000Y391750D02*
D03*
X393000D02*
D03*
X438000Y439500D02*
D03*
X448000Y439500D02*
D03*
D114*
X1164000Y1005250D02*
D03*
X1159500D02*
D03*
X1588000Y999750D02*
D03*
X1583500D02*
D03*
X1441000Y1002250D02*
D03*
X1445500D02*
D03*
X1306500Y1005250D02*
D03*
X1302000Y1005250D02*
D03*
D115*
X1589750Y940500D02*
D03*
X1209750D02*
D03*
D116*
X1545250Y906500D02*
D03*
X1535250D02*
D03*
X1165250D02*
D03*
X1155250D02*
D03*
X1071250Y173500D02*
D03*
X1081250D02*
D03*
X1297000Y710500D02*
D03*
X1307000D02*
D03*
X1340750Y688000D02*
D03*
X1330750D02*
D03*
X1377500Y700500D02*
D03*
X1367500D02*
D03*
X1402750Y723250D02*
D03*
X1392750D02*
D03*
X1365000Y711500D02*
D03*
X1375000D02*
D03*
X698750Y181500D02*
D03*
X688750D02*
D03*
X698771Y170625D02*
D03*
X688771D02*
D03*
X697750Y245000D02*
D03*
X687750D02*
D03*
X790000Y83500D02*
D03*
X800000D02*
D03*
X676750Y245000D02*
D03*
X666750D02*
D03*
X719500Y201063D02*
D03*
X709500D02*
D03*
X731750Y201000D02*
D03*
X741750D02*
D03*
X174000Y993500D02*
D03*
X184000D02*
D03*
X1535900Y191100D02*
D03*
X1525900Y191100D02*
D03*
X424250Y610750D02*
D03*
X414250D02*
D03*
X403250Y605750D02*
D03*
X393250Y605750D02*
D03*
X414250Y579750D02*
D03*
X424250D02*
D03*
X432091Y568341D02*
D03*
X422091D02*
D03*
X400909Y359478D02*
D03*
X410909D02*
D03*
X393000Y371000D02*
D03*
X403000D02*
D03*
X403000Y402000D02*
D03*
X393000Y402000D02*
D03*
X382000Y397000D02*
D03*
X372000D02*
D03*
D117*
X1179750Y902750D02*
D03*
X1175250D02*
D03*
X1175250Y897250D02*
D03*
Y908250D02*
D03*
X1179750D02*
D03*
Y897250D02*
D03*
X1559750Y902750D02*
D03*
X1555250D02*
D03*
Y897250D02*
D03*
Y908250D02*
D03*
X1559750D02*
D03*
Y897250D02*
D03*
D118*
X78000Y532250D02*
D03*
Y536750D02*
D03*
X91250Y499983D02*
D03*
Y495483D02*
D03*
X77750Y474750D02*
D03*
Y470250D02*
D03*
X77983Y517983D02*
D03*
Y522483D02*
D03*
X83250Y513983D02*
D03*
Y509483D02*
D03*
X91233Y507983D02*
D03*
Y512483D02*
D03*
X84750Y491250D02*
D03*
Y495750D02*
D03*
X84767Y483250D02*
D03*
Y478750D02*
D03*
X78000Y680000D02*
D03*
Y684500D02*
D03*
X77750Y636750D02*
D03*
Y632250D02*
D03*
X75750Y703250D02*
D03*
Y707750D02*
D03*
X83250Y675983D02*
D03*
Y671483D02*
D03*
X91233Y669983D02*
D03*
Y674483D02*
D03*
X91250Y661983D02*
D03*
Y657483D02*
D03*
X84767Y645250D02*
D03*
Y640750D02*
D03*
X84750Y653250D02*
D03*
Y657750D02*
D03*
X1315000Y740750D02*
D03*
Y745250D02*
D03*
X128250Y1004000D02*
D03*
Y999500D02*
D03*
D119*
X64751Y663983D02*
D03*
Y667983D02*
D03*
Y647983D02*
D03*
Y651983D02*
D03*
Y655983D02*
D03*
Y659983D02*
D03*
Y671983D02*
D03*
Y675983D02*
D03*
Y679983D02*
D03*
Y683983D02*
D03*
Y485983D02*
D03*
Y489983D02*
D03*
Y493983D02*
D03*
Y497983D02*
D03*
Y501983D02*
D03*
Y505983D02*
D03*
Y509983D02*
D03*
Y513983D02*
D03*
Y517983D02*
D03*
Y521983D02*
D03*
D120*
X52501Y649983D02*
D03*
X52501Y653983D02*
D03*
Y657983D02*
D03*
Y661983D02*
D03*
Y665983D02*
D03*
Y669983D02*
D03*
Y673983D02*
D03*
Y677983D02*
D03*
X52501Y681983D02*
D03*
Y487983D02*
D03*
X52501Y491983D02*
D03*
Y495983D02*
D03*
Y499983D02*
D03*
Y503983D02*
D03*
Y507983D02*
D03*
Y511983D02*
D03*
Y515983D02*
D03*
X52501Y519983D02*
D03*
D121*
X1334250Y790250D02*
D03*
X1368250D02*
D03*
X1360750Y740750D02*
D03*
X1326750Y740750D02*
D03*
X1083750Y97250D02*
D03*
X1117750D02*
D03*
X1541000Y354250D02*
D03*
X1507000D02*
D03*
D122*
X1351250Y773250D02*
D03*
Y807250D02*
D03*
X1343750Y757750D02*
D03*
X1343750Y723750D02*
D03*
X1100750Y80250D02*
D03*
Y114250D02*
D03*
X1524000Y371250D02*
D03*
Y337250D02*
D03*
D123*
X1367250Y790250D02*
D03*
X1335250D02*
D03*
X1327750Y740750D02*
D03*
X1359750D02*
D03*
X1116750Y97250D02*
D03*
X1084750D02*
D03*
X1508000Y354250D02*
D03*
X1540000D02*
D03*
D124*
X1351250Y804250D02*
D03*
Y776250D02*
D03*
X1343750Y726750D02*
D03*
X1343750Y754750D02*
D03*
X1100750Y111250D02*
D03*
Y83250D02*
D03*
X1524000Y340250D02*
D03*
Y368250D02*
D03*
D125*
X1304071Y734821D02*
D03*
X1297000Y727750D02*
D03*
X1289929Y734821D02*
D03*
X1297000Y741892D02*
D03*
D126*
X1289929Y734821D02*
D03*
X1297000Y727750D02*
D03*
X1289929Y734821D02*
D03*
X1282858Y741892D02*
D03*
D127*
X477250Y957750D02*
D03*
Y947750D02*
D03*
Y936750D02*
D03*
Y926750D02*
D03*
X1446000Y630000D02*
D03*
Y640000D02*
D03*
X1446250Y605750D02*
D03*
Y615750D02*
D03*
X1330000Y709500D02*
D03*
Y699500D02*
D03*
X1319000D02*
D03*
Y689500D02*
D03*
X940000Y333750D02*
D03*
Y323750D02*
D03*
X471250Y1008000D02*
D03*
Y1018000D02*
D03*
X660125Y212125D02*
D03*
Y222125D02*
D03*
X778250Y203062D02*
D03*
Y193062D02*
D03*
X789250D02*
D03*
Y203062D02*
D03*
X767250Y193062D02*
D03*
Y203062D02*
D03*
X758500Y136750D02*
D03*
Y126750D02*
D03*
X756250Y193062D02*
D03*
Y203062D02*
D03*
X770750Y126750D02*
D03*
Y136750D02*
D03*
X764500Y149000D02*
D03*
Y159000D02*
D03*
X758500Y172000D02*
D03*
Y182000D02*
D03*
X770750D02*
D03*
Y172000D02*
D03*
X174000Y1003500D02*
D03*
Y993500D02*
D03*
X443750Y566250D02*
D03*
Y576250D02*
D03*
X422500Y357500D02*
D03*
Y367500D02*
D03*
D128*
X424750Y669950D02*
D03*
X250750Y960050D02*
D03*
Y693350D02*
D03*
Y669950D02*
D03*
X424750Y960050D02*
D03*
Y936650D02*
D03*
D129*
X1371000Y662250D02*
D03*
X1382000D02*
D03*
X1426000Y538250D02*
D03*
X1415000D02*
D03*
X1404000D02*
D03*
X1393000D02*
D03*
X1382000D02*
D03*
X1371000D02*
D03*
X1360000D02*
D03*
X1330000Y538250D02*
D03*
X1426000Y662250D02*
D03*
X1415000D02*
D03*
X1404000D02*
D03*
X1393000D02*
D03*
X1360000D02*
D03*
X1330000D02*
D03*
X1319000Y662250D02*
D03*
X1308000Y662250D02*
D03*
X1297000D02*
D03*
X1286000D02*
D03*
Y538250D02*
D03*
X1297000D02*
D03*
X1308000D02*
D03*
X1319000D02*
D03*
D130*
X1290500Y426250D02*
D03*
D131*
X1450250Y426500D02*
D03*
D132*
X1109601Y18500D02*
D03*
Y32500D02*
D03*
X1116601Y32500D02*
D03*
X1116601Y18500D02*
D03*
X666601Y18525D02*
D03*
Y32525D02*
D03*
X659601Y32525D02*
D03*
Y18525D02*
D03*
X884601D02*
D03*
Y32525D02*
D03*
X891601Y32525D02*
D03*
Y18525D02*
D03*
X809601Y18525D02*
D03*
Y32525D02*
D03*
X816601Y32525D02*
D03*
Y18525D02*
D03*
X734601Y18525D02*
D03*
Y32525D02*
D03*
X741601Y32525D02*
D03*
Y18525D02*
D03*
X1034601Y18500D02*
D03*
Y32500D02*
D03*
X1041601Y32500D02*
D03*
Y18500D02*
D03*
X959601Y18500D02*
D03*
Y32500D02*
D03*
X966601Y32500D02*
D03*
Y18500D02*
D03*
D133*
X1419750Y699750D02*
D03*
X1402750D02*
D03*
X1077400Y867500D02*
D03*
X1094400Y867500D02*
D03*
X1551750Y888000D02*
D03*
X1568750D02*
D03*
X1474400Y867500D02*
D03*
X1457400D02*
D03*
X1171750Y888000D02*
D03*
X1188750D02*
D03*
D134*
X1301250Y60750D02*
D03*
Y120750D02*
D03*
X1341250D02*
D03*
Y60750D02*
D03*
X1489250D02*
D03*
Y120750D02*
D03*
X1449250D02*
D03*
Y60750D02*
D03*
X1374250Y1029750D02*
D03*
X1461000Y361800D02*
D03*
X1578000Y42250D02*
D03*
Y67650D02*
D03*
X470876Y21630D02*
D03*
X496304D02*
D03*
X521733D02*
D03*
X241857Y468000D02*
D03*
X267286D02*
D03*
X292714D02*
D03*
X860714Y850786D02*
D03*
X835286Y876214D02*
D03*
Y850786D02*
D03*
X131700Y90500D02*
D03*
X1089250Y1029750D02*
D03*
X278850Y90750D02*
D03*
X304250D02*
D03*
X194950Y90500D02*
D03*
X279590Y20380D02*
D03*
X304990D02*
D03*
X398700Y20500D02*
D03*
X1505500Y428286D02*
D03*
Y453714D02*
D03*
Y479143D02*
D03*
X140000Y929786D02*
D03*
Y955214D02*
D03*
Y980643D02*
D03*
D135*
X1475000Y296250D02*
D03*
X1465000D02*
D03*
X1455000D02*
D03*
X1445000D02*
D03*
X1435000Y296250D02*
D03*
X1425000Y296250D02*
D03*
X1415000D02*
D03*
X1405000D02*
D03*
X1395000Y296250D02*
D03*
X1385000Y296250D02*
D03*
X1375000D02*
D03*
X1365000D02*
D03*
X1355000D02*
D03*
X1345000D02*
D03*
X1335000D02*
D03*
Y331250D02*
D03*
X1345000Y331250D02*
D03*
X1355000Y331250D02*
D03*
X1365000D02*
D03*
X1375000Y331250D02*
D03*
X1385000D02*
D03*
X1395000D02*
D03*
X1405000D02*
D03*
X1415000D02*
D03*
X1425000D02*
D03*
X1435000D02*
D03*
X1445000D02*
D03*
X1455000D02*
D03*
X1465000Y331250D02*
D03*
X1475000D02*
D03*
Y241250D02*
D03*
X1465000D02*
D03*
X1455000D02*
D03*
X1445000Y241250D02*
D03*
X1435000D02*
D03*
X1425000Y241250D02*
D03*
X1415000D02*
D03*
X1405000D02*
D03*
X1395000Y241250D02*
D03*
X1385000D02*
D03*
X1375000Y241250D02*
D03*
X1365000D02*
D03*
X1355000D02*
D03*
X1345000Y241250D02*
D03*
X1335000Y241250D02*
D03*
Y206250D02*
D03*
X1345000Y206250D02*
D03*
X1355000Y206250D02*
D03*
X1365000D02*
D03*
X1375000Y206250D02*
D03*
X1385000D02*
D03*
X1395000D02*
D03*
X1405000D02*
D03*
X1415000D02*
D03*
X1425000D02*
D03*
X1435000D02*
D03*
X1445000D02*
D03*
X1455000D02*
D03*
X1465000Y206250D02*
D03*
X1475000D02*
D03*
D136*
X734250Y182000D02*
D03*
Y178000D02*
D03*
Y174000D02*
D03*
X717250D02*
D03*
Y178000D02*
D03*
Y182000D02*
D03*
D137*
X727750Y171500D02*
D03*
X723750D02*
D03*
Y184500D02*
D03*
D138*
X727750Y184000D02*
D03*
D139*
X171500Y54700D02*
D03*
X171500Y42000D02*
D03*
Y29300D02*
D03*
Y16600D02*
D03*
X108500D02*
D03*
X108500Y29300D02*
D03*
Y42000D02*
D03*
X108500Y54700D02*
D03*
D140*
X1538250Y881750D02*
D03*
Y864750D02*
D03*
X1158250Y881750D02*
D03*
Y864750D02*
D03*
D141*
X1216750Y887750D02*
D03*
X1596750D02*
D03*
D142*
X1224250Y873500D02*
D03*
X1219250D02*
D03*
X1214250D02*
D03*
X1209250D02*
D03*
Y902000D02*
D03*
X1214250D02*
D03*
X1219250D02*
D03*
X1224250D02*
D03*
X1604250Y873500D02*
D03*
X1599250D02*
D03*
X1594250D02*
D03*
X1589250D02*
D03*
Y902000D02*
D03*
X1594250D02*
D03*
X1599250D02*
D03*
X1604250D02*
D03*
D143*
X1202500Y880250D02*
D03*
Y885250D02*
D03*
Y890250D02*
D03*
Y895250D02*
D03*
X1231000D02*
D03*
Y890250D02*
D03*
Y885250D02*
D03*
Y880250D02*
D03*
X1582500Y880250D02*
D03*
Y885250D02*
D03*
Y890250D02*
D03*
Y895250D02*
D03*
X1611000D02*
D03*
Y890250D02*
D03*
Y885250D02*
D03*
Y880250D02*
D03*
D144*
X1594250Y846375D02*
D03*
X1573250D02*
D03*
X1193250D02*
D03*
X1214250D02*
D03*
D145*
X1583750Y853375D02*
D03*
Y839375D02*
D03*
X1203750D02*
D03*
Y853375D02*
D03*
D146*
X1474400Y937125D02*
D03*
Y916125D02*
D03*
X1094400D02*
D03*
Y937125D02*
D03*
D147*
X1467400Y926625D02*
D03*
X1481400D02*
D03*
X1101400D02*
D03*
X1087400D02*
D03*
D148*
X704500Y780000D02*
D03*
X684500D02*
D03*
X714000Y893000D02*
D03*
X734000D02*
D03*
X397125Y419905D02*
D03*
X377125D02*
D03*
X417250Y630500D02*
D03*
X397250D02*
D03*
D149*
X620500Y831750D02*
D03*
X551500D02*
D03*
X684000Y833000D02*
D03*
X753000D02*
D03*
D150*
X-80150Y-80000D02*
D03*
X-80150Y1180000D02*
D03*
X1780150Y1180000D02*
D03*
X1780150Y-80000D02*
D03*
D151*
X120055Y745250D02*
D03*
D152*
X104055Y857200D02*
D03*
D153*
X95555Y741250D02*
D03*
D154*
X89055Y860750D02*
D03*
D155*
X13055Y744500D02*
D03*
D156*
Y859000D02*
D03*
D157*
X11805Y846000D02*
D03*
D158*
Y835000D02*
D03*
D159*
Y824000D02*
D03*
D160*
Y813000D02*
D03*
D161*
Y802000D02*
D03*
D162*
Y791000D02*
D03*
D163*
X11805Y780000D02*
D03*
D164*
X11805Y769000D02*
D03*
D165*
X1688850Y259500D02*
D03*
Y129500D02*
D03*
X1568850Y259500D02*
D03*
Y129500D02*
D03*
D166*
X1554050Y219200D02*
D03*
Y209700D02*
D03*
D167*
X1554050Y197000D02*
D03*
X1554050Y184300D02*
D03*
Y171600D02*
D03*
Y158900D02*
D03*
Y146200D02*
D03*
D168*
X303000Y549250D02*
D03*
X288000D02*
D03*
X273000D02*
D03*
X258000Y549250D02*
D03*
D169*
X303000Y510250D02*
D03*
X288000D02*
D03*
X273000D02*
D03*
X258000Y510250D02*
D03*
D170*
X653250Y858250D02*
D03*
Y886250D02*
D03*
D171*
X539250Y1058750D02*
D03*
Y1089750D02*
D03*
D172*
X566750Y1012950D02*
D03*
X561750D02*
D03*
X556750D02*
D03*
X551750D02*
D03*
X546750D02*
D03*
X541750D02*
D03*
X536750D02*
D03*
X531750D02*
D03*
X526750D02*
D03*
X521750D02*
D03*
X516750D02*
D03*
X511750D02*
D03*
D173*
X368000Y491750D02*
D03*
Y461750D02*
D03*
X349750Y564000D02*
D03*
X349750Y534000D02*
D03*
X370500Y564000D02*
D03*
Y534000D02*
D03*
X348500Y253000D02*
D03*
X348500Y283000D02*
D03*
X327313Y355188D02*
D03*
Y325187D02*
D03*
X348500Y355250D02*
D03*
Y325250D02*
D03*
D174*
X465250Y613250D02*
D03*
X444000Y404500D02*
D03*
D175*
X450750Y613250D02*
D03*
X429500Y404500D02*
D03*
D176*
X436750Y600750D02*
D03*
Y605750D02*
D03*
Y610750D02*
D03*
Y615750D02*
D03*
Y620750D02*
D03*
Y625750D02*
D03*
X476750D02*
D03*
Y620750D02*
D03*
Y615750D02*
D03*
Y610750D02*
D03*
Y605750D02*
D03*
Y600750D02*
D03*
X415500Y392000D02*
D03*
Y397000D02*
D03*
Y402000D02*
D03*
Y407000D02*
D03*
Y412000D02*
D03*
Y417000D02*
D03*
X455500D02*
D03*
Y412000D02*
D03*
Y407000D02*
D03*
Y402000D02*
D03*
Y397000D02*
D03*
Y392000D02*
D03*
D177*
X444250Y633250D02*
D03*
X449250D02*
D03*
X454250D02*
D03*
X459250D02*
D03*
X464250D02*
D03*
X469250D02*
D03*
Y593250D02*
D03*
X464250D02*
D03*
X459250D02*
D03*
X454250D02*
D03*
X449250D02*
D03*
X444250D02*
D03*
X423000Y424500D02*
D03*
X428000D02*
D03*
X433000D02*
D03*
X438000D02*
D03*
X443000D02*
D03*
X448000D02*
D03*
Y384500D02*
D03*
X443000D02*
D03*
X438000D02*
D03*
X433000D02*
D03*
X428000D02*
D03*
X423000D02*
D03*
D178*
X1063400Y866000D02*
D03*
X1041400Y882000D02*
D03*
Y866000D02*
D03*
X1443400D02*
D03*
X1421400Y882000D02*
D03*
Y866000D02*
D03*
D179*
X1063400Y880250D02*
D03*
X1443400D02*
D03*
D180*
X183750Y977250D02*
D03*
Y943250D02*
D03*
X1077400Y812250D02*
D03*
Y778250D02*
D03*
X1457400Y812250D02*
D03*
Y778250D02*
D03*
X1267400Y812250D02*
D03*
Y778250D02*
D03*
X1647400Y812250D02*
D03*
Y778250D02*
D03*
D181*
X166750Y960250D02*
D03*
X200750D02*
D03*
X1060400Y795250D02*
D03*
X1094400D02*
D03*
X1440400D02*
D03*
X1474400D02*
D03*
X1250400D02*
D03*
X1284400D02*
D03*
X1630400D02*
D03*
X1664400D02*
D03*
D182*
X183750Y944250D02*
D03*
X183750Y976250D02*
D03*
X1077400Y779250D02*
D03*
Y811250D02*
D03*
X1457400Y779250D02*
D03*
Y811250D02*
D03*
X1267400Y779250D02*
D03*
Y811250D02*
D03*
X1647400Y779250D02*
D03*
Y811250D02*
D03*
D183*
X197750Y960250D02*
D03*
X169750D02*
D03*
X1091400Y795250D02*
D03*
X1063400D02*
D03*
X1471400D02*
D03*
X1443400D02*
D03*
X1281400D02*
D03*
X1253400D02*
D03*
X1661400D02*
D03*
X1633400D02*
D03*
D184*
X402000Y507000D02*
D03*
X482500D02*
D03*
X461136Y298250D02*
D03*
X380636D02*
D03*
D185*
X481500Y1090250D02*
D03*
Y1073250D02*
D03*
D186*
X1306000Y982252D02*
D03*
X1141000D02*
D03*
X1520997D02*
D03*
X1685997D02*
D03*
X1330999D02*
D03*
X1495999D02*
D03*
X951002D02*
D03*
X1116002D02*
D03*
D187*
X1306002Y908750D02*
D03*
X1140999Y908753D02*
D03*
X1520995D02*
D03*
X1685999Y908750D02*
D03*
X1330997Y908753D02*
D03*
X1496000Y908750D02*
D03*
X951000Y908753D02*
D03*
X1116003Y908750D02*
D03*
D188*
X1223499Y826250D02*
D03*
X1603495D02*
D03*
X1413497D02*
D03*
X1033500D02*
D03*
D189*
X1297000Y826252D02*
D03*
X1150000D02*
D03*
X1529997D02*
D03*
X1676997D02*
D03*
X1339999D02*
D03*
X1486998D02*
D03*
X960002D02*
D03*
X1107002D02*
D03*
D190*
X1306000Y845252D02*
D03*
X1141000D02*
D03*
X1520997D02*
D03*
X1685997D02*
D03*
X1330999D02*
D03*
X1495999D02*
D03*
X951002D02*
D03*
X1116002D02*
D03*
D191*
X1287000Y991252D02*
D03*
X1160000D02*
D03*
X1539997D02*
D03*
X1666997D02*
D03*
X1349999D02*
D03*
X1476999D02*
D03*
X970002D02*
D03*
X1097002D02*
D03*
D192*
X556750Y909000D02*
D03*
X510750D02*
D03*
Y952750D02*
D03*
X556750D02*
D03*
D193*
X512500Y694500D02*
D03*
X1278250Y334000D02*
D03*
X1630800Y546800D02*
D03*
Y521400D02*
D03*
X1630800Y496000D02*
D03*
X1630800Y470600D02*
D03*
Y445200D02*
D03*
Y419800D02*
D03*
Y394400D02*
D03*
X1630800Y369000D02*
D03*
X1630800Y343600D02*
D03*
Y318200D02*
D03*
X1656200Y546800D02*
D03*
Y521400D02*
D03*
X1656200Y496000D02*
D03*
X1656200Y470600D02*
D03*
Y445200D02*
D03*
Y419800D02*
D03*
Y394400D02*
D03*
X1656200Y369000D02*
D03*
X1656200Y343600D02*
D03*
D194*
X1627750Y92750D02*
D03*
X186250Y587750D02*
D03*
D195*
X273250Y633750D02*
D03*
X290250D02*
D03*
D196*
X1135000Y1078250D02*
D03*
Y1027250D02*
D03*
X1186000Y1078250D02*
D03*
X1160500Y1052750D02*
D03*
X1186000Y1027250D02*
D03*
X992500Y1078250D02*
D03*
Y1027250D02*
D03*
X1043500Y1078250D02*
D03*
X1018000Y1052750D02*
D03*
X1043500Y1027250D02*
D03*
X1328500D02*
D03*
X1303000Y1052750D02*
D03*
X1328500Y1078250D02*
D03*
X1277500Y1027250D02*
D03*
X1277500Y1078250D02*
D03*
X1471000Y1027250D02*
D03*
X1445500Y1052750D02*
D03*
X1471000Y1078250D02*
D03*
X1420000Y1027250D02*
D03*
Y1078250D02*
D03*
X1613500Y1027250D02*
D03*
X1588000Y1052750D02*
D03*
X1613500Y1078250D02*
D03*
X1562500Y1027250D02*
D03*
Y1078250D02*
D03*
X86500D02*
D03*
Y1027250D02*
D03*
X137500Y1078250D02*
D03*
X112000Y1052750D02*
D03*
X137500Y1027250D02*
D03*
X287500Y1027250D02*
D03*
X262000Y1052750D02*
D03*
X287500Y1078250D02*
D03*
X236500Y1027250D02*
D03*
Y1078250D02*
D03*
X437500Y1027250D02*
D03*
X412000Y1052750D02*
D03*
X437500Y1078250D02*
D03*
X386500Y1027250D02*
D03*
Y1078250D02*
D03*
D197*
X146100Y268000D02*
D03*
Y288000D02*
D03*
Y328000D02*
D03*
Y348000D02*
D03*
X99100Y343000D02*
D03*
Y318000D02*
D03*
Y298000D02*
D03*
Y273000D02*
D03*
X114100Y268000D02*
D03*
Y288000D02*
D03*
Y308000D02*
D03*
Y328000D02*
D03*
Y348000D02*
D03*
X131100Y343000D02*
D03*
Y318000D02*
D03*
Y298000D02*
D03*
Y273000D02*
D03*
X146100Y308000D02*
D03*
D198*
X253000Y311000D02*
D03*
Y331000D02*
D03*
Y371000D02*
D03*
Y391000D02*
D03*
X273000D02*
D03*
Y411000D02*
D03*
X253000Y291000D02*
D03*
Y411000D02*
D03*
X273000Y371000D02*
D03*
X253000Y351000D02*
D03*
X273000D02*
D03*
Y331000D02*
D03*
Y311000D02*
D03*
Y291000D02*
D03*
X253000Y271000D02*
D03*
X273000D02*
D03*
X253000Y251000D02*
D03*
X273000D02*
D03*
X253000Y231000D02*
D03*
X273000D02*
D03*
D199*
X51101Y696983D02*
D03*
Y634983D02*
D03*
X17001D02*
D03*
Y696983D02*
D03*
X51101Y534983D02*
D03*
Y472983D02*
D03*
X17001D02*
D03*
Y534983D02*
D03*
D200*
X1374250Y1055150D02*
D03*
X1461000Y387200D02*
D03*
X1578000Y16850D02*
D03*
X1089250Y1055150D02*
D03*
D201*
X1333250Y426500D02*
D03*
D202*
X1408250D02*
D03*
X1233250Y250000D02*
D03*
D203*
X445447Y21630D02*
D03*
X318143Y468000D02*
D03*
X860714Y876214D02*
D03*
D204*
X135900Y373700D02*
D03*
Y242300D02*
D03*
X79100Y373700D02*
D03*
Y242300D02*
D03*
D205*
X1528964Y558964D02*
D03*
X1503536D02*
D03*
X1528964Y584393D02*
D03*
X1503536Y584393D02*
D03*
X1528964Y609822D02*
D03*
X1503536D02*
D03*
X1528964Y635250D02*
D03*
X1503536D02*
D03*
X1528964Y660679D02*
D03*
X1503536D02*
D03*
X1528964Y686107D02*
D03*
X1503536Y686107D02*
D03*
X1528964Y711536D02*
D03*
X1503536D02*
D03*
X1658750Y733607D02*
D03*
X1658750Y708178D02*
D03*
X1658750Y682750D02*
D03*
X1658750Y657321D02*
D03*
X42870Y102519D02*
D03*
Y127947D02*
D03*
Y153376D02*
D03*
X170536Y847750D02*
D03*
X124910Y153376D02*
D03*
X174036Y1061250D02*
D03*
X170786Y765000D02*
D03*
D206*
X987250Y730500D02*
D03*
X1229250D02*
D03*
X561250Y244750D02*
D03*
X891250Y724750D02*
D03*
X561250Y724750D02*
D03*
X891250Y244750D02*
D03*
D207*
X783600Y1062250D02*
D03*
X809000D02*
D03*
X891000D02*
D03*
X916400D02*
D03*
D208*
X818250Y996050D02*
D03*
X881750D02*
D03*
X792850Y958150D02*
D03*
X805550Y932750D02*
D03*
X818250Y958150D02*
D03*
X830950Y932750D02*
D03*
X843650Y958150D02*
D03*
X856350Y932750D02*
D03*
X869050Y958150D02*
D03*
X881750Y932750D02*
D03*
X894450Y958150D02*
D03*
D209*
X792850Y983350D02*
D03*
X907150D02*
D03*
D210*
X907150Y932750D02*
D03*
D211*
X771500Y991150D02*
D03*
X928500D02*
D03*
D212*
X792850Y1021650D02*
D03*
X907150Y1021650D02*
D03*
D213*
X79500Y944000D02*
D03*
X29500D02*
D03*
X110500Y928000D02*
D03*
X29500Y899000D02*
D03*
X110500Y960000D02*
D03*
X79500Y908000D02*
D03*
X29500Y992000D02*
D03*
D214*
X643500Y1022750D02*
D03*
D215*
X691500Y989750D02*
D03*
D216*
Y1052750D02*
D03*
D217*
X1676350Y229500D02*
D03*
Y144500D02*
D03*
D218*
X811500Y136250D02*
D03*
X887500D02*
D03*
D219*
X1665000Y35000D02*
D03*
X492500Y857500D02*
D03*
Y142500D02*
D03*
X1207500D02*
D03*
X35000Y1065000D02*
D03*
Y35000D02*
D03*
X1665000Y1065000D02*
D03*
D220*
X581950Y1084250D02*
D03*
X496550D02*
D03*
X581950Y1036950D02*
D03*
X496550D02*
D03*
D221*
X515250Y1032450D02*
D03*
X563250D02*
D03*
X523250D02*
D03*
X555250D02*
D03*
X531250D02*
D03*
X547250D02*
D03*
X511250Y1025450D02*
D03*
X567250D02*
D03*
X519250D02*
D03*
X559250D02*
D03*
X527250D02*
D03*
X551250D02*
D03*
X535250D02*
D03*
X543250D02*
D03*
D222*
X1230050Y50200D02*
D03*
X1159950D02*
D03*
D223*
X1658750Y631893D02*
D03*
X42870Y178804D02*
D03*
X124910D02*
D03*
D224*
X64470Y127947D02*
D03*
D225*
X1656200Y318200D02*
D03*
D226*
X195964Y847750D02*
D03*
X199464Y1061250D02*
D03*
X196214Y765000D02*
D03*
D227*
X675105Y53025D02*
D03*
X650105D02*
D03*
X1025105Y53000D02*
D03*
X1050105D02*
D03*
X950105Y53025D02*
D03*
X975105D02*
D03*
X875105D02*
D03*
X900105D02*
D03*
X800105D02*
D03*
X825105D02*
D03*
X725105D02*
D03*
X750105D02*
D03*
D228*
X106300Y90500D02*
D03*
X253450Y90750D02*
D03*
X169550Y90500D02*
D03*
X254190Y20380D02*
D03*
X373300Y20500D02*
D03*
D229*
X1505500Y402857D02*
D03*
X140000Y904357D02*
D03*
M02*
