M48
;Layer_Color=9474304
;FILE_FORMAT=4:4
METRIC,LZ
;TYPE=PLATED
T1F00S00C0.2000
T2F00S00C0.4000
T3F00S00C0.5500
T5F00S00C0.7000
T7F00S00C0.9000
T9F00S00C1.0000
T11F00S00C1.1000
T12F00S00C1.1200
T13F00S00C1.2000
T14F00S00C1.3000
T15F00S00C1.6000
T16F00S00C1.7000
T17F00S00C2.4000
T18F00S00C3.0000
T19F00S00C3.2000
;TYPE=NON_PLATED
T20F00S00C0.7500
T21F00S00C0.8000
T22F00S00C0.9000
T23F00S00C1.0000
T24F00S00C1.1000
T25F00S00C1.3000
T26F00S00C1.6000
T27F00S00C1.8000
T28F00S00C3.4000
%
T01
X001002Y0003645
X0010675Y00092
X0007075Y00242
X0005725Y0025625
X000565Y0028425
X0004425
X0007075Y002975
X0007Y0031775
X0006Y0034075
X0017775Y003135
Y002935
X0001675Y00209
Y0020425
X00206Y0030775
X0033875Y0033225
Y0033725
Y0034225
X0034375
Y0033725
X0034875
Y0034225
Y0033225
X0034375
X0041825Y00314
Y003085
X00423Y0031125
X0043725Y003235
X00436Y0029225
X004155Y0027275
X0041375Y0026075
X0040125Y0026
X0036625Y00256
Y002495
X003115Y0020275
Y0019325
X00436Y001925
X0045075Y00166
Y00161
X0046125Y0008575
X0038725Y00082
X003915Y0011075
X003975Y0011175
X003015Y00056
X0053945Y0008425
X0055925Y0011375
X0056925
X005579Y001517
X005452
X005515Y0017225
X00567Y0016175
X0056125Y0022475
X00547108Y00230608
X0054125Y0024475
X00547108Y00258892
X0056125Y0026475
X00575392Y00258892
X0058125Y0024475
X00575392Y00230608
X006Y002535
X00503Y0029325
Y0029925
X0049625Y002975
X0050025Y0032625
X005105Y0033225
X00527Y00327
X005305Y0033025
X0052725Y003405
X00533Y003525
X005575Y0035425
X00433Y003525
X004225Y003525
X00598965Y00053536
X006025Y0005
X0061965Y0008175
X0064385
X00655101Y00032525
Y00018525
X00730101Y00032525
X00746101Y00032525
X00805101Y00032525
X00821101Y00032525
X0082625Y000835
X0081
X00817Y0009225
X00799Y0009275
X0077225Y0008825
Y0008325
X00722Y001245
X0072Y001665
X007315Y001665
X007405Y001665
X00743Y0016
X0076425Y0017175
X007465Y0019325
X00748Y00201
X0073175Y0019475
X007195
X0070475Y00193312
X0070325Y00201063
X0070675Y0017975
X0070675Y0017225
X007115Y00183
X007095Y00221
X0072125Y002215
X0069625
X0067125Y0022225
X0066625
X0066825Y002135
X0065Y0021675
X006545Y002285
X00664Y002355
X0066175Y002545
X006635Y0027325
X0068525Y002755
X0069875Y00272
X007065Y002515
X00726Y002695
X007365Y002645
X00754Y0027175
X0075575Y0028525
X0075625Y0030925
X0073475
X0072325Y00301
X00729Y00337
X00707Y0034475
X006875Y003435
X0067925Y0033275
Y0032775
Y0032275
X00694Y00323
X0067275Y0030575
X0066875Y003095
X0065375Y0032
X00654Y0032975
X0064925Y002895
Y002845
X0064475Y002795
X00605Y002535
X006125Y002425
X006125Y00237
X006125Y002315
X006295Y0020225
X006485Y0018
X006345Y0016175
X006254Y001517
X006127
X0063235Y0014225
X0064385
X00682Y0014325
X0060775Y0017975
X0060525Y003515
X006125Y003655
X006345Y0036975
X0062675Y003515
X007565Y003575
X0078075Y0028775
X0079975Y0029375
X00772379Y00249222
X00767Y00249172
X0076205Y00254121
X00762Y002595
X007345Y002385
X0074775Y0022525
X00877108Y00230608
X0089125Y0022475
X00905392Y00230608
X0091125Y0024475
X00905392Y00258892
X0089125Y0026475
X00877108Y00258892
X0087125Y0024475
X0088325Y0019575
X0089175Y0018825
X009455Y0018975
X009835Y0019975
X0098075Y00204
X009815Y0022175
X00966Y00236
X0096025Y00249
X00967Y00313
Y0031975
X0099425Y0031125
X0099425Y003065
X00971101Y000325
X00955101Y000325
X0092925Y00032
X00896101Y00032525
X00880101Y00032525
X0085225Y00142
X0084275Y00154
X0082275
X0099875Y0015625
Y0015075
X0099875Y0016275
Y0016825
X0099825Y00223
X0100625
X0101425
X0102225Y00223
X0103025Y0023725
X0103825
X0104975Y0023475
X0105325Y00231
X0104625Y00223
X0105325Y00209
X0106875Y00164
X0107425
X010625Y0014175
X01062625Y00135375
X011515Y001375
X011565
X011615
Y001425
Y001475
X011565
Y001425
X011515
Y001475
X0115025Y00223
X0114225
X0113425Y00223
X0112625
X0111825Y00225
X0111025
X0110225Y00223
X0112275Y0024975
X0114075Y002485
X0115175
X0115875Y00241
X0115825Y00223
X0117425Y002245
X0117425Y0022925
X0118225
X0118225Y002245
X0113375Y00241
X0111425Y0027075
X0111425Y002755
X01114Y0030825
X011095Y003115
X0112Y0031075
X0113025Y0030725
Y0030225
X0113825Y0031
X0114625
X01139Y003365
X01133375Y00331125
X0109825Y0033325
X010895Y0031425
X0109775Y0030425
X010905Y0026275
X0107425Y0027675
X0105025Y002785
X0104225
X0103425
X0102625
X0101825
X0100225Y00276
X0101025Y003035
Y003085
X0121025
Y003035
X0123875Y00304
X012595Y003095
Y002975
X0126925Y003035
X01279Y003095
Y002975
X012835Y0031725
X0129425Y00319
X01335Y0031925
X01335Y0031375
X01335Y003085
X01375Y00314
X01385Y00346
X01385Y002815
Y00256
X01355Y00256
X01345Y00254375
Y00259
X01335Y00259
Y00254375
X01355Y00221
X01365Y00224
X01375
X01385Y001915
X01311Y00204
X012995Y00208
X01292Y00208
X0128525Y0020775
X012795Y002125
X0128425Y00168
X0130275Y00169
X0130775Y0016575
X01309Y0013925
X0130475Y0011875
X0131475Y0008725
X01348Y000985
X0135525Y0010575
X0134725Y0011975
X0136875Y0011975
X0139375Y0007575
X013755Y0004875
X013675
X0133075Y0005525
X0133475Y000595
X0119025Y0006075
X0112675Y0006875
X0111625Y0005875
X0110475Y0004975
X0111375Y0003184
X0113366Y0003384
Y0002884
Y0002384
X0113366Y0003884
X0112025Y0001384
X01046101Y000325
X01030101Y000325
X0122625Y0027075
X0122625Y002755
X0126175Y0024825
X0120225Y0035875
X0119425
X0118625
X01415Y00346
X01445
X01475Y00346
X01502507Y00343
X01496144Y00324506
Y00314506
X01487007Y00314856
X014815Y002985
X01475Y002815
X0149475Y00281
X01495394Y00271007
X01486994Y00255894
X01475744Y00255894
X01464493Y00255894
X01451993Y00255894
X01445Y00256
X014375Y0027
X01445Y002815
X01457875Y0027225
X01455Y00314
X01465
X01435Y00314
X01425
X01405
X01395
X01415Y002815
Y00256
X01405Y00224
X01395
X01425
X01435
X01455Y00224
X01465
X01494394Y00224506
X01494394Y00235756
X0151Y0021125
X0154475Y002095
X01545Y002195
X01538856Y00225243
X01539856Y00237493
X01532493Y00258894
X01517493
X015145Y00278
X015255Y00278
Y00289
X015145Y00289
X0151175Y0031
X01501393Y00302743
X01532493Y00308106
X01549394Y00301007
X01544606Y00296007
X0155175Y00291007
X01544606Y00281007
X0155525Y00266257
X015625Y0026325
X0157725Y00284
X01578456Y0030295
X0157075Y0032575
X01569987Y00339394
X01553631Y0036625
X01544731Y00372387
X01607337Y00368644
X016185Y00291063
Y00285813
X01618Y0025525
X0158875Y002325
X015855Y00228
X01583Y002365
X015765
X01603Y0019325
X0163625Y001935
X01651Y0018775
Y00177
Y00167
X0166424Y00136
X0166325Y001145
X01658Y001095
X0168325Y001045
X016245Y00113
X016195Y001355
X016085
Y001465
X016195
X01582Y0015775
X01585Y001725
X015415Y001715
X01528Y0016925
X01508Y00164
X0154525Y00152
Y00147
X015675Y0012
X015775
X0157725Y0010425
X01572
X01593Y001135
X01448Y0013425
X014475Y0014075
X0144225Y0015875
Y00164
X01445Y00193
X01475Y00193
X01415Y00193
X0139875Y0015
Y001385
X0142064Y0010315
X0141239Y0009365
X0141Y0008525
X0142064Y0008415
X0142889Y0009365
X014095Y0007
X014979Y000259
X015079Y000259
X0167075Y0027825
X01607337Y00388644
X0158374Y00388494
X01582843Y00413987
X01576494Y0042035
X01569994
X01563494
X01556994
X01563656Y00434872
X01563481Y00450137
Y0046285
X01563494Y0048185
X01569994
X01556994
X01551237Y00504993
X01563487
X01575737Y00504993
X01576371Y00444879
X01554641Y0044185
X01521404Y0045295
X01515041Y004355
X0147275Y0044
Y00452
X01463Y00446
X0145325Y0044
Y00452
X0144875Y0043225
X01438Y004305
X014625Y00402
Y00396875
X0148775Y004155
X014915Y0047225
X014575Y00517
Y005215
X014305Y0051025
X014255
X014128Y0055085
X014001
X0142Y006035
X0141325Y0062725
X014295Y00633
X0142425Y006415
X014345Y0066075
X01426Y006755
X014475Y0071775
X0145275
X0145Y0072225
X0147975Y0073725
X01485
X0148225Y0074175
X0157075Y0073525
Y0073025
X01605821Y00662821
X01576481Y00407637
X01553637Y00376303
X0143025Y003775
X0143025Y00383
X013845Y0054025
X01347585Y00567335
X0127375Y0056825
Y0057375
X0117075Y0059475
X0116525
X0116525Y0060025
X0117075
X011475Y0062325
X0114225
X0114475Y0062775
X0111375Y006275
X0111125Y00623
X011165
X0115227Y0066485
Y0066985
X0116875Y007275
X01174
X0117125Y00732
X0120925Y007305
X01215108Y00744642
X0122925Y007505
X01243392Y00744642
X0124925Y007305
X01243392Y00716358
X0122925Y007105
X01215108Y00716358
X0118902Y0070825
X0112298Y007185
X0110825Y0071865
X0112525Y007655
X011305
X0112775Y0077
X010775Y0076925
X0104221Y007289
X0100725Y007305
X01001392Y00716358
Y00744642
X010715Y0068025
Y0067525
X012675Y0076975
X0137437Y00734975
Y00729975
X0098725Y007105
X00973108Y00716358
X0096725Y007305
X00973108Y00744642
X0098725Y007505
X00905392Y00738892
X0091125Y0072475
X00905392Y00710608
X0089125Y0070475
X00877108Y00710608
X0087125Y0072475
X00877108Y00738892
X0089125Y0074475
X00828Y007245
X0082675Y0069275
X0079686Y00654
X0078725Y006545
X007345Y006535
X007285
X0072251Y0065351
X0071575Y006535
X007095
X0068425Y0067675
X0067925Y006725
X0063925Y0067925
X00629Y006725
X0062825Y00618
X0064057Y0062268
X00655Y00636
X006565Y00606725
X006605Y0059525
X00668521Y0059575
X006645Y0058775
X00672521Y00582
Y005765
X0068425Y0060025
X006855Y00606
X00680188Y00606
X006915Y0060675
X007125
X007335
X0075425Y00607
X007755
X007965Y0060725
X008175Y0060725
X0081818Y0062268
X008525Y006255
X0086825Y00606
X0087575Y006425
X0090325Y0062375
X00909
X00918Y0062475
X00922Y0062175
X0092025Y0060575
X00946Y0060625
X00948Y006225
X009685Y006215
X0094064Y006575
X0093275Y0065975
X0091275Y006645
X009028Y0054275
X009028Y0053675
X009028Y0053075
X009028Y0052475
X009205Y0051875
X009205Y0051275
X0092775Y0048175
X009205Y0045875
X009205Y0045275
X009205Y0043475
X009205Y0042875
X009205Y0041075
X009205Y0040475
X009205Y0038675
X009205Y0038075
X009028Y0039275
X009028Y0039875
X009028Y0041675
X009028Y0042275
X009028Y0044075
X009028Y0044675
Y0046475
X009028Y0047075
X0086125Y0046975
Y0046175
X0085475Y0046575
Y0047375
X00872Y0050075
X00872Y0050675
X008645Y0051275
X008645Y0051875
X0085825Y0052149
X00872Y0052475
X00872Y0053075
X00872Y0054275
X0086125Y00536
Y00564
X008475Y0056925
X008425
X00827121Y0056475
X0082075Y0056925
X00797Y0054575
X0078065Y0052735
X008125Y005265
X007435Y0053125
X007385Y00527
X007375Y0049825
X0075375Y0049675
X0075325Y0048075
X007295Y004805
X0073425Y0045925
X0072875Y004485
X0070968Y0043285
X007045Y0043275
X006835Y0043175
Y00437
X0066875Y00428
X00717Y004055
X0073875
X0074425Y00403
X0074925Y0040625
X00814914Y004025
X008175Y0039725
X00814914Y0039175
X00821Y00406
X00872Y0039875
X00872Y0039275
X008897Y0038675
X008897Y0038075
Y0040475
X008897Y0041075
X007955Y004465
X00792Y0044325
X00709629Y00512771
X00723Y00546
X007015Y005515
X0069675
X0063375Y0056175
X006265
X0061875Y0055425
X0060825Y0056625
X006335Y00571
X006195Y006055
X006315Y005085
X0063675Y0051275
X006415Y0051675
X0061175Y0040075
X0062975Y0037375
X006255Y0072675
X00637136Y00728225
X00637161Y00739701
X00645Y007445
Y0074975
X0065025
X0065975Y00745
X0068325
X006715Y0073325
X0068325Y007215
X0065975
X00664Y0070804
X00716Y00709
X00725161Y00721201
X00725361Y007315
X0070525Y00752
X0071125Y007615
X00625Y007505
X00575392Y00738892
X0058125Y0072475
X00575392Y00710608
X0056125Y0070475
X00547108Y00710608
X0054125Y0072475
X00547108Y00738892
X0056125Y0074475
X0059275Y0066075
X0057225Y006135
X00566Y00608
X0054575Y0060925
X0053475
X005285
X0053225Y0058375
X005225Y0058125
X0052025Y0057625
X00541Y0056125
X0053475Y0054575
X0053475Y0052575
Y0051375
X0053475Y0050575
X0053475Y0049775
Y0048975
Y0047375
X0054695Y0047775
X0054695Y0049375
X0055325Y0049775
X0056555
X0056555Y0050575
X0055525Y0051425
X0055025Y0051375
X0054695Y0051775
X0054695Y0050975
Y0052975
X0055325Y005235
X0056175Y0054175
X0057775Y0055775
X0058375Y00569
X0058725Y005725
X0058525Y00518
X005895Y0051375
X00581Y0052225
X00524Y005275
X004575Y005305
Y00538
X0045425Y0056125
X0044375Y0056125
X0045325Y0060475
Y0061325
Y0062175
X0046525
Y0061325
Y0060475
X004845Y00608
Y0061475
Y006215
X004845Y0062825
X004815Y00638
X004735Y00638
X00439545Y00635989
Y00643489
X00432045
X00424545
X00424545Y00635989
X00432045
X0040925Y00611
X0040925Y006005
X0040925Y0059025
X00403855Y0059475
X00347Y0058675
X003405Y005895
X003425Y0062475
Y0063
X0033725
X00337Y0062475
X0031775Y0062275
X0029775Y00623
X00275Y0062275
X0025225
X002241Y00623
X002625Y0058625
X002675Y0058625
X00288Y00568
Y005305
Y00525
Y004955
X00273
X00313Y0048725
X00318
X00323
Y0048225
X00318
X00313
X0036Y00541
X00365
X0037
Y00546
Y00551
X00365
Y00546
X0036
Y00551
X00378625Y00427405
Y00412405
X00388Y0040225
X00388Y0039175
X00388Y003815
X00382605Y00386
X00432Y00396
Y004045
Y00413
X00444
Y004045
Y00396
X0046325Y0039925
Y00406
Y0041275
X0046325Y004195
X0046025Y0042925
X0045225Y0042925
X00418295Y00427239
X00410795
X00410795Y00434739
X00418295
X00403295Y00434739
X00403295Y00427239
X0048175Y00394
X0048Y00388
X0050625Y0038
X0053475Y0038575
Y0039375
X0054695Y0039775
X0054695Y0038975
X0056555Y0039375
X0056555Y0038575
X0057775Y0038975
X0058375Y003885
X005845Y0038075
X005905Y0038125
X0057775Y0038175
X0059Y00397
Y0040275
X00594Y0040625
X0059625Y0042725
Y0043275
X0058725Y00433
Y004385
X0058175
Y00433
X00565Y00427
X005618Y0043775
X0056555Y0044175
X0056555Y0045775
X0056425Y004735
X0054695Y0045375
X00536Y0044575
X0052525Y004435
Y004375
X00527Y004295
X00533
X0052175Y0042725
X0054675Y004295
X00275786Y00404535
X0027175Y0040075
X0026587Y003924
X0023658Y0044105
Y0044605
X0021385Y0055696
X0022Y0071875
X002275
X00235
Y0072625
Y0073375
X002275
X0022
Y0072625
X002275
X00224328Y0075525
X00219025Y0075525
X0021225Y0075625
X0036875Y0075475
X003735Y0075475
X0037825Y0075475
X003875Y00765
X0039225Y00765
X004425Y00689
X001965Y0076575
X0015675
X000965Y007535
X00072Y00755
X000655Y00755
X00059Y00755
X00025Y00769
X0007535Y00624
X001135Y0059675
X001185
X0011875Y0058725
X0011375
X0011775Y00562
X000651Y0055796
X0011975Y00406
X0018525Y00397
X0019983Y0040265
X001965Y00772
Y0077825
Y007845
X0018775Y00815
Y00825
X0017775
X0016775
Y00815
X0017775
X0015675Y007845
Y0077825
Y00772
X00025Y0078
X00025Y00791
Y00802
Y00813
Y00824
Y00835
Y00846
X0003375Y008475
Y008375
X000335Y008275
X00026Y00922
X0002525Y0096625
X0015425Y009615
Y009715
X0016425
X0017425
X0018425
X0019425
X0015425Y009515
Y009415
Y009315
Y009215
Y009115
X001055Y0091225
X00095Y009
X0024Y0092825
Y009345
Y0094075
Y00947
X00264
Y0094075
Y009345
Y0092825
X002895Y0092325
Y00917
X003415Y0089725
X00351Y009065
X00359625Y00912625
X0044375Y00912
X0044375Y0090525
X0045125
X0045125Y00912
X0045875
Y0090525
X00458Y0088475
X0045075
X00427Y008945
X0042575Y0083075
X0045725Y00845
Y0085425
X00491Y009025
X004905Y00924
X0051325Y00925
X0051325Y0093175
X0052075
X0052075Y00925
X0052825
Y0093175
Y0088425
X00546625Y00901125
X00594Y0087725
X0060075Y0099825
X0059825Y0100975
X0059125Y01027
X0055175Y0100575
X0052675
X0052825Y009905
X0052225
X0053825Y00983
X005485Y0098325
X005045Y01011
X00506Y01017
X0023425Y009715
X0022425
X0021425
X0020425
X0034475Y0081425
Y0080675
X0035225
X0035975
Y0079925
X0035225
X0034475
X0035225Y0081425
X0035975
X003855Y0078775
X0039025Y0078775
X0060725Y0087725
X006175
X006295Y0099825
X0062Y0100975
X007035Y0094425
X007215Y0094275
X007435Y009465
X0075025Y009505
Y009565
X0076225
Y009505
X00814Y0094675
X0081125Y0097475
X0085625Y0098125
X0084325Y0100375
X008545Y0106225
X00747
X00779Y0089175
X0084425Y0089575
X0085625Y008985
X008805Y0090175
X008885Y008925
X0088175Y00947
X0093525Y0094535
Y0095135
X0094725
Y0094535
X009475Y0093425
X00942
X00944Y009295
X0094975
X0099625Y00928
X009895Y009155
Y0091
X0095125Y01038
X00749Y008435
X0073675Y0083025
X00721Y0081275
X0072075Y008065
X00713Y007765
X0074375Y007915
X0105Y00795
X0106Y00815
X01065Y00825
Y00835
Y00845
X01064Y00854
X01055Y00859
X01048Y0087
X01054Y00879
X0105Y0089
X01045Y009
Y0091
Y0092
X01037751Y00923
Y009328
Y009428
X0102785Y009429
X0102775Y009329
X0101775Y00933
Y009428
Y00923
X01027651Y009229
X0102Y009
Y0089
X0101325Y00894
X009985Y0090015
X01023Y00878
X01033Y00869
X0107Y00885
X01079Y00887
X0109Y00855
Y00845
Y00835
Y00825
X01095Y00815
X0110525Y00799
X0107725Y0078875
X01169Y00838625
X011735
Y00854125
X01169
X0118925Y00851625
Y00846375
Y00841125
X012055Y008485
Y008545
Y008605
Y00867
X0120575Y0087525
X011945Y008755
X01184Y0087625
X01176Y008795
X0118925Y009105
X0118675Y00920125
Y00930125
X0116075
Y00920125
X0116275Y00911
X011675Y0093925
X01166875Y0094975
X01156875
X01146875
X01136875
X01126875
X01116875Y0094975
X01106875
X01096875
X01097801Y0094175
X01091
X01086875Y0094975
X01076875Y0094975
X01066875
X01056875Y0094975
X01046875
Y0097575
X01056875
X01066875Y0097575
X01076875
X01086875Y0097575
X01096875
X01106875
X01116875
X01126875Y0097575
X01136875
X01146875
X01156875
X01166875
X01176875Y0097425
X0118575Y0096975
X0120225Y009775
X011965Y00989
X01195Y0100125
Y0101125
X01221001
Y0100125
X01227Y009925
X0123975Y00989
X0124775Y0098075
X0125Y0096825
X01249Y00956
X012425Y00947
X012505Y00932
X0125275Y009025
X012405Y009045
X012295Y0090425
X0122765Y009105
X0122215
X012195Y0090425
X012095
X0120965Y0091475
X0119825Y0090425
X0117675Y0094625
X0121475Y0097125
X01226Y00965
X012275Y00867
Y008605
Y008545
Y008485
X012544Y0084625
Y0085625
X012525Y0086625
X0124575Y0087325
X0123575Y00875
X0127775Y008785
X0128025Y0086775
X01280401Y0085625
Y0084625
Y0083625
Y0082625
X012844Y0081625
X012494
X012544Y0082625
Y0083625
X012405Y007945
X012675Y0079325
X0134508Y00783625
X013856Y0079325
X0139085
X0139325Y00894
X013785Y0090015
X013695Y0091
Y009155
X0137625Y00928
X01385Y0095
Y0096
Y0097
Y0098
Y0099
Y01
Y0101
X0131975Y00971104
X01263Y008955
X01271Y008875
X0110215Y00924375
Y00928875
X0108665
Y00924375
X01031001Y0096
Y0097
X0103675Y0097175
X01031001Y0098
Y0099
Y01
Y0101
X01005
Y01
Y0099
Y0098
Y0097
Y0096
Y0095
X0139775Y009428
Y00933
Y00923
X0140765Y009229
X0140775Y009329
X01417751Y009328
Y00923
X01425Y0092
Y0091
Y009
X0143Y0089
X01434Y00879
X0142975Y0087
X01435Y00859
X01444Y00854
X01445Y00845
Y00835
Y00825
X0144Y00815
X014305Y0079475
X014575Y00789
X01475Y00815
X0147Y00825
Y00835
Y00845
Y00855
X0145925Y0088725
X0145Y00885
X014125Y0087125
X01403Y00878
X014Y0089
Y009
X0140785Y009429
X01417751Y009428
X01426875Y0094975
X01436875
X01446875Y0094975
X01456875
X01466875Y0094975
X01476875
X01477801Y0094175
X01471
X0146665Y00928875
Y00924375
X0148215
Y00928875
X01486875Y0094975
X01496875
X01506875Y0094975
X01516875
X01526875
X01536875
X01546875
X015475Y0093925
X0154075Y00930125
Y00920125
X0154275Y00911
X0156925Y009105
X0156675Y00920125
Y00930125
X0155675Y0094625
X01556875Y0097425
X01546875Y0097575
X01536875
X01526875
X01516875
X01506875
X01496875Y0097575
X01486875
X01476875
X01466875
X01456875Y0097575
X01446875
X01436875Y0097575
X01426875
X0141725Y00971
X01411001Y0097
Y0096
Y0098
Y0099
Y01
Y0101
X01575Y0101125
Y0100125
X015765Y00989
X0158075Y009775
X0159475Y0097125
X01606Y00965
X0163Y0096825
X01629Y00956
X0162575Y009485
X016305Y00932
X0163175Y0090125
X016205Y0090375
X016095Y0090425
X0160765Y009105
X0160215
X015995Y0090425
X015895
X0158965Y0091475
X0157825Y0090425
X015745Y008755
X0156525Y00876
X0155675Y00879
X015535Y00854125
X01549
Y00838625
X015535
X0156925Y00841125
Y00846375
Y00851625
X015855Y008545
Y008485
Y008605
Y00867
X0158575Y0087525
X016075Y00867
Y008605
Y008545
Y008485
X016344Y0084625
Y0083625
Y0082625
X016294Y0081625
X0162025Y00795
X016475Y00794
X016335Y00778
X016075Y0077365
X01591Y00792
X0158575
X015805
X01564Y0081975
X015595Y0082225
Y00817
X0154146Y007839
X0148425Y0080575
X013961Y0079325
X0141112Y00773375
X016644Y0081625
X01660401Y0082625
Y0083625
Y0084625
Y0085625
X0165925Y0086675
X016565Y00878
X01651Y008875
X0164275Y0089525
X016325Y0086625
X016344Y0085625
X016255Y0087275
X0161575Y00875
X0162775Y0098075
X0161975Y00989
X01607Y009925
X01601Y0100125
Y0101125
X0156575Y0096975
T02
X0051125Y0102545
X0051925
X0052725
X0053525
X0054325
X0055125
X0055925
X0056725
X0056325Y0103245
X0055525
X0054725
X0053125
X0052325
X0051525
T03
X00082001Y00498983
X00093561
X00105121
X00116681
X00128241
X00139801
X00151361
X00162921
X00174481
X00186041
X00180261Y00508983
X00168701
X00157141
X00145581
X00134021
X00122461
X00110901
X00099341
X00087781
X00093561Y00660983
X00105121
X00116681
X00128241
X00139801Y00660983
X00151361
X00162921
X00174481
X00186041Y00660983
X00180261Y00670983
X00168701
X00157141
X00145581
X00134021
X00122461
X00110901
X00099341
X00087781
X00082001Y00660983
T05
X008115Y0013625
X008875
T07
X000825Y000193
Y000447
X0012675Y000447
Y000193
X001798Y0009
X001449Y00273
Y00298
Y00318
X001449Y00343
X001187Y00343
Y00318
Y00298
Y00273
X0025419Y0015075
X0027959
X0030499
X0030499Y0009025
X0027959
X0025419
X002052Y0009
X0025419Y0002038
X0027959
X0030499
X0037319Y0009025
X0039859
X0042399
Y0015075
X0039859
X0037319
Y0021125
X0039859
X0042399
X00445447Y0002163
X00470876
X00496304
X00521733
X01416214Y00427607
Y00453035
X01416214Y00478464
X015055Y00479143
Y00453714
Y00428286
Y00402857
X01390785Y00427607
Y00453035
X01390786Y00478464
X00318143Y00468
X00292714
X00267286
X00241857
X0014Y00904357
Y00929786
Y00955214
Y00980643
X0079285Y0098335
X0090715
X00860714Y00876214
X00835286
Y00850786
X00860714
X013075Y0102405
Y0104945
T09
X0004287Y00102519
Y00127947
Y00153376
Y00178804
X0012491
Y00153376
X011725Y000253
X012175
X016308Y003182
Y003436
X016562
Y003182
X016562Y00369
X016308
X016308Y003944
Y004198
Y004452
Y004706
X016562
Y004452
Y004198
Y003944
X016562Y00496
X016308
X016308Y005214
Y005468
X016562
Y005214
X0165875Y00631893
X0165875Y00657321
X0165875Y0068275
X0165875Y00708178
X0165875Y00733607
X01529964Y00711536
Y00686107
Y00660679
Y0063525
Y00609822
Y00584393
Y00558964
X01504536
Y00584393
Y00609822
X01504536Y0063525
X01504536Y00660679
Y00686107
Y00711536
X00413714Y0067525
X00388286
X00199464Y0106125
X00174036
X003525Y00975714
Y00950286
X0079285Y0095815
X0081825
X0084365
X0086905
X0089445
X0088175Y0093275
X0085635
X0083095
X0080555
X0081825Y0099605
X0088175
X0090715Y0093275
T11
X00026Y00899
X00026Y00944
X00026Y00992
X00076Y00944
Y00908
X00107Y00928
Y0096
T12
X007836Y0106225
X00809
X00891
X009164
T13
X00250286Y00261393
Y00286821
Y0031225
X00275714
X00275714Y00286821
Y00261393
Y00337678
X00250286
Y00363107
X00275714Y00363107
T14
X0115995Y000502
X0123005
T15
X000865Y0102725
Y0107825
X001375
X00112Y0105275
X001375Y0102725
X002365
X00262Y0105275
X002875Y0107825
X002365
X002875Y0102725
X003865
X00412Y0105275
X004375Y0107825
X003865
X004375Y0102725
X009925Y0102725
Y0107825
X01018Y0105275
X010435Y0102725
Y0107825
X011825
X012335
X01208Y0105275
X011825Y0102725
X012335Y0102725
X013725
Y0107825
X014235
X01398Y0105275
X014235Y0102725
X015625
Y0107825
X016135
X01588Y0105275
X016135Y0102725
T16
X007715Y0099115
X009285
T17
X000916Y002423
X001484
Y003737
X000916
T18
X00035Y00035
X0056125Y0024475
X0089125Y0024475
X01665Y00035
X0122925Y007305
X0098725
X0089125Y0072475
X0056125Y0072475
X00035Y01065
X01665
T19
X004925Y001425
X012075
X004925Y008575
T20
X0167635Y001445
Y002295
T21
X0Y0029375
Y003055
Y003175
Y003295
X017
Y003175
Y003055
Y0029375
Y007205
Y007325
Y007445
Y0075625
X0
Y007445
Y007325
Y007205
X0039475Y011
X004065Y011
X004185
X004305
X00832125
X00843875Y011
X00855875
X00867875
X012695Y011
X012815
X012935
X0130525Y011
T22
X0126575Y0001625
X0126575Y0014525
X0141475
Y0001625
T23
X0135225Y006605
T24
X0123325Y0025
T25
X0006447Y00127947
X00650105Y00053025
X00675105
X00725105
X00750105
X00800105
X00825105
X00875105
X00900105
X00950105
X00975105
X01025105Y00053
X01050105
X0135225Y005855
T26
X0098325Y0025
T27
X00063001Y00488983
Y00650983
X00195501Y00685983
Y00523983
T28
X0079285Y0102165
X0090715Y0102165
M30
